999
dxfrw 0.6.3
  0
SECTION
  2
HEADER
  9
$ACADVER
  1
AC1021
  9
$DWGCODEPAGE
  3
ANSI_1252
  9
$INSBASE
 10
0
 20
0
 30
0
  9
$EXTMIN
 10
0
 20
0
 30
0
  9
$EXTMAX
 10
290
 20
210
 30
0
  9
$LIMMIN
 10
0
 20
0
  9
$LIMMAX
 10
420
 20
297
  9
$ORTHOMODE
 70
    0
  9
$REGENMODE
 70
    1
  9
$FILLMODE
 70
    1
  9
$QTEXTMODE
 70
    0
  9
$MIRRTEXT
 70
    0
  9
$LTSCALE
 40
1
  9
$ATTMODE
 70
    0
  9
$TEXTSIZE
 40
2.5
  9
$TRACEWID
 40
15.68
  9
$TEXTSTYLE
  7
STANDARD
  9
$CLAYER
  8
0
  9
$CELTYPE
  6
BYLAYER
  9
$CECOLOR
 62
  256
  9
$CELTSCALE
 40
1
  9
$DISPSILH
 70
    0
  9
$DIMSCALE
 40
2.5
  9
$DIMASZ
 40
2.5
  9
$DIMEXO
 40
0.625
  9
$DIMDLI
 40
3.75
  9
$DIMRND
 40
0
  9
$DIMDLE
 40
0
  9
$DIMEXE
 40
1.25
  9
$DIMTP
 40
0
  9
$DIMTM
 40
0
  9
$DIMTXT
 40
2.5
  9
$DIMCEN
 40
2.5
  9
$DIMTSZ
 40
0
  9
$DIMTOL
 70
    0
  9
$DIMLIM
 70
    0
  9
$DIMTIH
 70
    0
  9
$DIMTOH
 70
    0
  9
$DIMSE1
 70
    0
  9
$DIMSE2
 70
    0
  9
$DIMTAD
 70
    1
  9
$DIMZIN
 70
    8
  9
$DIMBLK
  1

  9
$DIMASO
 70
    1
  9
$DIMSHO
 70
    1
  9
$DIMPOST
  1

  9
$DIMAPOST
  1

  9
$DIMALT
 70
    0
  9
$DIMALTD
 70
    3
  9
$DIMALTF
 40
0.03937
  9
$DIMLFAC
 40
1
  9
$DIMTOFL
 70
    1
  9
$DIMTVP
 40
0
  9
$DIMTIX
 70
    0
  9
$DIMSOXD
 70
    0
  9
$DIMSAH
 70
    0
  9
$DIMBLK1
  1

  9
$DIMBLK2
  1

  9
$DIMSTYLE
  2
Standard
  9
$DIMCLRD
 70
    0
  9
$DIMCLRE
 70
    0
  9
$DIMCLRT
 70
    0
  9
$DIMTFAC
 40
1
  9
$DIMGAP
 40
0.625
  9
$DIMJUST
 70
    0
  9
$DIMSD1
 70
    0
  9
$DIMSD2
 70
    0
  9
$DIMTOLJ
 70
    0
  9
$DIMTZIN
 70
    8
  9
$DIMALTZ
 70
    0
  9
$DIMALTTZ
 70
    0
  9
$DIMUPT
 70
    0
  9
$DIMDEC
 70
    2
  9
$DIMTDEC
 70
    2
  9
$DIMALTU
 70
    2
  9
$DIMALTTD
 70
    3
  9
$DIMTXSTY
  7
STANDARD
  9
$DIMAUNIT
 70
    0
  9
$DIMADEC
 70
    0
  9
$DIMALTRND
 40
0
  9
$DIMAZIN
 70
    0
  9
$DIMDSEP
 70
   44
  9
$DIMATFIT
 70
    3
  9
$DIMFRAC
 70
    0
  9
$DIMLDRBLK
  1
STANDARD
  9
$DIMLUNIT
 70
    2
  9
$DIMLWD
 70
   -2
  9
$DIMLWE
 70
   -2
  9
$DIMTMOVE
 70
    0
  9
$DIMFXL
 40
1
  9
$DIMFXLON
 70
    0
  9
$DIMJOGANG
 40
0.7854
  9
$DIMTFILL
 70
    0
  9
$DIMTFILLCLR
 70
    0
  9
$DIMARCSYM
 70
    0
  9
$DIMLTYPE
  6

  9
$DIMLTEX1
  6

  9
$DIMLTEX2
  6

  9
$LUNITS
 70
    2
  9
$LUPREC
 70
    4
  9
$SKETCHINC
 40
1
  9
$FILLETRAD
 40
0
  9
$AUNITS
 70
    0
  9
$AUPREC
 70
    2
  9
$MENU
  1
.
  9
$ELEVATION
 40
0
  9
$PELEVATION
 40
0
  9
$THICKNESS
 40
0
  9
$LIMCHECK
 70
    0
  9
$CHAMFERA
 40
0
  9
$CHAMFERB
 40
0
  9
$CHAMFERC
 40
0
  9
$CHAMFERD
 40
0
  9
$SKPOLY
 70
    0
  9
$USRTIMER
 70
    1
  9
$ANGBASE
 50
0
  9
$ANGDIR
 70
    0
  9
$PDMODE
 70
   34
  9
$PDSIZE
 40
0
  9
$PLINEWID
 40
0
  9
$SPLFRAME
 70
    0
  9
$SPLINETYPE
 70
    2
  9
$SPLINESEGS
 70
    8
  9
$HANDSEED
  5
20000
  9
$SURFTAB1
 70
    6
  9
$SURFTAB2
 70
    6
  9
$SURFTYPE
 70
    6
  9
$SURFU
 70
    6
  9
$SURFV
 70
    6
  9
$UCSBASE
  2

  9
$UCSNAME
  2

  9
$UCSORG
 10
0
 20
0
 30
0
  9
$UCSXDIR
 10
1
 20
0
 30
0
  9
$UCSYDIR
 10
0
 20
1
 30
0
  9
$UCSORTHOREF
  2

  9
$UCSORTHOVIEW
 70
    0
  9
$UCSORGTOP
 10
0
 20
0
 30
0
  9
$UCSORGBOTTOM
 10
0
 20
0
 30
0
  9
$UCSORGLEFT
 10
0
 20
0
 30
0
  9
$UCSORGRIGHT
 10
0
 20
0
 30
0
  9
$UCSORGFRONT
 10
0
 20
0
 30
0
  9
$UCSORGBACK
 10
0
 20
0
 30
0
  9
$PUCSBASE
  2

  9
$PUCSNAME
  2

  9
$PUCSORG
 10
0
 20
0
 30
0
  9
$PUCSXDIR
 10
1
 20
0
 30
0
  9
$PUCSYDIR
 10
0
 20
1
 30
0
  9
$PUCSORTHOREF
  2

  9
$PUCSORTHOVIEW
 70
    0
  9
$PUCSORGTOP
 10
0
 20
0
 30
0
  9
$PUCSORGBOTTOM
 10
0
 20
0
 30
0
  9
$PUCSORGLEFT
 10
0
 20
0
 30
0
  9
$PUCSORGRIGHT
 10
0
 20
0
 30
0
  9
$PUCSORGFRONT
 10
0
 20
0
 30
0
  9
$PUCSORGBACK
 10
0
 20
0
 30
0
  9
$USERI1
 70
    0
  9
$USERI2
 70
    0
  9
$USERI3
 70
    0
  9
$USERI4
 70
    0
  9
$USERI5
 70
    0
  9
$USERR1
 40
0
  9
$USERR2
 40
0
  9
$USERR3
 40
0
  9
$USERR4
 40
0
  9
$USERR5
 40
0
  9
$WORLDVIEW
 70
    1
  9
$SHADEDGE
 70
    3
  9
$SHADEDIF
 70
   70
  9
$TILEMODE
 70
    1
  9
$MAXACTVP
 70
   64
  9
$PINSBASE
 10
0
 20
0
 30
0
  9
$PLIMCHECK
 70
    0
  9
$PEXTMIN
 10
0
 20
0
 30
0
  9
$PEXTMAX
 10
0
 20
0
 30
0
  9
$GRIDMODE
 70
    1
  9
$SNAPSTYLE
 70
    0
  9
$PLIMMIN
 10
0
 20
0
  9
$PLIMMAX
 10
594
 20
420
  9
$UNITMODE
 70
    0
  9
$VISRETAIN
 70
    1
  9
$PLINEGEN
 70
    0
  9
$PSLTSCALE
 70
    1
  9
$TREEDEPTH
 70
 3020
  9
$CMLSTYLE
  2
Standard
  9
$CMLJUST
 70
    0
  9
$CMLSCALE
 40
20
  9
$PROXYGRAPHICS
 70
    1
  9
$MEASUREMENT
 70
    1
  9
$CELWEIGHT
370
   -1
  9
$ENDCAPS
280
    0
  9
$JOINSTYLE
280
    0
  9
$LWDISPLAY
290
    0
  9
$INSUNITS
 70
    4
  9
$HYPERLINKBASE
  1

  9
$STYLESHEET
  1

  9
$XEDIT
290
    1
  9
$CEPSNTYPE
380
    0
  9
$PSTYLEMODE
290
    1
  9
$EXTNAMES
290
    1
  9
$PSVPSCALE
 40
1
  9
$OLESTARTUP
290
    0
  9
$SORTENTS
280
  127
  9
$INDEXCTL
280
    0
  9
$HIDETEXT
280
    1
  9
$XCLIPFRAME
290
    0
  9
$HALOGAP
280
    0
  9
$OBSCOLOR
 70
  257
  9
$OBSLTYPE
280
    0
  9
$INTERSECTIONDISPLAY
280
    0
  9
$INTERSECTIONCOLOR
 70
  257
  9
$DIMASSOC
280
    1
  9
$PROJECTNAME
  1

  9
$CAMERADISPLAY
290
    0
  9
$LENSLENGTH
 40
50
  9
$CAMERAHEIGHT
 40
0
  9
$STEPSPERSEC
 40
2
  9
$STEPSIZE
 40
50
  9
$3DDWFPREC
 40
2
  9
$PSOLWIDTH
 40
5
  9
$PSOLHEIGHT
 40
80
  9
$LOFTANG1
 40
1.570796326794897
  9
$LOFTANG2
 40
1.570796326794897
  9
$LOFTMAG1
 40
0
  9
$LOFTMAG2
 40
0
  9
$LOFTPARAM
 70
    7
  9
$LOFTNORMALS
280
    1
  9
$LATITUDE
 40
1
  9
$LONGITUDE
 40
1
  9
$NORTHDIRECTION
 40
0
  9
$TIMEZONE
 70
-8000
  9
$LIGHTGLYPHDISPLAY
280
    1
  9
$TILEMODELIGHTSYNCH
280
    1
  9
$SOLIDHIST
280
    1
  9
$SHOWHIST
280
    1
  9
$DWFFRAME
280
    2
  9
$DGNFRAME
280
    0
  9
$REALWORLDSCALE
290
    1
  9
$INTERFERECOLOR
 62
    1
  9
$CSHADOW
280
    0
  9
$SHADOWPLANELOCATION
 40
0
  0
ENDSEC
  0
SECTION
  2
CLASSES
  0
ENDSEC
  0
SECTION
  2
TABLES
  0
TABLE
  2
VPORT
  5
8
330
0
100
AcDbSymbolTable
 70
    1
  0
VPORT
  5
31
330
2
100
AcDbSymbolTableRecord
100
AcDbViewportTableRecord
  2
*ACTIVE
 70
    0
 10
0
 20
0
 11
1
 21
1
 12
217.4944735118068
 22
127.3395062657837
 13
0
 23
0
 14
10
 24
10
 15
10
 25
10
 16
0
 26
0
 36
1
 17
0
 27
0
 37
0
 40
281.6904229515821
 41
1.975093399750934
 42
50
 43
0
 44
0
 50
0
 51
0
 71
    0
 72
  100
 73
    1
 74
    3
 75
    0
 76
    1
 77
    0
 78
    0
281
    0
 65
    1
110
0
120
0
130
0
111
1
121
0
131
0
112
0
122
1
132
0
 79
    0
146
0
348
10020
 60
    7
 61
    5
292
1
282
    1
141
0
142
0
 63
  250
421
3358443
  0
ENDTAB
  0
TABLE
  2
LTYPE
  5
5
330
0
100
AcDbSymbolTable
 70
    4
  0
LTYPE
  5
14
330
5
100
AcDbSymbolTableRecord
100
AcDbLinetypeTableRecord
  2
ByBlock
 70
    0
  3

 72
   65
 73
    0
 40
0
  0
LTYPE
  5
15
330
5
100
AcDbSymbolTableRecord
100
AcDbLinetypeTableRecord
  2
ByLayer
 70
    0
  3

 72
   65
 73
    0
 40
0
  0
LTYPE
  5
16
330
5
100
AcDbSymbolTableRecord
100
AcDbLinetypeTableRecord
  2
Continuous
 70
    0
  3
Solid line
 72
   65
 73
    0
 40
0
  0
LTYPE
  5
32
330
5
100
AcDbSymbolTableRecord
100
AcDbLinetypeTableRecord
  2
DOT
 70
    0
  3
Dot . . . . . . . . . . . . . . . . . . . . . .
 72
   65
 73
    2
 40
6.35
 49
0
 74
    0
 49
-6.35
 74
    0
  0
LTYPE
  5
33
330
5
100
AcDbSymbolTableRecord
100
AcDbLinetypeTableRecord
  2
DOTTINY
 70
    0
  3
Dot (.15x) .....................................
 72
   65
 73
    2
 40
0.9525
 49
0
 74
    0
 49
-0.9525
 74
    0
  0
LTYPE
  5
34
330
5
100
AcDbSymbolTableRecord
100
AcDbLinetypeTableRecord
  2
DOT2
 70
    0
  3
Dot (.5x) .....................................
 72
   65
 73
    2
 40
3.175
 49
0
 74
    0
 49
-3.175
 74
    0
  0
LTYPE
  5
35
330
5
100
AcDbSymbolTableRecord
100
AcDbLinetypeTableRecord
  2
DOTX2
 70
    0
  3
Dot (2x) .  .  .  .  .  .  .  .  .  .  .  .  .
 72
   65
 73
    2
 40
12.7
 49
0
 74
    0
 49
-12.7
 74
    0
  0
LTYPE
  5
36
330
5
100
AcDbSymbolTableRecord
100
AcDbLinetypeTableRecord
  2
DASHED
 70
    0
  3
Dashed _ _ _ _ _ _ _ _ _ _ _ _ _ _ _ _ _
 72
   65
 73
    2
 40
19.05
 49
12.7
 74
    0
 49
-6.35
 74
    0
  0
LTYPE
  5
37
330
5
100
AcDbSymbolTableRecord
100
AcDbLinetypeTableRecord
  2
DASHEDTINY
 70
    0
  3
Dashed (.15x) _ _ _ _ _ _ _ _ _ _ _ _ _ _ _ _ _
 72
   65
 73
    2
 40
2.8575
 49
1.905
 74
    0
 49
-0.9525
 74
    0
  0
LTYPE
  5
38
330
5
100
AcDbSymbolTableRecord
100
AcDbLinetypeTableRecord
  2
DASHED2
 70
    0
  3
Dashed (.5x) _ _ _ _ _ _ _ _ _ _ _ _ _ _ _ _ _
 72
   65
 73
    2
 40
9.524999999999999
 49
6.35
 74
    0
 49
-3.175
 74
    0
  0
LTYPE
  5
39
330
5
100
AcDbSymbolTableRecord
100
AcDbLinetypeTableRecord
  2
DASHEDX2
 70
    0
  3
Dashed (2x) ____  ____  ____  ____  ____  ___
 72
   65
 73
    2
 40
38.09999999999999
 49
25.4
 74
    0
 49
-12.7
 74
    0
  0
LTYPE
  5
3A
330
5
100
AcDbSymbolTableRecord
100
AcDbLinetypeTableRecord
  2
DASHDOT
 70
    0
  3
Dash dot __ . __ . __ . __ . __ . __ . __ . __
 72
   65
 73
    4
 40
25.4
 49
12.7
 74
    0
 49
-6.35
 74
    0
 49
0
 74
    0
 49
-6.35
 74
    0
  0
LTYPE
  5
3B
330
5
100
AcDbSymbolTableRecord
100
AcDbLinetypeTableRecord
  2
DASHDOTTINY
 70
    0
  3
Dash dot (.15x) _._._._._._._._._._._._._._._.
 72
   65
 73
    4
 40
3.81
 49
1.905
 74
    0
 49
-0.9525
 74
    0
 49
0
 74
    0
 49
-0.9525
 74
    0
  0
LTYPE
  5
3C
330
5
100
AcDbSymbolTableRecord
100
AcDbLinetypeTableRecord
  2
DASHDOT2
 70
    0
  3
Dash dot (.5x) _._._._._._._._._._._._._._._.
 72
   65
 73
    4
 40
12.7
 49
6.35
 74
    0
 49
-3.175
 74
    0
 49
0
 74
    0
 49
-3.175
 74
    0
  0
LTYPE
  5
3D
330
5
100
AcDbSymbolTableRecord
100
AcDbLinetypeTableRecord
  2
DASHDOTX2
 70
    0
  3
Dash dot (2x) ____  .  ____  .  ____  .  ___
 72
   65
 73
    4
 40
50.8
 49
25.4
 74
    0
 49
-12.7
 74
    0
 49
0
 74
    0
 49
-12.7
 74
    0
  0
LTYPE
  5
3E
330
5
100
AcDbSymbolTableRecord
100
AcDbLinetypeTableRecord
  2
DIVIDE
 70
    0
  3
Divide ____ . . ____ . . ____ . . ____ . . ____
 72
   65
 73
    6
 40
31.75
 49
12.7
 74
    0
 49
-6.35
 74
    0
 49
0
 74
    0
 49
-6.35
 74
    0
 49
0
 74
    0
 49
-6.35
 74
    0
  0
LTYPE
  5
3F
330
5
100
AcDbSymbolTableRecord
100
AcDbLinetypeTableRecord
  2
DIVIDETINY
 70
    0
  3
Divide (.15x) __..__..__..__..__..__..__..__.._
 72
   65
 73
    6
 40
4.7625
 49
1.905
 74
    0
 49
-0.9525
 74
    0
 49
0
 74
    0
 49
-0.9525
 74
    0
 49
0
 74
    0
 49
-0.9525
 74
    0
  0
LTYPE
  5
40
330
5
100
AcDbSymbolTableRecord
100
AcDbLinetypeTableRecord
  2
DIVIDE2
 70
    0
  3
Divide (.5x) __..__..__..__..__..__..__..__.._
 72
   65
 73
    6
 40
15.875
 49
6.35
 74
    0
 49
-3.175
 74
    0
 49
0
 74
    0
 49
-3.175
 74
    0
 49
0
 74
    0
 49
-3.175
 74
    0
  0
LTYPE
  5
41
330
5
100
AcDbSymbolTableRecord
100
AcDbLinetypeTableRecord
  2
DIVIDEX2
 70
    0
  3
Divide (2x) ________  .  .  ________  .  .  _
 72
   65
 73
    6
 40
63.5
 49
25.4
 74
    0
 49
-12.7
 74
    0
 49
0
 74
    0
 49
-12.7
 74
    0
 49
0
 74
    0
 49
-12.7
 74
    0
  0
LTYPE
  5
42
330
5
100
AcDbSymbolTableRecord
100
AcDbLinetypeTableRecord
  2
BORDER
 70
    0
  3
Border __ __ . __ __ . __ __ . __ __ . __ __ .
 72
   65
 73
    6
 40
44.45
 49
12.7
 74
    0
 49
-6.35
 74
    0
 49
12.7
 74
    0
 49
-6.35
 74
    0
 49
0
 74
    0
 49
-6.35
 74
    0
  0
LTYPE
  5
43
330
5
100
AcDbSymbolTableRecord
100
AcDbLinetypeTableRecord
  2
BORDERTINY
 70
    0
  3
Border (.15x) __.__.__.__.__.__.__.__.__.__.__.
 72
   65
 73
    6
 40
6.6675
 49
1.905
 74
    0
 49
-0.9525
 74
    0
 49
1.905
 74
    0
 49
-0.9525
 74
    0
 49
0
 74
    0
 49
-0.9525
 74
    0
  0
LTYPE
  5
44
330
5
100
AcDbSymbolTableRecord
100
AcDbLinetypeTableRecord
  2
BORDER2
 70
    0
  3
Border (.5x) __.__.__.__.__.__.__.__.__.__.__.
 72
   65
 73
    6
 40
22.225
 49
6.35
 74
    0
 49
-3.175
 74
    0
 49
6.35
 74
    0
 49
-3.175
 74
    0
 49
0
 74
    0
 49
-3.175
 74
    0
  0
LTYPE
  5
45
330
5
100
AcDbSymbolTableRecord
100
AcDbLinetypeTableRecord
  2
BORDERX2
 70
    0
  3
Border (2x) ____  ____  .  ____  ____  .  ___
 72
   65
 73
    6
 40
88.89999999999999
 49
25.4
 74
    0
 49
-12.7
 74
    0
 49
25.4
 74
    0
 49
-12.7
 74
    0
 49
0
 74
    0
 49
-12.7
 74
    0
  0
LTYPE
  5
46
330
5
100
AcDbSymbolTableRecord
100
AcDbLinetypeTableRecord
  2
CENTER
 70
    0
  3
Center ____ _ ____ _ ____ _ ____ _ ____ _ ____
 72
   65
 73
    4
 40
50.8
 49
31.75
 74
    0
 49
-6.35
 74
    0
 49
6.35
 74
    0
 49
-6.35
 74
    0
  0
LTYPE
  5
47
330
5
100
AcDbSymbolTableRecord
100
AcDbLinetypeTableRecord
  2
CENTERTINY
 70
    0
  3
Center (.15x) ___ _ ___ _ ___ _ ___ _ ___ _ ___
 72
   65
 73
    4
 40
7.62
 49
4.7625
 74
    0
 49
-0.9525
 74
    0
 49
0.9525
 74
    0
 49
-0.9525
 74
    0
  0
LTYPE
  5
48
330
5
100
AcDbSymbolTableRecord
100
AcDbLinetypeTableRecord
  2
CENTER2
 70
    0
  3
Center (.5x) ___ _ ___ _ ___ _ ___ _ ___ _ ___
 72
   65
 73
    4
 40
28.575
 49
19.05
 74
    0
 49
-3.175
 74
    0
 49
3.175
 74
    0
 49
-3.175
 74
    0
  0
LTYPE
  5
49
330
5
100
AcDbSymbolTableRecord
100
AcDbLinetypeTableRecord
  2
CENTERX2
 70
    0
  3
Center (2x) ________  __  ________  __  _____
 72
   65
 73
    4
 40
101.6
 49
63.5
 74
    0
 49
-12.7
 74
    0
 49
12.7
 74
    0
 49
-12.7
 74
    0
  0
ENDTAB
  0
TABLE
  2
LAYER
  5
2
330
0
100
AcDbSymbolTable
 70
    1
  0
LAYER
  5
10
330
2
100
AcDbSymbolTableRecord
100
AcDbLayerTableRecord
  2
0
 70
    0
 62
    7
  6
CONTINUOUS
370
    0
390
F
  0
LAYER
  5
4A
330
2
100
AcDbSymbolTableRecord
100
AcDbLayerTableRecord
  2
PYDXF
 70
    0
 62
    7
  6
CONTINUOUS
370
   -3
390
F
  0
ENDTAB
  0
TABLE
  2
STYLE
  5
3
330
0
100
AcDbSymbolTable
 70
    3
  0
STYLE
  5
4B
330
2
100
AcDbSymbolTableRecord
100
AcDbTextStyleTableRecord
  2
Standard
 70
    0
 40
0
 41
1
 50
0
 71
    0
 42
1
  3
txt
  4

  0
ENDTAB
  0
TABLE
  2
VIEW
  5
6
330
0
100
AcDbSymbolTable
 70
    0
  0
ENDTAB
  0
TABLE
  2
UCS
  5
7
330
0
100
AcDbSymbolTable
 70
    0
  0
ENDTAB
  0
TABLE
  2
APPID
  5
9
330
0
100
AcDbSymbolTable
 70
    1
  0
APPID
  5
12
330
9
100
AcDbSymbolTableRecord
100
AcDbRegAppTableRecord
  2
ACAD
 70
    0
  0
APPID
  5
4C
330
9
100
AcDbSymbolTableRecord
100
AcDbRegAppTableRecord
  2
LibreCad
 70
    0
  0
ENDTAB
  0
TABLE
  2
DIMSTYLE
  5
A
330
0
100
AcDbSymbolTable
 70
    1
100
AcDbDimStyleTable
 71
    1
  0
DIMSTYLE
105
4D
330
A
100
AcDbSymbolTableRecord
100
AcDbDimStyleTableRecord
  2
Standard
 70
    0
 40
1
 41
2.5
 42
0.625
 43
0.38
 44
1.25
 45
0
 46
0
 47
0
 48
0
 49
1
140
2.5
141
0.09
142
2.5
143
25.4
144
1
145
0
146
1
147
0.625
148
0
 71
    0
 72
    0
 73
    0
 74
    1
 75
    0
 76
    0
 77
    0
 78
    1
 79
    0
170
    0
171
    2
172
    0
173
    0
174
    0
175
    0
176
    0
177
    0
178
    0
179
    0
271
    2
272
    4
273
    2
274
    2
275
    0
276
    0
277
    2
278
    0
279
    0
280
    0
281
    0
282
    0
283
    1
284
    0
285
    0
286
    0
288
    0
289
    3
340
standard
341

371
   -2
372
   -2
  0
ENDTAB
  0
TABLE
  2
BLOCK_RECORD
  5
1
330
0
100
AcDbSymbolTable
 70
    2
  0
BLOCK_RECORD
  5
1F
330
1
100
AcDbSymbolTableRecord
100
AcDbBlockTableRecord
  2
*Model_Space
 70
    0
280
    1
281
    0
  0
BLOCK_RECORD
  5
1E
330
1
100
AcDbSymbolTableRecord
100
AcDbBlockTableRecord
  2
*Paper_Space
 70
    0
280
    1
281
    0
  0
ENDTAB
  0
ENDSEC
  0
SECTION
  2
BLOCKS
  0
BLOCK
  5
20
330
1F
100
AcDbEntity
  8
0
100
AcDbBlockBegin
  2
*Model_Space
 70
    0
 10
0
 20
0
 30
0
  3
*Model_Space
  1

  0
ENDBLK
  5
21
330
1F
100
AcDbEntity
  8
0
100
AcDbBlockEnd
  0
BLOCK
  5
1C
330
1B
100
AcDbEntity
  8
0
100
AcDbBlockBegin
  2
*Paper_Space
 70
    0
 10
0
 20
0
 30
0
  3
*Paper_Space
  1

  0
ENDBLK
  5
1D
330
1F
100
AcDbEntity
  8
0
100
AcDbBlockEnd
  0
ENDSEC
  0
SECTION
  2
ENTITIES
  0
LINE
  5
4E
100
AcDbEntity
  8
0
  6
ByLayer
 62
  256
370
   -1
100
AcDbLine
 10
176.2861328125
 20
99.76703643798828
 11
176.8113250732422
 21
98.25559234619141
  0
LINE
  5
4F
100
AcDbEntity
  8
0
  6
ByLayer
 62
  256
370
   -1
100
AcDbLine
 10
177.1371459960938
 20
96.66170501708984
 11
176.8113250732422
 21
98.25559234619141
  0
LINE
  5
50
100
AcDbEntity
  8
0
  6
ByLayer
 62
  256
370
   -1
100
AcDbLine
 10
177.1371459960938
 20
96.66170501708984
 11
177.2489929199219
 21
95
  0
LINE
  5
51
100
AcDbEntity
  8
0
  6
ByLayer
 62
  256
370
   -1
100
AcDbLine
 10
177.2489929199219
 20
95
 11
177.1371459960938
 21
93.33829498291016
  0
LINE
  5
52
100
AcDbEntity
  8
0
  6
ByLayer
 62
  256
370
   -1
100
AcDbLine
 10
176.8113098144531
 20
91.74440765380859
 11
177.1371459960938
 21
93.33829498291016
  0
LINE
  5
53
100
AcDbEntity
  8
0
  6
ByLayer
 62
  256
370
   -1
100
AcDbLine
 10
176.8113098144531
 20
91.74440765380859
 11
176.2861328125
 21
90.23296356201172
  0
LINE
  5
54
100
AcDbEntity
  8
0
  6
ByLayer
 62
  256
370
   -1
100
AcDbLine
 10
175.5762176513672
 20
88.81856536865234
 11
176.2861328125
 21
90.23296356201172
  0
LINE
  5
55
100
AcDbEntity
  8
0
  6
ByLayer
 62
  256
370
   -1
100
AcDbLine
 10
175.5762176513672
 20
88.81856536865234
 11
174.6961669921875
 21
87.51583099365234
  0
LINE
  5
56
100
AcDbEntity
  8
0
  6
ByLayer
 62
  256
370
   -1
100
AcDbLine
 10
173.6606140136719
 20
86.33937835693359
 11
174.6961669921875
 21
87.51583099365234
  0
LINE
  5
57
100
AcDbEntity
  8
0
  6
ByLayer
 62
  256
370
   -1
100
AcDbLine
 10
173.6606140136719
 20
86.33937835693359
 11
172.4841613769531
 21
85.30382537841797
  0
LINE
  5
58
100
AcDbEntity
  8
0
  6
ByLayer
 62
  256
370
   -1
100
AcDbLine
 10
171.1814422607422
 20
84.42378234863281
 11
172.4841613769531
 21
85.30382537841797
  0
LINE
  5
59
100
AcDbEntity
  8
0
  6
ByLayer
 62
  256
370
   -1
100
AcDbLine
 10
171.1814422607422
 20
84.42378234863281
 11
169.7670440673828
 21
83.71385955810547
  0
LINE
  5
5A
100
AcDbEntity
  8
0
  6
ByLayer
 62
  256
370
   -1
100
AcDbLine
 10
169.7670440673828
 20
83.71385955810547
 11
168.2555847167969
 21
83.18868255615234
  0
LINE
  5
5B
100
AcDbEntity
  8
0
  6
ByLayer
 62
  256
370
   -1
100
AcDbLine
 10
166.6616973876953
 20
82.86285400390625
 11
168.2555847167969
 21
83.18868255615234
  0
LINE
  5
5C
100
AcDbEntity
  8
0
  6
ByLayer
 62
  256
370
   -1
100
AcDbLine
 10
166.6616973876953
 20
82.86285400390625
 11
165
 21
82.75099945068359
  0
LINE
  5
5D
100
AcDbEntity
  8
0
  6
ByLayer
 62
  256
370
   -1
100
AcDbLine
 10
163.3382873535156
 20
82.86285400390625
 11
165
 21
82.75099945068359
  0
LINE
  5
5E
100
AcDbEntity
  8
0
  6
ByLayer
 62
  256
370
   -1
100
AcDbLine
 10
163.3382873535156
 20
82.86285400390625
 11
161.7444152832031
 21
83.18868255615234
  0
LINE
  5
5F
100
AcDbEntity
  8
0
  6
ByLayer
 62
  256
370
   -1
100
AcDbLine
 10
160.2329559326172
 20
83.71385955810547
 11
161.7444152832031
 21
83.18868255615234
  0
LINE
  5
60
100
AcDbEntity
  8
0
  6
ByLayer
 62
  256
370
   -1
100
AcDbLine
 10
158.8185577392578
 20
84.42378234863281
 11
160.2329559326172
 21
83.71385955810547
  0
LINE
  5
61
100
AcDbEntity
  8
0
  6
ByLayer
 62
  256
370
   -1
100
AcDbLine
 10
157.5158386230469
 20
85.30382537841797
 11
158.8185577392578
 21
84.42378234863281
  0
LINE
  5
62
100
AcDbEntity
  8
0
  6
ByLayer
 62
  256
370
   -1
100
AcDbLine
 10
157.5158386230469
 20
85.30382537841797
 11
156.3393859863281
 21
86.33938598632812
  0
LINE
  5
63
100
AcDbEntity
  8
0
  6
ByLayer
 62
  256
370
   -1
100
AcDbLine
 10
155.3038330078125
 20
87.51583099365234
 11
156.3393859863281
 21
86.33938598632812
  0
LINE
  5
64
100
AcDbEntity
  8
0
  6
ByLayer
 62
  256
370
   -1
100
AcDbLine
 10
153.7138671875
 20
90.23296356201172
 11
154.4237823486328
 21
88.81856536865234
  0
LINE
  5
65
100
AcDbEntity
  8
0
  6
ByLayer
 62
  256
370
   -1
100
AcDbLine
 10
153.7138671875
 20
90.23296356201172
 11
153.1886749267578
 21
91.74440765380859
  0
LINE
  5
66
100
AcDbEntity
  8
0
  6
ByLayer
 62
  256
370
   -1
100
AcDbLine
 10
152.8628540039062
 20
93.33829498291016
 11
153.1886749267578
 21
91.74440765380859
  0
LINE
  5
67
100
AcDbEntity
  8
0
  6
ByLayer
 62
  256
370
   -1
100
AcDbLine
 10
152.7510070800781
 20
95
 11
152.8628540039062
 21
93.33829498291016
  0
LINE
  5
68
100
AcDbEntity
  8
0
  6
ByLayer
 62
  256
370
   -1
100
AcDbLine
 10
152.7510070800781
 20
95
 11
152.8628540039062
 21
96.66170501708984
  0
LINE
  5
69
100
AcDbEntity
  8
0
  6
ByLayer
 62
  256
370
   -1
100
AcDbLine
 10
152.8628540039062
 20
96.66170501708984
 11
153.1886901855469
 21
98.25559234619141
  0
LINE
  5
6A
100
AcDbEntity
  8
0
  6
ByLayer
 62
  256
370
   -1
100
AcDbLine
 10
153.1886901855469
 20
98.25559234619141
 11
153.7138671875
 21
99.76703643798828
  0
LINE
  5
6B
100
AcDbEntity
  8
0
  6
ByLayer
 62
  256
370
   -1
100
AcDbLine
 10
153.7138671875
 20
99.76703643798828
 11
154.4237823486328
 21
101.1814346313477
  0
LINE
  5
6C
100
AcDbEntity
  8
0
  6
ByLayer
 62
  256
370
   -1
100
AcDbLine
 10
155.3038330078125
 20
102.4841690063477
 11
156.3393859863281
 21
103.6606216430664
  0
LINE
  5
6D
100
AcDbEntity
  8
0
  6
ByLayer
 62
  256
370
   -1
100
AcDbLine
 10
156.3393859863281
 20
103.6606216430664
 11
157.5158386230469
 21
104.696174621582
  0
LINE
  5
6E
100
AcDbEntity
  8
0
  6
ByLayer
 62
  256
370
   -1
100
AcDbLine
 10
157.5158386230469
 20
104.696174621582
 11
158.8185577392578
 21
105.5762176513672
  0
LINE
  5
6F
100
AcDbEntity
  8
0
  6
ByLayer
 62
  256
370
   -1
100
AcDbLine
 10
160.2329559326172
 20
106.2861404418945
 11
158.8185577392578
 21
105.5762176513672
  0
LINE
  5
70
100
AcDbEntity
  8
0
  6
ByLayer
 62
  256
370
   -1
100
AcDbLine
 10
160.2329559326172
 20
106.2861404418945
 11
161.7444152832031
 21
106.8113174438477
  0
LINE
  5
71
100
AcDbEntity
  8
0
  6
ByLayer
 62
  256
370
   -1
100
AcDbLine
 10
163.3383026123047
 20
107.1371459960938
 11
161.7444152832031
 21
106.8113174438477
  0
LINE
  5
72
100
AcDbEntity
  8
0
  6
ByLayer
 62
  256
370
   -1
100
AcDbLine
 10
165
 20
107.2490005493164
 11
163.3383026123047
 21
107.1371459960938
  0
LINE
  5
73
100
AcDbEntity
  8
0
  6
ByLayer
 62
  256
370
   -1
100
AcDbLine
 10
163.3382873535156
 20
112.2604598999023
 11
165
 21
112.1486053466797
  0
LINE
  5
74
100
AcDbEntity
  8
0
  6
ByLayer
 62
  256
370
   -1
100
AcDbLine
 10
161.7444152832031
 20
112.5862808227539
 11
163.3382873535156
 21
112.2604598999023
  0
LINE
  5
75
100
AcDbEntity
  8
0
  6
ByLayer
 62
  256
370
   -1
100
AcDbLine
 10
160.2329559326172
 20
113.1114654541016
 11
161.7444152832031
 21
112.5862808227539
  0
LINE
  5
76
100
AcDbEntity
  8
0
  6
ByLayer
 62
  256
370
   -1
100
AcDbLine
 10
158.8185577392578
 20
113.8213806152344
 11
160.2329559326172
 21
113.1114654541016
  0
LINE
  5
77
100
AcDbEntity
  8
0
  6
ByLayer
 62
  256
370
   -1
100
AcDbLine
 10
157.5158386230469
 20
114.7014312744141
 11
158.8185577392578
 21
113.8213806152344
  0
LINE
  5
78
100
AcDbEntity
  8
0
  6
ByLayer
 62
  256
370
   -1
100
AcDbLine
 10
156.3393859863281
 20
115.7369842529297
 11
157.5158386230469
 21
114.7014312744141
  0
LINE
  5
79
100
AcDbEntity
  8
0
  6
ByLayer
 62
  256
370
   -1
100
AcDbLine
 10
155.3038330078125
 20
116.9134368896484
 11
156.3393859863281
 21
115.7369842529297
  0
LINE
  5
7A
100
AcDbEntity
  8
0
  6
ByLayer
 62
  256
370
   -1
100
AcDbLine
 10
153.7138671875
 20
119.6305618286133
 11
154.4237823486328
 21
118.2161636352539
  0
LINE
  5
7B
100
AcDbEntity
  8
0
  6
ByLayer
 62
  256
370
   -1
100
AcDbLine
 10
153.1886901855469
 20
121.1420135498047
 11
153.7138671875
 21
119.6305618286133
  0
LINE
  5
7C
100
AcDbEntity
  8
0
  6
ByLayer
 62
  256
370
   -1
100
AcDbLine
 10
152.8628540039062
 20
122.7358932495117
 11
153.1886901855469
 21
121.1420135498047
  0
LINE
  5
7D
100
AcDbEntity
  8
0
  6
ByLayer
 62
  256
370
   -1
100
AcDbLine
 10
152.7510070800781
 20
124.3975982666016
 11
152.8628540039062
 21
122.7358932495117
  0
LINE
  5
7E
100
AcDbEntity
  8
0
  6
ByLayer
 62
  256
370
   -1
100
AcDbLine
 10
152.7510070800781
 20
124.3975982666016
 11
152.8628540039062
 21
126.0593109130859
  0
LINE
  5
7F
100
AcDbEntity
  8
0
  6
ByLayer
 62
  256
370
   -1
100
AcDbLine
 10
152.8628540039062
 20
126.0593109130859
 11
153.1886901855469
 21
127.653190612793
  0
LINE
  5
80
100
AcDbEntity
  8
0
  6
ByLayer
 62
  256
370
   -1
100
AcDbLine
 10
153.7138671875
 20
129.1646423339844
 11
153.1886901855469
 21
127.653190612793
  0
LINE
  5
81
100
AcDbEntity
  8
0
  6
ByLayer
 62
  256
370
   -1
100
AcDbLine
 10
153.7138671875
 20
129.1646423339844
 11
154.4237823486328
 21
130.5790405273438
  0
LINE
  5
82
100
AcDbEntity
  8
0
  6
ByLayer
 62
  256
370
   -1
100
AcDbLine
 10
155.3038330078125
 20
131.8817749023438
 11
156.3393859863281
 21
133.0582122802734
  0
LINE
  5
83
100
AcDbEntity
  8
0
  6
ByLayer
 62
  256
370
   -1
100
AcDbLine
 10
157.5158386230469
 20
134.0937652587891
 11
156.3393859863281
 21
133.0582122802734
  0
LINE
  5
84
100
AcDbEntity
  8
0
  6
ByLayer
 62
  256
370
   -1
100
AcDbLine
 10
157.5158386230469
 20
134.0937652587891
 11
158.8185577392578
 21
134.9738159179688
  0
LINE
  5
85
100
AcDbEntity
  8
0
  6
ByLayer
 62
  256
370
   -1
100
AcDbLine
 10
160.2329559326172
 20
135.6837310791016
 11
158.8185577392578
 21
134.9738159179688
  0
LINE
  5
86
100
AcDbEntity
  8
0
  6
ByLayer
 62
  256
370
   -1
100
AcDbLine
 10
160.2329559326172
 20
135.6837310791016
 11
161.7444152832031
 21
136.2089080810547
  0
LINE
  5
87
100
AcDbEntity
  8
0
  6
ByLayer
 62
  256
370
   -1
100
AcDbLine
 10
163.3382873535156
 20
136.5347290039062
 11
161.7444152832031
 21
136.2089080810547
  0
LINE
  5
88
100
AcDbEntity
  8
0
  6
ByLayer
 62
  256
370
   -1
100
AcDbLine
 10
163.3382873535156
 20
136.5347290039062
 11
165
 21
136.6466064453125
  0
LINE
  5
89
100
AcDbEntity
  8
0
  6
ByLayer
 62
  256
370
   -1
100
AcDbLine
 10
166.6617126464844
 20
136.5347442626953
 11
165
 21
136.6466064453125
  0
LINE
  5
8A
100
AcDbEntity
  8
0
  6
ByLayer
 62
  256
370
   -1
100
AcDbLine
 10
166.6617126464844
 20
136.5347442626953
 11
168.2555847167969
 21
136.2089233398438
  0
LINE
  5
8B
100
AcDbEntity
  8
0
  6
ByLayer
 62
  256
370
   -1
100
AcDbLine
 10
169.7670440673828
 20
135.6837463378906
 11
168.2555847167969
 21
136.2089233398438
  0
LINE
  5
8C
100
AcDbEntity
  8
0
  6
ByLayer
 62
  256
370
   -1
100
AcDbLine
 10
169.7670440673828
 20
135.6837463378906
 11
171.1814422607422
 21
134.9738159179688
  0
LINE
  5
8D
100
AcDbEntity
  8
0
  6
ByLayer
 62
  256
370
   -1
100
AcDbLine
 10
172.4841613769531
 20
134.0937805175781
 11
171.1814422607422
 21
134.9738159179688
  0
LINE
  5
8E
100
AcDbEntity
  8
0
  6
ByLayer
 62
  256
370
   -1
100
AcDbLine
 10
172.4841613769531
 20
134.0937805175781
 11
173.6606140136719
 21
133.0582275390625
  0
LINE
  5
8F
100
AcDbEntity
  8
0
  6
ByLayer
 62
  256
370
   -1
100
AcDbLine
 10
174.6961669921875
 20
131.8817749023438
 11
173.6606140136719
 21
133.0582275390625
  0
LINE
  5
90
100
AcDbEntity
  8
0
  6
ByLayer
 62
  256
370
   -1
100
AcDbLine
 10
174.6961669921875
 20
131.8817749023438
 11
175.5762176513672
 21
130.5790405273438
  0
LINE
  5
91
100
AcDbEntity
  8
0
  6
ByLayer
 62
  256
370
   -1
100
AcDbLine
 10
176.2861328125
 20
129.1646423339844
 11
175.5762176513672
 21
130.5790405273438
  0
LINE
  5
92
100
AcDbEntity
  8
0
  6
ByLayer
 62
  256
370
   -1
100
AcDbLine
 10
179.912841796875
 20
133.3910064697266
 11
179.5870208740234
 21
134.9848937988281
  0
LINE
  5
93
100
AcDbEntity
  8
0
  6
ByLayer
 62
  256
370
   -1
100
AcDbLine
 10
179.4751586914062
 20
136.6466064453125
 11
179.5870208740234
 21
134.9848937988281
  0
LINE
  5
94
100
AcDbEntity
  8
0
  6
ByLayer
 62
  256
370
   -1
100
AcDbLine
 10
179.4751586914062
 20
136.6466064453125
 11
179.5870208740234
 21
138.3083038330078
  0
LINE
  5
95
100
AcDbEntity
  8
0
  6
ByLayer
 62
  256
370
   -1
100
AcDbLine
 10
179.912841796875
 20
139.9021911621094
 11
179.5870208740234
 21
138.3083038330078
  0
LINE
  5
96
100
AcDbEntity
  8
0
  6
ByLayer
 62
  256
370
   -1
100
AcDbLine
 10
179.912841796875
 20
139.9021911621094
 11
180.4380187988281
 21
141.4136352539062
  0
LINE
  5
97
100
AcDbEntity
  8
0
  6
ByLayer
 62
  256
370
   -1
100
AcDbLine
 10
181.1479339599609
 20
142.8280334472656
 11
180.4380187988281
 21
141.4136352539062
  0
LINE
  5
98
100
AcDbEntity
  8
0
  6
ByLayer
 62
  256
370
   -1
100
AcDbLine
 10
181.1479339599609
 20
142.8280334472656
 11
182.0279846191406
 21
144.1307678222656
  0
LINE
  5
99
100
AcDbEntity
  8
0
  6
ByLayer
 62
  256
370
   -1
100
AcDbLine
 10
183.0635375976562
 20
145.3072204589844
 11
182.0279846191406
 21
144.1307678222656
  0
LINE
  5
9A
100
AcDbEntity
  8
0
  6
ByLayer
 62
  256
370
   -1
100
AcDbLine
 10
183.0635375976562
 20
145.3072204589844
 11
184.239990234375
 21
146.3427734375
  0
LINE
  5
9B
100
AcDbEntity
  8
0
  6
ByLayer
 62
  256
370
   -1
100
AcDbLine
 10
185.542724609375
 20
147.2228088378906
 11
184.239990234375
 21
146.3427734375
  0
LINE
  5
9C
100
AcDbEntity
  8
0
  6
ByLayer
 62
  256
370
   -1
100
AcDbLine
 10
257.3584899902344
 20
140.2182769775391
 11
256.0557556152344
 21
141.0983276367188
  0
LINE
  5
9D
100
AcDbEntity
  8
0
  6
ByLayer
 62
  256
370
   -1
100
AcDbLine
 10
257.3584899902344
 20
140.2182769775391
 11
258.5349426269531
 21
139.1827239990234
  0
LINE
  5
9E
100
AcDbEntity
  8
0
  6
ByLayer
 62
  256
370
   -1
100
AcDbLine
 10
259.5704956054688
 20
138.0062713623047
 11
258.5349426269531
 21
139.1827239990234
  0
LINE
  5
9F
100
AcDbEntity
  8
0
  6
ByLayer
 62
  256
370
   -1
100
AcDbLine
 10
259.5704956054688
 20
138.0062713623047
 11
260.4505310058594
 21
136.7035369873047
  0
LINE
  5
A0
100
AcDbEntity
  8
0
  6
ByLayer
 62
  256
370
   -1
100
AcDbLine
 10
261.1604614257812
 20
135.2891387939453
 11
260.4505310058594
 21
136.7035369873047
  0
LINE
  5
A1
100
AcDbEntity
  8
0
  6
ByLayer
 62
  256
370
   -1
100
AcDbLine
 10
261.1604614257812
 20
135.2891387939453
 11
261.6856384277344
 21
133.7776947021484
  0
LINE
  5
A2
100
AcDbEntity
  8
0
  6
ByLayer
 62
  256
370
   -1
100
AcDbLine
 10
262.011474609375
 20
132.1838073730469
 11
261.6856384277344
 21
133.7776947021484
  0
LINE
  5
A3
100
AcDbEntity
  8
0
  6
ByLayer
 62
  256
370
   -1
100
AcDbLine
 10
262.1233215332031
 20
130.5220947265625
 11
262.011474609375
 21
132.1838073730469
  0
LINE
  5
A4
100
AcDbEntity
  8
0
  6
ByLayer
 62
  256
370
   -1
100
AcDbLine
 10
262.011474609375
 20
128.8603973388672
 11
262.1233215332031
 21
130.5220947265625
  0
LINE
  5
A5
100
AcDbEntity
  8
0
  6
ByLayer
 62
  256
370
   -1
100
AcDbLine
 10
261.6856384277344
 20
127.2665100097656
 11
262.011474609375
 21
128.8603973388672
  0
LINE
  5
A6
100
AcDbEntity
  8
0
  6
ByLayer
 62
  256
370
   -1
100
AcDbLine
 10
261.1604614257812
 20
125.7550659179688
 11
261.6856384277344
 21
127.2665100097656
  0
LINE
  5
A7
100
AcDbEntity
  8
0
  6
ByLayer
 62
  256
370
   -1
100
AcDbLine
 10
260.4505310058594
 20
124.3406677246094
 11
261.1604614257812
 21
125.7550659179688
  0
LINE
  5
A8
100
AcDbEntity
  8
0
  6
ByLayer
 62
  256
370
   -1
100
AcDbLine
 10
259.5704956054688
 20
123.0379333496094
 11
260.4505310058594
 21
124.3406677246094
  0
LINE
  5
A9
100
AcDbEntity
  8
0
  6
ByLayer
 62
  256
370
   -1
100
AcDbLine
 10
258.5349426269531
 20
121.8614807128906
 11
259.5704956054688
 21
123.0379333496094
  0
LINE
  5
AA
100
AcDbEntity
  8
0
  6
ByLayer
 62
  256
370
   -1
100
AcDbLine
 10
257.3584899902344
 20
120.825927734375
 11
258.5349426269531
 21
121.8614807128906
  0
LINE
  5
AB
100
AcDbEntity
  8
0
  6
ByLayer
 62
  256
370
   -1
100
AcDbLine
 10
256.0557556152344
 20
119.9458847045898
 11
257.3584899902344
 21
120.825927734375
  0
LINE
  5
AC
100
AcDbEntity
  8
0
  6
ByLayer
 62
  256
370
   -1
100
AcDbLine
 10
254.641357421875
 20
119.2359619140625
 11
256.0557556152344
 21
119.9458847045898
  0
LINE
  5
AD
100
AcDbEntity
  8
0
  6
ByLayer
 62
  256
370
   -1
100
AcDbLine
 10
253.1298980712891
 20
118.7107849121094
 11
254.641357421875
 21
119.2359619140625
  0
LINE
  5
AE
100
AcDbEntity
  8
0
  6
ByLayer
 62
  256
370
   -1
100
AcDbLine
 10
253.1298980712891
 20
118.7107849121094
 11
251.5360107421875
 21
118.3849563598633
  0
LINE
  5
AF
100
AcDbEntity
  8
0
  6
ByLayer
 62
  256
370
   -1
100
AcDbLine
 10
249.8743133544922
 20
118.2731018066406
 11
251.5360107421875
 21
118.3849563598633
  0
LINE
  5
B0
100
AcDbEntity
  8
0
  6
ByLayer
 62
  256
370
   -1
100
AcDbLine
 10
249.8743133544922
 20
113.3734970092773
 11
251.5360107421875
 21
113.2616424560547
  0
LINE
  5
B1
100
AcDbEntity
  8
0
  6
ByLayer
 62
  256
370
   -1
100
AcDbLine
 10
253.1299133300781
 20
112.9358215332031
 11
251.5360107421875
 21
113.2616424560547
  0
LINE
  5
B2
100
AcDbEntity
  8
0
  6
ByLayer
 62
  256
370
   -1
100
AcDbLine
 10
253.1299133300781
 20
112.9358215332031
 11
254.641357421875
 21
112.4106369018555
  0
LINE
  5
B3
100
AcDbEntity
  8
0
  6
ByLayer
 62
  256
370
   -1
100
AcDbLine
 10
254.641357421875
 20
112.4106369018555
 11
256.0557556152344
 21
111.7007141113281
  0
LINE
  5
B4
100
AcDbEntity
  8
0
  6
ByLayer
 62
  256
370
   -1
100
AcDbLine
 10
256.0557556152344
 20
111.7007141113281
 11
257.3584899902344
 21
110.820671081543
  0
LINE
  5
B5
100
AcDbEntity
  8
0
  6
ByLayer
 62
  256
370
   -1
100
AcDbLine
 10
257.3584899902344
 20
110.820671081543
 11
258.5349426269531
 21
109.7851181030273
  0
LINE
  5
B6
100
AcDbEntity
  8
0
  6
ByLayer
 62
  256
370
   -1
100
AcDbLine
 10
258.5349426269531
 20
109.7851181030273
 11
259.5704956054688
 21
108.6086654663086
  0
LINE
  5
B7
100
AcDbEntity
  8
0
  6
ByLayer
 62
  256
370
   -1
100
AcDbLine
 10
259.5704956054688
 20
108.6086654663086
 11
260.4505310058594
 21
107.3059387207031
  0
LINE
  5
B8
100
AcDbEntity
  8
0
  6
ByLayer
 62
  256
370
   -1
100
AcDbLine
 10
260.4505310058594
 20
107.3059387207031
 11
261.1604614257812
 21
105.8915405273438
  0
LINE
  5
B9
100
AcDbEntity
  8
0
  6
ByLayer
 62
  256
370
   -1
100
AcDbLine
 10
261.1604614257812
 20
105.8915405273438
 11
261.6856384277344
 21
104.3800888061523
  0
LINE
  5
BA
100
AcDbEntity
  8
0
  6
ByLayer
 62
  256
370
   -1
100
AcDbLine
 10
261.6856384277344
 20
104.3800888061523
 11
262.011474609375
 21
102.7862091064453
  0
LINE
  5
BB
100
AcDbEntity
  8
0
  6
ByLayer
 62
  256
370
   -1
100
AcDbLine
 10
262.011474609375
 20
102.7862091064453
 11
262.1233215332031
 21
101.1244964599609
  0
LINE
  5
BC
100
AcDbEntity
  8
0
  6
ByLayer
 62
  256
370
   -1
100
AcDbLine
 10
262.1233215332031
 20
101.1244964599609
 11
262.011474609375
 21
99.46279144287109
  0
LINE
  5
BD
100
AcDbEntity
  8
0
  6
ByLayer
 62
  256
370
   -1
100
AcDbLine
 10
262.011474609375
 20
99.46279144287109
 11
261.6856384277344
 21
97.86891174316406
  0
LINE
  5
BE
100
AcDbEntity
  8
0
  6
ByLayer
 62
  256
370
   -1
100
AcDbLine
 10
261.1604614257812
 20
96.35746002197266
 11
261.6856384277344
 21
97.86891174316406
  0
LINE
  5
BF
100
AcDbEntity
  8
0
  6
ByLayer
 62
  256
370
   -1
100
AcDbLine
 10
260.4505310058594
 20
94.94306182861328
 11
261.1604614257812
 21
96.35746002197266
  0
LINE
  5
C0
100
AcDbEntity
  8
0
  6
ByLayer
 62
  256
370
   -1
100
AcDbLine
 10
260.4505310058594
 20
94.94306182861328
 11
259.5704956054688
 21
93.64033508300781
  0
LINE
  5
C1
100
AcDbEntity
  8
0
  6
ByLayer
 62
  256
370
   -1
100
AcDbLine
 10
258.5349426269531
 20
92.46388244628906
 11
259.5704956054688
 21
93.64033508300781
  0
LINE
  5
C2
100
AcDbEntity
  8
0
  6
ByLayer
 62
  256
370
   -1
100
AcDbLine
 10
258.5349426269531
 20
92.46388244628906
 11
257.3584899902344
 21
91.42832946777344
  0
LINE
  5
C3
100
AcDbEntity
  8
0
  6
ByLayer
 62
  256
370
   -1
100
AcDbLine
 10
256.0557556152344
 20
90.54827880859375
 11
257.3584899902344
 21
91.42832946777344
  0
LINE
  5
C4
100
AcDbEntity
  8
0
  6
ByLayer
 62
  256
370
   -1
100
AcDbLine
 10
256.0557556152344
 20
90.54827880859375
 11
254.641357421875
 21
89.83836364746094
  0
LINE
  5
C5
100
AcDbEntity
  8
0
  6
ByLayer
 62
  256
370
   -1
100
AcDbLine
 10
253.1298980712891
 20
89.31317901611328
 11
254.641357421875
 21
89.83836364746094
  0
LINE
  5
C6
100
AcDbEntity
  8
0
  6
ByLayer
 62
  256
370
   -1
100
AcDbLine
 10
253.1298980712891
 20
89.31317901611328
 11
251.5360107421875
 21
88.98735809326172
  0
LINE
  5
C7
100
AcDbEntity
  8
0
  6
ByLayer
 62
  256
370
   -1
100
AcDbLine
 10
249.8743133544922
 20
88.87550354003906
 11
251.5360107421875
 21
88.98735809326172
  0
LINE
  5
C8
100
AcDbEntity
  8
0
  6
ByLayer
 62
  256
370
   -1
100
AcDbLine
 10
249.8743133544922
 20
88.87550354003906
 11
248.2126159667969
 21
88.98735809326172
  0
LINE
  5
C9
100
AcDbEntity
  8
0
  6
ByLayer
 62
  256
370
   -1
100
AcDbLine
 10
246.6187133789062
 20
89.31317901611328
 11
248.2126159667969
 21
88.98735809326172
  0
LINE
  5
CA
100
AcDbEntity
  8
0
  6
ByLayer
 62
  256
370
   -1
100
AcDbLine
 10
246.6187133789062
 20
89.31317901611328
 11
245.1072692871094
 21
89.83836364746094
  0
LINE
  5
CB
100
AcDbEntity
  8
0
  6
ByLayer
 62
  256
370
   -1
100
AcDbLine
 10
243.69287109375
 20
90.54827880859375
 11
245.1072692871094
 21
89.83836364746094
  0
LINE
  5
CC
100
AcDbEntity
  8
0
  6
ByLayer
 62
  256
370
   -1
100
AcDbLine
 10
243.69287109375
 20
90.54827880859375
 11
242.39013671875
 21
91.42832946777344
  0
LINE
  5
CD
100
AcDbEntity
  8
0
  6
ByLayer
 62
  256
370
   -1
100
AcDbLine
 10
241.2136840820312
 20
92.46388244628906
 11
242.39013671875
 21
91.42832946777344
  0
LINE
  5
CE
100
AcDbEntity
  8
0
  6
ByLayer
 62
  256
370
   -1
100
AcDbLine
 10
241.2136840820312
 20
92.46388244628906
 11
240.1781311035156
 21
93.64033508300781
  0
LINE
  5
CF
100
AcDbEntity
  8
0
  6
ByLayer
 62
  256
370
   -1
100
AcDbLine
 10
239.298095703125
 20
94.94306182861328
 11
240.1781311035156
 21
93.64033508300781
  0
LINE
  5
D0
100
AcDbEntity
  8
0
  6
ByLayer
 62
  256
370
   -1
100
AcDbLine
 10
239.298095703125
 20
94.94306182861328
 11
238.5881652832031
 21
96.35746002197266
  0
LINE
  5
D1
100
AcDbEntity
  8
0
  6
ByLayer
 62
  256
370
   -1
100
AcDbLine
 10
238.06298828125
 20
97.86891174316406
 11
238.5881652832031
 21
96.35746002197266
  0
LINE
  5
D2
100
AcDbEntity
  8
0
  6
ByLayer
 62
  256
370
   -1
100
AcDbLine
 10
238.06298828125
 20
97.86891174316406
 11
237.7371520996094
 21
99.46279907226562
  0
LINE
  5
D3
100
AcDbEntity
  8
0
  6
ByLayer
 62
  256
370
   -1
100
AcDbLine
 10
237.6253051757812
 20
101.1244964599609
 11
237.7371520996094
 21
99.46279907226562
  0
LINE
  5
D4
100
AcDbEntity
  8
0
  6
ByLayer
 62
  256
370
   -1
100
AcDbLine
 10
237.6253051757812
 20
101.1244964599609
 11
237.7371673583984
 21
102.7862091064453
  0
LINE
  5
D5
100
AcDbEntity
  8
0
  6
ByLayer
 62
  256
370
   -1
100
AcDbLine
 10
238.06298828125
 20
104.3800888061523
 11
237.7371673583984
 21
102.7862091064453
  0
LINE
  5
D6
100
AcDbEntity
  8
0
  6
ByLayer
 62
  256
370
   -1
100
AcDbLine
 10
233.2589111328125
 20
105.5872955322266
 11
232.9330749511719
 21
103.993408203125
  0
LINE
  5
D7
100
AcDbEntity
  8
0
  6
ByLayer
 62
  256
370
   -1
100
AcDbLine
 10
232.4078979492188
 20
102.4819641113281
 11
232.9330749511719
 21
103.993408203125
  0
LINE
  5
D8
100
AcDbEntity
  8
0
  6
ByLayer
 62
  256
370
   -1
100
AcDbLine
 10
232.4078979492188
 20
102.4819641113281
 11
231.6979675292969
 21
101.0675659179688
  0
LINE
  5
D9
100
AcDbEntity
  8
0
  6
ByLayer
 62
  256
370
   -1
100
AcDbLine
 10
230.8179321289062
 20
99.76483154296875
 11
231.6979675292969
 21
101.0675659179688
  0
LINE
  5
DA
100
AcDbEntity
  8
0
  6
ByLayer
 62
  256
370
   -1
100
AcDbLine
 10
230.8179321289062
 20
99.76483154296875
 11
229.7823791503906
 21
98.58837890625
  0
LINE
  5
DB
100
AcDbEntity
  8
0
  6
ByLayer
 62
  256
370
   -1
100
AcDbLine
 10
228.6059265136719
 20
97.55282592773438
 11
229.7823791503906
 21
98.58837890625
  0
LINE
  5
DC
100
AcDbEntity
  8
0
  6
ByLayer
 62
  256
370
   -1
100
AcDbLine
 10
228.6059265136719
 20
97.55282592773438
 11
227.3031921386719
 21
96.67278289794922
  0
LINE
  5
DD
100
AcDbEntity
  8
0
  6
ByLayer
 62
  256
370
   -1
100
AcDbLine
 10
225.8887939453125
 20
95.96286010742188
 11
227.3031921386719
 21
96.67278289794922
  0
LINE
  5
DE
100
AcDbEntity
  8
0
  6
ByLayer
 62
  256
370
   -1
100
AcDbLine
 10
225.8887939453125
 20
95.96286010742188
 11
224.3773498535156
 21
95.43768310546875
  0
LINE
  5
DF
100
AcDbEntity
  8
0
  6
ByLayer
 62
  256
370
   -1
100
AcDbLine
 10
224.3773498535156
 20
95.43768310546875
 11
222.7834777832031
 21
95.11185455322266
  0
LINE
  5
E0
100
AcDbEntity
  8
0
  6
ByLayer
 62
  256
370
   -1
100
AcDbLine
 10
221.1217651367188
 20
95
 11
222.7834777832031
 21
95.11185455322266
  0
LINE
  5
E1
100
AcDbEntity
  8
0
  6
ByLayer
 62
  256
370
   -1
100
AcDbLine
 10
221.1217651367188
 20
95
 11
219.4600524902344
 21
95.11185455322266
  0
LINE
  5
E2
100
AcDbEntity
  8
0
  6
ByLayer
 62
  256
370
   -1
100
AcDbLine
 10
217.8661651611328
 20
95.43768310546875
 11
219.4600524902344
 21
95.11185455322266
  0
LINE
  5
E3
100
AcDbEntity
  8
0
  6
ByLayer
 62
  256
370
   -1
100
AcDbLine
 10
217.8661651611328
 20
95.43768310546875
 11
216.3547210693359
 21
95.96286010742188
  0
LINE
  5
E4
100
AcDbEntity
  8
0
  6
ByLayer
 62
  256
370
   -1
100
AcDbLine
 10
214.9403228759766
 20
96.67278289794922
 11
216.3547210693359
 21
95.96286010742188
  0
LINE
  5
E5
100
AcDbEntity
  8
0
  6
ByLayer
 62
  256
370
   -1
100
AcDbLine
 10
214.9403228759766
 20
96.67278289794922
 11
213.6375885009766
 21
97.55282592773438
  0
LINE
  5
E6
100
AcDbEntity
  8
0
  6
ByLayer
 62
  256
370
   -1
100
AcDbLine
 10
213.6375885009766
 20
97.55282592773438
 11
212.4611511230469
 21
98.58837890625
  0
LINE
  5
E7
100
AcDbEntity
  8
0
  6
ByLayer
 62
  256
370
   -1
100
AcDbLine
 10
211.4255828857422
 20
99.76483154296875
 11
212.4611511230469
 21
98.58837890625
  0
LINE
  5
E8
100
AcDbEntity
  8
0
  6
ByLayer
 62
  256
370
   -1
100
AcDbLine
 10
211.4255828857422
 20
99.76483154296875
 11
210.5455322265625
 21
101.0675659179688
  0
LINE
  5
E9
100
AcDbEntity
  8
0
  6
ByLayer
 62
  256
370
   -1
100
AcDbLine
 10
209.8356170654297
 20
102.4819641113281
 11
210.5455322265625
 21
101.0675659179688
  0
LINE
  5
EA
100
AcDbEntity
  8
0
  6
ByLayer
 62
  256
370
   -1
100
AcDbLine
 10
209.3104400634766
 20
103.993408203125
 11
209.8356170654297
 21
102.4819641113281
  0
LINE
  5
EB
100
AcDbEntity
  8
0
  6
ByLayer
 62
  256
370
   -1
100
AcDbLine
 10
208.984619140625
 20
105.5872955322266
 11
209.3104400634766
 21
103.993408203125
  0
LINE
  5
EC
100
AcDbEntity
  8
0
  6
ByLayer
 62
  256
370
   -1
100
AcDbLine
 10
208.8727569580078
 20
107.2490005493164
 11
208.984619140625
 21
105.5872955322266
  0
LINE
  5
ED
100
AcDbEntity
  8
0
  6
ByLayer
 62
  256
370
   -1
100
AcDbLine
 10
208.8727569580078
 20
107.2490005493164
 11
208.984619140625
 21
108.9107055664062
  0
LINE
  5
EE
100
AcDbEntity
  8
0
  6
ByLayer
 62
  256
370
   -1
100
AcDbLine
 10
208.984619140625
 20
108.9107055664062
 11
209.3104400634766
 21
110.5045928955078
  0
LINE
  5
EF
100
AcDbEntity
  8
0
  6
ByLayer
 62
  256
370
   -1
100
AcDbLine
 10
209.8356170654297
 20
112.0160369873047
 11
209.3104400634766
 21
110.5045928955078
  0
LINE
  5
F0
100
AcDbEntity
  8
0
  6
ByLayer
 62
  256
370
   -1
100
AcDbLine
 10
209.8356170654297
 20
112.0160369873047
 11
210.5455322265625
 21
113.4304351806641
  0
LINE
  5
F1
100
AcDbEntity
  8
0
  6
ByLayer
 62
  256
370
   -1
100
AcDbLine
 10
211.4255828857422
 20
114.7331695556641
 11
210.5455322265625
 21
113.4304351806641
  0
LINE
  5
F2
100
AcDbEntity
  8
0
  6
ByLayer
 62
  256
370
   -1
100
AcDbLine
 10
211.4255828857422
 20
114.7331695556641
 11
212.4611358642578
 21
115.9096145629883
  0
LINE
  5
F3
100
AcDbEntity
  8
0
  6
ByLayer
 62
  256
370
   -1
100
AcDbLine
 10
213.6375885009766
 20
116.9451751708984
 11
212.4611358642578
 21
115.9096145629883
  0
LINE
  5
F4
100
AcDbEntity
  8
0
  6
ByLayer
 62
  256
370
   -1
100
AcDbLine
 10
213.6375885009766
 20
116.9451751708984
 11
214.9403228759766
 21
117.8252182006836
  0
LINE
  5
F5
100
AcDbEntity
  8
0
  6
ByLayer
 62
  256
370
   -1
100
AcDbLine
 10
214.9403228759766
 20
117.8252182006836
 11
216.3547210693359
 21
118.5351409912109
  0
LINE
  5
F6
100
AcDbEntity
  8
0
  6
ByLayer
 62
  256
370
   -1
100
AcDbLine
 10
217.8661651611328
 20
119.0603179931641
 11
216.3547210693359
 21
118.5351409912109
  0
LINE
  5
F7
100
AcDbEntity
  8
0
  6
ByLayer
 62
  256
370
   -1
100
AcDbLine
 10
217.8661651611328
 20
119.0603179931641
 11
219.4600524902344
 21
119.3861465454102
  0
LINE
  5
F8
100
AcDbEntity
  8
0
  6
ByLayer
 62
  256
370
   -1
100
AcDbLine
 10
219.4600524902344
 20
119.3861465454102
 11
221.1217651367188
 21
119.4980010986328
  0
LINE
  5
F9
100
AcDbEntity
  8
0
  6
ByLayer
 62
  256
370
   -1
100
AcDbLine
 10
219.4600524902344
 20
124.5094528198242
 11
221.1217651367188
 21
124.3975982666016
  0
LINE
  5
FA
100
AcDbEntity
  8
0
  6
ByLayer
 62
  256
370
   -1
100
AcDbLine
 10
217.8661651611328
 20
124.8352813720703
 11
219.4600524902344
 21
124.5094528198242
  0
LINE
  5
FB
100
AcDbEntity
  8
0
  6
ByLayer
 62
  256
370
   -1
100
AcDbLine
 10
216.3547210693359
 20
125.3604583740234
 11
217.8661651611328
 21
124.8352813720703
  0
LINE
  5
FC
100
AcDbEntity
  8
0
  6
ByLayer
 62
  256
370
   -1
100
AcDbLine
 10
214.9403228759766
 20
126.0703811645508
 11
216.3547210693359
 21
125.3604583740234
  0
LINE
  5
FD
100
AcDbEntity
  8
0
  6
ByLayer
 62
  256
370
   -1
100
AcDbLine
 10
213.6375885009766
 20
126.9504241943359
 11
214.9403228759766
 21
126.0703811645508
  0
LINE
  5
FE
100
AcDbEntity
  8
0
  6
ByLayer
 62
  256
370
   -1
100
AcDbLine
 10
213.6375885009766
 20
126.9504241943359
 11
212.4611511230469
 21
127.9859771728516
  0
LINE
  5
FF
100
AcDbEntity
  8
0
  6
ByLayer
 62
  256
370
   -1
100
AcDbLine
 10
211.4255828857422
 20
129.1624298095703
 11
212.4611511230469
 21
127.9859771728516
  0
LINE
  5
100
100
AcDbEntity
  8
0
  6
ByLayer
 62
  256
370
   -1
100
AcDbLine
 10
211.4255828857422
 20
129.1624298095703
 11
210.5455322265625
 21
130.4651641845703
  0
LINE
  5
101
100
AcDbEntity
  8
0
  6
ByLayer
 62
  256
370
   -1
100
AcDbLine
 10
209.8356170654297
 20
131.8795623779297
 11
210.5455322265625
 21
130.4651641845703
  0
LINE
  5
102
100
AcDbEntity
  8
0
  6
ByLayer
 62
  256
370
   -1
100
AcDbLine
 10
209.8356170654297
 20
131.8795623779297
 11
209.3104400634766
 21
133.3910064697266
  0
LINE
  5
103
100
AcDbEntity
  8
0
  6
ByLayer
 62
  256
370
   -1
100
AcDbLine
 10
208.984619140625
 20
134.9848937988281
 11
209.3104400634766
 21
133.3910064697266
  0
LINE
  5
104
100
AcDbEntity
  8
0
  6
ByLayer
 62
  256
370
   -1
100
AcDbLine
 10
208.8727569580078
 20
136.6466064453125
 11
208.984619140625
 21
134.9848937988281
  0
LINE
  5
105
100
AcDbEntity
  8
0
  6
ByLayer
 62
  256
370
   -1
100
AcDbLine
 10
203.8612976074219
 20
134.9848937988281
 11
203.9731597900391
 21
136.6466064453125
  0
LINE
  5
106
100
AcDbEntity
  8
0
  6
ByLayer
 62
  256
370
   -1
100
AcDbLine
 10
203.8612976074219
 20
134.9848937988281
 11
203.5354766845703
 21
133.3910064697266
  0
LINE
  5
107
100
AcDbEntity
  8
0
  6
ByLayer
 62
  256
370
   -1
100
AcDbLine
 10
203.0102996826172
 20
131.8795623779297
 11
203.5354766845703
 21
133.3910064697266
  0
LINE
  5
108
100
AcDbEntity
  8
0
  6
ByLayer
 62
  256
370
   -1
100
AcDbLine
 10
203.0102996826172
 20
131.8795623779297
 11
202.3003845214844
 21
130.4651641845703
  0
LINE
  5
109
100
AcDbEntity
  8
0
  6
ByLayer
 62
  256
370
   -1
100
AcDbLine
 10
202.3003845214844
 20
130.4651641845703
 11
201.4203338623047
 21
129.1624298095703
  0
LINE
  5
10A
100
AcDbEntity
  8
0
  6
ByLayer
 62
  256
370
   -1
100
AcDbLine
 10
200.3847808837891
 20
127.9859848022461
 11
201.4203338623047
 21
129.1624298095703
  0
LINE
  5
10B
100
AcDbEntity
  8
0
  6
ByLayer
 62
  256
370
   -1
100
AcDbLine
 10
199.2083282470703
 20
126.9504318237305
 11
200.3847808837891
 21
127.9859848022461
  0
LINE
  5
10C
100
AcDbEntity
  8
0
  6
ByLayer
 62
  256
370
   -1
100
AcDbLine
 10
197.9055938720703
 20
126.0703887939453
 11
199.2083282470703
 21
126.9504318237305
  0
LINE
  5
10D
100
AcDbEntity
  8
0
  6
ByLayer
 62
  256
370
   -1
100
AcDbLine
 10
196.4911956787109
 20
125.360466003418
 11
197.9055938720703
 21
126.0703887939453
  0
LINE
  5
10E
100
AcDbEntity
  8
0
  6
ByLayer
 62
  256
370
   -1
100
AcDbLine
 10
194.9797515869141
 20
124.8352813720703
 11
196.4911956787109
 21
125.360466003418
  0
LINE
  5
10F
100
AcDbEntity
  8
0
  6
ByLayer
 62
  256
370
   -1
100
AcDbLine
 10
193.3858642578125
 20
124.5094604492188
 11
194.9797515869141
 21
124.8352813720703
  0
LINE
  5
110
100
AcDbEntity
  8
0
  6
ByLayer
 62
  256
370
   -1
100
AcDbLine
 10
191.7241516113281
 20
124.3975982666016
 11
193.3858642578125
 21
124.5094604492188
  0
LINE
  5
111
100
AcDbEntity
  8
0
  6
ByLayer
 62
  256
370
   -1
100
AcDbLine
 10
191.7241516113281
 20
119.4980010986328
 11
193.3858642578125
 21
119.3861389160156
  0
LINE
  5
112
100
AcDbEntity
  8
0
  6
ByLayer
 62
  256
370
   -1
100
AcDbLine
 10
193.3858642578125
 20
119.3861389160156
 11
194.9797515869141
 21
119.0603179931641
  0
LINE
  5
113
100
AcDbEntity
  8
0
  6
ByLayer
 62
  256
370
   -1
100
AcDbLine
 10
194.9797515869141
 20
119.0603179931641
 11
196.4911956787109
 21
118.5351409912109
  0
LINE
  5
114
100
AcDbEntity
  8
0
  6
ByLayer
 62
  256
370
   -1
100
AcDbLine
 10
196.4911956787109
 20
118.5351409912109
 11
197.9055938720703
 21
117.8252182006836
  0
LINE
  5
115
100
AcDbEntity
  8
0
  6
ByLayer
 62
  256
370
   -1
100
AcDbLine
 10
197.9055938720703
 20
117.8252182006836
 11
199.2083282470703
 21
116.9451751708984
  0
LINE
  5
116
100
AcDbEntity
  8
0
  6
ByLayer
 62
  256
370
   -1
100
AcDbLine
 10
199.2083282470703
 20
116.9451751708984
 11
200.384765625
 21
115.9096221923828
  0
LINE
  5
117
100
AcDbEntity
  8
0
  6
ByLayer
 62
  256
370
   -1
100
AcDbLine
 10
201.4203338623047
 20
114.7331695556641
 11
200.384765625
 21
115.9096221923828
  0
LINE
  5
118
100
AcDbEntity
  8
0
  6
ByLayer
 62
  256
370
   -1
100
AcDbLine
 10
201.4203338623047
 20
114.7331695556641
 11
202.3003845214844
 21
113.4304351806641
  0
LINE
  5
119
100
AcDbEntity
  8
0
  6
ByLayer
 62
  256
370
   -1
100
AcDbLine
 10
203.0102996826172
 20
112.0160369873047
 11
202.3003845214844
 21
113.4304351806641
  0
LINE
  5
11A
100
AcDbEntity
  8
0
  6
ByLayer
 62
  256
370
   -1
100
AcDbLine
 10
203.0102996826172
 20
112.0160369873047
 11
203.5354766845703
 21
110.5045928955078
  0
LINE
  5
11B
100
AcDbEntity
  8
0
  6
ByLayer
 62
  256
370
   -1
100
AcDbLine
 10
203.8612976074219
 20
108.9107055664062
 11
203.5354766845703
 21
110.5045928955078
  0
LINE
  5
11C
100
AcDbEntity
  8
0
  6
ByLayer
 62
  256
370
   -1
100
AcDbLine
 10
203.8612976074219
 20
108.9107055664062
 11
203.9731597900391
 21
107.2490005493164
  0
LINE
  5
11D
100
AcDbEntity
  8
0
  6
ByLayer
 62
  256
370
   -1
100
AcDbLine
 10
203.8612976074219
 20
105.5872955322266
 11
203.9731597900391
 21
107.2490005493164
  0
LINE
  5
11E
100
AcDbEntity
  8
0
  6
ByLayer
 62
  256
370
   -1
100
AcDbLine
 10
203.8612976074219
 20
105.5872955322266
 11
203.5354766845703
 21
103.993408203125
  0
LINE
  5
11F
100
AcDbEntity
  8
0
  6
ByLayer
 62
  256
370
   -1
100
AcDbLine
 10
203.0102996826172
 20
102.4819641113281
 11
203.5354766845703
 21
103.993408203125
  0
LINE
  5
120
100
AcDbEntity
  8
0
  6
ByLayer
 62
  256
370
   -1
100
AcDbLine
 10
203.0102996826172
 20
102.4819641113281
 11
202.3003845214844
 21
101.0675659179688
  0
LINE
  5
121
100
AcDbEntity
  8
0
  6
ByLayer
 62
  256
370
   -1
100
AcDbLine
 10
201.4203338623047
 20
99.76483154296875
 11
202.3003845214844
 21
101.0675659179688
  0
LINE
  5
122
100
AcDbEntity
  8
0
  6
ByLayer
 62
  256
370
   -1
100
AcDbLine
 10
201.4203338623047
 20
99.76483154296875
 11
200.3847808837891
 21
98.58837890625
  0
LINE
  5
123
100
AcDbEntity
  8
0
  6
ByLayer
 62
  256
370
   -1
100
AcDbLine
 10
200.3847808837891
 20
98.58837890625
 11
199.2083282470703
 21
97.55282592773438
  0
LINE
  5
124
100
AcDbEntity
  8
0
  6
ByLayer
 62
  256
370
   -1
100
AcDbLine
 10
197.9055938720703
 20
96.67278289794922
 11
199.2083282470703
 21
97.55282592773438
  0
LINE
  5
125
100
AcDbEntity
  8
0
  6
ByLayer
 62
  256
370
   -1
100
AcDbLine
 10
196.4911956787109
 20
95.96286010742188
 11
197.9055938720703
 21
96.67278289794922
  0
LINE
  5
126
100
AcDbEntity
  8
0
  6
ByLayer
 62
  256
370
   -1
100
AcDbLine
 10
196.4911956787109
 20
95.96286010742188
 11
194.9797515869141
 21
95.43768310546875
  0
LINE
  5
127
100
AcDbEntity
  8
0
  6
ByLayer
 62
  256
370
   -1
100
AcDbLine
 10
194.9797515869141
 20
95.43768310546875
 11
193.3858642578125
 21
95.11186218261719
  0
LINE
  5
128
100
AcDbEntity
  8
0
  6
ByLayer
 62
  256
370
   -1
100
AcDbLine
 10
191.7241516113281
 20
95
 11
193.3858642578125
 21
95.11186218261719
  0
LINE
  5
129
100
AcDbEntity
  8
0
  6
ByLayer
 62
  256
370
   -1
100
AcDbLine
 10
191.7241516113281
 20
95
 11
190.0624542236328
 21
95.11185455322266
  0
LINE
  5
12A
100
AcDbEntity
  8
0
  6
ByLayer
 62
  256
370
   -1
100
AcDbLine
 10
188.4685668945312
 20
95.43768310546875
 11
190.0624542236328
 21
95.11185455322266
  0
LINE
  5
12B
100
AcDbEntity
  8
0
  6
ByLayer
 62
  256
370
   -1
100
AcDbLine
 10
186.9571228027344
 20
95.96286010742188
 11
188.4685668945312
 21
95.43768310546875
  0
LINE
  5
12C
100
AcDbEntity
  8
0
  6
ByLayer
 62
  256
370
   -1
100
AcDbLine
 10
185.542724609375
 20
96.67278289794922
 11
186.9571228027344
 21
95.96286010742188
  0
LINE
  5
12D
100
AcDbEntity
  8
0
  6
ByLayer
 62
  256
370
   -1
100
AcDbLine
 10
185.542724609375
 20
96.67278289794922
 11
184.239990234375
 21
97.55282592773438
  0
LINE
  5
12E
100
AcDbEntity
  8
0
  6
ByLayer
 62
  256
370
   -1
100
AcDbLine
 10
183.0635375976562
 20
98.58837890625
 11
184.239990234375
 21
97.55282592773438
  0
LINE
  5
12F
100
AcDbEntity
  8
0
  6
ByLayer
 62
  256
370
   -1
100
AcDbLine
 10
183.0635375976562
 20
98.58837890625
 11
182.0279846191406
 21
99.76483154296875
  0
LINE
  5
130
100
AcDbEntity
  8
0
  6
ByLayer
 62
  256
370
   -1
100
AcDbLine
 10
181.1479339599609
 20
101.0675659179688
 11
182.0279846191406
 21
99.76483154296875
  0
LINE
  5
131
100
AcDbEntity
  8
0
  6
ByLayer
 62
  256
370
   -1
100
AcDbLine
 10
181.1479339599609
 20
101.0675659179688
 11
180.4380187988281
 21
102.4819564819336
  0
LINE
  5
132
100
AcDbEntity
  8
0
  6
ByLayer
 62
  256
370
   -1
100
AcDbLine
 10
190.0624542236328
 20
119.3861465454102
 11
191.7241516113281
 21
119.4980010986328
  0
LINE
  5
133
100
AcDbEntity
  8
0
  6
ByLayer
 62
  256
370
   -1
100
AcDbLine
 10
190.0624542236328
 20
124.5094528198242
 11
191.7241516113281
 21
124.3975982666016
  0
LINE
  5
134
100
AcDbEntity
  8
0
  6
ByLayer
 62
  256
370
   -1
100
AcDbLine
 10
188.4685668945312
 20
124.8352813720703
 11
190.0624542236328
 21
124.5094528198242
  0
LINE
  5
135
100
AcDbEntity
  8
0
  6
ByLayer
 62
  256
370
   -1
100
AcDbLine
 10
186.9571228027344
 20
125.3604583740234
 11
188.4685668945312
 21
124.8352813720703
  0
LINE
  5
136
100
AcDbEntity
  8
0
  6
ByLayer
 62
  256
370
   -1
100
AcDbLine
 10
186.9571228027344
 20
125.3604583740234
 11
185.542724609375
 21
126.0703811645508
  0
LINE
  5
137
100
AcDbEntity
  8
0
  6
ByLayer
 62
  256
370
   -1
100
AcDbLine
 10
185.542724609375
 20
126.0703811645508
 11
184.239990234375
 21
126.9504241943359
  0
LINE
  5
138
100
AcDbEntity
  8
0
  6
ByLayer
 62
  256
370
   -1
100
AcDbLine
 10
183.0635375976562
 20
127.9859771728516
 11
184.239990234375
 21
126.9504241943359
  0
LINE
  5
139
100
AcDbEntity
  8
0
  6
ByLayer
 62
  256
370
   -1
100
AcDbLine
 10
183.0635375976562
 20
127.9859771728516
 11
182.0279846191406
 21
129.1624298095703
  0
LINE
  5
13A
100
AcDbEntity
  8
0
  6
ByLayer
 62
  256
370
   -1
100
AcDbLine
 10
181.1479339599609
 20
130.4651641845703
 11
182.0279846191406
 21
129.1624298095703
  0
LINE
  5
13B
100
AcDbEntity
  8
0
  6
ByLayer
 62
  256
370
   -1
100
AcDbLine
 10
181.1479339599609
 20
130.4651641845703
 11
180.4380187988281
 21
131.8795623779297
  0
LINE
  5
13C
100
AcDbEntity
  8
0
  6
ByLayer
 62
  256
370
   -1
100
AcDbLine
 10
176.8113098144531
 20
127.6531982421875
 11
176.2861328125
 21
129.1646423339844
  0
LINE
  5
13D
100
AcDbEntity
  8
0
  6
ByLayer
 62
  256
370
   -1
100
AcDbLine
 10
176.8113098144531
 20
127.6531982421875
 11
177.1371459960938
 21
126.0593109130859
  0
LINE
  5
13E
100
AcDbEntity
  8
0
  6
ByLayer
 62
  256
370
   -1
100
AcDbLine
 10
177.2489929199219
 20
124.3975982666016
 11
177.1371459960938
 21
126.0593109130859
  0
LINE
  5
13F
100
AcDbEntity
  8
0
  6
ByLayer
 62
  256
370
   -1
100
AcDbLine
 10
177.2489929199219
 20
124.3975982666016
 11
177.1371459960938
 21
122.7358932495117
  0
LINE
  5
140
100
AcDbEntity
  8
0
  6
ByLayer
 62
  256
370
   -1
100
AcDbLine
 10
176.8113098144531
 20
121.1420135498047
 11
177.1371459960938
 21
122.7358932495117
  0
LINE
  5
141
100
AcDbEntity
  8
0
  6
ByLayer
 62
  256
370
   -1
100
AcDbLine
 10
176.2861328125
 20
119.6305618286133
 11
176.8113098144531
 21
121.1420135498047
  0
LINE
  5
142
100
AcDbEntity
  8
0
  6
ByLayer
 62
  256
370
   -1
100
AcDbLine
 10
176.2861328125
 20
119.6305618286133
 11
175.5762176513672
 21
118.2161636352539
  0
LINE
  5
143
100
AcDbEntity
  8
0
  6
ByLayer
 62
  256
370
   -1
100
AcDbLine
 10
174.6961669921875
 20
116.9134368896484
 11
175.5762176513672
 21
118.2161636352539
  0
LINE
  5
144
100
AcDbEntity
  8
0
  6
ByLayer
 62
  256
370
   -1
100
AcDbLine
 10
174.6961669921875
 20
116.9134368896484
 11
173.6606140136719
 21
115.7369842529297
  0
LINE
  5
145
100
AcDbEntity
  8
0
  6
ByLayer
 62
  256
370
   -1
100
AcDbLine
 10
172.4841613769531
 20
114.7014312744141
 11
173.6606140136719
 21
115.7369842529297
  0
LINE
  5
146
100
AcDbEntity
  8
0
  6
ByLayer
 62
  256
370
   -1
100
AcDbLine
 10
171.1814422607422
 20
113.8213806152344
 11
172.4841613769531
 21
114.7014312744141
  0
LINE
  5
147
100
AcDbEntity
  8
0
  6
ByLayer
 62
  256
370
   -1
100
AcDbLine
 10
169.7670440673828
 20
113.1114654541016
 11
171.1814422607422
 21
113.8213806152344
  0
LINE
  5
148
100
AcDbEntity
  8
0
  6
ByLayer
 62
  256
370
   -1
100
AcDbLine
 10
168.2555847167969
 20
112.5862884521484
 11
169.7670440673828
 21
113.1114654541016
  0
LINE
  5
149
100
AcDbEntity
  8
0
  6
ByLayer
 62
  256
370
   -1
100
AcDbLine
 10
166.6617126464844
 20
112.2604598999023
 11
168.2555847167969
 21
112.5862884521484
  0
LINE
  5
14A
100
AcDbEntity
  8
0
  6
ByLayer
 62
  256
370
   -1
100
AcDbLine
 10
165
 20
107.2490005493164
 11
166.6617126464844
 21
107.1371459960938
  0
LINE
  5
14B
100
AcDbEntity
  8
0
  6
ByLayer
 62
  256
370
   -1
100
AcDbLine
 10
166.6617126464844
 20
107.1371459960938
 11
168.2555847167969
 21
106.8113174438477
  0
LINE
  5
14C
100
AcDbEntity
  8
0
  6
ByLayer
 62
  256
370
   -1
100
AcDbLine
 10
168.2555847167969
 20
106.8113174438477
 11
169.7670440673828
 21
106.2861404418945
  0
LINE
  5
14D
100
AcDbEntity
  8
0
  6
ByLayer
 62
  256
370
   -1
100
AcDbLine
 10
169.7670440673828
 20
106.2861404418945
 11
171.1814422607422
 21
105.5762176513672
  0
LINE
  5
14E
100
AcDbEntity
  8
0
  6
ByLayer
 62
  256
370
   -1
100
AcDbLine
 10
171.1814422607422
 20
105.5762176513672
 11
172.4841613769531
 21
104.696174621582
  0
LINE
  5
14F
100
AcDbEntity
  8
0
  6
ByLayer
 62
  256
370
   -1
100
AcDbLine
 10
172.4841613769531
 20
104.696174621582
 11
173.6606140136719
 21
103.6606140136719
  0
LINE
  5
150
100
AcDbEntity
  8
0
  6
ByLayer
 62
  256
370
   -1
100
AcDbLine
 10
174.6961669921875
 20
102.4841690063477
 11
173.6606140136719
 21
103.6606140136719
  0
LINE
  5
151
100
AcDbEntity
  8
0
  6
ByLayer
 62
  256
370
   -1
100
AcDbLine
 10
175.5762176513672
 20
101.1814346313477
 11
174.6961669921875
 21
102.4841690063477
  0
LINE
  5
152
100
AcDbEntity
  8
0
  6
ByLayer
 62
  256
370
   -1
100
AcDbLine
 10
176.2861328125
 20
99.76703643798828
 11
175.5762176513672
 21
101.1814346313477
  0
LINE
  5
153
100
AcDbEntity
  8
0
  6
ByLayer
 62
  256
370
   -1
100
AcDbLine
 10
179.912841796875
 20
103.993408203125
 11
180.4380187988281
 21
102.4819564819336
  0
LINE
  5
154
100
AcDbEntity
  8
0
  6
ByLayer
 62
  256
370
   -1
100
AcDbLine
 10
179.912841796875
 20
103.993408203125
 11
179.5870208740234
 21
105.5872955322266
  0
LINE
  5
155
100
AcDbEntity
  8
0
  6
ByLayer
 62
  256
370
   -1
100
AcDbLine
 10
179.4751586914062
 20
107.2490005493164
 11
179.5870208740234
 21
105.5872955322266
  0
LINE
  5
156
100
AcDbEntity
  8
0
  6
ByLayer
 62
  256
370
   -1
100
AcDbLine
 10
179.4751586914062
 20
107.2490005493164
 11
179.5870208740234
 21
108.9107055664062
  0
LINE
  5
157
100
AcDbEntity
  8
0
  6
ByLayer
 62
  256
370
   -1
100
AcDbLine
 10
179.912841796875
 20
110.5045928955078
 11
179.5870208740234
 21
108.9107055664062
  0
LINE
  5
158
100
AcDbEntity
  8
0
  6
ByLayer
 62
  256
370
   -1
100
AcDbLine
 10
179.912841796875
 20
110.5045928955078
 11
180.4380187988281
 21
112.0160369873047
  0
LINE
  5
159
100
AcDbEntity
  8
0
  6
ByLayer
 62
  256
370
   -1
100
AcDbLine
 10
181.1479339599609
 20
113.4304351806641
 11
180.4380187988281
 21
112.0160369873047
  0
LINE
  5
15A
100
AcDbEntity
  8
0
  6
ByLayer
 62
  256
370
   -1
100
AcDbLine
 10
181.1479339599609
 20
113.4304351806641
 11
182.0279846191406
 21
114.7331695556641
  0
LINE
  5
15B
100
AcDbEntity
  8
0
  6
ByLayer
 62
  256
370
   -1
100
AcDbLine
 10
183.0635375976562
 20
115.9096145629883
 11
182.0279846191406
 21
114.7331695556641
  0
LINE
  5
15C
100
AcDbEntity
  8
0
  6
ByLayer
 62
  256
370
   -1
100
AcDbLine
 10
183.0635375976562
 20
115.9096145629883
 11
184.239990234375
 21
116.9451751708984
  0
LINE
  5
15D
100
AcDbEntity
  8
0
  6
ByLayer
 62
  256
370
   -1
100
AcDbLine
 10
185.542724609375
 20
117.8252182006836
 11
184.239990234375
 21
116.9451751708984
  0
LINE
  5
15E
100
AcDbEntity
  8
0
  6
ByLayer
 62
  256
370
   -1
100
AcDbLine
 10
186.9571228027344
 20
118.5351409912109
 11
185.542724609375
 21
117.8252182006836
  0
LINE
  5
15F
100
AcDbEntity
  8
0
  6
ByLayer
 62
  256
370
   -1
100
AcDbLine
 10
186.9571228027344
 20
118.5351409912109
 11
188.4685668945312
 21
119.0603179931641
  0
LINE
  5
160
100
AcDbEntity
  8
0
  6
ByLayer
 62
  256
370
   -1
100
AcDbLine
 10
188.4685668945312
 20
119.0603179931641
 11
190.0624542236328
 21
119.3861465454102
  0
LINE
  5
161
100
AcDbEntity
  8
0
  6
ByLayer
 62
  256
370
   -1
100
AcDbLine
 10
221.1217651367188
 20
119.4980010986328
 11
222.7834625244141
 21
119.3861389160156
  0
LINE
  5
162
100
AcDbEntity
  8
0
  6
ByLayer
 62
  256
370
   -1
100
AcDbLine
 10
222.7834625244141
 20
119.3861389160156
 11
224.3773498535156
 21
119.0603179931641
  0
LINE
  5
163
100
AcDbEntity
  8
0
  6
ByLayer
 62
  256
370
   -1
100
AcDbLine
 10
224.3773498535156
 20
119.0603179931641
 11
225.8887939453125
 21
118.5351409912109
  0
LINE
  5
164
100
AcDbEntity
  8
0
  6
ByLayer
 62
  256
370
   -1
100
AcDbLine
 10
227.3031921386719
 20
117.8252182006836
 11
225.8887939453125
 21
118.5351409912109
  0
LINE
  5
165
100
AcDbEntity
  8
0
  6
ByLayer
 62
  256
370
   -1
100
AcDbLine
 10
228.6059265136719
 20
116.9451751708984
 11
227.3031921386719
 21
117.8252182006836
  0
LINE
  5
166
100
AcDbEntity
  8
0
  6
ByLayer
 62
  256
370
   -1
100
AcDbLine
 10
228.6059265136719
 20
116.9451751708984
 11
229.7823791503906
 21
115.9096221923828
  0
LINE
  5
167
100
AcDbEntity
  8
0
  6
ByLayer
 62
  256
370
   -1
100
AcDbLine
 10
230.8179321289062
 20
114.7331695556641
 11
229.7823791503906
 21
115.9096221923828
  0
LINE
  5
168
100
AcDbEntity
  8
0
  6
ByLayer
 62
  256
370
   -1
100
AcDbLine
 10
231.6979675292969
 20
113.4304351806641
 11
230.8179321289062
 21
114.7331695556641
  0
LINE
  5
169
100
AcDbEntity
  8
0
  6
ByLayer
 62
  256
370
   -1
100
AcDbLine
 10
231.6979675292969
 20
113.4304351806641
 11
232.4078979492188
 21
112.0160369873047
  0
LINE
  5
16A
100
AcDbEntity
  8
0
  6
ByLayer
 62
  256
370
   -1
100
AcDbLine
 10
232.9330749511719
 20
110.5045928955078
 11
232.4078979492188
 21
112.0160369873047
  0
LINE
  5
16B
100
AcDbEntity
  8
0
  6
ByLayer
 62
  256
370
   -1
100
AcDbLine
 10
232.9330749511719
 20
110.5045928955078
 11
233.2588958740234
 21
108.9107055664062
  0
LINE
  5
16C
100
AcDbEntity
  8
0
  6
ByLayer
 62
  256
370
   -1
100
AcDbLine
 10
233.2588958740234
 20
108.9107055664062
 11
233.3707580566406
 21
107.2490005493164
  0
LINE
  5
16D
100
AcDbEntity
  8
0
  6
ByLayer
 62
  256
370
   -1
100
AcDbLine
 10
233.2589111328125
 20
105.5872955322266
 11
233.3707580566406
 21
107.2490005493164
  0
LINE
  5
16E
100
AcDbEntity
  8
0
  6
ByLayer
 62
  256
370
   -1
100
AcDbLine
 10
238.06298828125
 20
104.3800888061523
 11
238.5881652832031
 21
105.8915405273438
  0
LINE
  5
16F
100
AcDbEntity
  8
0
  6
ByLayer
 62
  256
370
   -1
100
AcDbLine
 10
239.298095703125
 20
107.3059387207031
 11
238.5881652832031
 21
105.8915405273438
  0
LINE
  5
170
100
AcDbEntity
  8
0
  6
ByLayer
 62
  256
370
   -1
100
AcDbLine
 10
239.298095703125
 20
107.3059387207031
 11
240.1781311035156
 21
108.6086654663086
  0
LINE
  5
171
100
AcDbEntity
  8
0
  6
ByLayer
 62
  256
370
   -1
100
AcDbLine
 10
241.2136840820312
 20
109.7851181030273
 11
240.1781311035156
 21
108.6086654663086
  0
LINE
  5
172
100
AcDbEntity
  8
0
  6
ByLayer
 62
  256
370
   -1
100
AcDbLine
 10
241.2136840820312
 20
109.7851181030273
 11
242.39013671875
 21
110.820671081543
  0
LINE
  5
173
100
AcDbEntity
  8
0
  6
ByLayer
 62
  256
370
   -1
100
AcDbLine
 10
242.39013671875
 20
110.820671081543
 11
243.69287109375
 21
111.7007141113281
  0
LINE
  5
174
100
AcDbEntity
  8
0
  6
ByLayer
 62
  256
370
   -1
100
AcDbLine
 10
243.69287109375
 20
111.7007141113281
 11
245.1072692871094
 21
112.4106369018555
  0
LINE
  5
175
100
AcDbEntity
  8
0
  6
ByLayer
 62
  256
370
   -1
100
AcDbLine
 10
245.1072692871094
 20
112.4106369018555
 11
246.6187286376953
 21
112.9358215332031
  0
LINE
  5
176
100
AcDbEntity
  8
0
  6
ByLayer
 62
  256
370
   -1
100
AcDbLine
 10
246.6187286376953
 20
112.9358215332031
 11
248.2126159667969
 21
113.2616424560547
  0
LINE
  5
177
100
AcDbEntity
  8
0
  6
ByLayer
 62
  256
370
   -1
100
AcDbLine
 10
248.2126159667969
 20
113.2616424560547
 11
249.8743133544922
 21
113.3734970092773
  0
LINE
  5
178
100
AcDbEntity
  8
0
  6
ByLayer
 62
  256
370
   -1
100
AcDbLine
 10
248.2126159667969
 20
118.3849563598633
 11
249.8743133544922
 21
118.2731018066406
  0
LINE
  5
179
100
AcDbEntity
  8
0
  6
ByLayer
 62
  256
370
   -1
100
AcDbLine
 10
246.6187133789062
 20
118.7107772827148
 11
248.2126159667969
 21
118.3849563598633
  0
LINE
  5
17A
100
AcDbEntity
  8
0
  6
ByLayer
 62
  256
370
   -1
100
AcDbLine
 10
245.1072692871094
 20
119.2359619140625
 11
246.6187133789062
 21
118.7107772827148
  0
LINE
  5
17B
100
AcDbEntity
  8
0
  6
ByLayer
 62
  256
370
   -1
100
AcDbLine
 10
243.69287109375
 20
119.9458770751953
 11
245.1072692871094
 21
119.2359619140625
  0
LINE
  5
17C
100
AcDbEntity
  8
0
  6
ByLayer
 62
  256
370
   -1
100
AcDbLine
 10
242.39013671875
 20
120.825927734375
 11
243.69287109375
 21
119.9458770751953
  0
LINE
  5
17D
100
AcDbEntity
  8
0
  6
ByLayer
 62
  256
370
   -1
100
AcDbLine
 10
241.2136840820312
 20
121.8614807128906
 11
242.39013671875
 21
120.825927734375
  0
LINE
  5
17E
100
AcDbEntity
  8
0
  6
ByLayer
 62
  256
370
   -1
100
AcDbLine
 10
241.2136840820312
 20
121.8614807128906
 11
240.1781311035156
 21
123.0379333496094
  0
LINE
  5
17F
100
AcDbEntity
  8
0
  6
ByLayer
 62
  256
370
   -1
100
AcDbLine
 10
239.298095703125
 20
124.3406600952148
 11
240.1781311035156
 21
123.0379333496094
  0
LINE
  5
180
100
AcDbEntity
  8
0
  6
ByLayer
 62
  256
370
   -1
100
AcDbLine
 10
239.298095703125
 20
124.3406600952148
 11
238.5881652832031
 21
125.7550582885742
  0
LINE
  5
181
100
AcDbEntity
  8
0
  6
ByLayer
 62
  256
370
   -1
100
AcDbLine
 10
238.06298828125
 20
127.2665100097656
 11
238.5881652832031
 21
125.7550582885742
  0
LINE
  5
182
100
AcDbEntity
  8
0
  6
ByLayer
 62
  256
370
   -1
100
AcDbLine
 10
238.06298828125
 20
127.2665100097656
 11
237.7371520996094
 21
128.8603820800781
  0
LINE
  5
183
100
AcDbEntity
  8
0
  6
ByLayer
 62
  256
370
   -1
100
AcDbLine
 10
237.6253051757812
 20
130.5220947265625
 11
237.7371520996094
 21
128.8603820800781
  0
LINE
  5
184
100
AcDbEntity
  8
0
  6
ByLayer
 62
  256
370
   -1
100
AcDbLine
 10
237.6253051757812
 20
130.5220947265625
 11
237.7371673583984
 21
132.1838073730469
  0
LINE
  5
185
100
AcDbEntity
  8
0
  6
ByLayer
 62
  256
370
   -1
100
AcDbLine
 10
238.06298828125
 20
133.7776794433594
 11
237.7371673583984
 21
132.1838073730469
  0
LINE
  5
186
100
AcDbEntity
  8
0
  6
ByLayer
 62
  256
370
   -1
100
AcDbLine
 10
238.5881652832031
 20
135.2891387939453
 11
238.06298828125
 21
133.7776794433594
  0
LINE
  5
187
100
AcDbEntity
  8
0
  6
ByLayer
 62
  256
370
   -1
100
AcDbLine
 10
238.5881652832031
 20
135.2891387939453
 11
239.298095703125
 21
136.7035369873047
  0
LINE
  5
188
100
AcDbEntity
  8
0
  6
ByLayer
 62
  256
370
   -1
100
AcDbLine
 10
240.1781311035156
 20
138.0062561035156
 11
239.298095703125
 21
136.7035369873047
  0
LINE
  5
189
100
AcDbEntity
  8
0
  6
ByLayer
 62
  256
370
   -1
100
AcDbLine
 10
241.2136840820312
 20
139.1827087402344
 11
240.1781311035156
 21
138.0062561035156
  0
LINE
  5
18A
100
AcDbEntity
  8
0
  6
ByLayer
 62
  256
370
   -1
100
AcDbLine
 10
241.2136840820312
 20
139.1827087402344
 11
242.39013671875
 21
140.2182769775391
  0
LINE
  5
18B
100
AcDbEntity
  8
0
  6
ByLayer
 62
  256
370
   -1
100
AcDbLine
 10
243.69287109375
 20
141.0983276367188
 11
242.39013671875
 21
140.2182769775391
  0
LINE
  5
18C
100
AcDbEntity
  8
0
  6
ByLayer
 62
  256
370
   -1
100
AcDbLine
 10
243.69287109375
 20
141.0983276367188
 11
245.1072692871094
 21
141.8082427978516
  0
LINE
  5
18D
100
AcDbEntity
  8
0
  6
ByLayer
 62
  256
370
   -1
100
AcDbLine
 10
246.6187286376953
 20
142.3334197998047
 11
245.1072692871094
 21
141.8082427978516
  0
LINE
  5
18E
100
AcDbEntity
  8
0
  6
ByLayer
 62
  256
370
   -1
100
AcDbLine
 10
248.2126159667969
 20
142.6592407226562
 11
246.6187286376953
 21
142.3334197998047
  0
LINE
  5
18F
100
AcDbEntity
  8
0
  6
ByLayer
 62
  256
370
   -1
100
AcDbLine
 10
248.2126159667969
 20
142.6592407226562
 11
249.8743133544922
 21
142.7711029052734
  0
LINE
  5
190
100
AcDbEntity
  8
0
  6
ByLayer
 62
  256
370
   -1
100
AcDbLine
 10
251.5360107421875
 20
142.6592407226562
 11
249.8743133544922
 21
142.7711029052734
  0
LINE
  5
191
100
AcDbEntity
  8
0
  6
ByLayer
 62
  256
370
   -1
100
AcDbLine
 10
251.5360107421875
 20
142.6592407226562
 11
253.1299133300781
 21
142.3334197998047
  0
LINE
  5
192
100
AcDbEntity
  8
0
  6
ByLayer
 62
  256
370
   -1
100
AcDbLine
 10
254.641357421875
 20
141.8082427978516
 11
253.1299133300781
 21
142.3334197998047
  0
LINE
  5
193
100
AcDbEntity
  8
0
  6
ByLayer
 62
  256
370
   -1
100
AcDbLine
 10
185.542724609375
 20
147.2228088378906
 11
186.9571228027344
 21
147.9327392578125
  0
LINE
  5
194
100
AcDbEntity
  8
0
  6
ByLayer
 62
  256
370
   -1
100
AcDbLine
 10
188.4685668945312
 20
148.4579162597656
 11
186.9571228027344
 21
147.9327392578125
  0
LINE
  5
195
100
AcDbEntity
  8
0
  6
ByLayer
 62
  256
370
   -1
100
AcDbLine
 10
188.4685668945312
 20
148.4579162597656
 11
190.0624542236328
 21
148.7837371826172
  0
LINE
  5
196
100
AcDbEntity
  8
0
  6
ByLayer
 62
  256
370
   -1
100
AcDbLine
 10
191.7241516113281
 20
148.8955993652344
 11
190.0624542236328
 21
148.7837371826172
  0
LINE
  5
197
100
AcDbEntity
  8
0
  6
ByLayer
 62
  256
370
   -1
100
AcDbLine
 10
191.7241516113281
 20
148.8955993652344
 11
193.3858642578125
 21
148.7837524414062
  0
LINE
  5
198
100
AcDbEntity
  8
0
  6
ByLayer
 62
  256
370
   -1
100
AcDbLine
 10
194.9797515869141
 20
148.4579162597656
 11
193.3858642578125
 21
148.7837524414062
  0
LINE
  5
199
100
AcDbEntity
  8
0
  6
ByLayer
 62
  256
370
   -1
100
AcDbLine
 10
194.9797515869141
 20
148.4579162597656
 11
196.4911956787109
 21
147.9327392578125
  0
LINE
  5
19A
100
AcDbEntity
  8
0
  6
ByLayer
 62
  256
370
   -1
100
AcDbLine
 10
197.9055938720703
 20
147.2228240966797
 11
196.4911956787109
 21
147.9327392578125
  0
LINE
  5
19B
100
AcDbEntity
  8
0
  6
ByLayer
 62
  256
370
   -1
100
AcDbLine
 10
199.2083282470703
 20
146.3427734375
 11
197.9055938720703
 21
147.2228240966797
  0
LINE
  5
19C
100
AcDbEntity
  8
0
  6
ByLayer
 62
  256
370
   -1
100
AcDbLine
 10
199.2083282470703
 20
146.3427734375
 11
200.384765625
 21
145.3072204589844
  0
LINE
  5
19D
100
AcDbEntity
  8
0
  6
ByLayer
 62
  256
370
   -1
100
AcDbLine
 10
201.4203338623047
 20
144.1307678222656
 11
200.384765625
 21
145.3072204589844
  0
LINE
  5
19E
100
AcDbEntity
  8
0
  6
ByLayer
 62
  256
370
   -1
100
AcDbLine
 10
202.3003845214844
 20
142.8280334472656
 11
201.4203338623047
 21
144.1307678222656
  0
LINE
  5
19F
100
AcDbEntity
  8
0
  6
ByLayer
 62
  256
370
   -1
100
AcDbLine
 10
202.3003845214844
 20
142.8280334472656
 11
203.0102996826172
 21
141.4136352539062
  0
LINE
  5
1A0
100
AcDbEntity
  8
0
  6
ByLayer
 62
  256
370
   -1
100
AcDbLine
 10
203.5354766845703
 20
139.9021911621094
 11
203.0102996826172
 21
141.4136352539062
  0
LINE
  5
1A1
100
AcDbEntity
  8
0
  6
ByLayer
 62
  256
370
   -1
100
AcDbLine
 10
203.8612976074219
 20
138.3083038330078
 11
203.5354766845703
 21
139.9021911621094
  0
LINE
  5
1A2
100
AcDbEntity
  8
0
  6
ByLayer
 62
  256
370
   -1
100
AcDbLine
 10
203.8612976074219
 20
138.3083038330078
 11
203.9731597900391
 21
136.6466064453125
  0
LINE
  5
1A3
100
AcDbEntity
  8
0
  6
ByLayer
 62
  256
370
   -1
100
AcDbLine
 10
208.8727569580078
 20
136.6466064453125
 11
208.984619140625
 21
138.3083038330078
  0
LINE
  5
1A4
100
AcDbEntity
  8
0
  6
ByLayer
 62
  256
370
   -1
100
AcDbLine
 10
208.984619140625
 20
138.3083038330078
 11
209.3104400634766
 21
139.9021911621094
  0
LINE
  5
1A5
100
AcDbEntity
  8
0
  6
ByLayer
 62
  256
370
   -1
100
AcDbLine
 10
209.8356170654297
 20
141.4136352539062
 11
209.3104400634766
 21
139.9021911621094
  0
LINE
  5
1A6
100
AcDbEntity
  8
0
  6
ByLayer
 62
  256
370
   -1
100
AcDbLine
 10
209.8356170654297
 20
141.4136352539062
 11
210.5455322265625
 21
142.8280334472656
  0
LINE
  5
1A7
100
AcDbEntity
  8
0
  6
ByLayer
 62
  256
370
   -1
100
AcDbLine
 10
211.4255828857422
 20
144.1307678222656
 11
210.5455322265625
 21
142.8280334472656
  0
LINE
  5
1A8
100
AcDbEntity
  8
0
  6
ByLayer
 62
  256
370
   -1
100
AcDbLine
 10
211.4255828857422
 20
144.1307678222656
 11
212.4611358642578
 21
145.3072204589844
  0
LINE
  5
1A9
100
AcDbEntity
  8
0
  6
ByLayer
 62
  256
370
   -1
100
AcDbLine
 10
213.6375885009766
 20
146.3427734375
 11
212.4611358642578
 21
145.3072204589844
  0
LINE
  5
1AA
100
AcDbEntity
  8
0
  6
ByLayer
 62
  256
370
   -1
100
AcDbLine
 10
213.6375885009766
 20
146.3427734375
 11
214.9403228759766
 21
147.2228088378906
  0
LINE
  5
1AB
100
AcDbEntity
  8
0
  6
ByLayer
 62
  256
370
   -1
100
AcDbLine
 10
216.3547210693359
 20
147.9327392578125
 11
214.9403228759766
 21
147.2228088378906
  0
LINE
  5
1AC
100
AcDbEntity
  8
0
  6
ByLayer
 62
  256
370
   -1
100
AcDbLine
 10
216.3547210693359
 20
147.9327392578125
 11
217.8661651611328
 21
148.4579162597656
  0
LINE
  5
1AD
100
AcDbEntity
  8
0
  6
ByLayer
 62
  256
370
   -1
100
AcDbLine
 10
217.8661651611328
 20
148.4579162597656
 11
219.4600524902344
 21
148.7837371826172
  0
LINE
  5
1AE
100
AcDbEntity
  8
0
  6
ByLayer
 62
  256
370
   -1
100
AcDbLine
 10
221.1217651367188
 20
148.8955993652344
 11
219.4600524902344
 21
148.7837371826172
  0
LINE
  5
1AF
100
AcDbEntity
  8
0
  6
ByLayer
 62
  256
370
   -1
100
AcDbLine
 10
221.1217651367188
 20
148.8955993652344
 11
222.7834625244141
 21
148.7837524414062
  0
LINE
  5
1B0
100
AcDbEntity
  8
0
  6
ByLayer
 62
  256
370
   -1
100
AcDbLine
 10
222.7834625244141
 20
148.7837524414062
 11
224.3773498535156
 21
148.4579162597656
  0
LINE
  5
1B1
100
AcDbEntity
  8
0
  6
ByLayer
 62
  256
370
   -1
100
AcDbLine
 10
225.8887939453125
 20
147.9327392578125
 11
224.3773498535156
 21
148.4579162597656
  0
LINE
  5
1B2
100
AcDbEntity
  8
0
  6
ByLayer
 62
  256
370
   -1
100
AcDbLine
 10
227.3031921386719
 20
147.2228240966797
 11
225.8887939453125
 21
147.9327392578125
  0
LINE
  5
1B3
100
AcDbEntity
  8
0
  6
ByLayer
 62
  256
370
   -1
100
AcDbLine
 10
227.3031921386719
 20
147.2228240966797
 11
228.6059265136719
 21
146.3427734375
  0
LINE
  5
1B4
100
AcDbEntity
  8
0
  6
ByLayer
 62
  256
370
   -1
100
AcDbLine
 10
229.7823791503906
 20
145.3072204589844
 11
228.6059265136719
 21
146.3427734375
  0
LINE
  5
1B5
100
AcDbEntity
  8
0
  6
ByLayer
 62
  256
370
   -1
100
AcDbLine
 10
229.7823791503906
 20
145.3072204589844
 11
230.8179321289062
 21
144.1307678222656
  0
LINE
  5
1B6
100
AcDbEntity
  8
0
  6
ByLayer
 62
  256
370
   -1
100
AcDbLine
 10
231.6979675292969
 20
142.8280334472656
 11
230.8179321289062
 21
144.1307678222656
  0
LINE
  5
1B7
100
AcDbEntity
  8
0
  6
ByLayer
 62
  256
370
   -1
100
AcDbLine
 10
231.6979675292969
 20
142.8280334472656
 11
232.4078979492188
 21
141.4136352539062
  0
LINE
  5
1B8
100
AcDbEntity
  8
0
  6
ByLayer
 62
  256
370
   -1
100
AcDbLine
 10
232.9330749511719
 20
139.9021911621094
 11
232.4078979492188
 21
141.4136352539062
  0
LINE
  5
1B9
100
AcDbEntity
  8
0
  6
ByLayer
 62
  256
370
   -1
100
AcDbLine
 10
232.9330749511719
 20
139.9021911621094
 11
233.2588958740234
 21
138.3083038330078
  0
LINE
  5
1BA
100
AcDbEntity
  8
0
  6
ByLayer
 62
  256
370
   -1
100
AcDbLine
 10
233.2588958740234
 20
138.3083038330078
 11
233.3707580566406
 21
136.6466064453125
  0
LINE
  5
1BB
100
AcDbEntity
  8
0
  6
ByLayer
 62
  256
370
   -1
100
AcDbLine
 10
233.3707580566406
 20
136.6466064453125
 11
233.2589111328125
 21
134.9848937988281
  0
LINE
  5
1BC
100
AcDbEntity
  8
0
  6
ByLayer
 62
  256
370
   -1
100
AcDbLine
 10
232.9330749511719
 20
133.3910064697266
 11
233.2589111328125
 21
134.9848937988281
  0
LINE
  5
1BD
100
AcDbEntity
  8
0
  6
ByLayer
 62
  256
370
   -1
100
AcDbLine
 10
232.4078979492188
 20
131.8795623779297
 11
232.9330749511719
 21
133.3910064697266
  0
LINE
  5
1BE
100
AcDbEntity
  8
0
  6
ByLayer
 62
  256
370
   -1
100
AcDbLine
 10
232.4078979492188
 20
131.8795623779297
 11
231.6979675292969
 21
130.4651641845703
  0
LINE
  5
1BF
100
AcDbEntity
  8
0
  6
ByLayer
 62
  256
370
   -1
100
AcDbLine
 10
231.6979675292969
 20
130.4651641845703
 11
230.8179321289062
 21
129.1624298095703
  0
LINE
  5
1C0
100
AcDbEntity
  8
0
  6
ByLayer
 62
  256
370
   -1
100
AcDbLine
 10
229.7823791503906
 20
127.9859848022461
 11
230.8179321289062
 21
129.1624298095703
  0
LINE
  5
1C1
100
AcDbEntity
  8
0
  6
ByLayer
 62
  256
370
   -1
100
AcDbLine
 10
228.6059265136719
 20
126.9504318237305
 11
229.7823791503906
 21
127.9859848022461
  0
LINE
  5
1C2
100
AcDbEntity
  8
0
  6
ByLayer
 62
  256
370
   -1
100
AcDbLine
 10
227.3031921386719
 20
126.0703887939453
 11
228.6059265136719
 21
126.9504318237305
  0
LINE
  5
1C3
100
AcDbEntity
  8
0
  6
ByLayer
 62
  256
370
   -1
100
AcDbLine
 10
225.8887939453125
 20
125.360466003418
 11
227.3031921386719
 21
126.0703887939453
  0
LINE
  5
1C4
100
AcDbEntity
  8
0
  6
ByLayer
 62
  256
370
   -1
100
AcDbLine
 10
224.3773498535156
 20
124.8352813720703
 11
225.8887939453125
 21
125.360466003418
  0
LINE
  5
1C5
100
AcDbEntity
  8
0
  6
ByLayer
 62
  256
370
   -1
100
AcDbLine
 10
222.7834777832031
 20
124.5094604492188
 11
224.3773498535156
 21
124.8352813720703
  0
LINE
  5
1C6
100
AcDbEntity
  8
0
  6
ByLayer
 62
  256
370
   -1
100
AcDbLine
 10
221.1217651367188
 20
124.3975982666016
 11
222.7834777832031
 21
124.5094604492188
  0
LINE
  5
1C7
100
AcDbEntity
  8
0
  6
ByLayer
 62
  256
370
   -1
100
AcDbLine
 10
179.912841796875
 20
133.3910064697266
 11
180.4380187988281
 21
131.8795623779297
  0
LINE
  5
1C8
100
AcDbEntity
  8
0
  6
ByLayer
 62
  256
370
   -1
100
AcDbLine
 10
154.4237823486328
 20
118.2161636352539
 11
155
 21
117.3631820678711
  0
LINE
  5
1C9
100
AcDbEntity
  8
0
  6
ByLayer
 62
  256
370
   -1
100
AcDbLine
 10
154.4237823486328
 20
101.1814346313477
 11
155
 21
102.0343780517578
  0
LINE
  5
1CA
100
AcDbEntity
  8
0
  6
ByLayer
 62
  256
370
   -1
100
AcDbLine
 10
155.3038330078125
 20
87.51583099365234
 11
155
 21
87.96559143066406
  0
LINE
  5
1CB
100
AcDbEntity
  8
0
  6
ByLayer
 62
  256
370
   -1
100
AcDbLine
 10
155.3038330078125
 20
102.4841690063477
 11
155
 21
102.0343780517578
  0
LINE
  5
1CC
100
AcDbEntity
  8
0
  6
ByLayer
 62
  256
370
   -1
100
AcDbLine
 10
155.3038330078125
 20
116.9134368896484
 11
155
 21
117.3631820678711
  0
LINE
  5
1CD
100
AcDbEntity
  8
0
  6
ByLayer
 62
  256
370
   -1
100
AcDbLine
 10
154.4237823486328
 20
130.5790405273438
 11
155
 21
131.4320068359375
  0
LINE
  5
1CE
100
AcDbEntity
  8
0
  6
ByLayer
 62
  256
370
   -1
100
AcDbLine
 10
154.4237823486328
 20
88.81856536865234
 11
155
 21
87.96559143066406
  0
LINE
  5
1CF
100
AcDbEntity
  8
0
  6
ByLayer
 62
  256
370
   -1
100
AcDbLine
 10
155.3038330078125
 20
131.8817749023438
 11
155
 21
131.4320068359375
  0
LINE
  5
1D0
100
AcDbEntity
  8
0
  6
ByLayer
 62
  256
370
   -1
100
AcDbLine
 10
285
 20
206.75
 11
284.6585998535156
 21
206.7163696289062
  0
LINE
  5
1D1
100
AcDbEntity
  8
0
  6
ByLayer
 62
  256
370
   -1
100
AcDbLine
 10
284.6585998535156
 20
206.7163696289062
 11
284.3302917480469
 21
206.6167907714844
  0
LINE
  5
1D2
100
AcDbEntity
  8
0
  6
ByLayer
 62
  256
370
   -1
100
AcDbLine
 10
284.3302917480469
 20
206.6167907714844
 11
284.0277404785156
 21
206.455078125
  0
LINE
  5
1D3
100
AcDbEntity
  8
0
  6
ByLayer
 62
  256
370
   -1
100
AcDbLine
 10
284.0277404785156
 20
206.455078125
 11
283.7625732421875
 21
206.2374420166016
  0
LINE
  5
1D4
100
AcDbEntity
  8
0
  6
ByLayer
 62
  256
370
   -1
100
AcDbLine
 10
283.7625732421875
 20
206.2374420166016
 11
283.544921875
 21
205.9722442626953
  0
LINE
  5
1D5
100
AcDbEntity
  8
0
  6
ByLayer
 62
  256
370
   -1
100
AcDbLine
 10
283.544921875
 20
205.9722442626953
 11
283.3832092285156
 21
205.6696929931641
  0
LINE
  5
1D6
100
AcDbEntity
  8
0
  6
ByLayer
 62
  256
370
   -1
100
AcDbLine
 10
283.3832092285156
 20
205.6696929931641
 11
283.2836303710938
 21
205.3414154052734
  0
LINE
  5
1D7
100
AcDbEntity
  8
0
  6
ByLayer
 62
  256
370
   -1
100
AcDbLine
 10
283.2836303710938
 20
205.3414154052734
 11
283.25
 21
205
  0
LINE
  5
1D8
100
AcDbEntity
  8
0
  6
ByLayer
 62
  256
370
   -1
100
AcDbLine
 10
283.25
 20
205
 11
283.2836303710938
 21
204.6585845947266
  0
LINE
  5
1D9
100
AcDbEntity
  8
0
  6
ByLayer
 62
  256
370
   -1
100
AcDbLine
 10
283.2836303710938
 20
204.6585845947266
 11
283.3832092285156
 21
204.3303070068359
  0
LINE
  5
1DA
100
AcDbEntity
  8
0
  6
ByLayer
 62
  256
370
   -1
100
AcDbLine
 10
283.3832092285156
 20
204.3303070068359
 11
283.544921875
 21
204.0277557373047
  0
LINE
  5
1DB
100
AcDbEntity
  8
0
  6
ByLayer
 62
  256
370
   -1
100
AcDbLine
 10
283.544921875
 20
204.0277557373047
 11
283.7625732421875
 21
203.7625579833984
  0
LINE
  5
1DC
100
AcDbEntity
  8
0
  6
ByLayer
 62
  256
370
   -1
100
AcDbLine
 10
283.7625732421875
 20
203.7625579833984
 11
284.0277404785156
 21
203.544921875
  0
LINE
  5
1DD
100
AcDbEntity
  8
0
  6
ByLayer
 62
  256
370
   -1
100
AcDbLine
 10
284.0277404785156
 20
203.544921875
 11
284.3302917480469
 21
203.3832092285156
  0
LINE
  5
1DE
100
AcDbEntity
  8
0
  6
ByLayer
 62
  256
370
   -1
100
AcDbLine
 10
284.3302917480469
 20
203.3832092285156
 11
284.6585998535156
 21
203.2836303710938
  0
LINE
  5
1DF
100
AcDbEntity
  8
0
  6
ByLayer
 62
  256
370
   -1
100
AcDbLine
 10
284.6585998535156
 20
203.2836303710938
 11
285
 21
203.25
  0
LINE
  5
1E0
100
AcDbEntity
  8
0
  6
ByLayer
 62
  256
370
   -1
100
AcDbLine
 10
285
 20
203.25
 11
285.3414001464844
 21
203.2836303710938
  0
LINE
  5
1E1
100
AcDbEntity
  8
0
  6
ByLayer
 62
  256
370
   -1
100
AcDbLine
 10
285.3414001464844
 20
203.2836303710938
 11
285.6697082519531
 21
203.3832092285156
  0
LINE
  5
1E2
100
AcDbEntity
  8
0
  6
ByLayer
 62
  256
370
   -1
100
AcDbLine
 10
285.6697082519531
 20
203.3832092285156
 11
285.9722595214844
 21
203.544921875
  0
LINE
  5
1E3
100
AcDbEntity
  8
0
  6
ByLayer
 62
  256
370
   -1
100
AcDbLine
 10
285.9722595214844
 20
203.544921875
 11
286.2374267578125
 21
203.7625579833984
  0
LINE
  5
1E4
100
AcDbEntity
  8
0
  6
ByLayer
 62
  256
370
   -1
100
AcDbLine
 10
286.2374267578125
 20
203.7625579833984
 11
286.455078125
 21
204.0277557373047
  0
LINE
  5
1E5
100
AcDbEntity
  8
0
  6
ByLayer
 62
  256
370
   -1
100
AcDbLine
 10
286.455078125
 20
204.0277557373047
 11
286.6167907714844
 21
204.3303070068359
  0
LINE
  5
1E6
100
AcDbEntity
  8
0
  6
ByLayer
 62
  256
370
   -1
100
AcDbLine
 10
286.6167907714844
 20
204.3303070068359
 11
286.7163696289062
 21
204.6585845947266
  0
LINE
  5
1E7
100
AcDbEntity
  8
0
  6
ByLayer
 62
  256
370
   -1
100
AcDbLine
 10
286.7163696289062
 20
204.6585845947266
 11
286.75
 21
205
  0
LINE
  5
1E8
100
AcDbEntity
  8
0
  6
ByLayer
 62
  256
370
   -1
100
AcDbLine
 10
286.75
 20
205
 11
286.7163696289062
 21
205.3414154052734
  0
LINE
  5
1E9
100
AcDbEntity
  8
0
  6
ByLayer
 62
  256
370
   -1
100
AcDbLine
 10
286.7163696289062
 20
205.3414154052734
 11
286.6167907714844
 21
205.6696929931641
  0
LINE
  5
1EA
100
AcDbEntity
  8
0
  6
ByLayer
 62
  256
370
   -1
100
AcDbLine
 10
286.6167907714844
 20
205.6696929931641
 11
286.455078125
 21
205.9722442626953
  0
LINE
  5
1EB
100
AcDbEntity
  8
0
  6
ByLayer
 62
  256
370
   -1
100
AcDbLine
 10
286.455078125
 20
205.9722442626953
 11
286.2374267578125
 21
206.2374420166016
  0
LINE
  5
1EC
100
AcDbEntity
  8
0
  6
ByLayer
 62
  256
370
   -1
100
AcDbLine
 10
286.2374267578125
 20
206.2374420166016
 11
285.9722595214844
 21
206.455078125
  0
LINE
  5
1ED
100
AcDbEntity
  8
0
  6
ByLayer
 62
  256
370
   -1
100
AcDbLine
 10
285.9722595214844
 20
206.455078125
 11
285.6697082519531
 21
206.6167907714844
  0
LINE
  5
1EE
100
AcDbEntity
  8
0
  6
ByLayer
 62
  256
370
   -1
100
AcDbLine
 10
285.6697082519531
 20
206.6167907714844
 11
285.3414001464844
 21
206.7163696289062
  0
LINE
  5
1EF
100
AcDbEntity
  8
0
  6
ByLayer
 62
  256
370
   -1
100
AcDbLine
 10
285
 20
206.75
 11
285.3414001464844
 21
206.7163696289062
  0
LINE
  5
1F0
100
AcDbEntity
  8
0
  6
ByLayer
 62
  256
370
   -1
100
AcDbLine
 10
285
 20
6.75
 11
284.6585998535156
 21
6.716374397277832
  0
LINE
  5
1F1
100
AcDbEntity
  8
0
  6
ByLayer
 62
  256
370
   -1
100
AcDbLine
 10
284.6585998535156
 20
6.716374397277832
 11
284.3302917480469
 21
6.616788864135742
  0
LINE
  5
1F2
100
AcDbEntity
  8
0
  6
ByLayer
 62
  256
370
   -1
100
AcDbLine
 10
284.3302917480469
 20
6.616788864135742
 11
284.0277404785156
 21
6.455071926116943
  0
LINE
  5
1F3
100
AcDbEntity
  8
0
  6
ByLayer
 62
  256
370
   -1
100
AcDbLine
 10
284.0277404785156
 20
6.455071926116943
 11
283.7625732421875
 21
6.237436771392822
  0
LINE
  5
1F4
100
AcDbEntity
  8
0
  6
ByLayer
 62
  256
370
   -1
100
AcDbLine
 10
283.7625732421875
 20
6.237436771392822
 11
283.544921875
 21
5.972248077392578
  0
LINE
  5
1F5
100
AcDbEntity
  8
0
  6
ByLayer
 62
  256
370
   -1
100
AcDbLine
 10
283.544921875
 20
5.972248077392578
 11
283.3832092285156
 21
5.669695854187012
  0
LINE
  5
1F6
100
AcDbEntity
  8
0
  6
ByLayer
 62
  256
370
   -1
100
AcDbLine
 10
283.3832092285156
 20
5.669695854187012
 11
283.2836303710938
 21
5.341408252716064
  0
LINE
  5
1F7
100
AcDbEntity
  8
0
  6
ByLayer
 62
  256
370
   -1
100
AcDbLine
 10
283.2836303710938
 20
5.341408252716064
 11
283.25
 21
5
  0
LINE
  5
1F8
100
AcDbEntity
  8
0
  6
ByLayer
 62
  256
370
   -1
100
AcDbLine
 10
283.25
 20
5
 11
283.2836303710938
 21
4.658591747283936
  0
LINE
  5
1F9
100
AcDbEntity
  8
0
  6
ByLayer
 62
  256
370
   -1
100
AcDbLine
 10
283.2836303710938
 20
4.658591747283936
 11
283.3832092285156
 21
4.330304145812988
  0
LINE
  5
1FA
100
AcDbEntity
  8
0
  6
ByLayer
 62
  256
370
   -1
100
AcDbLine
 10
283.3832092285156
 20
4.330304145812988
 11
283.544921875
 21
4.027751922607422
  0
LINE
  5
1FB
100
AcDbEntity
  8
0
  6
ByLayer
 62
  256
370
   -1
100
AcDbLine
 10
283.544921875
 20
4.027751922607422
 11
283.7625732421875
 21
3.762563228607178
  0
LINE
  5
1FC
100
AcDbEntity
  8
0
  6
ByLayer
 62
  256
370
   -1
100
AcDbLine
 10
283.7625732421875
 20
3.762563228607178
 11
284.0277404785156
 21
3.544928073883057
  0
LINE
  5
1FD
100
AcDbEntity
  8
0
  6
ByLayer
 62
  256
370
   -1
100
AcDbLine
 10
284.0277404785156
 20
3.544928073883057
 11
284.3302917480469
 21
3.383210897445679
  0
LINE
  5
1FE
100
AcDbEntity
  8
0
  6
ByLayer
 62
  256
370
   -1
100
AcDbLine
 10
284.3302917480469
 20
3.383210897445679
 11
284.6585998535156
 21
3.283625841140747
  0
LINE
  5
1FF
100
AcDbEntity
  8
0
  6
ByLayer
 62
  256
370
   -1
100
AcDbLine
 10
284.6585998535156
 20
3.283625841140747
 11
285
 21
3.25
  0
LINE
  5
200
100
AcDbEntity
  8
0
  6
ByLayer
 62
  256
370
   -1
100
AcDbLine
 10
285
 20
3.25
 11
285.3414001464844
 21
3.283625841140747
  0
LINE
  5
201
100
AcDbEntity
  8
0
  6
ByLayer
 62
  256
370
   -1
100
AcDbLine
 10
285.3414001464844
 20
3.283625841140747
 11
285.6697082519531
 21
3.383210897445679
  0
LINE
  5
202
100
AcDbEntity
  8
0
  6
ByLayer
 62
  256
370
   -1
100
AcDbLine
 10
285.6697082519531
 20
3.383210897445679
 11
285.9722595214844
 21
3.544928073883057
  0
LINE
  5
203
100
AcDbEntity
  8
0
  6
ByLayer
 62
  256
370
   -1
100
AcDbLine
 10
285.9722595214844
 20
3.544928073883057
 11
286.2374267578125
 21
3.762563228607178
  0
LINE
  5
204
100
AcDbEntity
  8
0
  6
ByLayer
 62
  256
370
   -1
100
AcDbLine
 10
286.2374267578125
 20
3.762563228607178
 11
286.455078125
 21
4.027751922607422
  0
LINE
  5
205
100
AcDbEntity
  8
0
  6
ByLayer
 62
  256
370
   -1
100
AcDbLine
 10
286.455078125
 20
4.027751922607422
 11
286.6167907714844
 21
4.330304145812988
  0
LINE
  5
206
100
AcDbEntity
  8
0
  6
ByLayer
 62
  256
370
   -1
100
AcDbLine
 10
286.6167907714844
 20
4.330304145812988
 11
286.7163696289062
 21
4.658591747283936
  0
LINE
  5
207
100
AcDbEntity
  8
0
  6
ByLayer
 62
  256
370
   -1
100
AcDbLine
 10
286.7163696289062
 20
4.658591747283936
 11
286.75
 21
5
  0
LINE
  5
208
100
AcDbEntity
  8
0
  6
ByLayer
 62
  256
370
   -1
100
AcDbLine
 10
286.75
 20
5
 11
286.7163696289062
 21
5.341408252716064
  0
LINE
  5
209
100
AcDbEntity
  8
0
  6
ByLayer
 62
  256
370
   -1
100
AcDbLine
 10
286.7163696289062
 20
5.341408252716064
 11
286.6167907714844
 21
5.669695854187012
  0
LINE
  5
20A
100
AcDbEntity
  8
0
  6
ByLayer
 62
  256
370
   -1
100
AcDbLine
 10
286.6167907714844
 20
5.669695854187012
 11
286.455078125
 21
5.972248077392578
  0
LINE
  5
20B
100
AcDbEntity
  8
0
  6
ByLayer
 62
  256
370
   -1
100
AcDbLine
 10
286.455078125
 20
5.972248077392578
 11
286.2374267578125
 21
6.237436771392822
  0
LINE
  5
20C
100
AcDbEntity
  8
0
  6
ByLayer
 62
  256
370
   -1
100
AcDbLine
 10
286.2374267578125
 20
6.237436771392822
 11
285.9722595214844
 21
6.455071926116943
  0
LINE
  5
20D
100
AcDbEntity
  8
0
  6
ByLayer
 62
  256
370
   -1
100
AcDbLine
 10
285.9722595214844
 20
6.455071926116943
 11
285.6697082519531
 21
6.616788864135742
  0
LINE
  5
20E
100
AcDbEntity
  8
0
  6
ByLayer
 62
  256
370
   -1
100
AcDbLine
 10
285.6697082519531
 20
6.616788864135742
 11
285.3414001464844
 21
6.716374397277832
  0
LINE
  5
20F
100
AcDbEntity
  8
0
  6
ByLayer
 62
  256
370
   -1
100
AcDbLine
 10
285
 20
6.75
 11
285.3414001464844
 21
6.716374397277832
  0
LINE
  5
210
100
AcDbEntity
  8
0
  6
ByLayer
 62
  256
370
   -1
100
AcDbLine
 10
254.641357421875
 20
141.8082427978516
 11
256.0557556152344
 21
141.0983276367188
  0
LINE
  5
211
100
AcDbEntity
  8
0
  6
ByLayer
 62
  256
370
   -1
100
AcDbLine
 10
57.62564086914062
 20
125.3743743896484
 11
59.34668731689453
 21
126.8836822509766
  0
LINE
  5
212
100
AcDbEntity
  8
0
  6
ByLayer
 62
  256
370
   -1
100
AcDbLine
 10
80.65333557128906
 20
126.8836822509766
 11
82.37437438964844
 21
125.3743667602539
  0
LINE
  5
213
100
AcDbEntity
  8
0
  6
ByLayer
 62
  256
370
   -1
100
AcDbLine
 10
83.88368988037109
 20
123.6533203125
 11
82.37437438964844
 21
125.3743667602539
  0
LINE
  5
214
100
AcDbEntity
  8
0
  6
ByLayer
 62
  256
370
   -1
100
AcDbLine
 10
85.15545654296875
 20
121.75
 11
83.88368988037109
 21
123.6533203125
  0
LINE
  5
215
100
AcDbEntity
  8
0
  6
ByLayer
 62
  256
370
   -1
100
AcDbLine
 10
86.16790008544922
 20
119.6969604492188
 11
85.15545654296875
 21
121.75
  0
LINE
  5
216
100
AcDbEntity
  8
0
  6
ByLayer
 62
  256
370
   -1
100
AcDbLine
 10
86.16790008544922
 20
119.6969604492188
 11
86.90370941162109
 21
117.5293273925781
  0
LINE
  5
217
100
AcDbEntity
  8
0
  6
ByLayer
 62
  256
370
   -1
100
AcDbLine
 10
87.35029602050781
 20
115.2842102050781
 11
86.90370941162109
 21
117.5293273925781
  0
LINE
  5
218
100
AcDbEntity
  8
0
  6
ByLayer
 62
  256
370
   -1
100
AcDbLine
 10
87.50000762939453
 20
113
 11
87.35029602050781
 21
115.2842102050781
  0
LINE
  5
219
100
AcDbEntity
  8
0
  6
ByLayer
 62
  256
370
   -1
100
AcDbLine
 10
87.50000762939453
 20
113
 11
87.35029602050781
 21
110.7157897949219
  0
LINE
  5
21A
100
AcDbEntity
  8
0
  6
ByLayer
 62
  256
370
   -1
100
AcDbLine
 10
86.90370941162109
 20
108.4706649780273
 11
87.35029602050781
 21
110.7157897949219
  0
LINE
  5
21B
100
AcDbEntity
  8
0
  6
ByLayer
 62
  256
370
   -1
100
AcDbLine
 10
86.16790008544922
 20
106.3030395507812
 11
86.90370941162109
 21
108.4706649780273
  0
LINE
  5
21C
100
AcDbEntity
  8
0
  6
ByLayer
 62
  256
370
   -1
100
AcDbLine
 10
85.15544891357422
 20
104.25
 11
86.16790008544922
 21
106.3030395507812
  0
LINE
  5
21D
100
AcDbEntity
  8
0
  6
ByLayer
 62
  256
370
   -1
100
AcDbLine
 10
85.15544891357422
 20
104.25
 11
83.88368988037109
 21
102.3466720581055
  0
LINE
  5
21E
100
AcDbEntity
  8
0
  6
ByLayer
 62
  256
370
   -1
100
AcDbLine
 10
82.37437438964844
 20
100.6256256103516
 11
83.88368988037109
 21
102.3466720581055
  0
LINE
  5
21F
100
AcDbEntity
  8
0
  6
ByLayer
 62
  256
370
   -1
100
AcDbLine
 10
82.37437438964844
 20
100.6256256103516
 11
80.65332794189453
 21
99.11631774902344
  0
LINE
  5
220
100
AcDbEntity
  8
0
  6
ByLayer
 62
  256
370
   -1
100
AcDbLine
 10
78.75000762939453
 20
97.84455108642578
 11
80.65332794189453
 21
99.11631774902344
  0
LINE
  5
221
100
AcDbEntity
  8
0
  6
ByLayer
 62
  256
370
   -1
100
AcDbLine
 10
78.75000762939453
 20
97.84455108642578
 11
76.69696807861328
 21
96.83210754394531
  0
LINE
  5
222
100
AcDbEntity
  8
0
  6
ByLayer
 62
  256
370
   -1
100
AcDbLine
 10
76.69696807861328
 20
96.83210754394531
 11
74.52933502197266
 21
96.09629821777344
  0
LINE
  5
223
100
AcDbEntity
  8
0
  6
ByLayer
 62
  256
370
   -1
100
AcDbLine
 10
72.28421020507812
 20
95.64971923828125
 11
74.52933502197266
 21
96.09629821777344
  0
LINE
  5
224
100
AcDbEntity
  8
0
  6
ByLayer
 62
  256
370
   -1
100
AcDbLine
 10
72.28421020507812
 20
95.64971923828125
 11
70.00000762939453
 21
95.5
  0
LINE
  5
225
100
AcDbEntity
  8
0
  6
ByLayer
 62
  256
370
   -1
100
AcDbLine
 10
67.71579742431641
 20
95.64971923828125
 11
70.00000762939453
 21
95.5
  0
LINE
  5
226
100
AcDbEntity
  8
0
  6
ByLayer
 62
  256
370
   -1
100
AcDbLine
 10
67.71579742431641
 20
95.64971923828125
 11
65.47067260742188
 21
96.09629821777344
  0
LINE
  5
227
100
AcDbEntity
  8
0
  6
ByLayer
 62
  256
370
   -1
100
AcDbLine
 10
63.30304718017578
 20
96.83210754394531
 11
65.47067260742188
 21
96.09629821777344
  0
LINE
  5
228
100
AcDbEntity
  8
0
  6
ByLayer
 62
  256
370
   -1
100
AcDbLine
 10
63.30304718017578
 20
96.83210754394531
 11
61.25000762939453
 21
97.84455871582031
  0
LINE
  5
229
100
AcDbEntity
  8
0
  6
ByLayer
 62
  256
370
   -1
100
AcDbLine
 10
59.3466796875
 20
99.11631774902344
 11
61.25000762939453
 21
97.84455871582031
  0
LINE
  5
22A
100
AcDbEntity
  8
0
  6
ByLayer
 62
  256
370
   -1
100
AcDbLine
 10
59.3466796875
 20
99.11631774902344
 11
57.62564086914062
 21
100.6256332397461
  0
LINE
  5
22B
100
AcDbEntity
  8
0
  6
ByLayer
 62
  256
370
   -1
100
AcDbLine
 10
56.11632537841797
 20
102.3466796875
 11
57.62564086914062
 21
100.6256332397461
  0
LINE
  5
22C
100
AcDbEntity
  8
0
  6
ByLayer
 62
  256
370
   -1
100
AcDbLine
 10
56.11632537841797
 20
102.3466796875
 11
54.84455871582031
 21
104.25
  0
LINE
  5
22D
100
AcDbEntity
  8
0
  6
ByLayer
 62
  256
370
   -1
100
AcDbLine
 10
53.83211517333984
 20
106.3030395507812
 11
54.84455871582031
 21
104.25
  0
LINE
  5
22E
100
AcDbEntity
  8
0
  6
ByLayer
 62
  256
370
   -1
100
AcDbLine
 10
53.83211517333984
 20
106.3030395507812
 11
53.09630584716797
 21
108.4706726074219
  0
LINE
  5
22F
100
AcDbEntity
  8
0
  6
ByLayer
 62
  256
370
   -1
100
AcDbLine
 10
52.64971923828125
 20
110.7157974243164
 11
53.09630584716797
 21
108.4706726074219
  0
LINE
  5
230
100
AcDbEntity
  8
0
  6
ByLayer
 62
  256
370
   -1
100
AcDbLine
 10
52.50000762939453
 20
113
 11
52.64971923828125
 21
110.7157974243164
  0
LINE
  5
231
100
AcDbEntity
  8
0
  6
ByLayer
 62
  256
370
   -1
100
AcDbLine
 10
52.50000762939453
 20
113
 11
52.64971923828125
 21
115.2842102050781
  0
LINE
  5
232
100
AcDbEntity
  8
0
  6
ByLayer
 62
  256
370
   -1
100
AcDbLine
 10
52.64971923828125
 20
115.2842102050781
 11
53.09630584716797
 21
117.5293350219727
  0
LINE
  5
233
100
AcDbEntity
  8
0
  6
ByLayer
 62
  256
370
   -1
100
AcDbLine
 10
53.09630584716797
 20
117.5293350219727
 11
53.83211517333984
 21
119.6969604492188
  0
LINE
  5
234
100
AcDbEntity
  8
0
  6
ByLayer
 62
  256
370
   -1
100
AcDbLine
 10
53.83211517333984
 20
119.6969604492188
 11
54.84456634521484
 21
121.75
  0
LINE
  5
235
100
AcDbEntity
  8
0
  6
ByLayer
 62
  256
370
   -1
100
AcDbLine
 10
54.84456634521484
 20
121.75
 11
56.11632537841797
 21
123.6533279418945
  0
LINE
  5
236
100
AcDbEntity
  8
0
  6
ByLayer
 62
  256
370
   -1
100
AcDbLine
 10
57.62564086914062
 20
125.3743743896484
 11
56.11632537841797
 21
123.6533279418945
  0
LINE
  5
237
100
AcDbEntity
  8
0
  6
ByLayer
 62
  256
370
   -1
100
AcDbLine
 10
80.65333557128906
 20
126.8836822509766
 11
78.75000762939453
 21
128.1554412841797
  0
LINE
  5
238
100
AcDbEntity
  8
0
  6
ByLayer
 62
  256
370
   -1
100
AcDbLine
 10
59.34668731689453
 20
126.8836822509766
 11
61.25000762939453
 21
128.1554412841797
  0
LINE
  5
239
100
AcDbEntity
  8
0
  6
ByLayer
 62
  256
370
   -1
100
AcDbLine
 10
61.25000762939453
 20
128.1554412841797
 11
63.30304718017578
 21
129.1678924560547
  0
LINE
  5
23A
100
AcDbEntity
  8
0
  6
ByLayer
 62
  256
370
   -1
100
AcDbLine
 10
65.47068023681641
 20
129.9037017822266
 11
63.30304718017578
 21
129.1678924560547
  0
LINE
  5
23B
100
AcDbEntity
  8
0
  6
ByLayer
 62
  256
370
   -1
100
AcDbLine
 10
67.71580505371094
 20
130.3502807617188
 11
65.47068023681641
 21
129.9037017822266
  0
LINE
  5
23C
100
AcDbEntity
  8
0
  6
ByLayer
 62
  256
370
   -1
100
AcDbLine
 10
67.71580505371094
 20
130.3502807617188
 11
70.00000762939453
 21
130.5
  0
LINE
  5
23D
100
AcDbEntity
  8
0
  6
ByLayer
 62
  256
370
   -1
100
AcDbLine
 10
72.28421783447266
 20
130.3502807617188
 11
70.00000762939453
 21
130.5
  0
LINE
  5
23E
100
AcDbEntity
  8
0
  6
ByLayer
 62
  256
370
   -1
100
AcDbLine
 10
72.28421783447266
 20
130.3502807617188
 11
74.52934265136719
 21
129.9037017822266
  0
LINE
  5
23F
100
AcDbEntity
  8
0
  6
ByLayer
 62
  256
370
   -1
100
AcDbLine
 10
76.69696807861328
 20
129.1678924560547
 11
74.52934265136719
 21
129.9037017822266
  0
LINE
  5
240
100
AcDbEntity
  8
0
  6
ByLayer
 62
  256
370
   -1
100
AcDbLine
 10
76.69696807861328
 20
129.1678924560547
 11
78.75000762939453
 21
128.1554412841797
  0
LINE
  5
241
100
AcDbEntity
  8
0
  6
ByLayer
 62
  256
370
   -1
100
AcDbLine
 10
5
 20
6.75
 11
4.658591747283936
 21
6.716374397277832
  0
LINE
  5
242
100
AcDbEntity
  8
0
  6
ByLayer
 62
  256
370
   -1
100
AcDbLine
 10
4.658591747283936
 20
6.716374397277832
 11
4.330304145812988
 21
6.616788864135742
  0
LINE
  5
243
100
AcDbEntity
  8
0
  6
ByLayer
 62
  256
370
   -1
100
AcDbLine
 10
4.330304145812988
 20
6.616788864135742
 11
4.027751922607422
 21
6.455071926116943
  0
LINE
  5
244
100
AcDbEntity
  8
0
  6
ByLayer
 62
  256
370
   -1
100
AcDbLine
 10
4.027751922607422
 20
6.455071926116943
 11
3.762563228607178
 21
6.237436771392822
  0
LINE
  5
245
100
AcDbEntity
  8
0
  6
ByLayer
 62
  256
370
   -1
100
AcDbLine
 10
3.762563228607178
 20
6.237436771392822
 11
3.544928073883057
 21
5.972248077392578
  0
LINE
  5
246
100
AcDbEntity
  8
0
  6
ByLayer
 62
  256
370
   -1
100
AcDbLine
 10
3.544928073883057
 20
5.972248077392578
 11
3.383210897445679
 21
5.669695854187012
  0
LINE
  5
247
100
AcDbEntity
  8
0
  6
ByLayer
 62
  256
370
   -1
100
AcDbLine
 10
3.383210897445679
 20
5.669695854187012
 11
3.283625841140747
 21
5.341408252716064
  0
LINE
  5
248
100
AcDbEntity
  8
0
  6
ByLayer
 62
  256
370
   -1
100
AcDbLine
 10
3.283625841140747
 20
5.341408252716064
 11
3.25
 21
5
  0
LINE
  5
249
100
AcDbEntity
  8
0
  6
ByLayer
 62
  256
370
   -1
100
AcDbLine
 10
3.25
 20
5
 11
3.283625841140747
 21
4.658591747283936
  0
LINE
  5
24A
100
AcDbEntity
  8
0
  6
ByLayer
 62
  256
370
   -1
100
AcDbLine
 10
3.283625841140747
 20
4.658591747283936
 11
3.383210897445679
 21
4.330304145812988
  0
LINE
  5
24B
100
AcDbEntity
  8
0
  6
ByLayer
 62
  256
370
   -1
100
AcDbLine
 10
3.383210897445679
 20
4.330304145812988
 11
3.544928073883057
 21
4.027751922607422
  0
LINE
  5
24C
100
AcDbEntity
  8
0
  6
ByLayer
 62
  256
370
   -1
100
AcDbLine
 10
3.544928073883057
 20
4.027751922607422
 11
3.762563228607178
 21
3.762563228607178
  0
LINE
  5
24D
100
AcDbEntity
  8
0
  6
ByLayer
 62
  256
370
   -1
100
AcDbLine
 10
3.762563228607178
 20
3.762563228607178
 11
4.027751922607422
 21
3.544928073883057
  0
LINE
  5
24E
100
AcDbEntity
  8
0
  6
ByLayer
 62
  256
370
   -1
100
AcDbLine
 10
4.027751922607422
 20
3.544928073883057
 11
4.330304145812988
 21
3.383210897445679
  0
LINE
  5
24F
100
AcDbEntity
  8
0
  6
ByLayer
 62
  256
370
   -1
100
AcDbLine
 10
4.330304145812988
 20
3.383210897445679
 11
4.658591747283936
 21
3.283625841140747
  0
LINE
  5
250
100
AcDbEntity
  8
0
  6
ByLayer
 62
  256
370
   -1
100
AcDbLine
 10
4.658591747283936
 20
3.283625841140747
 11
5
 21
3.25
  0
LINE
  5
251
100
AcDbEntity
  8
0
  6
ByLayer
 62
  256
370
   -1
100
AcDbLine
 10
5
 20
3.25
 11
5.341408252716064
 21
3.283625841140747
  0
LINE
  5
252
100
AcDbEntity
  8
0
  6
ByLayer
 62
  256
370
   -1
100
AcDbLine
 10
5.341408252716064
 20
3.283625841140747
 11
5.669695854187012
 21
3.383210897445679
  0
LINE
  5
253
100
AcDbEntity
  8
0
  6
ByLayer
 62
  256
370
   -1
100
AcDbLine
 10
5.669695854187012
 20
3.383210897445679
 11
5.972248077392578
 21
3.544928073883057
  0
LINE
  5
254
100
AcDbEntity
  8
0
  6
ByLayer
 62
  256
370
   -1
100
AcDbLine
 10
5.972248077392578
 20
3.544928073883057
 11
6.237436771392822
 21
3.762563228607178
  0
LINE
  5
255
100
AcDbEntity
  8
0
  6
ByLayer
 62
  256
370
   -1
100
AcDbLine
 10
6.237436771392822
 20
3.762563228607178
 11
6.455071926116943
 21
4.027751922607422
  0
LINE
  5
256
100
AcDbEntity
  8
0
  6
ByLayer
 62
  256
370
   -1
100
AcDbLine
 10
6.455071926116943
 20
4.027751922607422
 11
6.616788864135742
 21
4.330304145812988
  0
LINE
  5
257
100
AcDbEntity
  8
0
  6
ByLayer
 62
  256
370
   -1
100
AcDbLine
 10
6.616788864135742
 20
4.330304145812988
 11
6.716374397277832
 21
4.658591747283936
  0
LINE
  5
258
100
AcDbEntity
  8
0
  6
ByLayer
 62
  256
370
   -1
100
AcDbLine
 10
6.716374397277832
 20
4.658591747283936
 11
6.75
 21
5
  0
LINE
  5
259
100
AcDbEntity
  8
0
  6
ByLayer
 62
  256
370
   -1
100
AcDbLine
 10
6.75
 20
5
 11
6.716374397277832
 21
5.341408252716064
  0
LINE
  5
25A
100
AcDbEntity
  8
0
  6
ByLayer
 62
  256
370
   -1
100
AcDbLine
 10
6.716374397277832
 20
5.341408252716064
 11
6.616788864135742
 21
5.669695854187012
  0
LINE
  5
25B
100
AcDbEntity
  8
0
  6
ByLayer
 62
  256
370
   -1
100
AcDbLine
 10
6.616788864135742
 20
5.669695854187012
 11
6.455071926116943
 21
5.972248077392578
  0
LINE
  5
25C
100
AcDbEntity
  8
0
  6
ByLayer
 62
  256
370
   -1
100
AcDbLine
 10
6.455071926116943
 20
5.972248077392578
 11
6.237436771392822
 21
6.237436771392822
  0
LINE
  5
25D
100
AcDbEntity
  8
0
  6
ByLayer
 62
  256
370
   -1
100
AcDbLine
 10
6.237436771392822
 20
6.237436771392822
 11
5.972248077392578
 21
6.455071926116943
  0
LINE
  5
25E
100
AcDbEntity
  8
0
  6
ByLayer
 62
  256
370
   -1
100
AcDbLine
 10
5.972248077392578
 20
6.455071926116943
 11
5.669695854187012
 21
6.616788864135742
  0
LINE
  5
25F
100
AcDbEntity
  8
0
  6
ByLayer
 62
  256
370
   -1
100
AcDbLine
 10
5.669695854187012
 20
6.616788864135742
 11
5.341408252716064
 21
6.716374397277832
  0
LINE
  5
260
100
AcDbEntity
  8
0
  6
ByLayer
 62
  256
370
   -1
100
AcDbLine
 10
5
 20
6.75
 11
5.341408252716064
 21
6.716374397277832
  0
LINE
  5
261
100
AcDbEntity
  8
0
  6
ByLayer
 62
  256
370
   -1
100
AcDbLine
 10
5
 20
206.75
 11
4.658591747283936
 21
206.7163696289062
  0
LINE
  5
262
100
AcDbEntity
  8
0
  6
ByLayer
 62
  256
370
   -1
100
AcDbLine
 10
4.658591747283936
 20
206.7163696289062
 11
4.330304145812988
 21
206.6167907714844
  0
LINE
  5
263
100
AcDbEntity
  8
0
  6
ByLayer
 62
  256
370
   -1
100
AcDbLine
 10
4.330304145812988
 20
206.6167907714844
 11
4.027751922607422
 21
206.455078125
  0
LINE
  5
264
100
AcDbEntity
  8
0
  6
ByLayer
 62
  256
370
   -1
100
AcDbLine
 10
4.027751922607422
 20
206.455078125
 11
3.762563228607178
 21
206.2374420166016
  0
LINE
  5
265
100
AcDbEntity
  8
0
  6
ByLayer
 62
  256
370
   -1
100
AcDbLine
 10
3.762563228607178
 20
206.2374420166016
 11
3.544928073883057
 21
205.9722442626953
  0
LINE
  5
266
100
AcDbEntity
  8
0
  6
ByLayer
 62
  256
370
   -1
100
AcDbLine
 10
3.544928073883057
 20
205.9722442626953
 11
3.383210897445679
 21
205.6696929931641
  0
LINE
  5
267
100
AcDbEntity
  8
0
  6
ByLayer
 62
  256
370
   -1
100
AcDbLine
 10
3.383210897445679
 20
205.6696929931641
 11
3.283625841140747
 21
205.3414154052734
  0
LINE
  5
268
100
AcDbEntity
  8
0
  6
ByLayer
 62
  256
370
   -1
100
AcDbLine
 10
3.283625841140747
 20
205.3414154052734
 11
3.25
 21
205
  0
LINE
  5
269
100
AcDbEntity
  8
0
  6
ByLayer
 62
  256
370
   -1
100
AcDbLine
 10
3.25
 20
205
 11
3.283625841140747
 21
204.6585845947266
  0
LINE
  5
26A
100
AcDbEntity
  8
0
  6
ByLayer
 62
  256
370
   -1
100
AcDbLine
 10
3.283625841140747
 20
204.6585845947266
 11
3.383210897445679
 21
204.3303070068359
  0
LINE
  5
26B
100
AcDbEntity
  8
0
  6
ByLayer
 62
  256
370
   -1
100
AcDbLine
 10
3.383210897445679
 20
204.3303070068359
 11
3.544928073883057
 21
204.0277557373047
  0
LINE
  5
26C
100
AcDbEntity
  8
0
  6
ByLayer
 62
  256
370
   -1
100
AcDbLine
 10
3.544928073883057
 20
204.0277557373047
 11
3.762563228607178
 21
203.7625579833984
  0
LINE
  5
26D
100
AcDbEntity
  8
0
  6
ByLayer
 62
  256
370
   -1
100
AcDbLine
 10
3.762563228607178
 20
203.7625579833984
 11
4.027751922607422
 21
203.544921875
  0
LINE
  5
26E
100
AcDbEntity
  8
0
  6
ByLayer
 62
  256
370
   -1
100
AcDbLine
 10
4.027751922607422
 20
203.544921875
 11
4.330304145812988
 21
203.3832092285156
  0
LINE
  5
26F
100
AcDbEntity
  8
0
  6
ByLayer
 62
  256
370
   -1
100
AcDbLine
 10
4.330304145812988
 20
203.3832092285156
 11
4.658591747283936
 21
203.2836303710938
  0
LINE
  5
270
100
AcDbEntity
  8
0
  6
ByLayer
 62
  256
370
   -1
100
AcDbLine
 10
4.658591747283936
 20
203.2836303710938
 11
5
 21
203.25
  0
LINE
  5
271
100
AcDbEntity
  8
0
  6
ByLayer
 62
  256
370
   -1
100
AcDbLine
 10
5
 20
203.25
 11
5.341408252716064
 21
203.2836303710938
  0
LINE
  5
272
100
AcDbEntity
  8
0
  6
ByLayer
 62
  256
370
   -1
100
AcDbLine
 10
5.341408252716064
 20
203.2836303710938
 11
5.669695854187012
 21
203.3832092285156
  0
LINE
  5
273
100
AcDbEntity
  8
0
  6
ByLayer
 62
  256
370
   -1
100
AcDbLine
 10
5.669695854187012
 20
203.3832092285156
 11
5.972248077392578
 21
203.544921875
  0
LINE
  5
274
100
AcDbEntity
  8
0
  6
ByLayer
 62
  256
370
   -1
100
AcDbLine
 10
5.972248077392578
 20
203.544921875
 11
6.237436771392822
 21
203.7625579833984
  0
LINE
  5
275
100
AcDbEntity
  8
0
  6
ByLayer
 62
  256
370
   -1
100
AcDbLine
 10
6.237436771392822
 20
203.7625579833984
 11
6.455071926116943
 21
204.0277557373047
  0
LINE
  5
276
100
AcDbEntity
  8
0
  6
ByLayer
 62
  256
370
   -1
100
AcDbLine
 10
6.455071926116943
 20
204.0277557373047
 11
6.616788864135742
 21
204.3303070068359
  0
LINE
  5
277
100
AcDbEntity
  8
0
  6
ByLayer
 62
  256
370
   -1
100
AcDbLine
 10
6.616788864135742
 20
204.3303070068359
 11
6.716374397277832
 21
204.6585845947266
  0
LINE
  5
278
100
AcDbEntity
  8
0
  6
ByLayer
 62
  256
370
   -1
100
AcDbLine
 10
6.716374397277832
 20
204.6585845947266
 11
6.75
 21
205
  0
LINE
  5
279
100
AcDbEntity
  8
0
  6
ByLayer
 62
  256
370
   -1
100
AcDbLine
 10
6.75
 20
205
 11
6.716374397277832
 21
205.3414154052734
  0
LINE
  5
27A
100
AcDbEntity
  8
0
  6
ByLayer
 62
  256
370
   -1
100
AcDbLine
 10
6.716374397277832
 20
205.3414154052734
 11
6.616788864135742
 21
205.6696929931641
  0
LINE
  5
27B
100
AcDbEntity
  8
0
  6
ByLayer
 62
  256
370
   -1
100
AcDbLine
 10
6.616788864135742
 20
205.6696929931641
 11
6.455071926116943
 21
205.9722442626953
  0
LINE
  5
27C
100
AcDbEntity
  8
0
  6
ByLayer
 62
  256
370
   -1
100
AcDbLine
 10
6.455071926116943
 20
205.9722442626953
 11
6.237436771392822
 21
206.2374420166016
  0
LINE
  5
27D
100
AcDbEntity
  8
0
  6
ByLayer
 62
  256
370
   -1
100
AcDbLine
 10
6.237436771392822
 20
206.2374420166016
 11
5.972248077392578
 21
206.455078125
  0
LINE
  5
27E
100
AcDbEntity
  8
0
  6
ByLayer
 62
  256
370
   -1
100
AcDbLine
 10
5.972248077392578
 20
206.455078125
 11
5.669695854187012
 21
206.6167907714844
  0
LINE
  5
27F
100
AcDbEntity
  8
0
  6
ByLayer
 62
  256
370
   -1
100
AcDbLine
 10
5.669695854187012
 20
206.6167907714844
 11
5.341408252716064
 21
206.7163696289062
  0
LINE
  5
280
100
AcDbEntity
  8
0
  6
ByLayer
 62
  256
370
   -1
100
AcDbLine
 10
5
 20
206.75
 11
5.341408252716064
 21
206.7163696289062
  0
LINE
  5
281
100
AcDbEntity
  8
0
  6
ByLayer
 62
  256
370
   -1
100
AcDbLine
 10
290
 20
0
 11
0
 21
0
  0
LINE
  5
282
100
AcDbEntity
  8
0
  6
ByLayer
 62
  256
370
   -1
100
AcDbLine
 10
290
 20
0
 11
290
 21
210
  0
LINE
  5
283
100
AcDbEntity
  8
0
  6
ByLayer
 62
  256
370
   -1
100
AcDbLine
 10
0
 20
0
 11
0
 21
210
  0
LINE
  5
284
100
AcDbEntity
  8
0
  6
ByLayer
 62
  256
370
   -1
100
AcDbLine
 10
290
 20
210
 11
0
 21
210
  0
LINE
  5
285
100
AcDbEntity
  8
0
  6
ByLayer
 62
  256
370
   -1
100
AcDbLine
 10
165
 20
112.1486053466797
 11
166.6617126464844
 21
112.2604598999023
  0
ENDSEC
  0
SECTION
  2
OBJECTS
  0
DICTIONARY
  5
C
330
0
100
AcDbDictionary
281
    1
  3
ACAD_GROUP
350
D
  0
DICTIONARY
  5
D
330
C
100
AcDbDictionary
281
    1
  0
PLOTSETTINGS
  5
286
100
AcDbPlotSettings
  6
1x1
 40
0
 41
0
 42
0
 43
0
  0
ENDSEC
  0
EOF
