999
dxfrw 0.6.3
  0
SECTION
  2
HEADER
  9
$ACADVER
  1
AC1021
  9
$DWGCODEPAGE
  3
ANSI_1252
  9
$INSBASE
 10
0
 20
0
 30
0
  9
$EXTMIN
 10
0
 20
0
 30
0
  9
$EXTMAX
 10
280
 20
200
 30
0
  9
$LIMMIN
 10
0
 20
0
  9
$LIMMAX
 10
420
 20
297
  9
$ORTHOMODE
 70
    0
  9
$REGENMODE
 70
    1
  9
$FILLMODE
 70
    1
  9
$QTEXTMODE
 70
    0
  9
$MIRRTEXT
 70
    0
  9
$LTSCALE
 40
1
  9
$ATTMODE
 70
    0
  9
$TEXTSIZE
 40
2.5
  9
$TRACEWID
 40
15.68
  9
$TEXTSTYLE
  7
STANDARD
  9
$CLAYER
  8
0
  9
$CELTYPE
  6
BYLAYER
  9
$CECOLOR
 62
  256
  9
$CELTSCALE
 40
1
  9
$DISPSILH
 70
    0
  9
$DIMSCALE
 40
2.5
  9
$DIMASZ
 40
2.5
  9
$DIMEXO
 40
0.625
  9
$DIMDLI
 40
3.75
  9
$DIMRND
 40
0
  9
$DIMDLE
 40
0
  9
$DIMEXE
 40
1.25
  9
$DIMTP
 40
0
  9
$DIMTM
 40
0
  9
$DIMTXT
 40
2.5
  9
$DIMCEN
 40
2.5
  9
$DIMTSZ
 40
0
  9
$DIMTOL
 70
    0
  9
$DIMLIM
 70
    0
  9
$DIMTIH
 70
    0
  9
$DIMTOH
 70
    0
  9
$DIMSE1
 70
    0
  9
$DIMSE2
 70
    0
  9
$DIMTAD
 70
    1
  9
$DIMZIN
 70
    8
  9
$DIMBLK
  1

  9
$DIMASO
 70
    1
  9
$DIMSHO
 70
    1
  9
$DIMPOST
  1

  9
$DIMAPOST
  1

  9
$DIMALT
 70
    0
  9
$DIMALTD
 70
    3
  9
$DIMALTF
 40
0.03937
  9
$DIMLFAC
 40
1
  9
$DIMTOFL
 70
    1
  9
$DIMTVP
 40
0
  9
$DIMTIX
 70
    0
  9
$DIMSOXD
 70
    0
  9
$DIMSAH
 70
    0
  9
$DIMBLK1
  1

  9
$DIMBLK2
  1

  9
$DIMSTYLE
  2
Standard
  9
$DIMCLRD
 70
    0
  9
$DIMCLRE
 70
    0
  9
$DIMCLRT
 70
    0
  9
$DIMTFAC
 40
1
  9
$DIMGAP
 40
0.625
  9
$DIMJUST
 70
    0
  9
$DIMSD1
 70
    0
  9
$DIMSD2
 70
    0
  9
$DIMTOLJ
 70
    0
  9
$DIMTZIN
 70
    8
  9
$DIMALTZ
 70
    0
  9
$DIMALTTZ
 70
    0
  9
$DIMUPT
 70
    0
  9
$DIMDEC
 70
    2
  9
$DIMTDEC
 70
    2
  9
$DIMALTU
 70
    2
  9
$DIMALTTD
 70
    3
  9
$DIMTXSTY
  7
STANDARD
  9
$DIMAUNIT
 70
    0
  9
$DIMADEC
 70
    0
  9
$DIMALTRND
 40
0
  9
$DIMAZIN
 70
    0
  9
$DIMDSEP
 70
   44
  9
$DIMATFIT
 70
    3
  9
$DIMFRAC
 70
    0
  9
$DIMLDRBLK
  1
STANDARD
  9
$DIMLUNIT
 70
    2
  9
$DIMLWD
 70
   -2
  9
$DIMLWE
 70
   -2
  9
$DIMTMOVE
 70
    0
  9
$DIMFXL
 40
1
  9
$DIMFXLON
 70
    0
  9
$DIMJOGANG
 40
0.7854
  9
$DIMTFILL
 70
    0
  9
$DIMTFILLCLR
 70
    0
  9
$DIMARCSYM
 70
    0
  9
$DIMLTYPE
  6

  9
$DIMLTEX1
  6

  9
$DIMLTEX2
  6

  9
$LUNITS
 70
    2
  9
$LUPREC
 70
    4
  9
$SKETCHINC
 40
1
  9
$FILLETRAD
 40
0
  9
$AUNITS
 70
    0
  9
$AUPREC
 70
    2
  9
$MENU
  1
.
  9
$ELEVATION
 40
0
  9
$PELEVATION
 40
0
  9
$THICKNESS
 40
0
  9
$LIMCHECK
 70
    0
  9
$CHAMFERA
 40
0
  9
$CHAMFERB
 40
0
  9
$CHAMFERC
 40
0
  9
$CHAMFERD
 40
0
  9
$SKPOLY
 70
    0
  9
$USRTIMER
 70
    1
  9
$ANGBASE
 50
0
  9
$ANGDIR
 70
    0
  9
$PDMODE
 70
   34
  9
$PDSIZE
 40
0
  9
$PLINEWID
 40
0
  9
$SPLFRAME
 70
    0
  9
$SPLINETYPE
 70
    2
  9
$SPLINESEGS
 70
    8
  9
$HANDSEED
  5
20000
  9
$SURFTAB1
 70
    6
  9
$SURFTAB2
 70
    6
  9
$SURFTYPE
 70
    6
  9
$SURFU
 70
    6
  9
$SURFV
 70
    6
  9
$UCSBASE
  2

  9
$UCSNAME
  2

  9
$UCSORG
 10
0
 20
0
 30
0
  9
$UCSXDIR
 10
1
 20
0
 30
0
  9
$UCSYDIR
 10
0
 20
1
 30
0
  9
$UCSORTHOREF
  2

  9
$UCSORTHOVIEW
 70
    0
  9
$UCSORGTOP
 10
0
 20
0
 30
0
  9
$UCSORGBOTTOM
 10
0
 20
0
 30
0
  9
$UCSORGLEFT
 10
0
 20
0
 30
0
  9
$UCSORGRIGHT
 10
0
 20
0
 30
0
  9
$UCSORGFRONT
 10
0
 20
0
 30
0
  9
$UCSORGBACK
 10
0
 20
0
 30
0
  9
$PUCSBASE
  2

  9
$PUCSNAME
  2

  9
$PUCSORG
 10
0
 20
0
 30
0
  9
$PUCSXDIR
 10
1
 20
0
 30
0
  9
$PUCSYDIR
 10
0
 20
1
 30
0
  9
$PUCSORTHOREF
  2

  9
$PUCSORTHOVIEW
 70
    0
  9
$PUCSORGTOP
 10
0
 20
0
 30
0
  9
$PUCSORGBOTTOM
 10
0
 20
0
 30
0
  9
$PUCSORGLEFT
 10
0
 20
0
 30
0
  9
$PUCSORGRIGHT
 10
0
 20
0
 30
0
  9
$PUCSORGFRONT
 10
0
 20
0
 30
0
  9
$PUCSORGBACK
 10
0
 20
0
 30
0
  9
$USERI1
 70
    0
  9
$USERI2
 70
    0
  9
$USERI3
 70
    0
  9
$USERI4
 70
    0
  9
$USERI5
 70
    0
  9
$USERR1
 40
0
  9
$USERR2
 40
0
  9
$USERR3
 40
0
  9
$USERR4
 40
0
  9
$USERR5
 40
0
  9
$WORLDVIEW
 70
    1
  9
$SHADEDGE
 70
    3
  9
$SHADEDIF
 70
   70
  9
$TILEMODE
 70
    1
  9
$MAXACTVP
 70
   64
  9
$PINSBASE
 10
0
 20
0
 30
0
  9
$PLIMCHECK
 70
    0
  9
$PEXTMIN
 10
0
 20
0
 30
0
  9
$PEXTMAX
 10
0
 20
0
 30
0
  9
$GRIDMODE
 70
    1
  9
$SNAPSTYLE
 70
    0
  9
$PLIMMIN
 10
0
 20
0
  9
$PLIMMAX
 10
594
 20
420
  9
$UNITMODE
 70
    0
  9
$VISRETAIN
 70
    1
  9
$PLINEGEN
 70
    0
  9
$PSLTSCALE
 70
    1
  9
$TREEDEPTH
 70
 3020
  9
$CMLSTYLE
  2
Standard
  9
$CMLJUST
 70
    0
  9
$CMLSCALE
 40
20
  9
$PROXYGRAPHICS
 70
    1
  9
$MEASUREMENT
 70
    1
  9
$CELWEIGHT
370
   -1
  9
$ENDCAPS
280
    0
  9
$JOINSTYLE
280
    0
  9
$LWDISPLAY
290
    0
  9
$INSUNITS
 70
    4
  9
$HYPERLINKBASE
  1

  9
$STYLESHEET
  1

  9
$XEDIT
290
    1
  9
$CEPSNTYPE
380
    0
  9
$PSTYLEMODE
290
    1
  9
$EXTNAMES
290
    1
  9
$PSVPSCALE
 40
1
  9
$OLESTARTUP
290
    0
  9
$SORTENTS
280
  127
  9
$INDEXCTL
280
    0
  9
$HIDETEXT
280
    1
  9
$XCLIPFRAME
290
    0
  9
$HALOGAP
280
    0
  9
$OBSCOLOR
 70
  257
  9
$OBSLTYPE
280
    0
  9
$INTERSECTIONDISPLAY
280
    0
  9
$INTERSECTIONCOLOR
 70
  257
  9
$DIMASSOC
280
    1
  9
$PROJECTNAME
  1

  9
$CAMERADISPLAY
290
    0
  9
$LENSLENGTH
 40
50
  9
$CAMERAHEIGHT
 40
0
  9
$STEPSPERSEC
 40
2
  9
$STEPSIZE
 40
50
  9
$3DDWFPREC
 40
2
  9
$PSOLWIDTH
 40
5
  9
$PSOLHEIGHT
 40
80
  9
$LOFTANG1
 40
1.570796326794897
  9
$LOFTANG2
 40
1.570796326794897
  9
$LOFTMAG1
 40
0
  9
$LOFTMAG2
 40
0
  9
$LOFTPARAM
 70
    7
  9
$LOFTNORMALS
280
    1
  9
$LATITUDE
 40
1
  9
$LONGITUDE
 40
1
  9
$NORTHDIRECTION
 40
0
  9
$TIMEZONE
 70
-8000
  9
$LIGHTGLYPHDISPLAY
280
    1
  9
$TILEMODELIGHTSYNCH
280
    1
  9
$SOLIDHIST
280
    1
  9
$SHOWHIST
280
    1
  9
$DWFFRAME
280
    2
  9
$DGNFRAME
280
    0
  9
$REALWORLDSCALE
290
    1
  9
$INTERFERECOLOR
 62
    1
  9
$CSHADOW
280
    0
  9
$SHADOWPLANELOCATION
 40
0
  0
ENDSEC
  0
SECTION
  2
CLASSES
  0
ENDSEC
  0
SECTION
  2
TABLES
  0
TABLE
  2
VPORT
  5
8
330
0
100
AcDbSymbolTable
 70
    1
  0
VPORT
  5
31
330
2
100
AcDbSymbolTableRecord
100
AcDbViewportTableRecord
  2
*ACTIVE
 70
    0
 10
0
 20
0
 11
1
 21
1
 12
213.1889599301166
 22
124.6427501930055
 13
0
 23
0
 14
10
 24
10
 15
10
 25
10
 16
0
 26
0
 36
1
 17
0
 27
0
 37
0
 40
320.2820108959469
 41
1.975093399750934
 42
50
 43
0
 44
0
 50
0
 51
0
 71
    0
 72
  100
 73
    1
 74
    3
 75
    0
 76
    1
 77
    0
 78
    0
281
    0
 65
    1
110
0
120
0
130
0
111
1
121
0
131
0
112
0
122
1
132
0
 79
    0
146
0
348
10020
 60
    7
 61
    5
292
1
282
    1
141
0
142
0
 63
  250
421
3358443
  0
ENDTAB
  0
TABLE
  2
LTYPE
  5
5
330
0
100
AcDbSymbolTable
 70
    4
  0
LTYPE
  5
14
330
5
100
AcDbSymbolTableRecord
100
AcDbLinetypeTableRecord
  2
ByBlock
 70
    0
  3

 72
   65
 73
    0
 40
0
  0
LTYPE
  5
15
330
5
100
AcDbSymbolTableRecord
100
AcDbLinetypeTableRecord
  2
ByLayer
 70
    0
  3

 72
   65
 73
    0
 40
0
  0
LTYPE
  5
16
330
5
100
AcDbSymbolTableRecord
100
AcDbLinetypeTableRecord
  2
Continuous
 70
    0
  3
Solid line
 72
   65
 73
    0
 40
0
  0
LTYPE
  5
32
330
5
100
AcDbSymbolTableRecord
100
AcDbLinetypeTableRecord
  2
DOT
 70
    0
  3
Dot . . . . . . . . . . . . . . . . . . . . . .
 72
   65
 73
    2
 40
6.35
 49
0
 74
    0
 49
-6.35
 74
    0
  0
LTYPE
  5
33
330
5
100
AcDbSymbolTableRecord
100
AcDbLinetypeTableRecord
  2
DOTTINY
 70
    0
  3
Dot (.15x) .....................................
 72
   65
 73
    2
 40
0.9525
 49
0
 74
    0
 49
-0.9525
 74
    0
  0
LTYPE
  5
34
330
5
100
AcDbSymbolTableRecord
100
AcDbLinetypeTableRecord
  2
DOT2
 70
    0
  3
Dot (.5x) .....................................
 72
   65
 73
    2
 40
3.175
 49
0
 74
    0
 49
-3.175
 74
    0
  0
LTYPE
  5
35
330
5
100
AcDbSymbolTableRecord
100
AcDbLinetypeTableRecord
  2
DOTX2
 70
    0
  3
Dot (2x) .  .  .  .  .  .  .  .  .  .  .  .  .
 72
   65
 73
    2
 40
12.7
 49
0
 74
    0
 49
-12.7
 74
    0
  0
LTYPE
  5
36
330
5
100
AcDbSymbolTableRecord
100
AcDbLinetypeTableRecord
  2
DASHED
 70
    0
  3
Dashed _ _ _ _ _ _ _ _ _ _ _ _ _ _ _ _ _
 72
   65
 73
    2
 40
19.05
 49
12.7
 74
    0
 49
-6.35
 74
    0
  0
LTYPE
  5
37
330
5
100
AcDbSymbolTableRecord
100
AcDbLinetypeTableRecord
  2
DASHEDTINY
 70
    0
  3
Dashed (.15x) _ _ _ _ _ _ _ _ _ _ _ _ _ _ _ _ _
 72
   65
 73
    2
 40
2.8575
 49
1.905
 74
    0
 49
-0.9525
 74
    0
  0
LTYPE
  5
38
330
5
100
AcDbSymbolTableRecord
100
AcDbLinetypeTableRecord
  2
DASHED2
 70
    0
  3
Dashed (.5x) _ _ _ _ _ _ _ _ _ _ _ _ _ _ _ _ _
 72
   65
 73
    2
 40
9.524999999999999
 49
6.35
 74
    0
 49
-3.175
 74
    0
  0
LTYPE
  5
39
330
5
100
AcDbSymbolTableRecord
100
AcDbLinetypeTableRecord
  2
DASHEDX2
 70
    0
  3
Dashed (2x) ____  ____  ____  ____  ____  ___
 72
   65
 73
    2
 40
38.09999999999999
 49
25.4
 74
    0
 49
-12.7
 74
    0
  0
LTYPE
  5
3A
330
5
100
AcDbSymbolTableRecord
100
AcDbLinetypeTableRecord
  2
DASHDOT
 70
    0
  3
Dash dot __ . __ . __ . __ . __ . __ . __ . __
 72
   65
 73
    4
 40
25.4
 49
12.7
 74
    0
 49
-6.35
 74
    0
 49
0
 74
    0
 49
-6.35
 74
    0
  0
LTYPE
  5
3B
330
5
100
AcDbSymbolTableRecord
100
AcDbLinetypeTableRecord
  2
DASHDOTTINY
 70
    0
  3
Dash dot (.15x) _._._._._._._._._._._._._._._.
 72
   65
 73
    4
 40
3.81
 49
1.905
 74
    0
 49
-0.9525
 74
    0
 49
0
 74
    0
 49
-0.9525
 74
    0
  0
LTYPE
  5
3C
330
5
100
AcDbSymbolTableRecord
100
AcDbLinetypeTableRecord
  2
DASHDOT2
 70
    0
  3
Dash dot (.5x) _._._._._._._._._._._._._._._.
 72
   65
 73
    4
 40
12.7
 49
6.35
 74
    0
 49
-3.175
 74
    0
 49
0
 74
    0
 49
-3.175
 74
    0
  0
LTYPE
  5
3D
330
5
100
AcDbSymbolTableRecord
100
AcDbLinetypeTableRecord
  2
DASHDOTX2
 70
    0
  3
Dash dot (2x) ____  .  ____  .  ____  .  ___
 72
   65
 73
    4
 40
50.8
 49
25.4
 74
    0
 49
-12.7
 74
    0
 49
0
 74
    0
 49
-12.7
 74
    0
  0
LTYPE
  5
3E
330
5
100
AcDbSymbolTableRecord
100
AcDbLinetypeTableRecord
  2
DIVIDE
 70
    0
  3
Divide ____ . . ____ . . ____ . . ____ . . ____
 72
   65
 73
    6
 40
31.75
 49
12.7
 74
    0
 49
-6.35
 74
    0
 49
0
 74
    0
 49
-6.35
 74
    0
 49
0
 74
    0
 49
-6.35
 74
    0
  0
LTYPE
  5
3F
330
5
100
AcDbSymbolTableRecord
100
AcDbLinetypeTableRecord
  2
DIVIDETINY
 70
    0
  3
Divide (.15x) __..__..__..__..__..__..__..__.._
 72
   65
 73
    6
 40
4.7625
 49
1.905
 74
    0
 49
-0.9525
 74
    0
 49
0
 74
    0
 49
-0.9525
 74
    0
 49
0
 74
    0
 49
-0.9525
 74
    0
  0
LTYPE
  5
40
330
5
100
AcDbSymbolTableRecord
100
AcDbLinetypeTableRecord
  2
DIVIDE2
 70
    0
  3
Divide (.5x) __..__..__..__..__..__..__..__.._
 72
   65
 73
    6
 40
15.875
 49
6.35
 74
    0
 49
-3.175
 74
    0
 49
0
 74
    0
 49
-3.175
 74
    0
 49
0
 74
    0
 49
-3.175
 74
    0
  0
LTYPE
  5
41
330
5
100
AcDbSymbolTableRecord
100
AcDbLinetypeTableRecord
  2
DIVIDEX2
 70
    0
  3
Divide (2x) ________  .  .  ________  .  .  _
 72
   65
 73
    6
 40
63.5
 49
25.4
 74
    0
 49
-12.7
 74
    0
 49
0
 74
    0
 49
-12.7
 74
    0
 49
0
 74
    0
 49
-12.7
 74
    0
  0
LTYPE
  5
42
330
5
100
AcDbSymbolTableRecord
100
AcDbLinetypeTableRecord
  2
BORDER
 70
    0
  3
Border __ __ . __ __ . __ __ . __ __ . __ __ .
 72
   65
 73
    6
 40
44.45
 49
12.7
 74
    0
 49
-6.35
 74
    0
 49
12.7
 74
    0
 49
-6.35
 74
    0
 49
0
 74
    0
 49
-6.35
 74
    0
  0
LTYPE
  5
43
330
5
100
AcDbSymbolTableRecord
100
AcDbLinetypeTableRecord
  2
BORDERTINY
 70
    0
  3
Border (.15x) __.__.__.__.__.__.__.__.__.__.__.
 72
   65
 73
    6
 40
6.6675
 49
1.905
 74
    0
 49
-0.9525
 74
    0
 49
1.905
 74
    0
 49
-0.9525
 74
    0
 49
0
 74
    0
 49
-0.9525
 74
    0
  0
LTYPE
  5
44
330
5
100
AcDbSymbolTableRecord
100
AcDbLinetypeTableRecord
  2
BORDER2
 70
    0
  3
Border (.5x) __.__.__.__.__.__.__.__.__.__.__.
 72
   65
 73
    6
 40
22.225
 49
6.35
 74
    0
 49
-3.175
 74
    0
 49
6.35
 74
    0
 49
-3.175
 74
    0
 49
0
 74
    0
 49
-3.175
 74
    0
  0
LTYPE
  5
45
330
5
100
AcDbSymbolTableRecord
100
AcDbLinetypeTableRecord
  2
BORDERX2
 70
    0
  3
Border (2x) ____  ____  .  ____  ____  .  ___
 72
   65
 73
    6
 40
88.89999999999999
 49
25.4
 74
    0
 49
-12.7
 74
    0
 49
25.4
 74
    0
 49
-12.7
 74
    0
 49
0
 74
    0
 49
-12.7
 74
    0
  0
LTYPE
  5
46
330
5
100
AcDbSymbolTableRecord
100
AcDbLinetypeTableRecord
  2
CENTER
 70
    0
  3
Center ____ _ ____ _ ____ _ ____ _ ____ _ ____
 72
   65
 73
    4
 40
50.8
 49
31.75
 74
    0
 49
-6.35
 74
    0
 49
6.35
 74
    0
 49
-6.35
 74
    0
  0
LTYPE
  5
47
330
5
100
AcDbSymbolTableRecord
100
AcDbLinetypeTableRecord
  2
CENTERTINY
 70
    0
  3
Center (.15x) ___ _ ___ _ ___ _ ___ _ ___ _ ___
 72
   65
 73
    4
 40
7.62
 49
4.7625
 74
    0
 49
-0.9525
 74
    0
 49
0.9525
 74
    0
 49
-0.9525
 74
    0
  0
LTYPE
  5
48
330
5
100
AcDbSymbolTableRecord
100
AcDbLinetypeTableRecord
  2
CENTER2
 70
    0
  3
Center (.5x) ___ _ ___ _ ___ _ ___ _ ___ _ ___
 72
   65
 73
    4
 40
28.575
 49
19.05
 74
    0
 49
-3.175
 74
    0
 49
3.175
 74
    0
 49
-3.175
 74
    0
  0
LTYPE
  5
49
330
5
100
AcDbSymbolTableRecord
100
AcDbLinetypeTableRecord
  2
CENTERX2
 70
    0
  3
Center (2x) ________  __  ________  __  _____
 72
   65
 73
    4
 40
101.6
 49
63.5
 74
    0
 49
-12.7
 74
    0
 49
12.7
 74
    0
 49
-12.7
 74
    0
  0
ENDTAB
  0
TABLE
  2
LAYER
  5
2
330
0
100
AcDbSymbolTable
 70
    1
  0
LAYER
  5
10
330
2
100
AcDbSymbolTableRecord
100
AcDbLayerTableRecord
  2
0
 70
    0
 62
    7
  6
CONTINUOUS
370
    0
390
F
  0
LAYER
  5
4A
330
2
100
AcDbSymbolTableRecord
100
AcDbLayerTableRecord
  2
PYDXF
 70
    0
 62
    7
  6
CONTINUOUS
370
   -3
390
F
  0
ENDTAB
  0
TABLE
  2
STYLE
  5
3
330
0
100
AcDbSymbolTable
 70
    3
  0
STYLE
  5
4B
330
2
100
AcDbSymbolTableRecord
100
AcDbTextStyleTableRecord
  2
Standard
 70
    0
 40
0
 41
1
 50
0
 71
    0
 42
1
  3
txt
  4

  0
ENDTAB
  0
TABLE
  2
VIEW
  5
6
330
0
100
AcDbSymbolTable
 70
    0
  0
ENDTAB
  0
TABLE
  2
UCS
  5
7
330
0
100
AcDbSymbolTable
 70
    0
  0
ENDTAB
  0
TABLE
  2
APPID
  5
9
330
0
100
AcDbSymbolTable
 70
    1
  0
APPID
  5
12
330
9
100
AcDbSymbolTableRecord
100
AcDbRegAppTableRecord
  2
ACAD
 70
    0
  0
APPID
  5
4C
330
9
100
AcDbSymbolTableRecord
100
AcDbRegAppTableRecord
  2
LibreCad
 70
    0
  0
ENDTAB
  0
TABLE
  2
DIMSTYLE
  5
A
330
0
100
AcDbSymbolTable
 70
    1
100
AcDbDimStyleTable
 71
    1
  0
DIMSTYLE
105
4D
330
A
100
AcDbSymbolTableRecord
100
AcDbDimStyleTableRecord
  2
Standard
 70
    0
 40
1
 41
2.5
 42
0.625
 43
0.38
 44
1.25
 45
0
 46
0
 47
0
 48
0
 49
1
140
2.5
141
0.09
142
2.5
143
25.4
144
1
145
0
146
1
147
0.625
148
0
 71
    0
 72
    0
 73
    0
 74
    1
 75
    0
 76
    0
 77
    0
 78
    1
 79
    0
170
    0
171
    2
172
    0
173
    0
174
    0
175
    0
176
    0
177
    0
178
    0
179
    0
271
    2
272
    4
273
    2
274
    2
275
    0
276
    0
277
    2
278
    0
279
    0
280
    0
281
    0
282
    0
283
    1
284
    0
285
    0
286
    0
288
    0
289
    3
340
standard
341

371
   -2
372
   -2
  0
ENDTAB
  0
TABLE
  2
BLOCK_RECORD
  5
1
330
0
100
AcDbSymbolTable
 70
    2
  0
BLOCK_RECORD
  5
1F
330
1
100
AcDbSymbolTableRecord
100
AcDbBlockTableRecord
  2
*Model_Space
 70
    0
280
    1
281
    0
  0
BLOCK_RECORD
  5
1E
330
1
100
AcDbSymbolTableRecord
100
AcDbBlockTableRecord
  2
*Paper_Space
 70
    0
280
    1
281
    0
  0
ENDTAB
  0
ENDSEC
  0
SECTION
  2
BLOCKS
  0
BLOCK
  5
20
330
1F
100
AcDbEntity
  8
0
100
AcDbBlockBegin
  2
*Model_Space
 70
    0
 10
0
 20
0
 30
0
  3
*Model_Space
  1

  0
ENDBLK
  5
21
330
1F
100
AcDbEntity
  8
0
100
AcDbBlockEnd
  0
BLOCK
  5
1C
330
1B
100
AcDbEntity
  8
0
100
AcDbBlockBegin
  2
*Paper_Space
 70
    0
 10
0
 20
0
 30
0
  3
*Paper_Space
  1

  0
ENDBLK
  5
1D
330
1F
100
AcDbEntity
  8
0
100
AcDbBlockEnd
  0
ENDSEC
  0
SECTION
  2
ENTITIES
  0
LINE
  5
4E
100
AcDbEntity
  8
0
  6
ByLayer
 62
  256
370
   -1
100
AcDbLine
 10
129.1011657714844
 20
43.50783538818359
 11
129.0007171630859
 21
45
  0
LINE
  5
4F
100
AcDbEntity
  8
0
  6
ByLayer
 62
  256
370
   -1
100
AcDbLine
 10
165.0063171386719
 20
54.57882690429688
 11
163.8364868164062
 21
53.78857421875
  0
LINE
  5
50
100
AcDbEntity
  8
0
  6
ByLayer
 62
  256
370
   -1
100
AcDbLine
 10
162.56640625
 20
73.42038726806641
 11
163.8364868164062
 21
72.78289794921875
  0
LINE
  5
51
100
AcDbEntity
  8
0
  6
ByLayer
 62
  256
370
   -1
100
AcDbLine
 10
135.7193298339844
 20
34.86534881591797
 11
134.4492340087891
 21
35.50283813476562
  0
LINE
  5
52
100
AcDbEntity
  8
0
  6
ByLayer
 62
  256
370
   -1
100
AcDbLine
 10
133.2794036865234
 20
53.70690155029297
 11
134.44921875
 21
54.49716186523438
  0
LINE
  5
53
100
AcDbEntity
  8
0
  6
ByLayer
 62
  256
370
   -1
100
AcDbLine
 10
144.2806701660156
 20
55.13465118408203
 11
145.5507659912109
 21
54.49716186523438
  0
LINE
  5
54
100
AcDbEntity
  8
0
  6
ByLayer
 62
  256
370
   -1
100
AcDbLine
 10
146.7205810546875
 20
36.29309844970703
 11
145.5507659912109
 21
35.50283813476562
  0
LINE
  5
55
100
AcDbEntity
  8
0
  6
ByLayer
 62
  256
370
   -1
100
AcDbLine
 10
147.3869018554688
 20
61.7935676574707
 11
147.2864532470703
 21
63.28573608398438
  0
LINE
  5
56
100
AcDbEntity
  8
0
  6
ByLayer
 62
  256
370
   -1
100
AcDbLine
 10
151.5651397705078
 20
71.99263763427734
 11
152.7349548339844
 21
72.78289794921875
  0
LINE
  5
57
100
AcDbEntity
  8
0
  6
ByLayer
 62
  256
370
   -1
100
AcDbLine
 10
154.0050659179688
 20
53.15108489990234
 11
152.7349548339844
 21
53.78857421875
  0
LINE
  5
58
100
AcDbEntity
  8
0
  6
ByLayer
 62
  256
370
   -1
100
AcDbLine
 10
164.854736328125
 20
125.5273056030273
 11
164.7543029785156
 21
127.0194778442383
  0
LINE
  5
59
100
AcDbEntity
  8
0
  6
ByLayer
 62
  256
370
   -1
100
AcDbLine
 10
180.0342407226562
 20
111.2946090698242
 11
181.3043365478516
 21
110.6571197509766
  0
LINE
  5
5A
100
AcDbEntity
  8
0
  6
ByLayer
 62
  256
370
   -1
100
AcDbLine
 10
188.3625793457031
 20
110.4425964355469
 11
188.2621307373047
 21
111.9347610473633
  0
LINE
  5
5B
100
AcDbEntity
  8
0
  6
ByLayer
 62
  256
370
   -1
100
AcDbLine
 10
164.854736328125
 20
99.66779327392578
 11
164.7543029785156
 21
101.1599578857422
  0
LINE
  5
5C
100
AcDbEntity
  8
0
  6
ByLayer
 62
  256
370
   -1
100
AcDbLine
 10
169.0329895019531
 20
109.8668670654297
 11
170.2028198242188
 21
110.6571197509766
  0
LINE
  5
5D
100
AcDbEntity
  8
0
  6
ByLayer
 62
  256
370
   -1
100
AcDbLine
 10
182.4741516113281
 20
92.45305633544922
 11
181.3043365478516
 21
91.66279602050781
  0
LINE
  5
5E
100
AcDbEntity
  8
0
  6
ByLayer
 62
  256
370
   -1
100
AcDbLine
 10
171.472900390625
 20
91.02530670166016
 11
170.2028045654297
 21
91.66279602050781
  0
LINE
  5
5F
100
AcDbEntity
  8
0
  6
ByLayer
 62
  256
370
   -1
100
AcDbLine
 10
203.5420837402344
 20
122.0694122314453
 11
204.8121643066406
 21
121.4319229125977
  0
LINE
  5
60
100
AcDbEntity
  8
0
  6
ByLayer
 62
  256
370
   -1
100
AcDbLine
 10
205.9819946289062
 20
103.2278518676758
 11
204.8121643066406
 21
102.4375991821289
  0
LINE
  5
61
100
AcDbEntity
  8
0
  6
ByLayer
 62
  256
370
   -1
100
AcDbLine
 10
194.9807434082031
 20
101.8001098632812
 11
193.7106323242188
 21
102.4375991821289
  0
LINE
  5
62
100
AcDbEntity
  8
0
  6
ByLayer
 62
  256
370
   -1
100
AcDbLine
 10
192.5408325195312
 20
120.6416625976562
 11
193.7106323242188
 21
121.4319229125977
  0
LINE
  5
63
100
AcDbEntity
  8
0
  6
ByLayer
 62
  256
370
   -1
100
AcDbLine
 10
205.9819946289062
 20
129.0873718261719
 11
204.8121643066406
 21
128.297119140625
  0
LINE
  5
64
100
AcDbEntity
  8
0
  6
ByLayer
 62
  256
370
   -1
100
AcDbLine
 10
171.472900390625
 20
116.8848266601562
 11
170.2028045654297
 21
117.5223159790039
  0
LINE
  5
65
100
AcDbEntity
  8
0
  6
ByLayer
 62
  256
370
   -1
100
AcDbLine
 10
254.6937103271484
 20
142.5415344238281
 11
255.9638061523438
 21
141.904052734375
  0
LINE
  5
66
100
AcDbEntity
  8
0
  6
ByLayer
 62
  256
370
   -1
100
AcDbLine
 10
218.4003448486328
 20
146.5011596679688
 11
219.5701599121094
 21
147.2914276123047
  0
LINE
  5
67
100
AcDbEntity
  8
0
  6
ByLayer
 62
  256
370
   -1
100
AcDbLine
 10
180.0342407226562
 20
137.1541290283203
 11
181.3043365478516
 21
136.5166320800781
  0
LINE
  5
68
100
AcDbEntity
  8
0
  6
ByLayer
 62
  256
370
   -1
100
AcDbLine
 10
182.4741516113281
 20
118.3125686645508
 11
181.3043365478516
 21
117.5223159790039
  0
LINE
  5
69
100
AcDbEntity
  8
0
  6
ByLayer
 62
  256
370
   -1
100
AcDbLine
 10
169.0329895019531
 20
135.7263793945312
 11
170.2028198242188
 21
136.5166320800781
  0
LINE
  5
6A
100
AcDbEntity
  8
0
  6
ByLayer
 62
  256
370
   -1
100
AcDbLine
 10
188.3625793457031
 20
136.3021087646484
 11
188.2621307373047
 21
137.7942810058594
  0
LINE
  5
6B
100
AcDbEntity
  8
0
  6
ByLayer
 62
  256
370
   -1
100
AcDbLine
 10
214.2221069335938
 20
110.4425964355469
 11
214.1216430664062
 21
111.9347610473633
  0
LINE
  5
6C
100
AcDbEntity
  8
0
  6
ByLayer
 62
  256
370
   -1
100
AcDbLine
 10
203.5420837402344
 20
147.9289245605469
 11
204.8121643066406
 21
147.2914428710938
  0
LINE
  5
6D
100
AcDbEntity
  8
0
  6
ByLayer
 62
  256
370
   -1
100
AcDbLine
 10
194.9807434082031
 20
127.6596221923828
 11
193.7106323242188
 21
128.297119140625
  0
LINE
  5
6E
100
AcDbEntity
  8
0
  6
ByLayer
 62
  256
370
   -1
100
AcDbLine
 10
192.5408325195312
 20
146.5011596679688
 11
193.7106323242188
 21
147.2914276123047
  0
LINE
  5
6F
100
AcDbEntity
  8
0
  6
ByLayer
 62
  256
370
   -1
100
AcDbLine
 10
229.401611328125
 20
147.9289245605469
 11
230.6716918945312
 21
147.2914428710938
  0
LINE
  5
70
100
AcDbEntity
  8
0
  6
ByLayer
 62
  256
370
   -1
100
AcDbLine
 10
220.8402557373047
 20
101.8001098632812
 11
219.5701599121094
 21
102.4375991821289
  0
LINE
  5
71
100
AcDbEntity
  8
0
  6
ByLayer
 62
  256
370
   -1
100
AcDbLine
 10
220.8402557373047
 20
127.6596221923828
 11
219.5701599121094
 21
128.297119140625
  0
LINE
  5
72
100
AcDbEntity
  8
0
  6
ByLayer
 62
  256
370
   -1
100
AcDbLine
 10
231.8415222167969
 20
129.0873718261719
 11
230.6716918945312
 21
128.297119140625
  0
LINE
  5
73
100
AcDbEntity
  8
0
  6
ByLayer
 62
  256
370
   -1
100
AcDbLine
 10
229.401611328125
 20
122.0694122314453
 11
230.6716918945312
 21
121.4319229125977
  0
LINE
  5
74
100
AcDbEntity
  8
0
  6
ByLayer
 62
  256
370
   -1
100
AcDbLine
 10
214.2221069335938
 20
136.3021087646484
 11
214.1216430664062
 21
137.7942810058594
  0
LINE
  5
75
100
AcDbEntity
  8
0
  6
ByLayer
 62
  256
370
   -1
100
AcDbLine
 10
246.1323547363281
 20
122.2722244262695
 11
244.8622741699219
 21
122.9097137451172
  0
LINE
  5
76
100
AcDbEntity
  8
0
  6
ByLayer
 62
  256
370
   -1
100
AcDbLine
 10
218.4003448486328
 20
120.6416625976562
 11
219.5701599121094
 21
121.4319229125977
  0
LINE
  5
77
100
AcDbEntity
  8
0
  6
ByLayer
 62
  256
370
   -1
100
AcDbLine
 10
239.5142059326172
 20
130.9147033691406
 11
239.4137573242188
 21
132.4068756103516
  0
LINE
  5
78
100
AcDbEntity
  8
0
  6
ByLayer
 62
  256
370
   -1
100
AcDbLine
 10
231.8415222167969
 20
103.2278518676758
 11
230.6716918945312
 21
102.4375991821289
  0
LINE
  5
79
100
AcDbEntity
  8
0
  6
ByLayer
 62
  256
370
   -1
100
AcDbLine
 10
243.6924438476562
 20
115.254264831543
 11
244.8622741699219
 21
116.0445175170898
  0
LINE
  5
7A
100
AcDbEntity
  8
0
  6
ByLayer
 62
  256
370
   -1
100
AcDbLine
 10
246.1323547363281
 20
96.41270446777344
 11
244.8622741699219
 21
97.05020141601562
  0
LINE
  5
7B
100
AcDbEntity
  8
0
  6
ByLayer
 62
  256
370
   -1
100
AcDbLine
 10
257.1336364746094
 20
123.6999740600586
 11
255.9638061523438
 21
122.9097137451172
  0
LINE
  5
7C
100
AcDbEntity
  8
0
  6
ByLayer
 62
  256
370
   -1
100
AcDbLine
 10
254.6937103271484
 20
116.6820068359375
 11
255.9638061523438
 21
116.0445175170898
  0
LINE
  5
7D
100
AcDbEntity
  8
0
  6
ByLayer
 62
  256
370
   -1
100
AcDbLine
 10
243.6924438476562
 20
141.11376953125
 11
244.8622741699219
 21
141.9040222167969
  0
LINE
  5
7E
100
AcDbEntity
  8
0
  6
ByLayer
 62
  256
370
   -1
100
AcDbLine
 10
257.1336364746094
 20
97.8404541015625
 11
255.9638061523438
 21
97.05019378662109
  0
LINE
  5
7F
100
AcDbEntity
  8
0
  6
ByLayer
 62
  256
370
   -1
100
AcDbLine
 10
239.5142059326172
 20
105.0551910400391
 11
239.4137573242188
 21
106.5473556518555
  0
LINE
  5
80
100
AcDbEntity
  8
0
  6
ByLayer
 62
  256
370
   -1
100
AcDbLine
 10
272.4519653320312
 20
10.48772621154785
 11
272.5
 21
10
  0
LINE
  5
81
100
AcDbEntity
  8
0
  6
ByLayer
 62
  256
370
   -1
100
AcDbLine
 10
267.5480346679688
 20
9.512273788452148
 11
267.5
 21
10
  0
LINE
  5
82
100
AcDbEntity
  8
0
  6
ByLayer
 62
  256
370
   -1
100
AcDbLine
 10
270.4877319335938
 20
7.548036575317383
 11
270
 21
7.5
  0
LINE
  5
83
100
AcDbEntity
  8
0
  6
ByLayer
 62
  256
370
   -1
100
AcDbLine
 10
268.611083984375
 20
192.0786743164062
 11
269.0433044433594
 21
192.3096923828125
  0
LINE
  5
84
100
AcDbEntity
  8
0
  6
ByLayer
 62
  256
370
   -1
100
AcDbLine
 10
272.0786743164062
 20
191.3889312744141
 11
272.3096923828125
 21
190.9567108154297
  0
LINE
  5
85
100
AcDbEntity
  8
0
  6
ByLayer
 62
  256
370
   -1
100
AcDbLine
 10
267.9213256835938
 20
188.6110687255859
 11
267.6903076171875
 21
189.0432891845703
  0
LINE
  5
86
100
AcDbEntity
  8
0
  6
ByLayer
 62
  256
370
   -1
100
AcDbLine
 10
271.388916015625
 20
187.9213256835938
 11
270.9566955566406
 21
187.6903076171875
  0
LINE
  5
87
100
AcDbEntity
  8
0
  6
ByLayer
 62
  256
370
   -1
100
AcDbLine
 10
150
 20
0
 11
140
 21
0
  0
LINE
  5
88
100
AcDbEntity
  8
0
  6
ByLayer
 62
  256
370
   -1
100
AcDbLine
 10
237
 20
179.8265838623047
 11
237
 21
186
  0
LINE
  5
89
100
AcDbEntity
  8
0
  6
ByLayer
 62
  256
370
   -1
100
AcDbLine
 10
232.6486511230469
 20
164
 11
233.7090911865234
 21
164
  0
LINE
  5
8A
100
AcDbEntity
  8
0
  6
ByLayer
 62
  256
370
   -1
100
AcDbLine
 10
237
 20
179.8265838623047
 11
237
 21
179.444580078125
  0
LINE
  5
8B
100
AcDbEntity
  8
0
  6
ByLayer
 62
  256
370
   -1
100
AcDbLine
 10
232.6486511230469
 20
164
 11
231.7391967773438
 21
164
  0
LINE
  5
8C
100
AcDbEntity
  8
0
  6
ByLayer
 62
  256
370
   -1
100
AcDbLine
 10
237
 20
171.4904174804688
 11
237
 21
178.9913635253906
  0
LINE
  5
8D
100
AcDbEntity
  8
0
  6
ByLayer
 62
  256
370
   -1
100
AcDbLine
 10
175.5777435302734
 20
164
 11
176.9669647216797
 21
164
  0
LINE
  5
8E
100
AcDbEntity
  8
0
  6
ByLayer
 62
  256
370
   -1
100
AcDbLine
 10
11.388916015625
 20
12.07867431640625
 11
10.95669555664062
 21
12.30969905853271
  0
LINE
  5
8F
100
AcDbEntity
  8
0
  6
ByLayer
 62
  256
370
   -1
100
AcDbLine
 10
7.92132568359375
 20
11.38892555236816
 11
7.6903076171875
 21
10.95670890808105
  0
LINE
  5
90
100
AcDbEntity
  8
0
  6
ByLayer
 62
  256
370
   -1
100
AcDbLine
 10
12.07867431640625
 20
8.611074447631836
 11
12.3096923828125
 21
9.043291091918945
  0
LINE
  5
91
100
AcDbEntity
  8
0
  6
ByLayer
 62
  256
370
   -1
100
AcDbLine
 10
8.611083984375
 20
7.92132568359375
 11
9.043304443359375
 21
7.690300941467285
  0
LINE
  5
92
100
AcDbEntity
  8
0
  6
ByLayer
 62
  256
370
   -1
100
AcDbLine
 10
11.76776123046875
 20
191.7677612304688
 11
11.388916015625
 21
192.0786743164062
  0
LINE
  5
93
100
AcDbEntity
  8
0
  6
ByLayer
 62
  256
370
   -1
100
AcDbLine
 10
8.23223876953125
 20
191.7677612304688
 11
7.92132568359375
 21
191.3889312744141
  0
LINE
  5
94
100
AcDbEntity
  8
0
  6
ByLayer
 62
  256
370
   -1
100
AcDbLine
 10
11.76776123046875
 20
188.2322387695312
 11
12.07867431640625
 21
188.6110687255859
  0
LINE
  5
95
100
AcDbEntity
  8
0
  6
ByLayer
 62
  256
370
   -1
100
AcDbLine
 10
8.23223876953125
 20
188.2322387695312
 11
8.611083984375
 21
187.9213256835938
  0
LINE
  5
96
100
AcDbEntity
  8
0
  6
ByLayer
 62
  256
370
   -1
100
AcDbLine
 10
81.33609008789062
 20
101.3285064697266
 11
82.69332885742188
 21
101.8001098632812
  0
LINE
  5
97
100
AcDbEntity
  8
0
  6
ByLayer
 62
  256
370
   -1
100
AcDbLine
 10
49.62971496582031
 20
101.3285140991211
 11
48.27247619628906
 21
101.8001098632812
  0
LINE
  5
98
100
AcDbEntity
  8
0
  6
ByLayer
 62
  256
370
   -1
100
AcDbLine
 10
86.26406860351562
 20
146.0480194091797
 11
84.90682983398438
 21
145.576416015625
  0
LINE
  5
99
100
AcDbEntity
  8
0
  6
ByLayer
 62
  256
370
   -1
100
AcDbLine
 10
55.47660827636719
 20
122.5410079956055
 11
56.83384704589844
 21
122.0694122314453
  0
LINE
  5
9A
100
AcDbEntity
  8
0
  6
ByLayer
 62
  256
370
   -1
100
AcDbLine
 10
41.94688415527344
 20
109.0113296508789
 11
41.654296875
 21
110.4425964355469
  0
LINE
  5
9B
100
AcDbEntity
  8
0
  6
ByLayer
 62
  256
370
   -1
100
AcDbLine
 10
63.15943908691406
 20
114.8581924438477
 11
63.4520263671875
 21
113.4269256591797
  0
LINE
  5
9C
100
AcDbEntity
  8
0
  6
ByLayer
 62
  256
370
   -1
100
AcDbLine
 10
70.63566589355469
 20
104.1577606201172
 11
71.69209289550781
 21
103.2278594970703
  0
LINE
  5
9D
100
AcDbEntity
  8
0
  6
ByLayer
 62
  256
370
   -1
100
AcDbLine
 10
99.79373168945312
 20
132.5183410644531
 11
100.0863189697266
 21
133.9496154785156
  0
LINE
  5
9E
100
AcDbEntity
  8
0
  6
ByLayer
 62
  256
370
   -1
100
AcDbLine
 10
98.99627685546875
 20
90.5537109375
 11
97.6390380859375
 21
91.02530670166016
  0
LINE
  5
9F
100
AcDbEntity
  8
0
  6
ByLayer
 62
  256
370
   -1
100
AcDbLine
 10
44.77616882324219
 20
119.7117614746094
 11
45.83259582519531
 21
120.6416625976562
  0
LINE
  5
A0
100
AcDbEntity
  8
0
  6
ByLayer
 62
  256
370
   -1
100
AcDbLine
 10
60.33015441894531
 20
104.1577529907227
 11
59.27372741699219
 21
103.2278518676758
  0
LINE
  5
A1
100
AcDbEntity
  8
0
  6
ByLayer
 62
  256
370
   -1
100
AcDbLine
 10
75.4892578125
 20
122.5410079956055
 11
74.13201904296875
 21
122.0694122314453
  0
LINE
  5
A2
100
AcDbEntity
  8
0
  6
ByLayer
 62
  256
370
   -1
100
AcDbLine
 10
92.11093139648438
 20
124.8355331420898
 11
93.46817016601562
 21
125.30712890625
  0
LINE
  5
A3
100
AcDbEntity
  8
0
  6
ByLayer
 62
  256
370
   -1
100
AcDbLine
 10
67.80644226074219
 20
114.8581924438477
 11
67.51385498046875
 21
113.4269256591797
  0
LINE
  5
A4
100
AcDbEntity
  8
0
  6
ByLayer
 62
  256
370
   -1
100
AcDbLine
 10
96.9644775390625
 20
143.2187805175781
 11
95.90805053710938
 21
144.148681640625
  0
LINE
  5
A5
100
AcDbEntity
  8
0
  6
ByLayer
 62
  256
370
   -1
100
AcDbLine
 10
86.18968200683594
 20
119.7117614746094
 11
85.13325500488281
 21
120.6416625976562
  0
LINE
  5
A6
100
AcDbEntity
  8
0
  6
ByLayer
 62
  256
370
   -1
100
AcDbLine
 10
89.01890563964844
 20
109.0113220214844
 11
89.31149291992188
 21
110.4425888061523
  0
LINE
  5
A7
100
AcDbEntity
  8
0
  6
ByLayer
 62
  256
370
   -1
100
AcDbLine
 10
78.58125305175781
 20
138.3652038574219
 11
78.28866577148438
 21
136.9339447021484
  0
LINE
  5
A8
100
AcDbEntity
  8
0
  6
ByLayer
 62
  256
370
   -1
100
AcDbLine
 10
81.41047668457031
 20
127.6647796630859
 11
82.46690368652344
 21
126.7348785400391
  0
LINE
  5
A9
100
AcDbEntity
  8
0
  6
ByLayer
 62
  256
370
   -1
100
AcDbLine
 10
106.2003784179688
 20
111.2946090698242
 11
104.8431396484375
 21
111.7662048339844
  0
LINE
  5
AA
100
AcDbEntity
  8
0
  6
ByLayer
 62
  256
370
   -1
100
AcDbLine
 10
90.92042541503906
 20
101.1599578857422
 11
91.0208740234375
 21
99.66779327392578
  0
LINE
  5
AB
100
AcDbEntity
  8
0
  6
ByLayer
 62
  256
370
   -1
100
AcDbLine
 10
109.6967163085938
 20
93.38295745849609
 11
108.6402893066406
 21
92.45305633544922
  0
LINE
  5
AC
100
AcDbEntity
  8
0
  6
ByLayer
 62
  256
370
   -1
100
AcDbLine
 10
106.2003784179688
 20
91.02530670166016
 11
104.8431396484375
 21
90.5537109375
  0
LINE
  5
AD
100
AcDbEntity
  8
0
  6
ByLayer
 62
  256
370
   -1
100
AcDbLine
 10
163.8364868164062
 20
53.78857421875
 11
162.56640625
 21
53.15108489990234
  0
LINE
  5
AE
100
AcDbEntity
  8
0
  6
ByLayer
 62
  256
370
   -1
100
AcDbLine
 10
145.5507659912109
 20
54.49716186523438
 11
146.7205810546875
 21
53.70690536499023
  0
LINE
  5
AF
100
AcDbEntity
  8
0
  6
ByLayer
 62
  256
370
   -1
100
AcDbLine
 10
145.5507659912109
 20
35.50283813476562
 11
144.2806701660156
 21
34.86534881591797
  0
LINE
  5
B0
100
AcDbEntity
  8
0
  6
ByLayer
 62
  256
370
   -1
100
AcDbLine
 10
129.0007171630859
 20
45
 11
129.1011657714844
 21
46.49216842651367
  0
LINE
  5
B1
100
AcDbEntity
  8
0
  6
ByLayer
 62
  256
370
   -1
100
AcDbLine
 10
150.999267578125
 20
45
 11
150.8988342285156
 21
43.50783157348633
  0
LINE
  5
B2
100
AcDbEntity
  8
0
  6
ByLayer
 62
  256
370
   -1
100
AcDbLine
 10
163.8364868164062
 20
72.78289794921875
 11
165.0063171386719
 21
71.99263763427734
  0
LINE
  5
B3
100
AcDbEntity
  8
0
  6
ByLayer
 62
  256
370
   -1
100
AcDbLine
 10
134.44921875
 20
54.49716186523438
 11
135.7193145751953
 21
55.13465118408203
  0
LINE
  5
B4
100
AcDbEntity
  8
0
  6
ByLayer
 62
  256
370
   -1
100
AcDbLine
 10
169.2850036621094
 20
63.28573608398438
 11
169.1845703125
 21
64.77790069580078
  0
LINE
  5
B5
100
AcDbEntity
  8
0
  6
ByLayer
 62
  256
370
   -1
100
AcDbLine
 10
169.2850036621094
 20
63.28573608398438
 11
169.1845703125
 21
61.7935676574707
  0
LINE
  5
B6
100
AcDbEntity
  8
0
  6
ByLayer
 62
  256
370
   -1
100
AcDbLine
 10
150.999267578125
 20
45
 11
150.8988342285156
 21
46.49216461181641
  0
LINE
  5
B7
100
AcDbEntity
  8
0
  6
ByLayer
 62
  256
370
   -1
100
AcDbLine
 10
134.4492340087891
 20
35.50283813476562
 11
133.2794189453125
 21
36.29309844970703
  0
LINE
  5
B8
100
AcDbEntity
  8
0
  6
ByLayer
 62
  256
370
   -1
100
AcDbLine
 10
152.7349548339844
 20
72.78289794921875
 11
154.0050659179688
 21
73.42038726806641
  0
LINE
  5
B9
100
AcDbEntity
  8
0
  6
ByLayer
 62
  256
370
   -1
100
AcDbLine
 10
152.7349548339844
 20
53.78857421875
 11
151.5651397705078
 21
54.57883071899414
  0
LINE
  5
BA
100
AcDbEntity
  8
0
  6
ByLayer
 62
  256
370
   -1
100
AcDbLine
 10
147.2864532470703
 20
63.28573608398438
 11
147.3869018554688
 21
64.77790069580078
  0
LINE
  5
BB
100
AcDbEntity
  8
0
  6
ByLayer
 62
  256
370
   -1
100
AcDbLine
 10
186.7528533935547
 20
101.1599578857422
 11
186.6524047851562
 21
99.66778564453125
  0
LINE
  5
BC
100
AcDbEntity
  8
0
  6
ByLayer
 62
  256
370
   -1
100
AcDbLine
 10
193.7106323242188
 20
121.4319229125977
 11
194.9807434082031
 21
122.0694122314453
  0
LINE
  5
BD
100
AcDbEntity
  8
0
  6
ByLayer
 62
  256
370
   -1
100
AcDbLine
 10
170.2028045654297
 20
91.66279602050781
 11
169.0329895019531
 21
92.45305633544922
  0
LINE
  5
BE
100
AcDbEntity
  8
0
  6
ByLayer
 62
  256
370
   -1
100
AcDbLine
 10
181.3043365478516
 20
117.5223159790039
 11
180.0342407226562
 21
116.8848266601562
  0
LINE
  5
BF
100
AcDbEntity
  8
0
  6
ByLayer
 62
  256
370
   -1
100
AcDbLine
 10
181.3043365478516
 20
110.6571197509766
 11
182.4741516113281
 21
109.8668594360352
  0
LINE
  5
C0
100
AcDbEntity
  8
0
  6
ByLayer
 62
  256
370
   -1
100
AcDbLine
 10
181.3043365478516
 20
91.66279602050781
 11
180.0342407226562
 21
91.02530670166016
  0
LINE
  5
C1
100
AcDbEntity
  8
0
  6
ByLayer
 62
  256
370
   -1
100
AcDbLine
 10
164.7543029785156
 20
101.1599578857422
 11
164.854736328125
 21
102.6521224975586
  0
LINE
  5
C2
100
AcDbEntity
  8
0
  6
ByLayer
 62
  256
370
   -1
100
AcDbLine
 10
193.7106323242188
 20
102.4375991821289
 11
192.5408325195312
 21
103.2278594970703
  0
LINE
  5
C3
100
AcDbEntity
  8
0
  6
ByLayer
 62
  256
370
   -1
100
AcDbLine
 10
170.2028045654297
 20
117.5223159790039
 11
169.0329895019531
 21
118.3125686645508
  0
LINE
  5
C4
100
AcDbEntity
  8
0
  6
ByLayer
 62
  256
370
   -1
100
AcDbLine
 10
170.2028198242188
 20
110.6571197509766
 11
171.472900390625
 21
111.2946090698242
  0
LINE
  5
C5
100
AcDbEntity
  8
0
  6
ByLayer
 62
  256
370
   -1
100
AcDbLine
 10
186.7528533935547
 20
101.1599578857422
 11
186.6524047851562
 21
102.6521224975586
  0
LINE
  5
C6
100
AcDbEntity
  8
0
  6
ByLayer
 62
  256
370
   -1
100
AcDbLine
 10
210.2606811523438
 20
111.9347610473633
 11
210.1602478027344
 21
110.4425888061523
  0
LINE
  5
C7
100
AcDbEntity
  8
0
  6
ByLayer
 62
  256
370
   -1
100
AcDbLine
 10
188.2621307373047
 20
111.9347610473633
 11
188.3625793457031
 21
113.4269256591797
  0
LINE
  5
C8
100
AcDbEntity
  8
0
  6
ByLayer
 62
  256
370
   -1
100
AcDbLine
 10
204.8121643066406
 20
102.4375991821289
 11
203.5420837402344
 21
101.8001098632812
  0
LINE
  5
C9
100
AcDbEntity
  8
0
  6
ByLayer
 62
  256
370
   -1
100
AcDbLine
 10
210.2606811523438
 20
137.7942810058594
 11
210.1602478027344
 21
139.2864532470703
  0
LINE
  5
CA
100
AcDbEntity
  8
0
  6
ByLayer
 62
  256
370
   -1
100
AcDbLine
 10
193.7106323242188
 20
147.2914276123047
 11
194.9807434082031
 21
147.9289245605469
  0
LINE
  5
CB
100
AcDbEntity
  8
0
  6
ByLayer
 62
  256
370
   -1
100
AcDbLine
 10
204.8121643066406
 20
121.4319229125977
 11
205.9819946289062
 21
120.6416625976562
  0
LINE
  5
CC
100
AcDbEntity
  8
0
  6
ByLayer
 62
  256
370
   -1
100
AcDbLine
 10
210.2606811523438
 20
137.7942810058594
 11
210.1602478027344
 21
136.3021087646484
  0
LINE
  5
CD
100
AcDbEntity
  8
0
  6
ByLayer
 62
  256
370
   -1
100
AcDbLine
 10
210.2606811523438
 20
111.9347610473633
 11
210.1602478027344
 21
113.4269256591797
  0
LINE
  5
CE
100
AcDbEntity
  8
0
  6
ByLayer
 62
  256
370
   -1
100
AcDbLine
 10
186.7528533935547
 20
127.0194778442383
 11
186.6524047851562
 21
128.5116424560547
  0
LINE
  5
CF
100
AcDbEntity
  8
0
  6
ByLayer
 62
  256
370
   -1
100
AcDbLine
 10
164.7543029785156
 20
127.0194778442383
 11
164.854736328125
 21
128.5116424560547
  0
LINE
  5
D0
100
AcDbEntity
  8
0
  6
ByLayer
 62
  256
370
   -1
100
AcDbLine
 10
236.1202087402344
 20
137.7942810058594
 11
236.0197448730469
 21
139.2864532470703
  0
LINE
  5
D1
100
AcDbEntity
  8
0
  6
ByLayer
 62
  256
370
   -1
100
AcDbLine
 10
181.3043365478516
 20
136.5166320800781
 11
182.4741516113281
 21
135.7263793945312
  0
LINE
  5
D2
100
AcDbEntity
  8
0
  6
ByLayer
 62
  256
370
   -1
100
AcDbLine
 10
193.7106323242188
 20
128.297119140625
 11
192.5408325195312
 21
129.0873718261719
  0
LINE
  5
D3
100
AcDbEntity
  8
0
  6
ByLayer
 62
  256
370
   -1
100
AcDbLine
 10
204.8121643066406
 20
128.297119140625
 11
203.5420837402344
 21
127.6596298217773
  0
LINE
  5
D4
100
AcDbEntity
  8
0
  6
ByLayer
 62
  256
370
   -1
100
AcDbLine
 10
186.7528533935547
 20
127.0194778442383
 11
186.6524047851562
 21
125.5273056030273
  0
LINE
  5
D5
100
AcDbEntity
  8
0
  6
ByLayer
 62
  256
370
   -1
100
AcDbLine
 10
219.5701599121094
 20
128.297119140625
 11
218.4003448486328
 21
129.0873718261719
  0
LINE
  5
D6
100
AcDbEntity
  8
0
  6
ByLayer
 62
  256
370
   -1
100
AcDbLine
 10
170.2028198242188
 20
136.5166320800781
 11
171.472900390625
 21
137.1541137695312
  0
LINE
  5
D7
100
AcDbEntity
  8
0
  6
ByLayer
 62
  256
370
   -1
100
AcDbLine
 10
188.2621307373047
 20
137.7942810058594
 11
188.3625793457031
 21
139.2864379882812
  0
LINE
  5
D8
100
AcDbEntity
  8
0
  6
ByLayer
 62
  256
370
   -1
100
AcDbLine
 10
239.4137573242188
 20
106.5473556518555
 11
239.5142059326172
 21
108.0395278930664
  0
LINE
  5
D9
100
AcDbEntity
  8
0
  6
ByLayer
 62
  256
370
   -1
100
AcDbLine
 10
214.1216430664062
 20
111.9347610473633
 11
214.2221069335938
 21
113.4269256591797
  0
LINE
  5
DA
100
AcDbEntity
  8
0
  6
ByLayer
 62
  256
370
   -1
100
AcDbLine
 10
204.8121643066406
 20
147.2914428710938
 11
205.9819946289062
 21
146.5011901855469
  0
LINE
  5
DB
100
AcDbEntity
  8
0
  6
ByLayer
 62
  256
370
   -1
100
AcDbLine
 10
236.1202087402344
 20
137.7942810058594
 11
236.0197448730469
 21
136.3021087646484
  0
LINE
  5
DC
100
AcDbEntity
  8
0
  6
ByLayer
 62
  256
370
   -1
100
AcDbLine
 10
230.6716918945312
 20
128.297119140625
 11
229.401611328125
 21
127.6596298217773
  0
LINE
  5
DD
100
AcDbEntity
  8
0
  6
ByLayer
 62
  256
370
   -1
100
AcDbLine
 10
214.1216430664062
 20
137.7942810058594
 11
214.2221069335938
 21
139.2864379882812
  0
LINE
  5
DE
100
AcDbEntity
  8
0
  6
ByLayer
 62
  256
370
   -1
100
AcDbLine
 10
261.4123229980469
 20
106.5473556518555
 11
261.3118896484375
 21
105.0551910400391
  0
LINE
  5
DF
100
AcDbEntity
  8
0
  6
ByLayer
 62
  256
370
   -1
100
AcDbLine
 10
230.6716918945312
 20
147.2914428710938
 11
231.8415222167969
 21
146.5011901855469
  0
LINE
  5
E0
100
AcDbEntity
  8
0
  6
ByLayer
 62
  256
370
   -1
100
AcDbLine
 10
261.4123229980469
 20
132.4068756103516
 11
261.3118591308594
 21
133.8990478515625
  0
LINE
  5
E1
100
AcDbEntity
  8
0
  6
ByLayer
 62
  256
370
   -1
100
AcDbLine
 10
219.5701599121094
 20
147.2914276123047
 11
220.8402557373047
 21
147.9289245605469
  0
LINE
  5
E2
100
AcDbEntity
  8
0
  6
ByLayer
 62
  256
370
   -1
100
AcDbLine
 10
244.8622741699219
 20
141.9040222167969
 11
246.1323547363281
 21
142.5415191650391
  0
LINE
  5
E3
100
AcDbEntity
  8
0
  6
ByLayer
 62
  256
370
   -1
100
AcDbLine
 10
219.5701599121094
 20
102.4375991821289
 11
218.4003448486328
 21
103.2278594970703
  0
LINE
  5
E4
100
AcDbEntity
  8
0
  6
ByLayer
 62
  256
370
   -1
100
AcDbLine
 10
236.1202087402344
 20
111.9347610473633
 11
236.0197448730469
 21
113.4269256591797
  0
LINE
  5
E5
100
AcDbEntity
  8
0
  6
ByLayer
 62
  256
370
   -1
100
AcDbLine
 10
244.8622741699219
 20
122.9097137451172
 11
243.6924438476562
 21
123.6999740600586
  0
LINE
  5
E6
100
AcDbEntity
  8
0
  6
ByLayer
 62
  256
370
   -1
100
AcDbLine
 10
219.5701599121094
 20
121.4319229125977
 11
220.8402557373047
 21
122.0694122314453
  0
LINE
  5
E7
100
AcDbEntity
  8
0
  6
ByLayer
 62
  256
370
   -1
100
AcDbLine
 10
230.6716918945312
 20
121.4319229125977
 11
231.8415222167969
 21
120.6416625976562
  0
LINE
  5
E8
100
AcDbEntity
  8
0
  6
ByLayer
 62
  256
370
   -1
100
AcDbLine
 10
236.1202087402344
 20
111.9347610473633
 11
236.0197448730469
 21
110.4425888061523
  0
LINE
  5
E9
100
AcDbEntity
  8
0
  6
ByLayer
 62
  256
370
   -1
100
AcDbLine
 10
255.9638061523438
 20
97.05019378662109
 11
254.6937255859375
 21
96.41270446777344
  0
LINE
  5
EA
100
AcDbEntity
  8
0
  6
ByLayer
 62
  256
370
   -1
100
AcDbLine
 10
230.6716918945312
 20
102.4375991821289
 11
229.401611328125
 21
101.8001098632812
  0
LINE
  5
EB
100
AcDbEntity
  8
0
  6
ByLayer
 62
  256
370
   -1
100
AcDbLine
 10
261.4123229980469
 20
132.4068756103516
 11
261.3118896484375
 21
130.9147033691406
  0
LINE
  5
EC
100
AcDbEntity
  8
0
  6
ByLayer
 62
  256
370
   -1
100
AcDbLine
 10
239.4137573242188
 20
132.4068756103516
 11
239.5142059326172
 21
133.8990478515625
  0
LINE
  5
ED
100
AcDbEntity
  8
0
  6
ByLayer
 62
  256
370
   -1
100
AcDbLine
 10
255.9638061523438
 20
141.904052734375
 11
257.1336364746094
 21
141.1137847900391
  0
LINE
  5
EE
100
AcDbEntity
  8
0
  6
ByLayer
 62
  256
370
   -1
100
AcDbLine
 10
255.9638061523438
 20
122.9097137451172
 11
254.6937255859375
 21
122.2722244262695
  0
LINE
  5
EF
100
AcDbEntity
  8
0
  6
ByLayer
 62
  256
370
   -1
100
AcDbLine
 10
244.8622741699219
 20
97.05020141601562
 11
243.6924438476562
 21
97.8404541015625
  0
LINE
  5
F0
100
AcDbEntity
  8
0
  6
ByLayer
 62
  256
370
   -1
100
AcDbLine
 10
244.8622741699219
 20
116.0445175170898
 11
246.1323547363281
 21
116.6820068359375
  0
LINE
  5
F1
100
AcDbEntity
  8
0
  6
ByLayer
 62
  256
370
   -1
100
AcDbLine
 10
255.9638061523438
 20
116.0445175170898
 11
257.1336364746094
 21
115.254264831543
  0
LINE
  5
F2
100
AcDbEntity
  8
0
  6
ByLayer
 62
  256
370
   -1
100
AcDbLine
 10
261.4123229980469
 20
106.5473556518555
 11
261.3118591308594
 21
108.0395278930664
  0
LINE
  5
F3
100
AcDbEntity
  8
0
  6
ByLayer
 62
  256
370
   -1
100
AcDbLine
 10
270
 20
0
 11
250
 21
0
  0
LINE
  5
F4
100
AcDbEntity
  8
0
  6
ByLayer
 62
  256
370
   -1
100
AcDbLine
 10
270
 20
12.5
 11
269.5122680664062
 21
12.45196342468262
  0
LINE
  5
F5
100
AcDbEntity
  8
0
  6
ByLayer
 62
  256
370
   -1
100
AcDbLine
 10
270
 20
12.5
 11
270.4877319335938
 21
12.45196342468262
  0
LINE
  5
F6
100
AcDbEntity
  8
0
  6
ByLayer
 62
  256
370
   -1
100
AcDbLine
 10
267.5
 20
10
 11
267.5480346679688
 21
10.48772621154785
  0
LINE
  5
F7
100
AcDbEntity
  8
0
  6
ByLayer
 62
  256
370
   -1
100
AcDbLine
 10
272.5
 20
10
 11
272.4519653320312
 21
9.512273788452148
  0
LINE
  5
F8
100
AcDbEntity
  8
0
  6
ByLayer
 62
  256
370
   -1
100
AcDbLine
 10
270
 20
0
 11
280
 21
10
  0
LINE
  5
F9
100
AcDbEntity
  8
0
  6
ByLayer
 62
  256
370
   -1
100
AcDbLine
 10
270
 20
7.5
 11
269.5122680664062
 21
7.548036575317383
  0
LINE
  5
FA
100
AcDbEntity
  8
0
  6
ByLayer
 62
  256
370
   -1
100
AcDbLine
 10
280
 20
190
 11
270
 21
200
  0
LINE
  5
FB
100
AcDbEntity
  8
0
  6
ByLayer
 62
  256
370
   -1
100
AcDbLine
 10
272.3096923828125
 20
190.9567108154297
 11
272.4519653320312
 21
190.4877319335938
  0
LINE
  5
FC
100
AcDbEntity
  8
0
  6
ByLayer
 62
  256
370
   -1
100
AcDbLine
 10
269.0433044433594
 20
192.3096923828125
 11
269.5122680664062
 21
192.4519653320312
  0
LINE
  5
FD
100
AcDbEntity
  8
0
  6
ByLayer
 62
  256
370
   -1
100
AcDbLine
 10
267.6903076171875
 20
189.0432891845703
 11
267.5480346679688
 21
189.5122680664062
  0
LINE
  5
FE
100
AcDbEntity
  8
0
  6
ByLayer
 62
  256
370
   -1
100
AcDbLine
 10
270.9566955566406
 20
187.6903076171875
 11
270.4877319335938
 21
187.5480346679688
  0
LINE
  5
FF
100
AcDbEntity
  8
0
  6
ByLayer
 62
  256
370
   -1
100
AcDbLine
 10
237
 20
186
 11
215
 21
186
  0
LINE
  5
100
100
AcDbEntity
  8
0
  6
ByLayer
 62
  256
370
   -1
100
AcDbLine
 10
233.7090911865234
 20
164
 11
234.8629150390625
 21
164
  0
LINE
  5
101
100
AcDbEntity
  8
0
  6
ByLayer
 62
  256
370
   -1
100
AcDbLine
 10
231.7391967773438
 20
164
 11
219.2968444824219
 21
164
  0
LINE
  5
102
100
AcDbEntity
  8
0
  6
ByLayer
 62
  256
370
   -1
100
AcDbLine
 10
182.2565612792969
 20
164
 11
181.0569458007812
 21
164
  0
LINE
  5
103
100
AcDbEntity
  8
0
  6
ByLayer
 62
  256
370
   -1
100
AcDbLine
 10
7.6903076171875
 20
10.95670890808105
 11
7.54803466796875
 21
10.48772621154785
  0
LINE
  5
104
100
AcDbEntity
  8
0
  6
ByLayer
 62
  256
370
   -1
100
AcDbLine
 10
10.95669555664062
 20
12.30969905853271
 11
10.48773193359375
 21
12.45196342468262
  0
LINE
  5
105
100
AcDbEntity
  8
0
  6
ByLayer
 62
  256
370
   -1
100
AcDbLine
 10
9.043304443359375
 20
7.690300941467285
 11
9.51226806640625
 21
7.548036575317383
  0
LINE
  5
106
100
AcDbEntity
  8
0
  6
ByLayer
 62
  256
370
   -1
100
AcDbLine
 10
12.3096923828125
 20
9.043291091918945
 11
12.45196533203125
 21
9.512273788452148
  0
LINE
  5
107
100
AcDbEntity
  8
0
  6
ByLayer
 62
  256
370
   -1
100
AcDbLine
 10
11.388916015625
 20
192.0786743164062
 11
10.95669555664062
 21
192.3096923828125
  0
LINE
  5
108
100
AcDbEntity
  8
0
  6
ByLayer
 62
  256
370
   -1
100
AcDbLine
 10
7.92132568359375
 20
191.3889312744141
 11
7.6903076171875
 21
190.9567108154297
  0
LINE
  5
109
100
AcDbEntity
  8
0
  6
ByLayer
 62
  256
370
   -1
100
AcDbLine
 10
12.07867431640625
 20
188.6110687255859
 11
12.3096923828125
 21
189.0432891845703
  0
LINE
  5
10A
100
AcDbEntity
  8
0
  6
ByLayer
 62
  256
370
   -1
100
AcDbLine
 10
8.611083984375
 20
187.9213256835938
 11
9.043304443359375
 21
187.6903076171875
  0
LINE
  5
10B
100
AcDbEntity
  8
0
  6
ByLayer
 62
  256
370
   -1
100
AcDbLine
 10
110.6265869140625
 20
107.8805389404297
 11
109.6966857910156
 21
108.9369583129883
  0
LINE
  5
10C
100
AcDbEntity
  8
0
  6
ByLayer
 62
  256
370
   -1
100
AcDbLine
 10
45.83259582519531
 20
120.6416625976562
 11
47.00241088867188
 21
121.4319229125977
  0
LINE
  5
10D
100
AcDbEntity
  8
0
  6
ByLayer
 62
  256
370
   -1
100
AcDbLine
 10
71.69209289550781
 20
103.2278594970703
 11
72.86190795898438
 21
102.4375991821289
  0
LINE
  5
10E
100
AcDbEntity
  8
0
  6
ByLayer
 62
  256
370
   -1
100
AcDbLine
 10
85.13325500488281
 20
120.6416625976562
 11
83.96343994140625
 21
121.4319152832031
  0
LINE
  5
10F
100
AcDbEntity
  8
0
  6
ByLayer
 62
  256
370
   -1
100
AcDbLine
 10
74.13201904296875
 20
122.0694122314453
 11
72.86192321777344
 21
121.4319229125977
  0
LINE
  5
110
100
AcDbEntity
  8
0
  6
ByLayer
 62
  256
370
   -1
100
AcDbLine
 10
67.51385498046875
 20
113.4269256591797
 11
67.41340637207031
 21
111.9347610473633
  0
LINE
  5
111
100
AcDbEntity
  8
0
  6
ByLayer
 62
  256
370
   -1
100
AcDbLine
 10
41.654296875
 20
110.4425964355469
 11
41.55387878417969
 21
111.9347610473633
  0
LINE
  5
112
100
AcDbEntity
  8
0
  6
ByLayer
 62
  256
370
   -1
100
AcDbLine
 10
56.83384704589844
 20
122.0694122314453
 11
58.10394287109375
 21
121.4319229125977
  0
LINE
  5
113
100
AcDbEntity
  8
0
  6
ByLayer
 62
  256
370
   -1
100
AcDbLine
 10
48.27247619628906
 20
101.8001098632812
 11
47.00238037109375
 21
102.4375991821289
  0
LINE
  5
114
100
AcDbEntity
  8
0
  6
ByLayer
 62
  256
370
   -1
100
AcDbLine
 10
59.27372741699219
 20
103.2278518676758
 11
58.10391235351562
 21
102.4375991821289
  0
LINE
  5
115
100
AcDbEntity
  8
0
  6
ByLayer
 62
  256
370
   -1
100
AcDbLine
 10
82.69332885742188
 20
101.8001098632812
 11
83.96342468261719
 21
102.4375991821289
  0
LINE
  5
116
100
AcDbEntity
  8
0
  6
ByLayer
 62
  256
370
   -1
100
AcDbLine
 10
84.90682983398438
 20
145.576416015625
 11
83.63673400878906
 21
144.9389343261719
  0
LINE
  5
117
100
AcDbEntity
  8
0
  6
ByLayer
 62
  256
370
   -1
100
AcDbLine
 10
78.28866577148438
 20
136.9339447021484
 11
78.18821716308594
 21
135.4417724609375
  0
LINE
  5
118
100
AcDbEntity
  8
0
  6
ByLayer
 62
  256
370
   -1
100
AcDbLine
 10
95.90805053710938
 20
144.148681640625
 11
94.73825073242188
 21
144.9389495849609
  0
LINE
  5
119
100
AcDbEntity
  8
0
  6
ByLayer
 62
  256
370
   -1
100
AcDbLine
 10
93.46817016601562
 20
125.30712890625
 11
94.73825073242188
 21
125.9446182250977
  0
LINE
  5
11A
100
AcDbEntity
  8
0
  6
ByLayer
 62
  256
370
   -1
100
AcDbLine
 10
91.0208740234375
 20
99.66779327392578
 11
91.31346130371094
 21
98.23652648925781
  0
LINE
  5
11B
100
AcDbEntity
  8
0
  6
ByLayer
 62
  256
370
   -1
100
AcDbLine
 10
82.46690368652344
 20
126.7348785400391
 11
83.63671875
 21
125.9446258544922
  0
LINE
  5
11C
100
AcDbEntity
  8
0
  6
ByLayer
 62
  256
370
   -1
100
AcDbLine
 10
104.8431396484375
 20
111.7662048339844
 11
103.411865234375
 21
112.0587921142578
  0
LINE
  5
11D
100
AcDbEntity
  8
0
  6
ByLayer
 62
  256
370
   -1
100
AcDbLine
 10
110.6265869140625
 20
107.8805389404297
 11
111.4168548583984
 21
106.7107162475586
  0
LINE
  5
11E
100
AcDbEntity
  8
0
  6
ByLayer
 62
  256
370
   -1
100
AcDbLine
 10
112.0543518066406
 20
96.87928771972656
 11
111.4168701171875
 21
95.60919189453125
  0
LINE
  5
11F
100
AcDbEntity
  8
0
  6
ByLayer
 62
  256
370
   -1
100
AcDbLine
 10
129.1011657714844
 20
46.49216842651367
 11
129.3937377929688
 21
47.92343139648438
  0
LINE
  5
120
100
AcDbEntity
  8
0
  6
ByLayer
 62
  256
370
   -1
100
AcDbLine
 10
154.0050659179688
 20
73.42038726806641
 11
155.3623046875
 21
73.89198303222656
  0
LINE
  5
121
100
AcDbEntity
  8
0
  6
ByLayer
 62
  256
370
   -1
100
AcDbLine
 10
135.7193145751953
 20
55.13465118408203
 11
137.0765533447266
 21
55.60624694824219
  0
LINE
  5
122
100
AcDbEntity
  8
0
  6
ByLayer
 62
  256
370
   -1
100
AcDbLine
 10
146.7205810546875
 20
53.70690536499023
 11
147.7770080566406
 21
52.77700424194336
  0
LINE
  5
123
100
AcDbEntity
  8
0
  6
ByLayer
 62
  256
370
   -1
100
AcDbLine
 10
169.1845703125
 20
61.7935676574707
 11
168.8919677734375
 21
60.36230087280273
  0
LINE
  5
124
100
AcDbEntity
  8
0
  6
ByLayer
 62
  256
370
   -1
100
AcDbLine
 10
150.8988342285156
 20
43.50783157348633
 11
150.6062469482422
 21
42.07656860351562
  0
LINE
  5
125
100
AcDbEntity
  8
0
  6
ByLayer
 62
  256
370
   -1
100
AcDbLine
 10
147.3869018554688
 20
64.77790069580078
 11
147.6794891357422
 21
66.20916748046875
  0
LINE
  5
126
100
AcDbEntity
  8
0
  6
ByLayer
 62
  256
370
   -1
100
AcDbLine
 10
133.2794189453125
 20
36.29309844970703
 11
132.2229919433594
 21
37.22299957275391
  0
LINE
  5
127
100
AcDbEntity
  8
0
  6
ByLayer
 62
  256
370
   -1
100
AcDbLine
 10
162.56640625
 20
53.15108489990234
 11
161.2091674804688
 21
52.67948532104492
  0
LINE
  5
128
100
AcDbEntity
  8
0
  6
ByLayer
 62
  256
370
   -1
100
AcDbLine
 10
144.2806701660156
 20
34.86534881591797
 11
142.9234313964844
 21
34.39375305175781
  0
LINE
  5
129
100
AcDbEntity
  8
0
  6
ByLayer
 62
  256
370
   -1
100
AcDbLine
 10
165.0063171386719
 20
71.99263763427734
 11
166.062744140625
 21
71.06273651123047
  0
LINE
  5
12A
100
AcDbEntity
  8
0
  6
ByLayer
 62
  256
370
   -1
100
AcDbLine
 10
151.5651397705078
 20
54.57883071899414
 11
150.5087280273438
 21
55.50873184204102
  0
LINE
  5
12B
100
AcDbEntity
  8
0
  6
ByLayer
 62
  256
370
   -1
100
AcDbLine
 10
186.6524047851562
 20
125.5273056030273
 11
186.3598327636719
 21
124.0960388183594
  0
LINE
  5
12C
100
AcDbEntity
  8
0
  6
ByLayer
 62
  256
370
   -1
100
AcDbLine
 10
186.6524047851562
 20
99.66778564453125
 11
186.3598327636719
 21
98.23652648925781
  0
LINE
  5
12D
100
AcDbEntity
  8
0
  6
ByLayer
 62
  256
370
   -1
100
AcDbLine
 10
171.472900390625
 20
137.1541137695312
 11
172.8301391601562
 21
137.6257019042969
  0
LINE
  5
12E
100
AcDbEntity
  8
0
  6
ByLayer
 62
  256
370
   -1
100
AcDbLine
 10
182.4741516113281
 20
109.8668594360352
 11
183.5305786132812
 21
108.9369583129883
  0
LINE
  5
12F
100
AcDbEntity
  8
0
  6
ByLayer
 62
  256
370
   -1
100
AcDbLine
 10
180.0342407226562
 20
91.02530670166016
 11
178.677001953125
 21
90.5537109375
  0
LINE
  5
130
100
AcDbEntity
  8
0
  6
ByLayer
 62
  256
370
   -1
100
AcDbLine
 10
203.5420837402344
 20
101.8001098632812
 11
202.1848449707031
 21
101.3285064697266
  0
LINE
  5
131
100
AcDbEntity
  8
0
  6
ByLayer
 62
  256
370
   -1
100
AcDbLine
 10
164.854736328125
 20
102.6521224975586
 11
165.1473236083984
 21
104.0833892822266
  0
LINE
  5
132
100
AcDbEntity
  8
0
  6
ByLayer
 62
  256
370
   -1
100
AcDbLine
 10
192.5408325195312
 20
103.2278594970703
 11
191.4844055175781
 21
104.1577606201172
  0
LINE
  5
133
100
AcDbEntity
  8
0
  6
ByLayer
 62
  256
370
   -1
100
AcDbLine
 10
171.472900390625
 20
111.2946090698242
 11
172.8301391601562
 21
111.7662124633789
  0
LINE
  5
134
100
AcDbEntity
  8
0
  6
ByLayer
 62
  256
370
   -1
100
AcDbLine
 10
210.1602478027344
 20
110.4425888061523
 11
209.8676605224609
 21
109.0113220214844
  0
LINE
  5
135
100
AcDbEntity
  8
0
  6
ByLayer
 62
  256
370
   -1
100
AcDbLine
 10
169.0329895019531
 20
92.45305633544922
 11
167.9765625
 21
93.38295745849609
  0
LINE
  5
136
100
AcDbEntity
  8
0
  6
ByLayer
 62
  256
370
   -1
100
AcDbLine
 10
210.1602478027344
 20
136.3021087646484
 11
209.8676605224609
 21
134.870849609375
  0
LINE
  5
137
100
AcDbEntity
  8
0
  6
ByLayer
 62
  256
370
   -1
100
AcDbLine
 10
188.3625793457031
 20
113.4269256591797
 11
188.6551513671875
 21
114.8581924438477
  0
LINE
  5
138
100
AcDbEntity
  8
0
  6
ByLayer
 62
  256
370
   -1
100
AcDbLine
 10
236.0197448730469
 20
110.4425888061523
 11
235.7271728515625
 21
109.0113220214844
  0
LINE
  5
139
100
AcDbEntity
  8
0
  6
ByLayer
 62
  256
370
   -1
100
AcDbLine
 10
205.9819946289062
 20
120.6416625976562
 11
207.0384216308594
 21
119.7117614746094
  0
LINE
  5
13A
100
AcDbEntity
  8
0
  6
ByLayer
 62
  256
370
   -1
100
AcDbLine
 10
194.9807434082031
 20
122.0694122314453
 11
196.3379821777344
 21
122.5410079956055
  0
LINE
  5
13B
100
AcDbEntity
  8
0
  6
ByLayer
 62
  256
370
   -1
100
AcDbLine
 10
188.3625793457031
 20
139.2864379882812
 11
188.6551513671875
 21
140.7177124023438
  0
LINE
  5
13C
100
AcDbEntity
  8
0
  6
ByLayer
 62
  256
370
   -1
100
AcDbLine
 10
164.854736328125
 20
128.5116424560547
 11
165.1473236083984
 21
129.9429016113281
  0
LINE
  5
13D
100
AcDbEntity
  8
0
  6
ByLayer
 62
  256
370
   -1
100
AcDbLine
 10
239.5142059326172
 20
133.8990478515625
 11
239.8067932128906
 21
135.3303070068359
  0
LINE
  5
13E
100
AcDbEntity
  8
0
  6
ByLayer
 62
  256
370
   -1
100
AcDbLine
 10
169.0329895019531
 20
118.3125686645508
 11
167.9765625
 21
119.2424697875977
  0
LINE
  5
13F
100
AcDbEntity
  8
0
  6
ByLayer
 62
  256
370
   -1
100
AcDbLine
 10
180.0342407226562
 20
116.8848266601562
 11
178.677001953125
 21
116.4132308959961
  0
LINE
  5
140
100
AcDbEntity
  8
0
  6
ByLayer
 62
  256
370
   -1
100
AcDbLine
 10
182.4741516113281
 20
135.7263793945312
 11
183.5305786132812
 21
134.7964782714844
  0
LINE
  5
141
100
AcDbEntity
  8
0
  6
ByLayer
 62
  256
370
   -1
100
AcDbLine
 10
229.401611328125
 20
101.8001098632812
 11
228.0443725585938
 21
101.3285064697266
  0
LINE
  5
142
100
AcDbEntity
  8
0
  6
ByLayer
 62
  256
370
   -1
100
AcDbLine
 10
192.5408325195312
 20
129.0873718261719
 11
191.4844055175781
 21
130.0172729492188
  0
LINE
  5
143
100
AcDbEntity
  8
0
  6
ByLayer
 62
  256
370
   -1
100
AcDbLine
 10
203.5420837402344
 20
127.6596298217773
 11
202.1848449707031
 21
127.1880340576172
  0
LINE
  5
144
100
AcDbEntity
  8
0
  6
ByLayer
 62
  256
370
   -1
100
AcDbLine
 10
229.401611328125
 20
127.6596298217773
 11
228.0443725585938
 21
127.1880340576172
  0
LINE
  5
145
100
AcDbEntity
  8
0
  6
ByLayer
 62
  256
370
   -1
100
AcDbLine
 10
194.9807434082031
 20
147.9289245605469
 11
196.3379821777344
 21
148.4005126953125
  0
LINE
  5
146
100
AcDbEntity
  8
0
  6
ByLayer
 62
  256
370
   -1
100
AcDbLine
 10
205.9819946289062
 20
146.5011901855469
 11
207.0384216308594
 21
145.5712890625
  0
LINE
  5
147
100
AcDbEntity
  8
0
  6
ByLayer
 62
  256
370
   -1
100
AcDbLine
 10
236.0197448730469
 20
136.3021087646484
 11
235.7271728515625
 21
134.870849609375
  0
LINE
  5
148
100
AcDbEntity
  8
0
  6
ByLayer
 62
  256
370
   -1
100
AcDbLine
 10
243.6924438476562
 20
123.6999740600586
 11
242.6360321044922
 21
124.6298751831055
  0
LINE
  5
149
100
AcDbEntity
  8
0
  6
ByLayer
 62
  256
370
   -1
100
AcDbLine
 10
220.8402557373047
 20
122.0694122314453
 11
222.197509765625
 21
122.5410079956055
  0
LINE
  5
14A
100
AcDbEntity
  8
0
  6
ByLayer
 62
  256
370
   -1
100
AcDbLine
 10
214.2221069335938
 20
139.2864379882812
 11
214.5146789550781
 21
140.7177124023438
  0
LINE
  5
14B
100
AcDbEntity
  8
0
  6
ByLayer
 62
  256
370
   -1
100
AcDbLine
 10
218.4003448486328
 20
129.0873718261719
 11
217.3439331054688
 21
130.0172729492188
  0
LINE
  5
14C
100
AcDbEntity
  8
0
  6
ByLayer
 62
  256
370
   -1
100
AcDbLine
 10
231.8415222167969
 20
146.5011901855469
 11
232.8979187011719
 21
145.5712890625
  0
LINE
  5
14D
100
AcDbEntity
  8
0
  6
ByLayer
 62
  256
370
   -1
100
AcDbLine
 10
218.4003448486328
 20
103.2278594970703
 11
217.3439331054688
 21
104.1577606201172
  0
LINE
  5
14E
100
AcDbEntity
  8
0
  6
ByLayer
 62
  256
370
   -1
100
AcDbLine
 10
220.8402557373047
 20
147.9289245605469
 11
222.197509765625
 21
148.4005126953125
  0
LINE
  5
14F
100
AcDbEntity
  8
0
  6
ByLayer
 62
  256
370
   -1
100
AcDbLine
 10
214.2221069335938
 20
113.4269256591797
 11
214.5146789550781
 21
114.8581924438477
  0
LINE
  5
150
100
AcDbEntity
  8
0
  6
ByLayer
 62
  256
370
   -1
100
AcDbLine
 10
257.1336364746094
 20
115.254264831543
 11
258.1900329589844
 21
114.3243637084961
  0
LINE
  5
151
100
AcDbEntity
  8
0
  6
ByLayer
 62
  256
370
   -1
100
AcDbLine
 10
231.8415222167969
 20
120.6416625976562
 11
232.8979187011719
 21
119.7117614746094
  0
LINE
  5
152
100
AcDbEntity
  8
0
  6
ByLayer
 62
  256
370
   -1
100
AcDbLine
 10
257.1336364746094
 20
141.1137847900391
 11
258.1900329589844
 21
140.1838836669922
  0
LINE
  5
153
100
AcDbEntity
  8
0
  6
ByLayer
 62
  256
370
   -1
100
AcDbLine
 10
261.3118896484375
 20
130.9147033691406
 11
261.019287109375
 21
129.4834442138672
  0
LINE
  5
154
100
AcDbEntity
  8
0
  6
ByLayer
 62
  256
370
   -1
100
AcDbLine
 10
254.6937255859375
 20
96.41270446777344
 11
253.3364868164062
 21
95.94110870361328
  0
LINE
  5
155
100
AcDbEntity
  8
0
  6
ByLayer
 62
  256
370
   -1
100
AcDbLine
 10
246.1323547363281
 20
142.5415191650391
 11
247.4895935058594
 21
143.0131225585938
  0
LINE
  5
156
100
AcDbEntity
  8
0
  6
ByLayer
 62
  256
370
   -1
100
AcDbLine
 10
243.6924438476562
 20
97.8404541015625
 11
242.6360321044922
 21
98.77035522460938
  0
LINE
  5
157
100
AcDbEntity
  8
0
  6
ByLayer
 62
  256
370
   -1
100
AcDbLine
 10
254.6937255859375
 20
122.2722244262695
 11
253.3364868164062
 21
121.8006286621094
  0
LINE
  5
158
100
AcDbEntity
  8
0
  6
ByLayer
 62
  256
370
   -1
100
AcDbLine
 10
261.3118896484375
 20
105.0551910400391
 11
261.019287109375
 21
103.6239242553711
  0
LINE
  5
159
100
AcDbEntity
  8
0
  6
ByLayer
 62
  256
370
   -1
100
AcDbLine
 10
239.5142059326172
 20
108.0395278930664
 11
239.8067932128906
 21
109.4707946777344
  0
LINE
  5
15A
100
AcDbEntity
  8
0
  6
ByLayer
 62
  256
370
   -1
100
AcDbLine
 10
246.1323547363281
 20
116.6820068359375
 11
247.4895935058594
 21
117.1536026000977
  0
LINE
  5
15B
100
AcDbEntity
  8
0
  6
ByLayer
 62
  256
370
   -1
100
AcDbLine
 10
280
 20
10
 11
280
 21
30
  0
LINE
  5
15C
100
AcDbEntity
  8
0
  6
ByLayer
 62
  256
370
   -1
100
AcDbLine
 10
270.4877319335938
 20
12.45196342468262
 11
270.9566955566406
 21
12.30969905853271
  0
LINE
  5
15D
100
AcDbEntity
  8
0
  6
ByLayer
 62
  256
370
   -1
100
AcDbLine
 10
267.5480346679688
 20
10.48772621154785
 11
267.6903076171875
 21
10.95670890808105
  0
LINE
  5
15E
100
AcDbEntity
  8
0
  6
ByLayer
 62
  256
370
   -1
100
AcDbLine
 10
272.4519653320312
 20
9.512273788452148
 11
272.3096923828125
 21
9.043291091918945
  0
LINE
  5
15F
100
AcDbEntity
  8
0
  6
ByLayer
 62
  256
370
   -1
100
AcDbLine
 10
269.5122680664062
 20
7.548036575317383
 11
269.0433044433594
 21
7.690300941467285
  0
LINE
  5
160
100
AcDbEntity
  8
0
  6
ByLayer
 62
  256
370
   -1
100
AcDbLine
 10
280
 20
170
 11
280
 21
190
  0
LINE
  5
161
100
AcDbEntity
  8
0
  6
ByLayer
 62
  256
370
   -1
100
AcDbLine
 10
272.4519653320312
 20
190.4877319335938
 11
272.5
 21
190
  0
LINE
  5
162
100
AcDbEntity
  8
0
  6
ByLayer
 62
  256
370
   -1
100
AcDbLine
 10
267.5480346679688
 20
189.5122680664062
 11
267.5
 21
190
  0
LINE
  5
163
100
AcDbEntity
  8
0
  6
ByLayer
 62
  256
370
   -1
100
AcDbLine
 10
270.4877319335938
 20
187.5480346679688
 11
270
 21
187.5
  0
LINE
  5
164
100
AcDbEntity
  8
0
  6
ByLayer
 62
  256
370
   -1
100
AcDbLine
 10
280
 20
170
 11
280
 21
80
  0
LINE
  5
165
100
AcDbEntity
  8
0
  6
ByLayer
 62
  256
370
   -1
100
AcDbLine
 10
215
 20
186
 11
193
 21
186
  0
LINE
  5
166
100
AcDbEntity
  8
0
  6
ByLayer
 62
  256
370
   -1
100
AcDbLine
 10
179.7466430664062
 20
164
 11
178.3693389892578
 21
164
  0
LINE
  5
167
100
AcDbEntity
  8
0
  6
ByLayer
 62
  256
370
   -1
100
AcDbLine
 10
237
 20
167.6707305908203
 11
237
 21
165.7855072021484
  0
LINE
  5
168
100
AcDbEntity
  8
0
  6
ByLayer
 62
  256
370
   -1
100
AcDbLine
 10
179.7466430664062
 20
164
 11
181.0569458007812
 21
164
  0
LINE
  5
169
100
AcDbEntity
  8
0
  6
ByLayer
 62
  256
370
   -1
100
AcDbLine
 10
7.54803466796875
 20
10.48772621154785
 11
7.5
 21
10
  0
LINE
  5
16A
100
AcDbEntity
  8
0
  6
ByLayer
 62
  256
370
   -1
100
AcDbLine
 10
12.45196533203125
 20
9.512273788452148
 11
12.5
 21
10
  0
LINE
  5
16B
100
AcDbEntity
  8
0
  6
ByLayer
 62
  256
370
   -1
100
AcDbLine
 10
9.51226806640625
 20
7.548036575317383
 11
10
 21
7.5
  0
LINE
  5
16C
100
AcDbEntity
  8
0
  6
ByLayer
 62
  256
370
   -1
100
AcDbLine
 10
0
 20
190
 11
10
 21
200
  0
LINE
  5
16D
100
AcDbEntity
  8
0
  6
ByLayer
 62
  256
370
   -1
100
AcDbLine
 10
7.6903076171875
 20
190.9567108154297
 11
7.54803466796875
 21
190.4877319335938
  0
LINE
  5
16E
100
AcDbEntity
  8
0
  6
ByLayer
 62
  256
370
   -1
100
AcDbLine
 10
10.95669555664062
 20
192.3096923828125
 11
10.48773193359375
 21
192.4519653320312
  0
LINE
  5
16F
100
AcDbEntity
  8
0
  6
ByLayer
 62
  256
370
   -1
100
AcDbLine
 10
12.3096923828125
 20
189.0432891845703
 11
12.45196533203125
 21
189.5122680664062
  0
LINE
  5
170
100
AcDbEntity
  8
0
  6
ByLayer
 62
  256
370
   -1
100
AcDbLine
 10
9.043304443359375
 20
187.6903076171875
 11
9.51226806640625
 21
187.5480346679688
  0
LINE
  5
171
100
AcDbEntity
  8
0
  6
ByLayer
 62
  256
370
   -1
100
AcDbLine
 10
94.73825073242188
 20
125.9446182250977
 11
95.9080810546875
 21
126.7348785400391
  0
LINE
  5
172
100
AcDbEntity
  8
0
  6
ByLayer
 62
  256
370
   -1
100
AcDbLine
 10
100.0863037109375
 20
136.9339599609375
 11
100.186767578125
 21
135.4417724609375
  0
LINE
  5
173
100
AcDbEntity
  8
0
  6
ByLayer
 62
  256
370
   -1
100
AcDbLine
 10
58.10391235351562
 20
102.4375991821289
 11
56.83381652832031
 21
101.8001098632812
  0
LINE
  5
174
100
AcDbEntity
  8
0
  6
ByLayer
 62
  256
370
   -1
100
AcDbLine
 10
63.55244445800781
 20
111.9347610473633
 11
63.45199584960938
 21
110.4425888061523
  0
LINE
  5
175
100
AcDbEntity
  8
0
  6
ByLayer
 62
  256
370
   -1
100
AcDbLine
 10
63.55244445800781
 20
111.9347610473633
 11
63.4520263671875
 21
113.4269256591797
  0
LINE
  5
176
100
AcDbEntity
  8
0
  6
ByLayer
 62
  256
370
   -1
100
AcDbLine
 10
47.00241088867188
 20
121.4319229125977
 11
48.27250671386719
 21
122.0694122314453
  0
LINE
  5
177
100
AcDbEntity
  8
0
  6
ByLayer
 62
  256
370
   -1
100
AcDbLine
 10
72.86190795898438
 20
102.4375991821289
 11
74.13200378417969
 21
101.8001098632812
  0
LINE
  5
178
100
AcDbEntity
  8
0
  6
ByLayer
 62
  256
370
   -1
100
AcDbLine
 10
47.00238037109375
 20
102.4375991821289
 11
45.83256530761719
 21
103.2278594970703
  0
LINE
  5
179
100
AcDbEntity
  8
0
  6
ByLayer
 62
  256
370
   -1
100
AcDbLine
 10
89.31150817871094
 20
113.4269180297852
 11
89.41194152832031
 21
111.9347610473633
  0
LINE
  5
17A
100
AcDbEntity
  8
0
  6
ByLayer
 62
  256
370
   -1
100
AcDbLine
 10
104.8431396484375
 20
90.5537109375
 11
103.4118804931641
 21
90.26112365722656
  0
LINE
  5
17B
100
AcDbEntity
  8
0
  6
ByLayer
 62
  256
370
   -1
100
AcDbLine
 10
58.10394287109375
 20
121.4319229125977
 11
59.27375793457031
 21
120.6416625976562
  0
LINE
  5
17C
100
AcDbEntity
  8
0
  6
ByLayer
 62
  256
370
   -1
100
AcDbLine
 10
83.96342468261719
 20
102.4375991821289
 11
85.13323974609375
 21
103.2278518676758
  0
LINE
  5
17D
100
AcDbEntity
  8
0
  6
ByLayer
 62
  256
370
   -1
100
AcDbLine
 10
41.55387878417969
 20
111.9347610473633
 11
41.65432739257812
 21
113.4269256591797
  0
LINE
  5
17E
100
AcDbEntity
  8
0
  6
ByLayer
 62
  256
370
   -1
100
AcDbLine
 10
83.63673400878906
 20
144.9389343261719
 11
82.4669189453125
 21
144.148681640625
  0
LINE
  5
17F
100
AcDbEntity
  8
0
  6
ByLayer
 62
  256
370
   -1
100
AcDbLine
 10
107.4704742431641
 20
91.66279602050781
 11
108.6402893066406
 21
92.45305633544922
  0
LINE
  5
180
100
AcDbEntity
  8
0
  6
ByLayer
 62
  256
370
   -1
100
AcDbLine
 10
78.18821716308594
 20
135.4417724609375
 11
78.28865051269531
 21
133.9496154785156
  0
LINE
  5
181
100
AcDbEntity
  8
0
  6
ByLayer
 62
  256
370
   -1
100
AcDbLine
 10
72.86192321777344
 20
121.4319229125977
 11
71.69210815429688
 21
120.6416625976562
  0
LINE
  5
182
100
AcDbEntity
  8
0
  6
ByLayer
 62
  256
370
   -1
100
AcDbLine
 10
89.31150817871094
 20
113.4269180297852
 11
89.0189208984375
 21
114.8581848144531
  0
LINE
  5
183
100
AcDbEntity
  8
0
  6
ByLayer
 62
  256
370
   -1
100
AcDbLine
 10
67.41340637207031
 20
111.9347610473633
 11
67.51383972167969
 21
110.4425964355469
  0
LINE
  5
184
100
AcDbEntity
  8
0
  6
ByLayer
 62
  256
370
   -1
100
AcDbLine
 10
83.96343994140625
 20
121.4319152832031
 11
82.69334411621094
 21
122.0694046020508
  0
LINE
  5
185
100
AcDbEntity
  8
0
  6
ByLayer
 62
  256
370
   -1
100
AcDbLine
 10
100.0863037109375
 20
136.9339599609375
 11
99.79373168945312
 21
138.365234375
  0
LINE
  5
186
100
AcDbEntity
  8
0
  6
ByLayer
 62
  256
370
   -1
100
AcDbLine
 10
83.63671875
 20
125.9446258544922
 11
84.90681457519531
 21
125.3071365356445
  0
LINE
  5
187
100
AcDbEntity
  8
0
  6
ByLayer
 62
  256
370
   -1
100
AcDbLine
 10
94.73825073242188
 20
144.9389495849609
 11
93.46815490722656
 21
145.5764465332031
  0
LINE
  5
188
100
AcDbEntity
  8
0
  6
ByLayer
 62
  256
370
   -1
100
AcDbLine
 10
107.4704742431641
 20
91.66279602050781
 11
106.2003784179688
 21
91.02530670166016
  0
LINE
  5
189
100
AcDbEntity
  8
0
  6
ByLayer
 62
  256
370
   -1
100
AcDbLine
 10
103.411865234375
 20
112.0587921142578
 11
101.9197082519531
 21
112.1592330932617
  0
LINE
  5
18A
100
AcDbEntity
  8
0
  6
ByLayer
 62
  256
370
   -1
100
AcDbLine
 10
168.8919677734375
 20
60.36230087280273
 11
168.4203796386719
 21
59.00505828857422
  0
LINE
  5
18B
100
AcDbEntity
  8
0
  6
ByLayer
 62
  256
370
   -1
100
AcDbLine
 10
166.062744140625
 20
71.06273651123047
 11
166.9926452636719
 21
70.00631713867188
  0
LINE
  5
18C
100
AcDbEntity
  8
0
  6
ByLayer
 62
  256
370
   -1
100
AcDbLine
 10
129.3937377929688
 20
47.92343139648438
 11
129.8653411865234
 21
49.28067398071289
  0
LINE
  5
18D
100
AcDbEntity
  8
0
  6
ByLayer
 62
  256
370
   -1
100
AcDbLine
 10
137.0765533447266
 20
55.60624694824219
 11
138.5078277587891
 21
55.89883041381836
  0
LINE
  5
18E
100
AcDbEntity
  8
0
  6
ByLayer
 62
  256
370
   -1
100
AcDbLine
 10
150.6062469482422
 20
42.07656860351562
 11
150.1346435546875
 21
40.71932601928711
  0
LINE
  5
18F
100
AcDbEntity
  8
0
  6
ByLayer
 62
  256
370
   -1
100
AcDbLine
 10
147.7770080566406
 20
52.77700424194336
 11
148.7069091796875
 21
51.7205810546875
  0
LINE
  5
190
100
AcDbEntity
  8
0
  6
ByLayer
 62
  256
370
   -1
100
AcDbLine
 10
132.2229919433594
 20
37.22299957275391
 11
131.2930908203125
 21
38.2794189453125
  0
LINE
  5
191
100
AcDbEntity
  8
0
  6
ByLayer
 62
  256
370
   -1
100
AcDbLine
 10
142.9234313964844
 20
34.39375305175781
 11
141.4921722412109
 21
34.10117340087891
  0
LINE
  5
192
100
AcDbEntity
  8
0
  6
ByLayer
 62
  256
370
   -1
100
AcDbLine
 10
150.5087280273438
 20
55.50873184204102
 11
149.5788269042969
 21
56.56515502929688
  0
LINE
  5
193
100
AcDbEntity
  8
0
  6
ByLayer
 62
  256
370
   -1
100
AcDbLine
 10
155.3623046875
 20
73.89198303222656
 11
156.7935638427734
 21
74.1845703125
  0
LINE
  5
194
100
AcDbEntity
  8
0
  6
ByLayer
 62
  256
370
   -1
100
AcDbLine
 10
147.6794891357422
 20
66.20916748046875
 11
148.1510772705078
 21
67.56640625
  0
LINE
  5
195
100
AcDbEntity
  8
0
  6
ByLayer
 62
  256
370
   -1
100
AcDbLine
 10
161.2091674804688
 20
52.67948532104492
 11
159.7778930664062
 21
52.38690185546875
  0
LINE
  5
196
100
AcDbEntity
  8
0
  6
ByLayer
 62
  256
370
   -1
100
AcDbLine
 10
172.8301391601562
 20
111.7662124633789
 11
174.2614135742188
 21
112.0587921142578
  0
LINE
  5
197
100
AcDbEntity
  8
0
  6
ByLayer
 62
  256
370
   -1
100
AcDbLine
 10
165.1473236083984
 20
104.0833892822266
 11
165.6189270019531
 21
105.4406280517578
  0
LINE
  5
198
100
AcDbEntity
  8
0
  6
ByLayer
 62
  256
370
   -1
100
AcDbLine
 10
202.1848449707031
 20
101.3285064697266
 11
200.7535705566406
 21
101.0359268188477
  0
LINE
  5
199
100
AcDbEntity
  8
0
  6
ByLayer
 62
  256
370
   -1
100
AcDbLine
 10
165.1473236083984
 20
129.9429016113281
 11
165.6189270019531
 21
131.3001403808594
  0
LINE
  5
19A
100
AcDbEntity
  8
0
  6
ByLayer
 62
  256
370
   -1
100
AcDbLine
 10
183.5305786132812
 20
108.9369583129883
 11
184.4604797363281
 21
107.8805389404297
  0
LINE
  5
19B
100
AcDbEntity
  8
0
  6
ByLayer
 62
  256
370
   -1
100
AcDbLine
 10
167.9765625
 20
93.38295745849609
 11
167.0466613769531
 21
94.43937683105469
  0
LINE
  5
19C
100
AcDbEntity
  8
0
  6
ByLayer
 62
  256
370
   -1
100
AcDbLine
 10
207.0384216308594
 20
119.7117614746094
 11
207.9683227539062
 21
118.6553421020508
  0
LINE
  5
19D
100
AcDbEntity
  8
0
  6
ByLayer
 62
  256
370
   -1
100
AcDbLine
 10
186.3598327636719
 20
98.23652648925781
 11
185.8882293701172
 21
96.87928771972656
  0
LINE
  5
19E
100
AcDbEntity
  8
0
  6
ByLayer
 62
  256
370
   -1
100
AcDbLine
 10
178.677001953125
 20
90.5537109375
 11
177.2457427978516
 21
90.26112365722656
  0
LINE
  5
19F
100
AcDbEntity
  8
0
  6
ByLayer
 62
  256
370
   -1
100
AcDbLine
 10
178.677001953125
 20
116.4132308959961
 11
177.2457427978516
 21
116.1206436157227
  0
LINE
  5
1A0
100
AcDbEntity
  8
0
  6
ByLayer
 62
  256
370
   -1
100
AcDbLine
 10
217.3439331054688
 20
130.0172729492188
 11
216.4140319824219
 21
131.0736999511719
  0
LINE
  5
1A1
100
AcDbEntity
  8
0
  6
ByLayer
 62
  256
370
   -1
100
AcDbLine
 10
209.8676605224609
 20
109.0113220214844
 11
209.3960571289062
 21
107.6540832519531
  0
LINE
  5
1A2
100
AcDbEntity
  8
0
  6
ByLayer
 62
  256
370
   -1
100
AcDbLine
 10
188.6551513671875
 20
140.7177124023438
 11
189.1267547607422
 21
142.074951171875
  0
LINE
  5
1A3
100
AcDbEntity
  8
0
  6
ByLayer
 62
  256
370
   -1
100
AcDbLine
 10
191.4844055175781
 20
104.1577606201172
 11
190.5545043945312
 21
105.2141799926758
  0
LINE
  5
1A4
100
AcDbEntity
  8
0
  6
ByLayer
 62
  256
370
   -1
100
AcDbLine
 10
196.3379821777344
 20
122.5410079956055
 11
197.7692413330078
 21
122.8335876464844
  0
LINE
  5
1A5
100
AcDbEntity
  8
0
  6
ByLayer
 62
  256
370
   -1
100
AcDbLine
 10
247.4895935058594
 20
117.1536026000977
 11
248.9208679199219
 21
117.4461898803711
  0
LINE
  5
1A6
100
AcDbEntity
  8
0
  6
ByLayer
 62
  256
370
   -1
100
AcDbLine
 10
188.6551513671875
 20
114.8581924438477
 11
189.1267547607422
 21
116.2154312133789
  0
LINE
  5
1A7
100
AcDbEntity
  8
0
  6
ByLayer
 62
  256
370
   -1
100
AcDbLine
 10
186.3598327636719
 20
124.0960388183594
 11
185.8882293701172
 21
122.7388000488281
  0
LINE
  5
1A8
100
AcDbEntity
  8
0
  6
ByLayer
 62
  256
370
   -1
100
AcDbLine
 10
214.5146789550781
 20
114.8581924438477
 11
214.9862670898438
 21
116.2154312133789
  0
LINE
  5
1A9
100
AcDbEntity
  8
0
  6
ByLayer
 62
  256
370
   -1
100
AcDbLine
 10
172.8301391601562
 20
137.6257019042969
 11
174.2614135742188
 21
137.9182891845703
  0
LINE
  5
1AA
100
AcDbEntity
  8
0
  6
ByLayer
 62
  256
370
   -1
100
AcDbLine
 10
207.0384216308594
 20
145.5712890625
 11
207.9683227539062
 21
144.5148620605469
  0
LINE
  5
1AB
100
AcDbEntity
  8
0
  6
ByLayer
 62
  256
370
   -1
100
AcDbLine
 10
167.9765625
 20
119.2424697875977
 11
167.0466613769531
 21
120.2988891601562
  0
LINE
  5
1AC
100
AcDbEntity
  8
0
  6
ByLayer
 62
  256
370
   -1
100
AcDbLine
 10
222.197509765625
 20
148.4005126953125
 11
223.6287536621094
 21
148.6930847167969
  0
LINE
  5
1AD
100
AcDbEntity
  8
0
  6
ByLayer
 62
  256
370
   -1
100
AcDbLine
 10
183.5305786132812
 20
134.7964782714844
 11
184.4604797363281
 21
133.7400512695312
  0
LINE
  5
1AE
100
AcDbEntity
  8
0
  6
ByLayer
 62
  256
370
   -1
100
AcDbLine
 10
214.5146789550781
 20
140.7177124023438
 11
214.9862670898438
 21
142.074951171875
  0
LINE
  5
1AF
100
AcDbEntity
  8
0
  6
ByLayer
 62
  256
370
   -1
100
AcDbLine
 10
196.3379821777344
 20
148.4005126953125
 11
197.7692413330078
 21
148.6930847167969
  0
LINE
  5
1B0
100
AcDbEntity
  8
0
  6
ByLayer
 62
  256
370
   -1
100
AcDbLine
 10
209.8676605224609
 20
134.870849609375
 11
209.3960571289062
 21
133.5136108398438
  0
LINE
  5
1B1
100
AcDbEntity
  8
0
  6
ByLayer
 62
  256
370
   -1
100
AcDbLine
 10
232.8979187011719
 20
119.7117614746094
 11
233.8278198242188
 21
118.6553421020508
  0
LINE
  5
1B2
100
AcDbEntity
  8
0
  6
ByLayer
 62
  256
370
   -1
100
AcDbLine
 10
191.4844055175781
 20
130.0172729492188
 11
190.5545043945312
 21
131.0736999511719
  0
LINE
  5
1B3
100
AcDbEntity
  8
0
  6
ByLayer
 62
  256
370
   -1
100
AcDbLine
 10
232.8979187011719
 20
145.5712890625
 11
233.8278198242188
 21
144.5148620605469
  0
LINE
  5
1B4
100
AcDbEntity
  8
0
  6
ByLayer
 62
  256
370
   -1
100
AcDbLine
 10
217.3439331054688
 20
104.1577606201172
 11
216.4140319824219
 21
105.2141799926758
  0
LINE
  5
1B5
100
AcDbEntity
  8
0
  6
ByLayer
 62
  256
370
   -1
100
AcDbLine
 10
202.1848449707031
 20
127.1880340576172
 11
200.7535705566406
 21
126.8954467773438
  0
LINE
  5
1B6
100
AcDbEntity
  8
0
  6
ByLayer
 62
  256
370
   -1
100
AcDbLine
 10
239.8067932128906
 20
135.3303070068359
 11
240.2783813476562
 21
136.6875457763672
  0
LINE
  5
1B7
100
AcDbEntity
  8
0
  6
ByLayer
 62
  256
370
   -1
100
AcDbLine
 10
235.7271728515625
 20
134.870849609375
 11
235.2555847167969
 21
133.5136108398438
  0
LINE
  5
1B8
100
AcDbEntity
  8
0
  6
ByLayer
 62
  256
370
   -1
100
AcDbLine
 10
242.6360321044922
 20
124.6298751831055
 11
241.7061309814453
 21
125.6862945556641
  0
LINE
  5
1B9
100
AcDbEntity
  8
0
  6
ByLayer
 62
  256
370
   -1
100
AcDbLine
 10
228.0443725585938
 20
127.1880340576172
 11
226.6130981445312
 21
126.8954467773438
  0
LINE
  5
1BA
100
AcDbEntity
  8
0
  6
ByLayer
 62
  256
370
   -1
100
AcDbLine
 10
222.197509765625
 20
122.5410079956055
 11
223.6287536621094
 21
122.8335876464844
  0
LINE
  5
1BB
100
AcDbEntity
  8
0
  6
ByLayer
 62
  256
370
   -1
100
AcDbLine
 10
235.7271728515625
 20
109.0113220214844
 11
235.2555847167969
 21
107.6540832519531
  0
LINE
  5
1BC
100
AcDbEntity
  8
0
  6
ByLayer
 62
  256
370
   -1
100
AcDbLine
 10
261.019287109375
 20
129.4834442138672
 11
260.5476989746094
 21
128.1262054443359
  0
LINE
  5
1BD
100
AcDbEntity
  8
0
  6
ByLayer
 62
  256
370
   -1
100
AcDbLine
 10
228.0443725585938
 20
101.3285064697266
 11
226.6130981445312
 21
101.0359268188477
  0
LINE
  5
1BE
100
AcDbEntity
  8
0
  6
ByLayer
 62
  256
370
   -1
100
AcDbLine
 10
253.3364868164062
 20
121.8006286621094
 11
251.9052124023438
 21
121.5080490112305
  0
LINE
  5
1BF
100
AcDbEntity
  8
0
  6
ByLayer
 62
  256
370
   -1
100
AcDbLine
 10
261.019287109375
 20
103.6239242553711
 11
260.5476989746094
 21
102.2666778564453
  0
LINE
  5
1C0
100
AcDbEntity
  8
0
  6
ByLayer
 62
  256
370
   -1
100
AcDbLine
 10
258.1900329589844
 20
140.1838836669922
 11
259.1199340820312
 21
139.1274719238281
  0
LINE
  5
1C1
100
AcDbEntity
  8
0
  6
ByLayer
 62
  256
370
   -1
100
AcDbLine
 10
239.8067932128906
 20
109.4707946777344
 11
240.2783813476562
 21
110.8280334472656
  0
LINE
  5
1C2
100
AcDbEntity
  8
0
  6
ByLayer
 62
  256
370
   -1
100
AcDbLine
 10
247.4895935058594
 20
143.0131225585938
 11
248.9208679199219
 21
143.3056945800781
  0
LINE
  5
1C3
100
AcDbEntity
  8
0
  6
ByLayer
 62
  256
370
   -1
100
AcDbLine
 10
253.3364868164062
 20
95.94110870361328
 11
251.9052124023438
 21
95.64852142333984
  0
LINE
  5
1C4
100
AcDbEntity
  8
0
  6
ByLayer
 62
  256
370
   -1
100
AcDbLine
 10
242.6360321044922
 20
98.77035522460938
 11
241.7061309814453
 21
99.82677459716797
  0
LINE
  5
1C5
100
AcDbEntity
  8
0
  6
ByLayer
 62
  256
370
   -1
100
AcDbLine
 10
258.1900329589844
 20
114.3243637084961
 11
259.1199340820312
 21
113.2679443359375
  0
LINE
  5
1C6
100
AcDbEntity
  8
0
  6
ByLayer
 62
  256
370
   -1
100
AcDbLine
 10
250
 20
0
 11
150
 21
0
  0
LINE
  5
1C7
100
AcDbEntity
  8
0
  6
ByLayer
 62
  256
370
   -1
100
AcDbLine
 10
270.9566955566406
 20
12.30969905853271
 11
271.388916015625
 21
12.07867431640625
  0
LINE
  5
1C8
100
AcDbEntity
  8
0
  6
ByLayer
 62
  256
370
   -1
100
AcDbLine
 10
267.6903076171875
 20
10.95670890808105
 11
267.9213256835938
 21
11.38892555236816
  0
LINE
  5
1C9
100
AcDbEntity
  8
0
  6
ByLayer
 62
  256
370
   -1
100
AcDbLine
 10
272.3096923828125
 20
9.043291091918945
 11
272.0786743164062
 21
8.611074447631836
  0
LINE
  5
1CA
100
AcDbEntity
  8
0
  6
ByLayer
 62
  256
370
   -1
100
AcDbLine
 10
269.0433044433594
 20
7.690300941467285
 11
268.611083984375
 21
7.92132568359375
  0
LINE
  5
1CB
100
AcDbEntity
  8
0
  6
ByLayer
 62
  256
370
   -1
100
AcDbLine
 10
270
 20
192.5
 11
269.5122680664062
 21
192.4519653320312
  0
LINE
  5
1CC
100
AcDbEntity
  8
0
  6
ByLayer
 62
  256
370
   -1
100
AcDbLine
 10
270
 20
192.5
 11
270.4877319335938
 21
192.4519653320312
  0
LINE
  5
1CD
100
AcDbEntity
  8
0
  6
ByLayer
 62
  256
370
   -1
100
AcDbLine
 10
267.5
 20
190
 11
267.5480346679688
 21
190.4877319335938
  0
LINE
  5
1CE
100
AcDbEntity
  8
0
  6
ByLayer
 62
  256
370
   -1
100
AcDbLine
 10
272.5
 20
190
 11
272.4519653320312
 21
189.5122680664062
  0
LINE
  5
1CF
100
AcDbEntity
  8
0
  6
ByLayer
 62
  256
370
   -1
100
AcDbLine
 10
270
 20
187.5
 11
269.5122680664062
 21
187.5480346679688
  0
LINE
  5
1D0
100
AcDbEntity
  8
0
  6
ByLayer
 62
  256
370
   -1
100
AcDbLine
 10
215
 20
164
 11
193
 21
164
  0
LINE
  5
1D1
100
AcDbEntity
  8
0
  6
ByLayer
 62
  256
370
   -1
100
AcDbLine
 10
215
 20
164
 11
216.7761688232422
 21
164
  0
LINE
  5
1D2
100
AcDbEntity
  8
0
  6
ByLayer
 62
  256
370
   -1
100
AcDbLine
 10
234.8629150390625
 20
164
 11
236.0414123535156
 21
164
  0
LINE
  5
1D3
100
AcDbEntity
  8
0
  6
ByLayer
 62
  256
370
   -1
100
AcDbLine
 10
10
 20
0
 11
30
 21
0
  0
LINE
  5
1D4
100
AcDbEntity
  8
0
  6
ByLayer
 62
  256
370
   -1
100
AcDbLine
 10
10
 20
12.5
 11
10.48773193359375
 21
12.45196342468262
  0
LINE
  5
1D5
100
AcDbEntity
  8
0
  6
ByLayer
 62
  256
370
   -1
100
AcDbLine
 10
10
 20
12.5
 11
9.51226806640625
 21
12.45196342468262
  0
LINE
  5
1D6
100
AcDbEntity
  8
0
  6
ByLayer
 62
  256
370
   -1
100
AcDbLine
 10
12.5
 20
10
 11
12.45196533203125
 21
10.48772621154785
  0
LINE
  5
1D7
100
AcDbEntity
  8
0
  6
ByLayer
 62
  256
370
   -1
100
AcDbLine
 10
7.5
 20
10
 11
7.54803466796875
 21
9.512273788452148
  0
LINE
  5
1D8
100
AcDbEntity
  8
0
  6
ByLayer
 62
  256
370
   -1
100
AcDbLine
 10
10
 20
0
 11
0
 21
10
  0
LINE
  5
1D9
100
AcDbEntity
  8
0
  6
ByLayer
 62
  256
370
   -1
100
AcDbLine
 10
10
 20
7.5
 11
10.48773193359375
 21
7.548036575317383
  0
LINE
  5
1DA
100
AcDbEntity
  8
0
  6
ByLayer
 62
  256
370
   -1
100
AcDbLine
 10
7.54803466796875
 20
190.4877319335938
 11
7.5
 21
190
  0
LINE
  5
1DB
100
AcDbEntity
  8
0
  6
ByLayer
 62
  256
370
   -1
100
AcDbLine
 10
12.45196533203125
 20
189.5122680664062
 11
12.5
 21
190
  0
LINE
  5
1DC
100
AcDbEntity
  8
0
  6
ByLayer
 62
  256
370
   -1
100
AcDbLine
 10
9.51226806640625
 20
187.5480346679688
 11
10
 21
187.5
  0
LINE
  5
1DD
100
AcDbEntity
  8
0
  6
ByLayer
 62
  256
370
   -1
100
AcDbLine
 10
140
 20
0
 11
130
 21
0
  0
LINE
  5
1DE
100
AcDbEntity
  8
0
  6
ByLayer
 62
  256
370
   -1
100
AcDbLine
 10
82.4669189453125
 20
144.148681640625
 11
81.41049194335938
 21
143.2187805175781
  0
LINE
  5
1DF
100
AcDbEntity
  8
0
  6
ByLayer
 62
  256
370
   -1
100
AcDbLine
 10
100.186767578125
 20
135.4417724609375
 11
100.0863189697266
 21
133.9496154785156
  0
LINE
  5
1E0
100
AcDbEntity
  8
0
  6
ByLayer
 62
  256
370
   -1
100
AcDbLine
 10
101.9197082519531
 20
112.1592330932617
 11
100.4275207519531
 21
112.0587921142578
  0
LINE
  5
1E1
100
AcDbEntity
  8
0
  6
ByLayer
 62
  256
370
   -1
100
AcDbLine
 10
63.45199584960938
 20
110.4425888061523
 11
63.15940856933594
 21
109.0113220214844
  0
LINE
  5
1E2
100
AcDbEntity
  8
0
  6
ByLayer
 62
  256
370
   -1
100
AcDbLine
 10
56.83381652832031
 20
101.8001098632812
 11
55.47657775878906
 21
101.3285064697266
  0
LINE
  5
1E3
100
AcDbEntity
  8
0
  6
ByLayer
 62
  256
370
   -1
100
AcDbLine
 10
59.27375793457031
 20
120.6416625976562
 11
60.33018493652344
 21
119.7117614746094
  0
LINE
  5
1E4
100
AcDbEntity
  8
0
  6
ByLayer
 62
  256
370
   -1
100
AcDbLine
 10
67.51383972167969
 20
110.4425964355469
 11
67.80642700195312
 21
109.0113296508789
  0
LINE
  5
1E5
100
AcDbEntity
  8
0
  6
ByLayer
 62
  256
370
   -1
100
AcDbLine
 10
78.28865051269531
 20
133.9496154785156
 11
78.58123779296875
 21
132.5183410644531
  0
LINE
  5
1E6
100
AcDbEntity
  8
0
  6
ByLayer
 62
  256
370
   -1
100
AcDbLine
 10
74.13200378417969
 20
101.8001098632812
 11
75.48924255371094
 21
101.3285140991211
  0
LINE
  5
1E7
100
AcDbEntity
  8
0
  6
ByLayer
 62
  256
370
   -1
100
AcDbLine
 10
41.65432739257812
 20
113.4269256591797
 11
41.94691467285156
 21
114.8581924438477
  0
LINE
  5
1E8
100
AcDbEntity
  8
0
  6
ByLayer
 62
  256
370
   -1
100
AcDbLine
 10
45.83256530761719
 20
103.2278594970703
 11
44.77613830566406
 21
104.1577606201172
  0
LINE
  5
1E9
100
AcDbEntity
  8
0
  6
ByLayer
 62
  256
370
   -1
100
AcDbLine
 10
85.13323974609375
 20
103.2278518676758
 11
86.18966674804688
 21
104.1577529907227
  0
LINE
  5
1EA
100
AcDbEntity
  8
0
  6
ByLayer
 62
  256
370
   -1
100
AcDbLine
 10
71.69210815429688
 20
120.6416625976562
 11
70.63568115234375
 21
119.7117614746094
  0
LINE
  5
1EB
100
AcDbEntity
  8
0
  6
ByLayer
 62
  256
370
   -1
100
AcDbLine
 10
48.27250671386719
 20
122.0694122314453
 11
49.62974548339844
 21
122.5410079956055
  0
LINE
  5
1EC
100
AcDbEntity
  8
0
  6
ByLayer
 62
  256
370
   -1
100
AcDbLine
 10
89.41194152832031
 20
111.9347610473633
 11
89.31149291992188
 21
110.4425888061523
  0
LINE
  5
1ED
100
AcDbEntity
  8
0
  6
ByLayer
 62
  256
370
   -1
100
AcDbLine
 10
82.69334411621094
 20
122.0694046020508
 11
81.33610534667969
 21
122.5410079956055
  0
LINE
  5
1EE
100
AcDbEntity
  8
0
  6
ByLayer
 62
  256
370
   -1
100
AcDbLine
 10
95.19912719726562
 20
92.45305633544922
 11
96.36894226074219
 21
91.66279602050781
  0
LINE
  5
1EF
100
AcDbEntity
  8
0
  6
ByLayer
 62
  256
370
   -1
100
AcDbLine
 10
93.46815490722656
 20
145.5764465332031
 11
92.11091613769531
 21
146.0480346679688
  0
LINE
  5
1F0
100
AcDbEntity
  8
0
  6
ByLayer
 62
  256
370
   -1
100
AcDbLine
 10
95.9080810546875
 20
126.7348785400391
 11
96.96449279785156
 21
127.6647796630859
  0
LINE
  5
1F1
100
AcDbEntity
  8
0
  6
ByLayer
 62
  256
370
   -1
100
AcDbLine
 10
84.90681457519531
 20
125.3071365356445
 11
86.26405334472656
 21
124.8355331420898
  0
LINE
  5
1F2
100
AcDbEntity
  8
0
  6
ByLayer
 62
  256
370
   -1
100
AcDbLine
 10
110.6266174316406
 20
94.43937683105469
 11
111.4168701171875
 21
95.60919189453125
  0
LINE
  5
1F3
100
AcDbEntity
  8
0
  6
ByLayer
 62
  256
370
   -1
100
AcDbLine
 10
110.6266174316406
 20
94.43937683105469
 11
109.6967163085938
 21
93.38295745849609
  0
LINE
  5
1F4
100
AcDbEntity
  8
0
  6
ByLayer
 62
  256
370
   -1
100
AcDbLine
 10
95.19912719726562
 20
92.45305633544922
 11
94.1427001953125
 21
93.38295745849609
  0
LINE
  5
1F5
100
AcDbEntity
  8
0
  6
ByLayer
 62
  256
370
   -1
100
AcDbLine
 10
93.21279907226562
 20
107.8805389404297
 11
94.1427001953125
 21
108.9369659423828
  0
LINE
  5
1F6
100
AcDbEntity
  8
0
  6
ByLayer
 62
  256
370
   -1
100
AcDbLine
 10
93.21279907226562
 20
107.8805389404297
 11
92.42253112792969
 21
106.7107238769531
  0
LINE
  5
1F7
100
AcDbEntity
  8
0
  6
ByLayer
 62
  256
370
   -1
100
AcDbLine
 10
141.4921722412109
 20
34.10117340087891
 11
140
 21
34.00072479248047
  0
LINE
  5
1F8
100
AcDbEntity
  8
0
  6
ByLayer
 62
  256
370
   -1
100
AcDbLine
 10
159.7778930664062
 20
52.38690185546875
 11
158.2857360839844
 21
52.28646087646484
  0
LINE
  5
1F9
100
AcDbEntity
  8
0
  6
ByLayer
 62
  256
370
   -1
100
AcDbLine
 10
129.8653411865234
 20
49.28067398071289
 11
130.5028228759766
 21
50.55076599121094
  0
LINE
  5
1FA
100
AcDbEntity
  8
0
  6
ByLayer
 62
  256
370
   -1
100
AcDbLine
 10
131.2930908203125
 20
38.2794189453125
 11
130.5028381347656
 21
39.44923400878906
  0
LINE
  5
1FB
100
AcDbEntity
  8
0
  6
ByLayer
 62
  256
370
   -1
100
AcDbLine
 10
148.7069091796875
 20
51.7205810546875
 11
149.4971618652344
 21
50.55076599121094
  0
LINE
  5
1FC
100
AcDbEntity
  8
0
  6
ByLayer
 62
  256
370
   -1
100
AcDbLine
 10
168.4203796386719
 20
59.00505828857422
 11
167.7828979492188
 21
57.73497009277344
  0
LINE
  5
1FD
100
AcDbEntity
  8
0
  6
ByLayer
 62
  256
370
   -1
100
AcDbLine
 10
166.9926452636719
 20
70.00631713867188
 11
167.7828979492188
 21
68.83650207519531
  0
LINE
  5
1FE
100
AcDbEntity
  8
0
  6
ByLayer
 62
  256
370
   -1
100
AcDbLine
 10
156.7935638427734
 20
74.1845703125
 11
158.2857360839844
 21
74.28501129150391
  0
LINE
  5
1FF
100
AcDbEntity
  8
0
  6
ByLayer
 62
  256
370
   -1
100
AcDbLine
 10
138.5078277587891
 20
55.89883041381836
 11
140
 21
55.99927520751953
  0
LINE
  5
200
100
AcDbEntity
  8
0
  6
ByLayer
 62
  256
370
   -1
100
AcDbLine
 10
149.5788269042969
 20
56.56515502929688
 11
148.78857421875
 21
57.73497009277344
  0
LINE
  5
201
100
AcDbEntity
  8
0
  6
ByLayer
 62
  256
370
   -1
100
AcDbLine
 10
150.1346435546875
 20
40.71932601928711
 11
149.4971618652344
 21
39.44923400878906
  0
LINE
  5
202
100
AcDbEntity
  8
0
  6
ByLayer
 62
  256
370
   -1
100
AcDbLine
 10
148.1510772705078
 20
67.56640625
 11
148.78857421875
 21
68.83650207519531
  0
LINE
  5
203
100
AcDbEntity
  8
0
  6
ByLayer
 62
  256
370
   -1
100
AcDbLine
 10
174.2614135742188
 20
112.0587921142578
 11
175.7535705566406
 21
112.1592330932617
  0
LINE
  5
204
100
AcDbEntity
  8
0
  6
ByLayer
 62
  256
370
   -1
100
AcDbLine
 10
184.4604797363281
 20
107.8805389404297
 11
185.250732421875
 21
106.7107162475586
  0
LINE
  5
205
100
AcDbEntity
  8
0
  6
ByLayer
 62
  256
370
   -1
100
AcDbLine
 10
167.0466613769531
 20
94.43937683105469
 11
166.2564086914062
 21
95.60919189453125
  0
LINE
  5
206
100
AcDbEntity
  8
0
  6
ByLayer
 62
  256
370
   -1
100
AcDbLine
 10
165.6189270019531
 20
105.4406280517578
 11
166.2564086914062
 21
106.7107238769531
  0
LINE
  5
207
100
AcDbEntity
  8
0
  6
ByLayer
 62
  256
370
   -1
100
AcDbLine
 10
235.2555847167969
 20
133.5136108398438
 11
234.6180877685547
 21
132.2435150146484
  0
LINE
  5
208
100
AcDbEntity
  8
0
  6
ByLayer
 62
  256
370
   -1
100
AcDbLine
 10
200.7535705566406
 20
101.0359268188477
 11
199.2614135742188
 21
100.9354858398438
  0
LINE
  5
209
100
AcDbEntity
  8
0
  6
ByLayer
 62
  256
370
   -1
100
AcDbLine
 10
177.2457427978516
 20
116.1206436157227
 11
175.7535705566406
 21
116.0202026367188
  0
LINE
  5
20A
100
AcDbEntity
  8
0
  6
ByLayer
 62
  256
370
   -1
100
AcDbLine
 10
177.2457427978516
 20
90.26112365722656
 11
175.7535705566406
 21
90.16068267822266
  0
LINE
  5
20B
100
AcDbEntity
  8
0
  6
ByLayer
 62
  256
370
   -1
100
AcDbLine
 10
185.8882293701172
 20
122.7388000488281
 11
185.250732421875
 21
121.4687118530273
  0
LINE
  5
20C
100
AcDbEntity
  8
0
  6
ByLayer
 62
  256
370
   -1
100
AcDbLine
 10
209.3960571289062
 20
107.6540832519531
 11
208.7585754394531
 21
106.3839950561523
  0
LINE
  5
20D
100
AcDbEntity
  8
0
  6
ByLayer
 62
  256
370
   -1
100
AcDbLine
 10
185.8882293701172
 20
96.87928771972656
 11
185.250732421875
 21
95.60919189453125
  0
LINE
  5
20E
100
AcDbEntity
  8
0
  6
ByLayer
 62
  256
370
   -1
100
AcDbLine
 10
207.9683227539062
 20
144.5148620605469
 11
208.7585754394531
 21
143.3450469970703
  0
LINE
  5
20F
100
AcDbEntity
  8
0
  6
ByLayer
 62
  256
370
   -1
100
AcDbLine
 10
184.4604797363281
 20
133.7400512695312
 11
185.250732421875
 21
132.5702514648438
  0
LINE
  5
210
100
AcDbEntity
  8
0
  6
ByLayer
 62
  256
370
   -1
100
AcDbLine
 10
248.9208679199219
 20
117.4461898803711
 11
250.4130249023438
 21
117.546630859375
  0
LINE
  5
211
100
AcDbEntity
  8
0
  6
ByLayer
 62
  256
370
   -1
100
AcDbLine
 10
189.1267547607422
 20
116.2154312133789
 11
189.7642517089844
 21
117.4855270385742
  0
LINE
  5
212
100
AcDbEntity
  8
0
  6
ByLayer
 62
  256
370
   -1
100
AcDbLine
 10
207.9683227539062
 20
118.6553421020508
 11
208.7585754394531
 21
117.4855270385742
  0
LINE
  5
213
100
AcDbEntity
  8
0
  6
ByLayer
 62
  256
370
   -1
100
AcDbLine
 10
190.5545043945312
 20
105.2141799926758
 11
189.7642517089844
 21
106.3839950561523
  0
LINE
  5
214
100
AcDbEntity
  8
0
  6
ByLayer
 62
  256
370
   -1
100
AcDbLine
 10
197.7692413330078
 20
148.6930847167969
 11
199.2614135742188
 21
148.7935485839844
  0
LINE
  5
215
100
AcDbEntity
  8
0
  6
ByLayer
 62
  256
370
   -1
100
AcDbLine
 10
197.7692413330078
 20
122.8335876464844
 11
199.2614135742188
 21
122.9340362548828
  0
LINE
  5
216
100
AcDbEntity
  8
0
  6
ByLayer
 62
  256
370
   -1
100
AcDbLine
 10
226.6130981445312
 20
126.8954467773438
 11
225.1209259033203
 21
126.7949981689453
  0
LINE
  5
217
100
AcDbEntity
  8
0
  6
ByLayer
 62
  256
370
   -1
100
AcDbLine
 10
165.6189270019531
 20
131.3001403808594
 11
166.2564086914062
 21
132.5702362060547
  0
LINE
  5
218
100
AcDbEntity
  8
0
  6
ByLayer
 62
  256
370
   -1
100
AcDbLine
 10
167.0466613769531
 20
120.2988891601562
 11
166.2564086914062
 21
121.4687118530273
  0
LINE
  5
219
100
AcDbEntity
  8
0
  6
ByLayer
 62
  256
370
   -1
100
AcDbLine
 10
209.3960571289062
 20
133.5136108398438
 11
208.7585754394531
 21
132.2435150146484
  0
LINE
  5
21A
100
AcDbEntity
  8
0
  6
ByLayer
 62
  256
370
   -1
100
AcDbLine
 10
174.2614135742188
 20
137.9182891845703
 11
175.7535705566406
 21
138.0187377929688
  0
LINE
  5
21B
100
AcDbEntity
  8
0
  6
ByLayer
 62
  256
370
   -1
100
AcDbLine
 10
200.7535705566406
 20
126.8954467773438
 11
199.2614135742188
 21
126.7949981689453
  0
LINE
  5
21C
100
AcDbEntity
  8
0
  6
ByLayer
 62
  256
370
   -1
100
AcDbLine
 10
216.4140319824219
 20
105.2141799926758
 11
215.623779296875
 21
106.3839950561523
  0
LINE
  5
21D
100
AcDbEntity
  8
0
  6
ByLayer
 62
  256
370
   -1
100
AcDbLine
 10
190.5545043945312
 20
131.0736999511719
 11
189.7642517089844
 21
132.2434997558594
  0
LINE
  5
21E
100
AcDbEntity
  8
0
  6
ByLayer
 62
  256
370
   -1
100
AcDbLine
 10
233.8278198242188
 20
144.5148620605469
 11
234.6180877685547
 21
143.3450469970703
  0
LINE
  5
21F
100
AcDbEntity
  8
0
  6
ByLayer
 62
  256
370
   -1
100
AcDbLine
 10
189.1267547607422
 20
142.074951171875
 11
189.7642517089844
 21
143.3450317382812
  0
LINE
  5
220
100
AcDbEntity
  8
0
  6
ByLayer
 62
  256
370
   -1
100
AcDbLine
 10
233.8278198242188
 20
118.6553421020508
 11
234.6180877685547
 21
117.4855270385742
  0
LINE
  5
221
100
AcDbEntity
  8
0
  6
ByLayer
 62
  256
370
   -1
100
AcDbLine
 10
223.6287536621094
 20
122.8335876464844
 11
225.1209259033203
 21
122.9340362548828
  0
LINE
  5
222
100
AcDbEntity
  8
0
  6
ByLayer
 62
  256
370
   -1
100
AcDbLine
 10
216.4140319824219
 20
131.0736999511719
 11
215.623779296875
 21
132.2434997558594
  0
LINE
  5
223
100
AcDbEntity
  8
0
  6
ByLayer
 62
  256
370
   -1
100
AcDbLine
 10
226.6130981445312
 20
101.0359268188477
 11
225.1209259033203
 21
100.9354858398438
  0
LINE
  5
224
100
AcDbEntity
  8
0
  6
ByLayer
 62
  256
370
   -1
100
AcDbLine
 10
235.2555847167969
 20
107.6540832519531
 11
234.6180877685547
 21
106.3839950561523
  0
LINE
  5
225
100
AcDbEntity
  8
0
  6
ByLayer
 62
  256
370
   -1
100
AcDbLine
 10
223.6287536621094
 20
148.6930847167969
 11
225.1209259033203
 21
148.7935485839844
  0
LINE
  5
226
100
AcDbEntity
  8
0
  6
ByLayer
 62
  256
370
   -1
100
AcDbLine
 10
214.9862670898438
 20
142.074951171875
 11
215.623779296875
 21
143.3450317382812
  0
LINE
  5
227
100
AcDbEntity
  8
0
  6
ByLayer
 62
  256
370
   -1
100
AcDbLine
 10
214.9862670898438
 20
116.2154312133789
 11
215.623779296875
 21
117.4855270385742
  0
LINE
  5
228
100
AcDbEntity
  8
0
  6
ByLayer
 62
  256
370
   -1
100
AcDbLine
 10
251.9052124023438
 20
121.5080490112305
 11
250.4130249023438
 21
121.407600402832
  0
LINE
  5
229
100
AcDbEntity
  8
0
  6
ByLayer
 62
  256
370
   -1
100
AcDbLine
 10
240.2783813476562
 20
136.6875457763672
 11
240.9158630371094
 21
137.9576416015625
  0
LINE
  5
22A
100
AcDbEntity
  8
0
  6
ByLayer
 62
  256
370
   -1
100
AcDbLine
 10
241.7061309814453
 20
125.6862945556641
 11
240.9158630371094
 21
126.8561096191406
  0
LINE
  5
22B
100
AcDbEntity
  8
0
  6
ByLayer
 62
  256
370
   -1
100
AcDbLine
 10
251.9052124023438
 20
95.64852142333984
 11
250.4130249023438
 21
95.54808044433594
  0
LINE
  5
22C
100
AcDbEntity
  8
0
  6
ByLayer
 62
  256
370
   -1
100
AcDbLine
 10
259.1199340820312
 20
139.1274719238281
 11
259.9101867675781
 21
137.9576416015625
  0
LINE
  5
22D
100
AcDbEntity
  8
0
  6
ByLayer
 62
  256
370
   -1
100
AcDbLine
 10
260.5476989746094
 20
128.1262054443359
 11
259.9102172851562
 21
126.8561096191406
  0
LINE
  5
22E
100
AcDbEntity
  8
0
  6
ByLayer
 62
  256
370
   -1
100
AcDbLine
 10
248.9208679199219
 20
143.3056945800781
 11
250.4130249023438
 21
143.4061584472656
  0
LINE
  5
22F
100
AcDbEntity
  8
0
  6
ByLayer
 62
  256
370
   -1
100
AcDbLine
 10
259.1199340820312
 20
113.2679443359375
 11
259.9101867675781
 21
112.0981216430664
  0
LINE
  5
230
100
AcDbEntity
  8
0
  6
ByLayer
 62
  256
370
   -1
100
AcDbLine
 10
241.7061309814453
 20
99.82677459716797
 11
240.9158630371094
 21
100.9965972900391
  0
LINE
  5
231
100
AcDbEntity
  8
0
  6
ByLayer
 62
  256
370
   -1
100
AcDbLine
 10
240.2783813476562
 20
110.8280334472656
 11
240.9158630371094
 21
112.0981216430664
  0
LINE
  5
232
100
AcDbEntity
  8
0
  6
ByLayer
 62
  256
370
   -1
100
AcDbLine
 10
260.5476989746094
 20
102.2666778564453
 11
259.9102172851562
 21
100.9965896606445
  0
LINE
  5
233
100
AcDbEntity
  8
0
  6
ByLayer
 62
  256
370
   -1
100
AcDbLine
 10
267.9213256835938
 20
11.38892555236816
 11
268.2322387695312
 21
11.76776695251465
  0
LINE
  5
234
100
AcDbEntity
  8
0
  6
ByLayer
 62
  256
370
   -1
100
AcDbLine
 10
272.0786743164062
 20
8.611074447631836
 11
271.7677612304688
 21
8.232233047485352
  0
LINE
  5
235
100
AcDbEntity
  8
0
  6
ByLayer
 62
  256
370
   -1
100
AcDbLine
 10
271.388916015625
 20
12.07867431640625
 11
271.7677612304688
 21
11.76776695251465
  0
LINE
  5
236
100
AcDbEntity
  8
0
  6
ByLayer
 62
  256
370
   -1
100
AcDbLine
 10
268.611083984375
 20
7.92132568359375
 11
268.2322387695312
 21
8.232233047485352
  0
LINE
  5
237
100
AcDbEntity
  8
0
  6
ByLayer
 62
  256
370
   -1
100
AcDbLine
 10
280
 20
30
 11
280
 21
80
  0
LINE
  5
238
100
AcDbEntity
  8
0
  6
ByLayer
 62
  256
370
   -1
100
AcDbLine
 10
270.4877319335938
 20
192.4519653320312
 11
270.9566955566406
 21
192.3096923828125
  0
LINE
  5
239
100
AcDbEntity
  8
0
  6
ByLayer
 62
  256
370
   -1
100
AcDbLine
 10
267.5480346679688
 20
190.4877319335938
 11
267.6903076171875
 21
190.9567108154297
  0
LINE
  5
23A
100
AcDbEntity
  8
0
  6
ByLayer
 62
  256
370
   -1
100
AcDbLine
 10
272.4519653320312
 20
189.5122680664062
 11
272.3096923828125
 21
189.0432891845703
  0
LINE
  5
23B
100
AcDbEntity
  8
0
  6
ByLayer
 62
  256
370
   -1
100
AcDbLine
 10
269.5122680664062
 20
187.5480346679688
 11
269.0433044433594
 21
187.6903076171875
  0
LINE
  5
23C
100
AcDbEntity
  8
0
  6
ByLayer
 62
  256
370
   -1
100
AcDbLine
 10
216.7761688232422
 20
164
 11
217.9785308837891
 21
164
  0
LINE
  5
23D
100
AcDbEntity
  8
0
  6
ByLayer
 62
  256
370
   -1
100
AcDbLine
 10
237
 20
165.7855072021484
 11
237
 21
164
  0
LINE
  5
23E
100
AcDbEntity
  8
0
  6
ByLayer
 62
  256
370
   -1
100
AcDbLine
 10
0
 20
10
 11
0
 21
30
  0
LINE
  5
23F
100
AcDbEntity
  8
0
  6
ByLayer
 62
  256
370
   -1
100
AcDbLine
 10
9.51226806640625
 20
12.45196342468262
 11
9.043304443359375
 21
12.30969905853271
  0
LINE
  5
240
100
AcDbEntity
  8
0
  6
ByLayer
 62
  256
370
   -1
100
AcDbLine
 10
12.45196533203125
 20
10.48772621154785
 11
12.3096923828125
 21
10.95670890808105
  0
LINE
  5
241
100
AcDbEntity
  8
0
  6
ByLayer
 62
  256
370
   -1
100
AcDbLine
 10
7.54803466796875
 20
9.512273788452148
 11
7.6903076171875
 21
9.043291091918945
  0
LINE
  5
242
100
AcDbEntity
  8
0
  6
ByLayer
 62
  256
370
   -1
100
AcDbLine
 10
10.48773193359375
 20
7.548036575317383
 11
10.95669555664062
 21
7.690300941467285
  0
LINE
  5
243
100
AcDbEntity
  8
0
  6
ByLayer
 62
  256
370
   -1
100
AcDbLine
 10
0
 20
170
 11
0
 21
190
  0
LINE
  5
244
100
AcDbEntity
  8
0
  6
ByLayer
 62
  256
370
   -1
100
AcDbLine
 10
10
 20
192.5
 11
10.48773193359375
 21
192.4519653320312
  0
LINE
  5
245
100
AcDbEntity
  8
0
  6
ByLayer
 62
  256
370
   -1
100
AcDbLine
 10
10
 20
192.5
 11
9.51226806640625
 21
192.4519653320312
  0
LINE
  5
246
100
AcDbEntity
  8
0
  6
ByLayer
 62
  256
370
   -1
100
AcDbLine
 10
12.5
 20
190
 11
12.45196533203125
 21
190.4877319335938
  0
LINE
  5
247
100
AcDbEntity
  8
0
  6
ByLayer
 62
  256
370
   -1
100
AcDbLine
 10
7.5
 20
190
 11
7.54803466796875
 21
189.5122680664062
  0
LINE
  5
248
100
AcDbEntity
  8
0
  6
ByLayer
 62
  256
370
   -1
100
AcDbLine
 10
10
 20
187.5
 11
10.48773193359375
 21
187.5480346679688
  0
LINE
  5
249
100
AcDbEntity
  8
0
  6
ByLayer
 62
  256
370
   -1
100
AcDbLine
 10
0
 20
170
 11
0
 21
60
  0
LINE
  5
24A
100
AcDbEntity
  8
0
  6
ByLayer
 62
  256
370
   -1
100
AcDbLine
 10
44.77613830566406
 20
104.1577606201172
 11
43.84623718261719
 21
105.2141799926758
  0
LINE
  5
24B
100
AcDbEntity
  8
0
  6
ByLayer
 62
  256
370
   -1
100
AcDbLine
 10
89.0189208984375
 20
114.8581848144531
 11
88.54731750488281
 21
116.2154235839844
  0
LINE
  5
24C
100
AcDbEntity
  8
0
  6
ByLayer
 62
  256
370
   -1
100
AcDbLine
 10
49.62974548339844
 20
122.5410079956055
 11
51.06101989746094
 21
122.8335876464844
  0
LINE
  5
24D
100
AcDbEntity
  8
0
  6
ByLayer
 62
  256
370
   -1
100
AcDbLine
 10
41.94691467285156
 20
114.8581924438477
 11
42.41851806640625
 21
116.2154312133789
  0
LINE
  5
24E
100
AcDbEntity
  8
0
  6
ByLayer
 62
  256
370
   -1
100
AcDbLine
 10
60.33018493652344
 20
119.7117614746094
 11
61.26008605957031
 21
118.6553421020508
  0
LINE
  5
24F
100
AcDbEntity
  8
0
  6
ByLayer
 62
  256
370
   -1
100
AcDbLine
 10
81.33610534667969
 20
122.5410079956055
 11
79.90484619140625
 21
122.8335876464844
  0
LINE
  5
250
100
AcDbEntity
  8
0
  6
ByLayer
 62
  256
370
   -1
100
AcDbLine
 10
81.41049194335938
 20
143.2187805175781
 11
80.4805908203125
 21
142.162353515625
  0
LINE
  5
251
100
AcDbEntity
  8
0
  6
ByLayer
 62
  256
370
   -1
100
AcDbLine
 10
70.63568115234375
 20
119.7117614746094
 11
69.70578002929688
 21
118.6553421020508
  0
LINE
  5
252
100
AcDbEntity
  8
0
  6
ByLayer
 62
  256
370
   -1
100
AcDbLine
 10
63.15940856933594
 20
109.0113220214844
 11
62.68780517578125
 21
107.6540832519531
  0
LINE
  5
253
100
AcDbEntity
  8
0
  6
ByLayer
 62
  256
370
   -1
100
AcDbLine
 10
75.48924255371094
 20
101.3285140991211
 11
76.92050170898438
 21
101.0359268188477
  0
LINE
  5
254
100
AcDbEntity
  8
0
  6
ByLayer
 62
  256
370
   -1
100
AcDbLine
 10
112.0543518066406
 20
105.4406280517578
 11
111.4168548583984
 21
106.7107162475586
  0
LINE
  5
255
100
AcDbEntity
  8
0
  6
ByLayer
 62
  256
370
   -1
100
AcDbLine
 10
55.47657775878906
 20
101.3285064697266
 11
54.04530334472656
 21
101.0359268188477
  0
LINE
  5
256
100
AcDbEntity
  8
0
  6
ByLayer
 62
  256
370
   -1
100
AcDbLine
 10
99.79373168945312
 20
138.365234375
 11
99.32212829589844
 21
139.7224731445312
  0
LINE
  5
257
100
AcDbEntity
  8
0
  6
ByLayer
 62
  256
370
   -1
100
AcDbLine
 10
86.18966674804688
 20
104.1577529907227
 11
87.11956787109375
 21
105.2141723632812
  0
LINE
  5
258
100
AcDbEntity
  8
0
  6
ByLayer
 62
  256
370
   -1
100
AcDbLine
 10
112.8185424804688
 20
99.66778564453125
 11
112.9189758300781
 21
101.1599578857422
  0
LINE
  5
259
100
AcDbEntity
  8
0
  6
ByLayer
 62
  256
370
   -1
100
AcDbLine
 10
67.80642700195312
 20
109.0113296508789
 11
68.27803039550781
 21
107.6540908813477
  0
LINE
  5
25A
100
AcDbEntity
  8
0
  6
ByLayer
 62
  256
370
   -1
100
AcDbLine
 10
86.26405334472656
 20
124.8355331420898
 11
87.6953125
 21
124.5429534912109
  0
LINE
  5
25B
100
AcDbEntity
  8
0
  6
ByLayer
 62
  256
370
   -1
100
AcDbLine
 10
96.96449279785156
 20
127.6647796630859
 11
97.89439392089844
 21
128.72119140625
  0
LINE
  5
25C
100
AcDbEntity
  8
0
  6
ByLayer
 62
  256
370
   -1
100
AcDbLine
 10
103.4118804931641
 20
90.26112365722656
 11
101.9197082519531
 21
90.16068267822266
  0
LINE
  5
25D
100
AcDbEntity
  8
0
  6
ByLayer
 62
  256
370
   -1
100
AcDbLine
 10
78.58123779296875
 20
132.5183410644531
 11
79.05284118652344
 21
131.1611022949219
  0
LINE
  5
25E
100
AcDbEntity
  8
0
  6
ByLayer
 62
  256
370
   -1
100
AcDbLine
 10
92.11091613769531
 20
146.0480346679688
 11
90.67965698242188
 21
146.3406066894531
  0
LINE
  5
25F
100
AcDbEntity
  8
0
  6
ByLayer
 62
  256
370
   -1
100
AcDbLine
 10
95.19911193847656
 20
109.8668670654297
 11
94.1427001953125
 21
108.9369659423828
  0
LINE
  5
260
100
AcDbEntity
  8
0
  6
ByLayer
 62
  256
370
   -1
100
AcDbLine
 10
95.19911193847656
 20
109.8668670654297
 11
96.36892700195312
 21
110.6571197509766
  0
LINE
  5
261
100
AcDbEntity
  8
0
  6
ByLayer
 62
  256
370
   -1
100
AcDbLine
 10
148.78857421875
 20
57.73497009277344
 11
148.1510772705078
 21
59.00506210327148
  0
LINE
  5
262
100
AcDbEntity
  8
0
  6
ByLayer
 62
  256
370
   -1
100
AcDbLine
 10
149.4971618652344
 20
39.44923400878906
 11
148.7069091796875
 21
38.2794189453125
  0
LINE
  5
263
100
AcDbEntity
  8
0
  6
ByLayer
 62
  256
370
   -1
100
AcDbLine
 10
140
 20
34.00072479248047
 11
138.5078277587891
 21
34.10117340087891
  0
LINE
  5
264
100
AcDbEntity
  8
0
  6
ByLayer
 62
  256
370
   -1
100
AcDbLine
 10
158.2857360839844
 20
74.28501129150391
 11
159.7778930664062
 21
74.1845703125
  0
LINE
  5
265
100
AcDbEntity
  8
0
  6
ByLayer
 62
  256
370
   -1
100
AcDbLine
 10
149.4971618652344
 20
50.55076599121094
 11
150.1346435546875
 21
49.28067016601562
  0
LINE
  5
266
100
AcDbEntity
  8
0
  6
ByLayer
 62
  256
370
   -1
100
AcDbLine
 10
140
 20
55.99927520751953
 11
141.4921722412109
 21
55.89883041381836
  0
LINE
  5
267
100
AcDbEntity
  8
0
  6
ByLayer
 62
  256
370
   -1
100
AcDbLine
 10
130.5028381347656
 20
39.44923400878906
 11
129.8653411865234
 21
40.71932601928711
  0
LINE
  5
268
100
AcDbEntity
  8
0
  6
ByLayer
 62
  256
370
   -1
100
AcDbLine
 10
130.5028228759766
 20
50.55076599121094
 11
131.2930908203125
 21
51.7205810546875
  0
LINE
  5
269
100
AcDbEntity
  8
0
  6
ByLayer
 62
  256
370
   -1
100
AcDbLine
 10
158.2857360839844
 20
52.28646087646484
 11
156.7935638427734
 21
52.38690185546875
  0
LINE
  5
26A
100
AcDbEntity
  8
0
  6
ByLayer
 62
  256
370
   -1
100
AcDbLine
 10
167.7828979492188
 20
68.83650207519531
 11
168.4203796386719
 21
67.56640625
  0
LINE
  5
26B
100
AcDbEntity
  8
0
  6
ByLayer
 62
  256
370
   -1
100
AcDbLine
 10
167.7828979492188
 20
57.73497009277344
 11
166.9926452636719
 21
56.56515121459961
  0
LINE
  5
26C
100
AcDbEntity
  8
0
  6
ByLayer
 62
  256
370
   -1
100
AcDbLine
 10
148.78857421875
 20
68.83650207519531
 11
149.5788269042969
 21
70.00631713867188
  0
LINE
  5
26D
100
AcDbEntity
  8
0
  6
ByLayer
 62
  256
370
   -1
100
AcDbLine
 10
189.7642517089844
 20
143.3450317382812
 11
190.5545043945312
 21
144.5148468017578
  0
LINE
  5
26E
100
AcDbEntity
  8
0
  6
ByLayer
 62
  256
370
   -1
100
AcDbLine
 10
166.2564086914062
 20
106.7107238769531
 11
167.0466613769531
 21
107.8805389404297
  0
LINE
  5
26F
100
AcDbEntity
  8
0
  6
ByLayer
 62
  256
370
   -1
100
AcDbLine
 10
185.250732421875
 20
106.7107162475586
 11
185.8882293701172
 21
105.4406280517578
  0
LINE
  5
270
100
AcDbEntity
  8
0
  6
ByLayer
 62
  256
370
   -1
100
AcDbLine
 10
199.2614135742188
 20
100.9354858398438
 11
197.7692413330078
 21
101.0359268188477
  0
LINE
  5
271
100
AcDbEntity
  8
0
  6
ByLayer
 62
  256
370
   -1
100
AcDbLine
 10
175.7535705566406
 20
112.1592330932617
 11
177.2457427978516
 21
112.0587921142578
  0
LINE
  5
272
100
AcDbEntity
  8
0
  6
ByLayer
 62
  256
370
   -1
100
AcDbLine
 10
199.2614135742188
 20
122.9340362548828
 11
200.7535705566406
 21
122.8335876464844
  0
LINE
  5
273
100
AcDbEntity
  8
0
  6
ByLayer
 62
  256
370
   -1
100
AcDbLine
 10
175.7535705566406
 20
90.16068267822266
 11
174.2614135742188
 21
90.26112365722656
  0
LINE
  5
274
100
AcDbEntity
  8
0
  6
ByLayer
 62
  256
370
   -1
100
AcDbLine
 10
208.7585754394531
 20
106.3839950561523
 11
207.9683227539062
 21
105.2141723632812
  0
LINE
  5
275
100
AcDbEntity
  8
0
  6
ByLayer
 62
  256
370
   -1
100
AcDbLine
 10
234.6180877685547
 20
106.3839950561523
 11
233.8278198242188
 21
105.2141723632812
  0
LINE
  5
276
100
AcDbEntity
  8
0
  6
ByLayer
 62
  256
370
   -1
100
AcDbLine
 10
185.250732421875
 20
95.60919189453125
 11
184.4604797363281
 21
94.43937683105469
  0
LINE
  5
277
100
AcDbEntity
  8
0
  6
ByLayer
 62
  256
370
   -1
100
AcDbLine
 10
189.7642517089844
 20
106.3839950561523
 11
189.1267547607422
 21
107.6540908813477
  0
LINE
  5
278
100
AcDbEntity
  8
0
  6
ByLayer
 62
  256
370
   -1
100
AcDbLine
 10
185.250732421875
 20
121.4687118530273
 11
184.4604797363281
 21
120.2988891601562
  0
LINE
  5
279
100
AcDbEntity
  8
0
  6
ByLayer
 62
  256
370
   -1
100
AcDbLine
 10
166.2564086914062
 20
95.60919189453125
 11
165.6189270019531
 21
96.87928771972656
  0
LINE
  5
27A
100
AcDbEntity
  8
0
  6
ByLayer
 62
  256
370
   -1
100
AcDbLine
 10
166.2564086914062
 20
132.5702362060547
 11
167.0466613769531
 21
133.7400512695312
  0
LINE
  5
27B
100
AcDbEntity
  8
0
  6
ByLayer
 62
  256
370
   -1
100
AcDbLine
 10
166.2564086914062
 20
121.4687118530273
 11
165.6189270019531
 21
122.7388000488281
  0
LINE
  5
27C
100
AcDbEntity
  8
0
  6
ByLayer
 62
  256
370
   -1
100
AcDbLine
 10
199.2614135742188
 20
126.7949981689453
 11
197.7692413330078
 21
126.8954467773438
  0
LINE
  5
27D
100
AcDbEntity
  8
0
  6
ByLayer
 62
  256
370
   -1
100
AcDbLine
 10
208.7585754394531
 20
117.4855270385742
 11
209.3960571289062
 21
116.2154312133789
  0
LINE
  5
27E
100
AcDbEntity
  8
0
  6
ByLayer
 62
  256
370
   -1
100
AcDbLine
 10
175.7535705566406
 20
116.0202026367188
 11
174.2614135742188
 21
116.1206436157227
  0
LINE
  5
27F
100
AcDbEntity
  8
0
  6
ByLayer
 62
  256
370
   -1
100
AcDbLine
 10
189.7642517089844
 20
117.4855270385742
 11
190.5545043945312
 21
118.6553421020508
  0
LINE
  5
280
100
AcDbEntity
  8
0
  6
ByLayer
 62
  256
370
   -1
100
AcDbLine
 10
175.7535705566406
 20
138.0187377929688
 11
177.2457427978516
 21
137.9183044433594
  0
LINE
  5
281
100
AcDbEntity
  8
0
  6
ByLayer
 62
  256
370
   -1
100
AcDbLine
 10
240.9158630371094
 20
137.9576416015625
 11
241.7061309814453
 21
139.12744140625
  0
LINE
  5
282
100
AcDbEntity
  8
0
  6
ByLayer
 62
  256
370
   -1
100
AcDbLine
 10
215.623779296875
 20
132.2434997558594
 11
214.9862670898438
 21
133.5136108398438
  0
LINE
  5
283
100
AcDbEntity
  8
0
  6
ByLayer
 62
  256
370
   -1
100
AcDbLine
 10
185.250732421875
 20
132.5702514648438
 11
185.8882293701172
 21
131.3001403808594
  0
LINE
  5
284
100
AcDbEntity
  8
0
  6
ByLayer
 62
  256
370
   -1
100
AcDbLine
 10
208.7585754394531
 20
143.3450469970703
 11
209.3960571289062
 21
142.074951171875
  0
LINE
  5
285
100
AcDbEntity
  8
0
  6
ByLayer
 62
  256
370
   -1
100
AcDbLine
 10
189.7642517089844
 20
132.2434997558594
 11
189.1267547607422
 21
133.5136108398438
  0
LINE
  5
286
100
AcDbEntity
  8
0
  6
ByLayer
 62
  256
370
   -1
100
AcDbLine
 10
208.7585754394531
 20
132.2435150146484
 11
207.9683227539062
 21
131.0736999511719
  0
LINE
  5
287
100
AcDbEntity
  8
0
  6
ByLayer
 62
  256
370
   -1
100
AcDbLine
 10
225.1209259033203
 20
126.7949981689453
 11
223.6287536621094
 21
126.8954467773438
  0
LINE
  5
288
100
AcDbEntity
  8
0
  6
ByLayer
 62
  256
370
   -1
100
AcDbLine
 10
199.2614135742188
 20
148.7935485839844
 11
200.7535705566406
 21
148.693115234375
  0
LINE
  5
289
100
AcDbEntity
  8
0
  6
ByLayer
 62
  256
370
   -1
100
AcDbLine
 10
225.1209259033203
 20
148.7935485839844
 11
226.6130981445312
 21
148.693115234375
  0
LINE
  5
28A
100
AcDbEntity
  8
0
  6
ByLayer
 62
  256
370
   -1
100
AcDbLine
 10
215.623779296875
 20
106.3839950561523
 11
214.9862670898438
 21
107.6540908813477
  0
LINE
  5
28B
100
AcDbEntity
  8
0
  6
ByLayer
 62
  256
370
   -1
100
AcDbLine
 10
234.6180877685547
 20
143.3450469970703
 11
235.2555847167969
 21
142.074951171875
  0
LINE
  5
28C
100
AcDbEntity
  8
0
  6
ByLayer
 62
  256
370
   -1
100
AcDbLine
 10
234.6180877685547
 20
132.2435150146484
 11
233.8278198242188
 21
131.0736999511719
  0
LINE
  5
28D
100
AcDbEntity
  8
0
  6
ByLayer
 62
  256
370
   -1
100
AcDbLine
 10
215.623779296875
 20
143.3450317382812
 11
216.4140319824219
 21
144.5148468017578
  0
LINE
  5
28E
100
AcDbEntity
  8
0
  6
ByLayer
 62
  256
370
   -1
100
AcDbLine
 10
225.1209259033203
 20
100.9354858398438
 11
223.6287536621094
 21
101.0359268188477
  0
LINE
  5
28F
100
AcDbEntity
  8
0
  6
ByLayer
 62
  256
370
   -1
100
AcDbLine
 10
234.6180877685547
 20
117.4855270385742
 11
235.2555847167969
 21
116.2154312133789
  0
LINE
  5
290
100
AcDbEntity
  8
0
  6
ByLayer
 62
  256
370
   -1
100
AcDbLine
 10
259.9101867675781
 20
137.9576416015625
 11
260.5476989746094
 21
136.6875610351562
  0
LINE
  5
291
100
AcDbEntity
  8
0
  6
ByLayer
 62
  256
370
   -1
100
AcDbLine
 10
240.9158630371094
 20
100.9965972900391
 11
240.2783813476562
 21
102.2666854858398
  0
LINE
  5
292
100
AcDbEntity
  8
0
  6
ByLayer
 62
  256
370
   -1
100
AcDbLine
 10
215.623779296875
 20
117.4855270385742
 11
216.4140319824219
 21
118.6553421020508
  0
LINE
  5
293
100
AcDbEntity
  8
0
  6
ByLayer
 62
  256
370
   -1
100
AcDbLine
 10
225.1209259033203
 20
122.9340362548828
 11
226.6130981445312
 21
122.8335876464844
  0
LINE
  5
294
100
AcDbEntity
  8
0
  6
ByLayer
 62
  256
370
   -1
100
AcDbLine
 10
250.4130249023438
 20
121.407600402832
 11
248.9208679199219
 21
121.5080490112305
  0
LINE
  5
295
100
AcDbEntity
  8
0
  6
ByLayer
 62
  256
370
   -1
100
AcDbLine
 10
240.9158630371094
 20
112.0981216430664
 11
241.7061309814453
 21
113.2679443359375
  0
LINE
  5
296
100
AcDbEntity
  8
0
  6
ByLayer
 62
  256
370
   -1
100
AcDbLine
 10
240.9158630371094
 20
126.8561096191406
 11
240.2783813476562
 21
128.1262054443359
  0
LINE
  5
297
100
AcDbEntity
  8
0
  6
ByLayer
 62
  256
370
   -1
100
AcDbLine
 10
259.9102172851562
 20
126.8561096191406
 11
259.1199645996094
 21
125.6862945556641
  0
LINE
  5
298
100
AcDbEntity
  8
0
  6
ByLayer
 62
  256
370
   -1
100
AcDbLine
 10
259.9101867675781
 20
112.0981216430664
 11
260.5476989746094
 21
110.8280334472656
  0
LINE
  5
299
100
AcDbEntity
  8
0
  6
ByLayer
 62
  256
370
   -1
100
AcDbLine
 10
250.4130249023438
 20
143.4061584472656
 11
251.9052124023438
 21
143.3057098388672
  0
LINE
  5
29A
100
AcDbEntity
  8
0
  6
ByLayer
 62
  256
370
   -1
100
AcDbLine
 10
250.4130249023438
 20
117.546630859375
 11
251.9052124023438
 21
117.4461898803711
  0
LINE
  5
29B
100
AcDbEntity
  8
0
  6
ByLayer
 62
  256
370
   -1
100
AcDbLine
 10
250.4130249023438
 20
95.54808044433594
 11
248.9208679199219
 21
95.64852905273438
  0
LINE
  5
29C
100
AcDbEntity
  8
0
  6
ByLayer
 62
  256
370
   -1
100
AcDbLine
 10
259.9102172851562
 20
100.9965896606445
 11
259.1199645996094
 21
99.82677459716797
  0
LINE
  5
29D
100
AcDbEntity
  8
0
  6
ByLayer
 62
  256
370
   -1
100
AcDbLine
 10
268.2322387695312
 20
11.76776695251465
 11
268.611083984375
 21
12.07867431640625
  0
LINE
  5
29E
100
AcDbEntity
  8
0
  6
ByLayer
 62
  256
370
   -1
100
AcDbLine
 10
271.7677612304688
 20
11.76776695251465
 11
272.0786743164062
 21
11.38892555236816
  0
LINE
  5
29F
100
AcDbEntity
  8
0
  6
ByLayer
 62
  256
370
   -1
100
AcDbLine
 10
268.2322387695312
 20
8.232233047485352
 11
267.9213256835938
 21
8.611074447631836
  0
LINE
  5
2A0
100
AcDbEntity
  8
0
  6
ByLayer
 62
  256
370
   -1
100
AcDbLine
 10
271.7677612304688
 20
8.232233047485352
 11
271.388916015625
 21
7.92132568359375
  0
LINE
  5
2A1
100
AcDbEntity
  8
0
  6
ByLayer
 62
  256
370
   -1
100
AcDbLine
 10
250
 20
200
 11
150
 21
200
  0
LINE
  5
2A2
100
AcDbEntity
  8
0
  6
ByLayer
 62
  256
370
   -1
100
AcDbLine
 10
250
 20
200
 11
270
 21
200
  0
LINE
  5
2A3
100
AcDbEntity
  8
0
  6
ByLayer
 62
  256
370
   -1
100
AcDbLine
 10
270.9566955566406
 20
192.3096923828125
 11
271.388916015625
 21
192.0786743164062
  0
LINE
  5
2A4
100
AcDbEntity
  8
0
  6
ByLayer
 62
  256
370
   -1
100
AcDbLine
 10
267.6903076171875
 20
190.9567108154297
 11
267.9213256835938
 21
191.3889312744141
  0
LINE
  5
2A5
100
AcDbEntity
  8
0
  6
ByLayer
 62
  256
370
   -1
100
AcDbLine
 10
272.3096923828125
 20
189.0432891845703
 11
272.0786743164062
 21
188.6110687255859
  0
LINE
  5
2A6
100
AcDbEntity
  8
0
  6
ByLayer
 62
  256
370
   -1
100
AcDbLine
 10
269.0433044433594
 20
187.6903076171875
 11
268.611083984375
 21
187.9213256835938
  0
LINE
  5
2A7
100
AcDbEntity
  8
0
  6
ByLayer
 62
  256
370
   -1
100
AcDbLine
 10
193
 20
186
 11
171
 21
186
  0
LINE
  5
2A8
100
AcDbEntity
  8
0
  6
ByLayer
 62
  256
370
   -1
100
AcDbLine
 10
236.0414123535156
 20
164
 11
237
 21
164
  0
LINE
  5
2A9
100
AcDbEntity
  8
0
  6
ByLayer
 62
  256
370
   -1
100
AcDbLine
 10
174.2348175048828
 20
164
 11
175.5777435302734
 21
164
  0
LINE
  5
2AA
100
AcDbEntity
  8
0
  6
ByLayer
 62
  256
370
   -1
100
AcDbLine
 10
178.3693389892578
 20
164
 11
176.9669647216797
 21
164
  0
LINE
  5
2AB
100
AcDbEntity
  8
0
  6
ByLayer
 62
  256
370
   -1
100
AcDbLine
 10
30
 20
0
 11
130
 21
0
  0
LINE
  5
2AC
100
AcDbEntity
  8
0
  6
ByLayer
 62
  256
370
   -1
100
AcDbLine
 10
9.043304443359375
 20
12.30969905853271
 11
8.611083984375
 21
12.07867431640625
  0
LINE
  5
2AD
100
AcDbEntity
  8
0
  6
ByLayer
 62
  256
370
   -1
100
AcDbLine
 10
12.3096923828125
 20
10.95670890808105
 11
12.07867431640625
 21
11.38892555236816
  0
LINE
  5
2AE
100
AcDbEntity
  8
0
  6
ByLayer
 62
  256
370
   -1
100
AcDbLine
 10
7.6903076171875
 20
9.043291091918945
 11
7.92132568359375
 21
8.611074447631836
  0
LINE
  5
2AF
100
AcDbEntity
  8
0
  6
ByLayer
 62
  256
370
   -1
100
AcDbLine
 10
10.95669555664062
 20
7.690300941467285
 11
11.388916015625
 21
7.92132568359375
  0
LINE
  5
2B0
100
AcDbEntity
  8
0
  6
ByLayer
 62
  256
370
   -1
100
AcDbLine
 10
9.51226806640625
 20
192.4519653320312
 11
9.043304443359375
 21
192.3096923828125
  0
LINE
  5
2B1
100
AcDbEntity
  8
0
  6
ByLayer
 62
  256
370
   -1
100
AcDbLine
 10
12.45196533203125
 20
190.4877319335938
 11
12.3096923828125
 21
190.9567108154297
  0
LINE
  5
2B2
100
AcDbEntity
  8
0
  6
ByLayer
 62
  256
370
   -1
100
AcDbLine
 10
7.54803466796875
 20
189.5122680664062
 11
7.6903076171875
 21
189.0432891845703
  0
LINE
  5
2B3
100
AcDbEntity
  8
0
  6
ByLayer
 62
  256
370
   -1
100
AcDbLine
 10
10.48773193359375
 20
187.5480346679688
 11
10.95669555664062
 21
187.6903076171875
  0
LINE
  5
2B4
100
AcDbEntity
  8
0
  6
ByLayer
 62
  256
370
   -1
100
AcDbLine
 10
87.6953125
 20
124.5429534912109
 11
89.18748474121094
 21
124.4425048828125
  0
LINE
  5
2B5
100
AcDbEntity
  8
0
  6
ByLayer
 62
  256
370
   -1
100
AcDbLine
 10
62.68780517578125
 20
107.6540832519531
 11
62.05030822753906
 21
106.3839950561523
  0
LINE
  5
2B6
100
AcDbEntity
  8
0
  6
ByLayer
 62
  256
370
   -1
100
AcDbLine
 10
43.84623718261719
 20
105.2141799926758
 11
43.05598449707031
 21
106.3839950561523
  0
LINE
  5
2B7
100
AcDbEntity
  8
0
  6
ByLayer
 62
  256
370
   -1
100
AcDbLine
 10
51.06101989746094
 20
122.8335876464844
 11
52.55316162109375
 21
122.9340362548828
  0
LINE
  5
2B8
100
AcDbEntity
  8
0
  6
ByLayer
 62
  256
370
   -1
100
AcDbLine
 10
91.7850341796875
 20
105.4406280517578
 11
91.31344604492188
 21
104.0833892822266
  0
LINE
  5
2B9
100
AcDbEntity
  8
0
  6
ByLayer
 62
  256
370
   -1
100
AcDbLine
 10
112.5259399414062
 20
104.0833892822266
 11
112.0543518066406
 21
105.4406280517578
  0
LINE
  5
2BA
100
AcDbEntity
  8
0
  6
ByLayer
 62
  256
370
   -1
100
AcDbLine
 10
87.11956787109375
 20
105.2141723632812
 11
87.90982055664062
 21
106.3839950561523
  0
LINE
  5
2BB
100
AcDbEntity
  8
0
  6
ByLayer
 62
  256
370
   -1
100
AcDbLine
 10
42.41851806640625
 20
116.2154312133789
 11
43.05601501464844
 21
117.4855270385742
  0
LINE
  5
2BC
100
AcDbEntity
  8
0
  6
ByLayer
 62
  256
370
   -1
100
AcDbLine
 10
79.05284118652344
 20
131.1611022949219
 11
79.69032287597656
 21
129.8910217285156
  0
LINE
  5
2BD
100
AcDbEntity
  8
0
  6
ByLayer
 62
  256
370
   -1
100
AcDbLine
 10
61.26008605957031
 20
118.6553421020508
 11
62.05033874511719
 21
117.4855270385742
  0
LINE
  5
2BE
100
AcDbEntity
  8
0
  6
ByLayer
 62
  256
370
   -1
100
AcDbLine
 10
54.04530334472656
 20
101.0359268188477
 11
52.55316162109375
 21
100.9354858398438
  0
LINE
  5
2BF
100
AcDbEntity
  8
0
  6
ByLayer
 62
  256
370
   -1
100
AcDbLine
 10
76.92050170898438
 20
101.0359268188477
 11
78.41267395019531
 21
100.9354858398438
  0
LINE
  5
2C0
100
AcDbEntity
  8
0
  6
ByLayer
 62
  256
370
   -1
100
AcDbLine
 10
97.89439392089844
 20
128.72119140625
 11
98.68466186523438
 21
129.8910217285156
  0
LINE
  5
2C1
100
AcDbEntity
  8
0
  6
ByLayer
 62
  256
370
   -1
100
AcDbLine
 10
68.27803039550781
 20
107.6540908813477
 11
68.91551208496094
 21
106.3840026855469
  0
LINE
  5
2C2
100
AcDbEntity
  8
0
  6
ByLayer
 62
  256
370
   -1
100
AcDbLine
 10
88.54731750488281
 20
116.2154235839844
 11
87.90983581542969
 21
117.4855194091797
  0
LINE
  5
2C3
100
AcDbEntity
  8
0
  6
ByLayer
 62
  256
370
   -1
100
AcDbLine
 10
69.70578002929688
 20
118.6553421020508
 11
68.91552734375
 21
117.4855270385742
  0
LINE
  5
2C4
100
AcDbEntity
  8
0
  6
ByLayer
 62
  256
370
   -1
100
AcDbLine
 10
79.90484619140625
 20
122.8335876464844
 11
78.41267395019531
 21
122.9340362548828
  0
LINE
  5
2C5
100
AcDbEntity
  8
0
  6
ByLayer
 62
  256
370
   -1
100
AcDbLine
 10
90.67965698242188
 20
146.3406066894531
 11
89.18748474121094
 21
146.4410552978516
  0
LINE
  5
2C6
100
AcDbEntity
  8
0
  6
ByLayer
 62
  256
370
   -1
100
AcDbLine
 10
99.32212829589844
 20
139.7224731445312
 11
98.68463134765625
 21
140.9925537109375
  0
LINE
  5
2C7
100
AcDbEntity
  8
0
  6
ByLayer
 62
  256
370
   -1
100
AcDbLine
 10
97.63900756835938
 20
111.2946090698242
 11
96.36892700195312
 21
110.6571197509766
  0
LINE
  5
2C8
100
AcDbEntity
  8
0
  6
ByLayer
 62
  256
370
   -1
100
AcDbLine
 10
80.4805908203125
 20
142.162353515625
 11
79.69033813476562
 21
140.9925384521484
  0
LINE
  5
2C9
100
AcDbEntity
  8
0
  6
ByLayer
 62
  256
370
   -1
100
AcDbLine
 10
91.7850341796875
 20
105.4406280517578
 11
92.42253112792969
 21
106.7107238769531
  0
LINE
  5
2CA
100
AcDbEntity
  8
0
  6
ByLayer
 62
  256
370
   -1
100
AcDbLine
 10
91.78506469726562
 20
96.87928771972656
 11
91.31346130371094
 21
98.23652648925781
  0
LINE
  5
2CB
100
AcDbEntity
  8
0
  6
ByLayer
 62
  256
370
   -1
100
AcDbLine
 10
101.9197082519531
 20
90.16068267822266
 11
100.4275360107422
 21
90.26112365722656
  0
LINE
  5
2CC
100
AcDbEntity
  8
0
  6
ByLayer
 62
  256
370
   -1
100
AcDbLine
 10
112.5259399414062
 20
104.0833892822266
 11
112.8185119628906
 21
102.6521224975586
  0
LINE
  5
2CD
100
AcDbEntity
  8
0
  6
ByLayer
 62
  256
370
   -1
100
AcDbLine
 10
97.6390380859375
 20
91.02530670166016
 11
96.36894226074219
 21
91.66279602050781
  0
LINE
  5
2CE
100
AcDbEntity
  8
0
  6
ByLayer
 62
  256
370
   -1
100
AcDbLine
 10
156.7935638427734
 20
52.38690185546875
 11
155.3623046875
 21
52.67948913574219
  0
LINE
  5
2CF
100
AcDbEntity
  8
0
  6
ByLayer
 62
  256
370
   -1
100
AcDbLine
 10
138.5078277587891
 20
34.10117340087891
 11
137.0765686035156
 21
34.39375305175781
  0
LINE
  5
2D0
100
AcDbEntity
  8
0
  6
ByLayer
 62
  256
370
   -1
100
AcDbLine
 10
131.2930908203125
 20
51.7205810546875
 11
132.2229919433594
 21
52.77700042724609
  0
LINE
  5
2D1
100
AcDbEntity
  8
0
  6
ByLayer
 62
  256
370
   -1
100
AcDbLine
 10
129.8653411865234
 20
40.71932601928711
 11
129.3937530517578
 21
42.07656860351562
  0
LINE
  5
2D2
100
AcDbEntity
  8
0
  6
ByLayer
 62
  256
370
   -1
100
AcDbLine
 10
159.7778930664062
 20
74.1845703125
 11
161.2091674804688
 21
73.89198303222656
  0
LINE
  5
2D3
100
AcDbEntity
  8
0
  6
ByLayer
 62
  256
370
   -1
100
AcDbLine
 10
148.7069091796875
 20
38.2794189453125
 11
147.7770080566406
 21
37.22299957275391
  0
LINE
  5
2D4
100
AcDbEntity
  8
0
  6
ByLayer
 62
  256
370
   -1
100
AcDbLine
 10
141.4921722412109
 20
55.89883041381836
 11
142.9234313964844
 21
55.60624694824219
  0
LINE
  5
2D5
100
AcDbEntity
  8
0
  6
ByLayer
 62
  256
370
   -1
100
AcDbLine
 10
150.1346435546875
 20
49.28067016601562
 11
150.6062469482422
 21
47.92343139648438
  0
LINE
  5
2D6
100
AcDbEntity
  8
0
  6
ByLayer
 62
  256
370
   -1
100
AcDbLine
 10
166.9926452636719
 20
56.56515121459961
 11
166.062744140625
 21
55.50872802734375
  0
LINE
  5
2D7
100
AcDbEntity
  8
0
  6
ByLayer
 62
  256
370
   -1
100
AcDbLine
 10
148.1510772705078
 20
59.00506210327148
 11
147.6794891357422
 21
60.3623046875
  0
LINE
  5
2D8
100
AcDbEntity
  8
0
  6
ByLayer
 62
  256
370
   -1
100
AcDbLine
 10
149.5788269042969
 20
70.00631713867188
 11
150.5087280273438
 21
71.06273651123047
  0
LINE
  5
2D9
100
AcDbEntity
  8
0
  6
ByLayer
 62
  256
370
   -1
100
AcDbLine
 10
168.4203796386719
 20
67.56640625
 11
168.8919677734375
 21
66.20916748046875
  0
LINE
  5
2DA
100
AcDbEntity
  8
0
  6
ByLayer
 62
  256
370
   -1
100
AcDbLine
 10
184.4604797363281
 20
120.2988891601562
 11
183.5305786132812
 21
119.2424697875977
  0
LINE
  5
2DB
100
AcDbEntity
  8
0
  6
ByLayer
 62
  256
370
   -1
100
AcDbLine
 10
197.7692413330078
 20
101.0359268188477
 11
196.3379821777344
 21
101.3285140991211
  0
LINE
  5
2DC
100
AcDbEntity
  8
0
  6
ByLayer
 62
  256
370
   -1
100
AcDbLine
 10
207.9683227539062
 20
105.2141723632812
 11
207.0384216308594
 21
104.1577529907227
  0
LINE
  5
2DD
100
AcDbEntity
  8
0
  6
ByLayer
 62
  256
370
   -1
100
AcDbLine
 10
209.3960571289062
 20
116.2154312133789
 11
209.8676605224609
 21
114.8581924438477
  0
LINE
  5
2DE
100
AcDbEntity
  8
0
  6
ByLayer
 62
  256
370
   -1
100
AcDbLine
 10
165.6189270019531
 20
96.87928771972656
 11
165.1473236083984
 21
98.23652648925781
  0
LINE
  5
2DF
100
AcDbEntity
  8
0
  6
ByLayer
 62
  256
370
   -1
100
AcDbLine
 10
189.1267547607422
 20
107.6540908813477
 11
188.6551513671875
 21
109.0113296508789
  0
LINE
  5
2E0
100
AcDbEntity
  8
0
  6
ByLayer
 62
  256
370
   -1
100
AcDbLine
 10
167.0466613769531
 20
107.8805389404297
 11
167.9765625
 21
108.9369659423828
  0
LINE
  5
2E1
100
AcDbEntity
  8
0
  6
ByLayer
 62
  256
370
   -1
100
AcDbLine
 10
174.2614135742188
 20
90.26112365722656
 11
172.8301391601562
 21
90.5537109375
  0
LINE
  5
2E2
100
AcDbEntity
  8
0
  6
ByLayer
 62
  256
370
   -1
100
AcDbLine
 10
184.4604797363281
 20
94.43937683105469
 11
183.5305786132812
 21
93.38295745849609
  0
LINE
  5
2E3
100
AcDbEntity
  8
0
  6
ByLayer
 62
  256
370
   -1
100
AcDbLine
 10
177.2457427978516
 20
112.0587921142578
 11
178.677001953125
 21
111.7662048339844
  0
LINE
  5
2E4
100
AcDbEntity
  8
0
  6
ByLayer
 62
  256
370
   -1
100
AcDbLine
 10
185.8882293701172
 20
105.4406280517578
 11
186.3598327636719
 21
104.0833892822266
  0
LINE
  5
2E5
100
AcDbEntity
  8
0
  6
ByLayer
 62
  256
370
   -1
100
AcDbLine
 10
174.2614135742188
 20
116.1206436157227
 11
172.8301391601562
 21
116.4132308959961
  0
LINE
  5
2E6
100
AcDbEntity
  8
0
  6
ByLayer
 62
  256
370
   -1
100
AcDbLine
 10
190.5545043945312
 20
144.5148468017578
 11
191.4844055175781
 21
145.5712585449219
  0
LINE
  5
2E7
100
AcDbEntity
  8
0
  6
ByLayer
 62
  256
370
   -1
100
AcDbLine
 10
190.5545043945312
 20
118.6553421020508
 11
191.4844055175781
 21
119.7117614746094
  0
LINE
  5
2E8
100
AcDbEntity
  8
0
  6
ByLayer
 62
  256
370
   -1
100
AcDbLine
 10
200.7535705566406
 20
122.8335876464844
 11
202.1848449707031
 21
122.5410079956055
  0
LINE
  5
2E9
100
AcDbEntity
  8
0
  6
ByLayer
 62
  256
370
   -1
100
AcDbLine
 10
165.6189270019531
 20
122.7388000488281
 11
165.1473236083984
 21
124.0960388183594
  0
LINE
  5
2EA
100
AcDbEntity
  8
0
  6
ByLayer
 62
  256
370
   -1
100
AcDbLine
 10
167.0466613769531
 20
133.7400512695312
 11
167.9765625
 21
134.7964782714844
  0
LINE
  5
2EB
100
AcDbEntity
  8
0
  6
ByLayer
 62
  256
370
   -1
100
AcDbLine
 10
216.4140319824219
 20
144.5148468017578
 11
217.3439331054688
 21
145.5712585449219
  0
LINE
  5
2EC
100
AcDbEntity
  8
0
  6
ByLayer
 62
  256
370
   -1
100
AcDbLine
 10
177.2457427978516
 20
137.9183044433594
 11
178.677001953125
 21
137.625732421875
  0
LINE
  5
2ED
100
AcDbEntity
  8
0
  6
ByLayer
 62
  256
370
   -1
100
AcDbLine
 10
185.8882293701172
 20
131.3001403808594
 11
186.3598327636719
 21
129.9429016113281
  0
LINE
  5
2EE
100
AcDbEntity
  8
0
  6
ByLayer
 62
  256
370
   -1
100
AcDbLine
 10
216.4140319824219
 20
118.6553421020508
 11
217.3439331054688
 21
119.7117614746094
  0
LINE
  5
2EF
100
AcDbEntity
  8
0
  6
ByLayer
 62
  256
370
   -1
100
AcDbLine
 10
226.6130981445312
 20
148.693115234375
 11
228.0443725585938
 21
148.4005279541016
  0
LINE
  5
2F0
100
AcDbEntity
  8
0
  6
ByLayer
 62
  256
370
   -1
100
AcDbLine
 10
207.9683227539062
 20
131.0736999511719
 11
207.0384216308594
 21
130.0172729492188
  0
LINE
  5
2F1
100
AcDbEntity
  8
0
  6
ByLayer
 62
  256
370
   -1
100
AcDbLine
 10
209.3960571289062
 20
142.074951171875
 11
209.8676605224609
 21
140.7177124023438
  0
LINE
  5
2F2
100
AcDbEntity
  8
0
  6
ByLayer
 62
  256
370
   -1
100
AcDbLine
 10
197.7692413330078
 20
126.8954467773438
 11
196.3379821777344
 21
127.1880264282227
  0
LINE
  5
2F3
100
AcDbEntity
  8
0
  6
ByLayer
 62
  256
370
   -1
100
AcDbLine
 10
189.1267547607422
 20
133.5136108398438
 11
188.6551513671875
 21
134.870849609375
  0
LINE
  5
2F4
100
AcDbEntity
  8
0
  6
ByLayer
 62
  256
370
   -1
100
AcDbLine
 10
200.7535705566406
 20
148.693115234375
 11
202.1848449707031
 21
148.4005279541016
  0
LINE
  5
2F5
100
AcDbEntity
  8
0
  6
ByLayer
 62
  256
370
   -1
100
AcDbLine
 10
214.9862670898438
 20
133.5136108398438
 11
214.5146789550781
 21
134.870849609375
  0
LINE
  5
2F6
100
AcDbEntity
  8
0
  6
ByLayer
 62
  256
370
   -1
100
AcDbLine
 10
226.6130981445312
 20
122.8335876464844
 11
228.0443725585938
 21
122.5410079956055
  0
LINE
  5
2F7
100
AcDbEntity
  8
0
  6
ByLayer
 62
  256
370
   -1
100
AcDbLine
 10
233.8278198242188
 20
131.0736999511719
 11
232.8979187011719
 21
130.0172729492188
  0
LINE
  5
2F8
100
AcDbEntity
  8
0
  6
ByLayer
 62
  256
370
   -1
100
AcDbLine
 10
235.2555847167969
 20
142.074951171875
 11
235.7271728515625
 21
140.7177124023438
  0
LINE
  5
2F9
100
AcDbEntity
  8
0
  6
ByLayer
 62
  256
370
   -1
100
AcDbLine
 10
259.1199645996094
 20
99.82677459716797
 11
258.1900634765625
 21
98.77035522460938
  0
LINE
  5
2FA
100
AcDbEntity
  8
0
  6
ByLayer
 62
  256
370
   -1
100
AcDbLine
 10
223.6287536621094
 20
126.8954467773438
 11
222.1974945068359
 21
127.1880264282227
  0
LINE
  5
2FB
100
AcDbEntity
  8
0
  6
ByLayer
 62
  256
370
   -1
100
AcDbLine
 10
233.8278198242188
 20
105.2141723632812
 11
232.8979187011719
 21
104.1577529907227
  0
LINE
  5
2FC
100
AcDbEntity
  8
0
  6
ByLayer
 62
  256
370
   -1
100
AcDbLine
 10
214.9862670898438
 20
107.6540908813477
 11
214.5146789550781
 21
109.0113296508789
  0
LINE
  5
2FD
100
AcDbEntity
  8
0
  6
ByLayer
 62
  256
370
   -1
100
AcDbLine
 10
260.5476989746094
 20
136.6875610351562
 11
261.019287109375
 21
135.330322265625
  0
LINE
  5
2FE
100
AcDbEntity
  8
0
  6
ByLayer
 62
  256
370
   -1
100
AcDbLine
 10
259.1199645996094
 20
125.6862945556641
 11
258.1900634765625
 21
124.6298751831055
  0
LINE
  5
2FF
100
AcDbEntity
  8
0
  6
ByLayer
 62
  256
370
   -1
100
AcDbLine
 10
223.6287536621094
 20
101.0359268188477
 11
222.1974945068359
 21
101.3285140991211
  0
LINE
  5
300
100
AcDbEntity
  8
0
  6
ByLayer
 62
  256
370
   -1
100
AcDbLine
 10
235.2555847167969
 20
116.2154312133789
 11
235.7271728515625
 21
114.8581924438477
  0
LINE
  5
301
100
AcDbEntity
  8
0
  6
ByLayer
 62
  256
370
   -1
100
AcDbLine
 10
251.9052124023438
 20
117.4461898803711
 11
253.3364715576172
 21
117.1536026000977
  0
LINE
  5
302
100
AcDbEntity
  8
0
  6
ByLayer
 62
  256
370
   -1
100
AcDbLine
 10
251.9052124023438
 20
143.3057098388672
 11
253.3364715576172
 21
143.0131225585938
  0
LINE
  5
303
100
AcDbEntity
  8
0
  6
ByLayer
 62
  256
370
   -1
100
AcDbLine
 10
248.9208679199219
 20
95.64852905273438
 11
247.4895935058594
 21
95.94110870361328
  0
LINE
  5
304
100
AcDbEntity
  8
0
  6
ByLayer
 62
  256
370
   -1
100
AcDbLine
 10
241.7061309814453
 20
139.12744140625
 11
242.6360321044922
 21
140.1838684082031
  0
LINE
  5
305
100
AcDbEntity
  8
0
  6
ByLayer
 62
  256
370
   -1
100
AcDbLine
 10
248.9208679199219
 20
121.5080490112305
 11
247.4895935058594
 21
121.8006286621094
  0
LINE
  5
306
100
AcDbEntity
  8
0
  6
ByLayer
 62
  256
370
   -1
100
AcDbLine
 10
240.2783813476562
 20
128.1262054443359
 11
239.8067932128906
 21
129.4834442138672
  0
LINE
  5
307
100
AcDbEntity
  8
0
  6
ByLayer
 62
  256
370
   -1
100
AcDbLine
 10
241.7061309814453
 20
113.2679443359375
 11
242.6360321044922
 21
114.3243637084961
  0
LINE
  5
308
100
AcDbEntity
  8
0
  6
ByLayer
 62
  256
370
   -1
100
AcDbLine
 10
260.5476989746094
 20
110.8280334472656
 11
261.019287109375
 21
109.4707946777344
  0
LINE
  5
309
100
AcDbEntity
  8
0
  6
ByLayer
 62
  256
370
   -1
100
AcDbLine
 10
240.2783813476562
 20
102.2666854858398
 11
239.8067932128906
 21
103.6239242553711
  0
LINE
  5
30A
100
AcDbEntity
  8
0
  6
ByLayer
 62
  256
370
   -1
100
AcDbLine
 10
268.611083984375
 20
12.07867431640625
 11
269.0433044433594
 21
12.30969905853271
  0
LINE
  5
30B
100
AcDbEntity
  8
0
  6
ByLayer
 62
  256
370
   -1
100
AcDbLine
 10
272.0786743164062
 20
11.38892555236816
 11
272.3096923828125
 21
10.95670890808105
  0
LINE
  5
30C
100
AcDbEntity
  8
0
  6
ByLayer
 62
  256
370
   -1
100
AcDbLine
 10
267.9213256835938
 20
8.611074447631836
 11
267.6903076171875
 21
9.043291091918945
  0
LINE
  5
30D
100
AcDbEntity
  8
0
  6
ByLayer
 62
  256
370
   -1
100
AcDbLine
 10
271.388916015625
 20
7.92132568359375
 11
270.9566955566406
 21
7.690300941467285
  0
LINE
  5
30E
100
AcDbEntity
  8
0
  6
ByLayer
 62
  256
370
   -1
100
AcDbLine
 10
272.0786743164062
 20
188.6110687255859
 11
271.7677612304688
 21
188.2322387695312
  0
LINE
  5
30F
100
AcDbEntity
  8
0
  6
ByLayer
 62
  256
370
   -1
100
AcDbLine
 10
271.388916015625
 20
192.0786743164062
 11
271.7677612304688
 21
191.7677612304688
  0
LINE
  5
310
100
AcDbEntity
  8
0
  6
ByLayer
 62
  256
370
   -1
100
AcDbLine
 10
267.9213256835938
 20
191.3889312744141
 11
268.2322387695312
 21
191.7677612304688
  0
LINE
  5
311
100
AcDbEntity
  8
0
  6
ByLayer
 62
  256
370
   -1
100
AcDbLine
 10
268.611083984375
 20
187.9213256835938
 11
268.2322387695312
 21
188.2322387695312
  0
LINE
  5
312
100
AcDbEntity
  8
0
  6
ByLayer
 62
  256
370
   -1
100
AcDbLine
 10
140
 20
200
 11
150
 21
200
  0
LINE
  5
313
100
AcDbEntity
  8
0
  6
ByLayer
 62
  256
370
   -1
100
AcDbLine
 10
193
 20
164
 11
182.2565612792969
 21
164
  0
LINE
  5
314
100
AcDbEntity
  8
0
  6
ByLayer
 62
  256
370
   -1
100
AcDbLine
 10
237
 20
169.2522430419922
 11
237
 21
170.5202331542969
  0
LINE
  5
315
100
AcDbEntity
  8
0
  6
ByLayer
 62
  256
370
   -1
100
AcDbLine
 10
237
 20
169.2522430419922
 11
237
 21
167.6707305908203
  0
LINE
  5
316
100
AcDbEntity
  8
0
  6
ByLayer
 62
  256
370
   -1
100
AcDbLine
 10
237
 20
179.444580078125
 11
237
 21
178.9913635253906
  0
LINE
  5
317
100
AcDbEntity
  8
0
  6
ByLayer
 62
  256
370
   -1
100
AcDbLine
 10
12.07867431640625
 20
11.38892555236816
 11
11.76776123046875
 21
11.76776695251465
  0
LINE
  5
318
100
AcDbEntity
  8
0
  6
ByLayer
 62
  256
370
   -1
100
AcDbLine
 10
7.92132568359375
 20
8.611074447631836
 11
8.23223876953125
 21
8.232233047485352
  0
LINE
  5
319
100
AcDbEntity
  8
0
  6
ByLayer
 62
  256
370
   -1
100
AcDbLine
 10
8.611083984375
 20
12.07867431640625
 11
8.23223876953125
 21
11.76776695251465
  0
LINE
  5
31A
100
AcDbEntity
  8
0
  6
ByLayer
 62
  256
370
   -1
100
AcDbLine
 10
11.388916015625
 20
7.92132568359375
 11
11.76776123046875
 21
8.232233047485352
  0
LINE
  5
31B
100
AcDbEntity
  8
0
  6
ByLayer
 62
  256
370
   -1
100
AcDbLine
 10
0
 20
30
 11
0
 21
60
  0
LINE
  5
31C
100
AcDbEntity
  8
0
  6
ByLayer
 62
  256
370
   -1
100
AcDbLine
 10
9.043304443359375
 20
192.3096923828125
 11
8.611083984375
 21
192.0786743164062
  0
LINE
  5
31D
100
AcDbEntity
  8
0
  6
ByLayer
 62
  256
370
   -1
100
AcDbLine
 10
12.3096923828125
 20
190.9567108154297
 11
12.07867431640625
 21
191.3889312744141
  0
LINE
  5
31E
100
AcDbEntity
  8
0
  6
ByLayer
 62
  256
370
   -1
100
AcDbLine
 10
7.6903076171875
 20
189.0432891845703
 11
7.92132568359375
 21
188.6110687255859
  0
LINE
  5
31F
100
AcDbEntity
  8
0
  6
ByLayer
 62
  256
370
   -1
100
AcDbLine
 10
10.95669555664062
 20
187.6903076171875
 11
11.388916015625
 21
187.9213256835938
  0
LINE
  5
320
100
AcDbEntity
  8
0
  6
ByLayer
 62
  256
370
   -1
100
AcDbLine
 10
52.55316162109375
 20
100.9354858398438
 11
51.06098937988281
 21
101.0359268188477
  0
LINE
  5
321
100
AcDbEntity
  8
0
  6
ByLayer
 62
  256
370
   -1
100
AcDbLine
 10
43.05601501464844
 20
117.4855270385742
 11
43.84626770019531
 21
118.6553421020508
  0
LINE
  5
322
100
AcDbEntity
  8
0
  6
ByLayer
 62
  256
370
   -1
100
AcDbLine
 10
87.90982055664062
 20
106.3839950561523
 11
88.54730224609375
 21
107.6540832519531
  0
LINE
  5
323
100
AcDbEntity
  8
0
  6
ByLayer
 62
  256
370
   -1
100
AcDbLine
 10
62.05033874511719
 20
117.4855270385742
 11
62.68783569335938
 21
116.2154312133789
  0
LINE
  5
324
100
AcDbEntity
  8
0
  6
ByLayer
 62
  256
370
   -1
100
AcDbLine
 10
79.69033813476562
 20
140.9925384521484
 11
79.0528564453125
 21
139.7224426269531
  0
LINE
  5
325
100
AcDbEntity
  8
0
  6
ByLayer
 62
  256
370
   -1
100
AcDbLine
 10
43.05598449707031
 20
106.3839950561523
 11
42.41848754882812
 21
107.6540908813477
  0
LINE
  5
326
100
AcDbEntity
  8
0
  6
ByLayer
 62
  256
370
   -1
100
AcDbLine
 10
62.05030822753906
 20
106.3839950561523
 11
61.26005554199219
 21
105.2141723632812
  0
LINE
  5
327
100
AcDbEntity
  8
0
  6
ByLayer
 62
  256
370
   -1
100
AcDbLine
 10
52.55316162109375
 20
122.9340362548828
 11
54.04533386230469
 21
122.8335876464844
  0
LINE
  5
328
100
AcDbEntity
  8
0
  6
ByLayer
 62
  256
370
   -1
100
AcDbLine
 10
91.31344604492188
 20
104.0833892822266
 11
91.0208740234375
 21
102.6521224975586
  0
LINE
  5
329
100
AcDbEntity
  8
0
  6
ByLayer
 62
  256
370
   -1
100
AcDbLine
 10
78.41267395019531
 20
122.9340362548828
 11
76.92051696777344
 21
122.8335952758789
  0
LINE
  5
32A
100
AcDbEntity
  8
0
  6
ByLayer
 62
  256
370
   -1
100
AcDbLine
 10
68.91552734375
 20
117.4855270385742
 11
68.27804565429688
 21
116.2154312133789
  0
LINE
  5
32B
100
AcDbEntity
  8
0
  6
ByLayer
 62
  256
370
   -1
100
AcDbLine
 10
98.68466186523438
 20
129.8910217285156
 11
99.3221435546875
 21
131.1611022949219
  0
LINE
  5
32C
100
AcDbEntity
  8
0
  6
ByLayer
 62
  256
370
   -1
100
AcDbLine
 10
87.90983581542969
 20
117.4855194091797
 11
87.11958312988281
 21
118.6553344726562
  0
LINE
  5
32D
100
AcDbEntity
  8
0
  6
ByLayer
 62
  256
370
   -1
100
AcDbLine
 10
112.5259552001953
 20
98.23652648925781
 11
112.8185424804688
 21
99.66778564453125
  0
LINE
  5
32E
100
AcDbEntity
  8
0
  6
ByLayer
 62
  256
370
   -1
100
AcDbLine
 10
68.91551208496094
 20
106.3840026855469
 11
69.70576477050781
 21
105.2141799926758
  0
LINE
  5
32F
100
AcDbEntity
  8
0
  6
ByLayer
 62
  256
370
   -1
100
AcDbLine
 10
92.42254638671875
 20
95.60919189453125
 11
91.78506469726562
 21
96.87928771972656
  0
LINE
  5
330
100
AcDbEntity
  8
0
  6
ByLayer
 62
  256
370
   -1
100
AcDbLine
 10
79.69032287597656
 20
129.8910217285156
 11
80.48057556152344
 21
128.72119140625
  0
LINE
  5
331
100
AcDbEntity
  8
0
  6
ByLayer
 62
  256
370
   -1
100
AcDbLine
 10
78.41267395019531
 20
100.9354858398438
 11
79.90483093261719
 21
101.0359268188477
  0
LINE
  5
332
100
AcDbEntity
  8
0
  6
ByLayer
 62
  256
370
   -1
100
AcDbLine
 10
108.6402740478516
 20
109.8668594360352
 11
107.470458984375
 21
110.6571197509766
  0
LINE
  5
333
100
AcDbEntity
  8
0
  6
ByLayer
 62
  256
370
   -1
100
AcDbLine
 10
98.68463134765625
 20
140.9925537109375
 11
97.89437866210938
 21
142.1623687744141
  0
LINE
  5
334
100
AcDbEntity
  8
0
  6
ByLayer
 62
  256
370
   -1
100
AcDbLine
 10
89.18748474121094
 20
146.4410552978516
 11
87.69532775878906
 21
146.3406066894531
  0
LINE
  5
335
100
AcDbEntity
  8
0
  6
ByLayer
 62
  256
370
   -1
100
AcDbLine
 10
89.18748474121094
 20
124.4425048828125
 11
90.67965698242188
 21
124.5429534912109
  0
LINE
  5
336
100
AcDbEntity
  8
0
  6
ByLayer
 62
  256
370
   -1
100
AcDbLine
 10
112.8185119628906
 20
102.6521224975586
 11
112.9189758300781
 21
101.1599578857422
  0
LINE
  5
337
100
AcDbEntity
  8
0
  6
ByLayer
 62
  256
370
   -1
100
AcDbLine
 10
108.6402740478516
 20
109.8668594360352
 11
109.6966857910156
 21
108.9369583129883
  0
LINE
  5
338
100
AcDbEntity
  8
0
  6
ByLayer
 62
  256
370
   -1
100
AcDbLine
 10
92.42254638671875
 20
95.60919189453125
 11
93.21279907226562
 21
94.43937683105469
  0
LINE
  5
339
100
AcDbEntity
  8
0
  6
ByLayer
 62
  256
370
   -1
100
AcDbLine
 10
112.5259552001953
 20
98.23652648925781
 11
112.0543518066406
 21
96.87928771972656
  0
LINE
  5
33A
100
AcDbEntity
  8
0
  6
ByLayer
 62
  256
370
   -1
100
AcDbLine
 10
140
 20
200
 11
130
 21
200
  0
LINE
  5
33B
100
AcDbEntity
  8
0
  6
ByLayer
 62
  256
370
   -1
100
AcDbLine
 10
137.0765686035156
 20
34.39375305175781
 11
135.7193298339844
 21
34.86534881591797
  0
LINE
  5
33C
100
AcDbEntity
  8
0
  6
ByLayer
 62
  256
370
   -1
100
AcDbLine
 10
142.9234313964844
 20
55.60624694824219
 11
144.2806701660156
 21
55.13465118408203
  0
LINE
  5
33D
100
AcDbEntity
  8
0
  6
ByLayer
 62
  256
370
   -1
100
AcDbLine
 10
129.3937530517578
 20
42.07656860351562
 11
129.1011657714844
 21
43.50783538818359
  0
LINE
  5
33E
100
AcDbEntity
  8
0
  6
ByLayer
 62
  256
370
   -1
100
AcDbLine
 10
150.6062469482422
 20
47.92343139648438
 11
150.8988342285156
 21
46.49216461181641
  0
LINE
  5
33F
100
AcDbEntity
  8
0
  6
ByLayer
 62
  256
370
   -1
100
AcDbLine
 10
150.5087280273438
 20
71.06273651123047
 11
151.5651397705078
 21
71.99263763427734
  0
LINE
  5
340
100
AcDbEntity
  8
0
  6
ByLayer
 62
  256
370
   -1
100
AcDbLine
 10
132.2229919433594
 20
52.77700042724609
 11
133.2794036865234
 21
53.70690155029297
  0
LINE
  5
341
100
AcDbEntity
  8
0
  6
ByLayer
 62
  256
370
   -1
100
AcDbLine
 10
147.7770080566406
 20
37.22299957275391
 11
146.7205810546875
 21
36.29309844970703
  0
LINE
  5
342
100
AcDbEntity
  8
0
  6
ByLayer
 62
  256
370
   -1
100
AcDbLine
 10
166.062744140625
 20
55.50872802734375
 11
165.0063171386719
 21
54.57882690429688
  0
LINE
  5
343
100
AcDbEntity
  8
0
  6
ByLayer
 62
  256
370
   -1
100
AcDbLine
 10
147.6794891357422
 20
60.3623046875
 11
147.3869018554688
 21
61.7935676574707
  0
LINE
  5
344
100
AcDbEntity
  8
0
  6
ByLayer
 62
  256
370
   -1
100
AcDbLine
 10
155.3623046875
 20
52.67948913574219
 11
154.0050659179688
 21
53.15108489990234
  0
LINE
  5
345
100
AcDbEntity
  8
0
  6
ByLayer
 62
  256
370
   -1
100
AcDbLine
 10
168.8919677734375
 20
66.20916748046875
 11
169.1845703125
 21
64.77790069580078
  0
LINE
  5
346
100
AcDbEntity
  8
0
  6
ByLayer
 62
  256
370
   -1
100
AcDbLine
 10
161.2091674804688
 20
73.89198303222656
 11
162.56640625
 21
73.42038726806641
  0
LINE
  5
347
100
AcDbEntity
  8
0
  6
ByLayer
 62
  256
370
   -1
100
AcDbLine
 10
178.677001953125
 20
137.625732421875
 11
180.0342407226562
 21
137.1541290283203
  0
LINE
  5
348
100
AcDbEntity
  8
0
  6
ByLayer
 62
  256
370
   -1
100
AcDbLine
 10
186.3598327636719
 20
104.0833892822266
 11
186.6524047851562
 21
102.6521224975586
  0
LINE
  5
349
100
AcDbEntity
  8
0
  6
ByLayer
 62
  256
370
   -1
100
AcDbLine
 10
172.8301391601562
 20
116.4132308959961
 11
171.472900390625
 21
116.8848266601562
  0
LINE
  5
34A
100
AcDbEntity
  8
0
  6
ByLayer
 62
  256
370
   -1
100
AcDbLine
 10
209.8676605224609
 20
140.7177124023438
 11
210.1602478027344
 21
139.2864532470703
  0
LINE
  5
34B
100
AcDbEntity
  8
0
  6
ByLayer
 62
  256
370
   -1
100
AcDbLine
 10
172.8301391601562
 20
90.5537109375
 11
171.472900390625
 21
91.02530670166016
  0
LINE
  5
34C
100
AcDbEntity
  8
0
  6
ByLayer
 62
  256
370
   -1
100
AcDbLine
 10
183.5305786132812
 20
119.2424697875977
 11
182.4741516113281
 21
118.3125686645508
  0
LINE
  5
34D
100
AcDbEntity
  8
0
  6
ByLayer
 62
  256
370
   -1
100
AcDbLine
 10
196.3379821777344
 20
127.1880264282227
 11
194.9807434082031
 21
127.6596221923828
  0
LINE
  5
34E
100
AcDbEntity
  8
0
  6
ByLayer
 62
  256
370
   -1
100
AcDbLine
 10
209.8676605224609
 20
114.8581924438477
 11
210.1602478027344
 21
113.4269256591797
  0
LINE
  5
34F
100
AcDbEntity
  8
0
  6
ByLayer
 62
  256
370
   -1
100
AcDbLine
 10
178.677001953125
 20
111.7662048339844
 11
180.0342407226562
 21
111.2946090698242
  0
LINE
  5
350
100
AcDbEntity
  8
0
  6
ByLayer
 62
  256
370
   -1
100
AcDbLine
 10
165.1473236083984
 20
98.23652648925781
 11
164.854736328125
 21
99.66779327392578
  0
LINE
  5
351
100
AcDbEntity
  8
0
  6
ByLayer
 62
  256
370
   -1
100
AcDbLine
 10
188.6551513671875
 20
109.0113296508789
 11
188.3625793457031
 21
110.4425964355469
  0
LINE
  5
352
100
AcDbEntity
  8
0
  6
ByLayer
 62
  256
370
   -1
100
AcDbLine
 10
183.5305786132812
 20
93.38295745849609
 11
182.4741516113281
 21
92.45305633544922
  0
LINE
  5
353
100
AcDbEntity
  8
0
  6
ByLayer
 62
  256
370
   -1
100
AcDbLine
 10
167.9765625
 20
108.9369659423828
 11
169.0329895019531
 21
109.8668670654297
  0
LINE
  5
354
100
AcDbEntity
  8
0
  6
ByLayer
 62
  256
370
   -1
100
AcDbLine
 10
167.9765625
 20
134.7964782714844
 11
169.0329895019531
 21
135.7263793945312
  0
LINE
  5
355
100
AcDbEntity
  8
0
  6
ByLayer
 62
  256
370
   -1
100
AcDbLine
 10
191.4844055175781
 20
119.7117614746094
 11
192.5408325195312
 21
120.6416625976562
  0
LINE
  5
356
100
AcDbEntity
  8
0
  6
ByLayer
 62
  256
370
   -1
100
AcDbLine
 10
228.0443725585938
 20
148.4005279541016
 11
229.401611328125
 21
147.9289245605469
  0
LINE
  5
357
100
AcDbEntity
  8
0
  6
ByLayer
 62
  256
370
   -1
100
AcDbLine
 10
202.1848449707031
 20
122.5410079956055
 11
203.5420837402344
 21
122.0694122314453
  0
LINE
  5
358
100
AcDbEntity
  8
0
  6
ByLayer
 62
  256
370
   -1
100
AcDbLine
 10
239.8067932128906
 20
129.4834442138672
 11
239.5142059326172
 21
130.9147033691406
  0
LINE
  5
359
100
AcDbEntity
  8
0
  6
ByLayer
 62
  256
370
   -1
100
AcDbLine
 10
222.1974945068359
 20
127.1880264282227
 11
220.8402557373047
 21
127.6596221923828
  0
LINE
  5
35A
100
AcDbEntity
  8
0
  6
ByLayer
 62
  256
370
   -1
100
AcDbLine
 10
207.0384216308594
 20
104.1577529907227
 11
205.9819946289062
 21
103.2278518676758
  0
LINE
  5
35B
100
AcDbEntity
  8
0
  6
ByLayer
 62
  256
370
   -1
100
AcDbLine
 10
188.6551513671875
 20
134.870849609375
 11
188.3625793457031
 21
136.3021087646484
  0
LINE
  5
35C
100
AcDbEntity
  8
0
  6
ByLayer
 62
  256
370
   -1
100
AcDbLine
 10
196.3379821777344
 20
101.3285140991211
 11
194.9807434082031
 21
101.8001098632812
  0
LINE
  5
35D
100
AcDbEntity
  8
0
  6
ByLayer
 62
  256
370
   -1
100
AcDbLine
 10
191.4844055175781
 20
145.5712585449219
 11
192.5408325195312
 21
146.5011596679688
  0
LINE
  5
35E
100
AcDbEntity
  8
0
  6
ByLayer
 62
  256
370
   -1
100
AcDbLine
 10
214.5146789550781
 20
134.870849609375
 11
214.2221069335938
 21
136.3021087646484
  0
LINE
  5
35F
100
AcDbEntity
  8
0
  6
ByLayer
 62
  256
370
   -1
100
AcDbLine
 10
165.1473236083984
 20
124.0960388183594
 11
164.854736328125
 21
125.5273056030273
  0
LINE
  5
360
100
AcDbEntity
  8
0
  6
ByLayer
 62
  256
370
   -1
100
AcDbLine
 10
186.3598327636719
 20
129.9429016113281
 11
186.6524047851562
 21
128.5116424560547
  0
LINE
  5
361
100
AcDbEntity
  8
0
  6
ByLayer
 62
  256
370
   -1
100
AcDbLine
 10
202.1848449707031
 20
148.4005279541016
 11
203.5420837402344
 21
147.9289245605469
  0
LINE
  5
362
100
AcDbEntity
  8
0
  6
ByLayer
 62
  256
370
   -1
100
AcDbLine
 10
247.4895935058594
 20
121.8006286621094
 11
246.1323547363281
 21
122.2722244262695
  0
LINE
  5
363
100
AcDbEntity
  8
0
  6
ByLayer
 62
  256
370
   -1
100
AcDbLine
 10
207.0384216308594
 20
130.0172729492188
 11
205.9819946289062
 21
129.0873718261719
  0
LINE
  5
364
100
AcDbEntity
  8
0
  6
ByLayer
 62
  256
370
   -1
100
AcDbLine
 10
222.1974945068359
 20
101.3285140991211
 11
220.8402557373047
 21
101.8001098632812
  0
LINE
  5
365
100
AcDbEntity
  8
0
  6
ByLayer
 62
  256
370
   -1
100
AcDbLine
 10
235.7271728515625
 20
140.7177124023438
 11
236.0197448730469
 21
139.2864532470703
  0
LINE
  5
366
100
AcDbEntity
  8
0
  6
ByLayer
 62
  256
370
   -1
100
AcDbLine
 10
217.3439331054688
 20
145.5712585449219
 11
218.4003448486328
 21
146.5011596679688
  0
LINE
  5
367
100
AcDbEntity
  8
0
  6
ByLayer
 62
  256
370
   -1
100
AcDbLine
 10
253.3364715576172
 20
117.1536026000977
 11
254.6937103271484
 21
116.6820068359375
  0
LINE
  5
368
100
AcDbEntity
  8
0
  6
ByLayer
 62
  256
370
   -1
100
AcDbLine
 10
214.5146789550781
 20
109.0113296508789
 11
214.2221069335938
 21
110.4425964355469
  0
LINE
  5
369
100
AcDbEntity
  8
0
  6
ByLayer
 62
  256
370
   -1
100
AcDbLine
 10
232.8979187011719
 20
130.0172729492188
 11
231.8415222167969
 21
129.0873718261719
  0
LINE
  5
36A
100
AcDbEntity
  8
0
  6
ByLayer
 62
  256
370
   -1
100
AcDbLine
 10
253.3364715576172
 20
143.0131225585938
 11
254.6937103271484
 21
142.5415344238281
  0
LINE
  5
36B
100
AcDbEntity
  8
0
  6
ByLayer
 62
  256
370
   -1
100
AcDbLine
 10
242.6360321044922
 20
114.3243637084961
 11
243.6924438476562
 21
115.254264831543
  0
LINE
  5
36C
100
AcDbEntity
  8
0
  6
ByLayer
 62
  256
370
   -1
100
AcDbLine
 10
261.019287109375
 20
135.330322265625
 11
261.3118591308594
 21
133.8990478515625
  0
LINE
  5
36D
100
AcDbEntity
  8
0
  6
ByLayer
 62
  256
370
   -1
100
AcDbLine
 10
235.7271728515625
 20
114.8581924438477
 11
236.0197448730469
 21
113.4269256591797
  0
LINE
  5
36E
100
AcDbEntity
  8
0
  6
ByLayer
 62
  256
370
   -1
100
AcDbLine
 10
217.3439331054688
 20
119.7117614746094
 11
218.4003448486328
 21
120.6416625976562
  0
LINE
  5
36F
100
AcDbEntity
  8
0
  6
ByLayer
 62
  256
370
   -1
100
AcDbLine
 10
232.8979187011719
 20
104.1577529907227
 11
231.8415222167969
 21
103.2278518676758
  0
LINE
  5
370
100
AcDbEntity
  8
0
  6
ByLayer
 62
  256
370
   -1
100
AcDbLine
 10
228.0443725585938
 20
122.5410079956055
 11
229.401611328125
 21
122.0694122314453
  0
LINE
  5
371
100
AcDbEntity
  8
0
  6
ByLayer
 62
  256
370
   -1
100
AcDbLine
 10
261.019287109375
 20
109.4707946777344
 11
261.3118591308594
 21
108.0395278930664
  0
LINE
  5
372
100
AcDbEntity
  8
0
  6
ByLayer
 62
  256
370
   -1
100
AcDbLine
 10
258.1900634765625
 20
124.6298751831055
 11
257.1336364746094
 21
123.6999740600586
  0
LINE
  5
373
100
AcDbEntity
  8
0
  6
ByLayer
 62
  256
370
   -1
100
AcDbLine
 10
242.6360321044922
 20
140.1838684082031
 11
243.6924438476562
 21
141.11376953125
  0
LINE
  5
374
100
AcDbEntity
  8
0
  6
ByLayer
 62
  256
370
   -1
100
AcDbLine
 10
239.8067932128906
 20
103.6239242553711
 11
239.5142059326172
 21
105.0551910400391
  0
LINE
  5
375
100
AcDbEntity
  8
0
  6
ByLayer
 62
  256
370
   -1
100
AcDbLine
 10
247.4895935058594
 20
95.94110870361328
 11
246.1323547363281
 21
96.41270446777344
  0
LINE
  5
376
100
AcDbEntity
  8
0
  6
ByLayer
 62
  256
370
   -1
100
AcDbLine
 10
258.1900634765625
 20
98.77035522460938
 11
257.1336364746094
 21
97.8404541015625
  0
LINE
  5
377
100
AcDbEntity
  8
0
  6
ByLayer
 62
  256
370
   -1
100
AcDbLine
 10
272.3096923828125
 20
10.95670890808105
 11
272.4519653320312
 21
10.48772621154785
  0
LINE
  5
378
100
AcDbEntity
  8
0
  6
ByLayer
 62
  256
370
   -1
100
AcDbLine
 10
269.0433044433594
 20
12.30969905853271
 11
269.5122680664062
 21
12.45196342468262
  0
LINE
  5
379
100
AcDbEntity
  8
0
  6
ByLayer
 62
  256
370
   -1
100
AcDbLine
 10
270.9566955566406
 20
7.690300941467285
 11
270.4877319335938
 21
7.548036575317383
  0
LINE
  5
37A
100
AcDbEntity
  8
0
  6
ByLayer
 62
  256
370
   -1
100
AcDbLine
 10
267.6903076171875
 20
9.043291091918945
 11
267.5480346679688
 21
9.512273788452148
  0
LINE
  5
37B
100
AcDbEntity
  8
0
  6
ByLayer
 62
  256
370
   -1
100
AcDbLine
 10
268.2322387695312
 20
191.7677612304688
 11
268.611083984375
 21
192.0786743164062
  0
LINE
  5
37C
100
AcDbEntity
  8
0
  6
ByLayer
 62
  256
370
   -1
100
AcDbLine
 10
271.7677612304688
 20
191.7677612304688
 11
272.0786743164062
 21
191.3889312744141
  0
LINE
  5
37D
100
AcDbEntity
  8
0
  6
ByLayer
 62
  256
370
   -1
100
AcDbLine
 10
268.2322387695312
 20
188.2322387695312
 11
267.9213256835938
 21
188.6110687255859
  0
LINE
  5
37E
100
AcDbEntity
  8
0
  6
ByLayer
 62
  256
370
   -1
100
AcDbLine
 10
271.7677612304688
 20
188.2322387695312
 11
271.388916015625
 21
187.9213256835938
  0
LINE
  5
37F
100
AcDbEntity
  8
0
  6
ByLayer
 62
  256
370
   -1
100
AcDbLine
 10
171
 20
186
 11
171
 21
164
  0
LINE
  5
380
100
AcDbEntity
  8
0
  6
ByLayer
 62
  256
370
   -1
100
AcDbLine
 10
237
 20
170.5202331542969
 11
237
 21
171.4904174804688
  0
LINE
  5
381
100
AcDbEntity
  8
0
  6
ByLayer
 62
  256
370
   -1
100
AcDbLine
 10
217.9785308837891
 20
164
 11
219.2968444824219
 21
164
  0
LINE
  5
382
100
AcDbEntity
  8
0
  6
ByLayer
 62
  256
370
   -1
100
AcDbLine
 10
11.76776123046875
 20
11.76776695251465
 11
11.388916015625
 21
12.07867431640625
  0
LINE
  5
383
100
AcDbEntity
  8
0
  6
ByLayer
 62
  256
370
   -1
100
AcDbLine
 10
8.23223876953125
 20
11.76776695251465
 11
7.92132568359375
 21
11.38892555236816
  0
LINE
  5
384
100
AcDbEntity
  8
0
  6
ByLayer
 62
  256
370
   -1
100
AcDbLine
 10
11.76776123046875
 20
8.232233047485352
 11
12.07867431640625
 21
8.611074447631836
  0
LINE
  5
385
100
AcDbEntity
  8
0
  6
ByLayer
 62
  256
370
   -1
100
AcDbLine
 10
8.23223876953125
 20
8.232233047485352
 11
8.611083984375
 21
7.92132568359375
  0
LINE
  5
386
100
AcDbEntity
  8
0
  6
ByLayer
 62
  256
370
   -1
100
AcDbLine
 10
30
 20
200
 11
130
 21
200
  0
LINE
  5
387
100
AcDbEntity
  8
0
  6
ByLayer
 62
  256
370
   -1
100
AcDbLine
 10
30
 20
200
 11
10
 21
200
  0
LINE
  5
388
100
AcDbEntity
  8
0
  6
ByLayer
 62
  256
370
   -1
100
AcDbLine
 10
7.92132568359375
 20
188.6110687255859
 11
8.23223876953125
 21
188.2322387695312
  0
LINE
  5
389
100
AcDbEntity
  8
0
  6
ByLayer
 62
  256
370
   -1
100
AcDbLine
 10
8.611083984375
 20
192.0786743164062
 11
8.23223876953125
 21
191.7677612304688
  0
LINE
  5
38A
100
AcDbEntity
  8
0
  6
ByLayer
 62
  256
370
   -1
100
AcDbLine
 10
12.07867431640625
 20
191.3889312744141
 11
11.76776123046875
 21
191.7677612304688
  0
LINE
  5
38B
100
AcDbEntity
  8
0
  6
ByLayer
 62
  256
370
   -1
100
AcDbLine
 10
11.388916015625
 20
187.9213256835938
 11
11.76776123046875
 21
188.2322387695312
  0
LINE
  5
38C
100
AcDbEntity
  8
0
  6
ByLayer
 62
  256
370
   -1
100
AcDbLine
 10
76.92051696777344
 20
122.8335952758789
 11
75.4892578125
 21
122.5410079956055
  0
LINE
  5
38D
100
AcDbEntity
  8
0
  6
ByLayer
 62
  256
370
   -1
100
AcDbLine
 10
79.90483093261719
 20
101.0359268188477
 11
81.33609008789062
 21
101.3285064697266
  0
LINE
  5
38E
100
AcDbEntity
  8
0
  6
ByLayer
 62
  256
370
   -1
100
AcDbLine
 10
54.04533386230469
 20
122.8335876464844
 11
55.47660827636719
 21
122.5410079956055
  0
LINE
  5
38F
100
AcDbEntity
  8
0
  6
ByLayer
 62
  256
370
   -1
100
AcDbLine
 10
43.84626770019531
 20
118.6553421020508
 11
44.77616882324219
 21
119.7117614746094
  0
LINE
  5
390
100
AcDbEntity
  8
0
  6
ByLayer
 62
  256
370
   -1
100
AcDbLine
 10
61.26005554199219
 20
105.2141723632812
 11
60.33015441894531
 21
104.1577529907227
  0
LINE
  5
391
100
AcDbEntity
  8
0
  6
ByLayer
 62
  256
370
   -1
100
AcDbLine
 10
51.06098937988281
 20
101.0359268188477
 11
49.62971496582031
 21
101.3285140991211
  0
LINE
  5
392
100
AcDbEntity
  8
0
  6
ByLayer
 62
  256
370
   -1
100
AcDbLine
 10
62.68783569335938
 20
116.2154312133789
 11
63.15943908691406
 21
114.8581924438477
  0
LINE
  5
393
100
AcDbEntity
  8
0
  6
ByLayer
 62
  256
370
   -1
100
AcDbLine
 10
79.0528564453125
 20
139.7224426269531
 11
78.58125305175781
 21
138.3652038574219
  0
LINE
  5
394
100
AcDbEntity
  8
0
  6
ByLayer
 62
  256
370
   -1
100
AcDbLine
 10
42.41848754882812
 20
107.6540908813477
 11
41.94688415527344
 21
109.0113296508789
  0
LINE
  5
395
100
AcDbEntity
  8
0
  6
ByLayer
 62
  256
370
   -1
100
AcDbLine
 10
68.27804565429688
 20
116.2154312133789
 11
67.80644226074219
 21
114.8581924438477
  0
LINE
  5
396
100
AcDbEntity
  8
0
  6
ByLayer
 62
  256
370
   -1
100
AcDbLine
 10
87.11958312988281
 20
118.6553344726562
 11
86.18968200683594
 21
119.7117614746094
  0
LINE
  5
397
100
AcDbEntity
  8
0
  6
ByLayer
 62
  256
370
   -1
100
AcDbLine
 10
69.70576477050781
 20
105.2141799926758
 11
70.63566589355469
 21
104.1577606201172
  0
LINE
  5
398
100
AcDbEntity
  8
0
  6
ByLayer
 62
  256
370
   -1
100
AcDbLine
 10
99.3221435546875
 20
131.1611022949219
 11
99.79373168945312
 21
132.5183410644531
  0
LINE
  5
399
100
AcDbEntity
  8
0
  6
ByLayer
 62
  256
370
   -1
100
AcDbLine
 10
91.0208740234375
 20
102.6521224975586
 11
90.92042541503906
 21
101.1599578857422
  0
LINE
  5
39A
100
AcDbEntity
  8
0
  6
ByLayer
 62
  256
370
   -1
100
AcDbLine
 10
88.54730224609375
 20
107.6540832519531
 11
89.01890563964844
 21
109.0113220214844
  0
LINE
  5
39B
100
AcDbEntity
  8
0
  6
ByLayer
 62
  256
370
   -1
100
AcDbLine
 10
97.89437866210938
 20
142.1623687744141
 11
96.9644775390625
 21
143.2187805175781
  0
LINE
  5
39C
100
AcDbEntity
  8
0
  6
ByLayer
 62
  256
370
   -1
100
AcDbLine
 10
80.48057556152344
 20
128.72119140625
 11
81.41047668457031
 21
127.6647796630859
  0
LINE
  5
39D
100
AcDbEntity
  8
0
  6
ByLayer
 62
  256
370
   -1
100
AcDbLine
 10
87.69532775878906
 20
146.3406066894531
 11
86.26406860351562
 21
146.0480194091797
  0
LINE
  5
39E
100
AcDbEntity
  8
0
  6
ByLayer
 62
  256
370
   -1
100
AcDbLine
 10
90.67965698242188
 20
124.5429534912109
 11
92.11093139648438
 21
124.8355331420898
  0
LINE
  5
39F
100
AcDbEntity
  8
0
  6
ByLayer
 62
  256
370
   -1
100
AcDbLine
 10
93.21279907226562
 20
94.43937683105469
 11
94.1427001953125
 21
93.38295745849609
  0
LINE
  5
3A0
100
AcDbEntity
  8
0
  6
ByLayer
 62
  256
370
   -1
100
AcDbLine
 10
98.99624633789062
 20
111.7662124633789
 11
100.4275207519531
 21
112.0587921142578
  0
LINE
  5
3A1
100
AcDbEntity
  8
0
  6
ByLayer
 62
  256
370
   -1
100
AcDbLine
 10
98.99624633789062
 20
111.7662124633789
 11
97.63900756835938
 21
111.2946090698242
  0
LINE
  5
3A2
100
AcDbEntity
  8
0
  6
ByLayer
 62
  256
370
   -1
100
AcDbLine
 10
107.470458984375
 20
110.6571197509766
 11
106.2003784179688
 21
111.2946090698242
  0
LINE
  5
3A3
100
AcDbEntity
  8
0
  6
ByLayer
 62
  256
370
   -1
100
AcDbLine
 10
100.4275360107422
 20
90.26112365722656
 11
98.99627685546875
 21
90.5537109375
  0
LINE
  5
3A4
100
AcDbEntity
  8
0
  6
ByLayer
 62
  256
370
   -1
100
AcDbLine
 10
171
 20
164
 11
174.2348175048828
 21
164
  0
ENDSEC
  0
SECTION
  2
OBJECTS
  0
DICTIONARY
  5
C
330
0
100
AcDbDictionary
281
    1
  3
ACAD_GROUP
350
D
  0
DICTIONARY
  5
D
330
C
100
AcDbDictionary
281
    1
  0
PLOTSETTINGS
  5
3A5
100
AcDbPlotSettings
  6
1x1
 40
0
 41
0
 42
0
 43
0
  0
ENDSEC
  0
EOF
