999
dxfrw 0.6.3
  0
SECTION
  2
HEADER
  9
$ACADVER
  1
AC1021
  9
$DWGCODEPAGE
  3
ANSI_1252
  9
$INSBASE
 10
0
 20
0
 30
0
  9
$EXTMIN
 10
-1.525878909092171e-05
 20
0
 30
0
  9
$EXTMAX
 10
207
 20
290
 30
0
  9
$LIMMIN
 10
0
 20
0
  9
$LIMMAX
 10
420
 20
297
  9
$ORTHOMODE
 70
    0
  9
$REGENMODE
 70
    1
  9
$FILLMODE
 70
    1
  9
$QTEXTMODE
 70
    0
  9
$MIRRTEXT
 70
    0
  9
$LTSCALE
 40
1
  9
$ATTMODE
 70
    0
  9
$TEXTSIZE
 40
2.5
  9
$TRACEWID
 40
15.68
  9
$TEXTSTYLE
  7
STANDARD
  9
$CLAYER
  8
0
  9
$CELTYPE
  6
BYLAYER
  9
$CECOLOR
 62
  256
  9
$CELTSCALE
 40
1
  9
$DISPSILH
 70
    0
  9
$DIMSCALE
 40
2.5
  9
$DIMASZ
 40
2.5
  9
$DIMEXO
 40
0.625
  9
$DIMDLI
 40
3.75
  9
$DIMRND
 40
0
  9
$DIMDLE
 40
0
  9
$DIMEXE
 40
1.25
  9
$DIMTP
 40
0
  9
$DIMTM
 40
0
  9
$DIMTXT
 40
2.5
  9
$DIMCEN
 40
2.5
  9
$DIMTSZ
 40
0
  9
$DIMTOL
 70
    0
  9
$DIMLIM
 70
    0
  9
$DIMTIH
 70
    0
  9
$DIMTOH
 70
    0
  9
$DIMSE1
 70
    0
  9
$DIMSE2
 70
    0
  9
$DIMTAD
 70
    1
  9
$DIMZIN
 70
    8
  9
$DIMBLK
  1

  9
$DIMASO
 70
    1
  9
$DIMSHO
 70
    1
  9
$DIMPOST
  1

  9
$DIMAPOST
  1

  9
$DIMALT
 70
    0
  9
$DIMALTD
 70
    3
  9
$DIMALTF
 40
0.03937
  9
$DIMLFAC
 40
1
  9
$DIMTOFL
 70
    1
  9
$DIMTVP
 40
0
  9
$DIMTIX
 70
    0
  9
$DIMSOXD
 70
    0
  9
$DIMSAH
 70
    0
  9
$DIMBLK1
  1

  9
$DIMBLK2
  1

  9
$DIMSTYLE
  2
Standard
  9
$DIMCLRD
 70
    0
  9
$DIMCLRE
 70
    0
  9
$DIMCLRT
 70
    0
  9
$DIMTFAC
 40
1
  9
$DIMGAP
 40
0.625
  9
$DIMJUST
 70
    0
  9
$DIMSD1
 70
    0
  9
$DIMSD2
 70
    0
  9
$DIMTOLJ
 70
    0
  9
$DIMTZIN
 70
    8
  9
$DIMALTZ
 70
    0
  9
$DIMALTTZ
 70
    0
  9
$DIMUPT
 70
    0
  9
$DIMDEC
 70
    2
  9
$DIMTDEC
 70
    2
  9
$DIMALTU
 70
    2
  9
$DIMALTTD
 70
    3
  9
$DIMTXSTY
  7
STANDARD
  9
$DIMAUNIT
 70
    0
  9
$DIMADEC
 70
    0
  9
$DIMALTRND
 40
0
  9
$DIMAZIN
 70
    0
  9
$DIMDSEP
 70
   44
  9
$DIMATFIT
 70
    3
  9
$DIMFRAC
 70
    0
  9
$DIMLDRBLK
  1
STANDARD
  9
$DIMLUNIT
 70
    2
  9
$DIMLWD
 70
   -2
  9
$DIMLWE
 70
   -2
  9
$DIMTMOVE
 70
    0
  9
$DIMFXL
 40
1
  9
$DIMFXLON
 70
    0
  9
$DIMJOGANG
 40
0.7854
  9
$DIMTFILL
 70
    0
  9
$DIMTFILLCLR
 70
    0
  9
$DIMARCSYM
 70
    0
  9
$DIMLTYPE
  6

  9
$DIMLTEX1
  6

  9
$DIMLTEX2
  6

  9
$LUNITS
 70
    2
  9
$LUPREC
 70
    4
  9
$SKETCHINC
 40
1
  9
$FILLETRAD
 40
0
  9
$AUNITS
 70
    0
  9
$AUPREC
 70
    2
  9
$MENU
  1
.
  9
$ELEVATION
 40
0
  9
$PELEVATION
 40
0
  9
$THICKNESS
 40
0
  9
$LIMCHECK
 70
    0
  9
$CHAMFERA
 40
0
  9
$CHAMFERB
 40
0
  9
$CHAMFERC
 40
0
  9
$CHAMFERD
 40
0
  9
$SKPOLY
 70
    0
  9
$USRTIMER
 70
    1
  9
$ANGBASE
 50
0
  9
$ANGDIR
 70
    0
  9
$PDMODE
 70
   34
  9
$PDSIZE
 40
0
  9
$PLINEWID
 40
0
  9
$SPLFRAME
 70
    0
  9
$SPLINETYPE
 70
    2
  9
$SPLINESEGS
 70
    8
  9
$HANDSEED
  5
20000
  9
$SURFTAB1
 70
    6
  9
$SURFTAB2
 70
    6
  9
$SURFTYPE
 70
    6
  9
$SURFU
 70
    6
  9
$SURFV
 70
    6
  9
$UCSBASE
  2

  9
$UCSNAME
  2

  9
$UCSORG
 10
0
 20
0
 30
0
  9
$UCSXDIR
 10
1
 20
0
 30
0
  9
$UCSYDIR
 10
0
 20
1
 30
0
  9
$UCSORTHOREF
  2

  9
$UCSORTHOVIEW
 70
    0
  9
$UCSORGTOP
 10
0
 20
0
 30
0
  9
$UCSORGBOTTOM
 10
0
 20
0
 30
0
  9
$UCSORGLEFT
 10
0
 20
0
 30
0
  9
$UCSORGRIGHT
 10
0
 20
0
 30
0
  9
$UCSORGFRONT
 10
0
 20
0
 30
0
  9
$UCSORGBACK
 10
0
 20
0
 30
0
  9
$PUCSBASE
  2

  9
$PUCSNAME
  2

  9
$PUCSORG
 10
0
 20
0
 30
0
  9
$PUCSXDIR
 10
1
 20
0
 30
0
  9
$PUCSYDIR
 10
0
 20
1
 30
0
  9
$PUCSORTHOREF
  2

  9
$PUCSORTHOVIEW
 70
    0
  9
$PUCSORGTOP
 10
0
 20
0
 30
0
  9
$PUCSORGBOTTOM
 10
0
 20
0
 30
0
  9
$PUCSORGLEFT
 10
0
 20
0
 30
0
  9
$PUCSORGRIGHT
 10
0
 20
0
 30
0
  9
$PUCSORGFRONT
 10
0
 20
0
 30
0
  9
$PUCSORGBACK
 10
0
 20
0
 30
0
  9
$USERI1
 70
    0
  9
$USERI2
 70
    0
  9
$USERI3
 70
    0
  9
$USERI4
 70
    0
  9
$USERI5
 70
    0
  9
$USERR1
 40
0
  9
$USERR2
 40
0
  9
$USERR3
 40
0
  9
$USERR4
 40
0
  9
$USERR5
 40
0
  9
$WORLDVIEW
 70
    1
  9
$SHADEDGE
 70
    3
  9
$SHADEDIF
 70
   70
  9
$TILEMODE
 70
    1
  9
$MAXACTVP
 70
   64
  9
$PINSBASE
 10
0
 20
0
 30
0
  9
$PLIMCHECK
 70
    0
  9
$PEXTMIN
 10
0
 20
0
 30
0
  9
$PEXTMAX
 10
0
 20
0
 30
0
  9
$GRIDMODE
 70
    1
  9
$SNAPSTYLE
 70
    0
  9
$PLIMMIN
 10
0
 20
0
  9
$PLIMMAX
 10
210
 20
297
  9
$UNITMODE
 70
    0
  9
$VISRETAIN
 70
    1
  9
$PLINEGEN
 70
    0
  9
$PSLTSCALE
 70
    1
  9
$TREEDEPTH
 70
 3020
  9
$CMLSTYLE
  2
Standard
  9
$CMLJUST
 70
    0
  9
$CMLSCALE
 40
20
  9
$PROXYGRAPHICS
 70
    1
  9
$MEASUREMENT
 70
    1
  9
$CELWEIGHT
370
   -1
  9
$ENDCAPS
280
    0
  9
$JOINSTYLE
280
    0
  9
$LWDISPLAY
290
    0
  9
$INSUNITS
 70
    4
  9
$HYPERLINKBASE
  1

  9
$STYLESHEET
  1

  9
$XEDIT
290
    1
  9
$CEPSNTYPE
380
    0
  9
$PSTYLEMODE
290
    1
  9
$EXTNAMES
290
    1
  9
$PSVPSCALE
 40
1
  9
$OLESTARTUP
290
    0
  9
$SORTENTS
280
  127
  9
$INDEXCTL
280
    0
  9
$HIDETEXT
280
    1
  9
$XCLIPFRAME
290
    0
  9
$HALOGAP
280
    0
  9
$OBSCOLOR
 70
  257
  9
$OBSLTYPE
280
    0
  9
$INTERSECTIONDISPLAY
280
    0
  9
$INTERSECTIONCOLOR
 70
  257
  9
$DIMASSOC
280
    1
  9
$PROJECTNAME
  1

  9
$CAMERADISPLAY
290
    0
  9
$LENSLENGTH
 40
50
  9
$CAMERAHEIGHT
 40
0
  9
$STEPSPERSEC
 40
2
  9
$STEPSIZE
 40
50
  9
$3DDWFPREC
 40
2
  9
$PSOLWIDTH
 40
5
  9
$PSOLHEIGHT
 40
80
  9
$LOFTANG1
 40
1.570796326794897
  9
$LOFTANG2
 40
1.570796326794897
  9
$LOFTMAG1
 40
0
  9
$LOFTMAG2
 40
0
  9
$LOFTPARAM
 70
    7
  9
$LOFTNORMALS
280
    1
  9
$LATITUDE
 40
1
  9
$LONGITUDE
 40
1
  9
$NORTHDIRECTION
 40
0
  9
$TIMEZONE
 70
-8000
  9
$LIGHTGLYPHDISPLAY
280
    1
  9
$TILEMODELIGHTSYNCH
280
    1
  9
$SOLIDHIST
280
    1
  9
$SHOWHIST
280
    1
  9
$DWFFRAME
280
    2
  9
$DGNFRAME
280
    0
  9
$REALWORLDSCALE
290
    1
  9
$INTERFERECOLOR
 62
    1
  9
$CSHADOW
280
    0
  9
$SHADOWPLANELOCATION
 40
0
  0
ENDSEC
  0
SECTION
  2
CLASSES
  0
ENDSEC
  0
SECTION
  2
TABLES
  0
TABLE
  2
VPORT
  5
8
330
0
100
AcDbSymbolTable
 70
    1
  0
VPORT
  5
31
330
2
100
AcDbSymbolTableRecord
100
AcDbViewportTableRecord
  2
*ACTIVE
 70
    0
 10
0
 20
0
 11
1
 21
1
 12
283.3007929452357
 22
188.3117035459508
 13
0
 23
0
 14
10
 24
10
 15
10
 25
10
 16
0
 26
0
 36
1
 17
0
 27
0
 37
0
 40
535.2718511412336
 41
1.975093399750934
 42
50
 43
0
 44
0
 50
0
 51
0
 71
    0
 72
  100
 73
    1
 74
    3
 75
    0
 76
    1
 77
    0
 78
    0
281
    0
 65
    1
110
0
120
0
130
0
111
1
121
0
131
0
112
0
122
1
132
0
 79
    0
146
0
348
10020
 60
    7
 61
    5
292
1
282
    1
141
0
142
0
 63
  250
421
3358443
  0
ENDTAB
  0
TABLE
  2
LTYPE
  5
5
330
0
100
AcDbSymbolTable
 70
    4
  0
LTYPE
  5
14
330
5
100
AcDbSymbolTableRecord
100
AcDbLinetypeTableRecord
  2
ByBlock
 70
    0
  3

 72
   65
 73
    0
 40
0
  0
LTYPE
  5
15
330
5
100
AcDbSymbolTableRecord
100
AcDbLinetypeTableRecord
  2
ByLayer
 70
    0
  3

 72
   65
 73
    0
 40
0
  0
LTYPE
  5
16
330
5
100
AcDbSymbolTableRecord
100
AcDbLinetypeTableRecord
  2
Continuous
 70
    0
  3
Solid line
 72
   65
 73
    0
 40
0
  0
LTYPE
  5
32
330
5
100
AcDbSymbolTableRecord
100
AcDbLinetypeTableRecord
  2
DOT
 70
    0
  3
Dot . . . . . . . . . . . . . . . . . . . . . .
 72
   65
 73
    2
 40
6.35
 49
0
 74
    0
 49
-6.35
 74
    0
  0
LTYPE
  5
33
330
5
100
AcDbSymbolTableRecord
100
AcDbLinetypeTableRecord
  2
DOTTINY
 70
    0
  3
Dot (.15x) .....................................
 72
   65
 73
    2
 40
0.9525
 49
0
 74
    0
 49
-0.9525
 74
    0
  0
LTYPE
  5
34
330
5
100
AcDbSymbolTableRecord
100
AcDbLinetypeTableRecord
  2
DOT2
 70
    0
  3
Dot (.5x) .....................................
 72
   65
 73
    2
 40
3.175
 49
0
 74
    0
 49
-3.175
 74
    0
  0
LTYPE
  5
35
330
5
100
AcDbSymbolTableRecord
100
AcDbLinetypeTableRecord
  2
DOTX2
 70
    0
  3
Dot (2x) .  .  .  .  .  .  .  .  .  .  .  .  .
 72
   65
 73
    2
 40
12.7
 49
0
 74
    0
 49
-12.7
 74
    0
  0
LTYPE
  5
36
330
5
100
AcDbSymbolTableRecord
100
AcDbLinetypeTableRecord
  2
DASHED
 70
    0
  3
Dashed _ _ _ _ _ _ _ _ _ _ _ _ _ _ _ _ _
 72
   65
 73
    2
 40
19.05
 49
12.7
 74
    0
 49
-6.35
 74
    0
  0
LTYPE
  5
37
330
5
100
AcDbSymbolTableRecord
100
AcDbLinetypeTableRecord
  2
DASHEDTINY
 70
    0
  3
Dashed (.15x) _ _ _ _ _ _ _ _ _ _ _ _ _ _ _ _ _
 72
   65
 73
    2
 40
2.8575
 49
1.905
 74
    0
 49
-0.9525
 74
    0
  0
LTYPE
  5
38
330
5
100
AcDbSymbolTableRecord
100
AcDbLinetypeTableRecord
  2
DASHED2
 70
    0
  3
Dashed (.5x) _ _ _ _ _ _ _ _ _ _ _ _ _ _ _ _ _
 72
   65
 73
    2
 40
9.524999999999999
 49
6.35
 74
    0
 49
-3.175
 74
    0
  0
LTYPE
  5
39
330
5
100
AcDbSymbolTableRecord
100
AcDbLinetypeTableRecord
  2
DASHEDX2
 70
    0
  3
Dashed (2x) ____  ____  ____  ____  ____  ___
 72
   65
 73
    2
 40
38.09999999999999
 49
25.4
 74
    0
 49
-12.7
 74
    0
  0
LTYPE
  5
3A
330
5
100
AcDbSymbolTableRecord
100
AcDbLinetypeTableRecord
  2
DASHDOT
 70
    0
  3
Dash dot __ . __ . __ . __ . __ . __ . __ . __
 72
   65
 73
    4
 40
25.4
 49
12.7
 74
    0
 49
-6.35
 74
    0
 49
0
 74
    0
 49
-6.35
 74
    0
  0
LTYPE
  5
3B
330
5
100
AcDbSymbolTableRecord
100
AcDbLinetypeTableRecord
  2
DASHDOTTINY
 70
    0
  3
Dash dot (.15x) _._._._._._._._._._._._._._._.
 72
   65
 73
    4
 40
3.81
 49
1.905
 74
    0
 49
-0.9525
 74
    0
 49
0
 74
    0
 49
-0.9525
 74
    0
  0
LTYPE
  5
3C
330
5
100
AcDbSymbolTableRecord
100
AcDbLinetypeTableRecord
  2
DASHDOT2
 70
    0
  3
Dash dot (.5x) _._._._._._._._._._._._._._._.
 72
   65
 73
    4
 40
12.7
 49
6.35
 74
    0
 49
-3.175
 74
    0
 49
0
 74
    0
 49
-3.175
 74
    0
  0
LTYPE
  5
3D
330
5
100
AcDbSymbolTableRecord
100
AcDbLinetypeTableRecord
  2
DASHDOTX2
 70
    0
  3
Dash dot (2x) ____  .  ____  .  ____  .  ___
 72
   65
 73
    4
 40
50.8
 49
25.4
 74
    0
 49
-12.7
 74
    0
 49
0
 74
    0
 49
-12.7
 74
    0
  0
LTYPE
  5
3E
330
5
100
AcDbSymbolTableRecord
100
AcDbLinetypeTableRecord
  2
DIVIDE
 70
    0
  3
Divide ____ . . ____ . . ____ . . ____ . . ____
 72
   65
 73
    6
 40
31.75
 49
12.7
 74
    0
 49
-6.35
 74
    0
 49
0
 74
    0
 49
-6.35
 74
    0
 49
0
 74
    0
 49
-6.35
 74
    0
  0
LTYPE
  5
3F
330
5
100
AcDbSymbolTableRecord
100
AcDbLinetypeTableRecord
  2
DIVIDETINY
 70
    0
  3
Divide (.15x) __..__..__..__..__..__..__..__.._
 72
   65
 73
    6
 40
4.7625
 49
1.905
 74
    0
 49
-0.9525
 74
    0
 49
0
 74
    0
 49
-0.9525
 74
    0
 49
0
 74
    0
 49
-0.9525
 74
    0
  0
LTYPE
  5
40
330
5
100
AcDbSymbolTableRecord
100
AcDbLinetypeTableRecord
  2
DIVIDE2
 70
    0
  3
Divide (.5x) __..__..__..__..__..__..__..__.._
 72
   65
 73
    6
 40
15.875
 49
6.35
 74
    0
 49
-3.175
 74
    0
 49
0
 74
    0
 49
-3.175
 74
    0
 49
0
 74
    0
 49
-3.175
 74
    0
  0
LTYPE
  5
41
330
5
100
AcDbSymbolTableRecord
100
AcDbLinetypeTableRecord
  2
DIVIDEX2
 70
    0
  3
Divide (2x) ________  .  .  ________  .  .  _
 72
   65
 73
    6
 40
63.5
 49
25.4
 74
    0
 49
-12.7
 74
    0
 49
0
 74
    0
 49
-12.7
 74
    0
 49
0
 74
    0
 49
-12.7
 74
    0
  0
LTYPE
  5
42
330
5
100
AcDbSymbolTableRecord
100
AcDbLinetypeTableRecord
  2
BORDER
 70
    0
  3
Border __ __ . __ __ . __ __ . __ __ . __ __ .
 72
   65
 73
    6
 40
44.45
 49
12.7
 74
    0
 49
-6.35
 74
    0
 49
12.7
 74
    0
 49
-6.35
 74
    0
 49
0
 74
    0
 49
-6.35
 74
    0
  0
LTYPE
  5
43
330
5
100
AcDbSymbolTableRecord
100
AcDbLinetypeTableRecord
  2
BORDERTINY
 70
    0
  3
Border (.15x) __.__.__.__.__.__.__.__.__.__.__.
 72
   65
 73
    6
 40
6.6675
 49
1.905
 74
    0
 49
-0.9525
 74
    0
 49
1.905
 74
    0
 49
-0.9525
 74
    0
 49
0
 74
    0
 49
-0.9525
 74
    0
  0
LTYPE
  5
44
330
5
100
AcDbSymbolTableRecord
100
AcDbLinetypeTableRecord
  2
BORDER2
 70
    0
  3
Border (.5x) __.__.__.__.__.__.__.__.__.__.__.
 72
   65
 73
    6
 40
22.225
 49
6.35
 74
    0
 49
-3.175
 74
    0
 49
6.35
 74
    0
 49
-3.175
 74
    0
 49
0
 74
    0
 49
-3.175
 74
    0
  0
LTYPE
  5
45
330
5
100
AcDbSymbolTableRecord
100
AcDbLinetypeTableRecord
  2
BORDERX2
 70
    0
  3
Border (2x) ____  ____  .  ____  ____  .  ___
 72
   65
 73
    6
 40
88.89999999999999
 49
25.4
 74
    0
 49
-12.7
 74
    0
 49
25.4
 74
    0
 49
-12.7
 74
    0
 49
0
 74
    0
 49
-12.7
 74
    0
  0
LTYPE
  5
46
330
5
100
AcDbSymbolTableRecord
100
AcDbLinetypeTableRecord
  2
CENTER
 70
    0
  3
Center ____ _ ____ _ ____ _ ____ _ ____ _ ____
 72
   65
 73
    4
 40
50.8
 49
31.75
 74
    0
 49
-6.35
 74
    0
 49
6.35
 74
    0
 49
-6.35
 74
    0
  0
LTYPE
  5
47
330
5
100
AcDbSymbolTableRecord
100
AcDbLinetypeTableRecord
  2
CENTERTINY
 70
    0
  3
Center (.15x) ___ _ ___ _ ___ _ ___ _ ___ _ ___
 72
   65
 73
    4
 40
7.62
 49
4.7625
 74
    0
 49
-0.9525
 74
    0
 49
0.9525
 74
    0
 49
-0.9525
 74
    0
  0
LTYPE
  5
48
330
5
100
AcDbSymbolTableRecord
100
AcDbLinetypeTableRecord
  2
CENTER2
 70
    0
  3
Center (.5x) ___ _ ___ _ ___ _ ___ _ ___ _ ___
 72
   65
 73
    4
 40
28.575
 49
19.05
 74
    0
 49
-3.175
 74
    0
 49
3.175
 74
    0
 49
-3.175
 74
    0
  0
LTYPE
  5
49
330
5
100
AcDbSymbolTableRecord
100
AcDbLinetypeTableRecord
  2
CENTERX2
 70
    0
  3
Center (2x) ________  __  ________  __  _____
 72
   65
 73
    4
 40
101.6
 49
63.5
 74
    0
 49
-12.7
 74
    0
 49
12.7
 74
    0
 49
-12.7
 74
    0
  0
ENDTAB
  0
TABLE
  2
LAYER
  5
2
330
0
100
AcDbSymbolTable
 70
    1
  0
LAYER
  5
10
330
2
100
AcDbSymbolTableRecord
100
AcDbLayerTableRecord
  2
0
 70
    0
 62
    7
  6
CONTINUOUS
370
    0
390
F
  0
LAYER
  5
4A
330
2
100
AcDbSymbolTableRecord
100
AcDbLayerTableRecord
  2
sheet2
 70
    0
 62
    7
  6
CONTINUOUS
370
    0
390
F
  0
ENDTAB
  0
TABLE
  2
STYLE
  5
3
330
0
100
AcDbSymbolTable
 70
    3
  0
STYLE
  5
4B
330
2
100
AcDbSymbolTableRecord
100
AcDbTextStyleTableRecord
  2
Standard
 70
    0
 40
0
 41
1
 50
0
 71
    0
 42
1
  3
txt
  4

  0
ENDTAB
  0
TABLE
  2
VIEW
  5
6
330
0
100
AcDbSymbolTable
 70
    0
  0
ENDTAB
  0
TABLE
  2
UCS
  5
7
330
0
100
AcDbSymbolTable
 70
    0
  0
ENDTAB
  0
TABLE
  2
APPID
  5
9
330
0
100
AcDbSymbolTable
 70
    1
  0
APPID
  5
12
330
9
100
AcDbSymbolTableRecord
100
AcDbRegAppTableRecord
  2
ACAD
 70
    0
  0
APPID
  5
4C
330
9
100
AcDbSymbolTableRecord
100
AcDbRegAppTableRecord
  2
LibreCad
 70
    0
  0
ENDTAB
  0
TABLE
  2
DIMSTYLE
  5
A
330
0
100
AcDbSymbolTable
 70
    1
100
AcDbDimStyleTable
 71
    1
  0
DIMSTYLE
105
4D
330
A
100
AcDbSymbolTableRecord
100
AcDbDimStyleTableRecord
  2
Standard
 70
    0
 40
2.5
 41
2.5
 42
0.625
 43
0.38
 44
1.25
 45
0
 46
0
 47
0
 48
0
 49
1
140
2.5
141
0.09
142
0
143
25.4
144
1
145
0
146
1
147
0.625
148
0
 71
    0
 72
    0
 73
    0
 74
    1
 75
    0
 76
    0
 77
    0
 78
    8
 79
    0
170
    0
171
    2
172
    0
173
    0
174
    0
175
    0
176
    0
177
    0
178
    0
179
    0
271
    2
272
    4
273
    2
274
    2
275
    0
276
    0
277
    2
278
   44
279
    0
280
    0
281
    0
282
    0
283
    1
284
    0
285
    0
286
    0
288
    0
289
    3
340
STANDARD
341

371
   -2
372
   -2
  0
ENDTAB
  0
TABLE
  2
BLOCK_RECORD
  5
1
330
0
100
AcDbSymbolTable
 70
    2
  0
BLOCK_RECORD
  5
1F
330
1
100
AcDbSymbolTableRecord
100
AcDbBlockTableRecord
  2
*Model_Space
 70
    0
280
    1
281
    0
  0
BLOCK_RECORD
  5
1E
330
1
100
AcDbSymbolTableRecord
100
AcDbBlockTableRecord
  2
*Paper_Space
 70
    0
280
    1
281
    0
  0
ENDTAB
  0
ENDSEC
  0
SECTION
  2
BLOCKS
  0
BLOCK
  5
20
330
1F
100
AcDbEntity
  8
0
100
AcDbBlockBegin
  2
*Model_Space
 70
    0
 10
0
 20
0
 30
0
  3
*Model_Space
  1

  0
ENDBLK
  5
21
330
1F
100
AcDbEntity
  8
0
100
AcDbBlockEnd
  0
BLOCK
  5
1C
330
1B
100
AcDbEntity
  8
0
100
AcDbBlockBegin
  2
*Paper_Space
 70
    0
 10
0
 20
0
 30
0
  3
*Paper_Space
  1

  0
ENDBLK
  5
1D
330
1F
100
AcDbEntity
  8
0
100
AcDbBlockEnd
  0
ENDSEC
  0
SECTION
  2
ENTITIES
  0
LINE
  5
4E
100
AcDbEntity
  8
sheet2
  6
ByLayer
 62
  256
370
   -1
100
AcDbLine
 10
34.33329391479492
 20
156.2500305175781
 11
34.01506805419922
 21
155.9888610839844
  0
LINE
  5
4F
100
AcDbEntity
  8
sheet2
  6
ByLayer
 62
  256
370
   -1
100
AcDbLine
 10
34.01506805419922
 20
155.9888610839844
 11
33.75390625
 21
155.6706390380859
  0
LINE
  5
50
100
AcDbEntity
  8
sheet2
  6
ByLayer
 62
  256
370
   -1
100
AcDbLine
 10
33.75390625
 20
155.6706390380859
 11
33.55984497070312
 21
155.3075714111328
  0
LINE
  5
51
100
AcDbEntity
  8
sheet2
  6
ByLayer
 62
  256
370
   -1
100
AcDbLine
 10
33.55984497070312
 20
155.3075714111328
 11
33.44034194946289
 21
154.9136199951172
  0
LINE
  5
52
100
AcDbEntity
  8
sheet2
  6
ByLayer
 62
  256
370
   -1
100
AcDbLine
 10
33.44034194946289
 20
154.9136199951172
 11
33.39999008178711
 21
154.5039367675781
  0
LINE
  5
53
100
AcDbEntity
  8
sheet2
  6
ByLayer
 62
  256
370
   -1
100
AcDbLine
 10
36.25980758666992
 20
147.4385986328125
 11
35.54848480224609
 21
149.7835235595703
  0
LINE
  5
54
100
AcDbEntity
  8
sheet2
  6
ByLayer
 62
  256
370
   -1
100
AcDbLine
 10
35.54848480224609
 20
149.7835235595703
 11
34.39336013793951
 21
151.9445953369141
  0
LINE
  5
55
100
AcDbEntity
  8
sheet2
  6
ByLayer
 62
  256
370
   -1
100
AcDbLine
 10
34.39336013793951
 20
151.9445953369141
 11
32.83882522583008
 21
153.8388061523438
  0
LINE
  5
56
100
AcDbEntity
  8
sheet2
  6
ByLayer
 62
  256
370
   -1
100
AcDbLine
 10
32.83882522583008
 20
153.8388061523438
 11
30.94461822509771
 21
155.3933410644531
  0
LINE
  5
57
100
AcDbEntity
  8
sheet2
  6
ByLayer
 62
  256
370
   -1
100
AcDbLine
 10
30.94461822509771
 20
155.3933410644531
 11
28.78353118896479
 21
156.5484619140625
  0
LINE
  5
58
100
AcDbEntity
  8
sheet2
  6
ByLayer
 62
  256
370
   -1
100
AcDbLine
 10
28.78353118896479
 20
156.5484619140625
 11
26.43862152099609
 21
157.2597808837891
  0
LINE
  5
59
100
AcDbEntity
  8
sheet2
  6
ByLayer
 62
  256
370
   -1
100
AcDbLine
 10
26.43862152099609
 20
157.2597808837891
 11
23.9999923706055
 21
157.4999694824219
  0
LINE
  5
5A
100
AcDbEntity
  8
sheet2
  6
ByLayer
 62
  256
370
   -1
100
AcDbLine
 10
23.9999923706055
 20
157.4999694824219
 11
21.56136322021479
 21
157.2597808837891
  0
LINE
  5
5B
100
AcDbEntity
  8
sheet2
  6
ByLayer
 62
  256
370
   -1
100
AcDbLine
 10
21.56136322021479
 20
157.2597808837891
 11
19.21644592285159
 21
156.5484619140625
  0
LINE
  5
5C
100
AcDbEntity
  8
sheet2
  6
ByLayer
 62
  256
370
   -1
100
AcDbLine
 10
19.21644592285159
 20
156.5484619140625
 11
17.05535888671881
 21
155.3933410644531
  0
LINE
  5
5D
100
AcDbEntity
  8
sheet2
  6
ByLayer
 62
  256
370
   -1
100
AcDbLine
 10
17.05535888671881
 20
155.3933410644531
 11
15.16115570068359
 21
153.8388061523438
  0
LINE
  5
5E
100
AcDbEntity
  8
sheet2
  6
ByLayer
 62
  256
370
   -1
100
AcDbLine
 10
15.16115570068359
 20
153.8388061523438
 11
13.60662078857419
 21
151.9445953369141
  0
LINE
  5
5F
100
AcDbEntity
  8
sheet2
  6
ByLayer
 62
  256
370
   -1
100
AcDbLine
 10
13.60662078857419
 20
151.9445953369141
 11
12.45149993896479
 21
149.7835083007812
  0
LINE
  5
60
100
AcDbEntity
  8
sheet2
  6
ByLayer
 62
  256
370
   -1
100
AcDbLine
 10
12.45149993896479
 20
149.7835083007812
 11
11.74017333984381
 21
147.4385986328125
  0
LINE
  5
61
100
AcDbEntity
  8
sheet2
  6
ByLayer
 62
  256
370
   -1
100
AcDbLine
 10
50.99999618530268
 20
290
 11
50.99998474121088
 21
0
  0
LINE
  5
62
100
AcDbEntity
  8
sheet2
  6
ByLayer
 62
  256
370
   -1
100
AcDbLine
 10
33.55984497070312
 20
153.7003021240234
 11
33.75390625
 21
153.3372344970703
  0
LINE
  5
63
100
AcDbEntity
  8
sheet2
  6
ByLayer
 62
  256
370
   -1
100
AcDbLine
 10
37.55963897705078
 20
154.9136199951172
 11
37.44013977050781
 21
155.3075714111328
  0
LINE
  5
64
100
AcDbEntity
  8
sheet2
  6
ByLayer
 62
  256
370
   -1
100
AcDbLine
 10
36.30362701416021
 20
156.4440765380859
 11
35.90968322753912
 21
156.5635833740234
  0
LINE
  5
65
100
AcDbEntity
  8
sheet2
  6
ByLayer
 62
  256
370
   -1
100
AcDbLine
 10
33.39999008178711
 20
154.5039367675781
 11
33.44034194946289
 21
154.0942535400391
  0
LINE
  5
66
100
AcDbEntity
  8
sheet2
  6
ByLayer
 62
  256
370
   -1
100
AcDbLine
 10
35.90968322753912
 20
156.5635833740234
 11
35.49999237060553
 21
156.6039428710938
  0
LINE
  5
67
100
AcDbEntity
  8
sheet2
  6
ByLayer
 62
  256
370
   -1
100
AcDbLine
 10
36.98491668701172
 20
155.9888610839844
 11
36.66669082641602
 21
156.2500305175781
  0
LINE
  5
68
100
AcDbEntity
  8
sheet2
  6
ByLayer
 62
  256
370
   -1
100
AcDbLine
 10
37.55963897705078
 20
154.0942535400391
 11
37.59999084472662
 21
154.5039367675781
  0
LINE
  5
69
100
AcDbEntity
  8
sheet2
  6
ByLayer
 62
  256
370
   -1
100
AcDbLine
 10
36.30362701416021
 20
152.5637969970703
 11
35.9096794128418
 21
152.4442901611328
  0
LINE
  5
6A
100
AcDbEntity
  8
sheet2
  6
ByLayer
 62
  256
370
   -1
100
AcDbLine
 10
35.09030151367188
 20
152.4442901611328
 11
35.49999237060553
 21
152.4039306640625
  0
LINE
  5
6B
100
AcDbEntity
  8
sheet2
  6
ByLayer
 62
  256
370
   -1
100
AcDbLine
 10
37.24607849121088
 20
153.3372344970703
 11
37.44013977050781
 21
153.7003021240234
  0
LINE
  5
6C
100
AcDbEntity
  8
sheet2
  6
ByLayer
 62
  256
370
   -1
100
AcDbLine
 10
36.66669082641602
 20
152.7578430175781
 11
36.98491668701172
 21
153.0190124511719
  0
LINE
  5
6D
100
AcDbEntity
  8
sheet2
  6
ByLayer
 62
  256
370
   -1
100
AcDbLine
 10
34.33329391479492
 20
152.7578430175781
 11
34.69635772705078
 21
152.5637969970703
  0
LINE
  5
6E
100
AcDbEntity
  8
sheet2
  6
ByLayer
 62
  256
370
   -1
100
AcDbLine
 10
37.44013977050781
 20
155.3075714111328
 11
37.24607849121088
 21
155.6706390380859
  0
LINE
  5
6F
100
AcDbEntity
  8
sheet2
  6
ByLayer
 62
  256
370
   -1
100
AcDbLine
 10
33.75390625
 20
153.3372344970703
 11
34.01506805419922
 21
153.0190124511719
  0
LINE
  5
70
100
AcDbEntity
  8
sheet2
  6
ByLayer
 62
  256
370
   -1
100
AcDbLine
 10
33.44034194946289
 20
154.0942535400391
 11
33.55984497070312
 21
153.7003021240234
  0
LINE
  5
71
100
AcDbEntity
  8
sheet2
  6
ByLayer
 62
  256
370
   -1
100
AcDbLine
 10
34.69635772705078
 20
152.5637969970703
 11
35.09030151367188
 21
152.4442901611328
  0
LINE
  5
72
100
AcDbEntity
  8
sheet2
  6
ByLayer
 62
  256
370
   -1
100
AcDbLine
 10
35.49999237060553
 20
152.4039306640625
 11
35.9096794128418
 21
152.4442901611328
  0
LINE
  5
73
100
AcDbEntity
  8
sheet2
  6
ByLayer
 62
  256
370
   -1
100
AcDbLine
 10
36.30362701416021
 20
152.5637969970703
 11
36.66669082641602
 21
152.7578430175781
  0
LINE
  5
74
100
AcDbEntity
  8
sheet2
  6
ByLayer
 62
  256
370
   -1
100
AcDbLine
 10
36.98491668701172
 20
153.0190124511719
 11
37.24607849121088
 21
153.3372344970703
  0
LINE
  5
75
100
AcDbEntity
  8
sheet2
  6
ByLayer
 62
  256
370
   -1
100
AcDbLine
 10
37.44013977050781
 20
153.7003021240234
 11
37.55963897705078
 21
154.0942535400391
  0
LINE
  5
76
100
AcDbEntity
  8
sheet2
  6
ByLayer
 62
  256
370
   -1
100
AcDbLine
 10
37.59999084472662
 20
154.5039367675781
 11
37.55963897705078
 21
154.9136199951172
  0
LINE
  5
77
100
AcDbEntity
  8
sheet2
  6
ByLayer
 62
  256
370
   -1
100
AcDbLine
 10
36.66669082641602
 20
156.2500305175781
 11
36.30362701416021
 21
156.4440765380859
  0
LINE
  5
78
100
AcDbEntity
  8
sheet2
  6
ByLayer
 62
  256
370
   -1
100
AcDbLine
 10
37.24607849121088
 20
155.6706390380859
 11
36.98491668701172
 21
155.9888610839844
  0
LINE
  5
79
100
AcDbEntity
  8
sheet2
  6
ByLayer
 62
  256
370
   -1
100
AcDbLine
 10
34.69635772705078
 20
156.4440765380859
 11
34.33329391479492
 21
156.2500305175781
  0
LINE
  5
7A
100
AcDbEntity
  8
sheet2
  6
ByLayer
 62
  256
370
   -1
100
AcDbLine
 10
35.49999237060553
 20
156.6039428710938
 11
35.09030151367188
 21
156.5635833740234
  0
LINE
  5
7B
100
AcDbEntity
  8
sheet2
  6
ByLayer
 62
  256
370
   -1
100
AcDbLine
 10
34.01506805419922
 20
153.0190124511719
 11
34.33329391479492
 21
152.7578430175781
  0
LINE
  5
7C
100
AcDbEntity
  8
sheet2
  6
ByLayer
 62
  256
370
   -1
100
AcDbLine
 10
9.440338134765597
 20
135.09423828125
 11
9.399993896484403
 21
135.5039367675781
  0
LINE
  5
7D
100
AcDbEntity
  8
sheet2
  6
ByLayer
 62
  256
370
   -1
100
AcDbLine
 10
9.440338134765597
 20
135.09423828125
 11
9.559844970703097
 21
134.7003173828125
  0
LINE
  5
7E
100
AcDbEntity
  8
sheet2
  6
ByLayer
 62
  256
370
   -1
100
AcDbLine
 10
9.559844970703097
 20
134.7003173828125
 11
9.75390625
 21
134.3372192382812
  0
LINE
  5
7F
100
AcDbEntity
  8
sheet2
  6
ByLayer
 62
  256
370
   -1
100
AcDbLine
 10
9.75390625
 20
134.3372192382812
 11
10.01506805419919
 21
134.0190124511719
  0
LINE
  5
80
100
AcDbEntity
  8
sheet2
  6
ByLayer
 62
  256
370
   -1
100
AcDbLine
 10
10.01506805419919
 20
134.0190124511719
 11
10.33329010009771
 21
133.7578430175781
  0
LINE
  5
81
100
AcDbEntity
  8
sheet2
  6
ByLayer
 62
  256
370
   -1
100
AcDbLine
 10
10.33329010009771
 20
133.7578430175781
 11
10.69635772705081
 21
133.5637817382812
  0
LINE
  5
82
100
AcDbEntity
  8
sheet2
  6
ByLayer
 62
  256
370
   -1
100
AcDbLine
 10
10.69635772705081
 20
133.5637817382812
 11
11.0903015136719
 21
133.4442749023438
  0
LINE
  5
83
100
AcDbEntity
  8
sheet2
  6
ByLayer
 62
  256
370
   -1
100
AcDbLine
 10
11.0903015136719
 20
133.4442749023438
 11
11.4999923706055
 21
133.4039306640625
  0
LINE
  5
84
100
AcDbEntity
  8
sheet2
  6
ByLayer
 62
  256
370
   -1
100
AcDbLine
 10
11.4999923706055
 20
133.4039306640625
 11
11.90968322753909
 21
133.4442749023438
  0
LINE
  5
85
100
AcDbEntity
  8
sheet2
  6
ByLayer
 62
  256
370
   -1
100
AcDbLine
 10
12.30362701416021
 20
133.5637817382812
 11
12.66668701171881
 21
133.7578430175781
  0
LINE
  5
86
100
AcDbEntity
  8
sheet2
  6
ByLayer
 62
  256
370
   -1
100
AcDbLine
 10
12.66668701171881
 20
133.7578430175781
 11
12.98491668701169
 21
134.0190124511719
  0
LINE
  5
87
100
AcDbEntity
  8
sheet2
  6
ByLayer
 62
  256
370
   -1
100
AcDbLine
 10
12.98491668701169
 20
134.0190124511719
 11
13.24607849121091
 21
134.3372192382812
  0
LINE
  5
88
100
AcDbEntity
  8
sheet2
  6
ByLayer
 62
  256
370
   -1
100
AcDbLine
 10
13.24607849121091
 20
134.3372192382812
 11
13.44013977050781
 21
134.7003173828125
  0
LINE
  5
89
100
AcDbEntity
  8
sheet2
  6
ByLayer
 62
  256
370
   -1
100
AcDbLine
 10
13.44013977050781
 20
134.7003173828125
 11
13.55963897705081
 21
135.09423828125
  0
LINE
  5
8A
100
AcDbEntity
  8
sheet2
  6
ByLayer
 62
  256
370
   -1
100
AcDbLine
 10
13.55963897705081
 20
135.09423828125
 11
13.59999084472659
 21
135.5039367675781
  0
LINE
  5
8B
100
AcDbEntity
  8
sheet2
  6
ByLayer
 62
  256
370
   -1
100
AcDbLine
 10
13.59999084472659
 20
135.5039367675781
 11
13.55963897705081
 21
135.9136352539062
  0
LINE
  5
8C
100
AcDbEntity
  8
sheet2
  6
ByLayer
 62
  256
370
   -1
100
AcDbLine
 10
13.55963897705081
 20
135.9136352539062
 11
13.44013977050781
 21
136.3075561523438
  0
LINE
  5
8D
100
AcDbEntity
  8
sheet2
  6
ByLayer
 62
  256
370
   -1
100
AcDbLine
 10
13.44013977050781
 20
136.3075561523438
 11
13.24607849121091
 21
136.670654296875
  0
LINE
  5
8E
100
AcDbEntity
  8
sheet2
  6
ByLayer
 62
  256
370
   -1
100
AcDbLine
 10
13.24607849121091
 20
136.670654296875
 11
12.98491668701169
 21
136.9888610839844
  0
LINE
  5
8F
100
AcDbEntity
  8
sheet2
  6
ByLayer
 62
  256
370
   -1
100
AcDbLine
 10
12.98491668701169
 20
136.9888610839844
 11
12.66668701171881
 21
137.2500305175781
  0
LINE
  5
90
100
AcDbEntity
  8
sheet2
  6
ByLayer
 62
  256
370
   -1
100
AcDbLine
 10
12.66668701171881
 20
137.2500305175781
 11
12.30362701416021
 21
137.444091796875
  0
LINE
  5
91
100
AcDbEntity
  8
sheet2
  6
ByLayer
 62
  256
370
   -1
100
AcDbLine
 10
12.30362701416021
 20
137.444091796875
 11
11.90968322753909
 21
137.5635986328125
  0
LINE
  5
92
100
AcDbEntity
  8
sheet2
  6
ByLayer
 62
  256
370
   -1
100
AcDbLine
 10
11.90968322753909
 20
137.5635986328125
 11
11.4999923706055
 21
137.6039428710938
  0
LINE
  5
93
100
AcDbEntity
  8
sheet2
  6
ByLayer
 62
  256
370
   -1
100
AcDbLine
 10
11.4999923706055
 20
137.6039428710938
 11
11.0903015136719
 21
137.5635986328125
  0
LINE
  5
94
100
AcDbEntity
  8
sheet2
  6
ByLayer
 62
  256
370
   -1
100
AcDbLine
 10
11.0903015136719
 20
137.5635986328125
 11
10.69635772705081
 21
137.444091796875
  0
LINE
  5
95
100
AcDbEntity
  8
sheet2
  6
ByLayer
 62
  256
370
   -1
100
AcDbLine
 10
10.69635772705081
 20
137.444091796875
 11
10.33329010009771
 21
137.2500305175781
  0
LINE
  5
96
100
AcDbEntity
  8
sheet2
  6
ByLayer
 62
  256
370
   -1
100
AcDbLine
 10
10.33329010009771
 20
137.2500305175781
 11
10.01506805419919
 21
136.9888610839844
  0
LINE
  5
97
100
AcDbEntity
  8
sheet2
  6
ByLayer
 62
  256
370
   -1
100
AcDbLine
 10
10.01506805419919
 20
136.9888610839844
 11
9.75390625
 21
136.670654296875
  0
LINE
  5
98
100
AcDbEntity
  8
sheet2
  6
ByLayer
 62
  256
370
   -1
100
AcDbLine
 10
9.75390625
 20
136.670654296875
 11
9.559844970703097
 21
136.3075561523438
  0
LINE
  5
99
100
AcDbEntity
  8
sheet2
  6
ByLayer
 62
  256
370
   -1
100
AcDbLine
 10
9.559844970703097
 20
136.3075561523438
 11
9.440338134765597
 21
135.9136352539062
  0
LINE
  5
9A
100
AcDbEntity
  8
sheet2
  6
ByLayer
 62
  256
370
   -1
100
AcDbLine
 10
9.440338134765597
 20
135.9136352539062
 11
9.399993896484403
 21
135.5039367675781
  0
LINE
  5
9B
100
AcDbEntity
  8
sheet2
  6
ByLayer
 62
  256
370
   -1
100
AcDbLine
 10
11.74018096923831
 20
142.5613403320312
 11
11.4999923706055
 21
144.9999694824219
  0
LINE
  5
9C
100
AcDbEntity
  8
sheet2
  6
ByLayer
 62
  256
370
   -1
100
AcDbLine
 10
11.74018096923831
 20
142.5613403320312
 11
12.45149993896479
 21
140.2164306640625
  0
LINE
  5
9D
100
AcDbEntity
  8
sheet2
  6
ByLayer
 62
  256
370
   -1
100
AcDbLine
 10
12.45149993896479
 20
140.2164306640625
 11
13.60662841796881
 21
138.0553588867188
  0
LINE
  5
9E
100
AcDbEntity
  8
sheet2
  6
ByLayer
 62
  256
370
   -1
100
AcDbLine
 10
13.60662841796881
 20
138.0553588867188
 11
15.1611633300781
 21
136.1611328125
  0
LINE
  5
9F
100
AcDbEntity
  8
sheet2
  6
ByLayer
 62
  256
370
   -1
100
AcDbLine
 10
15.1611633300781
 20
136.1611328125
 11
17.05536651611331
 21
134.6065979003906
  0
LINE
  5
A0
100
AcDbEntity
  8
sheet2
  6
ByLayer
 62
  256
370
   -1
100
AcDbLine
 10
17.05536651611331
 20
134.6065979003906
 11
19.21645355224609
 21
133.4514770507812
  0
LINE
  5
A1
100
AcDbEntity
  8
sheet2
  6
ByLayer
 62
  256
370
   -1
100
AcDbLine
 10
19.21645355224609
 20
133.4514770507812
 11
21.5613708496094
 21
132.7401733398438
  0
LINE
  5
A2
100
AcDbEntity
  8
sheet2
  6
ByLayer
 62
  256
370
   -1
100
AcDbLine
 10
21.5613708496094
 20
132.7401733398438
 11
24
 21
132.4999694824219
  0
LINE
  5
A3
100
AcDbEntity
  8
sheet2
  6
ByLayer
 62
  256
370
   -1
100
AcDbLine
 10
24
 20
132.4999694824219
 11
26.43862915039062
 21
132.7401733398438
  0
LINE
  5
A4
100
AcDbEntity
  8
sheet2
  6
ByLayer
 62
  256
370
   -1
100
AcDbLine
 10
26.43862915039062
 20
132.7401733398438
 11
28.78353881835938
 21
133.4514770507812
  0
LINE
  5
A5
100
AcDbEntity
  8
sheet2
  6
ByLayer
 62
  256
370
   -1
100
AcDbLine
 10
28.78353881835938
 20
133.4514770507812
 11
30.94462585449219
 21
134.6065979003906
  0
LINE
  5
A6
100
AcDbEntity
  8
sheet2
  6
ByLayer
 62
  256
370
   -1
100
AcDbLine
 10
30.94462585449219
 20
134.6065979003906
 11
32.83883285522461
 21
136.1611328125
  0
LINE
  5
A7
100
AcDbEntity
  8
sheet2
  6
ByLayer
 62
  256
370
   -1
100
AcDbLine
 10
32.83883285522461
 20
136.1611328125
 11
34.39336776733398
 21
138.0553588867188
  0
LINE
  5
A8
100
AcDbEntity
  8
sheet2
  6
ByLayer
 62
  256
370
   -1
100
AcDbLine
 10
34.39336776733398
 20
138.0553588867188
 11
35.54848861694342
 21
140.2164306640625
  0
LINE
  5
A9
100
AcDbEntity
  8
sheet2
  6
ByLayer
 62
  256
370
   -1
100
AcDbLine
 10
35.54848861694342
 20
140.2164306640625
 11
36.25981140136719
 21
142.5613403320312
  0
LINE
  5
AA
100
AcDbEntity
  8
sheet2
  6
ByLayer
 62
  256
370
   -1
100
AcDbLine
 10
36.25981140136719
 20
142.5613403320312
 11
36.49999237060553
 21
144.9999694824219
  0
LINE
  5
AB
100
AcDbEntity
  8
sheet2
  6
ByLayer
 62
  256
370
   -1
100
AcDbLine
 10
11.94998931884771
 20
75.5
 11
12.181526184082
 21
77.850830078125
  0
LINE
  5
AC
100
AcDbEntity
  8
sheet2
  6
ByLayer
 62
  256
370
   -1
100
AcDbLine
 10
12.181526184082
 20
77.850830078125
 11
12.86724090576169
 21
80.111328125
  0
LINE
  5
AD
100
AcDbEntity
  8
sheet2
  6
ByLayer
 62
  256
370
   -1
100
AcDbLine
 10
12.86724090576169
 20
80.111328125
 11
13.98077392578119
 21
82.19462585449219
  0
LINE
  5
AE
100
AcDbEntity
  8
sheet2
  6
ByLayer
 62
  256
370
   -1
100
AcDbLine
 10
13.98077392578119
 20
82.19462585449219
 11
15.47934722900391
 21
84.0206298828125
  0
LINE
  5
AF
100
AcDbEntity
  8
sheet2
  6
ByLayer
 62
  256
370
   -1
100
AcDbLine
 10
15.47934722900391
 20
84.0206298828125
 11
17.30536651611331
 21
85.51921081542969
  0
LINE
  5
B0
100
AcDbEntity
  8
sheet2
  6
ByLayer
 62
  256
370
   -1
100
AcDbLine
 10
17.30536651611331
 20
85.51921081542969
 11
19.38864898681641
 21
86.63275146484375
  0
LINE
  5
B1
100
AcDbEntity
  8
sheet2
  6
ByLayer
 62
  256
370
   -1
100
AcDbLine
 10
19.38864898681641
 20
86.63275146484375
 11
21.64915466308591
 21
87.31846618652344
  0
LINE
  5
B2
100
AcDbEntity
  8
sheet2
  6
ByLayer
 62
  256
370
   -1
100
AcDbLine
 10
21.64915466308591
 20
87.31846618652344
 11
23.9999923706055
 21
87.55000305175781
  0
LINE
  5
B3
100
AcDbEntity
  8
sheet2
  6
ByLayer
 62
  256
370
   -1
100
AcDbLine
 10
23.9999923706055
 20
87.55000305175781
 11
26.350830078125
 21
87.31846618652344
  0
LINE
  5
B4
100
AcDbEntity
  8
sheet2
  6
ByLayer
 62
  256
370
   -1
100
AcDbLine
 10
26.350830078125
 20
87.31846618652344
 11
28.61132431030268
 21
86.63275146484375
  0
LINE
  5
B5
100
AcDbEntity
  8
sheet2
  6
ByLayer
 62
  256
370
   -1
100
AcDbLine
 10
28.61132431030268
 20
86.63275146484375
 11
30.69461059570312
 21
85.51921081542969
  0
LINE
  5
B6
100
AcDbEntity
  8
sheet2
  6
ByLayer
 62
  256
370
   -1
100
AcDbLine
 10
30.69461059570312
 20
85.51921081542969
 11
32.52062606811518
 21
84.0206298828125
  0
LINE
  5
B7
100
AcDbEntity
  8
sheet2
  6
ByLayer
 62
  256
370
   -1
100
AcDbLine
 10
32.52062606811518
 20
84.0206298828125
 11
34.01919555664062
 21
82.19462585449219
  0
LINE
  5
B8
100
AcDbEntity
  8
sheet2
  6
ByLayer
 62
  256
370
   -1
100
AcDbLine
 10
34.01919555664062
 20
82.19462585449219
 11
35.13273620605469
 21
80.111328125
  0
LINE
  5
B9
100
AcDbEntity
  8
sheet2
  6
ByLayer
 62
  256
370
   -1
100
AcDbLine
 10
35.13273620605469
 20
80.111328125
 11
35.81845092773438
 21
77.850830078125
  0
LINE
  5
BA
100
AcDbEntity
  8
sheet2
  6
ByLayer
 62
  256
370
   -1
100
AcDbLine
 10
35.81845092773438
 20
77.850830078125
 11
36.04998779296881
 21
75.5
  0
LINE
  5
BB
100
AcDbEntity
  8
sheet2
  6
ByLayer
 62
  256
370
   -1
100
AcDbLine
 10
36.04998779296881
 20
75.5
 11
35.81845092773438
 21
73.149169921875
  0
LINE
  5
BC
100
AcDbEntity
  8
sheet2
  6
ByLayer
 62
  256
370
   -1
100
AcDbLine
 10
35.81845092773438
 20
73.149169921875
 11
35.13273620605469
 21
70.888671875
  0
LINE
  5
BD
100
AcDbEntity
  8
sheet2
  6
ByLayer
 62
  256
370
   -1
100
AcDbLine
 10
35.13273620605469
 20
70.888671875
 11
34.01919555664062
 21
68.80538940429688
  0
LINE
  5
BE
100
AcDbEntity
  8
sheet2
  6
ByLayer
 62
  256
370
   -1
100
AcDbLine
 10
34.01919555664062
 20
68.80538940429688
 11
32.52062606811518
 21
66.9793701171875
  0
LINE
  5
BF
100
AcDbEntity
  8
sheet2
  6
ByLayer
 62
  256
370
   -1
100
AcDbLine
 10
32.52062606811518
 20
66.9793701171875
 11
30.69461059570312
 21
65.48078918457031
  0
LINE
  5
C0
100
AcDbEntity
  8
sheet2
  6
ByLayer
 62
  256
370
   -1
100
AcDbLine
 10
30.69461059570312
 20
65.48078918457031
 11
28.61132431030268
 21
64.36724853515625
  0
LINE
  5
C1
100
AcDbEntity
  8
sheet2
  6
ByLayer
 62
  256
370
   -1
100
AcDbLine
 10
28.61132431030268
 20
64.36724853515625
 11
26.35082244873053
 21
63.68153381347656
  0
LINE
  5
C2
100
AcDbEntity
  8
sheet2
  6
ByLayer
 62
  256
370
   -1
100
AcDbLine
 10
26.35082244873053
 20
63.68153381347656
 11
23.99998474121091
 21
63.44999694824219
  0
LINE
  5
C3
100
AcDbEntity
  8
sheet2
  6
ByLayer
 62
  256
370
   -1
100
AcDbLine
 10
23.99998474121091
 20
63.44999694824219
 11
21.64914703369141
 21
63.68153381347656
  0
LINE
  5
C4
100
AcDbEntity
  8
sheet2
  6
ByLayer
 62
  256
370
   -1
100
AcDbLine
 10
21.64914703369141
 20
63.68153381347656
 11
19.38864898681641
 21
64.36724853515625
  0
LINE
  5
C5
100
AcDbEntity
  8
sheet2
  6
ByLayer
 62
  256
370
   -1
100
AcDbLine
 10
19.38864898681641
 20
64.36724853515625
 11
17.30536651611331
 21
65.48078918457031
  0
LINE
  5
C6
100
AcDbEntity
  8
sheet2
  6
ByLayer
 62
  256
370
   -1
100
AcDbLine
 10
17.30536651611331
 20
65.48078918457031
 11
15.47934722900391
 21
66.9793701171875
  0
LINE
  5
C7
100
AcDbEntity
  8
sheet2
  6
ByLayer
 62
  256
370
   -1
100
AcDbLine
 10
15.47934722900391
 20
66.9793701171875
 11
13.98077392578119
 21
68.80538940429688
  0
LINE
  5
C8
100
AcDbEntity
  8
sheet2
  6
ByLayer
 62
  256
370
   -1
100
AcDbLine
 10
13.98077392578119
 20
68.80538940429688
 11
12.86724090576169
 21
70.888671875
  0
LINE
  5
C9
100
AcDbEntity
  8
sheet2
  6
ByLayer
 62
  256
370
   -1
100
AcDbLine
 10
12.86724090576169
 20
70.888671875
 11
12.181526184082
 21
73.149169921875
  0
LINE
  5
CA
100
AcDbEntity
  8
sheet2
  6
ByLayer
 62
  256
370
   -1
100
AcDbLine
 10
11.94998931884771
 20
75.5
 11
12.181526184082
 21
73.149169921875
  0
LINE
  5
CB
100
AcDbEntity
  8
sheet2
  6
ByLayer
 62
  256
370
   -1
100
AcDbLine
 10
11.94998931884771
 20
45.5
 11
12.181526184082
 21
47.850830078125
  0
LINE
  5
CC
100
AcDbEntity
  8
sheet2
  6
ByLayer
 62
  256
370
   -1
100
AcDbLine
 10
12.181526184082
 20
47.850830078125
 11
12.86724090576169
 21
50.111328125
  0
LINE
  5
CD
100
AcDbEntity
  8
sheet2
  6
ByLayer
 62
  256
370
   -1
100
AcDbLine
 10
12.86724090576169
 20
50.111328125
 11
13.98077392578119
 21
52.19462585449219
  0
LINE
  5
CE
100
AcDbEntity
  8
sheet2
  6
ByLayer
 62
  256
370
   -1
100
AcDbLine
 10
13.98077392578119
 20
52.19462585449219
 11
15.47934722900391
 21
54.0206298828125
  0
LINE
  5
CF
100
AcDbEntity
  8
sheet2
  6
ByLayer
 62
  256
370
   -1
100
AcDbLine
 10
15.47934722900391
 20
54.0206298828125
 11
17.30536651611331
 21
55.51921081542969
  0
LINE
  5
D0
100
AcDbEntity
  8
sheet2
  6
ByLayer
 62
  256
370
   -1
100
AcDbLine
 10
17.30536651611331
 20
55.51921081542969
 11
19.38864898681641
 21
56.63275146484375
  0
LINE
  5
D1
100
AcDbEntity
  8
sheet2
  6
ByLayer
 62
  256
370
   -1
100
AcDbLine
 10
19.38864898681641
 20
56.63275146484375
 11
21.64914703369141
 21
57.31846618652344
  0
LINE
  5
D2
100
AcDbEntity
  8
sheet2
  6
ByLayer
 62
  256
370
   -1
100
AcDbLine
 10
21.64914703369141
 20
57.31846618652344
 11
23.99998474121091
 21
57.55000305175781
  0
LINE
  5
D3
100
AcDbEntity
  8
sheet2
  6
ByLayer
 62
  256
370
   -1
100
AcDbLine
 10
23.99998474121091
 20
57.55000305175781
 11
26.35082244873053
 21
57.31846618652344
  0
LINE
  5
D4
100
AcDbEntity
  8
sheet2
  6
ByLayer
 62
  256
370
   -1
100
AcDbLine
 10
26.35082244873053
 20
57.31846618652344
 11
28.61132431030268
 21
56.63275146484375
  0
LINE
  5
D5
100
AcDbEntity
  8
sheet2
  6
ByLayer
 62
  256
370
   -1
100
AcDbLine
 10
28.61132431030268
 20
56.63275146484375
 11
30.69461059570312
 21
55.51921081542969
  0
LINE
  5
D6
100
AcDbEntity
  8
sheet2
  6
ByLayer
 62
  256
370
   -1
100
AcDbLine
 10
30.69461059570312
 20
55.51921081542969
 11
32.52062606811518
 21
54.0206298828125
  0
LINE
  5
D7
100
AcDbEntity
  8
sheet2
  6
ByLayer
 62
  256
370
   -1
100
AcDbLine
 10
32.52062606811518
 20
54.0206298828125
 11
34.01919555664062
 21
52.19462585449219
  0
LINE
  5
D8
100
AcDbEntity
  8
sheet2
  6
ByLayer
 62
  256
370
   -1
100
AcDbLine
 10
34.01919555664062
 20
52.19462585449219
 11
35.13273620605469
 21
50.111328125
  0
LINE
  5
D9
100
AcDbEntity
  8
sheet2
  6
ByLayer
 62
  256
370
   -1
100
AcDbLine
 10
35.13273620605469
 20
50.111328125
 11
35.81845092773438
 21
47.850830078125
  0
LINE
  5
DA
100
AcDbEntity
  8
sheet2
  6
ByLayer
 62
  256
370
   -1
100
AcDbLine
 10
35.81845092773438
 20
47.850830078125
 11
36.04998779296881
 21
45.5
  0
LINE
  5
DB
100
AcDbEntity
  8
sheet2
  6
ByLayer
 62
  256
370
   -1
100
AcDbLine
 10
36.04998779296881
 20
45.5
 11
35.81844711303711
 21
43.149169921875
  0
LINE
  5
DC
100
AcDbEntity
  8
sheet2
  6
ByLayer
 62
  256
370
   -1
100
AcDbLine
 10
35.81844711303711
 20
43.149169921875
 11
35.13273620605469
 21
40.888671875
  0
LINE
  5
DD
100
AcDbEntity
  8
sheet2
  6
ByLayer
 62
  256
370
   -1
100
AcDbLine
 10
35.13273620605469
 20
40.888671875
 11
34.01919555664062
 21
38.80538940429688
  0
LINE
  5
DE
100
AcDbEntity
  8
sheet2
  6
ByLayer
 62
  256
370
   -1
100
AcDbLine
 10
34.01919555664062
 20
38.80538940429688
 11
32.52062225341803
 21
36.9793701171875
  0
LINE
  5
DF
100
AcDbEntity
  8
sheet2
  6
ByLayer
 62
  256
370
   -1
100
AcDbLine
 10
32.52062225341803
 20
36.9793701171875
 11
30.69460678100592
 21
35.48078918457031
  0
LINE
  5
E0
100
AcDbEntity
  8
sheet2
  6
ByLayer
 62
  256
370
   -1
100
AcDbLine
 10
30.69460678100592
 20
35.48078918457031
 11
28.61132049560553
 21
34.36724853515625
  0
LINE
  5
E1
100
AcDbEntity
  8
sheet2
  6
ByLayer
 62
  256
370
   -1
100
AcDbLine
 10
28.61132049560553
 20
34.36724853515625
 11
26.35082244873053
 21
33.6815185546875
  0
LINE
  5
E2
100
AcDbEntity
  8
sheet2
  6
ByLayer
 62
  256
370
   -1
100
AcDbLine
 10
26.35082244873053
 20
33.6815185546875
 11
23.99998474121091
 21
33.45001220703125
  0
LINE
  5
E3
100
AcDbEntity
  8
sheet2
  6
ByLayer
 62
  256
370
   -1
100
AcDbLine
 10
23.99998474121091
 20
33.45001220703125
 11
21.64914703369141
 21
33.6815185546875
  0
LINE
  5
E4
100
AcDbEntity
  8
sheet2
  6
ByLayer
 62
  256
370
   -1
100
AcDbLine
 10
21.64914703369141
 20
33.6815185546875
 11
19.38864898681641
 21
34.36724853515625
  0
LINE
  5
E5
100
AcDbEntity
  8
sheet2
  6
ByLayer
 62
  256
370
   -1
100
AcDbLine
 10
19.38864898681641
 20
34.36724853515625
 11
17.30536651611331
 21
35.48078918457031
  0
LINE
  5
E6
100
AcDbEntity
  8
sheet2
  6
ByLayer
 62
  256
370
   -1
100
AcDbLine
 10
17.30536651611331
 20
35.48078918457031
 11
15.47934722900391
 21
36.9793701171875
  0
LINE
  5
E7
100
AcDbEntity
  8
sheet2
  6
ByLayer
 62
  256
370
   -1
100
AcDbLine
 10
15.47934722900391
 20
36.9793701171875
 11
13.98077392578119
 21
38.80538940429688
  0
LINE
  5
E8
100
AcDbEntity
  8
sheet2
  6
ByLayer
 62
  256
370
   -1
100
AcDbLine
 10
13.98077392578119
 20
38.80538940429688
 11
12.86724090576169
 21
40.888671875
  0
LINE
  5
E9
100
AcDbEntity
  8
sheet2
  6
ByLayer
 62
  256
370
   -1
100
AcDbLine
 10
12.86724090576169
 20
40.888671875
 11
12.181526184082
 21
43.149169921875
  0
LINE
  5
EA
100
AcDbEntity
  8
sheet2
  6
ByLayer
 62
  256
370
   -1
100
AcDbLine
 10
11.94998931884771
 20
45.5
 11
12.181526184082
 21
43.149169921875
  0
LINE
  5
EB
100
AcDbEntity
  8
sheet2
  6
ByLayer
 62
  256
370
   -1
100
AcDbLine
 10
11.94998931884771
 20
105.5
 11
12.181526184082
 21
107.850830078125
  0
LINE
  5
EC
100
AcDbEntity
  8
sheet2
  6
ByLayer
 62
  256
370
   -1
100
AcDbLine
 10
12.181526184082
 20
107.850830078125
 11
12.86724090576169
 21
110.111328125
  0
LINE
  5
ED
100
AcDbEntity
  8
sheet2
  6
ByLayer
 62
  256
370
   -1
100
AcDbLine
 10
12.86724090576169
 20
110.111328125
 11
13.98078155517581
 21
112.1946258544922
  0
LINE
  5
EE
100
AcDbEntity
  8
sheet2
  6
ByLayer
 62
  256
370
   -1
100
AcDbLine
 10
13.98078155517581
 20
112.1946258544922
 11
15.47935485839841
 21
114.0206298828125
  0
LINE
  5
EF
100
AcDbEntity
  8
sheet2
  6
ByLayer
 62
  256
370
   -1
100
AcDbLine
 10
15.47935485839841
 20
114.0206298828125
 11
17.30536651611331
 21
115.5192108154297
  0
LINE
  5
F0
100
AcDbEntity
  8
sheet2
  6
ByLayer
 62
  256
370
   -1
100
AcDbLine
 10
17.30536651611331
 20
115.5192108154297
 11
19.38865661621091
 21
116.6327514648438
  0
LINE
  5
F1
100
AcDbEntity
  8
sheet2
  6
ByLayer
 62
  256
370
   -1
100
AcDbLine
 10
19.38865661621091
 20
116.6327514648438
 11
21.64915466308591
 21
117.3184661865234
  0
LINE
  5
F2
100
AcDbEntity
  8
sheet2
  6
ByLayer
 62
  256
370
   -1
100
AcDbLine
 10
21.64915466308591
 20
117.3184661865234
 11
23.9999923706055
 21
117.5500030517578
  0
LINE
  5
F3
100
AcDbEntity
  8
sheet2
  6
ByLayer
 62
  256
370
   -1
100
AcDbLine
 10
23.9999923706055
 20
117.5500030517578
 11
26.350830078125
 21
117.3184661865234
  0
LINE
  5
F4
100
AcDbEntity
  8
sheet2
  6
ByLayer
 62
  256
370
   -1
100
AcDbLine
 10
26.350830078125
 20
117.3184661865234
 11
28.61132431030268
 21
116.6327514648438
  0
LINE
  5
F5
100
AcDbEntity
  8
sheet2
  6
ByLayer
 62
  256
370
   -1
100
AcDbLine
 10
28.61132431030268
 20
116.6327514648438
 11
30.69461059570312
 21
115.5192108154297
  0
LINE
  5
F6
100
AcDbEntity
  8
sheet2
  6
ByLayer
 62
  256
370
   -1
100
AcDbLine
 10
30.69461059570312
 20
115.5192108154297
 11
32.52062606811518
 21
114.0206298828125
  0
LINE
  5
F7
100
AcDbEntity
  8
sheet2
  6
ByLayer
 62
  256
370
   -1
100
AcDbLine
 10
32.52062606811518
 20
114.0206298828125
 11
34.01919937133789
 21
112.1946258544922
  0
LINE
  5
F8
100
AcDbEntity
  8
sheet2
  6
ByLayer
 62
  256
370
   -1
100
AcDbLine
 10
34.01919937133789
 20
112.1946258544922
 11
35.13274002075201
 21
110.111328125
  0
LINE
  5
F9
100
AcDbEntity
  8
sheet2
  6
ByLayer
 62
  256
370
   -1
100
AcDbLine
 10
35.13274002075201
 20
110.111328125
 11
35.81845092773438
 21
107.850830078125
  0
LINE
  5
FA
100
AcDbEntity
  8
sheet2
  6
ByLayer
 62
  256
370
   -1
100
AcDbLine
 10
35.81845092773438
 20
107.850830078125
 11
36.04998779296881
 21
105.5
  0
LINE
  5
FB
100
AcDbEntity
  8
sheet2
  6
ByLayer
 62
  256
370
   -1
100
AcDbLine
 10
36.04998779296881
 20
105.5
 11
35.81845092773438
 21
103.149169921875
  0
LINE
  5
FC
100
AcDbEntity
  8
sheet2
  6
ByLayer
 62
  256
370
   -1
100
AcDbLine
 10
35.81845092773438
 20
103.149169921875
 11
35.13273620605469
 21
100.888671875
  0
LINE
  5
FD
100
AcDbEntity
  8
sheet2
  6
ByLayer
 62
  256
370
   -1
100
AcDbLine
 10
35.13273620605469
 20
100.888671875
 11
34.01919937133789
 21
98.8053894042969
  0
LINE
  5
FE
100
AcDbEntity
  8
sheet2
  6
ByLayer
 62
  256
370
   -1
100
AcDbLine
 10
34.01919937133789
 20
98.8053894042969
 11
32.52062606811518
 21
96.9793701171875
  0
LINE
  5
FF
100
AcDbEntity
  8
sheet2
  6
ByLayer
 62
  256
370
   -1
100
AcDbLine
 10
32.52062606811518
 20
96.9793701171875
 11
30.69461059570312
 21
95.4807891845703
  0
LINE
  5
100
100
AcDbEntity
  8
sheet2
  6
ByLayer
 62
  256
370
   -1
100
AcDbLine
 10
30.69461059570312
 20
95.4807891845703
 11
28.61132431030268
 21
94.36724853515619
  0
LINE
  5
101
100
AcDbEntity
  8
sheet2
  6
ByLayer
 62
  256
370
   -1
100
AcDbLine
 10
28.61132431030268
 20
94.36724853515619
 11
26.350830078125
 21
93.68153381347661
  0
LINE
  5
102
100
AcDbEntity
  8
sheet2
  6
ByLayer
 62
  256
370
   -1
100
AcDbLine
 10
26.350830078125
 20
93.68153381347661
 11
23.9999923706055
 21
93.4499969482422
  0
LINE
  5
103
100
AcDbEntity
  8
sheet2
  6
ByLayer
 62
  256
370
   -1
100
AcDbLine
 10
23.9999923706055
 20
93.4499969482422
 11
21.64915466308591
 21
93.68153381347661
  0
LINE
  5
104
100
AcDbEntity
  8
sheet2
  6
ByLayer
 62
  256
370
   -1
100
AcDbLine
 10
21.64915466308591
 20
93.68153381347661
 11
19.38865661621091
 21
94.36724853515619
  0
LINE
  5
105
100
AcDbEntity
  8
sheet2
  6
ByLayer
 62
  256
370
   -1
100
AcDbLine
 10
19.38865661621091
 20
94.36724853515619
 11
17.30536651611331
 21
95.4807891845703
  0
LINE
  5
106
100
AcDbEntity
  8
sheet2
  6
ByLayer
 62
  256
370
   -1
100
AcDbLine
 10
17.30536651611331
 20
95.4807891845703
 11
15.47935485839841
 21
96.9793701171875
  0
LINE
  5
107
100
AcDbEntity
  8
sheet2
  6
ByLayer
 62
  256
370
   -1
100
AcDbLine
 10
15.47935485839841
 20
96.9793701171875
 11
13.98078155517581
 21
98.8053894042969
  0
LINE
  5
108
100
AcDbEntity
  8
sheet2
  6
ByLayer
 62
  256
370
   -1
100
AcDbLine
 10
13.98078155517581
 20
98.8053894042969
 11
12.86724090576169
 21
100.888671875
  0
LINE
  5
109
100
AcDbEntity
  8
sheet2
  6
ByLayer
 62
  256
370
   -1
100
AcDbLine
 10
12.86724090576169
 20
100.888671875
 11
12.181526184082
 21
103.149169921875
  0
LINE
  5
10A
100
AcDbEntity
  8
sheet2
  6
ByLayer
 62
  256
370
   -1
100
AcDbLine
 10
11.94998931884771
 20
105.5
 11
12.181526184082
 21
103.149169921875
  0
LINE
  5
10B
100
AcDbEntity
  8
sheet2
  6
ByLayer
 62
  256
370
   -1
100
AcDbLine
 10
0
 20
290
 11
50.99999618530268
 21
290
  0
LINE
  5
10C
100
AcDbEntity
  8
sheet2
  6
ByLayer
 62
  256
370
   -1
100
AcDbLine
 10
0
 20
290
 11
-1.525878909092171e-05
 21
1.907348629259786e-06
  0
LINE
  5
10D
100
AcDbEntity
  8
sheet2
  6
ByLayer
 62
  256
370
   -1
100
AcDbLine
 10
36.25980758666992
 20
147.4385986328125
 11
36.49999237060553
 21
144.9999694824219
  0
LINE
  5
10E
100
AcDbEntity
  8
sheet2
  6
ByLayer
 62
  256
370
   -1
100
AcDbLine
 10
11.74017333984381
 20
147.4385986328125
 11
11.4999923706055
 21
144.9999694824219
  0
LINE
  5
10F
100
AcDbEntity
  8
sheet2
  6
ByLayer
 62
  256
370
   -1
100
AcDbLine
 10
50.99998474121088
 20
0
 11
-1.525878909092171e-05
 21
1.907348629259786e-06
  0
LINE
  5
110
100
AcDbEntity
  8
sheet2
  6
ByLayer
 62
  256
370
   -1
100
AcDbLine
 10
131.2221527099609
 20
70.83888244628906
 11
130.4644622802734
 21
71.46070098876953
  0
LINE
  5
111
100
AcDbEntity
  8
sheet2
  6
ByLayer
 62
  256
370
   -1
100
AcDbLine
 10
132.0865859985352
 20
70.3768310546875
 11
131.2221527099609
 21
70.83888244628906
  0
LINE
  5
112
100
AcDbEntity
  8
sheet2
  6
ByLayer
 62
  256
370
   -1
100
AcDbLine
 10
133.0245513916016
 20
70.09230804443359
 11
132.0865859985352
 21
70.3768310546875
  0
LINE
  5
113
100
AcDbEntity
  8
sheet2
  6
ByLayer
 62
  256
370
   -1
100
AcDbLine
 10
134
 20
69.99623107910156
 11
133.0245513916016
 21
70.09230804443359
  0
LINE
  5
114
100
AcDbEntity
  8
sheet2
  6
ByLayer
 62
  256
370
   -1
100
AcDbLine
 10
129.096076965332
 20
285.9754638671875
 11
129
 21
285
  0
LINE
  5
115
100
AcDbEntity
  8
sheet2
  6
ByLayer
 62
  256
370
   -1
100
AcDbLine
 10
130.4644622802734
 20
71.46070098876953
 11
129.8426513671875
 21
72.2183837890625
  0
LINE
  5
116
100
AcDbEntity
  8
sheet2
  6
ByLayer
 62
  256
370
   -1
100
AcDbLine
 10
129.8426513671875
 20
72.2183837890625
 11
129.3805999755859
 21
73.08281707763672
  0
LINE
  5
117
100
AcDbEntity
  8
sheet2
  6
ByLayer
 62
  256
370
   -1
100
AcDbLine
 10
129.3805999755859
 20
73.08281707763672
 11
129.096076965332
 21
74.02078247070312
  0
LINE
  5
118
100
AcDbEntity
  8
sheet2
  6
ByLayer
 62
  256
370
   -1
100
AcDbLine
 10
129.096076965332
 20
74.02078247070312
 11
129
 21
74.99623107910156
  0
LINE
  5
119
100
AcDbEntity
  8
sheet2
  6
ByLayer
 62
  256
370
   -1
100
AcDbLine
 10
129.096076965332
 20
285.9754638671875
 11
129.3805999755859
 21
286.9134216308594
  0
LINE
  5
11A
100
AcDbEntity
  8
sheet2
  6
ByLayer
 62
  256
370
   -1
100
AcDbLine
 10
129.3805999755859
 20
286.9134216308594
 11
129.8426513671875
 21
287.7778625488281
  0
LINE
  5
11B
100
AcDbEntity
  8
sheet2
  6
ByLayer
 62
  256
370
   -1
100
AcDbLine
 10
129.8426513671875
 20
287.7778625488281
 11
130.4644622802734
 21
288.5355377197266
  0
LINE
  5
11C
100
AcDbEntity
  8
sheet2
  6
ByLayer
 62
  256
370
   -1
100
AcDbLine
 10
130.4644622802734
 20
288.5355377197266
 11
131.2221527099609
 21
289.1573486328125
  0
LINE
  5
11D
100
AcDbEntity
  8
sheet2
  6
ByLayer
 62
  256
370
   -1
100
AcDbLine
 10
131.2221527099609
 20
289.1573486328125
 11
132.0865859985352
 21
289.6194152832031
  0
LINE
  5
11E
100
AcDbEntity
  8
sheet2
  6
ByLayer
 62
  256
370
   -1
100
AcDbLine
 10
132.0865859985352
 20
289.6194152832031
 11
133.0245513916016
 21
289.9039306640625
  0
LINE
  5
11F
100
AcDbEntity
  8
sheet2
  6
ByLayer
 62
  256
370
   -1
100
AcDbLine
 10
133.0245513916016
 20
289.9039306640625
 11
134
 21
290
  0
LINE
  5
120
100
AcDbEntity
  8
sheet2
  6
ByLayer
 62
  256
370
   -1
100
AcDbLine
 10
134
 20
69.99623107910156
 11
207
 21
69.99623107910156
  0
LINE
  5
121
100
AcDbEntity
  8
sheet2
  6
ByLayer
 62
  256
370
   -1
100
AcDbLine
 10
134
 20
290
 11
207
 21
290
  0
LINE
  5
122
100
AcDbEntity
  8
sheet2
  6
ByLayer
 62
  256
370
   -1
100
AcDbLine
 10
200
 20
87.99623107910156
 11
199.4147300720215
 21
87.93858337402344
  0
LINE
  5
123
100
AcDbEntity
  8
sheet2
  6
ByLayer
 62
  256
370
   -1
100
AcDbLine
 10
199.4147300720215
 20
87.93858337402344
 11
198.8519515991211
 21
87.76786804199219
  0
LINE
  5
124
100
AcDbEntity
  8
sheet2
  6
ByLayer
 62
  256
370
   -1
100
AcDbLine
 10
198.8519515991211
 20
87.76786804199219
 11
198.3332901000977
 21
87.49063873291016
  0
LINE
  5
125
100
AcDbEntity
  8
sheet2
  6
ByLayer
 62
  256
370
   -1
100
AcDbLine
 10
198.3332901000977
 20
87.49063873291016
 11
197.8786773681641
 21
87.1175537109375
  0
LINE
  5
126
100
AcDbEntity
  8
sheet2
  6
ByLayer
 62
  256
370
   -1
100
AcDbLine
 10
197.8786773681641
 20
87.1175537109375
 11
197.5055923461914
 21
86.66294097900391
  0
LINE
  5
127
100
AcDbEntity
  8
sheet2
  6
ByLayer
 62
  256
370
   -1
100
AcDbLine
 10
197.5055923461914
 20
86.66294097900391
 11
197.2283630371094
 21
86.14427947998047
  0
LINE
  5
128
100
AcDbEntity
  8
sheet2
  6
ByLayer
 62
  256
370
   -1
100
AcDbLine
 10
197.2283630371094
 20
86.14427947998047
 11
197.0576438903809
 21
85.58150482177734
  0
LINE
  5
129
100
AcDbEntity
  8
sheet2
  6
ByLayer
 62
  256
370
   -1
100
AcDbLine
 10
197.0576438903809
 20
85.58150482177734
 11
197
 21
84.99623107910156
  0
LINE
  5
12A
100
AcDbEntity
  8
sheet2
  6
ByLayer
 62
  256
370
   -1
100
AcDbLine
 10
197
 20
84.99623107910156
 11
197.0576438903809
 21
84.41095733642578
  0
LINE
  5
12B
100
AcDbEntity
  8
sheet2
  6
ByLayer
 62
  256
370
   -1
100
AcDbLine
 10
197.0576438903809
 20
84.41095733642578
 11
197.2283630371094
 21
83.84818267822266
  0
LINE
  5
12C
100
AcDbEntity
  8
sheet2
  6
ByLayer
 62
  256
370
   -1
100
AcDbLine
 10
197.2283630371094
 20
83.84818267822266
 11
197.5055923461914
 21
83.32952117919922
  0
LINE
  5
12D
100
AcDbEntity
  8
sheet2
  6
ByLayer
 62
  256
370
   -1
100
AcDbLine
 10
197.5055923461914
 20
83.32952117919922
 11
197.8786773681641
 21
82.87490844726562
  0
LINE
  5
12E
100
AcDbEntity
  8
sheet2
  6
ByLayer
 62
  256
370
   -1
100
AcDbLine
 10
197.8786773681641
 20
82.87490844726562
 11
198.3332901000977
 21
82.50182342529297
  0
LINE
  5
12F
100
AcDbEntity
  8
sheet2
  6
ByLayer
 62
  256
370
   -1
100
AcDbLine
 10
198.3332901000977
 20
82.50182342529297
 11
198.8519515991211
 21
82.22459411621094
  0
LINE
  5
130
100
AcDbEntity
  8
sheet2
  6
ByLayer
 62
  256
370
   -1
100
AcDbLine
 10
198.8519515991211
 20
82.22459411621094
 11
199.4147300720215
 21
82.05387878417969
  0
LINE
  5
131
100
AcDbEntity
  8
sheet2
  6
ByLayer
 62
  256
370
   -1
100
AcDbLine
 10
199.4147300720215
 20
82.05387878417969
 11
200
 21
81.99623107910156
  0
LINE
  5
132
100
AcDbEntity
  8
sheet2
  6
ByLayer
 62
  256
370
   -1
100
AcDbLine
 10
200
 20
81.99623107910156
 11
200.5852699279785
 21
82.05387878417969
  0
LINE
  5
133
100
AcDbEntity
  8
sheet2
  6
ByLayer
 62
  256
370
   -1
100
AcDbLine
 10
200.5852699279785
 20
82.05387878417969
 11
201.1480484008789
 21
82.22459411621094
  0
LINE
  5
134
100
AcDbEntity
  8
sheet2
  6
ByLayer
 62
  256
370
   -1
100
AcDbLine
 10
201.1480484008789
 20
82.22459411621094
 11
201.6667098999023
 21
82.50182342529297
  0
LINE
  5
135
100
AcDbEntity
  8
sheet2
  6
ByLayer
 62
  256
370
   -1
100
AcDbLine
 10
201.6667098999023
 20
82.50182342529297
 11
202.1213188171387
 21
82.87490844726562
  0
LINE
  5
136
100
AcDbEntity
  8
sheet2
  6
ByLayer
 62
  256
370
   -1
100
AcDbLine
 10
202.1213188171387
 20
82.87490844726562
 11
202.4944076538086
 21
83.32952117919922
  0
LINE
  5
137
100
AcDbEntity
  8
sheet2
  6
ByLayer
 62
  256
370
   -1
100
AcDbLine
 10
202.4944076538086
 20
83.32952117919922
 11
202.7716369628906
 21
83.84818267822266
  0
LINE
  5
138
100
AcDbEntity
  8
sheet2
  6
ByLayer
 62
  256
370
   -1
100
AcDbLine
 10
202.7716369628906
 20
83.84818267822266
 11
202.9423561096191
 21
84.41095733642578
  0
LINE
  5
139
100
AcDbEntity
  8
sheet2
  6
ByLayer
 62
  256
370
   -1
100
AcDbLine
 10
202.9423561096191
 20
84.41095733642578
 11
203
 21
84.99623107910156
  0
LINE
  5
13A
100
AcDbEntity
  8
sheet2
  6
ByLayer
 62
  256
370
   -1
100
AcDbLine
 10
203
 20
84.99623107910156
 11
202.9423561096191
 21
85.58150482177734
  0
LINE
  5
13B
100
AcDbEntity
  8
sheet2
  6
ByLayer
 62
  256
370
   -1
100
AcDbLine
 10
202.9423561096191
 20
85.58150482177734
 11
202.7716369628906
 21
86.14427947998047
  0
LINE
  5
13C
100
AcDbEntity
  8
sheet2
  6
ByLayer
 62
  256
370
   -1
100
AcDbLine
 10
202.7716369628906
 20
86.14427947998047
 11
202.4944076538086
 21
86.66294097900391
  0
LINE
  5
13D
100
AcDbEntity
  8
sheet2
  6
ByLayer
 62
  256
370
   -1
100
AcDbLine
 10
202.4944076538086
 20
86.66294097900391
 11
202.1213188171387
 21
87.1175537109375
  0
LINE
  5
13E
100
AcDbEntity
  8
sheet2
  6
ByLayer
 62
  256
370
   -1
100
AcDbLine
 10
202.1213188171387
 20
87.1175537109375
 11
201.6667098999023
 21
87.49063873291016
  0
LINE
  5
13F
100
AcDbEntity
  8
sheet2
  6
ByLayer
 62
  256
370
   -1
100
AcDbLine
 10
201.6667098999023
 20
87.49063873291016
 11
201.1480484008789
 21
87.76786804199219
  0
LINE
  5
140
100
AcDbEntity
  8
sheet2
  6
ByLayer
 62
  256
370
   -1
100
AcDbLine
 10
201.1480484008789
 20
87.76786804199219
 11
200.5852699279785
 21
87.93858337402344
  0
LINE
  5
141
100
AcDbEntity
  8
sheet2
  6
ByLayer
 62
  256
370
   -1
100
AcDbLine
 10
200
 20
87.99623107910156
 11
200.5852699279785
 21
87.93858337402344
  0
LINE
  5
142
100
AcDbEntity
  8
sheet2
  6
ByLayer
 62
  256
370
   -1
100
AcDbLine
 10
181.5
 20
87.99623107910156
 11
180.9147262573242
 21
87.93858337402344
  0
LINE
  5
143
100
AcDbEntity
  8
sheet2
  6
ByLayer
 62
  256
370
   -1
100
AcDbLine
 10
180.9147262573242
 20
87.93858337402344
 11
180.3519515991211
 21
87.76786804199219
  0
LINE
  5
144
100
AcDbEntity
  8
sheet2
  6
ByLayer
 62
  256
370
   -1
100
AcDbLine
 10
180.3519515991211
 20
87.76786804199219
 11
179.8332901000977
 21
87.49063873291016
  0
LINE
  5
145
100
AcDbEntity
  8
sheet2
  6
ByLayer
 62
  256
370
   -1
100
AcDbLine
 10
179.8332901000977
 20
87.49063873291016
 11
179.3786773681641
 21
87.1175537109375
  0
LINE
  5
146
100
AcDbEntity
  8
sheet2
  6
ByLayer
 62
  256
370
   -1
100
AcDbLine
 10
179.3786773681641
 20
87.1175537109375
 11
179.0055923461914
 21
86.66294097900391
  0
LINE
  5
147
100
AcDbEntity
  8
sheet2
  6
ByLayer
 62
  256
370
   -1
100
AcDbLine
 10
179.0055923461914
 20
86.66294097900391
 11
178.7283630371094
 21
86.14427947998047
  0
LINE
  5
148
100
AcDbEntity
  8
sheet2
  6
ByLayer
 62
  256
370
   -1
100
AcDbLine
 10
178.7283630371094
 20
86.14427947998047
 11
178.5576477050781
 21
85.58150482177734
  0
LINE
  5
149
100
AcDbEntity
  8
sheet2
  6
ByLayer
 62
  256
370
   -1
100
AcDbLine
 10
178.5576477050781
 20
85.58150482177734
 11
178.5
 21
84.99623107910156
  0
LINE
  5
14A
100
AcDbEntity
  8
sheet2
  6
ByLayer
 62
  256
370
   -1
100
AcDbLine
 10
178.5
 20
84.99623107910156
 11
178.5576477050781
 21
84.41095733642578
  0
LINE
  5
14B
100
AcDbEntity
  8
sheet2
  6
ByLayer
 62
  256
370
   -1
100
AcDbLine
 10
178.5576477050781
 20
84.41095733642578
 11
178.7283630371094
 21
83.84818267822266
  0
LINE
  5
14C
100
AcDbEntity
  8
sheet2
  6
ByLayer
 62
  256
370
   -1
100
AcDbLine
 10
178.7283630371094
 20
83.84818267822266
 11
179.0055923461914
 21
83.32952117919922
  0
LINE
  5
14D
100
AcDbEntity
  8
sheet2
  6
ByLayer
 62
  256
370
   -1
100
AcDbLine
 10
179.0055923461914
 20
83.32952117919922
 11
179.3786773681641
 21
82.87490844726562
  0
LINE
  5
14E
100
AcDbEntity
  8
sheet2
  6
ByLayer
 62
  256
370
   -1
100
AcDbLine
 10
179.3786773681641
 20
82.87490844726562
 11
179.8332901000977
 21
82.50182342529297
  0
LINE
  5
14F
100
AcDbEntity
  8
sheet2
  6
ByLayer
 62
  256
370
   -1
100
AcDbLine
 10
179.8332901000977
 20
82.50182342529297
 11
180.3519515991211
 21
82.22459411621094
  0
LINE
  5
150
100
AcDbEntity
  8
sheet2
  6
ByLayer
 62
  256
370
   -1
100
AcDbLine
 10
180.3519515991211
 20
82.22459411621094
 11
180.9147262573242
 21
82.05387878417969
  0
LINE
  5
151
100
AcDbEntity
  8
sheet2
  6
ByLayer
 62
  256
370
   -1
100
AcDbLine
 10
180.9147262573242
 20
82.05387878417969
 11
181.5
 21
81.99623107910156
  0
LINE
  5
152
100
AcDbEntity
  8
sheet2
  6
ByLayer
 62
  256
370
   -1
100
AcDbLine
 10
181.5
 20
81.99623107910156
 11
182.0852737426758
 21
82.05387878417969
  0
LINE
  5
153
100
AcDbEntity
  8
sheet2
  6
ByLayer
 62
  256
370
   -1
100
AcDbLine
 10
182.0852737426758
 20
82.05387878417969
 11
182.6480484008789
 21
82.22459411621094
  0
LINE
  5
154
100
AcDbEntity
  8
sheet2
  6
ByLayer
 62
  256
370
   -1
100
AcDbLine
 10
182.6480484008789
 20
82.22459411621094
 11
183.1667098999023
 21
82.50182342529297
  0
LINE
  5
155
100
AcDbEntity
  8
sheet2
  6
ByLayer
 62
  256
370
   -1
100
AcDbLine
 10
183.1667098999023
 20
82.50182342529297
 11
183.6213226318359
 21
82.87490844726562
  0
LINE
  5
156
100
AcDbEntity
  8
sheet2
  6
ByLayer
 62
  256
370
   -1
100
AcDbLine
 10
183.6213226318359
 20
82.87490844726562
 11
183.9944076538086
 21
83.32952117919922
  0
LINE
  5
157
100
AcDbEntity
  8
sheet2
  6
ByLayer
 62
  256
370
   -1
100
AcDbLine
 10
183.9944076538086
 20
83.32952117919922
 11
184.2716369628906
 21
83.84818267822266
  0
LINE
  5
158
100
AcDbEntity
  8
sheet2
  6
ByLayer
 62
  256
370
   -1
100
AcDbLine
 10
184.2716369628906
 20
83.84818267822266
 11
184.4423561096191
 21
84.41095733642578
  0
LINE
  5
159
100
AcDbEntity
  8
sheet2
  6
ByLayer
 62
  256
370
   -1
100
AcDbLine
 10
184.4423561096191
 20
84.41095733642578
 11
184.5
 21
84.99623107910156
  0
LINE
  5
15A
100
AcDbEntity
  8
sheet2
  6
ByLayer
 62
  256
370
   -1
100
AcDbLine
 10
184.5
 20
84.99623107910156
 11
184.4423561096191
 21
85.58150482177734
  0
LINE
  5
15B
100
AcDbEntity
  8
sheet2
  6
ByLayer
 62
  256
370
   -1
100
AcDbLine
 10
184.4423561096191
 20
85.58150482177734
 11
184.2716369628906
 21
86.14427947998047
  0
LINE
  5
15C
100
AcDbEntity
  8
sheet2
  6
ByLayer
 62
  256
370
   -1
100
AcDbLine
 10
184.2716369628906
 20
86.14427947998047
 11
183.9944076538086
 21
86.66294097900391
  0
LINE
  5
15D
100
AcDbEntity
  8
sheet2
  6
ByLayer
 62
  256
370
   -1
100
AcDbLine
 10
183.9944076538086
 20
86.66294097900391
 11
183.6213226318359
 21
87.1175537109375
  0
LINE
  5
15E
100
AcDbEntity
  8
sheet2
  6
ByLayer
 62
  256
370
   -1
100
AcDbLine
 10
183.6213226318359
 20
87.1175537109375
 11
183.1667098999023
 21
87.49063873291016
  0
LINE
  5
15F
100
AcDbEntity
  8
sheet2
  6
ByLayer
 62
  256
370
   -1
100
AcDbLine
 10
183.1667098999023
 20
87.49063873291016
 11
182.6480484008789
 21
87.76786804199219
  0
LINE
  5
160
100
AcDbEntity
  8
sheet2
  6
ByLayer
 62
  256
370
   -1
100
AcDbLine
 10
182.6480484008789
 20
87.76786804199219
 11
182.0852737426758
 21
87.93858337402344
  0
LINE
  5
161
100
AcDbEntity
  8
sheet2
  6
ByLayer
 62
  256
370
   -1
100
AcDbLine
 10
181.5
 20
87.99623107910156
 11
182.0852737426758
 21
87.93858337402344
  0
LINE
  5
162
100
AcDbEntity
  8
sheet2
  6
ByLayer
 62
  256
370
   -1
100
AcDbLine
 10
163
 20
87.99623107910156
 11
162.4147338867188
 21
87.93858337402344
  0
LINE
  5
163
100
AcDbEntity
  8
sheet2
  6
ByLayer
 62
  256
370
   -1
100
AcDbLine
 10
162.4147338867188
 20
87.93858337402344
 11
161.8519515991211
 21
87.76786804199219
  0
LINE
  5
164
100
AcDbEntity
  8
sheet2
  6
ByLayer
 62
  256
370
   -1
100
AcDbLine
 10
161.8519515991211
 20
87.76786804199219
 11
161.3332901000977
 21
87.49063873291016
  0
LINE
  5
165
100
AcDbEntity
  8
sheet2
  6
ByLayer
 62
  256
370
   -1
100
AcDbLine
 10
161.3332901000977
 20
87.49063873291016
 11
160.8786773681641
 21
87.1175537109375
  0
LINE
  5
166
100
AcDbEntity
  8
sheet2
  6
ByLayer
 62
  256
370
   -1
100
AcDbLine
 10
160.8786773681641
 20
87.1175537109375
 11
160.5055923461914
 21
86.66294097900391
  0
LINE
  5
167
100
AcDbEntity
  8
sheet2
  6
ByLayer
 62
  256
370
   -1
100
AcDbLine
 10
160.5055923461914
 20
86.66294097900391
 11
160.2283630371094
 21
86.14427947998047
  0
LINE
  5
168
100
AcDbEntity
  8
sheet2
  6
ByLayer
 62
  256
370
   -1
100
AcDbLine
 10
160.2283630371094
 20
86.14427947998047
 11
160.0576477050781
 21
85.58150482177734
  0
LINE
  5
169
100
AcDbEntity
  8
sheet2
  6
ByLayer
 62
  256
370
   -1
100
AcDbLine
 10
160.0576477050781
 20
85.58150482177734
 11
160
 21
84.99623107910156
  0
LINE
  5
16A
100
AcDbEntity
  8
sheet2
  6
ByLayer
 62
  256
370
   -1
100
AcDbLine
 10
160
 20
84.99623107910156
 11
160.0576477050781
 21
84.41095733642578
  0
LINE
  5
16B
100
AcDbEntity
  8
sheet2
  6
ByLayer
 62
  256
370
   -1
100
AcDbLine
 10
160.0576477050781
 20
84.41095733642578
 11
160.2283630371094
 21
83.84818267822266
  0
LINE
  5
16C
100
AcDbEntity
  8
sheet2
  6
ByLayer
 62
  256
370
   -1
100
AcDbLine
 10
160.2283630371094
 20
83.84818267822266
 11
160.5055923461914
 21
83.32952117919922
  0
LINE
  5
16D
100
AcDbEntity
  8
sheet2
  6
ByLayer
 62
  256
370
   -1
100
AcDbLine
 10
160.5055923461914
 20
83.32952117919922
 11
160.8786773681641
 21
82.87490844726562
  0
LINE
  5
16E
100
AcDbEntity
  8
sheet2
  6
ByLayer
 62
  256
370
   -1
100
AcDbLine
 10
160.8786773681641
 20
82.87490844726562
 11
161.3332901000977
 21
82.50182342529297
  0
LINE
  5
16F
100
AcDbEntity
  8
sheet2
  6
ByLayer
 62
  256
370
   -1
100
AcDbLine
 10
161.3332901000977
 20
82.50182342529297
 11
161.8519515991211
 21
82.22459411621094
  0
LINE
  5
170
100
AcDbEntity
  8
sheet2
  6
ByLayer
 62
  256
370
   -1
100
AcDbLine
 10
161.8519515991211
 20
82.22459411621094
 11
162.4147338867188
 21
82.05387878417969
  0
LINE
  5
171
100
AcDbEntity
  8
sheet2
  6
ByLayer
 62
  256
370
   -1
100
AcDbLine
 10
162.4147338867188
 20
82.05387878417969
 11
163
 21
81.99623107910156
  0
LINE
  5
172
100
AcDbEntity
  8
sheet2
  6
ByLayer
 62
  256
370
   -1
100
AcDbLine
 10
163
 20
81.99623107910156
 11
163.5852661132812
 21
82.05387878417969
  0
LINE
  5
173
100
AcDbEntity
  8
sheet2
  6
ByLayer
 62
  256
370
   -1
100
AcDbLine
 10
163.5852661132812
 20
82.05387878417969
 11
164.1480484008789
 21
82.22459411621094
  0
LINE
  5
174
100
AcDbEntity
  8
sheet2
  6
ByLayer
 62
  256
370
   -1
100
AcDbLine
 10
164.1480484008789
 20
82.22459411621094
 11
164.6667098999023
 21
82.50182342529297
  0
LINE
  5
175
100
AcDbEntity
  8
sheet2
  6
ByLayer
 62
  256
370
   -1
100
AcDbLine
 10
164.6667098999023
 20
82.50182342529297
 11
165.1213226318359
 21
82.87490844726562
  0
LINE
  5
176
100
AcDbEntity
  8
sheet2
  6
ByLayer
 62
  256
370
   -1
100
AcDbLine
 10
165.1213226318359
 20
82.87490844726562
 11
165.4944076538086
 21
83.32952117919922
  0
LINE
  5
177
100
AcDbEntity
  8
sheet2
  6
ByLayer
 62
  256
370
   -1
100
AcDbLine
 10
165.4944076538086
 20
83.32952117919922
 11
165.7716369628906
 21
83.84818267822266
  0
LINE
  5
178
100
AcDbEntity
  8
sheet2
  6
ByLayer
 62
  256
370
   -1
100
AcDbLine
 10
165.7716369628906
 20
83.84818267822266
 11
165.9423522949219
 21
84.41095733642578
  0
LINE
  5
179
100
AcDbEntity
  8
sheet2
  6
ByLayer
 62
  256
370
   -1
100
AcDbLine
 10
165.9423522949219
 20
84.41095733642578
 11
166
 21
84.99623107910156
  0
LINE
  5
17A
100
AcDbEntity
  8
sheet2
  6
ByLayer
 62
  256
370
   -1
100
AcDbLine
 10
166
 20
84.99623107910156
 11
165.9423522949219
 21
85.58150482177734
  0
LINE
  5
17B
100
AcDbEntity
  8
sheet2
  6
ByLayer
 62
  256
370
   -1
100
AcDbLine
 10
165.9423522949219
 20
85.58150482177734
 11
165.7716369628906
 21
86.14427947998047
  0
LINE
  5
17C
100
AcDbEntity
  8
sheet2
  6
ByLayer
 62
  256
370
   -1
100
AcDbLine
 10
165.7716369628906
 20
86.14427947998047
 11
165.4944076538086
 21
86.66294097900391
  0
LINE
  5
17D
100
AcDbEntity
  8
sheet2
  6
ByLayer
 62
  256
370
   -1
100
AcDbLine
 10
165.4944076538086
 20
86.66294097900391
 11
165.1213226318359
 21
87.1175537109375
  0
LINE
  5
17E
100
AcDbEntity
  8
sheet2
  6
ByLayer
 62
  256
370
   -1
100
AcDbLine
 10
165.1213226318359
 20
87.1175537109375
 11
164.6667098999023
 21
87.49063873291016
  0
LINE
  5
17F
100
AcDbEntity
  8
sheet2
  6
ByLayer
 62
  256
370
   -1
100
AcDbLine
 10
164.6667098999023
 20
87.49063873291016
 11
164.1480484008789
 21
87.76786804199219
  0
LINE
  5
180
100
AcDbEntity
  8
sheet2
  6
ByLayer
 62
  256
370
   -1
100
AcDbLine
 10
164.1480484008789
 20
87.76786804199219
 11
163.5852661132812
 21
87.93858337402344
  0
LINE
  5
181
100
AcDbEntity
  8
sheet2
  6
ByLayer
 62
  256
370
   -1
100
AcDbLine
 10
163
 20
87.99623107910156
 11
163.5852661132812
 21
87.93858337402344
  0
LINE
  5
182
100
AcDbEntity
  8
sheet2
  6
ByLayer
 62
  256
370
   -1
100
AcDbLine
 10
200
 20
277.9962310791016
 11
199.4147300720215
 21
277.9385833740234
  0
LINE
  5
183
100
AcDbEntity
  8
sheet2
  6
ByLayer
 62
  256
370
   -1
100
AcDbLine
 10
199.4147300720215
 20
277.9385833740234
 11
198.8519515991211
 21
277.7678680419922
  0
LINE
  5
184
100
AcDbEntity
  8
sheet2
  6
ByLayer
 62
  256
370
   -1
100
AcDbLine
 10
198.8519515991211
 20
277.7678680419922
 11
198.3332901000977
 21
277.4906463623047
  0
LINE
  5
185
100
AcDbEntity
  8
sheet2
  6
ByLayer
 62
  256
370
   -1
100
AcDbLine
 10
198.3332901000977
 20
277.4906463623047
 11
197.8786773681641
 21
277.1175537109375
  0
LINE
  5
186
100
AcDbEntity
  8
sheet2
  6
ByLayer
 62
  256
370
   -1
100
AcDbLine
 10
197.8786773681641
 20
277.1175537109375
 11
197.5055923461914
 21
276.6629486083984
  0
LINE
  5
187
100
AcDbEntity
  8
sheet2
  6
ByLayer
 62
  256
370
   -1
100
AcDbLine
 10
197.5055923461914
 20
276.6629486083984
 11
197.2283630371094
 21
276.144287109375
  0
LINE
  5
188
100
AcDbEntity
  8
sheet2
  6
ByLayer
 62
  256
370
   -1
100
AcDbLine
 10
197.2283630371094
 20
276.144287109375
 11
197.0576438903809
 21
275.5814971923828
  0
LINE
  5
189
100
AcDbEntity
  8
sheet2
  6
ByLayer
 62
  256
370
   -1
100
AcDbLine
 10
197.0576438903809
 20
275.5814971923828
 11
197
 21
274.9962310791016
  0
LINE
  5
18A
100
AcDbEntity
  8
sheet2
  6
ByLayer
 62
  256
370
   -1
100
AcDbLine
 10
197
 20
274.9962310791016
 11
197.0576438903809
 21
274.4109649658203
  0
LINE
  5
18B
100
AcDbEntity
  8
sheet2
  6
ByLayer
 62
  256
370
   -1
100
AcDbLine
 10
197.0576438903809
 20
274.4109649658203
 11
197.2283630371094
 21
273.8481750488281
  0
LINE
  5
18C
100
AcDbEntity
  8
sheet2
  6
ByLayer
 62
  256
370
   -1
100
AcDbLine
 10
197.2283630371094
 20
273.8481750488281
 11
197.5055923461914
 21
273.3295135498047
  0
LINE
  5
18D
100
AcDbEntity
  8
sheet2
  6
ByLayer
 62
  256
370
   -1
100
AcDbLine
 10
197.5055923461914
 20
273.3295135498047
 11
197.8786773681641
 21
272.8749084472656
  0
LINE
  5
18E
100
AcDbEntity
  8
sheet2
  6
ByLayer
 62
  256
370
   -1
100
AcDbLine
 10
197.8786773681641
 20
272.8749084472656
 11
198.3332901000977
 21
272.5018157958984
  0
LINE
  5
18F
100
AcDbEntity
  8
sheet2
  6
ByLayer
 62
  256
370
   -1
100
AcDbLine
 10
198.3332901000977
 20
272.5018157958984
 11
198.8519515991211
 21
272.2245941162109
  0
LINE
  5
190
100
AcDbEntity
  8
sheet2
  6
ByLayer
 62
  256
370
   -1
100
AcDbLine
 10
198.8519515991211
 20
272.2245941162109
 11
199.4147300720215
 21
272.0538787841797
  0
LINE
  5
191
100
AcDbEntity
  8
sheet2
  6
ByLayer
 62
  256
370
   -1
100
AcDbLine
 10
199.4147300720215
 20
272.0538787841797
 11
200
 21
271.9962310791016
  0
LINE
  5
192
100
AcDbEntity
  8
sheet2
  6
ByLayer
 62
  256
370
   -1
100
AcDbLine
 10
200
 20
271.9962310791016
 11
200.5852699279785
 21
272.0538787841797
  0
LINE
  5
193
100
AcDbEntity
  8
sheet2
  6
ByLayer
 62
  256
370
   -1
100
AcDbLine
 10
200.5852699279785
 20
272.0538787841797
 11
201.1480484008789
 21
272.2245941162109
  0
LINE
  5
194
100
AcDbEntity
  8
sheet2
  6
ByLayer
 62
  256
370
   -1
100
AcDbLine
 10
201.1480484008789
 20
272.2245941162109
 11
201.6667098999023
 21
272.5018157958984
  0
LINE
  5
195
100
AcDbEntity
  8
sheet2
  6
ByLayer
 62
  256
370
   -1
100
AcDbLine
 10
201.6667098999023
 20
272.5018157958984
 11
202.1213188171387
 21
272.8749084472656
  0
LINE
  5
196
100
AcDbEntity
  8
sheet2
  6
ByLayer
 62
  256
370
   -1
100
AcDbLine
 10
202.1213188171387
 20
272.8749084472656
 11
202.4944076538086
 21
273.3295135498047
  0
LINE
  5
197
100
AcDbEntity
  8
sheet2
  6
ByLayer
 62
  256
370
   -1
100
AcDbLine
 10
202.4944076538086
 20
273.3295135498047
 11
202.7716369628906
 21
273.8481750488281
  0
LINE
  5
198
100
AcDbEntity
  8
sheet2
  6
ByLayer
 62
  256
370
   -1
100
AcDbLine
 10
202.7716369628906
 20
273.8481750488281
 11
202.9423561096191
 21
274.4109649658203
  0
LINE
  5
199
100
AcDbEntity
  8
sheet2
  6
ByLayer
 62
  256
370
   -1
100
AcDbLine
 10
202.9423561096191
 20
274.4109649658203
 11
203
 21
274.9962310791016
  0
LINE
  5
19A
100
AcDbEntity
  8
sheet2
  6
ByLayer
 62
  256
370
   -1
100
AcDbLine
 10
203
 20
274.9962310791016
 11
202.9423561096191
 21
275.5814971923828
  0
LINE
  5
19B
100
AcDbEntity
  8
sheet2
  6
ByLayer
 62
  256
370
   -1
100
AcDbLine
 10
202.9423561096191
 20
275.5814971923828
 11
202.7716369628906
 21
276.144287109375
  0
LINE
  5
19C
100
AcDbEntity
  8
sheet2
  6
ByLayer
 62
  256
370
   -1
100
AcDbLine
 10
202.7716369628906
 20
276.144287109375
 11
202.4944076538086
 21
276.6629486083984
  0
LINE
  5
19D
100
AcDbEntity
  8
sheet2
  6
ByLayer
 62
  256
370
   -1
100
AcDbLine
 10
202.4944076538086
 20
276.6629486083984
 11
202.1213188171387
 21
277.1175537109375
  0
LINE
  5
19E
100
AcDbEntity
  8
sheet2
  6
ByLayer
 62
  256
370
   -1
100
AcDbLine
 10
202.1213188171387
 20
277.1175537109375
 11
201.6667098999023
 21
277.4906463623047
  0
LINE
  5
19F
100
AcDbEntity
  8
sheet2
  6
ByLayer
 62
  256
370
   -1
100
AcDbLine
 10
201.6667098999023
 20
277.4906463623047
 11
201.1480484008789
 21
277.7678680419922
  0
LINE
  5
1A0
100
AcDbEntity
  8
sheet2
  6
ByLayer
 62
  256
370
   -1
100
AcDbLine
 10
201.1480484008789
 20
277.7678680419922
 11
200.5852699279785
 21
277.9385833740234
  0
LINE
  5
1A1
100
AcDbEntity
  8
sheet2
  6
ByLayer
 62
  256
370
   -1
100
AcDbLine
 10
200
 20
277.9962310791016
 11
200.5852699279785
 21
277.9385833740234
  0
LINE
  5
1A2
100
AcDbEntity
  8
sheet2
  6
ByLayer
 62
  256
370
   -1
100
AcDbLine
 10
181.5
 20
277.9962310791016
 11
180.9147262573242
 21
277.9385833740234
  0
LINE
  5
1A3
100
AcDbEntity
  8
sheet2
  6
ByLayer
 62
  256
370
   -1
100
AcDbLine
 10
180.9147262573242
 20
277.9385833740234
 11
180.3519515991211
 21
277.7678680419922
  0
LINE
  5
1A4
100
AcDbEntity
  8
sheet2
  6
ByLayer
 62
  256
370
   -1
100
AcDbLine
 10
180.3519515991211
 20
277.7678680419922
 11
179.8332901000977
 21
277.4906463623047
  0
LINE
  5
1A5
100
AcDbEntity
  8
sheet2
  6
ByLayer
 62
  256
370
   -1
100
AcDbLine
 10
179.8332901000977
 20
277.4906463623047
 11
179.3786773681641
 21
277.1175537109375
  0
LINE
  5
1A6
100
AcDbEntity
  8
sheet2
  6
ByLayer
 62
  256
370
   -1
100
AcDbLine
 10
179.3786773681641
 20
277.1175537109375
 11
179.0055923461914
 21
276.6629486083984
  0
LINE
  5
1A7
100
AcDbEntity
  8
sheet2
  6
ByLayer
 62
  256
370
   -1
100
AcDbLine
 10
179.0055923461914
 20
276.6629486083984
 11
178.7283630371094
 21
276.144287109375
  0
LINE
  5
1A8
100
AcDbEntity
  8
sheet2
  6
ByLayer
 62
  256
370
   -1
100
AcDbLine
 10
178.7283630371094
 20
276.144287109375
 11
178.5576477050781
 21
275.5814971923828
  0
LINE
  5
1A9
100
AcDbEntity
  8
sheet2
  6
ByLayer
 62
  256
370
   -1
100
AcDbLine
 10
178.5576477050781
 20
275.5814971923828
 11
178.5
 21
274.9962310791016
  0
LINE
  5
1AA
100
AcDbEntity
  8
sheet2
  6
ByLayer
 62
  256
370
   -1
100
AcDbLine
 10
178.5
 20
274.9962310791016
 11
178.5576477050781
 21
274.4109649658203
  0
LINE
  5
1AB
100
AcDbEntity
  8
sheet2
  6
ByLayer
 62
  256
370
   -1
100
AcDbLine
 10
178.5576477050781
 20
274.4109649658203
 11
178.7283630371094
 21
273.8481750488281
  0
LINE
  5
1AC
100
AcDbEntity
  8
sheet2
  6
ByLayer
 62
  256
370
   -1
100
AcDbLine
 10
178.7283630371094
 20
273.8481750488281
 11
179.0055923461914
 21
273.3295135498047
  0
LINE
  5
1AD
100
AcDbEntity
  8
sheet2
  6
ByLayer
 62
  256
370
   -1
100
AcDbLine
 10
179.0055923461914
 20
273.3295135498047
 11
179.3786773681641
 21
272.8749084472656
  0
LINE
  5
1AE
100
AcDbEntity
  8
sheet2
  6
ByLayer
 62
  256
370
   -1
100
AcDbLine
 10
179.3786773681641
 20
272.8749084472656
 11
179.8332901000977
 21
272.5018157958984
  0
LINE
  5
1AF
100
AcDbEntity
  8
sheet2
  6
ByLayer
 62
  256
370
   -1
100
AcDbLine
 10
179.8332901000977
 20
272.5018157958984
 11
180.3519515991211
 21
272.2245941162109
  0
LINE
  5
1B0
100
AcDbEntity
  8
sheet2
  6
ByLayer
 62
  256
370
   -1
100
AcDbLine
 10
180.3519515991211
 20
272.2245941162109
 11
180.9147262573242
 21
272.0538787841797
  0
LINE
  5
1B1
100
AcDbEntity
  8
sheet2
  6
ByLayer
 62
  256
370
   -1
100
AcDbLine
 10
180.9147262573242
 20
272.0538787841797
 11
181.5
 21
271.9962310791016
  0
LINE
  5
1B2
100
AcDbEntity
  8
sheet2
  6
ByLayer
 62
  256
370
   -1
100
AcDbLine
 10
181.5
 20
271.9962310791016
 11
182.0852737426758
 21
272.0538787841797
  0
LINE
  5
1B3
100
AcDbEntity
  8
sheet2
  6
ByLayer
 62
  256
370
   -1
100
AcDbLine
 10
182.0852737426758
 20
272.0538787841797
 11
182.6480484008789
 21
272.2245941162109
  0
LINE
  5
1B4
100
AcDbEntity
  8
sheet2
  6
ByLayer
 62
  256
370
   -1
100
AcDbLine
 10
182.6480484008789
 20
272.2245941162109
 11
183.1667098999023
 21
272.5018157958984
  0
LINE
  5
1B5
100
AcDbEntity
  8
sheet2
  6
ByLayer
 62
  256
370
   -1
100
AcDbLine
 10
183.1667098999023
 20
272.5018157958984
 11
183.6213226318359
 21
272.8749084472656
  0
LINE
  5
1B6
100
AcDbEntity
  8
sheet2
  6
ByLayer
 62
  256
370
   -1
100
AcDbLine
 10
183.6213226318359
 20
272.8749084472656
 11
183.9944076538086
 21
273.3295135498047
  0
LINE
  5
1B7
100
AcDbEntity
  8
sheet2
  6
ByLayer
 62
  256
370
   -1
100
AcDbLine
 10
183.9944076538086
 20
273.3295135498047
 11
184.2716369628906
 21
273.8481750488281
  0
LINE
  5
1B8
100
AcDbEntity
  8
sheet2
  6
ByLayer
 62
  256
370
   -1
100
AcDbLine
 10
184.2716369628906
 20
273.8481750488281
 11
184.4423561096191
 21
274.4109649658203
  0
LINE
  5
1B9
100
AcDbEntity
  8
sheet2
  6
ByLayer
 62
  256
370
   -1
100
AcDbLine
 10
184.4423561096191
 20
274.4109649658203
 11
184.5
 21
274.9962310791016
  0
LINE
  5
1BA
100
AcDbEntity
  8
sheet2
  6
ByLayer
 62
  256
370
   -1
100
AcDbLine
 10
184.5
 20
274.9962310791016
 11
184.4423561096191
 21
275.5814971923828
  0
LINE
  5
1BB
100
AcDbEntity
  8
sheet2
  6
ByLayer
 62
  256
370
   -1
100
AcDbLine
 10
184.4423561096191
 20
275.5814971923828
 11
184.2716369628906
 21
276.144287109375
  0
LINE
  5
1BC
100
AcDbEntity
  8
sheet2
  6
ByLayer
 62
  256
370
   -1
100
AcDbLine
 10
184.2716369628906
 20
276.144287109375
 11
183.9944076538086
 21
276.6629486083984
  0
LINE
  5
1BD
100
AcDbEntity
  8
sheet2
  6
ByLayer
 62
  256
370
   -1
100
AcDbLine
 10
183.9944076538086
 20
276.6629486083984
 11
183.6213226318359
 21
277.1175537109375
  0
LINE
  5
1BE
100
AcDbEntity
  8
sheet2
  6
ByLayer
 62
  256
370
   -1
100
AcDbLine
 10
183.6213226318359
 20
277.1175537109375
 11
183.1667098999023
 21
277.4906463623047
  0
LINE
  5
1BF
100
AcDbEntity
  8
sheet2
  6
ByLayer
 62
  256
370
   -1
100
AcDbLine
 10
183.1667098999023
 20
277.4906463623047
 11
182.6480484008789
 21
277.7678680419922
  0
LINE
  5
1C0
100
AcDbEntity
  8
sheet2
  6
ByLayer
 62
  256
370
   -1
100
AcDbLine
 10
182.6480484008789
 20
277.7678680419922
 11
182.0852737426758
 21
277.9385833740234
  0
LINE
  5
1C1
100
AcDbEntity
  8
sheet2
  6
ByLayer
 62
  256
370
   -1
100
AcDbLine
 10
181.5
 20
277.9962310791016
 11
182.0852737426758
 21
277.9385833740234
  0
LINE
  5
1C2
100
AcDbEntity
  8
sheet2
  6
ByLayer
 62
  256
370
   -1
100
AcDbLine
 10
163
 20
277.9962310791016
 11
162.4147338867188
 21
277.9385833740234
  0
LINE
  5
1C3
100
AcDbEntity
  8
sheet2
  6
ByLayer
 62
  256
370
   -1
100
AcDbLine
 10
162.4147338867188
 20
277.9385833740234
 11
161.8519515991211
 21
277.7678680419922
  0
LINE
  5
1C4
100
AcDbEntity
  8
sheet2
  6
ByLayer
 62
  256
370
   -1
100
AcDbLine
 10
161.8519515991211
 20
277.7678680419922
 11
161.3332901000977
 21
277.4906463623047
  0
LINE
  5
1C5
100
AcDbEntity
  8
sheet2
  6
ByLayer
 62
  256
370
   -1
100
AcDbLine
 10
161.3332901000977
 20
277.4906463623047
 11
160.8786773681641
 21
277.1175537109375
  0
LINE
  5
1C6
100
AcDbEntity
  8
sheet2
  6
ByLayer
 62
  256
370
   -1
100
AcDbLine
 10
160.8786773681641
 20
277.1175537109375
 11
160.5055923461914
 21
276.6629486083984
  0
LINE
  5
1C7
100
AcDbEntity
  8
sheet2
  6
ByLayer
 62
  256
370
   -1
100
AcDbLine
 10
160.5055923461914
 20
276.6629486083984
 11
160.2283630371094
 21
276.144287109375
  0
LINE
  5
1C8
100
AcDbEntity
  8
sheet2
  6
ByLayer
 62
  256
370
   -1
100
AcDbLine
 10
160.2283630371094
 20
276.144287109375
 11
160.0576477050781
 21
275.5814971923828
  0
LINE
  5
1C9
100
AcDbEntity
  8
sheet2
  6
ByLayer
 62
  256
370
   -1
100
AcDbLine
 10
160.0576477050781
 20
275.5814971923828
 11
160
 21
274.9962310791016
  0
LINE
  5
1CA
100
AcDbEntity
  8
sheet2
  6
ByLayer
 62
  256
370
   -1
100
AcDbLine
 10
160
 20
274.9962310791016
 11
160.0576477050781
 21
274.4109649658203
  0
LINE
  5
1CB
100
AcDbEntity
  8
sheet2
  6
ByLayer
 62
  256
370
   -1
100
AcDbLine
 10
160.0576477050781
 20
274.4109649658203
 11
160.2283630371094
 21
273.8481750488281
  0
LINE
  5
1CC
100
AcDbEntity
  8
sheet2
  6
ByLayer
 62
  256
370
   -1
100
AcDbLine
 10
160.2283630371094
 20
273.8481750488281
 11
160.5055923461914
 21
273.3295135498047
  0
LINE
  5
1CD
100
AcDbEntity
  8
sheet2
  6
ByLayer
 62
  256
370
   -1
100
AcDbLine
 10
160.5055923461914
 20
273.3295135498047
 11
160.8786773681641
 21
272.8749084472656
  0
LINE
  5
1CE
100
AcDbEntity
  8
sheet2
  6
ByLayer
 62
  256
370
   -1
100
AcDbLine
 10
160.8786773681641
 20
272.8749084472656
 11
161.3332901000977
 21
272.5018157958984
  0
LINE
  5
1CF
100
AcDbEntity
  8
sheet2
  6
ByLayer
 62
  256
370
   -1
100
AcDbLine
 10
161.3332901000977
 20
272.5018157958984
 11
161.8519515991211
 21
272.2245941162109
  0
LINE
  5
1D0
100
AcDbEntity
  8
sheet2
  6
ByLayer
 62
  256
370
   -1
100
AcDbLine
 10
161.8519515991211
 20
272.2245941162109
 11
162.4147338867188
 21
272.0538787841797
  0
LINE
  5
1D1
100
AcDbEntity
  8
sheet2
  6
ByLayer
 62
  256
370
   -1
100
AcDbLine
 10
162.4147338867188
 20
272.0538787841797
 11
163
 21
271.9962310791016
  0
LINE
  5
1D2
100
AcDbEntity
  8
sheet2
  6
ByLayer
 62
  256
370
   -1
100
AcDbLine
 10
163
 20
271.9962310791016
 11
163.5852661132812
 21
272.0538787841797
  0
LINE
  5
1D3
100
AcDbEntity
  8
sheet2
  6
ByLayer
 62
  256
370
   -1
100
AcDbLine
 10
163.5852661132812
 20
272.0538787841797
 11
164.1480484008789
 21
272.2245941162109
  0
LINE
  5
1D4
100
AcDbEntity
  8
sheet2
  6
ByLayer
 62
  256
370
   -1
100
AcDbLine
 10
164.1480484008789
 20
272.2245941162109
 11
164.6667098999023
 21
272.5018157958984
  0
LINE
  5
1D5
100
AcDbEntity
  8
sheet2
  6
ByLayer
 62
  256
370
   -1
100
AcDbLine
 10
164.6667098999023
 20
272.5018157958984
 11
165.1213226318359
 21
272.8749084472656
  0
LINE
  5
1D6
100
AcDbEntity
  8
sheet2
  6
ByLayer
 62
  256
370
   -1
100
AcDbLine
 10
165.1213226318359
 20
272.8749084472656
 11
165.4944076538086
 21
273.3295135498047
  0
LINE
  5
1D7
100
AcDbEntity
  8
sheet2
  6
ByLayer
 62
  256
370
   -1
100
AcDbLine
 10
165.4944076538086
 20
273.3295135498047
 11
165.7716369628906
 21
273.8481750488281
  0
LINE
  5
1D8
100
AcDbEntity
  8
sheet2
  6
ByLayer
 62
  256
370
   -1
100
AcDbLine
 10
165.7716369628906
 20
273.8481750488281
 11
165.9423522949219
 21
274.4109649658203
  0
LINE
  5
1D9
100
AcDbEntity
  8
sheet2
  6
ByLayer
 62
  256
370
   -1
100
AcDbLine
 10
165.9423522949219
 20
274.4109649658203
 11
166
 21
274.9962310791016
  0
LINE
  5
1DA
100
AcDbEntity
  8
sheet2
  6
ByLayer
 62
  256
370
   -1
100
AcDbLine
 10
166
 20
274.9962310791016
 11
165.9423522949219
 21
275.5814971923828
  0
LINE
  5
1DB
100
AcDbEntity
  8
sheet2
  6
ByLayer
 62
  256
370
   -1
100
AcDbLine
 10
165.9423522949219
 20
275.5814971923828
 11
165.7716369628906
 21
276.144287109375
  0
LINE
  5
1DC
100
AcDbEntity
  8
sheet2
  6
ByLayer
 62
  256
370
   -1
100
AcDbLine
 10
165.7716369628906
 20
276.144287109375
 11
165.4944076538086
 21
276.6629486083984
  0
LINE
  5
1DD
100
AcDbEntity
  8
sheet2
  6
ByLayer
 62
  256
370
   -1
100
AcDbLine
 10
165.4944076538086
 20
276.6629486083984
 11
165.1213226318359
 21
277.1175537109375
  0
LINE
  5
1DE
100
AcDbEntity
  8
sheet2
  6
ByLayer
 62
  256
370
   -1
100
AcDbLine
 10
165.1213226318359
 20
277.1175537109375
 11
164.6667098999023
 21
277.4906463623047
  0
LINE
  5
1DF
100
AcDbEntity
  8
sheet2
  6
ByLayer
 62
  256
370
   -1
100
AcDbLine
 10
164.6667098999023
 20
277.4906463623047
 11
164.1480484008789
 21
277.7678680419922
  0
LINE
  5
1E0
100
AcDbEntity
  8
sheet2
  6
ByLayer
 62
  256
370
   -1
100
AcDbLine
 10
164.1480484008789
 20
277.7678680419922
 11
163.5852661132812
 21
277.9385833740234
  0
LINE
  5
1E1
100
AcDbEntity
  8
sheet2
  6
ByLayer
 62
  256
370
   -1
100
AcDbLine
 10
163
 20
277.9962310791016
 11
163.5852661132812
 21
277.9385833740234
  0
LINE
  5
1E2
100
AcDbEntity
  8
sheet2
  6
ByLayer
 62
  256
370
   -1
100
AcDbLine
 10
207
 20
69.99623107910156
 11
207
 21
290
  0
LINE
  5
1E3
100
AcDbEntity
  8
sheet2
  6
ByLayer
 62
  256
370
   -1
100
AcDbLine
 10
146.5
 20
182.9962310791016
 11
145.9147338867188
 21
182.9385833740234
  0
LINE
  5
1E4
100
AcDbEntity
  8
sheet2
  6
ByLayer
 62
  256
370
   -1
100
AcDbLine
 10
145.9147338867188
 20
182.9385833740234
 11
145.3519515991211
 21
182.7678680419922
  0
LINE
  5
1E5
100
AcDbEntity
  8
sheet2
  6
ByLayer
 62
  256
370
   -1
100
AcDbLine
 10
145.3519515991211
 20
182.7678680419922
 11
144.8332901000977
 21
182.4906387329102
  0
LINE
  5
1E6
100
AcDbEntity
  8
sheet2
  6
ByLayer
 62
  256
370
   -1
100
AcDbLine
 10
144.8332901000977
 20
182.4906387329102
 11
144.3786773681641
 21
182.1175537109375
  0
LINE
  5
1E7
100
AcDbEntity
  8
sheet2
  6
ByLayer
 62
  256
370
   -1
100
AcDbLine
 10
144.3786773681641
 20
182.1175537109375
 11
144.0055923461914
 21
181.6629409790039
  0
LINE
  5
1E8
100
AcDbEntity
  8
sheet2
  6
ByLayer
 62
  256
370
   -1
100
AcDbLine
 10
144.0055923461914
 20
181.6629409790039
 11
143.7283630371094
 21
181.1442794799805
  0
LINE
  5
1E9
100
AcDbEntity
  8
sheet2
  6
ByLayer
 62
  256
370
   -1
100
AcDbLine
 10
143.7283630371094
 20
181.1442794799805
 11
143.5576477050781
 21
180.5815048217773
  0
LINE
  5
1EA
100
AcDbEntity
  8
sheet2
  6
ByLayer
 62
  256
370
   -1
100
AcDbLine
 10
143.5576477050781
 20
180.5815048217773
 11
143.5
 21
179.9962310791016
  0
LINE
  5
1EB
100
AcDbEntity
  8
sheet2
  6
ByLayer
 62
  256
370
   -1
100
AcDbLine
 10
143.5
 20
179.9962310791016
 11
143.5576477050781
 21
179.4109573364258
  0
LINE
  5
1EC
100
AcDbEntity
  8
sheet2
  6
ByLayer
 62
  256
370
   -1
100
AcDbLine
 10
143.5576477050781
 20
179.4109573364258
 11
143.7283630371094
 21
178.8481826782227
  0
LINE
  5
1ED
100
AcDbEntity
  8
sheet2
  6
ByLayer
 62
  256
370
   -1
100
AcDbLine
 10
143.7283630371094
 20
178.8481826782227
 11
144.0055923461914
 21
178.3295211791992
  0
LINE
  5
1EE
100
AcDbEntity
  8
sheet2
  6
ByLayer
 62
  256
370
   -1
100
AcDbLine
 10
144.0055923461914
 20
178.3295211791992
 11
144.3786773681641
 21
177.8749084472656
  0
LINE
  5
1EF
100
AcDbEntity
  8
sheet2
  6
ByLayer
 62
  256
370
   -1
100
AcDbLine
 10
144.3786773681641
 20
177.8749084472656
 11
144.8332901000977
 21
177.501823425293
  0
LINE
  5
1F0
100
AcDbEntity
  8
sheet2
  6
ByLayer
 62
  256
370
   -1
100
AcDbLine
 10
144.8332901000977
 20
177.501823425293
 11
145.3519515991211
 21
177.2245941162109
  0
LINE
  5
1F1
100
AcDbEntity
  8
sheet2
  6
ByLayer
 62
  256
370
   -1
100
AcDbLine
 10
145.3519515991211
 20
177.2245941162109
 11
145.9147338867188
 21
177.0538787841797
  0
LINE
  5
1F2
100
AcDbEntity
  8
sheet2
  6
ByLayer
 62
  256
370
   -1
100
AcDbLine
 10
145.9147338867188
 20
177.0538787841797
 11
146.5
 21
176.9962310791016
  0
LINE
  5
1F3
100
AcDbEntity
  8
sheet2
  6
ByLayer
 62
  256
370
   -1
100
AcDbLine
 10
146.5
 20
176.9962310791016
 11
147.0852661132812
 21
177.0538787841797
  0
LINE
  5
1F4
100
AcDbEntity
  8
sheet2
  6
ByLayer
 62
  256
370
   -1
100
AcDbLine
 10
147.0852661132812
 20
177.0538787841797
 11
147.6480484008789
 21
177.2245941162109
  0
LINE
  5
1F5
100
AcDbEntity
  8
sheet2
  6
ByLayer
 62
  256
370
   -1
100
AcDbLine
 10
147.6480484008789
 20
177.2245941162109
 11
148.1667098999023
 21
177.501823425293
  0
LINE
  5
1F6
100
AcDbEntity
  8
sheet2
  6
ByLayer
 62
  256
370
   -1
100
AcDbLine
 10
148.1667098999023
 20
177.501823425293
 11
148.6213226318359
 21
177.8749084472656
  0
LINE
  5
1F7
100
AcDbEntity
  8
sheet2
  6
ByLayer
 62
  256
370
   -1
100
AcDbLine
 10
148.6213226318359
 20
177.8749084472656
 11
148.9944076538086
 21
178.3295211791992
  0
LINE
  5
1F8
100
AcDbEntity
  8
sheet2
  6
ByLayer
 62
  256
370
   -1
100
AcDbLine
 10
148.9944076538086
 20
178.3295211791992
 11
149.2716369628906
 21
178.8481826782227
  0
LINE
  5
1F9
100
AcDbEntity
  8
sheet2
  6
ByLayer
 62
  256
370
   -1
100
AcDbLine
 10
149.2716369628906
 20
178.8481826782227
 11
149.4423522949219
 21
179.4109573364258
  0
LINE
  5
1FA
100
AcDbEntity
  8
sheet2
  6
ByLayer
 62
  256
370
   -1
100
AcDbLine
 10
149.4423522949219
 20
179.4109573364258
 11
149.5
 21
179.9962310791016
  0
LINE
  5
1FB
100
AcDbEntity
  8
sheet2
  6
ByLayer
 62
  256
370
   -1
100
AcDbLine
 10
149.5
 20
179.9962310791016
 11
149.4423522949219
 21
180.5815048217773
  0
LINE
  5
1FC
100
AcDbEntity
  8
sheet2
  6
ByLayer
 62
  256
370
   -1
100
AcDbLine
 10
149.4423522949219
 20
180.5815048217773
 11
149.2716369628906
 21
181.1442794799805
  0
LINE
  5
1FD
100
AcDbEntity
  8
sheet2
  6
ByLayer
 62
  256
370
   -1
100
AcDbLine
 10
149.2716369628906
 20
181.1442794799805
 11
148.9944076538086
 21
181.6629409790039
  0
LINE
  5
1FE
100
AcDbEntity
  8
sheet2
  6
ByLayer
 62
  256
370
   -1
100
AcDbLine
 10
148.9944076538086
 20
181.6629409790039
 11
148.6213226318359
 21
182.1175537109375
  0
LINE
  5
1FF
100
AcDbEntity
  8
sheet2
  6
ByLayer
 62
  256
370
   -1
100
AcDbLine
 10
148.6213226318359
 20
182.1175537109375
 11
148.1667098999023
 21
182.4906387329102
  0
LINE
  5
200
100
AcDbEntity
  8
sheet2
  6
ByLayer
 62
  256
370
   -1
100
AcDbLine
 10
148.1667098999023
 20
182.4906387329102
 11
147.6480484008789
 21
182.7678680419922
  0
LINE
  5
201
100
AcDbEntity
  8
sheet2
  6
ByLayer
 62
  256
370
   -1
100
AcDbLine
 10
147.6480484008789
 20
182.7678680419922
 11
147.0852661132812
 21
182.9385833740234
  0
LINE
  5
202
100
AcDbEntity
  8
sheet2
  6
ByLayer
 62
  256
370
   -1
100
AcDbLine
 10
146.5
 20
182.9962310791016
 11
147.0852661132812
 21
182.9385833740234
  0
LINE
  5
203
100
AcDbEntity
  8
sheet2
  6
ByLayer
 62
  256
370
   -1
100
AcDbLine
 10
146.5
 20
232.9962310791016
 11
145.9147338867188
 21
232.9385833740234
  0
LINE
  5
204
100
AcDbEntity
  8
sheet2
  6
ByLayer
 62
  256
370
   -1
100
AcDbLine
 10
145.9147338867188
 20
232.9385833740234
 11
145.3519515991211
 21
232.7678680419922
  0
LINE
  5
205
100
AcDbEntity
  8
sheet2
  6
ByLayer
 62
  256
370
   -1
100
AcDbLine
 10
145.3519515991211
 20
232.7678680419922
 11
144.8332901000977
 21
232.4906463623047
  0
LINE
  5
206
100
AcDbEntity
  8
sheet2
  6
ByLayer
 62
  256
370
   -1
100
AcDbLine
 10
144.8332901000977
 20
232.4906463623047
 11
144.3786773681641
 21
232.1175537109375
  0
LINE
  5
207
100
AcDbEntity
  8
sheet2
  6
ByLayer
 62
  256
370
   -1
100
AcDbLine
 10
144.3786773681641
 20
232.1175537109375
 11
144.0055923461914
 21
231.6629486083984
  0
LINE
  5
208
100
AcDbEntity
  8
sheet2
  6
ByLayer
 62
  256
370
   -1
100
AcDbLine
 10
144.0055923461914
 20
231.6629486083984
 11
143.7283630371094
 21
231.1442718505859
  0
LINE
  5
209
100
AcDbEntity
  8
sheet2
  6
ByLayer
 62
  256
370
   -1
100
AcDbLine
 10
143.7283630371094
 20
231.1442718505859
 11
143.5576477050781
 21
230.5814971923828
  0
LINE
  5
20A
100
AcDbEntity
  8
sheet2
  6
ByLayer
 62
  256
370
   -1
100
AcDbLine
 10
143.5576477050781
 20
230.5814971923828
 11
143.5
 21
229.9962310791016
  0
LINE
  5
20B
100
AcDbEntity
  8
sheet2
  6
ByLayer
 62
  256
370
   -1
100
AcDbLine
 10
143.5
 20
229.9962310791016
 11
143.5576477050781
 21
229.4109649658203
  0
LINE
  5
20C
100
AcDbEntity
  8
sheet2
  6
ByLayer
 62
  256
370
   -1
100
AcDbLine
 10
143.5576477050781
 20
229.4109649658203
 11
143.7283630371094
 21
228.8481903076172
  0
LINE
  5
20D
100
AcDbEntity
  8
sheet2
  6
ByLayer
 62
  256
370
   -1
100
AcDbLine
 10
143.7283630371094
 20
228.8481903076172
 11
144.0055923461914
 21
228.3295135498047
  0
LINE
  5
20E
100
AcDbEntity
  8
sheet2
  6
ByLayer
 62
  256
370
   -1
100
AcDbLine
 10
144.0055923461914
 20
228.3295135498047
 11
144.3786773681641
 21
227.8749084472656
  0
LINE
  5
20F
100
AcDbEntity
  8
sheet2
  6
ByLayer
 62
  256
370
   -1
100
AcDbLine
 10
144.3786773681641
 20
227.8749084472656
 11
144.8332901000977
 21
227.5018157958984
  0
LINE
  5
210
100
AcDbEntity
  8
sheet2
  6
ByLayer
 62
  256
370
   -1
100
AcDbLine
 10
144.8332901000977
 20
227.5018157958984
 11
145.3519515991211
 21
227.2245941162109
  0
LINE
  5
211
100
AcDbEntity
  8
sheet2
  6
ByLayer
 62
  256
370
   -1
100
AcDbLine
 10
145.3519515991211
 20
227.2245941162109
 11
145.9147338867188
 21
227.0538787841797
  0
LINE
  5
212
100
AcDbEntity
  8
sheet2
  6
ByLayer
 62
  256
370
   -1
100
AcDbLine
 10
145.9147338867188
 20
227.0538787841797
 11
146.5
 21
226.9962310791016
  0
LINE
  5
213
100
AcDbEntity
  8
sheet2
  6
ByLayer
 62
  256
370
   -1
100
AcDbLine
 10
146.5
 20
226.9962310791016
 11
147.0852661132812
 21
227.0538787841797
  0
LINE
  5
214
100
AcDbEntity
  8
sheet2
  6
ByLayer
 62
  256
370
   -1
100
AcDbLine
 10
147.0852661132812
 20
227.0538787841797
 11
147.6480484008789
 21
227.2245941162109
  0
LINE
  5
215
100
AcDbEntity
  8
sheet2
  6
ByLayer
 62
  256
370
   -1
100
AcDbLine
 10
147.6480484008789
 20
227.2245941162109
 11
148.1667098999023
 21
227.5018157958984
  0
LINE
  5
216
100
AcDbEntity
  8
sheet2
  6
ByLayer
 62
  256
370
   -1
100
AcDbLine
 10
148.1667098999023
 20
227.5018157958984
 11
148.6213226318359
 21
227.8749084472656
  0
LINE
  5
217
100
AcDbEntity
  8
sheet2
  6
ByLayer
 62
  256
370
   -1
100
AcDbLine
 10
148.6213226318359
 20
227.8749084472656
 11
148.9944076538086
 21
228.3295135498047
  0
LINE
  5
218
100
AcDbEntity
  8
sheet2
  6
ByLayer
 62
  256
370
   -1
100
AcDbLine
 10
148.9944076538086
 20
228.3295135498047
 11
149.2716369628906
 21
228.8481903076172
  0
LINE
  5
219
100
AcDbEntity
  8
sheet2
  6
ByLayer
 62
  256
370
   -1
100
AcDbLine
 10
149.2716369628906
 20
228.8481903076172
 11
149.4423522949219
 21
229.4109649658203
  0
LINE
  5
21A
100
AcDbEntity
  8
sheet2
  6
ByLayer
 62
  256
370
   -1
100
AcDbLine
 10
149.4423522949219
 20
229.4109649658203
 11
149.5
 21
229.9962310791016
  0
LINE
  5
21B
100
AcDbEntity
  8
sheet2
  6
ByLayer
 62
  256
370
   -1
100
AcDbLine
 10
149.5
 20
229.9962310791016
 11
149.4423522949219
 21
230.5814971923828
  0
LINE
  5
21C
100
AcDbEntity
  8
sheet2
  6
ByLayer
 62
  256
370
   -1
100
AcDbLine
 10
149.4423522949219
 20
230.5814971923828
 11
149.2716369628906
 21
231.1442718505859
  0
LINE
  5
21D
100
AcDbEntity
  8
sheet2
  6
ByLayer
 62
  256
370
   -1
100
AcDbLine
 10
149.2716369628906
 20
231.1442718505859
 11
148.9944076538086
 21
231.6629486083984
  0
LINE
  5
21E
100
AcDbEntity
  8
sheet2
  6
ByLayer
 62
  256
370
   -1
100
AcDbLine
 10
148.9944076538086
 20
231.6629486083984
 11
148.6213226318359
 21
232.1175537109375
  0
LINE
  5
21F
100
AcDbEntity
  8
sheet2
  6
ByLayer
 62
  256
370
   -1
100
AcDbLine
 10
148.6213226318359
 20
232.1175537109375
 11
148.1667098999023
 21
232.4906463623047
  0
LINE
  5
220
100
AcDbEntity
  8
sheet2
  6
ByLayer
 62
  256
370
   -1
100
AcDbLine
 10
148.1667098999023
 20
232.4906463623047
 11
147.6480484008789
 21
232.7678680419922
  0
LINE
  5
221
100
AcDbEntity
  8
sheet2
  6
ByLayer
 62
  256
370
   -1
100
AcDbLine
 10
147.6480484008789
 20
232.7678680419922
 11
147.0852661132812
 21
232.9385833740234
  0
LINE
  5
222
100
AcDbEntity
  8
sheet2
  6
ByLayer
 62
  256
370
   -1
100
AcDbLine
 10
146.5
 20
232.9962310791016
 11
147.0852661132812
 21
232.9385833740234
  0
LINE
  5
223
100
AcDbEntity
  8
sheet2
  6
ByLayer
 62
  256
370
   -1
100
AcDbLine
 10
146.5
 20
132.9962310791016
 11
145.9147338867188
 21
132.9385833740234
  0
LINE
  5
224
100
AcDbEntity
  8
sheet2
  6
ByLayer
 62
  256
370
   -1
100
AcDbLine
 10
145.9147338867188
 20
132.9385833740234
 11
145.3519515991211
 21
132.7678680419922
  0
LINE
  5
225
100
AcDbEntity
  8
sheet2
  6
ByLayer
 62
  256
370
   -1
100
AcDbLine
 10
145.3519515991211
 20
132.7678680419922
 11
144.8332901000977
 21
132.4906463623047
  0
LINE
  5
226
100
AcDbEntity
  8
sheet2
  6
ByLayer
 62
  256
370
   -1
100
AcDbLine
 10
144.8332901000977
 20
132.4906463623047
 11
144.3786773681641
 21
132.1175537109375
  0
LINE
  5
227
100
AcDbEntity
  8
sheet2
  6
ByLayer
 62
  256
370
   -1
100
AcDbLine
 10
144.3786773681641
 20
132.1175537109375
 11
144.0055923461914
 21
131.6629486083984
  0
LINE
  5
228
100
AcDbEntity
  8
sheet2
  6
ByLayer
 62
  256
370
   -1
100
AcDbLine
 10
144.0055923461914
 20
131.6629486083984
 11
143.7283630371094
 21
131.1442718505859
  0
LINE
  5
229
100
AcDbEntity
  8
sheet2
  6
ByLayer
 62
  256
370
   -1
100
AcDbLine
 10
143.7283630371094
 20
131.1442718505859
 11
143.5576477050781
 21
130.5814971923828
  0
LINE
  5
22A
100
AcDbEntity
  8
sheet2
  6
ByLayer
 62
  256
370
   -1
100
AcDbLine
 10
143.5576477050781
 20
130.5814971923828
 11
143.5
 21
129.9962310791016
  0
LINE
  5
22B
100
AcDbEntity
  8
sheet2
  6
ByLayer
 62
  256
370
   -1
100
AcDbLine
 10
143.5
 20
129.9962310791016
 11
143.5576477050781
 21
129.4109649658203
  0
LINE
  5
22C
100
AcDbEntity
  8
sheet2
  6
ByLayer
 62
  256
370
   -1
100
AcDbLine
 10
143.5576477050781
 20
129.4109649658203
 11
143.7283630371094
 21
128.8481903076172
  0
LINE
  5
22D
100
AcDbEntity
  8
sheet2
  6
ByLayer
 62
  256
370
   -1
100
AcDbLine
 10
143.7283630371094
 20
128.8481903076172
 11
144.0055923461914
 21
128.3295135498047
  0
LINE
  5
22E
100
AcDbEntity
  8
sheet2
  6
ByLayer
 62
  256
370
   -1
100
AcDbLine
 10
144.0055923461914
 20
128.3295135498047
 11
144.3786773681641
 21
127.8749084472656
  0
LINE
  5
22F
100
AcDbEntity
  8
sheet2
  6
ByLayer
 62
  256
370
   -1
100
AcDbLine
 10
144.3786773681641
 20
127.8749084472656
 11
144.8332901000977
 21
127.5018157958984
  0
LINE
  5
230
100
AcDbEntity
  8
sheet2
  6
ByLayer
 62
  256
370
   -1
100
AcDbLine
 10
144.8332901000977
 20
127.5018157958984
 11
145.3519515991211
 21
127.2245941162109
  0
LINE
  5
231
100
AcDbEntity
  8
sheet2
  6
ByLayer
 62
  256
370
   -1
100
AcDbLine
 10
145.3519515991211
 20
127.2245941162109
 11
145.9147338867188
 21
127.0538787841797
  0
LINE
  5
232
100
AcDbEntity
  8
sheet2
  6
ByLayer
 62
  256
370
   -1
100
AcDbLine
 10
145.9147338867188
 20
127.0538787841797
 11
146.5
 21
126.9962310791016
  0
LINE
  5
233
100
AcDbEntity
  8
sheet2
  6
ByLayer
 62
  256
370
   -1
100
AcDbLine
 10
146.5
 20
126.9962310791016
 11
147.0852661132812
 21
127.0538787841797
  0
LINE
  5
234
100
AcDbEntity
  8
sheet2
  6
ByLayer
 62
  256
370
   -1
100
AcDbLine
 10
147.0852661132812
 20
127.0538787841797
 11
147.6480484008789
 21
127.2245941162109
  0
LINE
  5
235
100
AcDbEntity
  8
sheet2
  6
ByLayer
 62
  256
370
   -1
100
AcDbLine
 10
147.6480484008789
 20
127.2245941162109
 11
148.1667098999023
 21
127.5018157958984
  0
LINE
  5
236
100
AcDbEntity
  8
sheet2
  6
ByLayer
 62
  256
370
   -1
100
AcDbLine
 10
148.1667098999023
 20
127.5018157958984
 11
148.6213226318359
 21
127.8749084472656
  0
LINE
  5
237
100
AcDbEntity
  8
sheet2
  6
ByLayer
 62
  256
370
   -1
100
AcDbLine
 10
148.6213226318359
 20
127.8749084472656
 11
148.9944076538086
 21
128.3295135498047
  0
LINE
  5
238
100
AcDbEntity
  8
sheet2
  6
ByLayer
 62
  256
370
   -1
100
AcDbLine
 10
148.9944076538086
 20
128.3295135498047
 11
149.2716369628906
 21
128.8481903076172
  0
LINE
  5
239
100
AcDbEntity
  8
sheet2
  6
ByLayer
 62
  256
370
   -1
100
AcDbLine
 10
149.2716369628906
 20
128.8481903076172
 11
149.4423522949219
 21
129.4109649658203
  0
LINE
  5
23A
100
AcDbEntity
  8
sheet2
  6
ByLayer
 62
  256
370
   -1
100
AcDbLine
 10
149.4423522949219
 20
129.4109649658203
 11
149.5
 21
129.9962310791016
  0
LINE
  5
23B
100
AcDbEntity
  8
sheet2
  6
ByLayer
 62
  256
370
   -1
100
AcDbLine
 10
149.5
 20
129.9962310791016
 11
149.4423522949219
 21
130.5814971923828
  0
LINE
  5
23C
100
AcDbEntity
  8
sheet2
  6
ByLayer
 62
  256
370
   -1
100
AcDbLine
 10
149.4423522949219
 20
130.5814971923828
 11
149.2716369628906
 21
131.1442718505859
  0
LINE
  5
23D
100
AcDbEntity
  8
sheet2
  6
ByLayer
 62
  256
370
   -1
100
AcDbLine
 10
149.2716369628906
 20
131.1442718505859
 11
148.9944076538086
 21
131.6629486083984
  0
LINE
  5
23E
100
AcDbEntity
  8
sheet2
  6
ByLayer
 62
  256
370
   -1
100
AcDbLine
 10
148.9944076538086
 20
131.6629486083984
 11
148.6213226318359
 21
132.1175537109375
  0
LINE
  5
23F
100
AcDbEntity
  8
sheet2
  6
ByLayer
 62
  256
370
   -1
100
AcDbLine
 10
148.6213226318359
 20
132.1175537109375
 11
148.1667098999023
 21
132.4906463623047
  0
LINE
  5
240
100
AcDbEntity
  8
sheet2
  6
ByLayer
 62
  256
370
   -1
100
AcDbLine
 10
148.1667098999023
 20
132.4906463623047
 11
147.6480484008789
 21
132.7678680419922
  0
LINE
  5
241
100
AcDbEntity
  8
sheet2
  6
ByLayer
 62
  256
370
   -1
100
AcDbLine
 10
147.6480484008789
 20
132.7678680419922
 11
147.0852661132812
 21
132.9385833740234
  0
LINE
  5
242
100
AcDbEntity
  8
sheet2
  6
ByLayer
 62
  256
370
   -1
100
AcDbLine
 10
146.5
 20
132.9962310791016
 11
147.0852661132812
 21
132.9385833740234
  0
LINE
  5
243
100
AcDbEntity
  8
sheet2
  6
ByLayer
 62
  256
370
   -1
100
AcDbLine
 10
129
 20
285
 11
129
 21
74.99623107910156
  0
LINE
  5
244
100
AcDbEntity
  8
sheet2
  6
ByLayer
 62
  256
370
   -1
100
AcDbLine
 10
53.22215270996088
 20
70.83888244628906
 11
52.46446228027338
 21
71.46070098876953
  0
LINE
  5
245
100
AcDbEntity
  8
sheet2
  6
ByLayer
 62
  256
370
   -1
100
AcDbLine
 10
54.08658599853521
 20
70.3768310546875
 11
53.22215270996088
 21
70.83888244628906
  0
LINE
  5
246
100
AcDbEntity
  8
sheet2
  6
ByLayer
 62
  256
370
   -1
100
AcDbLine
 10
55.02455139160162
 20
70.09230804443359
 11
54.08658599853521
 21
70.3768310546875
  0
LINE
  5
247
100
AcDbEntity
  8
sheet2
  6
ByLayer
 62
  256
370
   -1
100
AcDbLine
 10
56
 20
69.99623107910156
 11
55.02455139160162
 21
70.09230804443359
  0
LINE
  5
248
100
AcDbEntity
  8
sheet2
  6
ByLayer
 62
  256
370
   -1
100
AcDbLine
 10
51.09607696533197
 20
285.9754638671875
 11
51
 21
285
  0
LINE
  5
249
100
AcDbEntity
  8
sheet2
  6
ByLayer
 62
  256
370
   -1
100
AcDbLine
 10
52.46446228027338
 20
71.46070098876953
 11
51.8426513671875
 21
72.2183837890625
  0
LINE
  5
24A
100
AcDbEntity
  8
sheet2
  6
ByLayer
 62
  256
370
   -1
100
AcDbLine
 10
51.8426513671875
 20
72.2183837890625
 11
51.38059997558588
 21
73.08281707763672
  0
LINE
  5
24B
100
AcDbEntity
  8
sheet2
  6
ByLayer
 62
  256
370
   -1
100
AcDbLine
 10
51.38059997558588
 20
73.08281707763672
 11
51.09607696533197
 21
74.02078247070312
  0
LINE
  5
24C
100
AcDbEntity
  8
sheet2
  6
ByLayer
 62
  256
370
   -1
100
AcDbLine
 10
51.09607696533197
 20
74.02078247070312
 11
51
 21
74.99623107910156
  0
LINE
  5
24D
100
AcDbEntity
  8
sheet2
  6
ByLayer
 62
  256
370
   -1
100
AcDbLine
 10
51.09607696533197
 20
285.9754638671875
 11
51.38059997558588
 21
286.9134216308594
  0
LINE
  5
24E
100
AcDbEntity
  8
sheet2
  6
ByLayer
 62
  256
370
   -1
100
AcDbLine
 10
51.38059997558588
 20
286.9134216308594
 11
51.8426513671875
 21
287.7778625488281
  0
LINE
  5
24F
100
AcDbEntity
  8
sheet2
  6
ByLayer
 62
  256
370
   -1
100
AcDbLine
 10
51.8426513671875
 20
287.7778625488281
 11
52.46446228027338
 21
288.5355377197266
  0
LINE
  5
250
100
AcDbEntity
  8
sheet2
  6
ByLayer
 62
  256
370
   -1
100
AcDbLine
 10
52.46446228027338
 20
288.5355377197266
 11
53.22215270996088
 21
289.1573486328125
  0
LINE
  5
251
100
AcDbEntity
  8
sheet2
  6
ByLayer
 62
  256
370
   -1
100
AcDbLine
 10
53.22215270996088
 20
289.1573486328125
 11
54.08658599853521
 21
289.6194152832031
  0
LINE
  5
252
100
AcDbEntity
  8
sheet2
  6
ByLayer
 62
  256
370
   -1
100
AcDbLine
 10
54.08658599853521
 20
289.6194152832031
 11
55.02455139160162
 21
289.9039306640625
  0
LINE
  5
253
100
AcDbEntity
  8
sheet2
  6
ByLayer
 62
  256
370
   -1
100
AcDbLine
 10
55.02455139160162
 20
289.9039306640625
 11
56
 21
290
  0
LINE
  5
254
100
AcDbEntity
  8
sheet2
  6
ByLayer
 62
  256
370
   -1
100
AcDbLine
 10
56
 20
69.99623107910156
 11
129
 21
69.99623107910156
  0
LINE
  5
255
100
AcDbEntity
  8
sheet2
  6
ByLayer
 62
  256
370
   -1
100
AcDbLine
 10
56
 20
290
 11
129
 21
290
  0
LINE
  5
256
100
AcDbEntity
  8
sheet2
  6
ByLayer
 62
  256
370
   -1
100
AcDbLine
 10
122
 20
87.99623107910156
 11
121.4147300720215
 21
87.93858337402344
  0
LINE
  5
257
100
AcDbEntity
  8
sheet2
  6
ByLayer
 62
  256
370
   -1
100
AcDbLine
 10
121.4147300720215
 20
87.93858337402344
 11
120.8519515991211
 21
87.76786804199219
  0
LINE
  5
258
100
AcDbEntity
  8
sheet2
  6
ByLayer
 62
  256
370
   -1
100
AcDbLine
 10
120.8519515991211
 20
87.76786804199219
 11
120.3332901000977
 21
87.49063873291016
  0
LINE
  5
259
100
AcDbEntity
  8
sheet2
  6
ByLayer
 62
  256
370
   -1
100
AcDbLine
 10
120.3332901000977
 20
87.49063873291016
 11
119.8786773681641
 21
87.1175537109375
  0
LINE
  5
25A
100
AcDbEntity
  8
sheet2
  6
ByLayer
 62
  256
370
   -1
100
AcDbLine
 10
119.8786773681641
 20
87.1175537109375
 11
119.5055923461914
 21
86.66294097900391
  0
LINE
  5
25B
100
AcDbEntity
  8
sheet2
  6
ByLayer
 62
  256
370
   -1
100
AcDbLine
 10
119.5055923461914
 20
86.66294097900391
 11
119.2283630371094
 21
86.14427947998047
  0
LINE
  5
25C
100
AcDbEntity
  8
sheet2
  6
ByLayer
 62
  256
370
   -1
100
AcDbLine
 10
119.2283630371094
 20
86.14427947998047
 11
119.0576438903809
 21
85.58150482177734
  0
LINE
  5
25D
100
AcDbEntity
  8
sheet2
  6
ByLayer
 62
  256
370
   -1
100
AcDbLine
 10
119.0576438903809
 20
85.58150482177734
 11
119
 21
84.99623107910156
  0
LINE
  5
25E
100
AcDbEntity
  8
sheet2
  6
ByLayer
 62
  256
370
   -1
100
AcDbLine
 10
119
 20
84.99623107910156
 11
119.0576438903809
 21
84.41095733642578
  0
LINE
  5
25F
100
AcDbEntity
  8
sheet2
  6
ByLayer
 62
  256
370
   -1
100
AcDbLine
 10
119.0576438903809
 20
84.41095733642578
 11
119.2283630371094
 21
83.84818267822266
  0
LINE
  5
260
100
AcDbEntity
  8
sheet2
  6
ByLayer
 62
  256
370
   -1
100
AcDbLine
 10
119.2283630371094
 20
83.84818267822266
 11
119.5055923461914
 21
83.32952117919922
  0
LINE
  5
261
100
AcDbEntity
  8
sheet2
  6
ByLayer
 62
  256
370
   -1
100
AcDbLine
 10
119.5055923461914
 20
83.32952117919922
 11
119.8786773681641
 21
82.87490844726562
  0
LINE
  5
262
100
AcDbEntity
  8
sheet2
  6
ByLayer
 62
  256
370
   -1
100
AcDbLine
 10
119.8786773681641
 20
82.87490844726562
 11
120.3332901000977
 21
82.50182342529297
  0
LINE
  5
263
100
AcDbEntity
  8
sheet2
  6
ByLayer
 62
  256
370
   -1
100
AcDbLine
 10
120.3332901000977
 20
82.50182342529297
 11
120.8519515991211
 21
82.22459411621094
  0
LINE
  5
264
100
AcDbEntity
  8
sheet2
  6
ByLayer
 62
  256
370
   -1
100
AcDbLine
 10
120.8519515991211
 20
82.22459411621094
 11
121.4147300720215
 21
82.05387878417969
  0
LINE
  5
265
100
AcDbEntity
  8
sheet2
  6
ByLayer
 62
  256
370
   -1
100
AcDbLine
 10
121.4147300720215
 20
82.05387878417969
 11
122
 21
81.99623107910156
  0
LINE
  5
266
100
AcDbEntity
  8
sheet2
  6
ByLayer
 62
  256
370
   -1
100
AcDbLine
 10
122
 20
81.99623107910156
 11
122.5852699279785
 21
82.05387878417969
  0
LINE
  5
267
100
AcDbEntity
  8
sheet2
  6
ByLayer
 62
  256
370
   -1
100
AcDbLine
 10
122.5852699279785
 20
82.05387878417969
 11
123.1480484008789
 21
82.22459411621094
  0
LINE
  5
268
100
AcDbEntity
  8
sheet2
  6
ByLayer
 62
  256
370
   -1
100
AcDbLine
 10
123.1480484008789
 20
82.22459411621094
 11
123.6667098999023
 21
82.50182342529297
  0
LINE
  5
269
100
AcDbEntity
  8
sheet2
  6
ByLayer
 62
  256
370
   -1
100
AcDbLine
 10
123.6667098999023
 20
82.50182342529297
 11
124.1213188171387
 21
82.87490844726562
  0
LINE
  5
26A
100
AcDbEntity
  8
sheet2
  6
ByLayer
 62
  256
370
   -1
100
AcDbLine
 10
124.1213188171387
 20
82.87490844726562
 11
124.4944076538086
 21
83.32952117919922
  0
LINE
  5
26B
100
AcDbEntity
  8
sheet2
  6
ByLayer
 62
  256
370
   -1
100
AcDbLine
 10
124.4944076538086
 20
83.32952117919922
 11
124.7716369628906
 21
83.84818267822266
  0
LINE
  5
26C
100
AcDbEntity
  8
sheet2
  6
ByLayer
 62
  256
370
   -1
100
AcDbLine
 10
124.7716369628906
 20
83.84818267822266
 11
124.9423561096191
 21
84.41095733642578
  0
LINE
  5
26D
100
AcDbEntity
  8
sheet2
  6
ByLayer
 62
  256
370
   -1
100
AcDbLine
 10
124.9423561096191
 20
84.41095733642578
 11
125
 21
84.99623107910156
  0
LINE
  5
26E
100
AcDbEntity
  8
sheet2
  6
ByLayer
 62
  256
370
   -1
100
AcDbLine
 10
125
 20
84.99623107910156
 11
124.9423561096191
 21
85.58150482177734
  0
LINE
  5
26F
100
AcDbEntity
  8
sheet2
  6
ByLayer
 62
  256
370
   -1
100
AcDbLine
 10
124.9423561096191
 20
85.58150482177734
 11
124.7716369628906
 21
86.14427947998047
  0
LINE
  5
270
100
AcDbEntity
  8
sheet2
  6
ByLayer
 62
  256
370
   -1
100
AcDbLine
 10
124.7716369628906
 20
86.14427947998047
 11
124.4944076538086
 21
86.66294097900391
  0
LINE
  5
271
100
AcDbEntity
  8
sheet2
  6
ByLayer
 62
  256
370
   -1
100
AcDbLine
 10
124.4944076538086
 20
86.66294097900391
 11
124.1213188171387
 21
87.1175537109375
  0
LINE
  5
272
100
AcDbEntity
  8
sheet2
  6
ByLayer
 62
  256
370
   -1
100
AcDbLine
 10
124.1213188171387
 20
87.1175537109375
 11
123.6667098999023
 21
87.49063873291016
  0
LINE
  5
273
100
AcDbEntity
  8
sheet2
  6
ByLayer
 62
  256
370
   -1
100
AcDbLine
 10
123.6667098999023
 20
87.49063873291016
 11
123.1480484008789
 21
87.76786804199219
  0
LINE
  5
274
100
AcDbEntity
  8
sheet2
  6
ByLayer
 62
  256
370
   -1
100
AcDbLine
 10
123.1480484008789
 20
87.76786804199219
 11
122.5852699279785
 21
87.93858337402344
  0
LINE
  5
275
100
AcDbEntity
  8
sheet2
  6
ByLayer
 62
  256
370
   -1
100
AcDbLine
 10
122
 20
87.99623107910156
 11
122.5852699279785
 21
87.93858337402344
  0
LINE
  5
276
100
AcDbEntity
  8
sheet2
  6
ByLayer
 62
  256
370
   -1
100
AcDbLine
 10
103.5
 20
87.99623107910156
 11
102.9147262573242
 21
87.93858337402344
  0
LINE
  5
277
100
AcDbEntity
  8
sheet2
  6
ByLayer
 62
  256
370
   -1
100
AcDbLine
 10
102.9147262573242
 20
87.93858337402344
 11
102.3519515991211
 21
87.76786804199219
  0
LINE
  5
278
100
AcDbEntity
  8
sheet2
  6
ByLayer
 62
  256
370
   -1
100
AcDbLine
 10
102.3519515991211
 20
87.76786804199219
 11
101.8332901000977
 21
87.49063873291016
  0
LINE
  5
279
100
AcDbEntity
  8
sheet2
  6
ByLayer
 62
  256
370
   -1
100
AcDbLine
 10
101.8332901000977
 20
87.49063873291016
 11
101.3786773681641
 21
87.1175537109375
  0
LINE
  5
27A
100
AcDbEntity
  8
sheet2
  6
ByLayer
 62
  256
370
   -1
100
AcDbLine
 10
101.3786773681641
 20
87.1175537109375
 11
101.0055923461914
 21
86.66294097900391
  0
LINE
  5
27B
100
AcDbEntity
  8
sheet2
  6
ByLayer
 62
  256
370
   -1
100
AcDbLine
 10
101.0055923461914
 20
86.66294097900391
 11
100.7283630371094
 21
86.14427947998047
  0
LINE
  5
27C
100
AcDbEntity
  8
sheet2
  6
ByLayer
 62
  256
370
   -1
100
AcDbLine
 10
100.7283630371094
 20
86.14427947998047
 11
100.5576477050781
 21
85.58150482177734
  0
LINE
  5
27D
100
AcDbEntity
  8
sheet2
  6
ByLayer
 62
  256
370
   -1
100
AcDbLine
 10
100.5576477050781
 20
85.58150482177734
 11
100.5
 21
84.99623107910156
  0
LINE
  5
27E
100
AcDbEntity
  8
sheet2
  6
ByLayer
 62
  256
370
   -1
100
AcDbLine
 10
100.5
 20
84.99623107910156
 11
100.5576477050781
 21
84.41095733642578
  0
LINE
  5
27F
100
AcDbEntity
  8
sheet2
  6
ByLayer
 62
  256
370
   -1
100
AcDbLine
 10
100.5576477050781
 20
84.41095733642578
 11
100.7283630371094
 21
83.84818267822266
  0
LINE
  5
280
100
AcDbEntity
  8
sheet2
  6
ByLayer
 62
  256
370
   -1
100
AcDbLine
 10
100.7283630371094
 20
83.84818267822266
 11
101.0055923461914
 21
83.32952117919922
  0
LINE
  5
281
100
AcDbEntity
  8
sheet2
  6
ByLayer
 62
  256
370
   -1
100
AcDbLine
 10
101.0055923461914
 20
83.32952117919922
 11
101.3786773681641
 21
82.87490844726562
  0
LINE
  5
282
100
AcDbEntity
  8
sheet2
  6
ByLayer
 62
  256
370
   -1
100
AcDbLine
 10
101.3786773681641
 20
82.87490844726562
 11
101.8332901000977
 21
82.50182342529297
  0
LINE
  5
283
100
AcDbEntity
  8
sheet2
  6
ByLayer
 62
  256
370
   -1
100
AcDbLine
 10
101.8332901000977
 20
82.50182342529297
 11
102.3519515991211
 21
82.22459411621094
  0
LINE
  5
284
100
AcDbEntity
  8
sheet2
  6
ByLayer
 62
  256
370
   -1
100
AcDbLine
 10
102.3519515991211
 20
82.22459411621094
 11
102.9147262573242
 21
82.05387878417969
  0
LINE
  5
285
100
AcDbEntity
  8
sheet2
  6
ByLayer
 62
  256
370
   -1
100
AcDbLine
 10
102.9147262573242
 20
82.05387878417969
 11
103.5
 21
81.99623107910156
  0
LINE
  5
286
100
AcDbEntity
  8
sheet2
  6
ByLayer
 62
  256
370
   -1
100
AcDbLine
 10
103.5
 20
81.99623107910156
 11
104.0852737426758
 21
82.05387878417969
  0
LINE
  5
287
100
AcDbEntity
  8
sheet2
  6
ByLayer
 62
  256
370
   -1
100
AcDbLine
 10
104.0852737426758
 20
82.05387878417969
 11
104.6480484008789
 21
82.22459411621094
  0
LINE
  5
288
100
AcDbEntity
  8
sheet2
  6
ByLayer
 62
  256
370
   -1
100
AcDbLine
 10
104.6480484008789
 20
82.22459411621094
 11
105.1667098999023
 21
82.50182342529297
  0
LINE
  5
289
100
AcDbEntity
  8
sheet2
  6
ByLayer
 62
  256
370
   -1
100
AcDbLine
 10
105.1667098999023
 20
82.50182342529297
 11
105.6213226318359
 21
82.87490844726562
  0
LINE
  5
28A
100
AcDbEntity
  8
sheet2
  6
ByLayer
 62
  256
370
   -1
100
AcDbLine
 10
105.6213226318359
 20
82.87490844726562
 11
105.9944076538086
 21
83.32952117919922
  0
LINE
  5
28B
100
AcDbEntity
  8
sheet2
  6
ByLayer
 62
  256
370
   -1
100
AcDbLine
 10
105.9944076538086
 20
83.32952117919922
 11
106.2716369628906
 21
83.84818267822266
  0
LINE
  5
28C
100
AcDbEntity
  8
sheet2
  6
ByLayer
 62
  256
370
   -1
100
AcDbLine
 10
106.2716369628906
 20
83.84818267822266
 11
106.4423561096191
 21
84.41095733642578
  0
LINE
  5
28D
100
AcDbEntity
  8
sheet2
  6
ByLayer
 62
  256
370
   -1
100
AcDbLine
 10
106.4423561096191
 20
84.41095733642578
 11
106.5
 21
84.99623107910156
  0
LINE
  5
28E
100
AcDbEntity
  8
sheet2
  6
ByLayer
 62
  256
370
   -1
100
AcDbLine
 10
106.5
 20
84.99623107910156
 11
106.4423561096191
 21
85.58150482177734
  0
LINE
  5
28F
100
AcDbEntity
  8
sheet2
  6
ByLayer
 62
  256
370
   -1
100
AcDbLine
 10
106.4423561096191
 20
85.58150482177734
 11
106.2716369628906
 21
86.14427947998047
  0
LINE
  5
290
100
AcDbEntity
  8
sheet2
  6
ByLayer
 62
  256
370
   -1
100
AcDbLine
 10
106.2716369628906
 20
86.14427947998047
 11
105.9944076538086
 21
86.66294097900391
  0
LINE
  5
291
100
AcDbEntity
  8
sheet2
  6
ByLayer
 62
  256
370
   -1
100
AcDbLine
 10
105.9944076538086
 20
86.66294097900391
 11
105.6213226318359
 21
87.1175537109375
  0
LINE
  5
292
100
AcDbEntity
  8
sheet2
  6
ByLayer
 62
  256
370
   -1
100
AcDbLine
 10
105.6213226318359
 20
87.1175537109375
 11
105.1667098999023
 21
87.49063873291016
  0
LINE
  5
293
100
AcDbEntity
  8
sheet2
  6
ByLayer
 62
  256
370
   -1
100
AcDbLine
 10
105.1667098999023
 20
87.49063873291016
 11
104.6480484008789
 21
87.76786804199219
  0
LINE
  5
294
100
AcDbEntity
  8
sheet2
  6
ByLayer
 62
  256
370
   -1
100
AcDbLine
 10
104.6480484008789
 20
87.76786804199219
 11
104.0852737426758
 21
87.93858337402344
  0
LINE
  5
295
100
AcDbEntity
  8
sheet2
  6
ByLayer
 62
  256
370
   -1
100
AcDbLine
 10
103.5
 20
87.99623107910156
 11
104.0852737426758
 21
87.93858337402344
  0
LINE
  5
296
100
AcDbEntity
  8
sheet2
  6
ByLayer
 62
  256
370
   -1
100
AcDbLine
 10
85
 20
87.99623107910156
 11
84.41473388671881
 21
87.93858337402344
  0
LINE
  5
297
100
AcDbEntity
  8
sheet2
  6
ByLayer
 62
  256
370
   -1
100
AcDbLine
 10
84.41473388671881
 20
87.93858337402344
 11
83.85195159912109
 21
87.76786804199219
  0
LINE
  5
298
100
AcDbEntity
  8
sheet2
  6
ByLayer
 62
  256
370
   -1
100
AcDbLine
 10
83.85195159912109
 20
87.76786804199219
 11
83.33329010009771
 21
87.49063873291016
  0
LINE
  5
299
100
AcDbEntity
  8
sheet2
  6
ByLayer
 62
  256
370
   -1
100
AcDbLine
 10
83.33329010009771
 20
87.49063873291016
 11
82.87867736816412
 21
87.1175537109375
  0
LINE
  5
29A
100
AcDbEntity
  8
sheet2
  6
ByLayer
 62
  256
370
   -1
100
AcDbLine
 10
82.87867736816412
 20
87.1175537109375
 11
82.50559234619141
 21
86.66294097900391
  0
LINE
  5
29B
100
AcDbEntity
  8
sheet2
  6
ByLayer
 62
  256
370
   -1
100
AcDbLine
 10
82.50559234619141
 20
86.66294097900391
 11
82.22836303710938
 21
86.14427947998047
  0
LINE
  5
29C
100
AcDbEntity
  8
sheet2
  6
ByLayer
 62
  256
370
   -1
100
AcDbLine
 10
82.22836303710938
 20
86.14427947998047
 11
82.05764770507812
 21
85.58150482177734
  0
LINE
  5
29D
100
AcDbEntity
  8
sheet2
  6
ByLayer
 62
  256
370
   -1
100
AcDbLine
 10
82.05764770507812
 20
85.58150482177734
 11
82
 21
84.99623107910156
  0
LINE
  5
29E
100
AcDbEntity
  8
sheet2
  6
ByLayer
 62
  256
370
   -1
100
AcDbLine
 10
82
 20
84.99623107910156
 11
82.05764770507812
 21
84.41095733642578
  0
LINE
  5
29F
100
AcDbEntity
  8
sheet2
  6
ByLayer
 62
  256
370
   -1
100
AcDbLine
 10
82.05764770507812
 20
84.41095733642578
 11
82.22836303710938
 21
83.84818267822266
  0
LINE
  5
2A0
100
AcDbEntity
  8
sheet2
  6
ByLayer
 62
  256
370
   -1
100
AcDbLine
 10
82.22836303710938
 20
83.84818267822266
 11
82.50559234619141
 21
83.32952117919922
  0
LINE
  5
2A1
100
AcDbEntity
  8
sheet2
  6
ByLayer
 62
  256
370
   -1
100
AcDbLine
 10
82.50559234619141
 20
83.32952117919922
 11
82.87867736816412
 21
82.87490844726562
  0
LINE
  5
2A2
100
AcDbEntity
  8
sheet2
  6
ByLayer
 62
  256
370
   -1
100
AcDbLine
 10
82.87867736816412
 20
82.87490844726562
 11
83.33329010009771
 21
82.50182342529297
  0
LINE
  5
2A3
100
AcDbEntity
  8
sheet2
  6
ByLayer
 62
  256
370
   -1
100
AcDbLine
 10
83.33329010009771
 20
82.50182342529297
 11
83.85195159912109
 21
82.22459411621094
  0
LINE
  5
2A4
100
AcDbEntity
  8
sheet2
  6
ByLayer
 62
  256
370
   -1
100
AcDbLine
 10
83.85195159912109
 20
82.22459411621094
 11
84.41473388671881
 21
82.05387878417969
  0
LINE
  5
2A5
100
AcDbEntity
  8
sheet2
  6
ByLayer
 62
  256
370
   -1
100
AcDbLine
 10
84.41473388671881
 20
82.05387878417969
 11
85
 21
81.99623107910156
  0
LINE
  5
2A6
100
AcDbEntity
  8
sheet2
  6
ByLayer
 62
  256
370
   -1
100
AcDbLine
 10
85
 20
81.99623107910156
 11
85.58526611328119
 21
82.05387878417969
  0
LINE
  5
2A7
100
AcDbEntity
  8
sheet2
  6
ByLayer
 62
  256
370
   -1
100
AcDbLine
 10
85.58526611328119
 20
82.05387878417969
 11
86.14804840087891
 21
82.22459411621094
  0
LINE
  5
2A8
100
AcDbEntity
  8
sheet2
  6
ByLayer
 62
  256
370
   -1
100
AcDbLine
 10
86.14804840087891
 20
82.22459411621094
 11
86.66670989990229
 21
82.50182342529297
  0
LINE
  5
2A9
100
AcDbEntity
  8
sheet2
  6
ByLayer
 62
  256
370
   -1
100
AcDbLine
 10
86.66670989990229
 20
82.50182342529297
 11
87.12132263183588
 21
82.87490844726562
  0
LINE
  5
2AA
100
AcDbEntity
  8
sheet2
  6
ByLayer
 62
  256
370
   -1
100
AcDbLine
 10
87.12132263183588
 20
82.87490844726562
 11
87.49440765380859
 21
83.32952117919922
  0
LINE
  5
2AB
100
AcDbEntity
  8
sheet2
  6
ByLayer
 62
  256
370
   -1
100
AcDbLine
 10
87.49440765380859
 20
83.32952117919922
 11
87.77163696289062
 21
83.84818267822266
  0
LINE
  5
2AC
100
AcDbEntity
  8
sheet2
  6
ByLayer
 62
  256
370
   -1
100
AcDbLine
 10
87.77163696289062
 20
83.84818267822266
 11
87.94235229492188
 21
84.41095733642578
  0
LINE
  5
2AD
100
AcDbEntity
  8
sheet2
  6
ByLayer
 62
  256
370
   -1
100
AcDbLine
 10
87.94235229492188
 20
84.41095733642578
 11
88
 21
84.99623107910156
  0
LINE
  5
2AE
100
AcDbEntity
  8
sheet2
  6
ByLayer
 62
  256
370
   -1
100
AcDbLine
 10
88
 20
84.99623107910156
 11
87.94235229492188
 21
85.58150482177734
  0
LINE
  5
2AF
100
AcDbEntity
  8
sheet2
  6
ByLayer
 62
  256
370
   -1
100
AcDbLine
 10
87.94235229492188
 20
85.58150482177734
 11
87.77163696289062
 21
86.14427947998047
  0
LINE
  5
2B0
100
AcDbEntity
  8
sheet2
  6
ByLayer
 62
  256
370
   -1
100
AcDbLine
 10
87.77163696289062
 20
86.14427947998047
 11
87.49440765380859
 21
86.66294097900391
  0
LINE
  5
2B1
100
AcDbEntity
  8
sheet2
  6
ByLayer
 62
  256
370
   -1
100
AcDbLine
 10
87.49440765380859
 20
86.66294097900391
 11
87.12132263183588
 21
87.1175537109375
  0
LINE
  5
2B2
100
AcDbEntity
  8
sheet2
  6
ByLayer
 62
  256
370
   -1
100
AcDbLine
 10
87.12132263183588
 20
87.1175537109375
 11
86.66670989990229
 21
87.49063873291016
  0
LINE
  5
2B3
100
AcDbEntity
  8
sheet2
  6
ByLayer
 62
  256
370
   -1
100
AcDbLine
 10
86.66670989990229
 20
87.49063873291016
 11
86.14804840087891
 21
87.76786804199219
  0
LINE
  5
2B4
100
AcDbEntity
  8
sheet2
  6
ByLayer
 62
  256
370
   -1
100
AcDbLine
 10
86.14804840087891
 20
87.76786804199219
 11
85.58526611328119
 21
87.93858337402344
  0
LINE
  5
2B5
100
AcDbEntity
  8
sheet2
  6
ByLayer
 62
  256
370
   -1
100
AcDbLine
 10
85
 20
87.99623107910156
 11
85.58526611328119
 21
87.93858337402344
  0
LINE
  5
2B6
100
AcDbEntity
  8
sheet2
  6
ByLayer
 62
  256
370
   -1
100
AcDbLine
 10
122
 20
277.9962310791016
 11
121.4147300720215
 21
277.9385833740234
  0
LINE
  5
2B7
100
AcDbEntity
  8
sheet2
  6
ByLayer
 62
  256
370
   -1
100
AcDbLine
 10
121.4147300720215
 20
277.9385833740234
 11
120.8519515991211
 21
277.7678680419922
  0
LINE
  5
2B8
100
AcDbEntity
  8
sheet2
  6
ByLayer
 62
  256
370
   -1
100
AcDbLine
 10
120.8519515991211
 20
277.7678680419922
 11
120.3332901000977
 21
277.4906463623047
  0
LINE
  5
2B9
100
AcDbEntity
  8
sheet2
  6
ByLayer
 62
  256
370
   -1
100
AcDbLine
 10
120.3332901000977
 20
277.4906463623047
 11
119.8786773681641
 21
277.1175537109375
  0
LINE
  5
2BA
100
AcDbEntity
  8
sheet2
  6
ByLayer
 62
  256
370
   -1
100
AcDbLine
 10
119.8786773681641
 20
277.1175537109375
 11
119.5055923461914
 21
276.6629486083984
  0
LINE
  5
2BB
100
AcDbEntity
  8
sheet2
  6
ByLayer
 62
  256
370
   -1
100
AcDbLine
 10
119.5055923461914
 20
276.6629486083984
 11
119.2283630371094
 21
276.144287109375
  0
LINE
  5
2BC
100
AcDbEntity
  8
sheet2
  6
ByLayer
 62
  256
370
   -1
100
AcDbLine
 10
119.2283630371094
 20
276.144287109375
 11
119.0576438903809
 21
275.5814971923828
  0
LINE
  5
2BD
100
AcDbEntity
  8
sheet2
  6
ByLayer
 62
  256
370
   -1
100
AcDbLine
 10
119.0576438903809
 20
275.5814971923828
 11
119
 21
274.9962310791016
  0
LINE
  5
2BE
100
AcDbEntity
  8
sheet2
  6
ByLayer
 62
  256
370
   -1
100
AcDbLine
 10
119
 20
274.9962310791016
 11
119.0576438903809
 21
274.4109649658203
  0
LINE
  5
2BF
100
AcDbEntity
  8
sheet2
  6
ByLayer
 62
  256
370
   -1
100
AcDbLine
 10
119.0576438903809
 20
274.4109649658203
 11
119.2283630371094
 21
273.8481750488281
  0
LINE
  5
2C0
100
AcDbEntity
  8
sheet2
  6
ByLayer
 62
  256
370
   -1
100
AcDbLine
 10
119.2283630371094
 20
273.8481750488281
 11
119.5055923461914
 21
273.3295135498047
  0
LINE
  5
2C1
100
AcDbEntity
  8
sheet2
  6
ByLayer
 62
  256
370
   -1
100
AcDbLine
 10
119.5055923461914
 20
273.3295135498047
 11
119.8786773681641
 21
272.8749084472656
  0
LINE
  5
2C2
100
AcDbEntity
  8
sheet2
  6
ByLayer
 62
  256
370
   -1
100
AcDbLine
 10
119.8786773681641
 20
272.8749084472656
 11
120.3332901000977
 21
272.5018157958984
  0
LINE
  5
2C3
100
AcDbEntity
  8
sheet2
  6
ByLayer
 62
  256
370
   -1
100
AcDbLine
 10
120.3332901000977
 20
272.5018157958984
 11
120.8519515991211
 21
272.2245941162109
  0
LINE
  5
2C4
100
AcDbEntity
  8
sheet2
  6
ByLayer
 62
  256
370
   -1
100
AcDbLine
 10
120.8519515991211
 20
272.2245941162109
 11
121.4147300720215
 21
272.0538787841797
  0
LINE
  5
2C5
100
AcDbEntity
  8
sheet2
  6
ByLayer
 62
  256
370
   -1
100
AcDbLine
 10
121.4147300720215
 20
272.0538787841797
 11
122
 21
271.9962310791016
  0
LINE
  5
2C6
100
AcDbEntity
  8
sheet2
  6
ByLayer
 62
  256
370
   -1
100
AcDbLine
 10
122
 20
271.9962310791016
 11
122.5852699279785
 21
272.0538787841797
  0
LINE
  5
2C7
100
AcDbEntity
  8
sheet2
  6
ByLayer
 62
  256
370
   -1
100
AcDbLine
 10
122.5852699279785
 20
272.0538787841797
 11
123.1480484008789
 21
272.2245941162109
  0
LINE
  5
2C8
100
AcDbEntity
  8
sheet2
  6
ByLayer
 62
  256
370
   -1
100
AcDbLine
 10
123.1480484008789
 20
272.2245941162109
 11
123.6667098999023
 21
272.5018157958984
  0
LINE
  5
2C9
100
AcDbEntity
  8
sheet2
  6
ByLayer
 62
  256
370
   -1
100
AcDbLine
 10
123.6667098999023
 20
272.5018157958984
 11
124.1213188171387
 21
272.8749084472656
  0
LINE
  5
2CA
100
AcDbEntity
  8
sheet2
  6
ByLayer
 62
  256
370
   -1
100
AcDbLine
 10
124.1213188171387
 20
272.8749084472656
 11
124.4944076538086
 21
273.3295135498047
  0
LINE
  5
2CB
100
AcDbEntity
  8
sheet2
  6
ByLayer
 62
  256
370
   -1
100
AcDbLine
 10
124.4944076538086
 20
273.3295135498047
 11
124.7716369628906
 21
273.8481750488281
  0
LINE
  5
2CC
100
AcDbEntity
  8
sheet2
  6
ByLayer
 62
  256
370
   -1
100
AcDbLine
 10
124.7716369628906
 20
273.8481750488281
 11
124.9423561096191
 21
274.4109649658203
  0
LINE
  5
2CD
100
AcDbEntity
  8
sheet2
  6
ByLayer
 62
  256
370
   -1
100
AcDbLine
 10
124.9423561096191
 20
274.4109649658203
 11
125
 21
274.9962310791016
  0
LINE
  5
2CE
100
AcDbEntity
  8
sheet2
  6
ByLayer
 62
  256
370
   -1
100
AcDbLine
 10
125
 20
274.9962310791016
 11
124.9423561096191
 21
275.5814971923828
  0
LINE
  5
2CF
100
AcDbEntity
  8
sheet2
  6
ByLayer
 62
  256
370
   -1
100
AcDbLine
 10
124.9423561096191
 20
275.5814971923828
 11
124.7716369628906
 21
276.144287109375
  0
LINE
  5
2D0
100
AcDbEntity
  8
sheet2
  6
ByLayer
 62
  256
370
   -1
100
AcDbLine
 10
124.7716369628906
 20
276.144287109375
 11
124.4944076538086
 21
276.6629486083984
  0
LINE
  5
2D1
100
AcDbEntity
  8
sheet2
  6
ByLayer
 62
  256
370
   -1
100
AcDbLine
 10
124.4944076538086
 20
276.6629486083984
 11
124.1213188171387
 21
277.1175537109375
  0
LINE
  5
2D2
100
AcDbEntity
  8
sheet2
  6
ByLayer
 62
  256
370
   -1
100
AcDbLine
 10
124.1213188171387
 20
277.1175537109375
 11
123.6667098999023
 21
277.4906463623047
  0
LINE
  5
2D3
100
AcDbEntity
  8
sheet2
  6
ByLayer
 62
  256
370
   -1
100
AcDbLine
 10
123.6667098999023
 20
277.4906463623047
 11
123.1480484008789
 21
277.7678680419922
  0
LINE
  5
2D4
100
AcDbEntity
  8
sheet2
  6
ByLayer
 62
  256
370
   -1
100
AcDbLine
 10
123.1480484008789
 20
277.7678680419922
 11
122.5852699279785
 21
277.9385833740234
  0
LINE
  5
2D5
100
AcDbEntity
  8
sheet2
  6
ByLayer
 62
  256
370
   -1
100
AcDbLine
 10
122
 20
277.9962310791016
 11
122.5852699279785
 21
277.9385833740234
  0
LINE
  5
2D6
100
AcDbEntity
  8
sheet2
  6
ByLayer
 62
  256
370
   -1
100
AcDbLine
 10
103.5
 20
277.9962310791016
 11
102.9147262573242
 21
277.9385833740234
  0
LINE
  5
2D7
100
AcDbEntity
  8
sheet2
  6
ByLayer
 62
  256
370
   -1
100
AcDbLine
 10
102.9147262573242
 20
277.9385833740234
 11
102.3519515991211
 21
277.7678680419922
  0
LINE
  5
2D8
100
AcDbEntity
  8
sheet2
  6
ByLayer
 62
  256
370
   -1
100
AcDbLine
 10
102.3519515991211
 20
277.7678680419922
 11
101.8332901000977
 21
277.4906463623047
  0
LINE
  5
2D9
100
AcDbEntity
  8
sheet2
  6
ByLayer
 62
  256
370
   -1
100
AcDbLine
 10
101.8332901000977
 20
277.4906463623047
 11
101.3786773681641
 21
277.1175537109375
  0
LINE
  5
2DA
100
AcDbEntity
  8
sheet2
  6
ByLayer
 62
  256
370
   -1
100
AcDbLine
 10
101.3786773681641
 20
277.1175537109375
 11
101.0055923461914
 21
276.6629486083984
  0
LINE
  5
2DB
100
AcDbEntity
  8
sheet2
  6
ByLayer
 62
  256
370
   -1
100
AcDbLine
 10
101.0055923461914
 20
276.6629486083984
 11
100.7283630371094
 21
276.144287109375
  0
LINE
  5
2DC
100
AcDbEntity
  8
sheet2
  6
ByLayer
 62
  256
370
   -1
100
AcDbLine
 10
100.7283630371094
 20
276.144287109375
 11
100.5576477050781
 21
275.5814971923828
  0
LINE
  5
2DD
100
AcDbEntity
  8
sheet2
  6
ByLayer
 62
  256
370
   -1
100
AcDbLine
 10
100.5576477050781
 20
275.5814971923828
 11
100.5
 21
274.9962310791016
  0
LINE
  5
2DE
100
AcDbEntity
  8
sheet2
  6
ByLayer
 62
  256
370
   -1
100
AcDbLine
 10
100.5
 20
274.9962310791016
 11
100.5576477050781
 21
274.4109649658203
  0
LINE
  5
2DF
100
AcDbEntity
  8
sheet2
  6
ByLayer
 62
  256
370
   -1
100
AcDbLine
 10
100.5576477050781
 20
274.4109649658203
 11
100.7283630371094
 21
273.8481750488281
  0
LINE
  5
2E0
100
AcDbEntity
  8
sheet2
  6
ByLayer
 62
  256
370
   -1
100
AcDbLine
 10
100.7283630371094
 20
273.8481750488281
 11
101.0055923461914
 21
273.3295135498047
  0
LINE
  5
2E1
100
AcDbEntity
  8
sheet2
  6
ByLayer
 62
  256
370
   -1
100
AcDbLine
 10
101.0055923461914
 20
273.3295135498047
 11
101.3786773681641
 21
272.8749084472656
  0
LINE
  5
2E2
100
AcDbEntity
  8
sheet2
  6
ByLayer
 62
  256
370
   -1
100
AcDbLine
 10
101.3786773681641
 20
272.8749084472656
 11
101.8332901000977
 21
272.5018157958984
  0
LINE
  5
2E3
100
AcDbEntity
  8
sheet2
  6
ByLayer
 62
  256
370
   -1
100
AcDbLine
 10
101.8332901000977
 20
272.5018157958984
 11
102.3519515991211
 21
272.2245941162109
  0
LINE
  5
2E4
100
AcDbEntity
  8
sheet2
  6
ByLayer
 62
  256
370
   -1
100
AcDbLine
 10
102.3519515991211
 20
272.2245941162109
 11
102.9147262573242
 21
272.0538787841797
  0
LINE
  5
2E5
100
AcDbEntity
  8
sheet2
  6
ByLayer
 62
  256
370
   -1
100
AcDbLine
 10
102.9147262573242
 20
272.0538787841797
 11
103.5
 21
271.9962310791016
  0
LINE
  5
2E6
100
AcDbEntity
  8
sheet2
  6
ByLayer
 62
  256
370
   -1
100
AcDbLine
 10
103.5
 20
271.9962310791016
 11
104.0852737426758
 21
272.0538787841797
  0
LINE
  5
2E7
100
AcDbEntity
  8
sheet2
  6
ByLayer
 62
  256
370
   -1
100
AcDbLine
 10
104.0852737426758
 20
272.0538787841797
 11
104.6480484008789
 21
272.2245941162109
  0
LINE
  5
2E8
100
AcDbEntity
  8
sheet2
  6
ByLayer
 62
  256
370
   -1
100
AcDbLine
 10
104.6480484008789
 20
272.2245941162109
 11
105.1667098999023
 21
272.5018157958984
  0
LINE
  5
2E9
100
AcDbEntity
  8
sheet2
  6
ByLayer
 62
  256
370
   -1
100
AcDbLine
 10
105.1667098999023
 20
272.5018157958984
 11
105.6213226318359
 21
272.8749084472656
  0
LINE
  5
2EA
100
AcDbEntity
  8
sheet2
  6
ByLayer
 62
  256
370
   -1
100
AcDbLine
 10
105.6213226318359
 20
272.8749084472656
 11
105.9944076538086
 21
273.3295135498047
  0
LINE
  5
2EB
100
AcDbEntity
  8
sheet2
  6
ByLayer
 62
  256
370
   -1
100
AcDbLine
 10
105.9944076538086
 20
273.3295135498047
 11
106.2716369628906
 21
273.8481750488281
  0
LINE
  5
2EC
100
AcDbEntity
  8
sheet2
  6
ByLayer
 62
  256
370
   -1
100
AcDbLine
 10
106.2716369628906
 20
273.8481750488281
 11
106.4423561096191
 21
274.4109649658203
  0
LINE
  5
2ED
100
AcDbEntity
  8
sheet2
  6
ByLayer
 62
  256
370
   -1
100
AcDbLine
 10
106.4423561096191
 20
274.4109649658203
 11
106.5
 21
274.9962310791016
  0
LINE
  5
2EE
100
AcDbEntity
  8
sheet2
  6
ByLayer
 62
  256
370
   -1
100
AcDbLine
 10
106.5
 20
274.9962310791016
 11
106.4423561096191
 21
275.5814971923828
  0
LINE
  5
2EF
100
AcDbEntity
  8
sheet2
  6
ByLayer
 62
  256
370
   -1
100
AcDbLine
 10
106.4423561096191
 20
275.5814971923828
 11
106.2716369628906
 21
276.144287109375
  0
LINE
  5
2F0
100
AcDbEntity
  8
sheet2
  6
ByLayer
 62
  256
370
   -1
100
AcDbLine
 10
106.2716369628906
 20
276.144287109375
 11
105.9944076538086
 21
276.6629486083984
  0
LINE
  5
2F1
100
AcDbEntity
  8
sheet2
  6
ByLayer
 62
  256
370
   -1
100
AcDbLine
 10
105.9944076538086
 20
276.6629486083984
 11
105.6213226318359
 21
277.1175537109375
  0
LINE
  5
2F2
100
AcDbEntity
  8
sheet2
  6
ByLayer
 62
  256
370
   -1
100
AcDbLine
 10
105.6213226318359
 20
277.1175537109375
 11
105.1667098999023
 21
277.4906463623047
  0
LINE
  5
2F3
100
AcDbEntity
  8
sheet2
  6
ByLayer
 62
  256
370
   -1
100
AcDbLine
 10
105.1667098999023
 20
277.4906463623047
 11
104.6480484008789
 21
277.7678680419922
  0
LINE
  5
2F4
100
AcDbEntity
  8
sheet2
  6
ByLayer
 62
  256
370
   -1
100
AcDbLine
 10
104.6480484008789
 20
277.7678680419922
 11
104.0852737426758
 21
277.9385833740234
  0
LINE
  5
2F5
100
AcDbEntity
  8
sheet2
  6
ByLayer
 62
  256
370
   -1
100
AcDbLine
 10
103.5
 20
277.9962310791016
 11
104.0852737426758
 21
277.9385833740234
  0
LINE
  5
2F6
100
AcDbEntity
  8
sheet2
  6
ByLayer
 62
  256
370
   -1
100
AcDbLine
 10
85
 20
277.9962310791016
 11
84.41473388671881
 21
277.9385833740234
  0
LINE
  5
2F7
100
AcDbEntity
  8
sheet2
  6
ByLayer
 62
  256
370
   -1
100
AcDbLine
 10
84.41473388671881
 20
277.9385833740234
 11
83.85195159912109
 21
277.7678680419922
  0
LINE
  5
2F8
100
AcDbEntity
  8
sheet2
  6
ByLayer
 62
  256
370
   -1
100
AcDbLine
 10
83.85195159912109
 20
277.7678680419922
 11
83.33329010009771
 21
277.4906463623047
  0
LINE
  5
2F9
100
AcDbEntity
  8
sheet2
  6
ByLayer
 62
  256
370
   -1
100
AcDbLine
 10
83.33329010009771
 20
277.4906463623047
 11
82.87867736816412
 21
277.1175537109375
  0
LINE
  5
2FA
100
AcDbEntity
  8
sheet2
  6
ByLayer
 62
  256
370
   -1
100
AcDbLine
 10
82.87867736816412
 20
277.1175537109375
 11
82.50559234619141
 21
276.6629486083984
  0
LINE
  5
2FB
100
AcDbEntity
  8
sheet2
  6
ByLayer
 62
  256
370
   -1
100
AcDbLine
 10
82.50559234619141
 20
276.6629486083984
 11
82.22836303710938
 21
276.144287109375
  0
LINE
  5
2FC
100
AcDbEntity
  8
sheet2
  6
ByLayer
 62
  256
370
   -1
100
AcDbLine
 10
82.22836303710938
 20
276.144287109375
 11
82.05764770507812
 21
275.5814971923828
  0
LINE
  5
2FD
100
AcDbEntity
  8
sheet2
  6
ByLayer
 62
  256
370
   -1
100
AcDbLine
 10
82.05764770507812
 20
275.5814971923828
 11
82
 21
274.9962310791016
  0
LINE
  5
2FE
100
AcDbEntity
  8
sheet2
  6
ByLayer
 62
  256
370
   -1
100
AcDbLine
 10
82
 20
274.9962310791016
 11
82.05764770507812
 21
274.4109649658203
  0
LINE
  5
2FF
100
AcDbEntity
  8
sheet2
  6
ByLayer
 62
  256
370
   -1
100
AcDbLine
 10
82.05764770507812
 20
274.4109649658203
 11
82.22836303710938
 21
273.8481750488281
  0
LINE
  5
300
100
AcDbEntity
  8
sheet2
  6
ByLayer
 62
  256
370
   -1
100
AcDbLine
 10
82.22836303710938
 20
273.8481750488281
 11
82.50559234619141
 21
273.3295135498047
  0
LINE
  5
301
100
AcDbEntity
  8
sheet2
  6
ByLayer
 62
  256
370
   -1
100
AcDbLine
 10
82.50559234619141
 20
273.3295135498047
 11
82.87867736816412
 21
272.8749084472656
  0
LINE
  5
302
100
AcDbEntity
  8
sheet2
  6
ByLayer
 62
  256
370
   -1
100
AcDbLine
 10
82.87867736816412
 20
272.8749084472656
 11
83.33329010009771
 21
272.5018157958984
  0
LINE
  5
303
100
AcDbEntity
  8
sheet2
  6
ByLayer
 62
  256
370
   -1
100
AcDbLine
 10
83.33329010009771
 20
272.5018157958984
 11
83.85195159912109
 21
272.2245941162109
  0
LINE
  5
304
100
AcDbEntity
  8
sheet2
  6
ByLayer
 62
  256
370
   -1
100
AcDbLine
 10
83.85195159912109
 20
272.2245941162109
 11
84.41473388671881
 21
272.0538787841797
  0
LINE
  5
305
100
AcDbEntity
  8
sheet2
  6
ByLayer
 62
  256
370
   -1
100
AcDbLine
 10
84.41473388671881
 20
272.0538787841797
 11
85
 21
271.9962310791016
  0
LINE
  5
306
100
AcDbEntity
  8
sheet2
  6
ByLayer
 62
  256
370
   -1
100
AcDbLine
 10
85
 20
271.9962310791016
 11
85.58526611328119
 21
272.0538787841797
  0
LINE
  5
307
100
AcDbEntity
  8
sheet2
  6
ByLayer
 62
  256
370
   -1
100
AcDbLine
 10
85.58526611328119
 20
272.0538787841797
 11
86.14804840087891
 21
272.2245941162109
  0
LINE
  5
308
100
AcDbEntity
  8
sheet2
  6
ByLayer
 62
  256
370
   -1
100
AcDbLine
 10
86.14804840087891
 20
272.2245941162109
 11
86.66670989990229
 21
272.5018157958984
  0
LINE
  5
309
100
AcDbEntity
  8
sheet2
  6
ByLayer
 62
  256
370
   -1
100
AcDbLine
 10
86.66670989990229
 20
272.5018157958984
 11
87.12132263183588
 21
272.8749084472656
  0
LINE
  5
30A
100
AcDbEntity
  8
sheet2
  6
ByLayer
 62
  256
370
   -1
100
AcDbLine
 10
87.12132263183588
 20
272.8749084472656
 11
87.49440765380859
 21
273.3295135498047
  0
LINE
  5
30B
100
AcDbEntity
  8
sheet2
  6
ByLayer
 62
  256
370
   -1
100
AcDbLine
 10
87.49440765380859
 20
273.3295135498047
 11
87.77163696289062
 21
273.8481750488281
  0
LINE
  5
30C
100
AcDbEntity
  8
sheet2
  6
ByLayer
 62
  256
370
   -1
100
AcDbLine
 10
87.77163696289062
 20
273.8481750488281
 11
87.94235229492188
 21
274.4109649658203
  0
LINE
  5
30D
100
AcDbEntity
  8
sheet2
  6
ByLayer
 62
  256
370
   -1
100
AcDbLine
 10
87.94235229492188
 20
274.4109649658203
 11
88
 21
274.9962310791016
  0
LINE
  5
30E
100
AcDbEntity
  8
sheet2
  6
ByLayer
 62
  256
370
   -1
100
AcDbLine
 10
88
 20
274.9962310791016
 11
87.94235229492188
 21
275.5814971923828
  0
LINE
  5
30F
100
AcDbEntity
  8
sheet2
  6
ByLayer
 62
  256
370
   -1
100
AcDbLine
 10
87.94235229492188
 20
275.5814971923828
 11
87.77163696289062
 21
276.144287109375
  0
LINE
  5
310
100
AcDbEntity
  8
sheet2
  6
ByLayer
 62
  256
370
   -1
100
AcDbLine
 10
87.77163696289062
 20
276.144287109375
 11
87.49440765380859
 21
276.6629486083984
  0
LINE
  5
311
100
AcDbEntity
  8
sheet2
  6
ByLayer
 62
  256
370
   -1
100
AcDbLine
 10
87.49440765380859
 20
276.6629486083984
 11
87.12132263183588
 21
277.1175537109375
  0
LINE
  5
312
100
AcDbEntity
  8
sheet2
  6
ByLayer
 62
  256
370
   -1
100
AcDbLine
 10
87.12132263183588
 20
277.1175537109375
 11
86.66670989990229
 21
277.4906463623047
  0
LINE
  5
313
100
AcDbEntity
  8
sheet2
  6
ByLayer
 62
  256
370
   -1
100
AcDbLine
 10
86.66670989990229
 20
277.4906463623047
 11
86.14804840087891
 21
277.7678680419922
  0
LINE
  5
314
100
AcDbEntity
  8
sheet2
  6
ByLayer
 62
  256
370
   -1
100
AcDbLine
 10
86.14804840087891
 20
277.7678680419922
 11
85.58526611328119
 21
277.9385833740234
  0
LINE
  5
315
100
AcDbEntity
  8
sheet2
  6
ByLayer
 62
  256
370
   -1
100
AcDbLine
 10
85
 20
277.9962310791016
 11
85.58526611328119
 21
277.9385833740234
  0
LINE
  5
316
100
AcDbEntity
  8
sheet2
  6
ByLayer
 62
  256
370
   -1
100
AcDbLine
 10
129
 20
69.99623107910156
 11
129
 21
290
  0
LINE
  5
317
100
AcDbEntity
  8
sheet2
  6
ByLayer
 62
  256
370
   -1
100
AcDbLine
 10
68.5
 20
182.9962310791016
 11
67.91473388671881
 21
182.9385833740234
  0
LINE
  5
318
100
AcDbEntity
  8
sheet2
  6
ByLayer
 62
  256
370
   -1
100
AcDbLine
 10
67.91473388671881
 20
182.9385833740234
 11
67.35195159912109
 21
182.7678680419922
  0
LINE
  5
319
100
AcDbEntity
  8
sheet2
  6
ByLayer
 62
  256
370
   -1
100
AcDbLine
 10
67.35195159912109
 20
182.7678680419922
 11
66.83329010009771
 21
182.4906387329102
  0
LINE
  5
31A
100
AcDbEntity
  8
sheet2
  6
ByLayer
 62
  256
370
   -1
100
AcDbLine
 10
66.83329010009771
 20
182.4906387329102
 11
66.37867736816412
 21
182.1175537109375
  0
LINE
  5
31B
100
AcDbEntity
  8
sheet2
  6
ByLayer
 62
  256
370
   -1
100
AcDbLine
 10
66.37867736816412
 20
182.1175537109375
 11
66.00559234619141
 21
181.6629409790039
  0
LINE
  5
31C
100
AcDbEntity
  8
sheet2
  6
ByLayer
 62
  256
370
   -1
100
AcDbLine
 10
66.00559234619141
 20
181.6629409790039
 11
65.72836303710938
 21
181.1442794799805
  0
LINE
  5
31D
100
AcDbEntity
  8
sheet2
  6
ByLayer
 62
  256
370
   -1
100
AcDbLine
 10
65.72836303710938
 20
181.1442794799805
 11
65.55764770507812
 21
180.5815048217773
  0
LINE
  5
31E
100
AcDbEntity
  8
sheet2
  6
ByLayer
 62
  256
370
   -1
100
AcDbLine
 10
65.55764770507812
 20
180.5815048217773
 11
65.5
 21
179.9962310791016
  0
LINE
  5
31F
100
AcDbEntity
  8
sheet2
  6
ByLayer
 62
  256
370
   -1
100
AcDbLine
 10
65.5
 20
179.9962310791016
 11
65.55764770507812
 21
179.4109573364258
  0
LINE
  5
320
100
AcDbEntity
  8
sheet2
  6
ByLayer
 62
  256
370
   -1
100
AcDbLine
 10
65.55764770507812
 20
179.4109573364258
 11
65.72836303710938
 21
178.8481826782227
  0
LINE
  5
321
100
AcDbEntity
  8
sheet2
  6
ByLayer
 62
  256
370
   -1
100
AcDbLine
 10
65.72836303710938
 20
178.8481826782227
 11
66.00559234619141
 21
178.3295211791992
  0
LINE
  5
322
100
AcDbEntity
  8
sheet2
  6
ByLayer
 62
  256
370
   -1
100
AcDbLine
 10
66.00559234619141
 20
178.3295211791992
 11
66.37867736816412
 21
177.8749084472656
  0
LINE
  5
323
100
AcDbEntity
  8
sheet2
  6
ByLayer
 62
  256
370
   -1
100
AcDbLine
 10
66.37867736816412
 20
177.8749084472656
 11
66.83329010009771
 21
177.501823425293
  0
LINE
  5
324
100
AcDbEntity
  8
sheet2
  6
ByLayer
 62
  256
370
   -1
100
AcDbLine
 10
66.83329010009771
 20
177.501823425293
 11
67.35195159912109
 21
177.2245941162109
  0
LINE
  5
325
100
AcDbEntity
  8
sheet2
  6
ByLayer
 62
  256
370
   -1
100
AcDbLine
 10
67.35195159912109
 20
177.2245941162109
 11
67.91473388671881
 21
177.0538787841797
  0
LINE
  5
326
100
AcDbEntity
  8
sheet2
  6
ByLayer
 62
  256
370
   -1
100
AcDbLine
 10
67.91473388671881
 20
177.0538787841797
 11
68.5
 21
176.9962310791016
  0
LINE
  5
327
100
AcDbEntity
  8
sheet2
  6
ByLayer
 62
  256
370
   -1
100
AcDbLine
 10
68.5
 20
176.9962310791016
 11
69.08526611328119
 21
177.0538787841797
  0
LINE
  5
328
100
AcDbEntity
  8
sheet2
  6
ByLayer
 62
  256
370
   -1
100
AcDbLine
 10
69.08526611328119
 20
177.0538787841797
 11
69.64804840087891
 21
177.2245941162109
  0
LINE
  5
329
100
AcDbEntity
  8
sheet2
  6
ByLayer
 62
  256
370
   -1
100
AcDbLine
 10
69.64804840087891
 20
177.2245941162109
 11
70.16670989990229
 21
177.501823425293
  0
LINE
  5
32A
100
AcDbEntity
  8
sheet2
  6
ByLayer
 62
  256
370
   -1
100
AcDbLine
 10
70.16670989990229
 20
177.501823425293
 11
70.62132263183588
 21
177.8749084472656
  0
LINE
  5
32B
100
AcDbEntity
  8
sheet2
  6
ByLayer
 62
  256
370
   -1
100
AcDbLine
 10
70.62132263183588
 20
177.8749084472656
 11
70.99440765380859
 21
178.3295211791992
  0
LINE
  5
32C
100
AcDbEntity
  8
sheet2
  6
ByLayer
 62
  256
370
   -1
100
AcDbLine
 10
70.99440765380859
 20
178.3295211791992
 11
71.27163696289062
 21
178.8481826782227
  0
LINE
  5
32D
100
AcDbEntity
  8
sheet2
  6
ByLayer
 62
  256
370
   -1
100
AcDbLine
 10
71.27163696289062
 20
178.8481826782227
 11
71.44235229492188
 21
179.4109573364258
  0
LINE
  5
32E
100
AcDbEntity
  8
sheet2
  6
ByLayer
 62
  256
370
   -1
100
AcDbLine
 10
71.44235229492188
 20
179.4109573364258
 11
71.5
 21
179.9962310791016
  0
LINE
  5
32F
100
AcDbEntity
  8
sheet2
  6
ByLayer
 62
  256
370
   -1
100
AcDbLine
 10
71.5
 20
179.9962310791016
 11
71.44235229492188
 21
180.5815048217773
  0
LINE
  5
330
100
AcDbEntity
  8
sheet2
  6
ByLayer
 62
  256
370
   -1
100
AcDbLine
 10
71.44235229492188
 20
180.5815048217773
 11
71.27163696289062
 21
181.1442794799805
  0
LINE
  5
331
100
AcDbEntity
  8
sheet2
  6
ByLayer
 62
  256
370
   -1
100
AcDbLine
 10
71.27163696289062
 20
181.1442794799805
 11
70.99440765380859
 21
181.6629409790039
  0
LINE
  5
332
100
AcDbEntity
  8
sheet2
  6
ByLayer
 62
  256
370
   -1
100
AcDbLine
 10
70.99440765380859
 20
181.6629409790039
 11
70.62132263183588
 21
182.1175537109375
  0
LINE
  5
333
100
AcDbEntity
  8
sheet2
  6
ByLayer
 62
  256
370
   -1
100
AcDbLine
 10
70.62132263183588
 20
182.1175537109375
 11
70.16670989990229
 21
182.4906387329102
  0
LINE
  5
334
100
AcDbEntity
  8
sheet2
  6
ByLayer
 62
  256
370
   -1
100
AcDbLine
 10
70.16670989990229
 20
182.4906387329102
 11
69.64804840087891
 21
182.7678680419922
  0
LINE
  5
335
100
AcDbEntity
  8
sheet2
  6
ByLayer
 62
  256
370
   -1
100
AcDbLine
 10
69.64804840087891
 20
182.7678680419922
 11
69.08526611328119
 21
182.9385833740234
  0
LINE
  5
336
100
AcDbEntity
  8
sheet2
  6
ByLayer
 62
  256
370
   -1
100
AcDbLine
 10
68.5
 20
182.9962310791016
 11
69.08526611328119
 21
182.9385833740234
  0
LINE
  5
337
100
AcDbEntity
  8
sheet2
  6
ByLayer
 62
  256
370
   -1
100
AcDbLine
 10
68.5
 20
232.9962310791016
 11
67.91473388671881
 21
232.9385833740234
  0
LINE
  5
338
100
AcDbEntity
  8
sheet2
  6
ByLayer
 62
  256
370
   -1
100
AcDbLine
 10
67.91473388671881
 20
232.9385833740234
 11
67.35195159912109
 21
232.7678680419922
  0
LINE
  5
339
100
AcDbEntity
  8
sheet2
  6
ByLayer
 62
  256
370
   -1
100
AcDbLine
 10
67.35195159912109
 20
232.7678680419922
 11
66.83329010009771
 21
232.4906463623047
  0
LINE
  5
33A
100
AcDbEntity
  8
sheet2
  6
ByLayer
 62
  256
370
   -1
100
AcDbLine
 10
66.83329010009771
 20
232.4906463623047
 11
66.37867736816412
 21
232.1175537109375
  0
LINE
  5
33B
100
AcDbEntity
  8
sheet2
  6
ByLayer
 62
  256
370
   -1
100
AcDbLine
 10
66.37867736816412
 20
232.1175537109375
 11
66.00559234619141
 21
231.6629486083984
  0
LINE
  5
33C
100
AcDbEntity
  8
sheet2
  6
ByLayer
 62
  256
370
   -1
100
AcDbLine
 10
66.00559234619141
 20
231.6629486083984
 11
65.72836303710938
 21
231.1442718505859
  0
LINE
  5
33D
100
AcDbEntity
  8
sheet2
  6
ByLayer
 62
  256
370
   -1
100
AcDbLine
 10
65.72836303710938
 20
231.1442718505859
 11
65.55764770507812
 21
230.5814971923828
  0
LINE
  5
33E
100
AcDbEntity
  8
sheet2
  6
ByLayer
 62
  256
370
   -1
100
AcDbLine
 10
65.55764770507812
 20
230.5814971923828
 11
65.5
 21
229.9962310791016
  0
LINE
  5
33F
100
AcDbEntity
  8
sheet2
  6
ByLayer
 62
  256
370
   -1
100
AcDbLine
 10
65.5
 20
229.9962310791016
 11
65.55764770507812
 21
229.4109649658203
  0
LINE
  5
340
100
AcDbEntity
  8
sheet2
  6
ByLayer
 62
  256
370
   -1
100
AcDbLine
 10
65.55764770507812
 20
229.4109649658203
 11
65.72836303710938
 21
228.8481903076172
  0
LINE
  5
341
100
AcDbEntity
  8
sheet2
  6
ByLayer
 62
  256
370
   -1
100
AcDbLine
 10
65.72836303710938
 20
228.8481903076172
 11
66.00559234619141
 21
228.3295135498047
  0
LINE
  5
342
100
AcDbEntity
  8
sheet2
  6
ByLayer
 62
  256
370
   -1
100
AcDbLine
 10
66.00559234619141
 20
228.3295135498047
 11
66.37867736816412
 21
227.8749084472656
  0
LINE
  5
343
100
AcDbEntity
  8
sheet2
  6
ByLayer
 62
  256
370
   -1
100
AcDbLine
 10
66.37867736816412
 20
227.8749084472656
 11
66.83329010009771
 21
227.5018157958984
  0
LINE
  5
344
100
AcDbEntity
  8
sheet2
  6
ByLayer
 62
  256
370
   -1
100
AcDbLine
 10
66.83329010009771
 20
227.5018157958984
 11
67.35195159912109
 21
227.2245941162109
  0
LINE
  5
345
100
AcDbEntity
  8
sheet2
  6
ByLayer
 62
  256
370
   -1
100
AcDbLine
 10
67.35195159912109
 20
227.2245941162109
 11
67.91473388671881
 21
227.0538787841797
  0
LINE
  5
346
100
AcDbEntity
  8
sheet2
  6
ByLayer
 62
  256
370
   -1
100
AcDbLine
 10
67.91473388671881
 20
227.0538787841797
 11
68.5
 21
226.9962310791016
  0
LINE
  5
347
100
AcDbEntity
  8
sheet2
  6
ByLayer
 62
  256
370
   -1
100
AcDbLine
 10
68.5
 20
226.9962310791016
 11
69.08526611328119
 21
227.0538787841797
  0
LINE
  5
348
100
AcDbEntity
  8
sheet2
  6
ByLayer
 62
  256
370
   -1
100
AcDbLine
 10
69.08526611328119
 20
227.0538787841797
 11
69.64804840087891
 21
227.2245941162109
  0
LINE
  5
349
100
AcDbEntity
  8
sheet2
  6
ByLayer
 62
  256
370
   -1
100
AcDbLine
 10
69.64804840087891
 20
227.2245941162109
 11
70.16670989990229
 21
227.5018157958984
  0
LINE
  5
34A
100
AcDbEntity
  8
sheet2
  6
ByLayer
 62
  256
370
   -1
100
AcDbLine
 10
70.16670989990229
 20
227.5018157958984
 11
70.62132263183588
 21
227.8749084472656
  0
LINE
  5
34B
100
AcDbEntity
  8
sheet2
  6
ByLayer
 62
  256
370
   -1
100
AcDbLine
 10
70.62132263183588
 20
227.8749084472656
 11
70.99440765380859
 21
228.3295135498047
  0
LINE
  5
34C
100
AcDbEntity
  8
sheet2
  6
ByLayer
 62
  256
370
   -1
100
AcDbLine
 10
70.99440765380859
 20
228.3295135498047
 11
71.27163696289062
 21
228.8481903076172
  0
LINE
  5
34D
100
AcDbEntity
  8
sheet2
  6
ByLayer
 62
  256
370
   -1
100
AcDbLine
 10
71.27163696289062
 20
228.8481903076172
 11
71.44235229492188
 21
229.4109649658203
  0
LINE
  5
34E
100
AcDbEntity
  8
sheet2
  6
ByLayer
 62
  256
370
   -1
100
AcDbLine
 10
71.44235229492188
 20
229.4109649658203
 11
71.5
 21
229.9962310791016
  0
LINE
  5
34F
100
AcDbEntity
  8
sheet2
  6
ByLayer
 62
  256
370
   -1
100
AcDbLine
 10
71.5
 20
229.9962310791016
 11
71.44235229492188
 21
230.5814971923828
  0
LINE
  5
350
100
AcDbEntity
  8
sheet2
  6
ByLayer
 62
  256
370
   -1
100
AcDbLine
 10
71.44235229492188
 20
230.5814971923828
 11
71.27163696289062
 21
231.1442718505859
  0
LINE
  5
351
100
AcDbEntity
  8
sheet2
  6
ByLayer
 62
  256
370
   -1
100
AcDbLine
 10
71.27163696289062
 20
231.1442718505859
 11
70.99440765380859
 21
231.6629486083984
  0
LINE
  5
352
100
AcDbEntity
  8
sheet2
  6
ByLayer
 62
  256
370
   -1
100
AcDbLine
 10
70.99440765380859
 20
231.6629486083984
 11
70.62132263183588
 21
232.1175537109375
  0
LINE
  5
353
100
AcDbEntity
  8
sheet2
  6
ByLayer
 62
  256
370
   -1
100
AcDbLine
 10
70.62132263183588
 20
232.1175537109375
 11
70.16670989990229
 21
232.4906463623047
  0
LINE
  5
354
100
AcDbEntity
  8
sheet2
  6
ByLayer
 62
  256
370
   -1
100
AcDbLine
 10
70.16670989990229
 20
232.4906463623047
 11
69.64804840087891
 21
232.7678680419922
  0
LINE
  5
355
100
AcDbEntity
  8
sheet2
  6
ByLayer
 62
  256
370
   -1
100
AcDbLine
 10
69.64804840087891
 20
232.7678680419922
 11
69.08526611328119
 21
232.9385833740234
  0
LINE
  5
356
100
AcDbEntity
  8
sheet2
  6
ByLayer
 62
  256
370
   -1
100
AcDbLine
 10
68.5
 20
232.9962310791016
 11
69.08526611328119
 21
232.9385833740234
  0
LINE
  5
357
100
AcDbEntity
  8
sheet2
  6
ByLayer
 62
  256
370
   -1
100
AcDbLine
 10
68.5
 20
132.9962310791016
 11
67.91473388671881
 21
132.9385833740234
  0
LINE
  5
358
100
AcDbEntity
  8
sheet2
  6
ByLayer
 62
  256
370
   -1
100
AcDbLine
 10
67.91473388671881
 20
132.9385833740234
 11
67.35195159912109
 21
132.7678680419922
  0
LINE
  5
359
100
AcDbEntity
  8
sheet2
  6
ByLayer
 62
  256
370
   -1
100
AcDbLine
 10
67.35195159912109
 20
132.7678680419922
 11
66.83329010009771
 21
132.4906463623047
  0
LINE
  5
35A
100
AcDbEntity
  8
sheet2
  6
ByLayer
 62
  256
370
   -1
100
AcDbLine
 10
66.83329010009771
 20
132.4906463623047
 11
66.37867736816412
 21
132.1175537109375
  0
LINE
  5
35B
100
AcDbEntity
  8
sheet2
  6
ByLayer
 62
  256
370
   -1
100
AcDbLine
 10
66.37867736816412
 20
132.1175537109375
 11
66.00559234619141
 21
131.6629486083984
  0
LINE
  5
35C
100
AcDbEntity
  8
sheet2
  6
ByLayer
 62
  256
370
   -1
100
AcDbLine
 10
66.00559234619141
 20
131.6629486083984
 11
65.72836303710938
 21
131.1442718505859
  0
LINE
  5
35D
100
AcDbEntity
  8
sheet2
  6
ByLayer
 62
  256
370
   -1
100
AcDbLine
 10
65.72836303710938
 20
131.1442718505859
 11
65.55764770507812
 21
130.5814971923828
  0
LINE
  5
35E
100
AcDbEntity
  8
sheet2
  6
ByLayer
 62
  256
370
   -1
100
AcDbLine
 10
65.55764770507812
 20
130.5814971923828
 11
65.5
 21
129.9962310791016
  0
LINE
  5
35F
100
AcDbEntity
  8
sheet2
  6
ByLayer
 62
  256
370
   -1
100
AcDbLine
 10
65.5
 20
129.9962310791016
 11
65.55764770507812
 21
129.4109649658203
  0
LINE
  5
360
100
AcDbEntity
  8
sheet2
  6
ByLayer
 62
  256
370
   -1
100
AcDbLine
 10
65.55764770507812
 20
129.4109649658203
 11
65.72836303710938
 21
128.8481903076172
  0
LINE
  5
361
100
AcDbEntity
  8
sheet2
  6
ByLayer
 62
  256
370
   -1
100
AcDbLine
 10
65.72836303710938
 20
128.8481903076172
 11
66.00559234619141
 21
128.3295135498047
  0
LINE
  5
362
100
AcDbEntity
  8
sheet2
  6
ByLayer
 62
  256
370
   -1
100
AcDbLine
 10
66.00559234619141
 20
128.3295135498047
 11
66.37867736816412
 21
127.8749084472656
  0
LINE
  5
363
100
AcDbEntity
  8
sheet2
  6
ByLayer
 62
  256
370
   -1
100
AcDbLine
 10
66.37867736816412
 20
127.8749084472656
 11
66.83329010009771
 21
127.5018157958984
  0
LINE
  5
364
100
AcDbEntity
  8
sheet2
  6
ByLayer
 62
  256
370
   -1
100
AcDbLine
 10
66.83329010009771
 20
127.5018157958984
 11
67.35195159912109
 21
127.2245941162109
  0
LINE
  5
365
100
AcDbEntity
  8
sheet2
  6
ByLayer
 62
  256
370
   -1
100
AcDbLine
 10
67.35195159912109
 20
127.2245941162109
 11
67.91473388671881
 21
127.0538787841797
  0
LINE
  5
366
100
AcDbEntity
  8
sheet2
  6
ByLayer
 62
  256
370
   -1
100
AcDbLine
 10
67.91473388671881
 20
127.0538787841797
 11
68.5
 21
126.9962310791016
  0
LINE
  5
367
100
AcDbEntity
  8
sheet2
  6
ByLayer
 62
  256
370
   -1
100
AcDbLine
 10
68.5
 20
126.9962310791016
 11
69.08526611328119
 21
127.0538787841797
  0
LINE
  5
368
100
AcDbEntity
  8
sheet2
  6
ByLayer
 62
  256
370
   -1
100
AcDbLine
 10
69.08526611328119
 20
127.0538787841797
 11
69.64804840087891
 21
127.2245941162109
  0
LINE
  5
369
100
AcDbEntity
  8
sheet2
  6
ByLayer
 62
  256
370
   -1
100
AcDbLine
 10
69.64804840087891
 20
127.2245941162109
 11
70.16670989990229
 21
127.5018157958984
  0
LINE
  5
36A
100
AcDbEntity
  8
sheet2
  6
ByLayer
 62
  256
370
   -1
100
AcDbLine
 10
70.16670989990229
 20
127.5018157958984
 11
70.62132263183588
 21
127.8749084472656
  0
LINE
  5
36B
100
AcDbEntity
  8
sheet2
  6
ByLayer
 62
  256
370
   -1
100
AcDbLine
 10
70.62132263183588
 20
127.8749084472656
 11
70.99440765380859
 21
128.3295135498047
  0
LINE
  5
36C
100
AcDbEntity
  8
sheet2
  6
ByLayer
 62
  256
370
   -1
100
AcDbLine
 10
70.99440765380859
 20
128.3295135498047
 11
71.27163696289062
 21
128.8481903076172
  0
LINE
  5
36D
100
AcDbEntity
  8
sheet2
  6
ByLayer
 62
  256
370
   -1
100
AcDbLine
 10
71.27163696289062
 20
128.8481903076172
 11
71.44235229492188
 21
129.4109649658203
  0
LINE
  5
36E
100
AcDbEntity
  8
sheet2
  6
ByLayer
 62
  256
370
   -1
100
AcDbLine
 10
71.44235229492188
 20
129.4109649658203
 11
71.5
 21
129.9962310791016
  0
LINE
  5
36F
100
AcDbEntity
  8
sheet2
  6
ByLayer
 62
  256
370
   -1
100
AcDbLine
 10
71.5
 20
129.9962310791016
 11
71.44235229492188
 21
130.5814971923828
  0
LINE
  5
370
100
AcDbEntity
  8
sheet2
  6
ByLayer
 62
  256
370
   -1
100
AcDbLine
 10
71.44235229492188
 20
130.5814971923828
 11
71.27163696289062
 21
131.1442718505859
  0
LINE
  5
371
100
AcDbEntity
  8
sheet2
  6
ByLayer
 62
  256
370
   -1
100
AcDbLine
 10
71.27163696289062
 20
131.1442718505859
 11
70.99440765380859
 21
131.6629486083984
  0
LINE
  5
372
100
AcDbEntity
  8
sheet2
  6
ByLayer
 62
  256
370
   -1
100
AcDbLine
 10
70.99440765380859
 20
131.6629486083984
 11
70.62132263183588
 21
132.1175537109375
  0
LINE
  5
373
100
AcDbEntity
  8
sheet2
  6
ByLayer
 62
  256
370
   -1
100
AcDbLine
 10
70.62132263183588
 20
132.1175537109375
 11
70.16670989990229
 21
132.4906463623047
  0
LINE
  5
374
100
AcDbEntity
  8
sheet2
  6
ByLayer
 62
  256
370
   -1
100
AcDbLine
 10
70.16670989990229
 20
132.4906463623047
 11
69.64804840087891
 21
132.7678680419922
  0
LINE
  5
375
100
AcDbEntity
  8
sheet2
  6
ByLayer
 62
  256
370
   -1
100
AcDbLine
 10
69.64804840087891
 20
132.7678680419922
 11
69.08526611328119
 21
132.9385833740234
  0
LINE
  5
376
100
AcDbEntity
  8
sheet2
  6
ByLayer
 62
  256
370
   -1
100
AcDbLine
 10
68.5
 20
132.9962310791016
 11
69.08526611328119
 21
132.9385833740234
  0
LINE
  5
377
100
AcDbEntity
  8
sheet2
  6
ByLayer
 62
  256
370
   -1
100
AcDbLine
 10
51
 20
285
 11
51
 21
74.99623107910156
  0
ENDSEC
  0
SECTION
  2
OBJECTS
  0
DICTIONARY
  5
C
330
0
100
AcDbDictionary
281
    1
  3
ACAD_GROUP
350
D
  0
DICTIONARY
  5
D
330
C
100
AcDbDictionary
281
    1
  0
PLOTSETTINGS
  5
378
100
AcDbPlotSettings
  6
1x1
 40
0
 41
0
 42
0
 43
0
  0
ENDSEC
  0
EOF
