  0
SECTION
  2
HEADER
  9
$ACADVER
  1
AC1009
  9
$INSBASE
 10
0.0
 20
0.0
 30
0.0
  9
$EXTMIN
 10
0.0
 20
0.0
 30
0.0
  9
$EXTMAX
 10
0.0
 20
0.0
 30
0.0
  0
ENDSEC
  0
SECTION
  2
TABLES
  0
TABLE
  2
VPORT
 70
1
  0
VPORT
  2
*ACTIVE
 70
0
 10
0.0
 20
0.0
 11
1.0
 21
1.0
 12
-5.0
 22
1.0
 13
0.0
 23
0.0
 14
0.1
 24
0.1
 15
0.1
 25
0.1
 16
0.0
 26
0.0
 36
1.0
 17
0.0
 27
0.0
 37
0.0
 40
10.0
 41
1.0
 42
50.0
 43
0.0
 44
0.0
 50
0.0
 51
0.0
 71
0
 72
100
 73
1
 74
1
 75
0
 76
0
 77
0
 78
0
  0
ENDTAB
  0
TABLE
  2
LTYPE
 70
8
  0
LTYPE
  2
CONTINUOUS
 70
0
  3
Solid line
 72
65
 73
0
 40
0.0
  0
LTYPE
  2
DOT
 70
0
  3
. . . . . . .
 72
65
 73
2
 40
0.25
 49
0.0
 49
-0.25
  0
LTYPE
  2
DASHED
 70
0
  3
__ __ __ __ __
 72
65
 73
2
 40
0.8
 49
0.5
 49
-0.3
  0
LTYPE
  2
DASHDOT
 70
0
  3
__ . __ . __ .
 72
65
 73
4
 40
1.0
 49
0.5
 49
-0.25
 49
0.0
 49
-0.25
  0
LTYPE
  2
DIVIDE
 70
0
  3
____ . . ____ . . 
 72
65
 73
6
 40
1.25
 49
0.5
 49
-0.25
 49
0.0
 49
-0.25
 49
0.0
 49
-0.25
  0
LTYPE
  2
BORDER
 70
0
  3
__ __ . __ __ . 
 72
65
 73
6
 40
1.75
 49
0.5
 49
-0.25
 49
0.5
 49
-0.25
 49
0.0
 49
-0.25
  0
LTYPE
  2
HIDDEN
 70
0
  3
__ __ __ __ __
 72
65
 73
2
 40
0.4
 49
0.25
 49
-0.25
  0
LTYPE
  2
CENTER
 70
0
  3
____ _ ____ _ __
 72
65
 73
4
 40
2.0
 49
1.25
 49
-0.25
 49
0.25
 49
-0.25
  0
ENDTAB
  0
TABLE
  2
LAYER
 70
1
  0
LAYER
  2
PYDXF
 70
64
 62
7
  6
continuous
  0
ENDTAB
  0
TABLE
  2
STYLE
 70
1
  0
STYLE
  2
STANDARD
 70
0
 40
0
 41
1.0
 50
0.0
 71
0
 42
1
 3
ARIAL.TTF
 4

  0
ENDTAB
  0
TABLE
  2
VIEW
 70
1
  0
VIEW
  2
BF_TOPVIEW
 70
0
 40
120.0
 10
0.0
 20
0.0
 41
200.0
 11
0.0
 21
0.0
 31
1.0
 12
0.0
 22
0.0
 32
0.0
 42
50.0
 43
0.0
 44
0.0
 50
0.0
 71
0
  0
ENDTAB
  0
ENDSEC
  0
SECTION
  2
BLOCKS
  0
ENDSEC
  0
SECTION
  2
ENTITIES
  0
LINE
  8
0
 10
-56.666690826416016
 20
168.25003051757812
 30
-4.999993801116943
 11
-56.98491668701172
 21
167.98886108398438
 31
-4.999993801116943
  0
LINE
  8
0
 10
-56.98491668701172
 20
167.98886108398438
 30
-4.999993801116943
 11
-57.24607849121094
 21
167.67063903808594
 31
-4.999993801116943
  0
LINE
  8
0
 10
-57.24607849121094
 20
167.67063903808594
 30
-4.999993801116943
 11
-57.44013977050781
 21
167.3075714111328
 31
-4.999993801116943
  0
LINE
  8
0
 10
-57.44013977050781
 20
167.3075714111328
 30
-4.999993801116943
 11
-57.55964279174805
 21
166.9136199951172
 31
-4.999993801116943
  0
LINE
  8
0
 10
-57.55964279174805
 20
166.9136199951172
 30
-4.999993801116943
 11
-57.59999465942383
 21
166.50393676757812
 31
-4.999993801116943
  0
LINE
  8
0
 10
-54.740177154541016
 20
159.4385986328125
 30
-4.999994277954102
 11
-55.451499938964844
 21
161.7835235595703
 31
-4.999994277954102
  0
LINE
  8
0
 10
-55.451499938964844
 20
161.7835235595703
 30
-4.999994277954102
 11
-56.606624603271484
 21
163.94459533691406
 31
-4.999994277954102
  0
LINE
  8
0
 10
-56.606624603271484
 20
163.94459533691406
 30
-4.999994277954102
 11
-58.16115951538086
 21
165.83880615234375
 31
-4.999994277954102
  0
LINE
  8
0
 10
-58.16115951538086
 20
165.83880615234375
 30
-4.999994277954102
 11
-60.05536651611328
 21
167.39334106445312
 31
-4.999994277954102
  0
LINE
  8
0
 10
-60.05536651611328
 20
167.39334106445312
 30
-4.999994277954102
 11
-62.216453552246094
 21
168.5484619140625
 31
-4.999994277954102
  0
LINE
  8
0
 10
-62.216453552246094
 20
168.5484619140625
 30
-4.999994277954102
 11
-64.56136322021484
 21
169.25978088378906
 31
-4.999994277954102
  0
LINE
  8
0
 10
-64.56136322021484
 20
169.25978088378906
 30
-4.999994277954102
 11
-66.99999237060547
 21
169.49996948242188
 31
-4.999994277954102
  0
LINE
  8
0
 10
-66.99999237060547
 20
169.49996948242188
 30
-4.999994277954102
 11
-69.4386215209961
 21
169.25978088378906
 31
-4.999994277954102
  0
LINE
  8
0
 10
-69.4386215209961
 20
169.25978088378906
 30
-4.999994277954102
 11
-71.78353881835938
 21
168.5484619140625
 31
-4.99999475479126
  0
LINE
  8
0
 10
-71.78353881835938
 20
168.5484619140625
 30
-4.99999475479126
 11
-73.94462585449219
 21
167.39334106445312
 31
-4.99999475479126
  0
LINE
  8
0
 10
-73.94462585449219
 20
167.39334106445312
 30
-4.99999475479126
 11
-75.83882904052734
 21
165.83880615234375
 31
-4.99999475479126
  0
LINE
  8
0
 10
-75.83882904052734
 20
165.83880615234375
 30
-4.99999475479126
 11
-77.39336395263672
 21
163.94459533691406
 31
-4.99999475479126
  0
LINE
  8
0
 10
-77.39336395263672
 20
163.94459533691406
 30
-4.99999475479126
 11
-78.5484848022461
 21
161.78350830078125
 31
-4.999995231628418
  0
LINE
  8
0
 10
-78.5484848022461
 20
161.78350830078125
 30
-4.999995231628418
 11
-79.25981140136719
 21
159.4385986328125
 31
-4.999995231628418
  0
LINE
  8
0
 10
-39.9999885559082
 20
302.0
 30
-4.9999871253967285
 11
-40.0
 21
12.0
 31
-5.0
  0
LINE
  8
0
 10
-57.44013977050781
 20
165.70030212402344
 30
-4.999994277954102
 11
-57.24607849121094
 21
165.3372344970703
 31
-4.999994277954102
  0
LINE
  8
0
 10
-53.440345764160156
 20
166.9136199951172
 30
-4.999993801116943
 11
-53.559844970703125
 21
167.3075714111328
 31
-4.999993801116943
  0
LINE
  8
0
 10
-54.69635772705078
 20
168.44407653808594
 30
-4.999993801116943
 11
-55.090301513671875
 21
168.56358337402344
 31
-4.999993801116943
  0
LINE
  8
0
 10
-57.59999465942383
 20
166.50393676757812
 30
-4.999993801116943
 11
-57.55964279174805
 21
166.09425354003906
 31
-4.999993801116943
  0
LINE
  8
0
 10
-55.090301513671875
 20
168.56358337402344
 30
-4.999993801116943
 11
-55.49999237060547
 21
168.60394287109375
 31
-4.999993801116943
  0
LINE
  8
0
 10
-54.01506805419922
 20
167.98886108398438
 30
-4.999993801116943
 11
-54.33329391479492
 21
168.25003051757812
 31
-4.999993801116943
  0
LINE
  8
0
 10
-53.440345764160156
 20
166.09425354003906
 30
-4.999993801116943
 11
-53.399993896484375
 21
166.50393676757812
 31
-4.999993801116943
  0
LINE
  8
0
 10
-54.69635772705078
 20
164.5637969970703
 30
-4.999993801116943
 11
-55.09030532836914
 21
164.4442901611328
 31
-4.999993801116943
  0
LINE
  8
0
 10
-55.90968322753906
 20
164.4442901611328
 30
-4.999993801116943
 11
-55.49999237060547
 21
164.4039306640625
 31
-4.999993801116943
  0
LINE
  8
0
 10
-53.75390625
 20
165.3372344970703
 30
-4.999993801116943
 11
-53.559844970703125
 21
165.70030212402344
 31
-4.999993801116943
  0
LINE
  8
0
 10
-54.33329391479492
 20
164.75784301757812
 30
-4.999993801116943
 11
-54.01506805419922
 21
165.01901245117188
 31
-4.999993801116943
  0
LINE
  8
0
 10
-56.666690826416016
 20
164.75784301757812
 30
-4.999994277954102
 11
-56.303627014160156
 21
164.5637969970703
 31
-4.999994277954102
  0
LINE
  8
0
 10
-53.559844970703125
 20
167.3075714111328
 30
-4.999993801116943
 11
-53.75390625
 21
167.67063903808594
 31
-4.999993801116943
  0
LINE
  8
0
 10
-57.24607849121094
 20
165.3372344970703
 30
-4.999994277954102
 11
-56.98491668701172
 21
165.01901245117188
 31
-4.999994277954102
  0
LINE
  8
0
 10
-57.55964279174805
 20
166.09425354003906
 30
-4.999993801116943
 11
-57.44013977050781
 21
165.70030212402344
 31
-4.999994277954102
  0
LINE
  8
0
 10
-56.303627014160156
 20
164.5637969970703
 30
-4.999994277954102
 11
-55.90968322753906
 21
164.4442901611328
 31
-4.999993801116943
  0
LINE
  8
0
 10
-55.49999237060547
 20
164.4039306640625
 30
-4.999993801116943
 11
-55.09030532836914
 21
164.4442901611328
 31
-4.999993801116943
  0
LINE
  8
0
 10
-54.69635772705078
 20
164.5637969970703
 30
-4.999993801116943
 11
-54.33329391479492
 21
164.75784301757812
 31
-4.999993801116943
  0
LINE
  8
0
 10
-54.01506805419922
 20
165.01901245117188
 30
-4.999993801116943
 11
-53.75390625
 21
165.3372344970703
 31
-4.999993801116943
  0
LINE
  8
0
 10
-53.559844970703125
 20
165.70030212402344
 30
-4.999993801116943
 11
-53.440345764160156
 21
166.09425354003906
 31
-4.999993801116943
  0
LINE
  8
0
 10
-53.399993896484375
 20
166.50393676757812
 30
-4.999993801116943
 11
-53.440345764160156
 21
166.9136199951172
 31
-4.999993801116943
  0
LINE
  8
0
 10
-54.33329391479492
 20
168.25003051757812
 30
-4.999993801116943
 11
-54.69635772705078
 21
168.44407653808594
 31
-4.999993801116943
  0
LINE
  8
0
 10
-53.75390625
 20
167.67063903808594
 30
-4.999993801116943
 11
-54.01506805419922
 21
167.98886108398438
 31
-4.999993801116943
  0
LINE
  8
0
 10
-56.303627014160156
 20
168.44407653808594
 30
-4.999993801116943
 11
-56.666690826416016
 21
168.25003051757812
 31
-4.999993801116943
  0
LINE
  8
0
 10
-55.49999237060547
 20
168.60394287109375
 30
-4.999993801116943
 11
-55.90968322753906
 21
168.56358337402344
 31
-4.999993801116943
  0
LINE
  8
0
 10
-56.98491668701172
 20
165.01901245117188
 30
-4.999994277954102
 11
-56.666690826416016
 21
164.75784301757812
 31
-4.999994277954102
  0
LINE
  8
0
 10
-81.55964660644531
 20
147.09423828125
 30
-4.999995708465576
 11
-81.59999084472656
 21
147.50393676757812
 31
-4.999995708465576
  0
LINE
  8
0
 10
-81.55964660644531
 20
147.09423828125
 30
-4.999995708465576
 11
-81.44013977050781
 21
146.7003173828125
 31
-4.999995708465576
  0
LINE
  8
0
 10
-81.44013977050781
 20
146.7003173828125
 30
-4.999995708465576
 11
-81.24607849121094
 21
146.33721923828125
 31
-4.999995708465576
  0
LINE
  8
0
 10
-81.24607849121094
 20
146.33721923828125
 30
-4.999995708465576
 11
-80.98491668701172
 21
146.01901245117188
 31
-4.999995708465576
  0
LINE
  8
0
 10
-80.98491668701172
 20
146.01901245117188
 30
-4.999995708465576
 11
-80.66669464111328
 21
145.75784301757812
 31
-4.999995708465576
  0
LINE
  8
0
 10
-80.66669464111328
 20
145.75784301757812
 30
-4.999995708465576
 11
-80.30362701416016
 21
145.56378173828125
 31
-4.999995708465576
  0
LINE
  8
0
 10
-80.30362701416016
 20
145.56378173828125
 30
-4.999995708465576
 11
-79.90968322753906
 21
145.44427490234375
 31
-4.999995708465576
  0
LINE
  8
0
 10
-79.90968322753906
 20
145.44427490234375
 30
-4.999995708465576
 11
-79.49999237060547
 21
145.4039306640625
 31
-4.999995708465576
  0
LINE
  8
0
 10
-79.49999237060547
 20
145.4039306640625
 30
-4.999995708465576
 11
-79.09030151367188
 21
145.44427490234375
 31
-4.999995708465576
  0
LINE
  8
0
 10
-78.69635772705078
 20
145.56378173828125
 30
-4.999995708465576
 11
-78.33329772949219
 21
145.75784301757812
 31
-4.999995708465576
  0
LINE
  8
0
 10
-78.33329772949219
 20
145.75784301757812
 30
-4.999995708465576
 11
-78.01506805419922
 21
146.01901245117188
 31
-4.999995708465576
  0
LINE
  8
0
 10
-78.01506805419922
 20
146.01901245117188
 30
-4.999995708465576
 11
-77.75390625
 21
146.33721923828125
 31
-4.999995708465576
  0
LINE
  8
0
 10
-77.75390625
 20
146.33721923828125
 30
-4.999995708465576
 11
-77.55984497070312
 21
146.7003173828125
 31
-4.999995708465576
  0
LINE
  8
0
 10
-77.55984497070312
 20
146.7003173828125
 30
-4.999995708465576
 11
-77.44034576416016
 21
147.09423828125
 31
-4.999995708465576
  0
LINE
  8
0
 10
-77.44034576416016
 20
147.09423828125
 30
-4.999995708465576
 11
-77.39999389648438
 21
147.50393676757812
 31
-4.999995708465576
  0
LINE
  8
0
 10
-77.39999389648438
 20
147.50393676757812
 30
-4.999995708465576
 11
-77.44034576416016
 21
147.91363525390625
 31
-4.999995708465576
  0
LINE
  8
0
 10
-77.44034576416016
 20
147.91363525390625
 30
-4.999995708465576
 11
-77.55984497070312
 21
148.30755615234375
 31
-4.999995708465576
  0
LINE
  8
0
 10
-77.55984497070312
 20
148.30755615234375
 30
-4.999995708465576
 11
-77.75390625
 21
148.670654296875
 31
-4.999995708465576
  0
LINE
  8
0
 10
-77.75390625
 20
148.670654296875
 30
-4.999995708465576
 11
-78.01506805419922
 21
148.98886108398438
 31
-4.999995708465576
  0
LINE
  8
0
 10
-78.01506805419922
 20
148.98886108398438
 30
-4.999995708465576
 11
-78.33329772949219
 21
149.25003051757812
 31
-4.999995708465576
  0
LINE
  8
0
 10
-78.33329772949219
 20
149.25003051757812
 30
-4.999995708465576
 11
-78.69635772705078
 21
149.444091796875
 31
-4.999995708465576
  0
LINE
  8
0
 10
-78.69635772705078
 20
149.444091796875
 30
-4.999995708465576
 11
-79.09030151367188
 21
149.5635986328125
 31
-4.999995708465576
  0
LINE
  8
0
 10
-79.09030151367188
 20
149.5635986328125
 30
-4.999995708465576
 11
-79.49999237060547
 21
149.60394287109375
 31
-4.999995708465576
  0
LINE
  8
0
 10
-79.49999237060547
 20
149.60394287109375
 30
-4.999995708465576
 11
-79.90968322753906
 21
149.5635986328125
 31
-4.999995708465576
  0
LINE
  8
0
 10
-79.90968322753906
 20
149.5635986328125
 30
-4.999995708465576
 11
-80.30362701416016
 21
149.444091796875
 31
-4.999995708465576
  0
LINE
  8
0
 10
-80.30362701416016
 20
149.444091796875
 30
-4.999995708465576
 11
-80.66669464111328
 21
149.25003051757812
 31
-4.999995708465576
  0
LINE
  8
0
 10
-80.66669464111328
 20
149.25003051757812
 30
-4.999995708465576
 11
-80.98491668701172
 21
148.98886108398438
 31
-4.999995708465576
  0
LINE
  8
0
 10
-80.98491668701172
 20
148.98886108398438
 30
-4.999995708465576
 11
-81.24607849121094
 21
148.670654296875
 31
-4.999995708465576
  0
LINE
  8
0
 10
-81.24607849121094
 20
148.670654296875
 30
-4.999995708465576
 11
-81.44013977050781
 21
148.30755615234375
 31
-4.999995708465576
  0
LINE
  8
0
 10
-81.44013977050781
 20
148.30755615234375
 30
-4.999995708465576
 11
-81.55964660644531
 21
147.91363525390625
 31
-4.999995708465576
  0
LINE
  8
0
 10
-81.55964660644531
 20
147.91363525390625
 30
-4.999995708465576
 11
-81.59999084472656
 21
147.50393676757812
 31
-4.999995708465576
  0
LINE
  8
0
 10
-79.25980377197266
 20
154.56134033203125
 30
-4.999995708465576
 11
-79.49999237060547
 21
156.99996948242188
 31
-4.999995231628418
  0
LINE
  8
0
 10
-79.25980377197266
 20
154.56134033203125
 30
-4.999995708465576
 11
-78.5484848022461
 21
152.2164306640625
 31
-4.999995708465576
  0
LINE
  8
0
 10
-78.5484848022461
 20
152.2164306640625
 30
-4.999995708465576
 11
-77.39335632324219
 21
150.05535888671875
 31
-4.999995708465576
  0
LINE
  8
0
 10
-77.39335632324219
 20
150.05535888671875
 30
-4.999995708465576
 11
-75.83882141113281
 21
148.1611328125
 31
-4.999995708465576
  0
LINE
  8
0
 10
-75.83882141113281
 20
148.1611328125
 30
-4.999995708465576
 11
-73.94461822509766
 21
146.60659790039062
 31
-4.999995708465576
  0
LINE
  8
0
 10
-73.94461822509766
 20
146.60659790039062
 30
-4.999995708465576
 11
-71.78353118896484
 21
145.45147705078125
 31
-4.999995708465576
  0
LINE
  8
0
 10
-71.78353118896484
 20
145.45147705078125
 30
-4.999995708465576
 11
-69.43861389160156
 21
144.74017333984375
 31
-4.999995708465576
  0
LINE
  8
0
 10
-69.43861389160156
 20
144.74017333984375
 30
-4.999995708465576
 11
-66.99998474121094
 21
144.49996948242188
 31
-4.999995231628418
  0
LINE
  8
0
 10
-66.99998474121094
 20
144.49996948242188
 30
-4.999995231628418
 11
-64.56135559082031
 21
144.74017333984375
 31
-4.999995231628418
  0
LINE
  8
0
 10
-64.56135559082031
 20
144.74017333984375
 30
-4.999995231628418
 11
-62.21644592285156
 21
145.45147705078125
 31
-4.999995231628418
  0
LINE
  8
0
 10
-62.21644592285156
 20
145.45147705078125
 30
-4.999995231628418
 11
-60.05535888671875
 21
146.60659790039062
 31
-4.99999475479126
  0
LINE
  8
0
 10
-60.05535888671875
 20
146.60659790039062
 30
-4.99999475479126
 11
-58.16115188598633
 21
148.1611328125
 31
-4.99999475479126
  0
LINE
  8
0
 10
-58.16115188598633
 20
148.1611328125
 30
-4.99999475479126
 11
-56.60661697387695
 21
150.05535888671875
 31
-4.99999475479126
  0
LINE
  8
0
 10
-56.60661697387695
 20
150.05535888671875
 30
-4.99999475479126
 11
-55.45149612426758
 21
152.2164306640625
 31
-4.99999475479126
  0
LINE
  8
0
 10
-55.45149612426758
 20
152.2164306640625
 30
-4.99999475479126
 11
-54.74017333984375
 21
154.56134033203125
 31
-4.999994277954102
  0
LINE
  8
0
 10
-54.74017333984375
 20
154.56134033203125
 30
-4.999994277954102
 11
-54.49999237060547
 21
156.99996948242188
 31
-4.999994277954102
  0
LINE
  8
0
 10
-79.04999542236328
 20
87.5
 30
-4.999998569488525
 11
-78.8184585571289
 21
89.850830078125
 31
-4.999998092651367
  0
LINE
  8
0
 10
-78.8184585571289
 20
89.850830078125
 30
-4.999998092651367
 11
-78.13274383544922
 21
92.111328125
 31
-4.999998092651367
  0
LINE
  8
0
 10
-78.13274383544922
 20
92.111328125
 30
-4.999998092651367
 11
-77.01921081542969
 21
94.19462585449219
 31
-4.999998092651367
  0
LINE
  8
0
 10
-77.01921081542969
 20
94.19462585449219
 30
-4.999998092651367
 11
-75.52063751220703
 21
96.0206298828125
 31
-4.999998092651367
  0
LINE
  8
0
 10
-75.52063751220703
 20
96.0206298828125
 30
-4.999998092651367
 11
-73.69461822509766
 21
97.51921081542969
 31
-4.999997615814209
  0
LINE
  8
0
 10
-73.69461822509766
 20
97.51921081542969
 30
-4.999997615814209
 11
-71.61133575439453
 21
98.63275146484375
 31
-4.999997615814209
  0
LINE
  8
0
 10
-71.61133575439453
 20
98.63275146484375
 30
-4.999997615814209
 11
-69.350830078125
 21
99.31846618652344
 31
-4.999997615814209
  0
LINE
  8
0
 10
-69.350830078125
 20
99.31846618652344
 30
-4.999997615814209
 11
-66.99999237060547
 21
99.55000305175781
 31
-4.999997138977051
  0
LINE
  8
0
 10
-66.99999237060547
 20
99.55000305175781
 30
-4.999997138977051
 11
-64.64915466308594
 21
99.31846618652344
 31
-4.999997138977051
  0
LINE
  8
0
 10
-64.64915466308594
 20
99.31846618652344
 30
-4.999997138977051
 11
-62.3886604309082
 21
98.63275146484375
 31
-4.999997138977051
  0
LINE
  8
0
 10
-62.3886604309082
 20
98.63275146484375
 30
-4.999997138977051
 11
-60.30537414550781
 21
97.51921081542969
 31
-4.999997138977051
  0
LINE
  8
0
 10
-60.30537414550781
 20
97.51921081542969
 30
-4.999997138977051
 11
-58.4793586730957
 21
96.0206298828125
 31
-4.999997138977051
  0
LINE
  8
0
 10
-58.4793586730957
 20
96.0206298828125
 30
-4.999997138977051
 11
-56.98078918457031
 21
94.19462585449219
 31
-4.999997138977051
  0
LINE
  8
0
 10
-56.98078918457031
 20
94.19462585449219
 30
-4.999997138977051
 11
-55.86724853515625
 21
92.111328125
 31
-4.999997138977051
  0
LINE
  8
0
 10
-55.86724853515625
 20
92.111328125
 30
-4.999997138977051
 11
-55.18153381347656
 21
89.850830078125
 31
-4.999997138977051
  0
LINE
  8
0
 10
-55.18153381347656
 20
89.850830078125
 30
-4.999997138977051
 11
-54.94999694824219
 21
87.5
 31
-4.999997138977051
  0
LINE
  8
0
 10
-54.94999694824219
 20
87.5
 30
-4.999997138977051
 11
-55.18153381347656
 21
85.149169921875
 31
-4.999997615814209
  0
LINE
  8
0
 10
-55.18153381347656
 20
85.149169921875
 30
-4.999997615814209
 11
-55.86724853515625
 21
82.888671875
 31
-4.999997615814209
  0
LINE
  8
0
 10
-55.86724853515625
 20
82.888671875
 30
-4.999997615814209
 11
-56.98078918457031
 21
80.80538940429688
 31
-4.999997615814209
  0
LINE
  8
0
 10
-56.98078918457031
 20
80.80538940429688
 30
-4.999997615814209
 11
-58.4793586730957
 21
78.9793701171875
 31
-4.999998092651367
  0
LINE
  8
0
 10
-58.4793586730957
 20
78.9793701171875
 30
-4.999998092651367
 11
-60.30537414550781
 21
77.48078918457031
 31
-4.999998092651367
  0
LINE
  8
0
 10
-60.30537414550781
 20
77.48078918457031
 30
-4.999998092651367
 11
-62.3886604309082
 21
76.36724853515625
 31
-4.999998092651367
  0
LINE
  8
0
 10
-62.3886604309082
 20
76.36724853515625
 30
-4.999998092651367
 11
-64.64916229248047
 21
75.68153381347656
 31
-4.999998092651367
  0
LINE
  8
0
 10
-64.64916229248047
 20
75.68153381347656
 30
-4.999998092651367
 11
-67.0
 21
75.44999694824219
 31
-4.999998569488525
  0
LINE
  8
0
 10
-67.0
 20
75.44999694824219
 30
-4.999998569488525
 11
-69.35083770751953
 21
75.68153381347656
 31
-4.999998569488525
  0
LINE
  8
0
 10
-69.35083770751953
 20
75.68153381347656
 30
-4.999998569488525
 11
-71.61133575439453
 21
76.36724853515625
 31
-4.999998569488525
  0
LINE
  8
0
 10
-71.61133575439453
 20
76.36724853515625
 30
-4.999998569488525
 11
-73.69461822509766
 21
77.48078918457031
 31
-4.999998569488525
  0
LINE
  8
0
 10
-73.69461822509766
 20
77.48078918457031
 30
-4.999998569488525
 11
-75.52063751220703
 21
78.9793701171875
 31
-4.999998569488525
  0
LINE
  8
0
 10
-75.52063751220703
 20
78.9793701171875
 30
-4.999998569488525
 11
-77.01921081542969
 21
80.80538940429688
 31
-4.999998569488525
  0
LINE
  8
0
 10
-77.01921081542969
 20
80.80538940429688
 30
-4.999998569488525
 11
-78.13274383544922
 21
82.888671875
 31
-4.999998569488525
  0
LINE
  8
0
 10
-78.13274383544922
 20
82.888671875
 30
-4.999998569488525
 11
-78.8184585571289
 21
85.149169921875
 31
-4.999998569488525
  0
LINE
  8
0
 10
-79.04999542236328
 20
87.5
 30
-4.999998569488525
 11
-78.8184585571289
 21
85.149169921875
 31
-4.999998569488525
  0
LINE
  8
0
 10
-79.04999542236328
 20
57.5
 30
-4.999999523162842
 11
-78.8184585571289
 21
59.850830078125
 31
-4.999999523162842
  0
LINE
  8
0
 10
-78.8184585571289
 20
59.850830078125
 30
-4.999999523162842
 11
-78.13274383544922
 21
62.111328125
 31
-4.999999523162842
  0
LINE
  8
0
 10
-78.13274383544922
 20
62.111328125
 30
-4.999999523162842
 11
-77.01921081542969
 21
64.19462585449219
 31
-4.999999523162842
  0
LINE
  8
0
 10
-77.01921081542969
 20
64.19462585449219
 30
-4.999999523162842
 11
-75.52063751220703
 21
66.0206298828125
 31
-4.999999046325684
  0
LINE
  8
0
 10
-75.52063751220703
 20
66.0206298828125
 30
-4.999999046325684
 11
-73.69461822509766
 21
67.51921081542969
 31
-4.999999046325684
  0
LINE
  8
0
 10
-73.69461822509766
 20
67.51921081542969
 30
-4.999999046325684
 11
-71.61133575439453
 21
68.63275146484375
 31
-4.999999046325684
  0
LINE
  8
0
 10
-71.61133575439453
 20
68.63275146484375
 30
-4.999999046325684
 11
-69.35083770751953
 21
69.31846618652344
 31
-4.999998569488525
  0
LINE
  8
0
 10
-69.35083770751953
 20
69.31846618652344
 30
-4.999998569488525
 11
-67.0
 21
69.55000305175781
 31
-4.999998569488525
  0
LINE
  8
0
 10
-67.0
 20
69.55000305175781
 30
-4.999998569488525
 11
-64.64916229248047
 21
69.31846618652344
 31
-4.999998569488525
  0
LINE
  8
0
 10
-64.64916229248047
 20
69.31846618652344
 30
-4.999998569488525
 11
-62.3886604309082
 21
68.63275146484375
 31
-4.999998569488525
  0
LINE
  8
0
 10
-62.3886604309082
 20
68.63275146484375
 30
-4.999998569488525
 11
-60.30537414550781
 21
67.51921081542969
 31
-4.999998569488525
  0
LINE
  8
0
 10
-60.30537414550781
 20
67.51921081542969
 30
-4.999998569488525
 11
-58.4793586730957
 21
66.0206298828125
 31
-4.999998569488525
  0
LINE
  8
0
 10
-58.4793586730957
 20
66.0206298828125
 30
-4.999998569488525
 11
-56.98078918457031
 21
64.19462585449219
 31
-4.999998569488525
  0
LINE
  8
0
 10
-56.98078918457031
 20
64.19462585449219
 30
-4.999998569488525
 11
-55.86724853515625
 21
62.111328125
 31
-4.999998569488525
  0
LINE
  8
0
 10
-55.86724853515625
 20
62.111328125
 30
-4.999998569488525
 11
-55.18153381347656
 21
59.850830078125
 31
-4.999998569488525
  0
LINE
  8
0
 10
-55.18153381347656
 20
59.850830078125
 30
-4.999998569488525
 11
-54.94999694824219
 21
57.5
 31
-4.999998569488525
  0
LINE
  8
0
 10
-54.94999694824219
 20
57.5
 30
-4.999998569488525
 11
-55.18153762817383
 21
55.149169921875
 31
-4.999998569488525
  0
LINE
  8
0
 10
-55.18153762817383
 20
55.149169921875
 30
-4.999998569488525
 11
-55.86724853515625
 21
52.888671875
 31
-4.999999046325684
  0
LINE
  8
0
 10
-55.86724853515625
 20
52.888671875
 30
-4.999999046325684
 11
-56.98078918457031
 21
50.805389404296875
 31
-4.999999046325684
  0
LINE
  8
0
 10
-56.98078918457031
 20
50.805389404296875
 30
-4.999999046325684
 11
-58.47936248779297
 21
48.9793701171875
 31
-4.999999046325684
  0
LINE
  8
0
 10
-58.47936248779297
 20
48.9793701171875
 30
-4.999999046325684
 11
-60.30537796020508
 21
47.48078918457031
 31
-4.999999523162842
  0
LINE
  8
0
 10
-60.30537796020508
 20
47.48078918457031
 30
-4.999999523162842
 11
-62.38866424560547
 21
46.36724853515625
 31
-4.999999523162842
  0
LINE
  8
0
 10
-62.38866424560547
 20
46.36724853515625
 30
-4.999999523162842
 11
-64.64916229248047
 21
45.6815185546875
 31
-4.999999523162842
  0
LINE
  8
0
 10
-64.64916229248047
 20
45.6815185546875
 30
-4.999999523162842
 11
-67.0
 21
45.45001220703125
 31
-4.999999523162842
  0
LINE
  8
0
 10
-67.0
 20
45.45001220703125
 30
-4.999999523162842
 11
-69.35083770751953
 21
45.6815185546875
 31
-5.0
  0
LINE
  8
0
 10
-69.35083770751953
 20
45.6815185546875
 30
-5.0
 11
-71.61133575439453
 21
46.36724853515625
 31
-5.0
  0
LINE
  8
0
 10
-71.61133575439453
 20
46.36724853515625
 30
-5.0
 11
-73.69461822509766
 21
47.48078918457031
 31
-5.0
  0
LINE
  8
0
 10
-73.69461822509766
 20
47.48078918457031
 30
-5.0
 11
-75.52063751220703
 21
48.9793701171875
 31
-5.0
  0
LINE
  8
0
 10
-75.52063751220703
 20
48.9793701171875
 30
-5.0
 11
-77.01921081542969
 21
50.805389404296875
 31
-5.0
  0
LINE
  8
0
 10
-77.01921081542969
 20
50.805389404296875
 30
-5.0
 11
-78.13274383544922
 21
52.888671875
 31
-5.0
  0
LINE
  8
0
 10
-78.13274383544922
 20
52.888671875
 30
-5.0
 11
-78.8184585571289
 21
55.149169921875
 31
-5.0
  0
LINE
  8
0
 10
-79.04999542236328
 20
57.5
 30
-4.999999523162842
 11
-78.8184585571289
 21
55.149169921875
 31
-5.0
  0
LINE
  8
0
 10
-79.04999542236328
 20
117.5
 30
-4.999997138977051
 11
-78.8184585571289
 21
119.850830078125
 31
-4.999997138977051
  0
LINE
  8
0
 10
-78.8184585571289
 20
119.850830078125
 30
-4.999997138977051
 11
-78.13274383544922
 21
122.111328125
 31
-4.999996662139893
  0
LINE
  8
0
 10
-78.13274383544922
 20
122.111328125
 30
-4.999996662139893
 11
-77.01920318603516
 21
124.19462585449219
 31
-4.999996662139893
  0
LINE
  8
0
 10
-77.01920318603516
 20
124.19462585449219
 30
-4.999996662139893
 11
-75.5206298828125
 21
126.0206298828125
 31
-4.999996662139893
  0
LINE
  8
0
 10
-75.5206298828125
 20
126.0206298828125
 30
-4.999996662139893
 11
-73.69461822509766
 21
127.51921081542969
 31
-4.999996185302734
  0
LINE
  8
0
 10
-73.69461822509766
 20
127.51921081542969
 30
-4.999996185302734
 11
-71.611328125
 21
128.63275146484375
 31
-4.999996185302734
  0
LINE
  8
0
 10
-71.611328125
 20
128.63275146484375
 30
-4.999996185302734
 11
-69.350830078125
 21
129.31846618652344
 31
-4.999996185302734
  0
LINE
  8
0
 10
-69.350830078125
 20
129.31846618652344
 30
-4.999996185302734
 11
-66.99999237060547
 21
129.5500030517578
 31
-4.999996185302734
  0
LINE
  8
0
 10
-66.99999237060547
 20
129.5500030517578
 30
-4.999996185302734
 11
-64.64915466308594
 21
129.31846618652344
 31
-4.999996185302734
  0
LINE
  8
0
 10
-64.64915466308594
 20
129.31846618652344
 30
-4.999996185302734
 11
-62.3886604309082
 21
128.63275146484375
 31
-4.999995708465576
  0
LINE
  8
0
 10
-62.3886604309082
 20
128.63275146484375
 30
-4.999995708465576
 11
-60.30537414550781
 21
127.51921081542969
 31
-4.999995708465576
  0
LINE
  8
0
 10
-60.30537414550781
 20
127.51921081542969
 30
-4.999995708465576
 11
-58.4793586730957
 21
126.0206298828125
 31
-4.999995708465576
  0
LINE
  8
0
 10
-58.4793586730957
 20
126.0206298828125
 30
-4.999995708465576
 11
-56.98078536987305
 21
124.19462585449219
 31
-4.999995708465576
  0
LINE
  8
0
 10
-56.98078536987305
 20
124.19462585449219
 30
-4.999995708465576
 11
-55.867244720458984
 21
122.111328125
 31
-4.999995708465576
  0
LINE
  8
0
 10
-55.867244720458984
 20
122.111328125
 30
-4.999995708465576
 11
-55.18153381347656
 21
119.850830078125
 31
-4.999996185302734
  0
LINE
  8
0
 10
-55.18153381347656
 20
119.850830078125
 30
-4.999996185302734
 11
-54.94999694824219
 21
117.5
 31
-4.999996185302734
  0
LINE
  8
0
 10
-54.94999694824219
 20
117.5
 30
-4.999996185302734
 11
-55.18153381347656
 21
115.149169921875
 31
-4.999996185302734
  0
LINE
  8
0
 10
-55.18153381347656
 20
115.149169921875
 30
-4.999996185302734
 11
-55.86724853515625
 21
112.888671875
 31
-4.999996185302734
  0
LINE
  8
0
 10
-55.86724853515625
 20
112.888671875
 30
-4.999996185302734
 11
-56.98078536987305
 21
110.80538940429688
 31
-4.999996185302734
  0
LINE
  8
0
 10
-56.98078536987305
 20
110.80538940429688
 30
-4.999996185302734
 11
-58.4793586730957
 21
108.9793701171875
 31
-4.999996662139893
  0
LINE
  8
0
 10
-58.4793586730957
 20
108.9793701171875
 30
-4.999996662139893
 11
-60.30537414550781
 21
107.48078918457031
 31
-4.999996662139893
  0
LINE
  8
0
 10
-60.30537414550781
 20
107.48078918457031
 30
-4.999996662139893
 11
-62.3886604309082
 21
106.36724853515625
 31
-4.999996662139893
  0
LINE
  8
0
 10
-62.3886604309082
 20
106.36724853515625
 30
-4.999996662139893
 11
-64.64915466308594
 21
105.68153381347656
 31
-4.999997138977051
  0
LINE
  8
0
 10
-64.64915466308594
 20
105.68153381347656
 30
-4.999997138977051
 11
-66.99999237060547
 21
105.44999694824219
 31
-4.999997138977051
  0
LINE
  8
0
 10
-66.99999237060547
 20
105.44999694824219
 30
-4.999997138977051
 11
-69.350830078125
 21
105.68153381347656
 31
-4.999997138977051
  0
LINE
  8
0
 10
-69.350830078125
 20
105.68153381347656
 30
-4.999997138977051
 11
-71.611328125
 21
106.36724853515625
 31
-4.999997138977051
  0
LINE
  8
0
 10
-71.611328125
 20
106.36724853515625
 30
-4.999997138977051
 11
-73.69461822509766
 21
107.48078918457031
 31
-4.999997138977051
  0
LINE
  8
0
 10
-73.69461822509766
 20
107.48078918457031
 30
-4.999997138977051
 11
-75.5206298828125
 21
108.9793701171875
 31
-4.999997138977051
  0
LINE
  8
0
 10
-75.5206298828125
 20
108.9793701171875
 30
-4.999997138977051
 11
-77.01920318603516
 21
110.80538940429688
 31
-4.999997138977051
  0
LINE
  8
0
 10
-77.01920318603516
 20
110.80538940429688
 30
-4.999997138977051
 11
-78.13274383544922
 21
112.888671875
 31
-4.999997138977051
  0
LINE
  8
0
 10
-78.13274383544922
 20
112.888671875
 30
-4.999997138977051
 11
-78.8184585571289
 21
115.149169921875
 31
-4.999997138977051
  0
LINE
  8
0
 10
-79.04999542236328
 20
117.5
 30
-4.999997138977051
 11
-78.8184585571289
 21
115.149169921875
 31
-4.999997138977051
  0
LINE
  8
0
 10
-90.99998474121094
 20
302.0
 30
-4.9999895095825195
 11
-39.9999885559082
 21
302.0
 31
-4.9999871253967285
  0
LINE
  8
0
 10
-90.99998474121094
 20
302.0
 30
-4.9999895095825195
 11
-91.0
 21
12.000001907348633
 31
-5.000002384185791
  0
LINE
  8
0
 10
-54.740177154541016
 20
159.4385986328125
 30
-4.999994277954102
 11
-54.49999237060547
 21
156.99996948242188
 31
-4.999994277954102
  0
LINE
  8
0
 10
-79.25981140136719
 20
159.4385986328125
 30
-4.999995231628418
 11
-79.49999237060547
 21
156.99996948242188
 31
-4.999995231628418
  0
LINE
  8
0
 10
-40.0
 20
12.0
 30
-5.0
 11
-91.0
 21
12.000001907348633
 31
-5.000002384185791
  0
ENDSEC
  0
EOF
