  0
SECTION
  2
HEADER
  9
$ACADVER
  1
AC1009
  9
$INSBASE
 10
0.0
 20
0.0
 30
0.0
  9
$EXTMIN
 10
0.0
 20
0.0
 30
0.0
  9
$EXTMAX
 10
0.0
 20
0.0
 30
0.0
  0
ENDSEC
  0
SECTION
  2
TABLES
  0
TABLE
  2
VPORT
 70
1
  0
VPORT
  2
*ACTIVE
 70
0
 10
0.0
 20
0.0
 11
1.0
 21
1.0
 12
-5.0
 22
1.0
 13
0.0
 23
0.0
 14
0.1
 24
0.1
 15
0.1
 25
0.1
 16
0.0
 26
0.0
 36
1.0
 17
0.0
 27
0.0
 37
0.0
 40
10.0
 41
1.0
 42
50.0
 43
0.0
 44
0.0
 50
0.0
 51
0.0
 71
0
 72
100
 73
1
 74
1
 75
0
 76
0
 77
0
 78
0
  0
ENDTAB
  0
TABLE
  2
LTYPE
 70
8
  0
LTYPE
  2
CONTINUOUS
 70
0
  3
Solid line
 72
65
 73
0
 40
0.0
  0
LTYPE
  2
DOT
 70
0
  3
. . . . . . .
 72
65
 73
2
 40
0.25
 49
0.0
 49
-0.25
  0
LTYPE
  2
DASHED
 70
0
  3
__ __ __ __ __
 72
65
 73
2
 40
0.8
 49
0.5
 49
-0.3
  0
LTYPE
  2
DASHDOT
 70
0
  3
__ . __ . __ .
 72
65
 73
4
 40
1.0
 49
0.5
 49
-0.25
 49
0.0
 49
-0.25
  0
LTYPE
  2
DIVIDE
 70
0
  3
____ . . ____ . . 
 72
65
 73
6
 40
1.25
 49
0.5
 49
-0.25
 49
0.0
 49
-0.25
 49
0.0
 49
-0.25
  0
LTYPE
  2
BORDER
 70
0
  3
__ __ . __ __ . 
 72
65
 73
6
 40
1.75
 49
0.5
 49
-0.25
 49
0.5
 49
-0.25
 49
0.0
 49
-0.25
  0
LTYPE
  2
HIDDEN
 70
0
  3
__ __ __ __ __
 72
65
 73
2
 40
0.4
 49
0.25
 49
-0.25
  0
LTYPE
  2
CENTER
 70
0
  3
____ _ ____ _ __
 72
65
 73
4
 40
2.0
 49
1.25
 49
-0.25
 49
0.25
 49
-0.25
  0
ENDTAB
  0
TABLE
  2
LAYER
 70
1
  0
LAYER
  2
PYDXF
 70
64
 62
7
  6
continuous
  0
ENDTAB
  0
TABLE
  2
STYLE
 70
1
  0
STYLE
  2
STANDARD
 70
0
 40
0
 41
1.0
 50
0.0
 71
0
 42
1
 3
ARIAL.TTF
 4

  0
ENDTAB
  0
TABLE
  2
VIEW
 70
1
  0
VIEW
  2
BF_TOPVIEW
 70
0
 40
120.0
 10
0.0
 20
0.0
 41
200.0
 11
0.0
 21
0.0
 31
1.0
 12
0.0
 22
0.0
 32
0.0
 42
50.0
 43
0.0
 44
0.0
 50
0.0
 71
0
  0
ENDTAB
  0
ENDSEC
  0
SECTION
  2
BLOCKS
  0
ENDSEC
  0
SECTION
  2
ENTITIES
  0
LINE
  8
0
 10
-115.77784729003906
 20
12.8426513671875
 30
5.000005722045898
 11
-116.53553771972656
 21
13.464469909667969
 31
5.000005722045898
  0
LINE
  8
0
 10
-114.91341400146484
 20
12.380599975585938
 30
5.000005722045898
 11
-115.77784729003906
 21
12.8426513671875
 31
5.000005722045898
  0
LINE
  8
0
 10
-113.97544860839844
 20
12.096076965332031
 30
5.000005722045898
 11
-114.91341400146484
 21
12.380599975585938
 31
5.000005722045898
  0
LINE
  8
0
 10
-113.0
 20
12.0
 30
5.000005722045898
 11
-113.97544860839844
 21
12.096076965332031
 31
5.000005722045898
  0
LINE
  8
0
 10
-117.90392303466797
 20
227.97923278808594
 30
5.000005722045898
 11
-118.0
 21
227.00376892089844
 31
5.000005722045898
  0
LINE
  8
0
 10
-116.53553771972656
 20
13.464469909667969
 30
5.000005722045898
 11
-117.1573486328125
 21
14.222152709960938
 31
5.000005722045898
  0
LINE
  8
0
 10
-117.1573486328125
 20
14.222152709960938
 30
5.000005722045898
 11
-117.61940002441406
 21
15.086585998535156
 31
5.000005722045898
  0
LINE
  8
0
 10
-117.61940002441406
 20
15.086585998535156
 30
5.000005722045898
 11
-117.90392303466797
 21
16.024551391601562
 31
5.000005722045898
  0
LINE
  8
0
 10
-117.90392303466797
 20
16.024551391601562
 30
5.000005722045898
 11
-118.0
 21
17.0
 31
5.000005722045898
  0
LINE
  8
0
 10
-117.90392303466797
 20
227.97923278808594
 30
5.000005722045898
 11
-117.61940002441406
 21
228.9171905517578
 31
5.000005722045898
  0
LINE
  8
0
 10
-117.61940002441406
 20
228.9171905517578
 30
5.000005722045898
 11
-117.1573486328125
 21
229.78163146972656
 31
5.000005722045898
  0
LINE
  8
0
 10
-117.1573486328125
 20
229.78163146972656
 30
5.000005722045898
 11
-116.53553771972656
 21
230.539306640625
 31
5.000005722045898
  0
LINE
  8
0
 10
-116.53553771972656
 20
230.539306640625
 30
5.000005722045898
 11
-115.77784729003906
 21
231.16111755371094
 31
5.000005722045898
  0
LINE
  8
0
 10
-115.77784729003906
 20
231.16111755371094
 30
5.000005722045898
 11
-114.91341400146484
 21
231.62318420410156
 31
5.000005722045898
  0
LINE
  8
0
 10
-114.91341400146484
 20
231.62318420410156
 30
5.000005722045898
 11
-113.97544860839844
 21
231.90769958496094
 31
5.000005722045898
  0
LINE
  8
0
 10
-113.97544860839844
 20
231.90769958496094
 30
5.000005722045898
 11
-113.0
 21
232.00376892089844
 31
5.000005722045898
  0
LINE
  8
0
 10
-113.0
 20
12.0
 30
5.000005722045898
 11
-40.0
 21
12.0
 31
5.0
  0
LINE
  8
0
 10
-113.0
 20
232.00376892089844
 30
5.000005722045898
 11
-40.0
 21
232.00376892089844
 31
5.0
  0
LINE
  8
0
 10
-47.0
 20
30.0
 30
5.000000476837158
 11
-47.585269927978516
 21
29.942352294921875
 31
5.000000476837158
  0
LINE
  8
0
 10
-47.585269927978516
 20
29.942352294921875
 30
5.000000476837158
 11
-48.148048400878906
 21
29.771636962890625
 31
5.000000476837158
  0
LINE
  8
0
 10
-48.148048400878906
 20
29.771636962890625
 30
5.000000476837158
 11
-48.666709899902344
 21
29.494407653808594
 31
5.000000476837158
  0
LINE
  8
0
 10
-48.666709899902344
 20
29.494407653808594
 30
5.000000476837158
 11
-49.12132263183594
 21
29.121322631835938
 31
5.000000476837158
  0
LINE
  8
0
 10
-49.12132263183594
 20
29.121322631835938
 30
5.000000476837158
 11
-49.494407653808594
 21
28.666709899902344
 31
5.000000953674316
  0
LINE
  8
0
 10
-49.494407653808594
 20
28.666709899902344
 30
5.000000953674316
 11
-49.771636962890625
 21
28.148048400878906
 31
5.000000953674316
  0
LINE
  8
0
 10
-49.771636962890625
 20
28.148048400878906
 30
5.000000953674316
 11
-49.94235610961914
 21
27.58527374267578
 31
5.000000953674316
  0
LINE
  8
0
 10
-49.94235610961914
 20
27.58527374267578
 30
5.000000953674316
 11
-50.0
 21
27.0
 31
5.000000953674316
  0
LINE
  8
0
 10
-50.0
 20
27.0
 30
5.000000953674316
 11
-49.94235610961914
 21
26.41472625732422
 31
5.000000953674316
  0
LINE
  8
0
 10
-49.94235610961914
 20
26.41472625732422
 30
5.000000953674316
 11
-49.771636962890625
 21
25.851951599121094
 31
5.000000953674316
  0
LINE
  8
0
 10
-49.771636962890625
 20
25.851951599121094
 30
5.000000953674316
 11
-49.494407653808594
 21
25.333290100097656
 31
5.000000953674316
  0
LINE
  8
0
 10
-49.494407653808594
 20
25.333290100097656
 30
5.000000953674316
 11
-49.12132263183594
 21
24.878677368164062
 31
5.000000476837158
  0
LINE
  8
0
 10
-49.12132263183594
 20
24.878677368164062
 30
5.000000476837158
 11
-48.666709899902344
 21
24.505592346191406
 31
5.000000476837158
  0
LINE
  8
0
 10
-48.666709899902344
 20
24.505592346191406
 30
5.000000476837158
 11
-48.148048400878906
 21
24.228363037109375
 31
5.000000476837158
  0
LINE
  8
0
 10
-48.148048400878906
 20
24.228363037109375
 30
5.000000476837158
 11
-47.585269927978516
 21
24.057647705078125
 31
5.000000476837158
  0
LINE
  8
0
 10
-47.585269927978516
 20
24.057647705078125
 30
5.000000476837158
 11
-47.0
 21
24.0
 31
5.000000476837158
  0
LINE
  8
0
 10
-47.0
 20
24.0
 30
5.000000476837158
 11
-46.414730072021484
 21
24.057647705078125
 31
5.000000476837158
  0
LINE
  8
0
 10
-46.414730072021484
 20
24.057647705078125
 30
5.000000476837158
 11
-45.851951599121094
 21
24.228363037109375
 31
5.000000476837158
  0
LINE
  8
0
 10
-45.851951599121094
 20
24.228363037109375
 30
5.000000476837158
 11
-45.333290100097656
 21
24.505592346191406
 31
5.000000476837158
  0
LINE
  8
0
 10
-45.333290100097656
 20
24.505592346191406
 30
5.000000476837158
 11
-44.87868118286133
 21
24.878677368164062
 31
5.000000476837158
  0
LINE
  8
0
 10
-44.87868118286133
 20
24.878677368164062
 30
5.000000476837158
 11
-44.505592346191406
 21
25.333290100097656
 31
5.000000476837158
  0
LINE
  8
0
 10
-44.505592346191406
 20
25.333290100097656
 30
5.000000476837158
 11
-44.228363037109375
 21
25.851951599121094
 31
5.000000476837158
  0
LINE
  8
0
 10
-44.228363037109375
 20
25.851951599121094
 30
5.000000476837158
 11
-44.05764389038086
 21
26.41472625732422
 31
5.000000476837158
  0
LINE
  8
0
 10
-44.05764389038086
 20
26.41472625732422
 30
5.000000476837158
 11
-44.0
 21
27.0
 31
5.000000476837158
  0
LINE
  8
0
 10
-44.0
 20
27.0
 30
5.000000476837158
 11
-44.05764389038086
 21
27.58527374267578
 31
5.000000476837158
  0
LINE
  8
0
 10
-44.05764389038086
 20
27.58527374267578
 30
5.000000476837158
 11
-44.228363037109375
 21
28.148048400878906
 31
5.000000476837158
  0
LINE
  8
0
 10
-44.228363037109375
 20
28.148048400878906
 30
5.000000476837158
 11
-44.505592346191406
 21
28.666709899902344
 31
5.000000476837158
  0
LINE
  8
0
 10
-44.505592346191406
 20
28.666709899902344
 30
5.000000476837158
 11
-44.87868118286133
 21
29.121322631835938
 31
5.000000476837158
  0
LINE
  8
0
 10
-44.87868118286133
 20
29.121322631835938
 30
5.000000476837158
 11
-45.333290100097656
 21
29.494407653808594
 31
5.000000476837158
  0
LINE
  8
0
 10
-45.333290100097656
 20
29.494407653808594
 30
5.000000476837158
 11
-45.851951599121094
 21
29.771636962890625
 31
5.000000476837158
  0
LINE
  8
0
 10
-45.851951599121094
 20
29.771636962890625
 30
5.000000476837158
 11
-46.414730072021484
 21
29.942352294921875
 31
5.000000476837158
  0
LINE
  8
0
 10
-47.0
 20
30.0
 30
5.000000476837158
 11
-46.414730072021484
 21
29.942352294921875
 31
5.000000476837158
  0
LINE
  8
0
 10
-65.5
 20
30.0
 30
5.000001907348633
 11
-66.08527374267578
 21
29.942352294921875
 31
5.000001907348633
  0
LINE
  8
0
 10
-66.08527374267578
 20
29.942352294921875
 30
5.000001907348633
 11
-66.6480484008789
 21
29.771636962890625
 31
5.000001907348633
  0
LINE
  8
0
 10
-66.6480484008789
 20
29.771636962890625
 30
5.000001907348633
 11
-67.16670989990234
 21
29.494407653808594
 31
5.000001907348633
  0
LINE
  8
0
 10
-67.16670989990234
 20
29.494407653808594
 30
5.000001907348633
 11
-67.62132263183594
 21
29.121322631835938
 31
5.000001907348633
  0
LINE
  8
0
 10
-67.62132263183594
 20
29.121322631835938
 30
5.000001907348633
 11
-67.9944076538086
 21
28.666709899902344
 31
5.000001907348633
  0
LINE
  8
0
 10
-67.9944076538086
 20
28.666709899902344
 30
5.000001907348633
 11
-68.27163696289062
 21
28.148048400878906
 31
5.000001907348633
  0
LINE
  8
0
 10
-68.27163696289062
 20
28.148048400878906
 30
5.000001907348633
 11
-68.44235229492188
 21
27.58527374267578
 31
5.000002384185791
  0
LINE
  8
0
 10
-68.44235229492188
 20
27.58527374267578
 30
5.000002384185791
 11
-68.5
 21
27.0
 31
5.000002384185791
  0
LINE
  8
0
 10
-68.5
 20
27.0
 30
5.000002384185791
 11
-68.44235229492188
 21
26.41472625732422
 31
5.000002384185791
  0
LINE
  8
0
 10
-68.44235229492188
 20
26.41472625732422
 30
5.000002384185791
 11
-68.27163696289062
 21
25.851951599121094
 31
5.000001907348633
  0
LINE
  8
0
 10
-68.27163696289062
 20
25.851951599121094
 30
5.000001907348633
 11
-67.9944076538086
 21
25.333290100097656
 31
5.000001907348633
  0
LINE
  8
0
 10
-67.9944076538086
 20
25.333290100097656
 30
5.000001907348633
 11
-67.62132263183594
 21
24.878677368164062
 31
5.000001907348633
  0
LINE
  8
0
 10
-67.62132263183594
 20
24.878677368164062
 30
5.000001907348633
 11
-67.16670989990234
 21
24.505592346191406
 31
5.000001907348633
  0
LINE
  8
0
 10
-67.16670989990234
 20
24.505592346191406
 30
5.000001907348633
 11
-66.6480484008789
 21
24.228363037109375
 31
5.000001907348633
  0
LINE
  8
0
 10
-66.6480484008789
 20
24.228363037109375
 30
5.000001907348633
 11
-66.08527374267578
 21
24.057647705078125
 31
5.000001907348633
  0
LINE
  8
0
 10
-66.08527374267578
 20
24.057647705078125
 30
5.000001907348633
 11
-65.5
 21
24.0
 31
5.000001907348633
  0
LINE
  8
0
 10
-65.5
 20
24.0
 30
5.000001907348633
 11
-64.91472625732422
 21
24.057647705078125
 31
5.000001907348633
  0
LINE
  8
0
 10
-64.91472625732422
 20
24.057647705078125
 30
5.000001907348633
 11
-64.3519515991211
 21
24.228363037109375
 31
5.000001907348633
  0
LINE
  8
0
 10
-64.3519515991211
 20
24.228363037109375
 30
5.000001907348633
 11
-63.833290100097656
 21
24.505592346191406
 31
5.000001907348633
  0
LINE
  8
0
 10
-63.833290100097656
 20
24.505592346191406
 30
5.000001907348633
 11
-63.37867736816406
 21
24.878677368164062
 31
5.000001907348633
  0
LINE
  8
0
 10
-63.37867736816406
 20
24.878677368164062
 30
5.000001907348633
 11
-63.005592346191406
 21
25.333290100097656
 31
5.000001907348633
  0
LINE
  8
0
 10
-63.005592346191406
 20
25.333290100097656
 30
5.000001907348633
 11
-62.728363037109375
 21
25.851951599121094
 31
5.000001907348633
  0
LINE
  8
0
 10
-62.728363037109375
 20
25.851951599121094
 30
5.000001907348633
 11
-62.55764389038086
 21
26.41472625732422
 31
5.000001907348633
  0
LINE
  8
0
 10
-62.55764389038086
 20
26.41472625732422
 30
5.000001907348633
 11
-62.5
 21
27.0
 31
5.000001907348633
  0
LINE
  8
0
 10
-62.5
 20
27.0
 30
5.000001907348633
 11
-62.55764389038086
 21
27.58527374267578
 31
5.000001907348633
  0
LINE
  8
0
 10
-62.55764389038086
 20
27.58527374267578
 30
5.000001907348633
 11
-62.728363037109375
 21
28.148048400878906
 31
5.000001907348633
  0
LINE
  8
0
 10
-62.728363037109375
 20
28.148048400878906
 30
5.000001907348633
 11
-63.005592346191406
 21
28.666709899902344
 31
5.000001907348633
  0
LINE
  8
0
 10
-63.005592346191406
 20
28.666709899902344
 30
5.000001907348633
 11
-63.37867736816406
 21
29.121322631835938
 31
5.000001907348633
  0
LINE
  8
0
 10
-63.37867736816406
 20
29.121322631835938
 30
5.000001907348633
 11
-63.833290100097656
 21
29.494407653808594
 31
5.000001907348633
  0
LINE
  8
0
 10
-63.833290100097656
 20
29.494407653808594
 30
5.000001907348633
 11
-64.3519515991211
 21
29.771636962890625
 31
5.000001907348633
  0
LINE
  8
0
 10
-64.3519515991211
 20
29.771636962890625
 30
5.000001907348633
 11
-64.91472625732422
 21
29.942352294921875
 31
5.000001907348633
  0
LINE
  8
0
 10
-65.5
 20
30.0
 30
5.000001907348633
 11
-64.91472625732422
 21
29.942352294921875
 31
5.000001907348633
  0
LINE
  8
0
 10
-84.0
 20
30.0
 30
5.000003337860107
 11
-84.58526611328125
 21
29.942352294921875
 31
5.000003337860107
  0
LINE
  8
0
 10
-84.58526611328125
 20
29.942352294921875
 30
5.000003337860107
 11
-85.1480484008789
 21
29.771636962890625
 31
5.000003337860107
  0
LINE
  8
0
 10
-85.1480484008789
 20
29.771636962890625
 30
5.000003337860107
 11
-85.66670989990234
 21
29.494407653808594
 31
5.000003337860107
  0
LINE
  8
0
 10
-85.66670989990234
 20
29.494407653808594
 30
5.000003337860107
 11
-86.12132263183594
 21
29.121322631835938
 31
5.000003337860107
  0
LINE
  8
0
 10
-86.12132263183594
 20
29.121322631835938
 30
5.000003337860107
 11
-86.4944076538086
 21
28.666709899902344
 31
5.000003337860107
  0
LINE
  8
0
 10
-86.4944076538086
 20
28.666709899902344
 30
5.000003337860107
 11
-86.77163696289062
 21
28.148048400878906
 31
5.000003337860107
  0
LINE
  8
0
 10
-86.77163696289062
 20
28.148048400878906
 30
5.000003337860107
 11
-86.94235229492188
 21
27.58527374267578
 31
5.000003337860107
  0
LINE
  8
0
 10
-86.94235229492188
 20
27.58527374267578
 30
5.000003337860107
 11
-87.0
 21
27.0
 31
5.000003337860107
  0
LINE
  8
0
 10
-87.0
 20
27.0
 30
5.000003337860107
 11
-86.94235229492188
 21
26.41472625732422
 31
5.000003337860107
  0
LINE
  8
0
 10
-86.94235229492188
 20
26.41472625732422
 30
5.000003337860107
 11
-86.77163696289062
 21
25.851951599121094
 31
5.000003337860107
  0
LINE
  8
0
 10
-86.77163696289062
 20
25.851951599121094
 30
5.000003337860107
 11
-86.4944076538086
 21
25.333290100097656
 31
5.000003337860107
  0
LINE
  8
0
 10
-86.4944076538086
 20
25.333290100097656
 30
5.000003337860107
 11
-86.12132263183594
 21
24.878677368164062
 31
5.000003337860107
  0
LINE
  8
0
 10
-86.12132263183594
 20
24.878677368164062
 30
5.000003337860107
 11
-85.66670989990234
 21
24.505592346191406
 31
5.000003337860107
  0
LINE
  8
0
 10
-85.66670989990234
 20
24.505592346191406
 30
5.000003337860107
 11
-85.1480484008789
 21
24.228363037109375
 31
5.000003337860107
  0
LINE
  8
0
 10
-85.1480484008789
 20
24.228363037109375
 30
5.000003337860107
 11
-84.58526611328125
 21
24.057647705078125
 31
5.000003337860107
  0
LINE
  8
0
 10
-84.58526611328125
 20
24.057647705078125
 30
5.000003337860107
 11
-84.0
 21
24.0
 31
5.000003337860107
  0
LINE
  8
0
 10
-84.0
 20
24.0
 30
5.000003337860107
 11
-83.41473388671875
 21
24.057647705078125
 31
5.000003337860107
  0
LINE
  8
0
 10
-83.41473388671875
 20
24.057647705078125
 30
5.000003337860107
 11
-82.8519515991211
 21
24.228363037109375
 31
5.000003337860107
  0
LINE
  8
0
 10
-82.8519515991211
 20
24.228363037109375
 30
5.000003337860107
 11
-82.33329010009766
 21
24.505592346191406
 31
5.000003337860107
  0
LINE
  8
0
 10
-82.33329010009766
 20
24.505592346191406
 30
5.000003337860107
 11
-81.87867736816406
 21
24.878677368164062
 31
5.000003337860107
  0
LINE
  8
0
 10
-81.87867736816406
 20
24.878677368164062
 30
5.000003337860107
 11
-81.5055923461914
 21
25.333290100097656
 31
5.000003337860107
  0
LINE
  8
0
 10
-81.5055923461914
 20
25.333290100097656
 30
5.000003337860107
 11
-81.22836303710938
 21
25.851951599121094
 31
5.000003337860107
  0
LINE
  8
0
 10
-81.22836303710938
 20
25.851951599121094
 30
5.000003337860107
 11
-81.05764770507812
 21
26.41472625732422
 31
5.000003337860107
  0
LINE
  8
0
 10
-81.05764770507812
 20
26.41472625732422
 30
5.000003337860107
 11
-81.0
 21
27.0
 31
5.000002861022949
  0
LINE
  8
0
 10
-81.0
 20
27.0
 30
5.000002861022949
 11
-81.05764770507812
 21
27.58527374267578
 31
5.000003337860107
  0
LINE
  8
0
 10
-81.05764770507812
 20
27.58527374267578
 30
5.000003337860107
 11
-81.22836303710938
 21
28.148048400878906
 31
5.000003337860107
  0
LINE
  8
0
 10
-81.22836303710938
 20
28.148048400878906
 30
5.000003337860107
 11
-81.5055923461914
 21
28.666709899902344
 31
5.000003337860107
  0
LINE
  8
0
 10
-81.5055923461914
 20
28.666709899902344
 30
5.000003337860107
 11
-81.87867736816406
 21
29.121322631835938
 31
5.000003337860107
  0
LINE
  8
0
 10
-81.87867736816406
 20
29.121322631835938
 30
5.000003337860107
 11
-82.33329010009766
 21
29.494407653808594
 31
5.000003337860107
  0
LINE
  8
0
 10
-82.33329010009766
 20
29.494407653808594
 30
5.000003337860107
 11
-82.8519515991211
 21
29.771636962890625
 31
5.000003337860107
  0
LINE
  8
0
 10
-82.8519515991211
 20
29.771636962890625
 30
5.000003337860107
 11
-83.41473388671875
 21
29.942352294921875
 31
5.000003337860107
  0
LINE
  8
0
 10
-84.0
 20
30.0
 30
5.000003337860107
 11
-83.41473388671875
 21
29.942352294921875
 31
5.000003337860107
  0
LINE
  8
0
 10
-47.0
 20
220.0
 30
5.000000476837158
 11
-47.585269927978516
 21
219.94235229492188
 31
5.000000476837158
  0
LINE
  8
0
 10
-47.585269927978516
 20
219.94235229492188
 30
5.000000476837158
 11
-48.148048400878906
 21
219.77163696289062
 31
5.000000476837158
  0
LINE
  8
0
 10
-48.148048400878906
 20
219.77163696289062
 30
5.000000476837158
 11
-48.666709899902344
 21
219.49441528320312
 31
5.000000476837158
  0
LINE
  8
0
 10
-48.666709899902344
 20
219.49441528320312
 30
5.000000476837158
 11
-49.12132263183594
 21
219.12132263183594
 31
5.000000476837158
  0
LINE
  8
0
 10
-49.12132263183594
 20
219.12132263183594
 30
5.000000476837158
 11
-49.494407653808594
 21
218.66671752929688
 31
5.000000953674316
  0
LINE
  8
0
 10
-49.494407653808594
 20
218.66671752929688
 30
5.000000953674316
 11
-49.771636962890625
 21
218.14805603027344
 31
5.000000953674316
  0
LINE
  8
0
 10
-49.771636962890625
 20
218.14805603027344
 30
5.000000953674316
 11
-49.94235610961914
 21
217.58526611328125
 31
5.000000953674316
  0
LINE
  8
0
 10
-49.94235610961914
 20
217.58526611328125
 30
5.000000953674316
 11
-50.0
 21
217.0
 31
5.000000953674316
  0
LINE
  8
0
 10
-50.0
 20
217.0
 30
5.000000953674316
 11
-49.94235610961914
 21
216.41473388671875
 31
5.000000953674316
  0
LINE
  8
0
 10
-49.94235610961914
 20
216.41473388671875
 30
5.000000953674316
 11
-49.771636962890625
 21
215.85194396972656
 31
5.000000953674316
  0
LINE
  8
0
 10
-49.771636962890625
 20
215.85194396972656
 30
5.000000953674316
 11
-49.494407653808594
 21
215.33328247070312
 31
5.000000953674316
  0
LINE
  8
0
 10
-49.494407653808594
 20
215.33328247070312
 30
5.000000953674316
 11
-49.12132263183594
 21
214.87867736816406
 31
5.000000476837158
  0
LINE
  8
0
 10
-49.12132263183594
 20
214.87867736816406
 30
5.000000476837158
 11
-48.666709899902344
 21
214.50558471679688
 31
5.000000476837158
  0
LINE
  8
0
 10
-48.666709899902344
 20
214.50558471679688
 30
5.000000476837158
 11
-48.148048400878906
 21
214.22836303710938
 31
5.000000476837158
  0
LINE
  8
0
 10
-48.148048400878906
 20
214.22836303710938
 30
5.000000476837158
 11
-47.585269927978516
 21
214.05764770507812
 31
5.000000476837158
  0
LINE
  8
0
 10
-47.585269927978516
 20
214.05764770507812
 30
5.000000476837158
 11
-47.0
 21
214.0
 31
5.000000476837158
  0
LINE
  8
0
 10
-47.0
 20
214.0
 30
5.000000476837158
 11
-46.414730072021484
 21
214.05764770507812
 31
5.000000476837158
  0
LINE
  8
0
 10
-46.414730072021484
 20
214.05764770507812
 30
5.000000476837158
 11
-45.851951599121094
 21
214.22836303710938
 31
5.000000476837158
  0
LINE
  8
0
 10
-45.851951599121094
 20
214.22836303710938
 30
5.000000476837158
 11
-45.333290100097656
 21
214.50558471679688
 31
5.000000476837158
  0
LINE
  8
0
 10
-45.333290100097656
 20
214.50558471679688
 30
5.000000476837158
 11
-44.87868118286133
 21
214.87867736816406
 31
5.000000476837158
  0
LINE
  8
0
 10
-44.87868118286133
 20
214.87867736816406
 30
5.000000476837158
 11
-44.505592346191406
 21
215.33328247070312
 31
5.000000476837158
  0
LINE
  8
0
 10
-44.505592346191406
 20
215.33328247070312
 30
5.000000476837158
 11
-44.228363037109375
 21
215.85194396972656
 31
5.000000476837158
  0
LINE
  8
0
 10
-44.228363037109375
 20
215.85194396972656
 30
5.000000476837158
 11
-44.05764389038086
 21
216.41473388671875
 31
5.000000476837158
  0
LINE
  8
0
 10
-44.05764389038086
 20
216.41473388671875
 30
5.000000476837158
 11
-44.0
 21
217.0
 31
5.000000476837158
  0
LINE
  8
0
 10
-44.0
 20
217.0
 30
5.000000476837158
 11
-44.05764389038086
 21
217.58526611328125
 31
5.000000476837158
  0
LINE
  8
0
 10
-44.05764389038086
 20
217.58526611328125
 30
5.000000476837158
 11
-44.228363037109375
 21
218.14805603027344
 31
5.000000476837158
  0
LINE
  8
0
 10
-44.228363037109375
 20
218.14805603027344
 30
5.000000476837158
 11
-44.505592346191406
 21
218.66671752929688
 31
5.000000476837158
  0
LINE
  8
0
 10
-44.505592346191406
 20
218.66671752929688
 30
5.000000476837158
 11
-44.87868118286133
 21
219.12132263183594
 31
5.000000476837158
  0
LINE
  8
0
 10
-44.87868118286133
 20
219.12132263183594
 30
5.000000476837158
 11
-45.333290100097656
 21
219.49441528320312
 31
5.000000476837158
  0
LINE
  8
0
 10
-45.333290100097656
 20
219.49441528320312
 30
5.000000476837158
 11
-45.851951599121094
 21
219.77163696289062
 31
5.000000476837158
  0
LINE
  8
0
 10
-45.851951599121094
 20
219.77163696289062
 30
5.000000476837158
 11
-46.414730072021484
 21
219.94235229492188
 31
5.000000476837158
  0
LINE
  8
0
 10
-47.0
 20
220.0
 30
5.000000476837158
 11
-46.414730072021484
 21
219.94235229492188
 31
5.000000476837158
  0
LINE
  8
0
 10
-65.5
 20
220.0
 30
5.000001907348633
 11
-66.08527374267578
 21
219.94235229492188
 31
5.000001907348633
  0
LINE
  8
0
 10
-66.08527374267578
 20
219.94235229492188
 30
5.000001907348633
 11
-66.6480484008789
 21
219.77163696289062
 31
5.000001907348633
  0
LINE
  8
0
 10
-66.6480484008789
 20
219.77163696289062
 30
5.000001907348633
 11
-67.16670989990234
 21
219.49441528320312
 31
5.000001907348633
  0
LINE
  8
0
 10
-67.16670989990234
 20
219.49441528320312
 30
5.000001907348633
 11
-67.62132263183594
 21
219.12132263183594
 31
5.000001907348633
  0
LINE
  8
0
 10
-67.62132263183594
 20
219.12132263183594
 30
5.000001907348633
 11
-67.9944076538086
 21
218.66671752929688
 31
5.000001907348633
  0
LINE
  8
0
 10
-67.9944076538086
 20
218.66671752929688
 30
5.000001907348633
 11
-68.27163696289062
 21
218.14805603027344
 31
5.000001907348633
  0
LINE
  8
0
 10
-68.27163696289062
 20
218.14805603027344
 30
5.000001907348633
 11
-68.44235229492188
 21
217.58526611328125
 31
5.000002384185791
  0
LINE
  8
0
 10
-68.44235229492188
 20
217.58526611328125
 30
5.000002384185791
 11
-68.5
 21
217.0
 31
5.000002384185791
  0
LINE
  8
0
 10
-68.5
 20
217.0
 30
5.000002384185791
 11
-68.44235229492188
 21
216.41473388671875
 31
5.000002384185791
  0
LINE
  8
0
 10
-68.44235229492188
 20
216.41473388671875
 30
5.000002384185791
 11
-68.27163696289062
 21
215.85194396972656
 31
5.000001907348633
  0
LINE
  8
0
 10
-68.27163696289062
 20
215.85194396972656
 30
5.000001907348633
 11
-67.9944076538086
 21
215.33328247070312
 31
5.000001907348633
  0
LINE
  8
0
 10
-67.9944076538086
 20
215.33328247070312
 30
5.000001907348633
 11
-67.62132263183594
 21
214.87867736816406
 31
5.000001907348633
  0
LINE
  8
0
 10
-67.62132263183594
 20
214.87867736816406
 30
5.000001907348633
 11
-67.16670989990234
 21
214.50558471679688
 31
5.000001907348633
  0
LINE
  8
0
 10
-67.16670989990234
 20
214.50558471679688
 30
5.000001907348633
 11
-66.6480484008789
 21
214.22836303710938
 31
5.000001907348633
  0
LINE
  8
0
 10
-66.6480484008789
 20
214.22836303710938
 30
5.000001907348633
 11
-66.08527374267578
 21
214.05764770507812
 31
5.000001907348633
  0
LINE
  8
0
 10
-66.08527374267578
 20
214.05764770507812
 30
5.000001907348633
 11
-65.5
 21
214.0
 31
5.000001907348633
  0
LINE
  8
0
 10
-65.5
 20
214.0
 30
5.000001907348633
 11
-64.91472625732422
 21
214.05764770507812
 31
5.000001907348633
  0
LINE
  8
0
 10
-64.91472625732422
 20
214.05764770507812
 30
5.000001907348633
 11
-64.3519515991211
 21
214.22836303710938
 31
5.000001907348633
  0
LINE
  8
0
 10
-64.3519515991211
 20
214.22836303710938
 30
5.000001907348633
 11
-63.833290100097656
 21
214.50558471679688
 31
5.000001907348633
  0
LINE
  8
0
 10
-63.833290100097656
 20
214.50558471679688
 30
5.000001907348633
 11
-63.37867736816406
 21
214.87867736816406
 31
5.000001907348633
  0
LINE
  8
0
 10
-63.37867736816406
 20
214.87867736816406
 30
5.000001907348633
 11
-63.005592346191406
 21
215.33328247070312
 31
5.000001907348633
  0
LINE
  8
0
 10
-63.005592346191406
 20
215.33328247070312
 30
5.000001907348633
 11
-62.728363037109375
 21
215.85194396972656
 31
5.000001907348633
  0
LINE
  8
0
 10
-62.728363037109375
 20
215.85194396972656
 30
5.000001907348633
 11
-62.55764389038086
 21
216.41473388671875
 31
5.000001907348633
  0
LINE
  8
0
 10
-62.55764389038086
 20
216.41473388671875
 30
5.000001907348633
 11
-62.5
 21
217.0
 31
5.000001907348633
  0
LINE
  8
0
 10
-62.5
 20
217.0
 30
5.000001907348633
 11
-62.55764389038086
 21
217.58526611328125
 31
5.000001907348633
  0
LINE
  8
0
 10
-62.55764389038086
 20
217.58526611328125
 30
5.000001907348633
 11
-62.728363037109375
 21
218.14805603027344
 31
5.000001907348633
  0
LINE
  8
0
 10
-62.728363037109375
 20
218.14805603027344
 30
5.000001907348633
 11
-63.005592346191406
 21
218.66671752929688
 31
5.000001907348633
  0
LINE
  8
0
 10
-63.005592346191406
 20
218.66671752929688
 30
5.000001907348633
 11
-63.37867736816406
 21
219.12132263183594
 31
5.000001907348633
  0
LINE
  8
0
 10
-63.37867736816406
 20
219.12132263183594
 30
5.000001907348633
 11
-63.833290100097656
 21
219.49441528320312
 31
5.000001907348633
  0
LINE
  8
0
 10
-63.833290100097656
 20
219.49441528320312
 30
5.000001907348633
 11
-64.3519515991211
 21
219.77163696289062
 31
5.000001907348633
  0
LINE
  8
0
 10
-64.3519515991211
 20
219.77163696289062
 30
5.000001907348633
 11
-64.91472625732422
 21
219.94235229492188
 31
5.000001907348633
  0
LINE
  8
0
 10
-65.5
 20
220.0
 30
5.000001907348633
 11
-64.91472625732422
 21
219.94235229492188
 31
5.000001907348633
  0
LINE
  8
0
 10
-84.0
 20
220.0
 30
5.000003337860107
 11
-84.58526611328125
 21
219.94235229492188
 31
5.000003337860107
  0
LINE
  8
0
 10
-84.58526611328125
 20
219.94235229492188
 30
5.000003337860107
 11
-85.1480484008789
 21
219.77163696289062
 31
5.000003337860107
  0
LINE
  8
0
 10
-85.1480484008789
 20
219.77163696289062
 30
5.000003337860107
 11
-85.66670989990234
 21
219.49441528320312
 31
5.000003337860107
  0
LINE
  8
0
 10
-85.66670989990234
 20
219.49441528320312
 30
5.000003337860107
 11
-86.12132263183594
 21
219.12132263183594
 31
5.000003337860107
  0
LINE
  8
0
 10
-86.12132263183594
 20
219.12132263183594
 30
5.000003337860107
 11
-86.4944076538086
 21
218.66671752929688
 31
5.000003337860107
  0
LINE
  8
0
 10
-86.4944076538086
 20
218.66671752929688
 30
5.000003337860107
 11
-86.77163696289062
 21
218.14805603027344
 31
5.000003337860107
  0
LINE
  8
0
 10
-86.77163696289062
 20
218.14805603027344
 30
5.000003337860107
 11
-86.94235229492188
 21
217.58526611328125
 31
5.000003337860107
  0
LINE
  8
0
 10
-86.94235229492188
 20
217.58526611328125
 30
5.000003337860107
 11
-87.0
 21
217.0
 31
5.000003337860107
  0
LINE
  8
0
 10
-87.0
 20
217.0
 30
5.000003337860107
 11
-86.94235229492188
 21
216.41473388671875
 31
5.000003337860107
  0
LINE
  8
0
 10
-86.94235229492188
 20
216.41473388671875
 30
5.000003337860107
 11
-86.77163696289062
 21
215.85194396972656
 31
5.000003337860107
  0
LINE
  8
0
 10
-86.77163696289062
 20
215.85194396972656
 30
5.000003337860107
 11
-86.4944076538086
 21
215.33328247070312
 31
5.000003337860107
  0
LINE
  8
0
 10
-86.4944076538086
 20
215.33328247070312
 30
5.000003337860107
 11
-86.12132263183594
 21
214.87867736816406
 31
5.000003337860107
  0
LINE
  8
0
 10
-86.12132263183594
 20
214.87867736816406
 30
5.000003337860107
 11
-85.66670989990234
 21
214.50558471679688
 31
5.000003337860107
  0
LINE
  8
0
 10
-85.66670989990234
 20
214.50558471679688
 30
5.000003337860107
 11
-85.1480484008789
 21
214.22836303710938
 31
5.000003337860107
  0
LINE
  8
0
 10
-85.1480484008789
 20
214.22836303710938
 30
5.000003337860107
 11
-84.58526611328125
 21
214.05764770507812
 31
5.000003337860107
  0
LINE
  8
0
 10
-84.58526611328125
 20
214.05764770507812
 30
5.000003337860107
 11
-84.0
 21
214.0
 31
5.000003337860107
  0
LINE
  8
0
 10
-84.0
 20
214.0
 30
5.000003337860107
 11
-83.41473388671875
 21
214.05764770507812
 31
5.000003337860107
  0
LINE
  8
0
 10
-83.41473388671875
 20
214.05764770507812
 30
5.000003337860107
 11
-82.8519515991211
 21
214.22836303710938
 31
5.000003337860107
  0
LINE
  8
0
 10
-82.8519515991211
 20
214.22836303710938
 30
5.000003337860107
 11
-82.33329010009766
 21
214.50558471679688
 31
5.000003337860107
  0
LINE
  8
0
 10
-82.33329010009766
 20
214.50558471679688
 30
5.000003337860107
 11
-81.87867736816406
 21
214.87867736816406
 31
5.000003337860107
  0
LINE
  8
0
 10
-81.87867736816406
 20
214.87867736816406
 30
5.000003337860107
 11
-81.5055923461914
 21
215.33328247070312
 31
5.000003337860107
  0
LINE
  8
0
 10
-81.5055923461914
 20
215.33328247070312
 30
5.000003337860107
 11
-81.22836303710938
 21
215.85194396972656
 31
5.000003337860107
  0
LINE
  8
0
 10
-81.22836303710938
 20
215.85194396972656
 30
5.000003337860107
 11
-81.05764770507812
 21
216.41473388671875
 31
5.000003337860107
  0
LINE
  8
0
 10
-81.05764770507812
 20
216.41473388671875
 30
5.000003337860107
 11
-81.0
 21
217.0
 31
5.000002861022949
  0
LINE
  8
0
 10
-81.0
 20
217.0
 30
5.000002861022949
 11
-81.05764770507812
 21
217.58526611328125
 31
5.000003337860107
  0
LINE
  8
0
 10
-81.05764770507812
 20
217.58526611328125
 30
5.000003337860107
 11
-81.22836303710938
 21
218.14805603027344
 31
5.000003337860107
  0
LINE
  8
0
 10
-81.22836303710938
 20
218.14805603027344
 30
5.000003337860107
 11
-81.5055923461914
 21
218.66671752929688
 31
5.000003337860107
  0
LINE
  8
0
 10
-81.5055923461914
 20
218.66671752929688
 30
5.000003337860107
 11
-81.87867736816406
 21
219.12132263183594
 31
5.000003337860107
  0
LINE
  8
0
 10
-81.87867736816406
 20
219.12132263183594
 30
5.000003337860107
 11
-82.33329010009766
 21
219.49441528320312
 31
5.000003337860107
  0
LINE
  8
0
 10
-82.33329010009766
 20
219.49441528320312
 30
5.000003337860107
 11
-82.8519515991211
 21
219.77163696289062
 31
5.000003337860107
  0
LINE
  8
0
 10
-82.8519515991211
 20
219.77163696289062
 30
5.000003337860107
 11
-83.41473388671875
 21
219.94235229492188
 31
5.000003337860107
  0
LINE
  8
0
 10
-84.0
 20
220.0
 30
5.000003337860107
 11
-83.41473388671875
 21
219.94235229492188
 31
5.000003337860107
  0
LINE
  8
0
 10
-40.0
 20
12.0
 30
5.0
 11
-40.0
 21
232.00376892089844
 31
5.0
  0
LINE
  8
0
 10
-100.5
 20
125.0
 30
5.000004768371582
 11
-101.08526611328125
 21
124.94235229492188
 31
5.000004768371582
  0
LINE
  8
0
 10
-101.08526611328125
 20
124.94235229492188
 30
5.000004768371582
 11
-101.6480484008789
 21
124.77163696289062
 31
5.000004768371582
  0
LINE
  8
0
 10
-101.6480484008789
 20
124.77163696289062
 30
5.000004768371582
 11
-102.16670989990234
 21
124.4944076538086
 31
5.000004768371582
  0
LINE
  8
0
 10
-102.16670989990234
 20
124.4944076538086
 30
5.000004768371582
 11
-102.62132263183594
 21
124.12132263183594
 31
5.000004768371582
  0
LINE
  8
0
 10
-102.62132263183594
 20
124.12132263183594
 30
5.000004768371582
 11
-102.9944076538086
 21
123.66670989990234
 31
5.000004768371582
  0
LINE
  8
0
 10
-102.9944076538086
 20
123.66670989990234
 30
5.000004768371582
 11
-103.27163696289062
 21
123.1480484008789
 31
5.000004768371582
  0
LINE
  8
0
 10
-103.27163696289062
 20
123.1480484008789
 30
5.000004768371582
 11
-103.44235229492188
 21
122.58527374267578
 31
5.000004768371582
  0
LINE
  8
0
 10
-103.44235229492188
 20
122.58527374267578
 30
5.000004768371582
 11
-103.5
 21
122.0
 31
5.000004768371582
  0
LINE
  8
0
 10
-103.5
 20
122.0
 30
5.000004768371582
 11
-103.44235229492188
 21
121.41472625732422
 31
5.000004768371582
  0
LINE
  8
0
 10
-103.44235229492188
 20
121.41472625732422
 30
5.000004768371582
 11
-103.27163696289062
 21
120.8519515991211
 31
5.000004768371582
  0
LINE
  8
0
 10
-103.27163696289062
 20
120.8519515991211
 30
5.000004768371582
 11
-102.9944076538086
 21
120.33329010009766
 31
5.000004768371582
  0
LINE
  8
0
 10
-102.9944076538086
 20
120.33329010009766
 30
5.000004768371582
 11
-102.62132263183594
 21
119.87867736816406
 31
5.000004768371582
  0
LINE
  8
0
 10
-102.62132263183594
 20
119.87867736816406
 30
5.000004768371582
 11
-102.16670989990234
 21
119.5055923461914
 31
5.000004768371582
  0
LINE
  8
0
 10
-102.16670989990234
 20
119.5055923461914
 30
5.000004768371582
 11
-101.6480484008789
 21
119.22836303710938
 31
5.000004768371582
  0
LINE
  8
0
 10
-101.6480484008789
 20
119.22836303710938
 30
5.000004768371582
 11
-101.08526611328125
 21
119.05764770507812
 31
5.000004768371582
  0
LINE
  8
0
 10
-101.08526611328125
 20
119.05764770507812
 30
5.000004768371582
 11
-100.5
 21
119.0
 31
5.000004768371582
  0
LINE
  8
0
 10
-100.5
 20
119.0
 30
5.000004768371582
 11
-99.91473388671875
 21
119.05764770507812
 31
5.000004291534424
  0
LINE
  8
0
 10
-99.91473388671875
 20
119.05764770507812
 30
5.000004291534424
 11
-99.3519515991211
 21
119.22836303710938
 31
5.000004291534424
  0
LINE
  8
0
 10
-99.3519515991211
 20
119.22836303710938
 30
5.000004291534424
 11
-98.83329010009766
 21
119.5055923461914
 31
5.000004291534424
  0
LINE
  8
0
 10
-98.83329010009766
 20
119.5055923461914
 30
5.000004291534424
 11
-98.37867736816406
 21
119.87867736816406
 31
5.000004291534424
  0
LINE
  8
0
 10
-98.37867736816406
 20
119.87867736816406
 30
5.000004291534424
 11
-98.0055923461914
 21
120.33329010009766
 31
5.000004291534424
  0
LINE
  8
0
 10
-98.0055923461914
 20
120.33329010009766
 30
5.000004291534424
 11
-97.72836303710938
 21
120.8519515991211
 31
5.000004291534424
  0
LINE
  8
0
 10
-97.72836303710938
 20
120.8519515991211
 30
5.000004291534424
 11
-97.55764770507812
 21
121.41472625732422
 31
5.000004291534424
  0
LINE
  8
0
 10
-97.55764770507812
 20
121.41472625732422
 30
5.000004291534424
 11
-97.5
 21
122.0
 31
5.000004291534424
  0
LINE
  8
0
 10
-97.5
 20
122.0
 30
5.000004291534424
 11
-97.55764770507812
 21
122.58527374267578
 31
5.000004291534424
  0
LINE
  8
0
 10
-97.55764770507812
 20
122.58527374267578
 30
5.000004291534424
 11
-97.72836303710938
 21
123.1480484008789
 31
5.000004291534424
  0
LINE
  8
0
 10
-97.72836303710938
 20
123.1480484008789
 30
5.000004291534424
 11
-98.0055923461914
 21
123.66670989990234
 31
5.000004291534424
  0
LINE
  8
0
 10
-98.0055923461914
 20
123.66670989990234
 30
5.000004291534424
 11
-98.37867736816406
 21
124.12132263183594
 31
5.000004291534424
  0
LINE
  8
0
 10
-98.37867736816406
 20
124.12132263183594
 30
5.000004291534424
 11
-98.83329010009766
 21
124.4944076538086
 31
5.000004291534424
  0
LINE
  8
0
 10
-98.83329010009766
 20
124.4944076538086
 30
5.000004291534424
 11
-99.3519515991211
 21
124.77163696289062
 31
5.000004291534424
  0
LINE
  8
0
 10
-99.3519515991211
 20
124.77163696289062
 30
5.000004291534424
 11
-99.91473388671875
 21
124.94235229492188
 31
5.000004291534424
  0
LINE
  8
0
 10
-100.5
 20
125.0
 30
5.000004768371582
 11
-99.91473388671875
 21
124.94235229492188
 31
5.000004291534424
  0
LINE
  8
0
 10
-100.5
 20
175.0
 30
5.000004768371582
 11
-101.08526611328125
 21
174.94235229492188
 31
5.000004768371582
  0
LINE
  8
0
 10
-101.08526611328125
 20
174.94235229492188
 30
5.000004768371582
 11
-101.6480484008789
 21
174.77163696289062
 31
5.000004768371582
  0
LINE
  8
0
 10
-101.6480484008789
 20
174.77163696289062
 30
5.000004768371582
 11
-102.16670989990234
 21
174.49441528320312
 31
5.000004768371582
  0
LINE
  8
0
 10
-102.16670989990234
 20
174.49441528320312
 30
5.000004768371582
 11
-102.62132263183594
 21
174.12132263183594
 31
5.000004768371582
  0
LINE
  8
0
 10
-102.62132263183594
 20
174.12132263183594
 30
5.000004768371582
 11
-102.9944076538086
 21
173.66671752929688
 31
5.000004768371582
  0
LINE
  8
0
 10
-102.9944076538086
 20
173.66671752929688
 30
5.000004768371582
 11
-103.27163696289062
 21
173.14804077148438
 31
5.000004768371582
  0
LINE
  8
0
 10
-103.27163696289062
 20
173.14804077148438
 30
5.000004768371582
 11
-103.44235229492188
 21
172.58526611328125
 31
5.000004768371582
  0
LINE
  8
0
 10
-103.44235229492188
 20
172.58526611328125
 30
5.000004768371582
 11
-103.5
 21
172.0
 31
5.000004768371582
  0
LINE
  8
0
 10
-103.5
 20
172.0
 30
5.000004768371582
 11
-103.44235229492188
 21
171.41473388671875
 31
5.000004768371582
  0
LINE
  8
0
 10
-103.44235229492188
 20
171.41473388671875
 30
5.000004768371582
 11
-103.27163696289062
 21
170.85195922851562
 31
5.000004768371582
  0
LINE
  8
0
 10
-103.27163696289062
 20
170.85195922851562
 30
5.000004768371582
 11
-102.9944076538086
 21
170.33328247070312
 31
5.000004768371582
  0
LINE
  8
0
 10
-102.9944076538086
 20
170.33328247070312
 30
5.000004768371582
 11
-102.62132263183594
 21
169.87867736816406
 31
5.000004768371582
  0
LINE
  8
0
 10
-102.62132263183594
 20
169.87867736816406
 30
5.000004768371582
 11
-102.16670989990234
 21
169.50558471679688
 31
5.000004768371582
  0
LINE
  8
0
 10
-102.16670989990234
 20
169.50558471679688
 30
5.000004768371582
 11
-101.6480484008789
 21
169.22836303710938
 31
5.000004768371582
  0
LINE
  8
0
 10
-101.6480484008789
 20
169.22836303710938
 30
5.000004768371582
 11
-101.08526611328125
 21
169.05764770507812
 31
5.000004768371582
  0
LINE
  8
0
 10
-101.08526611328125
 20
169.05764770507812
 30
5.000004768371582
 11
-100.5
 21
169.0
 31
5.000004768371582
  0
LINE
  8
0
 10
-100.5
 20
169.0
 30
5.000004768371582
 11
-99.91473388671875
 21
169.05764770507812
 31
5.000004291534424
  0
LINE
  8
0
 10
-99.91473388671875
 20
169.05764770507812
 30
5.000004291534424
 11
-99.3519515991211
 21
169.22836303710938
 31
5.000004291534424
  0
LINE
  8
0
 10
-99.3519515991211
 20
169.22836303710938
 30
5.000004291534424
 11
-98.83329010009766
 21
169.50558471679688
 31
5.000004291534424
  0
LINE
  8
0
 10
-98.83329010009766
 20
169.50558471679688
 30
5.000004291534424
 11
-98.37867736816406
 21
169.87867736816406
 31
5.000004291534424
  0
LINE
  8
0
 10
-98.37867736816406
 20
169.87867736816406
 30
5.000004291534424
 11
-98.0055923461914
 21
170.33328247070312
 31
5.000004291534424
  0
LINE
  8
0
 10
-98.0055923461914
 20
170.33328247070312
 30
5.000004291534424
 11
-97.72836303710938
 21
170.85195922851562
 31
5.000004291534424
  0
LINE
  8
0
 10
-97.72836303710938
 20
170.85195922851562
 30
5.000004291534424
 11
-97.55764770507812
 21
171.41473388671875
 31
5.000004291534424
  0
LINE
  8
0
 10
-97.55764770507812
 20
171.41473388671875
 30
5.000004291534424
 11
-97.5
 21
172.0
 31
5.000004291534424
  0
LINE
  8
0
 10
-97.5
 20
172.0
 30
5.000004291534424
 11
-97.55764770507812
 21
172.58526611328125
 31
5.000004291534424
  0
LINE
  8
0
 10
-97.55764770507812
 20
172.58526611328125
 30
5.000004291534424
 11
-97.72836303710938
 21
173.14804077148438
 31
5.000004291534424
  0
LINE
  8
0
 10
-97.72836303710938
 20
173.14804077148438
 30
5.000004291534424
 11
-98.0055923461914
 21
173.66671752929688
 31
5.000004291534424
  0
LINE
  8
0
 10
-98.0055923461914
 20
173.66671752929688
 30
5.000004291534424
 11
-98.37867736816406
 21
174.12132263183594
 31
5.000004291534424
  0
LINE
  8
0
 10
-98.37867736816406
 20
174.12132263183594
 30
5.000004291534424
 11
-98.83329010009766
 21
174.49441528320312
 31
5.000004291534424
  0
LINE
  8
0
 10
-98.83329010009766
 20
174.49441528320312
 30
5.000004291534424
 11
-99.3519515991211
 21
174.77163696289062
 31
5.000004291534424
  0
LINE
  8
0
 10
-99.3519515991211
 20
174.77163696289062
 30
5.000004291534424
 11
-99.91473388671875
 21
174.94235229492188
 31
5.000004291534424
  0
LINE
  8
0
 10
-100.5
 20
175.0
 30
5.000004768371582
 11
-99.91473388671875
 21
174.94235229492188
 31
5.000004291534424
  0
LINE
  8
0
 10
-100.5
 20
75.0
 30
5.000004768371582
 11
-101.08526611328125
 21
74.94235229492188
 31
5.000004768371582
  0
LINE
  8
0
 10
-101.08526611328125
 20
74.94235229492188
 30
5.000004768371582
 11
-101.6480484008789
 21
74.77163696289062
 31
5.000004768371582
  0
LINE
  8
0
 10
-101.6480484008789
 20
74.77163696289062
 30
5.000004768371582
 11
-102.16670989990234
 21
74.49441528320312
 31
5.000004768371582
  0
LINE
  8
0
 10
-102.16670989990234
 20
74.49441528320312
 30
5.000004768371582
 11
-102.62132263183594
 21
74.12132263183594
 31
5.000004768371582
  0
LINE
  8
0
 10
-102.62132263183594
 20
74.12132263183594
 30
5.000004768371582
 11
-102.9944076538086
 21
73.66671752929688
 31
5.000004768371582
  0
LINE
  8
0
 10
-102.9944076538086
 20
73.66671752929688
 30
5.000004768371582
 11
-103.27163696289062
 21
73.14804077148438
 31
5.000004768371582
  0
LINE
  8
0
 10
-103.27163696289062
 20
73.14804077148438
 30
5.000004768371582
 11
-103.44235229492188
 21
72.58526611328125
 31
5.000004768371582
  0
LINE
  8
0
 10
-103.44235229492188
 20
72.58526611328125
 30
5.000004768371582
 11
-103.5
 21
72.0
 31
5.000004768371582
  0
LINE
  8
0
 10
-103.5
 20
72.0
 30
5.000004768371582
 11
-103.44235229492188
 21
71.41473388671875
 31
5.000004768371582
  0
LINE
  8
0
 10
-103.44235229492188
 20
71.41473388671875
 30
5.000004768371582
 11
-103.27163696289062
 21
70.85195922851562
 31
5.000004768371582
  0
LINE
  8
0
 10
-103.27163696289062
 20
70.85195922851562
 30
5.000004768371582
 11
-102.9944076538086
 21
70.33328247070312
 31
5.000004768371582
  0
LINE
  8
0
 10
-102.9944076538086
 20
70.33328247070312
 30
5.000004768371582
 11
-102.62132263183594
 21
69.87867736816406
 31
5.000004768371582
  0
LINE
  8
0
 10
-102.62132263183594
 20
69.87867736816406
 30
5.000004768371582
 11
-102.16670989990234
 21
69.50558471679688
 31
5.000004768371582
  0
LINE
  8
0
 10
-102.16670989990234
 20
69.50558471679688
 30
5.000004768371582
 11
-101.6480484008789
 21
69.22836303710938
 31
5.000004768371582
  0
LINE
  8
0
 10
-101.6480484008789
 20
69.22836303710938
 30
5.000004768371582
 11
-101.08526611328125
 21
69.05764770507812
 31
5.000004768371582
  0
LINE
  8
0
 10
-101.08526611328125
 20
69.05764770507812
 30
5.000004768371582
 11
-100.5
 21
69.0
 31
5.000004768371582
  0
LINE
  8
0
 10
-100.5
 20
69.0
 30
5.000004768371582
 11
-99.91473388671875
 21
69.05764770507812
 31
5.000004291534424
  0
LINE
  8
0
 10
-99.91473388671875
 20
69.05764770507812
 30
5.000004291534424
 11
-99.3519515991211
 21
69.22836303710938
 31
5.000004291534424
  0
LINE
  8
0
 10
-99.3519515991211
 20
69.22836303710938
 30
5.000004291534424
 11
-98.83329010009766
 21
69.50558471679688
 31
5.000004291534424
  0
LINE
  8
0
 10
-98.83329010009766
 20
69.50558471679688
 30
5.000004291534424
 11
-98.37867736816406
 21
69.87867736816406
 31
5.000004291534424
  0
LINE
  8
0
 10
-98.37867736816406
 20
69.87867736816406
 30
5.000004291534424
 11
-98.0055923461914
 21
70.33328247070312
 31
5.000004291534424
  0
LINE
  8
0
 10
-98.0055923461914
 20
70.33328247070312
 30
5.000004291534424
 11
-97.72836303710938
 21
70.85195922851562
 31
5.000004291534424
  0
LINE
  8
0
 10
-97.72836303710938
 20
70.85195922851562
 30
5.000004291534424
 11
-97.55764770507812
 21
71.41473388671875
 31
5.000004291534424
  0
LINE
  8
0
 10
-97.55764770507812
 20
71.41473388671875
 30
5.000004291534424
 11
-97.5
 21
72.0
 31
5.000004291534424
  0
LINE
  8
0
 10
-97.5
 20
72.0
 30
5.000004291534424
 11
-97.55764770507812
 21
72.58526611328125
 31
5.000004291534424
  0
LINE
  8
0
 10
-97.55764770507812
 20
72.58526611328125
 30
5.000004291534424
 11
-97.72836303710938
 21
73.14804077148438
 31
5.000004291534424
  0
LINE
  8
0
 10
-97.72836303710938
 20
73.14804077148438
 30
5.000004291534424
 11
-98.0055923461914
 21
73.66671752929688
 31
5.000004291534424
  0
LINE
  8
0
 10
-98.0055923461914
 20
73.66671752929688
 30
5.000004291534424
 11
-98.37867736816406
 21
74.12132263183594
 31
5.000004291534424
  0
LINE
  8
0
 10
-98.37867736816406
 20
74.12132263183594
 30
5.000004291534424
 11
-98.83329010009766
 21
74.49441528320312
 31
5.000004291534424
  0
LINE
  8
0
 10
-98.83329010009766
 20
74.49441528320312
 30
5.000004291534424
 11
-99.3519515991211
 21
74.77163696289062
 31
5.000004291534424
  0
LINE
  8
0
 10
-99.3519515991211
 20
74.77163696289062
 30
5.000004291534424
 11
-99.91473388671875
 21
74.94235229492188
 31
5.000004291534424
  0
LINE
  8
0
 10
-100.5
 20
75.0
 30
5.000004768371582
 11
-99.91473388671875
 21
74.94235229492188
 31
5.000004291534424
  0
LINE
  8
0
 10
-118.0
 20
227.00376892089844
 30
5.000005722045898
 11
-118.0
 21
17.0
 31
5.000005722045898
  0
ENDSEC
  0
EOF
