  0
SECTION
  2
HEADER
  9
$ACADVER
  1
AC1009
  9
$INSBASE
 10
0.0
 20
0.0
 30
0.0
  9
$EXTMIN
 10
0.0
 20
0.0
 30
0.0
  9
$EXTMAX
 10
0.0
 20
0.0
 30
0.0
  0
ENDSEC
  0
SECTION
  2
TABLES
  0
TABLE
  2
VPORT
 70
1
  0
VPORT
  2
*ACTIVE
 70
0
 10
0.0
 20
0.0
 11
1.0
 21
1.0
 12
-5.0
 22
1.0
 13
0.0
 23
0.0
 14
0.1
 24
0.1
 15
0.1
 25
0.1
 16
0.0
 26
0.0
 36
1.0
 17
0.0
 27
0.0
 37
0.0
 40
10.0
 41
1.0
 42
50.0
 43
0.0
 44
0.0
 50
0.0
 51
0.0
 71
0
 72
100
 73
1
 74
1
 75
0
 76
0
 77
0
 78
0
  0
ENDTAB
  0
TABLE
  2
LTYPE
 70
8
  0
LTYPE
  2
CONTINUOUS
 70
0
  3
Solid line
 72
65
 73
0
 40
0.0
  0
LTYPE
  2
DOT
 70
0
  3
. . . . . . .
 72
65
 73
2
 40
0.25
 49
0.0
 49
-0.25
  0
LTYPE
  2
DASHED
 70
0
  3
__ __ __ __ __
 72
65
 73
2
 40
0.8
 49
0.5
 49
-0.3
  0
LTYPE
  2
DASHDOT
 70
0
  3
__ . __ . __ .
 72
65
 73
4
 40
1.0
 49
0.5
 49
-0.25
 49
0.0
 49
-0.25
  0
LTYPE
  2
DIVIDE
 70
0
  3
____ . . ____ . . 
 72
65
 73
6
 40
1.25
 49
0.5
 49
-0.25
 49
0.0
 49
-0.25
 49
0.0
 49
-0.25
  0
LTYPE
  2
BORDER
 70
0
  3
__ __ . __ __ . 
 72
65
 73
6
 40
1.75
 49
0.5
 49
-0.25
 49
0.5
 49
-0.25
 49
0.0
 49
-0.25
  0
LTYPE
  2
HIDDEN
 70
0
  3
__ __ __ __ __
 72
65
 73
2
 40
0.4
 49
0.25
 49
-0.25
  0
LTYPE
  2
CENTER
 70
0
  3
____ _ ____ _ __
 72
65
 73
4
 40
2.0
 49
1.25
 49
-0.25
 49
0.25
 49
-0.25
  0
ENDTAB
  0
TABLE
  2
LAYER
 70
1
  0
LAYER
  2
PYDXF
 70
64
 62
7
  6
continuous
  0
ENDTAB
  0
TABLE
  2
STYLE
 70
1
  0
STYLE
  2
STANDARD
 70
0
 40
0
 41
1.0
 50
0.0
 71
0
 42
1
 3
ARIAL.TTF
 4

  0
ENDTAB
  0
TABLE
  2
VIEW
 70
1
  0
VIEW
  2
BF_TOPVIEW
 70
0
 40
120.0
 10
0.0
 20
0.0
 41
200.0
 11
0.0
 21
0.0
 31
1.0
 12
0.0
 22
0.0
 32
0.0
 42
50.0
 43
0.0
 44
0.0
 50
0.0
 71
0
  0
ENDTAB
  0
ENDSEC
  0
SECTION
  2
BLOCKS
  0
ENDSEC
  0
SECTION
  2
ENTITIES
  0
LINE
  8
0
 10
10.0
 20
30.142860412597656
 30
55.0
 11
10.0
 21
200.00001525878906
 31
55.0
  0
LINE
  8
0
 10
26.875
 20
188.07858276367188
 30
55.0
 11
26.5531005859375
 21
188.04689025878906
 31
55.0
  0
LINE
  8
0
 10
26.5531005859375
 20
188.04689025878906
 30
55.0
 11
26.243572235107422
 21
187.95298767089844
 31
55.0
  0
LINE
  8
0
 10
26.243572235107422
 20
187.95298767089844
 30
55.0
 11
25.958309173583984
 21
187.80050659179688
 31
55.0
  0
LINE
  8
0
 10
25.958309173583984
 20
187.80050659179688
 30
55.0
 11
25.708274841308594
 21
187.59532165527344
 31
55.0
  0
LINE
  8
0
 10
25.708274841308594
 20
187.59532165527344
 30
55.0
 11
25.503074645996094
 21
187.34527587890625
 31
55.0
  0
LINE
  8
0
 10
25.503074645996094
 20
187.34527587890625
 30
55.0
 11
25.35059928894043
 21
187.0600128173828
 31
55.0
  0
LINE
  8
0
 10
25.35059928894043
 20
187.0600128173828
 30
55.0
 11
25.256704330444336
 21
186.75048828125
 31
55.0
  0
LINE
  8
0
 10
25.256704330444336
 20
186.75048828125
 30
55.0
 11
25.225000381469727
 21
186.4285888671875
 31
55.0
  0
LINE
  8
0
 10
25.225000381469727
 20
186.4285888671875
 30
55.0
 11
25.256704330444336
 21
186.106689453125
 31
55.0
  0
LINE
  8
0
 10
25.256704330444336
 20
186.106689453125
 30
55.0
 11
25.35059928894043
 21
185.7971649169922
 31
55.0
  0
LINE
  8
0
 10
25.35059928894043
 20
185.7971649169922
 30
55.0
 11
25.503074645996094
 21
185.51190185546875
 31
55.0
  0
LINE
  8
0
 10
25.503074645996094
 20
185.51190185546875
 30
55.0
 11
25.708274841308594
 21
185.26185607910156
 31
55.0
  0
LINE
  8
0
 10
25.708274841308594
 20
185.26185607910156
 30
55.0
 11
25.958309173583984
 21
185.05667114257812
 31
55.0
  0
LINE
  8
0
 10
25.958309173583984
 20
185.05667114257812
 30
55.0
 11
26.243572235107422
 21
184.90419006347656
 31
55.0
  0
LINE
  8
0
 10
26.243572235107422
 20
184.90419006347656
 30
55.0
 11
26.5531005859375
 21
184.81028747558594
 31
55.0
  0
LINE
  8
0
 10
26.5531005859375
 20
184.81028747558594
 30
55.0
 11
26.875
 21
184.77859497070312
 31
55.0
  0
LINE
  8
0
 10
26.875
 20
184.77859497070312
 30
55.0
 11
27.1968994140625
 21
184.81028747558594
 31
55.0
  0
LINE
  8
0
 10
27.1968994140625
 20
184.81028747558594
 30
55.0
 11
27.506427764892578
 21
184.90419006347656
 31
55.0
  0
LINE
  8
0
 10
27.506427764892578
 20
184.90419006347656
 30
55.0
 11
27.791690826416016
 21
185.05667114257812
 31
55.0
  0
LINE
  8
0
 10
27.791690826416016
 20
185.05667114257812
 30
55.0
 11
28.041725158691406
 21
185.26185607910156
 31
55.0
  0
LINE
  8
0
 10
28.041725158691406
 20
185.26185607910156
 30
55.0
 11
28.246925354003906
 21
185.51190185546875
 31
55.0
  0
LINE
  8
0
 10
28.246925354003906
 20
185.51190185546875
 30
55.0
 11
28.39940071105957
 21
185.7971649169922
 31
55.0
  0
LINE
  8
0
 10
28.39940071105957
 20
185.7971649169922
 30
55.0
 11
28.493295669555664
 21
186.106689453125
 31
55.0
  0
LINE
  8
0
 10
28.493295669555664
 20
186.106689453125
 30
55.0
 11
28.524999618530273
 21
186.4285888671875
 31
55.0
  0
LINE
  8
0
 10
28.524999618530273
 20
186.4285888671875
 30
55.0
 11
28.493295669555664
 21
186.75048828125
 31
55.0
  0
LINE
  8
0
 10
28.493295669555664
 20
186.75048828125
 30
55.0
 11
28.39940071105957
 21
187.0600128173828
 31
55.0
  0
LINE
  8
0
 10
28.39940071105957
 20
187.0600128173828
 30
55.0
 11
28.246925354003906
 21
187.34527587890625
 31
55.0
  0
LINE
  8
0
 10
28.246925354003906
 20
187.34527587890625
 30
55.0
 11
28.041725158691406
 21
187.59532165527344
 31
55.0
  0
LINE
  8
0
 10
28.041725158691406
 20
187.59532165527344
 30
55.0
 11
27.791690826416016
 21
187.80050659179688
 31
55.0
  0
LINE
  8
0
 10
27.791690826416016
 20
187.80050659179688
 30
55.0
 11
27.506427764892578
 21
187.95298767089844
 31
55.0
  0
LINE
  8
0
 10
27.506427764892578
 20
187.95298767089844
 30
55.0
 11
27.1968994140625
 21
188.04689025878906
 31
55.0
  0
LINE
  8
0
 10
26.875
 20
188.07858276367188
 30
55.0
 11
27.1968994140625
 21
188.04689025878906
 31
55.0
  0
LINE
  8
0
 10
263.125
 20
188.0785675048828
 30
55.0
 11
262.8031005859375
 21
188.046875
 31
55.0
  0
LINE
  8
0
 10
262.8031005859375
 20
188.046875
 30
55.0
 11
262.4935607910156
 21
187.95297241210938
 31
55.0
  0
LINE
  8
0
 10
262.4935607910156
 20
187.95297241210938
 30
55.0
 11
262.20831298828125
 21
187.8004913330078
 31
55.0
  0
LINE
  8
0
 10
262.20831298828125
 20
187.8004913330078
 30
55.0
 11
261.9582824707031
 21
187.59530639648438
 31
55.0
  0
LINE
  8
0
 10
261.9582824707031
 20
187.59530639648438
 30
55.0
 11
261.7530822753906
 21
187.3452606201172
 31
55.0
  0
LINE
  8
0
 10
261.7530822753906
 20
187.3452606201172
 30
55.0
 11
261.6005859375
 21
187.05999755859375
 31
55.0
  0
LINE
  8
0
 10
261.6005859375
 20
187.05999755859375
 30
55.0
 11
261.5067138671875
 21
186.75047302246094
 31
55.0
  0
LINE
  8
0
 10
261.5067138671875
 20
186.75047302246094
 30
55.0
 11
261.4750061035156
 21
186.42857360839844
 31
55.0
  0
LINE
  8
0
 10
261.4750061035156
 20
186.42857360839844
 30
55.0
 11
261.5067138671875
 21
186.10667419433594
 31
55.0
  0
LINE
  8
0
 10
261.5067138671875
 20
186.10667419433594
 30
55.0
 11
261.6005859375
 21
185.79714965820312
 31
55.0
  0
LINE
  8
0
 10
261.6005859375
 20
185.79714965820312
 30
55.0
 11
261.7530822753906
 21
185.5118865966797
 31
55.0
  0
LINE
  8
0
 10
261.7530822753906
 20
185.5118865966797
 30
55.0
 11
261.9582824707031
 21
185.2618408203125
 31
55.0
  0
LINE
  8
0
 10
261.9582824707031
 20
185.2618408203125
 30
55.0
 11
262.20831298828125
 21
185.05665588378906
 31
55.0
  0
LINE
  8
0
 10
262.20831298828125
 20
185.05665588378906
 30
55.0
 11
262.4935607910156
 21
184.9041748046875
 31
55.0
  0
LINE
  8
0
 10
262.4935607910156
 20
184.9041748046875
 30
55.0
 11
262.8031005859375
 21
184.81027221679688
 31
55.0
  0
LINE
  8
0
 10
262.8031005859375
 20
184.81027221679688
 30
55.0
 11
263.125
 21
184.77857971191406
 31
55.0
  0
LINE
  8
0
 10
263.125
 20
184.77857971191406
 30
55.0
 11
263.4468994140625
 21
184.81027221679688
 31
55.0
  0
LINE
  8
0
 10
263.4468994140625
 20
184.81027221679688
 30
55.0
 11
263.7564392089844
 21
184.9041748046875
 31
55.0
  0
LINE
  8
0
 10
263.7564392089844
 20
184.9041748046875
 30
55.0
 11
264.04168701171875
 21
185.05665588378906
 31
55.0
  0
LINE
  8
0
 10
264.04168701171875
 20
185.05665588378906
 30
55.0
 11
264.2917175292969
 21
185.2618408203125
 31
55.0
  0
LINE
  8
0
 10
264.2917175292969
 20
185.2618408203125
 30
55.0
 11
264.4969177246094
 21
185.5118865966797
 31
55.0
  0
LINE
  8
0
 10
264.4969177246094
 20
185.5118865966797
 30
55.0
 11
264.6494140625
 21
185.79714965820312
 31
55.0
  0
LINE
  8
0
 10
264.6494140625
 20
185.79714965820312
 30
55.0
 11
264.7432861328125
 21
186.10667419433594
 31
55.0
  0
LINE
  8
0
 10
264.7432861328125
 20
186.10667419433594
 30
55.0
 11
264.7749938964844
 21
186.42857360839844
 31
55.0
  0
LINE
  8
0
 10
264.7749938964844
 20
186.42857360839844
 30
55.0
 11
264.7432861328125
 21
186.75047302246094
 31
55.0
  0
LINE
  8
0
 10
264.7432861328125
 20
186.75047302246094
 30
55.0
 11
264.6494140625
 21
187.05999755859375
 31
55.0
  0
LINE
  8
0
 10
264.6494140625
 20
187.05999755859375
 30
55.0
 11
264.4969177246094
 21
187.3452606201172
 31
55.0
  0
LINE
  8
0
 10
264.4969177246094
 20
187.3452606201172
 30
55.0
 11
264.2917175292969
 21
187.59530639648438
 31
55.0
  0
LINE
  8
0
 10
264.2917175292969
 20
187.59530639648438
 30
55.0
 11
264.04168701171875
 21
187.8004913330078
 31
55.0
  0
LINE
  8
0
 10
264.04168701171875
 20
187.8004913330078
 30
55.0
 11
263.7564392089844
 21
187.95297241210938
 31
55.0
  0
LINE
  8
0
 10
263.7564392089844
 20
187.95297241210938
 30
55.0
 11
263.4468994140625
 21
188.046875
 31
55.0
  0
LINE
  8
0
 10
263.125
 20
188.0785675048828
 30
55.0
 11
263.4468994140625
 21
188.046875
 31
55.0
  0
LINE
  8
0
 10
26.875
 20
52.364288330078125
 30
55.0
 11
26.5531005859375
 21
52.33258056640625
 31
55.0
  0
LINE
  8
0
 10
26.5531005859375
 20
52.33258056640625
 30
55.0
 11
26.243572235107422
 21
52.23868942260742
 31
55.0
  0
LINE
  8
0
 10
26.243572235107422
 20
52.23868942260742
 30
55.0
 11
25.958309173583984
 21
52.086212158203125
 31
55.0
  0
LINE
  8
0
 10
25.958309173583984
 20
52.086212158203125
 30
55.0
 11
25.708274841308594
 21
51.881011962890625
 31
55.0
  0
LINE
  8
0
 10
25.708274841308594
 20
51.881011962890625
 30
55.0
 11
25.503074645996094
 21
51.630977630615234
 31
55.0
  0
LINE
  8
0
 10
25.503074645996094
 20
51.630977630615234
 30
55.0
 11
25.35059928894043
 21
51.3457145690918
 31
55.0
  0
LINE
  8
0
 10
25.35059928894043
 20
51.3457145690918
 30
55.0
 11
25.256704330444336
 21
51.03618621826172
 31
55.0
  0
LINE
  8
0
 10
25.256704330444336
 20
51.03618621826172
 30
55.0
 11
25.225000381469727
 21
50.71428680419922
 31
55.0
  0
LINE
  8
0
 10
25.225000381469727
 20
50.71428680419922
 30
55.0
 11
25.256704330444336
 21
50.39238739013672
 31
55.0
  0
LINE
  8
0
 10
25.256704330444336
 20
50.39238739013672
 30
55.0
 11
25.35059928894043
 21
50.08285903930664
 31
55.0
  0
LINE
  8
0
 10
25.35059928894043
 20
50.08285903930664
 30
55.0
 11
25.503074645996094
 21
49.7975959777832
 31
55.0
  0
LINE
  8
0
 10
25.503074645996094
 20
49.7975959777832
 30
55.0
 11
25.708274841308594
 21
49.54756164550781
 31
55.0
  0
LINE
  8
0
 10
25.708274841308594
 20
49.54756164550781
 30
55.0
 11
25.958309173583984
 21
49.34236145019531
 31
55.0
  0
LINE
  8
0
 10
25.958309173583984
 20
49.34236145019531
 30
55.0
 11
26.243572235107422
 21
49.189884185791016
 31
55.0
  0
LINE
  8
0
 10
26.243572235107422
 20
49.189884185791016
 30
55.0
 11
26.5531005859375
 21
49.09599304199219
 31
55.0
  0
LINE
  8
0
 10
26.5531005859375
 20
49.09599304199219
 30
55.0
 11
26.875
 21
49.06428527832031
 31
55.0
  0
LINE
  8
0
 10
26.875
 20
49.06428527832031
 30
55.0
 11
27.1968994140625
 21
49.09599304199219
 31
55.0
  0
LINE
  8
0
 10
27.1968994140625
 20
49.09599304199219
 30
55.0
 11
27.506427764892578
 21
49.189884185791016
 31
55.0
  0
LINE
  8
0
 10
27.506427764892578
 20
49.189884185791016
 30
55.0
 11
27.791690826416016
 21
49.34236145019531
 31
55.0
  0
LINE
  8
0
 10
27.791690826416016
 20
49.34236145019531
 30
55.0
 11
28.041725158691406
 21
49.54756164550781
 31
55.0
  0
LINE
  8
0
 10
28.041725158691406
 20
49.54756164550781
 30
55.0
 11
28.246925354003906
 21
49.7975959777832
 31
55.0
  0
LINE
  8
0
 10
28.246925354003906
 20
49.7975959777832
 30
55.0
 11
28.39940071105957
 21
50.08285903930664
 31
55.0
  0
LINE
  8
0
 10
28.39940071105957
 20
50.08285903930664
 30
55.0
 11
28.493295669555664
 21
50.39238739013672
 31
55.0
  0
LINE
  8
0
 10
28.493295669555664
 20
50.39238739013672
 30
55.0
 11
28.524999618530273
 21
50.71428680419922
 31
55.0
  0
LINE
  8
0
 10
28.524999618530273
 20
50.71428680419922
 30
55.0
 11
28.493295669555664
 21
51.03618621826172
 31
55.0
  0
LINE
  8
0
 10
28.493295669555664
 20
51.03618621826172
 30
55.0
 11
28.39940071105957
 21
51.3457145690918
 31
55.0
  0
LINE
  8
0
 10
28.39940071105957
 20
51.3457145690918
 30
55.0
 11
28.246925354003906
 21
51.630977630615234
 31
55.0
  0
LINE
  8
0
 10
28.246925354003906
 20
51.630977630615234
 30
55.0
 11
28.041725158691406
 21
51.881011962890625
 31
55.0
  0
LINE
  8
0
 10
28.041725158691406
 20
51.881011962890625
 30
55.0
 11
27.791690826416016
 21
52.086212158203125
 31
55.0
  0
LINE
  8
0
 10
27.791690826416016
 20
52.086212158203125
 30
55.0
 11
27.506427764892578
 21
52.23868942260742
 31
55.0
  0
LINE
  8
0
 10
27.506427764892578
 20
52.23868942260742
 30
55.0
 11
27.1968994140625
 21
52.33258056640625
 31
55.0
  0
LINE
  8
0
 10
26.875
 20
52.364288330078125
 30
55.0
 11
27.1968994140625
 21
52.33258056640625
 31
55.0
  0
LINE
  8
0
 10
263.125
 20
52.36429977416992
 30
55.0
 11
262.8031005859375
 21
52.33259582519531
 31
55.0
  0
LINE
  8
0
 10
262.8031005859375
 20
52.33259582519531
 30
55.0
 11
262.4935607910156
 21
52.23870086669922
 31
55.0
  0
LINE
  8
0
 10
262.4935607910156
 20
52.23870086669922
 30
55.0
 11
262.20831298828125
 21
52.08622360229492
 31
55.0
  0
LINE
  8
0
 10
262.20831298828125
 20
52.08622360229492
 30
55.0
 11
261.9582824707031
 21
51.88102340698242
 31
55.0
  0
LINE
  8
0
 10
261.9582824707031
 20
51.88102340698242
 30
55.0
 11
261.7530822753906
 21
51.63098907470703
 31
55.0
  0
LINE
  8
0
 10
261.7530822753906
 20
51.63098907470703
 30
55.0
 11
261.6005859375
 21
51.345726013183594
 31
55.0
  0
LINE
  8
0
 10
261.6005859375
 20
51.345726013183594
 30
55.0
 11
261.5067138671875
 21
51.036197662353516
 31
55.0
  0
LINE
  8
0
 10
261.5067138671875
 20
51.036197662353516
 30
55.0
 11
261.4750061035156
 21
50.714298248291016
 31
55.0
  0
LINE
  8
0
 10
261.4750061035156
 20
50.714298248291016
 30
55.0
 11
261.5067138671875
 21
50.392398834228516
 31
55.0
  0
LINE
  8
0
 10
261.5067138671875
 20
50.392398834228516
 30
55.0
 11
261.6005859375
 21
50.08287048339844
 31
55.0
  0
LINE
  8
0
 10
261.6005859375
 20
50.08287048339844
 30
55.0
 11
261.7530822753906
 21
49.797607421875
 31
55.0
  0
LINE
  8
0
 10
261.7530822753906
 20
49.797607421875
 30
55.0
 11
261.9582824707031
 21
49.54757308959961
 31
55.0
  0
LINE
  8
0
 10
261.9582824707031
 20
49.54757308959961
 30
55.0
 11
262.20831298828125
 21
49.34237289428711
 31
55.0
  0
LINE
  8
0
 10
262.20831298828125
 20
49.34237289428711
 30
55.0
 11
262.4935607910156
 21
49.18989562988281
 31
55.0
  0
LINE
  8
0
 10
262.4935607910156
 20
49.18989562988281
 30
55.0
 11
262.8031005859375
 21
49.09600067138672
 31
55.0
  0
LINE
  8
0
 10
262.8031005859375
 20
49.09600067138672
 30
55.0
 11
263.125
 21
49.06429672241211
 31
55.0
  0
LINE
  8
0
 10
263.125
 20
49.06429672241211
 30
55.0
 11
263.4468994140625
 21
49.09600067138672
 31
55.0
  0
LINE
  8
0
 10
263.4468994140625
 20
49.09600067138672
 30
55.0
 11
263.7564392089844
 21
49.18989562988281
 31
55.0
  0
LINE
  8
0
 10
263.7564392089844
 20
49.18989562988281
 30
55.0
 11
264.04168701171875
 21
49.34237289428711
 31
55.0
  0
LINE
  8
0
 10
264.04168701171875
 20
49.34237289428711
 30
55.0
 11
264.2917175292969
 21
49.54757308959961
 31
55.0
  0
LINE
  8
0
 10
264.2917175292969
 20
49.54757308959961
 30
55.0
 11
264.4969177246094
 21
49.797607421875
 31
55.0
  0
LINE
  8
0
 10
264.4969177246094
 20
49.797607421875
 30
55.0
 11
264.6494140625
 21
50.08287048339844
 31
55.0
  0
LINE
  8
0
 10
264.6494140625
 20
50.08287048339844
 30
55.0
 11
264.7432861328125
 21
50.392398834228516
 31
55.0
  0
LINE
  8
0
 10
264.7432861328125
 20
50.392398834228516
 30
55.0
 11
264.7749938964844
 21
50.714298248291016
 31
55.0
  0
LINE
  8
0
 10
264.7749938964844
 20
50.714298248291016
 30
55.0
 11
264.7432861328125
 21
51.036197662353516
 31
55.0
  0
LINE
  8
0
 10
264.7432861328125
 20
51.036197662353516
 30
55.0
 11
264.6494140625
 21
51.345726013183594
 31
55.0
  0
LINE
  8
0
 10
264.6494140625
 20
51.345726013183594
 30
55.0
 11
264.4969177246094
 21
51.63098907470703
 31
55.0
  0
LINE
  8
0
 10
264.4969177246094
 20
51.63098907470703
 30
55.0
 11
264.2917175292969
 21
51.88102340698242
 31
55.0
  0
LINE
  8
0
 10
264.2917175292969
 20
51.88102340698242
 30
55.0
 11
264.04168701171875
 21
52.08622360229492
 31
55.0
  0
LINE
  8
0
 10
264.04168701171875
 20
52.08622360229492
 30
55.0
 11
263.7564392089844
 21
52.23870086669922
 31
55.0
  0
LINE
  8
0
 10
263.7564392089844
 20
52.23870086669922
 30
55.0
 11
263.4468994140625
 21
52.33259582519531
 31
55.0
  0
LINE
  8
0
 10
263.125
 20
52.36429977416992
 30
55.0
 11
263.4468994140625
 21
52.33259582519531
 31
55.0
  0
LINE
  8
0
 10
10.0
 20
200.00001525878906
 30
55.0
 11
280.0
 21
200.0
 31
55.0
  0
LINE
  8
0
 10
280.0
 20
200.0
 30
55.0
 11
280.0
 21
30.142871856689453
 31
55.0
  0
LINE
  8
0
 10
10.0
 20
30.142860412597656
 30
55.0
 11
280.0
 21
30.142871856689453
 31
55.0
  0
LINE
  8
0
 10
160.25
 20
69.5
 30
55.0
 11
160.11953735351562
 21
67.50947570800781
 31
55.0
  0
LINE
  8
0
 10
160.11953735351562
 20
67.50947570800781
 30
55.0
 11
159.73036193847656
 21
65.55300903320312
 31
55.0
  0
LINE
  8
0
 10
159.73036193847656
 20
65.55300903320312
 30
55.0
 11
159.0891571044922
 21
63.66407775878906
 31
55.0
  0
LINE
  8
0
 10
159.0891571044922
 20
63.66407775878906
 30
55.0
 11
158.20689392089844
 21
61.875
 31
55.0
  0
LINE
  8
0
 10
158.20689392089844
 20
61.875
 30
55.0
 11
157.0986328125
 21
60.21638870239258
 31
55.0
  0
LINE
  8
0
 10
157.0986328125
 20
60.21638870239258
 30
55.0
 11
155.78338623046875
 21
58.71662139892578
 31
55.0
  0
LINE
  8
0
 10
155.78338623046875
 20
58.71662139892578
 30
55.0
 11
154.2836151123047
 21
57.401363372802734
 31
55.0
  0
LINE
  8
0
 10
154.2836151123047
 20
57.401363372802734
 30
55.0
 11
152.625
 21
56.293113708496094
 31
55.0
  0
LINE
  8
0
 10
152.625
 20
56.293113708496094
 30
55.0
 11
150.83592224121094
 21
55.41083526611328
 31
55.0
  0
LINE
  8
0
 10
150.83592224121094
 20
55.41083526611328
 30
55.0
 11
148.94699096679688
 21
54.769630432128906
 31
55.0
  0
LINE
  8
0
 10
148.94699096679688
 20
54.769630432128906
 30
55.0
 11
146.9905242919922
 21
54.38046646118164
 31
55.0
  0
LINE
  8
0
 10
146.9905242919922
 20
54.38046646118164
 30
55.0
 11
145.0
 21
54.25
 31
55.0
  0
LINE
  8
0
 10
145.0
 20
54.25
 30
55.0
 11
143.0094757080078
 21
54.38046646118164
 31
55.0
  0
LINE
  8
0
 10
143.0094757080078
 20
54.38046646118164
 30
55.0
 11
141.05300903320312
 21
54.769630432128906
 31
55.0
  0
LINE
  8
0
 10
141.05300903320312
 20
54.769630432128906
 30
55.0
 11
139.16407775878906
 21
55.41083526611328
 31
55.0
  0
LINE
  8
0
 10
139.16407775878906
 20
55.41083526611328
 30
55.0
 11
137.375
 21
56.293113708496094
 31
55.0
  0
LINE
  8
0
 10
137.375
 20
56.293113708496094
 30
55.0
 11
135.7163848876953
 21
57.40135955810547
 31
55.0
  0
LINE
  8
0
 10
135.7163848876953
 20
57.40135955810547
 30
55.0
 11
134.2166290283203
 21
58.71662139892578
 31
55.0
  0
LINE
  8
0
 10
134.2166290283203
 20
58.71662139892578
 30
55.0
 11
132.9013671875
 21
60.21638870239258
 31
55.0
  0
LINE
  8
0
 10
132.9013671875
 20
60.21638870239258
 30
55.0
 11
131.79310607910156
 21
61.875
 31
55.0
  0
LINE
  8
0
 10
131.79310607910156
 20
61.875
 30
55.0
 11
130.9108428955078
 21
63.66407775878906
 31
55.0
  0
LINE
  8
0
 10
130.9108428955078
 20
63.66407775878906
 30
55.0
 11
130.26963806152344
 21
65.55300903320312
 31
55.0
  0
LINE
  8
0
 10
130.26963806152344
 20
65.55300903320312
 30
55.0
 11
129.88046264648438
 21
67.50947570800781
 31
55.0
  0
LINE
  8
0
 10
129.88046264648438
 20
67.50947570800781
 30
55.0
 11
129.75
 21
69.5
 31
55.0
  0
LINE
  8
0
 10
129.75
 20
69.5
 30
55.0
 11
129.88046264648438
 21
71.49052429199219
 31
55.0
  0
LINE
  8
0
 10
129.88046264648438
 20
71.49052429199219
 30
55.0
 11
130.26963806152344
 21
73.44699096679688
 31
55.0
  0
LINE
  8
0
 10
130.26963806152344
 20
73.44699096679688
 30
55.0
 11
130.9108428955078
 21
75.33592224121094
 31
55.0
  0
LINE
  8
0
 10
130.9108428955078
 20
75.33592224121094
 30
55.0
 11
131.79310607910156
 21
77.125
 31
55.0
  0
LINE
  8
0
 10
131.79310607910156
 20
77.125
 30
55.0
 11
132.9013671875
 21
78.78361511230469
 31
55.0
  0
LINE
  8
0
 10
132.9013671875
 20
78.78361511230469
 30
55.0
 11
134.21661376953125
 21
80.28337860107422
 31
55.0
  0
LINE
  8
0
 10
134.21661376953125
 20
80.28337860107422
 30
55.0
 11
135.7163848876953
 21
81.59864044189453
 31
55.0
  0
LINE
  8
0
 10
135.7163848876953
 20
81.59864044189453
 30
55.0
 11
137.375
 21
82.7068862915039
 31
55.0
  0
LINE
  8
0
 10
137.375
 20
82.7068862915039
 30
55.0
 11
139.16407775878906
 21
83.58916473388672
 31
55.0
  0
LINE
  8
0
 10
139.16407775878906
 20
83.58916473388672
 30
55.0
 11
141.05300903320312
 21
84.2303695678711
 31
55.0
  0
LINE
  8
0
 10
141.05300903320312
 20
84.2303695678711
 30
55.0
 11
143.0094757080078
 21
84.61953735351562
 31
55.0
  0
LINE
  8
0
 10
143.0094757080078
 20
84.61953735351562
 30
55.0
 11
145.0
 21
84.75
 31
55.0
  0
LINE
  8
0
 10
145.0
 20
84.75
 30
55.0
 11
146.9905242919922
 21
84.61953735351562
 31
55.0
  0
LINE
  8
0
 10
146.9905242919922
 20
84.61953735351562
 30
55.0
 11
148.94699096679688
 21
84.2303695678711
 31
55.0
  0
LINE
  8
0
 10
148.94699096679688
 20
84.2303695678711
 30
55.0
 11
150.83592224121094
 21
83.58916473388672
 31
55.0
  0
LINE
  8
0
 10
150.83592224121094
 20
83.58916473388672
 30
55.0
 11
152.625
 21
82.7068862915039
 31
55.0
  0
LINE
  8
0
 10
152.625
 20
82.7068862915039
 30
55.0
 11
154.2836151123047
 21
81.59864044189453
 31
55.0
  0
LINE
  8
0
 10
154.2836151123047
 20
81.59864044189453
 30
55.0
 11
155.7833709716797
 21
80.28337860107422
 31
55.0
  0
LINE
  8
0
 10
155.7833709716797
 20
80.28337860107422
 30
55.0
 11
157.0986328125
 21
78.78361511230469
 31
55.0
  0
LINE
  8
0
 10
157.0986328125
 20
78.78361511230469
 30
55.0
 11
158.20689392089844
 21
77.125
 31
55.0
  0
LINE
  8
0
 10
158.20689392089844
 20
77.125
 30
55.0
 11
159.0891571044922
 21
75.33592224121094
 31
55.0
  0
LINE
  8
0
 10
159.0891571044922
 20
75.33592224121094
 30
55.0
 11
159.73036193847656
 21
73.44699096679688
 31
55.0
  0
LINE
  8
0
 10
159.73036193847656
 20
73.44699096679688
 30
55.0
 11
160.11953735351562
 21
71.49052429199219
 31
55.0
  0
LINE
  8
0
 10
160.25
 20
69.5
 30
55.0
 11
160.11953735351562
 21
71.49052429199219
 31
55.0
  0
LINE
  8
0
 10
226.00399780273438
 20
115.86215209960938
 30
55.0
 11
225.89920043945312
 21
114.2632064819336
 31
55.0
  0
LINE
  8
0
 10
225.89920043945312
 20
114.2632064819336
 30
55.0
 11
225.58657836914062
 21
112.69161987304688
 31
55.0
  0
LINE
  8
0
 10
225.58657836914062
 20
112.69161987304688
 30
55.0
 11
225.07151794433594
 21
111.17427825927734
 31
55.0
  0
LINE
  8
0
 10
225.07151794433594
 20
111.17427825927734
 30
55.0
 11
224.36280822753906
 21
109.73715209960938
 31
55.0
  0
LINE
  8
0
 10
224.36280822753906
 20
109.73715209960938
 30
55.0
 11
223.4725799560547
 21
108.40482330322266
 31
55.0
  0
LINE
  8
0
 10
223.4725799560547
 20
108.40482330322266
 30
55.0
 11
222.41604614257812
 21
107.2000961303711
 31
55.0
  0
LINE
  8
0
 10
222.41604614257812
 20
107.2000961303711
 30
55.0
 11
221.21133422851562
 21
106.14356994628906
 31
55.0
  0
LINE
  8
0
 10
221.21133422851562
 20
106.14356994628906
 30
55.0
 11
219.87899780273438
 21
105.25334167480469
 31
55.0
  0
LINE
  8
0
 10
219.87899780273438
 20
105.25334167480469
 30
55.0
 11
218.44186401367188
 21
104.54463195800781
 31
55.0
  0
LINE
  8
0
 10
218.44186401367188
 20
104.54463195800781
 30
55.0
 11
216.92453002929688
 21
104.02955627441406
 31
55.0
  0
LINE
  8
0
 10
216.92453002929688
 20
104.02955627441406
 30
55.0
 11
215.35293579101562
 21
103.71694946289062
 31
55.0
  0
LINE
  8
0
 10
215.35293579101562
 20
103.71694946289062
 30
55.0
 11
213.75399780273438
 21
103.61215209960938
 31
55.0
  0
LINE
  8
0
 10
213.75399780273438
 20
103.61215209960938
 30
55.0
 11
212.15505981445312
 21
103.71694946289062
 31
55.0
  0
LINE
  8
0
 10
212.15505981445312
 20
103.71694946289062
 30
55.0
 11
210.58346557617188
 21
104.02955627441406
 31
55.0
  0
LINE
  8
0
 10
210.58346557617188
 20
104.02955627441406
 30
55.0
 11
209.06613159179688
 21
104.54463195800781
 31
55.0
  0
LINE
  8
0
 10
209.06613159179688
 20
104.54463195800781
 30
55.0
 11
207.62899780273438
 21
105.25334167480469
 31
55.0
  0
LINE
  8
0
 10
207.62899780273438
 20
105.25334167480469
 30
55.0
 11
206.29666137695312
 21
106.14356994628906
 31
55.0
  0
LINE
  8
0
 10
206.29666137695312
 20
106.14356994628906
 30
55.0
 11
205.09194946289062
 21
107.2000961303711
 31
55.0
  0
LINE
  8
0
 10
205.09194946289062
 20
107.2000961303711
 30
55.0
 11
204.03541564941406
 21
108.40482330322266
 31
55.0
  0
LINE
  8
0
 10
204.03541564941406
 20
108.40482330322266
 30
55.0
 11
203.1451873779297
 21
109.73715209960938
 31
55.0
  0
LINE
  8
0
 10
203.1451873779297
 20
109.73715209960938
 30
55.0
 11
202.4364776611328
 21
111.17427825927734
 31
55.0
  0
LINE
  8
0
 10
202.4364776611328
 20
111.17427825927734
 30
55.0
 11
201.92140197753906
 21
112.69161987304688
 31
55.0
  0
LINE
  8
0
 10
201.92140197753906
 20
112.69161987304688
 30
55.0
 11
201.60879516601562
 21
114.2632064819336
 31
55.0
  0
LINE
  8
0
 10
201.60879516601562
 20
114.2632064819336
 30
55.0
 11
201.50399780273438
 21
115.86215209960938
 31
55.0
  0
LINE
  8
0
 10
201.50399780273438
 20
115.86215209960938
 30
55.0
 11
201.60879516601562
 21
117.46109771728516
 31
55.0
  0
LINE
  8
0
 10
201.60879516601562
 20
117.46109771728516
 30
55.0
 11
201.92140197753906
 21
119.03268432617188
 31
55.0
  0
LINE
  8
0
 10
201.92140197753906
 20
119.03268432617188
 30
55.0
 11
202.4364776611328
 21
120.5500259399414
 31
55.0
  0
LINE
  8
0
 10
202.4364776611328
 20
120.5500259399414
 30
55.0
 11
203.1451873779297
 21
121.98715209960938
 31
55.0
  0
LINE
  8
0
 10
203.1451873779297
 20
121.98715209960938
 30
55.0
 11
204.03541564941406
 21
123.3194808959961
 31
55.0
  0
LINE
  8
0
 10
204.03541564941406
 20
123.3194808959961
 30
55.0
 11
205.09194946289062
 21
124.52420806884766
 31
55.0
  0
LINE
  8
0
 10
205.09194946289062
 20
124.52420806884766
 30
55.0
 11
206.29666137695312
 21
125.58073425292969
 31
55.0
  0
LINE
  8
0
 10
206.29666137695312
 20
125.58073425292969
 30
55.0
 11
207.62899780273438
 21
126.47096252441406
 31
55.0
  0
LINE
  8
0
 10
207.62899780273438
 20
126.47096252441406
 30
55.0
 11
209.06613159179688
 21
127.17967224121094
 31
55.0
  0
LINE
  8
0
 10
209.06613159179688
 20
127.17967224121094
 30
55.0
 11
210.58346557617188
 21
127.69474792480469
 31
55.0
  0
LINE
  8
0
 10
210.58346557617188
 20
127.69474792480469
 30
55.0
 11
212.15505981445312
 21
128.00735473632812
 31
55.0
  0
LINE
  8
0
 10
212.15505981445312
 20
128.00735473632812
 30
55.0
 11
213.75399780273438
 21
128.11215209960938
 31
55.0
  0
LINE
  8
0
 10
213.75399780273438
 20
128.11215209960938
 30
55.0
 11
215.35293579101562
 21
128.00735473632812
 31
55.0
  0
LINE
  8
0
 10
215.35293579101562
 20
128.00735473632812
 30
55.0
 11
216.92453002929688
 21
127.69474792480469
 31
55.0
  0
LINE
  8
0
 10
216.92453002929688
 20
127.69474792480469
 30
55.0
 11
218.44186401367188
 21
127.17967224121094
 31
55.0
  0
LINE
  8
0
 10
218.44186401367188
 20
127.17967224121094
 30
55.0
 11
219.87899780273438
 21
126.47096252441406
 31
55.0
  0
LINE
  8
0
 10
219.87899780273438
 20
126.47096252441406
 30
55.0
 11
221.21133422851562
 21
125.58073425292969
 31
55.0
  0
LINE
  8
0
 10
221.21133422851562
 20
125.58073425292969
 30
55.0
 11
222.41604614257812
 21
124.52420806884766
 31
55.0
  0
LINE
  8
0
 10
222.41604614257812
 20
124.52420806884766
 30
55.0
 11
223.4725799560547
 21
123.3194808959961
 31
55.0
  0
LINE
  8
0
 10
223.4725799560547
 20
123.3194808959961
 30
55.0
 11
224.36280822753906
 21
121.98715209960938
 31
55.0
  0
LINE
  8
0
 10
224.36280822753906
 20
121.98715209960938
 30
55.0
 11
225.07151794433594
 21
120.5500259399414
 31
55.0
  0
LINE
  8
0
 10
225.07151794433594
 20
120.5500259399414
 30
55.0
 11
225.58657836914062
 21
119.03268432617188
 31
55.0
  0
LINE
  8
0
 10
225.58657836914062
 20
119.03268432617188
 30
55.0
 11
225.89920043945312
 21
117.46109771728516
 31
55.0
  0
LINE
  8
0
 10
226.00399780273438
 20
115.86215209960938
 30
55.0
 11
225.89920043945312
 21
117.46109771728516
 31
55.0
  0
LINE
  8
0
 10
85.9226303100586
 20
134.76019287109375
 30
55.0
 11
85.81783294677734
 21
133.1612548828125
 31
55.0
  0
LINE
  8
0
 10
85.81783294677734
 20
133.1612548828125
 30
55.0
 11
85.50521850585938
 21
131.58966064453125
 31
55.0
  0
LINE
  8
0
 10
85.50521850585938
 20
131.58966064453125
 30
55.0
 11
84.99015808105469
 21
130.07232666015625
 31
55.0
  0
LINE
  8
0
 10
84.99015808105469
 20
130.07232666015625
 30
55.0
 11
84.28144836425781
 21
128.63519287109375
 31
55.0
  0
LINE
  8
0
 10
84.28144836425781
 20
128.63519287109375
 30
55.0
 11
83.3912124633789
 21
127.30287170410156
 31
55.0
  0
LINE
  8
0
 10
83.3912124633789
 20
127.30287170410156
 30
55.0
 11
82.3346939086914
 21
126.09813690185547
 31
55.0
  0
LINE
  8
0
 10
82.3346939086914
 20
126.09813690185547
 30
55.0
 11
81.12995910644531
 21
125.04161834716797
 31
55.0
  0
LINE
  8
0
 10
81.12995910644531
 20
125.04161834716797
 30
55.0
 11
79.79763793945312
 21
124.15138244628906
 31
55.0
  0
LINE
  8
0
 10
79.79763793945312
 20
124.15138244628906
 30
55.0
 11
78.36050415039062
 21
123.44267272949219
 31
55.0
  0
LINE
  8
0
 10
78.36050415039062
 20
123.44267272949219
 30
55.0
 11
76.84317016601562
 21
122.92760467529297
 31
55.0
  0
LINE
  8
0
 10
76.84317016601562
 20
122.92760467529297
 30
55.0
 11
75.2715835571289
 21
122.614990234375
 31
55.0
  0
LINE
  8
0
 10
75.2715835571289
 20
122.614990234375
 30
55.0
 11
73.67263793945312
 21
122.51019287109375
 31
55.0
  0
LINE
  8
0
 10
73.67263793945312
 20
122.51019287109375
 30
55.0
 11
72.07369232177734
 21
122.614990234375
 31
55.0
  0
LINE
  8
0
 10
72.07369232177734
 20
122.614990234375
 30
55.0
 11
70.50210571289062
 21
122.92759704589844
 31
55.0
  0
LINE
  8
0
 10
70.50210571289062
 20
122.92759704589844
 30
55.0
 11
68.9847640991211
 21
123.44266510009766
 31
55.0
  0
LINE
  8
0
 10
68.9847640991211
 20
123.44266510009766
 30
55.0
 11
67.54763793945312
 21
124.15138244628906
 31
55.0
  0
LINE
  8
0
 10
67.54763793945312
 20
124.15138244628906
 30
55.0
 11
66.2153091430664
 21
125.04161071777344
 31
55.0
  0
LINE
  8
0
 10
66.2153091430664
 20
125.04161071777344
 30
55.0
 11
65.01057434082031
 21
126.09812927246094
 31
55.0
  0
LINE
  8
0
 10
65.01057434082031
 20
126.09812927246094
 30
55.0
 11
63.95405578613281
 21
127.3028564453125
 31
55.0
  0
LINE
  8
0
 10
63.95405578613281
 20
127.3028564453125
 30
55.0
 11
63.063819885253906
 21
128.63519287109375
 31
55.0
  0
LINE
  8
0
 10
63.063819885253906
 20
128.63519287109375
 30
55.0
 11
62.35511016845703
 21
130.0723114013672
 31
55.0
  0
LINE
  8
0
 10
62.35511016845703
 20
130.0723114013672
 30
55.0
 11
61.84004211425781
 21
131.58966064453125
 31
55.0
  0
LINE
  8
0
 10
61.84004211425781
 20
131.58966064453125
 30
55.0
 11
61.527435302734375
 21
133.16123962402344
 31
55.0
  0
LINE
  8
0
 10
61.527435302734375
 20
133.16123962402344
 30
55.0
 11
61.422630310058594
 21
134.76019287109375
 31
55.0
  0
LINE
  8
0
 10
61.422630310058594
 20
134.76019287109375
 30
55.0
 11
61.527427673339844
 21
136.359130859375
 31
55.0
  0
LINE
  8
0
 10
61.527427673339844
 20
136.359130859375
 30
55.0
 11
61.84003448486328
 21
137.93072509765625
 31
55.0
  0
LINE
  8
0
 10
61.84003448486328
 20
137.93072509765625
 30
55.0
 11
62.3551025390625
 21
139.44805908203125
 31
55.0
  0
LINE
  8
0
 10
62.3551025390625
 20
139.44805908203125
 30
55.0
 11
63.063812255859375
 21
140.88519287109375
 31
55.0
  0
LINE
  8
0
 10
63.063812255859375
 20
140.88519287109375
 30
55.0
 11
63.95404815673828
 21
142.21751403808594
 31
55.0
  0
LINE
  8
0
 10
63.95404815673828
 20
142.21751403808594
 30
55.0
 11
65.01056671142578
 21
143.4222412109375
 31
55.0
  0
LINE
  8
0
 10
65.01056671142578
 20
143.4222412109375
 30
55.0
 11
66.21530151367188
 21
144.478759765625
 31
55.0
  0
LINE
  8
0
 10
66.21530151367188
 20
144.478759765625
 30
55.0
 11
67.54762268066406
 21
145.36900329589844
 31
55.0
  0
LINE
  8
0
 10
67.54762268066406
 20
145.36900329589844
 30
55.0
 11
68.98475646972656
 21
146.0777130126953
 31
55.0
  0
LINE
  8
0
 10
68.98475646972656
 20
146.0777130126953
 30
55.0
 11
70.50209045410156
 21
146.5927734375
 31
55.0
  0
LINE
  8
0
 10
70.50209045410156
 20
146.5927734375
 30
55.0
 11
72.07367706298828
 21
146.9053955078125
 31
55.0
  0
LINE
  8
0
 10
72.07367706298828
 20
146.9053955078125
 30
55.0
 11
73.67262268066406
 21
147.01019287109375
 31
55.0
  0
LINE
  8
0
 10
73.67262268066406
 20
147.01019287109375
 30
55.0
 11
75.27156829833984
 21
146.9053955078125
 31
55.0
  0
LINE
  8
0
 10
75.27156829833984
 20
146.9053955078125
 30
55.0
 11
76.84315490722656
 21
146.59278869628906
 31
55.0
  0
LINE
  8
0
 10
76.84315490722656
 20
146.59278869628906
 30
55.0
 11
78.3604965209961
 21
146.07772827148438
 31
55.0
  0
LINE
  8
0
 10
78.3604965209961
 20
146.07772827148438
 30
55.0
 11
79.79762268066406
 21
145.36900329589844
 31
55.0
  0
LINE
  8
0
 10
79.79762268066406
 20
145.36900329589844
 30
55.0
 11
81.12995147705078
 21
144.47877502441406
 31
55.0
  0
LINE
  8
0
 10
81.12995147705078
 20
144.47877502441406
 30
55.0
 11
82.33468627929688
 21
143.42225646972656
 31
55.0
  0
LINE
  8
0
 10
82.33468627929688
 20
143.42225646972656
 30
55.0
 11
83.39120483398438
 21
142.217529296875
 31
55.0
  0
LINE
  8
0
 10
83.39120483398438
 20
142.217529296875
 30
55.0
 11
84.28144073486328
 21
140.88519287109375
 31
55.0
  0
LINE
  8
0
 10
84.28144073486328
 20
140.88519287109375
 30
55.0
 11
84.99015045166016
 21
139.4480743408203
 31
55.0
  0
LINE
  8
0
 10
84.99015045166016
 20
139.4480743408203
 30
55.0
 11
85.50521850585938
 21
137.93072509765625
 31
55.0
  0
LINE
  8
0
 10
85.50521850585938
 20
137.93072509765625
 30
55.0
 11
85.81782531738281
 21
136.35914611816406
 31
55.0
  0
LINE
  8
0
 10
85.9226303100586
 20
134.76019287109375
 30
55.0
 11
85.81782531738281
 21
136.35914611816406
 31
55.0
  0
LINE
  8
0
 10
115.46269226074219
 20
134.8489532470703
 30
55.0
 11
115.35789489746094
 21
133.25
 31
55.0
  0
LINE
  8
0
 10
115.35789489746094
 20
133.25
 30
55.0
 11
115.0452880859375
 21
131.6784210205078
 31
55.0
  0
LINE
  8
0
 10
115.0452880859375
 20
131.6784210205078
 30
55.0
 11
114.53021240234375
 21
130.16107177734375
 31
55.0
  0
LINE
  8
0
 10
114.53021240234375
 20
130.16107177734375
 30
55.0
 11
113.82150268554688
 21
128.7239532470703
 31
55.0
  0
LINE
  8
0
 10
113.82150268554688
 20
128.7239532470703
 30
55.0
 11
112.9312744140625
 21
127.3916244506836
 31
55.0
  0
LINE
  8
0
 10
112.9312744140625
 20
127.3916244506836
 30
55.0
 11
111.87474822998047
 21
126.18689727783203
 31
55.0
  0
LINE
  8
0
 10
111.87474822998047
 20
126.18689727783203
 30
55.0
 11
110.6700210571289
 21
125.13037109375
 31
55.0
  0
LINE
  8
0
 10
110.6700210571289
 20
125.13037109375
 30
55.0
 11
109.33769226074219
 21
124.24014282226562
 31
55.0
  0
LINE
  8
0
 10
109.33769226074219
 20
124.24014282226562
 30
55.0
 11
107.90056610107422
 21
123.53143310546875
 31
55.0
  0
LINE
  8
0
 10
107.90056610107422
 20
123.53143310546875
 30
55.0
 11
106.38322448730469
 21
123.016357421875
 31
55.0
  0
LINE
  8
0
 10
106.38322448730469
 20
123.016357421875
 30
55.0
 11
104.81163787841797
 21
122.70375061035156
 31
55.0
  0
LINE
  8
0
 10
104.81163787841797
 20
122.70375061035156
 30
55.0
 11
103.21269226074219
 21
122.59895324707031
 31
55.0
  0
LINE
  8
0
 10
103.21269226074219
 20
122.59895324707031
 30
55.0
 11
101.6137466430664
 21
122.70375061035156
 31
55.0
  0
LINE
  8
0
 10
101.6137466430664
 20
122.70375061035156
 30
55.0
 11
100.04216003417969
 21
123.016357421875
 31
55.0
  0
LINE
  8
0
 10
100.04216003417969
 20
123.016357421875
 30
55.0
 11
98.52481842041016
 21
123.53143310546875
 31
55.0
  0
LINE
  8
0
 10
98.52481842041016
 20
123.53143310546875
 30
55.0
 11
97.08769226074219
 21
124.24014282226562
 31
55.0
  0
LINE
  8
0
 10
97.08769226074219
 20
124.24014282226562
 30
55.0
 11
95.75536346435547
 21
125.13037109375
 31
55.0
  0
LINE
  8
0
 10
95.75536346435547
 20
125.13037109375
 30
55.0
 11
94.5506362915039
 21
126.18689727783203
 31
55.0
  0
LINE
  8
0
 10
94.5506362915039
 20
126.18689727783203
 30
55.0
 11
93.49411010742188
 21
127.3916244506836
 31
55.0
  0
LINE
  8
0
 10
93.49411010742188
 20
127.3916244506836
 30
55.0
 11
92.6038818359375
 21
128.7239532470703
 31
55.0
  0
LINE
  8
0
 10
92.6038818359375
 20
128.7239532470703
 30
55.0
 11
91.89517211914062
 21
130.16107177734375
 31
55.0
  0
LINE
  8
0
 10
91.89517211914062
 20
130.16107177734375
 30
55.0
 11
91.38009643554688
 21
131.6784210205078
 31
55.0
  0
LINE
  8
0
 10
91.38009643554688
 20
131.6784210205078
 30
55.0
 11
91.06748962402344
 21
133.25
 31
55.0
  0
LINE
  8
0
 10
91.06748962402344
 20
133.25
 30
55.0
 11
90.96269226074219
 21
134.8489532470703
 31
55.0
  0
LINE
  8
0
 10
90.96269226074219
 20
134.8489532470703
 30
55.0
 11
91.06748962402344
 21
136.44790649414062
 31
55.0
  0
LINE
  8
0
 10
91.06748962402344
 20
136.44790649414062
 30
55.0
 11
91.38009643554688
 21
138.0194854736328
 31
55.0
  0
LINE
  8
0
 10
91.38009643554688
 20
138.0194854736328
 30
55.0
 11
91.89517211914062
 21
139.53683471679688
 31
55.0
  0
LINE
  8
0
 10
91.89517211914062
 20
139.53683471679688
 30
55.0
 11
92.6038818359375
 21
140.9739532470703
 31
55.0
  0
LINE
  8
0
 10
92.6038818359375
 20
140.9739532470703
 30
55.0
 11
93.49411010742188
 21
142.3062744140625
 31
55.0
  0
LINE
  8
0
 10
93.49411010742188
 20
142.3062744140625
 30
55.0
 11
94.5506362915039
 21
143.51101684570312
 31
55.0
  0
LINE
  8
0
 10
94.5506362915039
 20
143.51101684570312
 30
55.0
 11
95.75536346435547
 21
144.56753540039062
 31
55.0
  0
LINE
  8
0
 10
95.75536346435547
 20
144.56753540039062
 30
55.0
 11
97.08769226074219
 21
145.457763671875
 31
55.0
  0
LINE
  8
0
 10
97.08769226074219
 20
145.457763671875
 30
55.0
 11
98.52481842041016
 21
146.16647338867188
 31
55.0
  0
LINE
  8
0
 10
98.52481842041016
 20
146.16647338867188
 30
55.0
 11
100.04216003417969
 21
146.68154907226562
 31
55.0
  0
LINE
  8
0
 10
100.04216003417969
 20
146.68154907226562
 30
55.0
 11
101.6137466430664
 21
146.99415588378906
 31
55.0
  0
LINE
  8
0
 10
101.6137466430664
 20
146.99415588378906
 30
55.0
 11
103.21269226074219
 21
147.0989532470703
 31
55.0
  0
LINE
  8
0
 10
103.21269226074219
 20
147.0989532470703
 30
55.0
 11
104.81163787841797
 21
146.99415588378906
 31
55.0
  0
LINE
  8
0
 10
104.81163787841797
 20
146.99415588378906
 30
55.0
 11
106.38322448730469
 21
146.68154907226562
 31
55.0
  0
LINE
  8
0
 10
106.38322448730469
 20
146.68154907226562
 30
55.0
 11
107.90056610107422
 21
146.16647338867188
 31
55.0
  0
LINE
  8
0
 10
107.90056610107422
 20
146.16647338867188
 30
55.0
 11
109.33769226074219
 21
145.457763671875
 31
55.0
  0
LINE
  8
0
 10
109.33769226074219
 20
145.457763671875
 30
55.0
 11
110.6700210571289
 21
144.56753540039062
 31
55.0
  0
LINE
  8
0
 10
110.6700210571289
 20
144.56753540039062
 30
55.0
 11
111.87474822998047
 21
143.51101684570312
 31
55.0
  0
LINE
  8
0
 10
111.87474822998047
 20
143.51101684570312
 30
55.0
 11
112.9312744140625
 21
142.3062744140625
 31
55.0
  0
LINE
  8
0
 10
112.9312744140625
 20
142.3062744140625
 30
55.0
 11
113.82150268554688
 21
140.9739532470703
 31
55.0
  0
LINE
  8
0
 10
113.82150268554688
 20
140.9739532470703
 30
55.0
 11
114.53021240234375
 21
139.53683471679688
 31
55.0
  0
LINE
  8
0
 10
114.53021240234375
 20
139.53683471679688
 30
55.0
 11
115.0452880859375
 21
138.0194854736328
 31
55.0
  0
LINE
  8
0
 10
115.0452880859375
 20
138.0194854736328
 30
55.0
 11
115.35789489746094
 21
136.44790649414062
 31
55.0
  0
LINE
  8
0
 10
115.46269226074219
 20
134.8489532470703
 30
55.0
 11
115.35789489746094
 21
136.44790649414062
 31
55.0
  0
LINE
  8
0
 10
141.7747802734375
 20
121.95259094238281
 30
55.0
 11
141.66998291015625
 21
120.35365295410156
 31
55.0
  0
LINE
  8
0
 10
141.66998291015625
 20
120.35365295410156
 30
55.0
 11
141.3573760986328
 21
118.78205871582031
 31
55.0
  0
LINE
  8
0
 10
141.3573760986328
 20
118.78205871582031
 30
55.0
 11
140.84230041503906
 21
117.26472473144531
 31
55.0
  0
LINE
  8
0
 10
140.84230041503906
 20
117.26472473144531
 30
55.0
 11
140.1335906982422
 21
115.82759094238281
 31
55.0
  0
LINE
  8
0
 10
140.1335906982422
 20
115.82759094238281
 30
55.0
 11
139.2433624267578
 21
114.49526977539062
 31
55.0
  0
LINE
  8
0
 10
139.2433624267578
 20
114.49526977539062
 30
55.0
 11
138.1868438720703
 21
113.29053497314453
 31
55.0
  0
LINE
  8
0
 10
138.1868438720703
 20
113.29053497314453
 30
55.0
 11
136.9821014404297
 21
112.23401641845703
 31
55.0
  0
LINE
  8
0
 10
136.9821014404297
 20
112.23401641845703
 30
55.0
 11
135.6497802734375
 21
111.34378051757812
 31
55.0
  0
LINE
  8
0
 10
135.6497802734375
 20
111.34378051757812
 30
55.0
 11
134.212646484375
 21
110.63507080078125
 31
55.0
  0
LINE
  8
0
 10
134.212646484375
 20
110.63507080078125
 30
55.0
 11
132.6953125
 21
110.1199951171875
 31
55.0
  0
LINE
  8
0
 10
132.6953125
 20
110.1199951171875
 30
55.0
 11
131.12371826171875
 21
109.80738830566406
 31
55.0
  0
LINE
  8
0
 10
131.12371826171875
 20
109.80738830566406
 30
55.0
 11
129.5247802734375
 21
109.70259094238281
 31
55.0
  0
LINE
  8
0
 10
129.5247802734375
 20
109.70259094238281
 30
55.0
 11
127.92583465576172
 21
109.80738830566406
 31
55.0
  0
LINE
  8
0
 10
127.92583465576172
 20
109.80738830566406
 30
55.0
 11
126.354248046875
 21
110.1199951171875
 31
55.0
  0
LINE
  8
0
 10
126.354248046875
 20
110.1199951171875
 30
55.0
 11
124.83690643310547
 21
110.63506317138672
 31
55.0
  0
LINE
  8
0
 10
124.83690643310547
 20
110.63506317138672
 30
55.0
 11
123.3997802734375
 21
111.34378051757812
 31
55.0
  0
LINE
  8
0
 10
123.3997802734375
 20
111.34378051757812
 30
55.0
 11
122.06745147705078
 21
112.2340087890625
 31
55.0
  0
LINE
  8
0
 10
122.06745147705078
 20
112.2340087890625
 30
55.0
 11
120.86271667480469
 21
113.29052734375
 31
55.0
  0
LINE
  8
0
 10
120.86271667480469
 20
113.29052734375
 30
55.0
 11
119.80619812011719
 21
114.4952621459961
 31
55.0
  0
LINE
  8
0
 10
119.80619812011719
 20
114.4952621459961
 30
55.0
 11
118.91596984863281
 21
115.82759094238281
 31
55.0
  0
LINE
  8
0
 10
118.91596984863281
 20
115.82759094238281
 30
55.0
 11
118.2072525024414
 21
117.26471710205078
 31
55.0
  0
LINE
  8
0
 10
118.2072525024414
 20
117.26471710205078
 30
55.0
 11
117.69218444824219
 21
118.78205871582031
 31
55.0
  0
LINE
  8
0
 10
117.69218444824219
 20
118.78205871582031
 30
55.0
 11
117.37957763671875
 21
120.3536376953125
 31
55.0
  0
LINE
  8
0
 10
117.37957763671875
 20
120.3536376953125
 30
55.0
 11
117.2747802734375
 21
121.95259094238281
 31
55.0
  0
LINE
  8
0
 10
117.2747802734375
 20
121.95259094238281
 30
55.0
 11
117.37957763671875
 21
123.55152893066406
 31
55.0
  0
LINE
  8
0
 10
117.37957763671875
 20
123.55152893066406
 30
55.0
 11
117.69218444824219
 21
125.12312316894531
 31
55.0
  0
LINE
  8
0
 10
117.69218444824219
 20
125.12312316894531
 30
55.0
 11
118.2072525024414
 21
126.64045715332031
 31
55.0
  0
LINE
  8
0
 10
118.2072525024414
 20
126.64045715332031
 30
55.0
 11
118.91596984863281
 21
128.0775909423828
 31
55.0
  0
LINE
  8
0
 10
118.91596984863281
 20
128.0775909423828
 30
55.0
 11
119.80619812011719
 21
129.409912109375
 31
55.0
  0
LINE
  8
0
 10
119.80619812011719
 20
129.409912109375
 30
55.0
 11
120.86271667480469
 21
130.61465454101562
 31
55.0
  0
LINE
  8
0
 10
120.86271667480469
 20
130.61465454101562
 30
55.0
 11
122.06744384765625
 21
131.67117309570312
 31
55.0
  0
LINE
  8
0
 10
122.06744384765625
 20
131.67117309570312
 30
55.0
 11
123.39977264404297
 21
132.5614013671875
 31
55.0
  0
LINE
  8
0
 10
123.39977264404297
 20
132.5614013671875
 30
55.0
 11
124.83689880371094
 21
133.27011108398438
 31
55.0
  0
LINE
  8
0
 10
124.83689880371094
 20
133.27011108398438
 30
55.0
 11
126.35424041748047
 21
133.78518676757812
 31
55.0
  0
LINE
  8
0
 10
126.35424041748047
 20
133.78518676757812
 30
55.0
 11
127.92582702636719
 21
134.09779357910156
 31
55.0
  0
LINE
  8
0
 10
127.92582702636719
 20
134.09779357910156
 30
55.0
 11
129.5247802734375
 21
134.2025909423828
 31
55.0
  0
LINE
  8
0
 10
129.5247802734375
 20
134.2025909423828
 30
55.0
 11
131.12371826171875
 21
134.09779357910156
 31
55.0
  0
LINE
  8
0
 10
131.12371826171875
 20
134.09779357910156
 30
55.0
 11
132.6953125
 21
133.78518676757812
 31
55.0
  0
LINE
  8
0
 10
132.6953125
 20
133.78518676757812
 30
55.0
 11
134.212646484375
 21
133.27011108398438
 31
55.0
  0
LINE
  8
0
 10
134.212646484375
 20
133.27011108398438
 30
55.0
 11
135.6497802734375
 21
132.5614013671875
 31
55.0
  0
LINE
  8
0
 10
135.6497802734375
 20
132.5614013671875
 30
55.0
 11
136.9821014404297
 21
131.67117309570312
 31
55.0
  0
LINE
  8
0
 10
136.9821014404297
 20
131.67117309570312
 30
55.0
 11
138.18682861328125
 21
130.61465454101562
 31
55.0
  0
LINE
  8
0
 10
138.18682861328125
 20
130.61465454101562
 30
55.0
 11
139.24334716796875
 21
129.409912109375
 31
55.0
  0
LINE
  8
0
 10
139.24334716796875
 20
129.409912109375
 30
55.0
 11
140.1335906982422
 21
128.0775909423828
 31
55.0
  0
LINE
  8
0
 10
140.1335906982422
 20
128.0775909423828
 30
55.0
 11
140.84230041503906
 21
126.64046478271484
 31
55.0
  0
LINE
  8
0
 10
140.84230041503906
 20
126.64046478271484
 30
55.0
 11
141.35736083984375
 21
125.12312316894531
 31
55.0
  0
LINE
  8
0
 10
141.35736083984375
 20
125.12312316894531
 30
55.0
 11
141.66998291015625
 21
123.55154418945312
 31
55.0
  0
LINE
  8
0
 10
141.7747802734375
 20
121.95259094238281
 30
55.0
 11
141.66998291015625
 21
123.55154418945312
 31
55.0
  0
LINE
  8
0
 10
169.61367797851562
 20
133.968994140625
 30
55.0
 11
169.50888061523438
 21
132.37005615234375
 31
55.0
  0
LINE
  8
0
 10
169.50888061523438
 20
132.37005615234375
 30
55.0
 11
169.19625854492188
 21
130.7984619140625
 31
55.0
  0
LINE
  8
0
 10
169.19625854492188
 20
130.7984619140625
 30
55.0
 11
168.6811981201172
 21
129.2811279296875
 31
55.0
  0
LINE
  8
0
 10
168.6811981201172
 20
129.2811279296875
 30
55.0
 11
167.9724884033203
 21
127.84400939941406
 31
55.0
  0
LINE
  8
0
 10
167.9724884033203
 20
127.84400939941406
 30
55.0
 11
167.08224487304688
 21
126.51167297363281
 31
55.0
  0
LINE
  8
0
 10
167.08224487304688
 20
126.51167297363281
 30
55.0
 11
166.02572631835938
 21
125.30694580078125
 31
55.0
  0
LINE
  8
0
 10
166.02572631835938
 20
125.30694580078125
 30
55.0
 11
164.8209991455078
 21
124.25042724609375
 31
55.0
  0
LINE
  8
0
 10
164.8209991455078
 20
124.25042724609375
 30
55.0
 11
163.48867797851562
 21
123.36019134521484
 31
55.0
  0
LINE
  8
0
 10
163.48867797851562
 20
123.36019134521484
 30
55.0
 11
162.05154418945312
 21
122.65147399902344
 31
55.0
  0
LINE
  8
0
 10
162.05154418945312
 20
122.65147399902344
 30
55.0
 11
160.53421020507812
 21
122.13641357421875
 31
55.0
  0
LINE
  8
0
 10
160.53421020507812
 20
122.13641357421875
 30
55.0
 11
158.96261596679688
 21
121.82380676269531
 31
55.0
  0
LINE
  8
0
 10
158.96261596679688
 20
121.82380676269531
 30
55.0
 11
157.36367797851562
 21
121.71900177001953
 31
55.0
  0
LINE
  8
0
 10
157.36367797851562
 20
121.71900177001953
 30
55.0
 11
155.7647247314453
 21
121.82380676269531
 31
55.0
  0
LINE
  8
0
 10
155.7647247314453
 20
121.82380676269531
 30
55.0
 11
154.19314575195312
 21
122.13641357421875
 31
55.0
  0
LINE
  8
0
 10
154.19314575195312
 20
122.13641357421875
 30
55.0
 11
152.67579650878906
 21
122.65147399902344
 31
55.0
  0
LINE
  8
0
 10
152.67579650878906
 20
122.65147399902344
 30
55.0
 11
151.23867797851562
 21
123.36019134521484
 31
55.0
  0
LINE
  8
0
 10
151.23867797851562
 20
123.36019134521484
 30
55.0
 11
149.90634155273438
 21
124.25041961669922
 31
55.0
  0
LINE
  8
0
 10
149.90634155273438
 20
124.25041961669922
 30
55.0
 11
148.7016143798828
 21
125.30694580078125
 31
55.0
  0
LINE
  8
0
 10
148.7016143798828
 20
125.30694580078125
 30
55.0
 11
147.6450958251953
 21
126.51167297363281
 31
55.0
  0
LINE
  8
0
 10
147.6450958251953
 20
126.51167297363281
 30
55.0
 11
146.75486755371094
 21
127.843994140625
 31
55.0
  0
LINE
  8
0
 10
146.75486755371094
 20
127.843994140625
 30
55.0
 11
146.046142578125
 21
129.2811279296875
 31
55.0
  0
LINE
  8
0
 10
146.046142578125
 20
129.2811279296875
 30
55.0
 11
145.5310821533203
 21
130.7984619140625
 31
55.0
  0
LINE
  8
0
 10
145.5310821533203
 20
130.7984619140625
 30
55.0
 11
145.21847534179688
 21
132.37005615234375
 31
55.0
  0
LINE
  8
0
 10
145.21847534179688
 20
132.37005615234375
 30
55.0
 11
145.11367797851562
 21
133.968994140625
 31
55.0
  0
LINE
  8
0
 10
145.11367797851562
 20
133.968994140625
 30
55.0
 11
145.21847534179688
 21
135.5679473876953
 31
55.0
  0
LINE
  8
0
 10
145.21847534179688
 20
135.5679473876953
 30
55.0
 11
145.5310821533203
 21
137.1395263671875
 31
55.0
  0
LINE
  8
0
 10
145.5310821533203
 20
137.1395263671875
 30
55.0
 11
146.046142578125
 21
138.6568603515625
 31
55.0
  0
LINE
  8
0
 10
146.046142578125
 20
138.6568603515625
 30
55.0
 11
146.75486755371094
 21
140.093994140625
 31
55.0
  0
LINE
  8
0
 10
146.75486755371094
 20
140.093994140625
 30
55.0
 11
147.6450958251953
 21
141.42633056640625
 31
55.0
  0
LINE
  8
0
 10
147.6450958251953
 20
141.42633056640625
 30
55.0
 11
148.7016143798828
 21
142.6310577392578
 31
55.0
  0
LINE
  8
0
 10
148.7016143798828
 20
142.6310577392578
 30
55.0
 11
149.90634155273438
 21
143.6875762939453
 31
55.0
  0
LINE
  8
0
 10
149.90634155273438
 20
143.6875762939453
 30
55.0
 11
151.23867797851562
 21
144.57781982421875
 31
55.0
  0
LINE
  8
0
 10
151.23867797851562
 20
144.57781982421875
 30
55.0
 11
152.67579650878906
 21
145.28652954101562
 31
55.0
  0
LINE
  8
0
 10
152.67579650878906
 20
145.28652954101562
 30
55.0
 11
154.19313049316406
 21
145.8015899658203
 31
55.0
  0
LINE
  8
0
 10
154.19313049316406
 20
145.8015899658203
 30
55.0
 11
155.7647247314453
 21
146.11419677734375
 31
55.0
  0
LINE
  8
0
 10
155.7647247314453
 20
146.11419677734375
 30
55.0
 11
157.36367797851562
 21
146.218994140625
 31
55.0
  0
LINE
  8
0
 10
157.36367797851562
 20
146.218994140625
 30
55.0
 11
158.96261596679688
 21
146.11419677734375
 31
55.0
  0
LINE
  8
0
 10
158.96261596679688
 20
146.11419677734375
 30
55.0
 11
160.53421020507812
 21
145.8015899658203
 31
55.0
  0
LINE
  8
0
 10
160.53421020507812
 20
145.8015899658203
 30
55.0
 11
162.05154418945312
 21
145.28652954101562
 31
55.0
  0
LINE
  8
0
 10
162.05154418945312
 20
145.28652954101562
 30
55.0
 11
163.48867797851562
 21
144.57781982421875
 31
55.0
  0
LINE
  8
0
 10
163.48867797851562
 20
144.57781982421875
 30
55.0
 11
164.8209991455078
 21
143.68759155273438
 31
55.0
  0
LINE
  8
0
 10
164.8209991455078
 20
143.68759155273438
 30
55.0
 11
166.02572631835938
 21
142.6310577392578
 31
55.0
  0
LINE
  8
0
 10
166.02572631835938
 20
142.6310577392578
 30
55.0
 11
167.08224487304688
 21
141.42633056640625
 31
55.0
  0
LINE
  8
0
 10
167.08224487304688
 20
141.42633056640625
 30
55.0
 11
167.9724884033203
 21
140.093994140625
 31
55.0
  0
LINE
  8
0
 10
167.9724884033203
 20
140.093994140625
 30
55.0
 11
168.6811981201172
 21
138.65687561035156
 31
55.0
  0
LINE
  8
0
 10
168.6811981201172
 20
138.65687561035156
 30
55.0
 11
169.19625854492188
 21
137.13954162597656
 31
55.0
  0
LINE
  8
0
 10
169.19625854492188
 20
137.13954162597656
 30
55.0
 11
169.50888061523438
 21
135.5679473876953
 31
55.0
  0
LINE
  8
0
 10
169.61367797851562
 20
133.968994140625
 30
55.0
 11
169.50888061523438
 21
135.5679473876953
 31
55.0
  0
LINE
  8
0
 10
196.53158569335938
 20
145.69088745117188
 30
55.0
 11
196.42678833007812
 21
144.09194946289062
 31
55.0
  0
LINE
  8
0
 10
196.42678833007812
 20
144.09194946289062
 30
55.0
 11
196.1141815185547
 21
142.52035522460938
 31
55.0
  0
LINE
  8
0
 10
196.1141815185547
 20
142.52035522460938
 30
55.0
 11
195.59912109375
 21
141.00302124023438
 31
55.0
  0
LINE
  8
0
 10
195.59912109375
 20
141.00302124023438
 30
55.0
 11
194.89041137695312
 21
139.56588745117188
 31
55.0
  0
LINE
  8
0
 10
194.89041137695312
 20
139.56588745117188
 30
55.0
 11
194.0001678466797
 21
138.23355102539062
 31
55.0
  0
LINE
  8
0
 10
194.0001678466797
 20
138.23355102539062
 30
55.0
 11
192.9436492919922
 21
137.02883911132812
 31
55.0
  0
LINE
  8
0
 10
192.9436492919922
 20
137.02883911132812
 30
55.0
 11
191.73892211914062
 21
135.97230529785156
 31
55.0
  0
LINE
  8
0
 10
191.73892211914062
 20
135.97230529785156
 30
55.0
 11
190.40658569335938
 21
135.0820770263672
 31
55.0
  0
LINE
  8
0
 10
190.40658569335938
 20
135.0820770263672
 30
55.0
 11
188.96946716308594
 21
134.3733673095703
 31
55.0
  0
LINE
  8
0
 10
188.96946716308594
 20
134.3733673095703
 30
55.0
 11
187.45211791992188
 21
133.85830688476562
 31
55.0
  0
LINE
  8
0
 10
187.45211791992188
 20
133.85830688476562
 30
55.0
 11
185.8805389404297
 21
133.54568481445312
 31
55.0
  0
LINE
  8
0
 10
185.8805389404297
 20
133.54568481445312
 30
55.0
 11
184.28158569335938
 21
133.44088745117188
 31
55.0
  0
LINE
  8
0
 10
184.28158569335938
 20
133.44088745117188
 30
55.0
 11
182.68264770507812
 21
133.54568481445312
 31
55.0
  0
LINE
  8
0
 10
182.68264770507812
 20
133.54568481445312
 30
55.0
 11
181.11105346679688
 21
133.85830688476562
 31
55.0
  0
LINE
  8
0
 10
181.11105346679688
 20
133.85830688476562
 30
55.0
 11
179.59371948242188
 21
134.3733673095703
 31
55.0
  0
LINE
  8
0
 10
179.59371948242188
 20
134.3733673095703
 30
55.0
 11
178.15658569335938
 21
135.0820770263672
 31
55.0
  0
LINE
  8
0
 10
178.15658569335938
 20
135.0820770263672
 30
55.0
 11
176.8242645263672
 21
135.97230529785156
 31
55.0
  0
LINE
  8
0
 10
176.8242645263672
 20
135.97230529785156
 30
55.0
 11
175.61953735351562
 21
137.02883911132812
 31
55.0
  0
LINE
  8
0
 10
175.61953735351562
 20
137.02883911132812
 30
55.0
 11
174.56301879882812
 21
138.23355102539062
 31
55.0
  0
LINE
  8
0
 10
174.56301879882812
 20
138.23355102539062
 30
55.0
 11
173.67279052734375
 21
139.56588745117188
 31
55.0
  0
LINE
  8
0
 10
173.67279052734375
 20
139.56588745117188
 30
55.0
 11
172.9640655517578
 21
141.00302124023438
 31
55.0
  0
LINE
  8
0
 10
172.9640655517578
 20
141.00302124023438
 30
55.0
 11
172.44900512695312
 21
142.52035522460938
 31
55.0
  0
LINE
  8
0
 10
172.44900512695312
 20
142.52035522460938
 30
55.0
 11
172.1363983154297
 21
144.09194946289062
 31
55.0
  0
LINE
  8
0
 10
172.1363983154297
 20
144.09194946289062
 30
55.0
 11
172.03158569335938
 21
145.69088745117188
 31
55.0
  0
LINE
  8
0
 10
172.03158569335938
 20
145.69088745117188
 30
55.0
 11
172.1363983154297
 21
147.28982543945312
 31
55.0
  0
LINE
  8
0
 10
172.1363983154297
 20
147.28982543945312
 30
55.0
 11
172.44900512695312
 21
148.86141967773438
 31
55.0
  0
LINE
  8
0
 10
172.44900512695312
 20
148.86141967773438
 30
55.0
 11
172.9640655517578
 21
150.37875366210938
 31
55.0
  0
LINE
  8
0
 10
172.9640655517578
 20
150.37875366210938
 30
55.0
 11
173.67279052734375
 21
151.81588745117188
 31
55.0
  0
LINE
  8
0
 10
173.67279052734375
 20
151.81588745117188
 30
55.0
 11
174.56301879882812
 21
153.14822387695312
 31
55.0
  0
LINE
  8
0
 10
174.56301879882812
 20
153.14822387695312
 30
55.0
 11
175.61953735351562
 21
154.35293579101562
 31
55.0
  0
LINE
  8
0
 10
175.61953735351562
 20
154.35293579101562
 30
55.0
 11
176.8242645263672
 21
155.4094696044922
 31
55.0
  0
LINE
  8
0
 10
176.8242645263672
 20
155.4094696044922
 30
55.0
 11
178.15658569335938
 21
156.29969787597656
 31
55.0
  0
LINE
  8
0
 10
178.15658569335938
 20
156.29969787597656
 30
55.0
 11
179.59371948242188
 21
157.00840759277344
 31
55.0
  0
LINE
  8
0
 10
179.59371948242188
 20
157.00840759277344
 30
55.0
 11
181.11105346679688
 21
157.52346801757812
 31
55.0
  0
LINE
  8
0
 10
181.11105346679688
 20
157.52346801757812
 30
55.0
 11
182.68264770507812
 21
157.83609008789062
 31
55.0
  0
LINE
  8
0
 10
182.68264770507812
 20
157.83609008789062
 30
55.0
 11
184.28158569335938
 21
157.94088745117188
 31
55.0
  0
LINE
  8
0
 10
184.28158569335938
 20
157.94088745117188
 30
55.0
 11
185.8805389404297
 21
157.83609008789062
 31
55.0
  0
LINE
  8
0
 10
185.8805389404297
 20
157.83609008789062
 30
55.0
 11
187.45211791992188
 21
157.52346801757812
 31
55.0
  0
LINE
  8
0
 10
187.45211791992188
 20
157.52346801757812
 30
55.0
 11
188.96946716308594
 21
157.00840759277344
 31
55.0
  0
LINE
  8
0
 10
188.96946716308594
 20
157.00840759277344
 30
55.0
 11
190.40658569335938
 21
156.29969787597656
 31
55.0
  0
LINE
  8
0
 10
190.40658569335938
 20
156.29969787597656
 30
55.0
 11
191.73892211914062
 21
155.4094696044922
 31
55.0
  0
LINE
  8
0
 10
191.73892211914062
 20
155.4094696044922
 30
55.0
 11
192.9436492919922
 21
154.35293579101562
 31
55.0
  0
LINE
  8
0
 10
192.9436492919922
 20
154.35293579101562
 30
55.0
 11
194.0001678466797
 21
153.14822387695312
 31
55.0
  0
LINE
  8
0
 10
194.0001678466797
 20
153.14822387695312
 30
55.0
 11
194.89041137695312
 21
151.81588745117188
 31
55.0
  0
LINE
  8
0
 10
194.89041137695312
 20
151.81588745117188
 30
55.0
 11
195.59912109375
 21
150.37875366210938
 31
55.0
  0
LINE
  8
0
 10
195.59912109375
 20
150.37875366210938
 30
55.0
 11
196.1141815185547
 21
148.86141967773438
 31
55.0
  0
LINE
  8
0
 10
196.1141815185547
 20
148.86141967773438
 30
55.0
 11
196.42678833007812
 21
147.28982543945312
 31
55.0
  0
LINE
  8
0
 10
196.53158569335938
 20
145.69088745117188
 30
55.0
 11
196.42678833007812
 21
147.28982543945312
 31
55.0
  0
LINE
  8
0
 10
226.17376708984375
 20
144.8831787109375
 30
55.0
 11
226.0689697265625
 21
143.2842254638672
 31
55.0
  0
LINE
  8
0
 10
226.0689697265625
 20
143.2842254638672
 30
55.0
 11
225.75636291503906
 21
141.712646484375
 31
55.0
  0
LINE
  8
0
 10
225.75636291503906
 20
141.712646484375
 30
55.0
 11
225.24130249023438
 21
140.19529724121094
 31
55.0
  0
LINE
  8
0
 10
225.24130249023438
 20
140.19529724121094
 30
55.0
 11
224.53257751464844
 21
138.7581787109375
 31
55.0
  0
LINE
  8
0
 10
224.53257751464844
 20
138.7581787109375
 30
55.0
 11
223.64234924316406
 21
137.42584228515625
 31
55.0
  0
LINE
  8
0
 10
223.64234924316406
 20
137.42584228515625
 30
55.0
 11
222.58583068847656
 21
136.22109985351562
 31
55.0
  0
LINE
  8
0
 10
222.58583068847656
 20
136.22109985351562
 30
55.0
 11
221.381103515625
 21
135.16458129882812
 31
55.0
  0
LINE
  8
0
 10
221.381103515625
 20
135.16458129882812
 30
55.0
 11
220.04876708984375
 21
134.27435302734375
 31
55.0
  0
LINE
  8
0
 10
220.04876708984375
 20
134.27435302734375
 30
55.0
 11
218.6116485595703
 21
133.56564331054688
 31
55.0
  0
LINE
  8
0
 10
218.6116485595703
 20
133.56564331054688
 30
55.0
 11
217.09429931640625
 21
133.05056762695312
 31
55.0
  0
LINE
  8
0
 10
217.09429931640625
 20
133.05056762695312
 30
55.0
 11
215.52272033691406
 21
132.7379608154297
 31
55.0
  0
LINE
  8
0
 10
215.52272033691406
 20
132.7379608154297
 30
55.0
 11
213.92376708984375
 21
132.63316345214844
 31
55.0
  0
LINE
  8
0
 10
213.92376708984375
 20
132.63316345214844
 30
55.0
 11
212.3248291015625
 21
132.7379608154297
 31
55.0
  0
LINE
  8
0
 10
212.3248291015625
 20
132.7379608154297
 30
55.0
 11
210.75323486328125
 21
133.05056762695312
 31
55.0
  0
LINE
  8
0
 10
210.75323486328125
 20
133.05056762695312
 30
55.0
 11
209.23590087890625
 21
133.56564331054688
 31
55.0
  0
LINE
  8
0
 10
209.23590087890625
 20
133.56564331054688
 30
55.0
 11
207.79876708984375
 21
134.27435302734375
 31
55.0
  0
LINE
  8
0
 10
207.79876708984375
 20
134.27435302734375
 30
55.0
 11
206.46644592285156
 21
135.16458129882812
 31
55.0
  0
LINE
  8
0
 10
206.46644592285156
 20
135.16458129882812
 30
55.0
 11
205.26171875
 21
136.22109985351562
 31
55.0
  0
LINE
  8
0
 10
205.26171875
 20
136.22109985351562
 30
55.0
 11
204.2052001953125
 21
137.42584228515625
 31
55.0
  0
LINE
  8
0
 10
204.2052001953125
 20
137.42584228515625
 30
55.0
 11
203.31495666503906
 21
138.75814819335938
 31
55.0
  0
LINE
  8
0
 10
203.31495666503906
 20
138.75814819335938
 30
55.0
 11
202.6062469482422
 21
140.19528198242188
 31
55.0
  0
LINE
  8
0
 10
202.6062469482422
 20
140.19528198242188
 30
55.0
 11
202.0911865234375
 21
141.71261596679688
 31
55.0
  0
LINE
  8
0
 10
202.0911865234375
 20
141.71261596679688
 30
55.0
 11
201.778564453125
 21
143.28421020507812
 31
55.0
  0
LINE
  8
0
 10
201.778564453125
 20
143.28421020507812
 30
55.0
 11
201.67376708984375
 21
144.88314819335938
 31
55.0
  0
LINE
  8
0
 10
201.67376708984375
 20
144.88314819335938
 30
55.0
 11
201.778564453125
 21
146.4821014404297
 31
55.0
  0
LINE
  8
0
 10
201.778564453125
 20
146.4821014404297
 30
55.0
 11
202.09117126464844
 21
148.05368041992188
 31
55.0
  0
LINE
  8
0
 10
202.09117126464844
 20
148.05368041992188
 30
55.0
 11
202.60623168945312
 21
149.57102966308594
 31
55.0
  0
LINE
  8
0
 10
202.60623168945312
 20
149.57102966308594
 30
55.0
 11
203.31495666503906
 21
151.00814819335938
 31
55.0
  0
LINE
  8
0
 10
203.31495666503906
 20
151.00814819335938
 30
55.0
 11
204.20518493652344
 21
152.34048461914062
 31
55.0
  0
LINE
  8
0
 10
204.20518493652344
 20
152.34048461914062
 30
55.0
 11
205.26170349121094
 21
153.54522705078125
 31
55.0
  0
LINE
  8
0
 10
205.26170349121094
 20
153.54522705078125
 30
55.0
 11
206.4664306640625
 21
154.60174560546875
 31
55.0
  0
LINE
  8
0
 10
206.4664306640625
 20
154.60174560546875
 30
55.0
 11
207.79876708984375
 21
155.49197387695312
 31
55.0
  0
LINE
  8
0
 10
207.79876708984375
 20
155.49197387695312
 30
55.0
 11
209.2358856201172
 21
156.20068359375
 31
55.0
  0
LINE
  8
0
 10
209.2358856201172
 20
156.20068359375
 30
55.0
 11
210.75323486328125
 21
156.71575927734375
 31
55.0
  0
LINE
  8
0
 10
210.75323486328125
 20
156.71575927734375
 30
55.0
 11
212.32481384277344
 21
157.0283660888672
 31
55.0
  0
LINE
  8
0
 10
212.32481384277344
 20
157.0283660888672
 30
55.0
 11
213.92376708984375
 21
157.13316345214844
 31
55.0
  0
LINE
  8
0
 10
213.92376708984375
 20
157.13316345214844
 30
55.0
 11
215.522705078125
 21
157.0283660888672
 31
55.0
  0
LINE
  8
0
 10
215.522705078125
 20
157.0283660888672
 30
55.0
 11
217.09429931640625
 21
156.71575927734375
 31
55.0
  0
LINE
  8
0
 10
217.09429931640625
 20
156.71575927734375
 30
55.0
 11
218.61163330078125
 21
156.20068359375
 31
55.0
  0
LINE
  8
0
 10
218.61163330078125
 20
156.20068359375
 30
55.0
 11
220.04876708984375
 21
155.49197387695312
 31
55.0
  0
LINE
  8
0
 10
220.04876708984375
 20
155.49197387695312
 30
55.0
 11
221.38108825683594
 21
154.60174560546875
 31
55.0
  0
LINE
  8
0
 10
221.38108825683594
 20
154.60174560546875
 30
55.0
 11
222.5858154296875
 21
153.54522705078125
 31
55.0
  0
LINE
  8
0
 10
222.5858154296875
 20
153.54522705078125
 30
55.0
 11
223.642333984375
 21
152.34048461914062
 31
55.0
  0
LINE
  8
0
 10
223.642333984375
 20
152.34048461914062
 30
55.0
 11
224.53257751464844
 21
151.0081787109375
 31
55.0
  0
LINE
  8
0
 10
224.53257751464844
 20
151.0081787109375
 30
55.0
 11
225.2412872314453
 21
149.571044921875
 31
55.0
  0
LINE
  8
0
 10
225.2412872314453
 20
149.571044921875
 30
55.0
 11
225.75634765625
 21
148.0537109375
 31
55.0
  0
LINE
  8
0
 10
225.75634765625
 20
148.0537109375
 30
55.0
 11
226.0689697265625
 21
146.48211669921875
 31
55.0
  0
LINE
  8
0
 10
226.17376708984375
 20
144.8831787109375
 30
55.0
 11
226.0689697265625
 21
146.48211669921875
 31
55.0
  0
LINE
  8
0
 10
255.72024536132812
 20
141.79568481445312
 30
55.0
 11
255.61544799804688
 21
140.19674682617188
 31
55.0
  0
LINE
  8
0
 10
255.61544799804688
 20
140.19674682617188
 30
55.0
 11
255.30282592773438
 21
138.62515258789062
 31
55.0
  0
LINE
  8
0
 10
255.30282592773438
 20
138.62515258789062
 30
55.0
 11
254.7877655029297
 21
137.10781860351562
 31
55.0
  0
LINE
  8
0
 10
254.7877655029297
 20
137.10781860351562
 30
55.0
 11
254.07904052734375
 21
135.67068481445312
 31
55.0
  0
LINE
  8
0
 10
254.07904052734375
 20
135.67068481445312
 30
55.0
 11
253.18881225585938
 21
134.33834838867188
 31
55.0
  0
LINE
  8
0
 10
253.18881225585938
 20
134.33834838867188
 30
55.0
 11
252.13229370117188
 21
133.13363647460938
 31
55.0
  0
LINE
  8
0
 10
252.13229370117188
 20
133.13363647460938
 30
55.0
 11
250.9275665283203
 21
132.0771026611328
 31
55.0
  0
LINE
  8
0
 10
250.9275665283203
 20
132.0771026611328
 30
55.0
 11
249.59524536132812
 21
131.18687438964844
 31
55.0
  0
LINE
  8
0
 10
249.59524536132812
 20
131.18687438964844
 30
55.0
 11
248.15811157226562
 21
130.47816467285156
 31
55.0
  0
LINE
  8
0
 10
248.15811157226562
 20
130.47816467285156
 30
55.0
 11
246.64077758789062
 21
129.9630889892578
 31
55.0
  0
LINE
  8
0
 10
246.64077758789062
 20
129.9630889892578
 30
55.0
 11
245.06918334960938
 21
129.65048217773438
 31
55.0
  0
LINE
  8
0
 10
245.06918334960938
 20
129.65048217773438
 30
55.0
 11
243.47024536132812
 21
129.54568481445312
 31
55.0
  0
LINE
  8
0
 10
243.47024536132812
 20
129.54568481445312
 30
55.0
 11
241.8712921142578
 21
129.65048217773438
 31
55.0
  0
LINE
  8
0
 10
241.8712921142578
 20
129.65048217773438
 30
55.0
 11
240.29971313476562
 21
129.9630889892578
 31
55.0
  0
LINE
  8
0
 10
240.29971313476562
 20
129.9630889892578
 30
55.0
 11
238.78236389160156
 21
130.47816467285156
 31
55.0
  0
LINE
  8
0
 10
238.78236389160156
 20
130.47816467285156
 30
55.0
 11
237.34524536132812
 21
131.18687438964844
 31
55.0
  0
LINE
  8
0
 10
237.34524536132812
 20
131.18687438964844
 30
55.0
 11
236.01290893554688
 21
132.0771026611328
 31
55.0
  0
LINE
  8
0
 10
236.01290893554688
 20
132.0771026611328
 30
55.0
 11
234.8081817626953
 21
133.13363647460938
 31
55.0
  0
LINE
  8
0
 10
234.8081817626953
 20
133.13363647460938
 30
55.0
 11
233.7516632080078
 21
134.33834838867188
 31
55.0
  0
LINE
  8
0
 10
233.7516632080078
 20
134.33834838867188
 30
55.0
 11
232.86141967773438
 21
135.67068481445312
 31
55.0
  0
LINE
  8
0
 10
232.86141967773438
 20
135.67068481445312
 30
55.0
 11
232.1527099609375
 21
137.10781860351562
 31
55.0
  0
LINE
  8
0
 10
232.1527099609375
 20
137.10781860351562
 30
55.0
 11
231.6376495361328
 21
138.62515258789062
 31
55.0
  0
LINE
  8
0
 10
231.6376495361328
 20
138.62515258789062
 30
55.0
 11
231.32504272460938
 21
140.19674682617188
 31
55.0
  0
LINE
  8
0
 10
231.32504272460938
 20
140.19674682617188
 30
55.0
 11
231.22024536132812
 21
141.79568481445312
 31
55.0
  0
LINE
  8
0
 10
231.22024536132812
 20
141.79568481445312
 30
55.0
 11
231.32504272460938
 21
143.39462280273438
 31
55.0
  0
LINE
  8
0
 10
231.32504272460938
 20
143.39462280273438
 30
55.0
 11
231.6376495361328
 21
144.96621704101562
 31
55.0
  0
LINE
  8
0
 10
231.6376495361328
 20
144.96621704101562
 30
55.0
 11
232.1527099609375
 21
146.48355102539062
 31
55.0
  0
LINE
  8
0
 10
232.1527099609375
 20
146.48355102539062
 30
55.0
 11
232.86141967773438
 21
147.92068481445312
 31
55.0
  0
LINE
  8
0
 10
232.86141967773438
 20
147.92068481445312
 30
55.0
 11
233.7516632080078
 21
149.25302124023438
 31
55.0
  0
LINE
  8
0
 10
233.7516632080078
 20
149.25302124023438
 30
55.0
 11
234.8081817626953
 21
150.45773315429688
 31
55.0
  0
LINE
  8
0
 10
234.8081817626953
 20
150.45773315429688
 30
55.0
 11
236.01290893554688
 21
151.51426696777344
 31
55.0
  0
LINE
  8
0
 10
236.01290893554688
 20
151.51426696777344
 30
55.0
 11
237.34524536132812
 21
152.4044952392578
 31
55.0
  0
LINE
  8
0
 10
237.34524536132812
 20
152.4044952392578
 30
55.0
 11
238.78236389160156
 21
153.1132049560547
 31
55.0
  0
LINE
  8
0
 10
238.78236389160156
 20
153.1132049560547
 30
55.0
 11
240.29971313476562
 21
153.62826538085938
 31
55.0
  0
LINE
  8
0
 10
240.29971313476562
 20
153.62826538085938
 30
55.0
 11
241.8712921142578
 21
153.94088745117188
 31
55.0
  0
LINE
  8
0
 10
241.8712921142578
 20
153.94088745117188
 30
55.0
 11
243.47024536132812
 21
154.04568481445312
 31
55.0
  0
LINE
  8
0
 10
243.47024536132812
 20
154.04568481445312
 30
55.0
 11
245.06918334960938
 21
153.94088745117188
 31
55.0
  0
LINE
  8
0
 10
245.06918334960938
 20
153.94088745117188
 30
55.0
 11
246.64077758789062
 21
153.62826538085938
 31
55.0
  0
LINE
  8
0
 10
246.64077758789062
 20
153.62826538085938
 30
55.0
 11
248.15811157226562
 21
153.1132049560547
 31
55.0
  0
LINE
  8
0
 10
248.15811157226562
 20
153.1132049560547
 30
55.0
 11
249.59524536132812
 21
152.4044952392578
 31
55.0
  0
LINE
  8
0
 10
249.59524536132812
 20
152.4044952392578
 30
55.0
 11
250.9275665283203
 21
151.51426696777344
 31
55.0
  0
LINE
  8
0
 10
250.9275665283203
 20
151.51426696777344
 30
55.0
 11
252.13229370117188
 21
150.45773315429688
 31
55.0
  0
LINE
  8
0
 10
252.13229370117188
 20
150.45773315429688
 30
55.0
 11
253.18881225585938
 21
149.25302124023438
 31
55.0
  0
LINE
  8
0
 10
253.18881225585938
 20
149.25302124023438
 30
55.0
 11
254.07904052734375
 21
147.92068481445312
 31
55.0
  0
LINE
  8
0
 10
254.07904052734375
 20
147.92068481445312
 30
55.0
 11
254.7877655029297
 21
146.48355102539062
 31
55.0
  0
LINE
  8
0
 10
254.7877655029297
 20
146.48355102539062
 30
55.0
 11
255.30282592773438
 21
144.96621704101562
 31
55.0
  0
LINE
  8
0
 10
255.30282592773438
 20
144.96621704101562
 30
55.0
 11
255.61544799804688
 21
143.39462280273438
 31
55.0
  0
LINE
  8
0
 10
255.72024536132812
 20
141.79568481445312
 30
55.0
 11
255.61544799804688
 21
143.39462280273438
 31
55.0
  0
LINE
  8
0
 10
255.39102172851562
 20
110.8413314819336
 30
55.0
 11
255.28622436523438
 21
109.24238586425781
 31
55.0
  0
LINE
  8
0
 10
255.28622436523438
 20
109.24238586425781
 30
55.0
 11
254.97360229492188
 21
107.6707992553711
 31
55.0
  0
LINE
  8
0
 10
254.97360229492188
 20
107.6707992553711
 30
55.0
 11
254.4585418701172
 21
106.15345764160156
 31
55.0
  0
LINE
  8
0
 10
254.4585418701172
 20
106.15345764160156
 30
55.0
 11
253.74981689453125
 21
104.7163314819336
 31
55.0
  0
LINE
  8
0
 10
253.74981689453125
 20
104.7163314819336
 30
55.0
 11
252.85958862304688
 21
103.38400268554688
 31
55.0
  0
LINE
  8
0
 10
252.85958862304688
 20
103.38400268554688
 30
55.0
 11
251.80307006835938
 21
102.17927551269531
 31
55.0
  0
LINE
  8
0
 10
251.80307006835938
 20
102.17927551269531
 30
55.0
 11
250.5983428955078
 21
101.12275695800781
 31
55.0
  0
LINE
  8
0
 10
250.5983428955078
 20
101.12275695800781
 30
55.0
 11
249.26602172851562
 21
100.2325210571289
 31
55.0
  0
LINE
  8
0
 10
249.26602172851562
 20
100.2325210571289
 30
55.0
 11
247.82888793945312
 21
99.5238037109375
 31
55.0
  0
LINE
  8
0
 10
247.82888793945312
 20
99.5238037109375
 30
55.0
 11
246.31155395507812
 21
99.00874328613281
 31
55.0
  0
LINE
  8
0
 10
246.31155395507812
 20
99.00874328613281
 30
55.0
 11
244.73995971679688
 21
98.69613647460938
 31
55.0
  0
LINE
  8
0
 10
244.73995971679688
 20
98.69613647460938
 30
55.0
 11
243.14102172851562
 21
98.5913314819336
 31
55.0
  0
LINE
  8
0
 10
243.14102172851562
 20
98.5913314819336
 30
55.0
 11
241.5420684814453
 21
98.69613647460938
 31
55.0
  0
LINE
  8
0
 10
241.5420684814453
 20
98.69613647460938
 30
55.0
 11
239.97048950195312
 21
99.00874328613281
 31
55.0
  0
LINE
  8
0
 10
239.97048950195312
 20
99.00874328613281
 30
55.0
 11
238.45314025878906
 21
99.5238037109375
 31
55.0
  0
LINE
  8
0
 10
238.45314025878906
 20
99.5238037109375
 30
55.0
 11
237.01602172851562
 21
100.2325210571289
 31
55.0
  0
LINE
  8
0
 10
237.01602172851562
 20
100.2325210571289
 30
55.0
 11
235.68368530273438
 21
101.12275695800781
 31
55.0
  0
LINE
  8
0
 10
235.68368530273438
 20
101.12275695800781
 30
55.0
 11
234.4789581298828
 21
102.17927551269531
 31
55.0
  0
LINE
  8
0
 10
234.4789581298828
 20
102.17927551269531
 30
55.0
 11
233.4224395751953
 21
103.38400268554688
 31
55.0
  0
LINE
  8
0
 10
233.4224395751953
 20
103.38400268554688
 30
55.0
 11
232.53219604492188
 21
104.7163314819336
 31
55.0
  0
LINE
  8
0
 10
232.53219604492188
 20
104.7163314819336
 30
55.0
 11
231.823486328125
 21
106.15345764160156
 31
55.0
  0
LINE
  8
0
 10
231.823486328125
 20
106.15345764160156
 30
55.0
 11
231.3084259033203
 21
107.6707992553711
 31
55.0
  0
LINE
  8
0
 10
231.3084259033203
 20
107.6707992553711
 30
55.0
 11
230.99581909179688
 21
109.24238586425781
 31
55.0
  0
LINE
  8
0
 10
230.99581909179688
 20
109.24238586425781
 30
55.0
 11
230.89102172851562
 21
110.8413314819336
 31
55.0
  0
LINE
  8
0
 10
230.89102172851562
 20
110.8413314819336
 30
55.0
 11
230.99581909179688
 21
112.44027709960938
 31
55.0
  0
LINE
  8
0
 10
230.99581909179688
 20
112.44027709960938
 30
55.0
 11
231.3084259033203
 21
114.0118637084961
 31
55.0
  0
LINE
  8
0
 10
231.3084259033203
 20
114.0118637084961
 30
55.0
 11
231.823486328125
 21
115.52920532226562
 31
55.0
  0
LINE
  8
0
 10
231.823486328125
 20
115.52920532226562
 30
55.0
 11
232.53219604492188
 21
116.9663314819336
 31
55.0
  0
LINE
  8
0
 10
232.53219604492188
 20
116.9663314819336
 30
55.0
 11
233.4224395751953
 21
118.29866027832031
 31
55.0
  0
LINE
  8
0
 10
233.4224395751953
 20
118.29866027832031
 30
55.0
 11
234.4789581298828
 21
119.50338745117188
 31
55.0
  0
LINE
  8
0
 10
234.4789581298828
 20
119.50338745117188
 30
55.0
 11
235.68368530273438
 21
120.55990600585938
 31
55.0
  0
LINE
  8
0
 10
235.68368530273438
 20
120.55990600585938
 30
55.0
 11
237.01602172851562
 21
121.45014190673828
 31
55.0
  0
LINE
  8
0
 10
237.01602172851562
 20
121.45014190673828
 30
55.0
 11
238.45314025878906
 21
122.15885925292969
 31
55.0
  0
LINE
  8
0
 10
238.45314025878906
 20
122.15885925292969
 30
55.0
 11
239.97048950195312
 21
122.67391967773438
 31
55.0
  0
LINE
  8
0
 10
239.97048950195312
 20
122.67391967773438
 30
55.0
 11
241.5420684814453
 21
122.98652648925781
 31
55.0
  0
LINE
  8
0
 10
241.5420684814453
 20
122.98652648925781
 30
55.0
 11
243.14102172851562
 21
123.0913314819336
 31
55.0
  0
LINE
  8
0
 10
243.14102172851562
 20
123.0913314819336
 30
55.0
 11
244.73995971679688
 21
122.98652648925781
 31
55.0
  0
LINE
  8
0
 10
244.73995971679688
 20
122.98652648925781
 30
55.0
 11
246.31155395507812
 21
122.67391967773438
 31
55.0
  0
LINE
  8
0
 10
246.31155395507812
 20
122.67391967773438
 30
55.0
 11
247.82888793945312
 21
122.15885925292969
 31
55.0
  0
LINE
  8
0
 10
247.82888793945312
 20
122.15885925292969
 30
55.0
 11
249.26602172851562
 21
121.45014190673828
 31
55.0
  0
LINE
  8
0
 10
249.26602172851562
 20
121.45014190673828
 30
55.0
 11
250.5983428955078
 21
120.55990600585938
 31
55.0
  0
LINE
  8
0
 10
250.5983428955078
 20
120.55990600585938
 30
55.0
 11
251.80307006835938
 21
119.50338745117188
 31
55.0
  0
LINE
  8
0
 10
251.80307006835938
 20
119.50338745117188
 30
55.0
 11
252.85958862304688
 21
118.29866027832031
 31
55.0
  0
LINE
  8
0
 10
252.85958862304688
 20
118.29866027832031
 30
55.0
 11
253.74981689453125
 21
116.9663314819336
 31
55.0
  0
LINE
  8
0
 10
253.74981689453125
 20
116.9663314819336
 30
55.0
 11
254.4585418701172
 21
115.52920532226562
 31
55.0
  0
LINE
  8
0
 10
254.4585418701172
 20
115.52920532226562
 30
55.0
 11
254.97360229492188
 21
114.0118637084961
 31
55.0
  0
LINE
  8
0
 10
254.97360229492188
 20
114.0118637084961
 30
55.0
 11
255.28622436523438
 21
112.44027709960938
 31
55.0
  0
LINE
  8
0
 10
255.39102172851562
 20
110.8413314819336
 30
55.0
 11
255.28622436523438
 21
112.44027709960938
 31
55.0
  0
LINE
  8
0
 10
194.85340881347656
 20
115.58698272705078
 30
55.0
 11
194.7486114501953
 21
113.988037109375
 31
55.0
  0
LINE
  8
0
 10
194.7486114501953
 20
113.988037109375
 30
55.0
 11
194.43600463867188
 21
112.41645050048828
 31
55.0
  0
LINE
  8
0
 10
194.43600463867188
 20
112.41645050048828
 30
55.0
 11
193.92092895507812
 21
110.89910888671875
 31
55.0
  0
LINE
  8
0
 10
193.92092895507812
 20
110.89910888671875
 30
55.0
 11
193.21221923828125
 21
109.46198272705078
 31
55.0
  0
LINE
  8
0
 10
193.21221923828125
 20
109.46198272705078
 30
55.0
 11
192.32199096679688
 21
108.12965393066406
 31
55.0
  0
LINE
  8
0
 10
192.32199096679688
 20
108.12965393066406
 30
55.0
 11
191.26547241210938
 21
106.9249267578125
 31
55.0
  0
LINE
  8
0
 10
191.26547241210938
 20
106.9249267578125
 30
55.0
 11
190.06072998046875
 21
105.868408203125
 31
55.0
  0
LINE
  8
0
 10
190.06072998046875
 20
105.868408203125
 30
55.0
 11
188.72840881347656
 21
104.9781723022461
 31
55.0
  0
LINE
  8
0
 10
188.72840881347656
 20
104.9781723022461
 30
55.0
 11
187.29129028320312
 21
104.26945495605469
 31
55.0
  0
LINE
  8
0
 10
187.29129028320312
 20
104.26945495605469
 30
55.0
 11
185.77394104003906
 21
103.75439453125
 31
55.0
  0
LINE
  8
0
 10
185.77394104003906
 20
103.75439453125
 30
55.0
 11
184.20236206054688
 21
103.44178771972656
 31
55.0
  0
LINE
  8
0
 10
184.20236206054688
 20
103.44178771972656
 30
55.0
 11
182.60340881347656
 21
103.33698272705078
 31
55.0
  0
LINE
  8
0
 10
182.60340881347656
 20
103.33698272705078
 30
55.0
 11
181.00445556640625
 21
103.44178771972656
 31
55.0
  0
LINE
  8
0
 10
181.00445556640625
 20
103.44178771972656
 30
55.0
 11
179.43287658691406
 21
103.75439453125
 31
55.0
  0
LINE
  8
0
 10
179.43287658691406
 20
103.75439453125
 30
55.0
 11
177.91552734375
 21
104.26945495605469
 31
55.0
  0
LINE
  8
0
 10
177.91552734375
 20
104.26945495605469
 30
55.0
 11
176.47840881347656
 21
104.9781723022461
 31
55.0
  0
LINE
  8
0
 10
176.47840881347656
 20
104.9781723022461
 30
55.0
 11
175.14608764648438
 21
105.868408203125
 31
55.0
  0
LINE
  8
0
 10
175.14608764648438
 20
105.868408203125
 30
55.0
 11
173.94134521484375
 21
106.9249267578125
 31
55.0
  0
LINE
  8
0
 10
173.94134521484375
 20
106.9249267578125
 30
55.0
 11
172.88482666015625
 21
108.12965393066406
 31
55.0
  0
LINE
  8
0
 10
172.88482666015625
 20
108.12965393066406
 30
55.0
 11
171.99459838867188
 21
109.46198272705078
 31
55.0
  0
LINE
  8
0
 10
171.99459838867188
 20
109.46198272705078
 30
55.0
 11
171.285888671875
 21
110.89910888671875
 31
55.0
  0
LINE
  8
0
 10
171.285888671875
 20
110.89910888671875
 30
55.0
 11
170.77081298828125
 21
112.41645050048828
 31
55.0
  0
LINE
  8
0
 10
170.77081298828125
 20
112.41645050048828
 30
55.0
 11
170.4582061767578
 21
113.988037109375
 31
55.0
  0
LINE
  8
0
 10
170.4582061767578
 20
113.988037109375
 30
55.0
 11
170.35340881347656
 21
115.58698272705078
 31
55.0
  0
LINE
  8
0
 10
170.35340881347656
 20
115.58698272705078
 30
55.0
 11
170.4582061767578
 21
117.18592834472656
 31
55.0
  0
LINE
  8
0
 10
170.4582061767578
 20
117.18592834472656
 30
55.0
 11
170.77081298828125
 21
118.75751495361328
 31
55.0
  0
LINE
  8
0
 10
170.77081298828125
 20
118.75751495361328
 30
55.0
 11
171.285888671875
 21
120.27485656738281
 31
55.0
  0
LINE
  8
0
 10
171.285888671875
 20
120.27485656738281
 30
55.0
 11
171.99459838867188
 21
121.71198272705078
 31
55.0
  0
LINE
  8
0
 10
171.99459838867188
 20
121.71198272705078
 30
55.0
 11
172.88482666015625
 21
123.0443115234375
 31
55.0
  0
LINE
  8
0
 10
172.88482666015625
 20
123.0443115234375
 30
55.0
 11
173.94134521484375
 21
124.24903869628906
 31
55.0
  0
LINE
  8
0
 10
173.94134521484375
 20
124.24903869628906
 30
55.0
 11
175.14608764648438
 21
125.30555725097656
 31
55.0
  0
LINE
  8
0
 10
175.14608764648438
 20
125.30555725097656
 30
55.0
 11
176.47840881347656
 21
126.19579315185547
 31
55.0
  0
LINE
  8
0
 10
176.47840881347656
 20
126.19579315185547
 30
55.0
 11
177.91552734375
 21
126.90451049804688
 31
55.0
  0
LINE
  8
0
 10
177.91552734375
 20
126.90451049804688
 30
55.0
 11
179.43287658691406
 21
127.41957092285156
 31
55.0
  0
LINE
  8
0
 10
179.43287658691406
 20
127.41957092285156
 30
55.0
 11
181.00445556640625
 21
127.732177734375
 31
55.0
  0
LINE
  8
0
 10
181.00445556640625
 20
127.732177734375
 30
55.0
 11
182.60340881347656
 21
127.83698272705078
 31
55.0
  0
LINE
  8
0
 10
182.60340881347656
 20
127.83698272705078
 30
55.0
 11
184.20236206054688
 21
127.732177734375
 31
55.0
  0
LINE
  8
0
 10
184.20236206054688
 20
127.732177734375
 30
55.0
 11
185.77394104003906
 21
127.41957092285156
 31
55.0
  0
LINE
  8
0
 10
185.77394104003906
 20
127.41957092285156
 30
55.0
 11
187.29129028320312
 21
126.90451049804688
 31
55.0
  0
LINE
  8
0
 10
187.29129028320312
 20
126.90451049804688
 30
55.0
 11
188.72840881347656
 21
126.19579315185547
 31
55.0
  0
LINE
  8
0
 10
188.72840881347656
 20
126.19579315185547
 30
55.0
 11
190.06072998046875
 21
125.30555725097656
 31
55.0
  0
LINE
  8
0
 10
190.06072998046875
 20
125.30555725097656
 30
55.0
 11
191.26547241210938
 21
124.24903869628906
 31
55.0
  0
LINE
  8
0
 10
191.26547241210938
 20
124.24903869628906
 30
55.0
 11
192.32199096679688
 21
123.0443115234375
 31
55.0
  0
LINE
  8
0
 10
192.32199096679688
 20
123.0443115234375
 30
55.0
 11
193.21221923828125
 21
121.71198272705078
 31
55.0
  0
LINE
  8
0
 10
193.21221923828125
 20
121.71198272705078
 30
55.0
 11
193.92092895507812
 21
120.27485656738281
 31
55.0
  0
LINE
  8
0
 10
193.92092895507812
 20
120.27485656738281
 30
55.0
 11
194.43600463867188
 21
118.75751495361328
 31
55.0
  0
LINE
  8
0
 10
194.43600463867188
 20
118.75751495361328
 30
55.0
 11
194.7486114501953
 21
117.18592834472656
 31
55.0
  0
LINE
  8
0
 10
194.85340881347656
 20
115.58698272705078
 30
55.0
 11
194.7486114501953
 21
117.18592834472656
 31
55.0
  0
LINE
  8
0
 10
166.99215698242188
 20
104.57068634033203
 30
55.0
 11
166.88735961914062
 21
102.97174072265625
 31
55.0
  0
LINE
  8
0
 10
166.88735961914062
 20
102.97174072265625
 30
55.0
 11
166.5747528076172
 21
101.40015411376953
 31
55.0
  0
LINE
  8
0
 10
166.5747528076172
 20
101.40015411376953
 30
55.0
 11
166.05967712402344
 21
99.8828125
 31
55.0
  0
LINE
  8
0
 10
166.05967712402344
 20
99.8828125
 30
55.0
 11
165.35096740722656
 21
98.44568634033203
 31
55.0
  0
LINE
  8
0
 10
165.35096740722656
 20
98.44568634033203
 30
55.0
 11
164.4607391357422
 21
97.11335754394531
 31
55.0
  0
LINE
  8
0
 10
164.4607391357422
 20
97.11335754394531
 30
55.0
 11
163.40420532226562
 21
95.90863037109375
 31
55.0
  0
LINE
  8
0
 10
163.40420532226562
 20
95.90863037109375
 30
55.0
 11
162.19947814941406
 21
94.85211181640625
 31
55.0
  0
LINE
  8
0
 10
162.19947814941406
 20
94.85211181640625
 30
55.0
 11
160.86715698242188
 21
93.96187591552734
 31
55.0
  0
LINE
  8
0
 10
160.86715698242188
 20
93.96187591552734
 30
55.0
 11
159.43002319335938
 21
93.25315856933594
 31
55.0
  0
LINE
  8
0
 10
159.43002319335938
 20
93.25315856933594
 30
55.0
 11
157.91268920898438
 21
92.73809814453125
 31
55.0
  0
LINE
  8
0
 10
157.91268920898438
 20
92.73809814453125
 30
55.0
 11
156.34109497070312
 21
92.42549133300781
 31
55.0
  0
LINE
  8
0
 10
156.34109497070312
 20
92.42549133300781
 30
55.0
 11
154.74215698242188
 21
92.32068634033203
 31
55.0
  0
LINE
  8
0
 10
154.74215698242188
 20
92.32068634033203
 30
55.0
 11
153.14320373535156
 21
92.42549133300781
 31
55.0
  0
LINE
  8
0
 10
153.14320373535156
 20
92.42549133300781
 30
55.0
 11
151.57162475585938
 21
92.73809814453125
 31
55.0
  0
LINE
  8
0
 10
151.57162475585938
 20
92.73809814453125
 30
55.0
 11
150.05429077148438
 21
93.25315856933594
 31
55.0
  0
LINE
  8
0
 10
150.05429077148438
 20
93.25315856933594
 30
55.0
 11
148.61715698242188
 21
93.96187591552734
 31
55.0
  0
LINE
  8
0
 10
148.61715698242188
 20
93.96187591552734
 30
55.0
 11
147.2848358154297
 21
94.85211181640625
 31
55.0
  0
LINE
  8
0
 10
147.2848358154297
 20
94.85211181640625
 30
55.0
 11
146.08009338378906
 21
95.90863037109375
 31
55.0
  0
LINE
  8
0
 10
146.08009338378906
 20
95.90863037109375
 30
55.0
 11
145.02357482910156
 21
97.11335754394531
 31
55.0
  0
LINE
  8
0
 10
145.02357482910156
 20
97.11335754394531
 30
55.0
 11
144.1333465576172
 21
98.44568634033203
 31
55.0
  0
LINE
  8
0
 10
144.1333465576172
 20
98.44568634033203
 30
55.0
 11
143.4246368408203
 21
99.8828125
 31
55.0
  0
LINE
  8
0
 10
143.4246368408203
 20
99.8828125
 30
55.0
 11
142.90956115722656
 21
101.40015411376953
 31
55.0
  0
LINE
  8
0
 10
142.90956115722656
 20
101.40015411376953
 30
55.0
 11
142.59695434570312
 21
102.97174072265625
 31
55.0
  0
LINE
  8
0
 10
142.59695434570312
 20
102.97174072265625
 30
55.0
 11
142.49215698242188
 21
104.57068634033203
 31
55.0
  0
LINE
  8
0
 10
142.49215698242188
 20
104.57068634033203
 30
55.0
 11
142.59695434570312
 21
106.16963195800781
 31
55.0
  0
LINE
  8
0
 10
142.59695434570312
 20
106.16963195800781
 30
55.0
 11
142.90956115722656
 21
107.74122619628906
 31
55.0
  0
LINE
  8
0
 10
142.90956115722656
 20
107.74122619628906
 30
55.0
 11
143.4246368408203
 21
109.25856018066406
 31
55.0
  0
LINE
  8
0
 10
143.4246368408203
 20
109.25856018066406
 30
55.0
 11
144.1333465576172
 21
110.69568634033203
 31
55.0
  0
LINE
  8
0
 10
144.1333465576172
 20
110.69568634033203
 30
55.0
 11
145.02357482910156
 21
112.02801513671875
 31
55.0
  0
LINE
  8
0
 10
145.02357482910156
 20
112.02801513671875
 30
55.0
 11
146.08009338378906
 21
113.23274230957031
 31
55.0
  0
LINE
  8
0
 10
146.08009338378906
 20
113.23274230957031
 30
55.0
 11
147.2848358154297
 21
114.28926086425781
 31
55.0
  0
LINE
  8
0
 10
147.2848358154297
 20
114.28926086425781
 30
55.0
 11
148.61715698242188
 21
115.17949676513672
 31
55.0
  0
LINE
  8
0
 10
148.61715698242188
 20
115.17949676513672
 30
55.0
 11
150.05429077148438
 21
115.88821411132812
 31
55.0
  0
LINE
  8
0
 10
150.05429077148438
 20
115.88821411132812
 30
55.0
 11
151.57162475585938
 21
116.40327453613281
 31
55.0
  0
LINE
  8
0
 10
151.57162475585938
 20
116.40327453613281
 30
55.0
 11
153.14321899414062
 21
116.71588134765625
 31
55.0
  0
LINE
  8
0
 10
153.14321899414062
 20
116.71588134765625
 30
55.0
 11
154.74215698242188
 21
116.82068634033203
 31
55.0
  0
LINE
  8
0
 10
154.74215698242188
 20
116.82068634033203
 30
55.0
 11
156.3411102294922
 21
116.71588134765625
 31
55.0
  0
LINE
  8
0
 10
156.3411102294922
 20
116.71588134765625
 30
55.0
 11
157.91268920898438
 21
116.40327453613281
 31
55.0
  0
LINE
  8
0
 10
157.91268920898438
 20
116.40327453613281
 30
55.0
 11
159.43002319335938
 21
115.88821411132812
 31
55.0
  0
LINE
  8
0
 10
159.43002319335938
 20
115.88821411132812
 30
55.0
 11
160.86715698242188
 21
115.17949676513672
 31
55.0
  0
LINE
  8
0
 10
160.86715698242188
 20
115.17949676513672
 30
55.0
 11
162.19949340820312
 21
114.28926086425781
 31
55.0
  0
LINE
  8
0
 10
162.19949340820312
 20
114.28926086425781
 30
55.0
 11
163.4042205810547
 21
113.23274230957031
 31
55.0
  0
LINE
  8
0
 10
163.4042205810547
 20
113.23274230957031
 30
55.0
 11
164.4607391357422
 21
112.02801513671875
 31
55.0
  0
LINE
  8
0
 10
164.4607391357422
 20
112.02801513671875
 30
55.0
 11
165.35096740722656
 21
110.69568634033203
 31
55.0
  0
LINE
  8
0
 10
165.35096740722656
 20
110.69568634033203
 30
55.0
 11
166.05967712402344
 21
109.25856018066406
 31
55.0
  0
LINE
  8
0
 10
166.05967712402344
 20
109.25856018066406
 30
55.0
 11
166.5747528076172
 21
107.74121856689453
 31
55.0
  0
LINE
  8
0
 10
166.5747528076172
 20
107.74121856689453
 30
55.0
 11
166.88735961914062
 21
106.16963195800781
 31
55.0
  0
LINE
  8
0
 10
166.99215698242188
 20
104.57068634033203
 30
55.0
 11
166.88735961914062
 21
106.16963195800781
 31
55.0
  0
ENDSEC
  0
EOF
