  0
SECTION
  2
HEADER
  9
$ACADVER
  1
AC1009
  9
$INSBASE
 10
0.0
 20
0.0
 30
0.0
  9
$EXTMIN
 10
0.0
 20
0.0
 30
0.0
  9
$EXTMAX
 10
0.0
 20
0.0
 30
0.0
  0
ENDSEC
  0
SECTION
  2
TABLES
  0
TABLE
  2
VPORT
 70
1
  0
VPORT
  2
*ACTIVE
 70
0
 10
0.0
 20
0.0
 11
1.0
 21
1.0
 12
-5.0
 22
1.0
 13
0.0
 23
0.0
 14
0.1
 24
0.1
 15
0.1
 25
0.1
 16
0.0
 26
0.0
 36
1.0
 17
0.0
 27
0.0
 37
0.0
 40
10.0
 41
1.0
 42
50.0
 43
0.0
 44
0.0
 50
0.0
 51
0.0
 71
0
 72
100
 73
1
 74
1
 75
0
 76
0
 77
0
 78
0
  0
ENDTAB
  0
TABLE
  2
LTYPE
 70
8
  0
LTYPE
  2
CONTINUOUS
 70
0
  3
Solid line
 72
65
 73
0
 40
0.0
  0
LTYPE
  2
DOT
 70
0
  3
. . . . . . .
 72
65
 73
2
 40
0.25
 49
0.0
 49
-0.25
  0
LTYPE
  2
DASHED
 70
0
  3
__ __ __ __ __
 72
65
 73
2
 40
0.8
 49
0.5
 49
-0.3
  0
LTYPE
  2
DASHDOT
 70
0
  3
__ . __ . __ .
 72
65
 73
4
 40
1.0
 49
0.5
 49
-0.25
 49
0.0
 49
-0.25
  0
LTYPE
  2
DIVIDE
 70
0
  3
____ . . ____ . . 
 72
65
 73
6
 40
1.25
 49
0.5
 49
-0.25
 49
0.0
 49
-0.25
 49
0.0
 49
-0.25
  0
LTYPE
  2
BORDER
 70
0
  3
__ __ . __ __ . 
 72
65
 73
6
 40
1.75
 49
0.5
 49
-0.25
 49
0.5
 49
-0.25
 49
0.0
 49
-0.25
  0
LTYPE
  2
HIDDEN
 70
0
  3
__ __ __ __ __
 72
65
 73
2
 40
0.4
 49
0.25
 49
-0.25
  0
LTYPE
  2
CENTER
 70
0
  3
____ _ ____ _ __
 72
65
 73
4
 40
2.0
 49
1.25
 49
-0.25
 49
0.25
 49
-0.25
  0
ENDTAB
  0
TABLE
  2
LAYER
 70
1
  0
LAYER
  2
PYDXF
 70
64
 62
7
  6
continuous
  0
ENDTAB
  0
TABLE
  2
STYLE
 70
1
  0
STYLE
  2
STANDARD
 70
0
 40
0
 41
1.0
 50
0.0
 71
0
 42
1
 3
ARIAL.TTF
 4

  0
ENDTAB
  0
TABLE
  2
VIEW
 70
1
  0
VIEW
  2
BF_TOPVIEW
 70
0
 40
120.0
 10
0.0
 20
0.0
 41
200.0
 11
0.0
 21
0.0
 31
1.0
 12
0.0
 22
0.0
 32
0.0
 42
50.0
 43
0.0
 44
0.0
 50
0.0
 71
0
  0
ENDTAB
  0
ENDSEC
  0
SECTION
  2
BLOCKS
  0
ENDSEC
  0
SECTION
  2
ENTITIES
  0
LINE
  8
0
 10
10.0
 20
30.142860412597656
 30
55.0
 11
10.0
 21
200.00001525878906
 31
55.0
  0
LINE
  8
0
 10
26.875
 20
188.07858276367188
 30
55.0
 11
26.5531005859375
 21
188.04689025878906
 31
55.0
  0
LINE
  8
0
 10
26.5531005859375
 20
188.04689025878906
 30
55.0
 11
26.243572235107422
 21
187.95298767089844
 31
55.0
  0
LINE
  8
0
 10
26.243572235107422
 20
187.95298767089844
 30
55.0
 11
25.958309173583984
 21
187.80050659179688
 31
55.0
  0
LINE
  8
0
 10
25.958309173583984
 20
187.80050659179688
 30
55.0
 11
25.708274841308594
 21
187.59532165527344
 31
55.0
  0
LINE
  8
0
 10
25.708274841308594
 20
187.59532165527344
 30
55.0
 11
25.503074645996094
 21
187.34527587890625
 31
55.0
  0
LINE
  8
0
 10
25.503074645996094
 20
187.34527587890625
 30
55.0
 11
25.35059928894043
 21
187.0600128173828
 31
55.0
  0
LINE
  8
0
 10
25.35059928894043
 20
187.0600128173828
 30
55.0
 11
25.256704330444336
 21
186.75048828125
 31
55.0
  0
LINE
  8
0
 10
25.256704330444336
 20
186.75048828125
 30
55.0
 11
25.225000381469727
 21
186.4285888671875
 31
55.0
  0
LINE
  8
0
 10
25.225000381469727
 20
186.4285888671875
 30
55.0
 11
25.256704330444336
 21
186.106689453125
 31
55.0
  0
LINE
  8
0
 10
25.256704330444336
 20
186.106689453125
 30
55.0
 11
25.35059928894043
 21
185.7971649169922
 31
55.0
  0
LINE
  8
0
 10
25.35059928894043
 20
185.7971649169922
 30
55.0
 11
25.503074645996094
 21
185.51190185546875
 31
55.0
  0
LINE
  8
0
 10
25.503074645996094
 20
185.51190185546875
 30
55.0
 11
25.708274841308594
 21
185.26185607910156
 31
55.0
  0
LINE
  8
0
 10
25.708274841308594
 20
185.26185607910156
 30
55.0
 11
25.958309173583984
 21
185.05667114257812
 31
55.0
  0
LINE
  8
0
 10
25.958309173583984
 20
185.05667114257812
 30
55.0
 11
26.243572235107422
 21
184.90419006347656
 31
55.0
  0
LINE
  8
0
 10
26.243572235107422
 20
184.90419006347656
 30
55.0
 11
26.5531005859375
 21
184.81028747558594
 31
55.0
  0
LINE
  8
0
 10
26.5531005859375
 20
184.81028747558594
 30
55.0
 11
26.875
 21
184.77859497070312
 31
55.0
  0
LINE
  8
0
 10
26.875
 20
184.77859497070312
 30
55.0
 11
27.1968994140625
 21
184.81028747558594
 31
55.0
  0
LINE
  8
0
 10
27.1968994140625
 20
184.81028747558594
 30
55.0
 11
27.506427764892578
 21
184.90419006347656
 31
55.0
  0
LINE
  8
0
 10
27.506427764892578
 20
184.90419006347656
 30
55.0
 11
27.791690826416016
 21
185.05667114257812
 31
55.0
  0
LINE
  8
0
 10
27.791690826416016
 20
185.05667114257812
 30
55.0
 11
28.041725158691406
 21
185.26185607910156
 31
55.0
  0
LINE
  8
0
 10
28.041725158691406
 20
185.26185607910156
 30
55.0
 11
28.246925354003906
 21
185.51190185546875
 31
55.0
  0
LINE
  8
0
 10
28.246925354003906
 20
185.51190185546875
 30
55.0
 11
28.39940071105957
 21
185.7971649169922
 31
55.0
  0
LINE
  8
0
 10
28.39940071105957
 20
185.7971649169922
 30
55.0
 11
28.493295669555664
 21
186.106689453125
 31
55.0
  0
LINE
  8
0
 10
28.493295669555664
 20
186.106689453125
 30
55.0
 11
28.524999618530273
 21
186.4285888671875
 31
55.0
  0
LINE
  8
0
 10
28.524999618530273
 20
186.4285888671875
 30
55.0
 11
28.493295669555664
 21
186.75048828125
 31
55.0
  0
LINE
  8
0
 10
28.493295669555664
 20
186.75048828125
 30
55.0
 11
28.39940071105957
 21
187.0600128173828
 31
55.0
  0
LINE
  8
0
 10
28.39940071105957
 20
187.0600128173828
 30
55.0
 11
28.246925354003906
 21
187.34527587890625
 31
55.0
  0
LINE
  8
0
 10
28.246925354003906
 20
187.34527587890625
 30
55.0
 11
28.041725158691406
 21
187.59532165527344
 31
55.0
  0
LINE
  8
0
 10
28.041725158691406
 20
187.59532165527344
 30
55.0
 11
27.791690826416016
 21
187.80050659179688
 31
55.0
  0
LINE
  8
0
 10
27.791690826416016
 20
187.80050659179688
 30
55.0
 11
27.506427764892578
 21
187.95298767089844
 31
55.0
  0
LINE
  8
0
 10
27.506427764892578
 20
187.95298767089844
 30
55.0
 11
27.1968994140625
 21
188.04689025878906
 31
55.0
  0
LINE
  8
0
 10
26.875
 20
188.07858276367188
 30
55.0
 11
27.1968994140625
 21
188.04689025878906
 31
55.0
  0
LINE
  8
0
 10
263.125
 20
188.0785675048828
 30
55.0
 11
262.8031005859375
 21
188.046875
 31
55.0
  0
LINE
  8
0
 10
262.8031005859375
 20
188.046875
 30
55.0
 11
262.4935607910156
 21
187.95297241210938
 31
55.0
  0
LINE
  8
0
 10
262.4935607910156
 20
187.95297241210938
 30
55.0
 11
262.20831298828125
 21
187.8004913330078
 31
55.0
  0
LINE
  8
0
 10
262.20831298828125
 20
187.8004913330078
 30
55.0
 11
261.9582824707031
 21
187.59530639648438
 31
55.0
  0
LINE
  8
0
 10
261.9582824707031
 20
187.59530639648438
 30
55.0
 11
261.7530822753906
 21
187.3452606201172
 31
55.0
  0
LINE
  8
0
 10
261.7530822753906
 20
187.3452606201172
 30
55.0
 11
261.6005859375
 21
187.05999755859375
 31
55.0
  0
LINE
  8
0
 10
261.6005859375
 20
187.05999755859375
 30
55.0
 11
261.5067138671875
 21
186.75047302246094
 31
55.0
  0
LINE
  8
0
 10
261.5067138671875
 20
186.75047302246094
 30
55.0
 11
261.4750061035156
 21
186.42857360839844
 31
55.0
  0
LINE
  8
0
 10
261.4750061035156
 20
186.42857360839844
 30
55.0
 11
261.5067138671875
 21
186.10667419433594
 31
55.0
  0
LINE
  8
0
 10
261.5067138671875
 20
186.10667419433594
 30
55.0
 11
261.6005859375
 21
185.79714965820312
 31
55.0
  0
LINE
  8
0
 10
261.6005859375
 20
185.79714965820312
 30
55.0
 11
261.7530822753906
 21
185.5118865966797
 31
55.0
  0
LINE
  8
0
 10
261.7530822753906
 20
185.5118865966797
 30
55.0
 11
261.9582824707031
 21
185.2618408203125
 31
55.0
  0
LINE
  8
0
 10
261.9582824707031
 20
185.2618408203125
 30
55.0
 11
262.20831298828125
 21
185.05665588378906
 31
55.0
  0
LINE
  8
0
 10
262.20831298828125
 20
185.05665588378906
 30
55.0
 11
262.4935607910156
 21
184.9041748046875
 31
55.0
  0
LINE
  8
0
 10
262.4935607910156
 20
184.9041748046875
 30
55.0
 11
262.8031005859375
 21
184.81027221679688
 31
55.0
  0
LINE
  8
0
 10
262.8031005859375
 20
184.81027221679688
 30
55.0
 11
263.125
 21
184.77857971191406
 31
55.0
  0
LINE
  8
0
 10
263.125
 20
184.77857971191406
 30
55.0
 11
263.4468994140625
 21
184.81027221679688
 31
55.0
  0
LINE
  8
0
 10
263.4468994140625
 20
184.81027221679688
 30
55.0
 11
263.7564392089844
 21
184.9041748046875
 31
55.0
  0
LINE
  8
0
 10
263.7564392089844
 20
184.9041748046875
 30
55.0
 11
264.04168701171875
 21
185.05665588378906
 31
55.0
  0
LINE
  8
0
 10
264.04168701171875
 20
185.05665588378906
 30
55.0
 11
264.2917175292969
 21
185.2618408203125
 31
55.0
  0
LINE
  8
0
 10
264.2917175292969
 20
185.2618408203125
 30
55.0
 11
264.4969177246094
 21
185.5118865966797
 31
55.0
  0
LINE
  8
0
 10
264.4969177246094
 20
185.5118865966797
 30
55.0
 11
264.6494140625
 21
185.79714965820312
 31
55.0
  0
LINE
  8
0
 10
264.6494140625
 20
185.79714965820312
 30
55.0
 11
264.7432861328125
 21
186.10667419433594
 31
55.0
  0
LINE
  8
0
 10
264.7432861328125
 20
186.10667419433594
 30
55.0
 11
264.7749938964844
 21
186.42857360839844
 31
55.0
  0
LINE
  8
0
 10
264.7749938964844
 20
186.42857360839844
 30
55.0
 11
264.7432861328125
 21
186.75047302246094
 31
55.0
  0
LINE
  8
0
 10
264.7432861328125
 20
186.75047302246094
 30
55.0
 11
264.6494140625
 21
187.05999755859375
 31
55.0
  0
LINE
  8
0
 10
264.6494140625
 20
187.05999755859375
 30
55.0
 11
264.4969177246094
 21
187.3452606201172
 31
55.0
  0
LINE
  8
0
 10
264.4969177246094
 20
187.3452606201172
 30
55.0
 11
264.2917175292969
 21
187.59530639648438
 31
55.0
  0
LINE
  8
0
 10
264.2917175292969
 20
187.59530639648438
 30
55.0
 11
264.04168701171875
 21
187.8004913330078
 31
55.0
  0
LINE
  8
0
 10
264.04168701171875
 20
187.8004913330078
 30
55.0
 11
263.7564392089844
 21
187.95297241210938
 31
55.0
  0
LINE
  8
0
 10
263.7564392089844
 20
187.95297241210938
 30
55.0
 11
263.4468994140625
 21
188.046875
 31
55.0
  0
LINE
  8
0
 10
263.125
 20
188.0785675048828
 30
55.0
 11
263.4468994140625
 21
188.046875
 31
55.0
  0
LINE
  8
0
 10
26.875
 20
52.364288330078125
 30
55.0
 11
26.5531005859375
 21
52.33258056640625
 31
55.0
  0
LINE
  8
0
 10
26.5531005859375
 20
52.33258056640625
 30
55.0
 11
26.243572235107422
 21
52.23868942260742
 31
55.0
  0
LINE
  8
0
 10
26.243572235107422
 20
52.23868942260742
 30
55.0
 11
25.958309173583984
 21
52.086212158203125
 31
55.0
  0
LINE
  8
0
 10
25.958309173583984
 20
52.086212158203125
 30
55.0
 11
25.708274841308594
 21
51.881011962890625
 31
55.0
  0
LINE
  8
0
 10
25.708274841308594
 20
51.881011962890625
 30
55.0
 11
25.503074645996094
 21
51.630977630615234
 31
55.0
  0
LINE
  8
0
 10
25.503074645996094
 20
51.630977630615234
 30
55.0
 11
25.35059928894043
 21
51.3457145690918
 31
55.0
  0
LINE
  8
0
 10
25.35059928894043
 20
51.3457145690918
 30
55.0
 11
25.256704330444336
 21
51.03618621826172
 31
55.0
  0
LINE
  8
0
 10
25.256704330444336
 20
51.03618621826172
 30
55.0
 11
25.225000381469727
 21
50.71428680419922
 31
55.0
  0
LINE
  8
0
 10
25.225000381469727
 20
50.71428680419922
 30
55.0
 11
25.256704330444336
 21
50.39238739013672
 31
55.0
  0
LINE
  8
0
 10
25.256704330444336
 20
50.39238739013672
 30
55.0
 11
25.35059928894043
 21
50.08285903930664
 31
55.0
  0
LINE
  8
0
 10
25.35059928894043
 20
50.08285903930664
 30
55.0
 11
25.503074645996094
 21
49.7975959777832
 31
55.0
  0
LINE
  8
0
 10
25.503074645996094
 20
49.7975959777832
 30
55.0
 11
25.708274841308594
 21
49.54756164550781
 31
55.0
  0
LINE
  8
0
 10
25.708274841308594
 20
49.54756164550781
 30
55.0
 11
25.958309173583984
 21
49.34236145019531
 31
55.0
  0
LINE
  8
0
 10
25.958309173583984
 20
49.34236145019531
 30
55.0
 11
26.243572235107422
 21
49.189884185791016
 31
55.0
  0
LINE
  8
0
 10
26.243572235107422
 20
49.189884185791016
 30
55.0
 11
26.5531005859375
 21
49.09599304199219
 31
55.0
  0
LINE
  8
0
 10
26.5531005859375
 20
49.09599304199219
 30
55.0
 11
26.875
 21
49.06428527832031
 31
55.0
  0
LINE
  8
0
 10
26.875
 20
49.06428527832031
 30
55.0
 11
27.1968994140625
 21
49.09599304199219
 31
55.0
  0
LINE
  8
0
 10
27.1968994140625
 20
49.09599304199219
 30
55.0
 11
27.506427764892578
 21
49.189884185791016
 31
55.0
  0
LINE
  8
0
 10
27.506427764892578
 20
49.189884185791016
 30
55.0
 11
27.791690826416016
 21
49.34236145019531
 31
55.0
  0
LINE
  8
0
 10
27.791690826416016
 20
49.34236145019531
 30
55.0
 11
28.041725158691406
 21
49.54756164550781
 31
55.0
  0
LINE
  8
0
 10
28.041725158691406
 20
49.54756164550781
 30
55.0
 11
28.246925354003906
 21
49.7975959777832
 31
55.0
  0
LINE
  8
0
 10
28.246925354003906
 20
49.7975959777832
 30
55.0
 11
28.39940071105957
 21
50.08285903930664
 31
55.0
  0
LINE
  8
0
 10
28.39940071105957
 20
50.08285903930664
 30
55.0
 11
28.493295669555664
 21
50.39238739013672
 31
55.0
  0
LINE
  8
0
 10
28.493295669555664
 20
50.39238739013672
 30
55.0
 11
28.524999618530273
 21
50.71428680419922
 31
55.0
  0
LINE
  8
0
 10
28.524999618530273
 20
50.71428680419922
 30
55.0
 11
28.493295669555664
 21
51.03618621826172
 31
55.0
  0
LINE
  8
0
 10
28.493295669555664
 20
51.03618621826172
 30
55.0
 11
28.39940071105957
 21
51.3457145690918
 31
55.0
  0
LINE
  8
0
 10
28.39940071105957
 20
51.3457145690918
 30
55.0
 11
28.246925354003906
 21
51.630977630615234
 31
55.0
  0
LINE
  8
0
 10
28.246925354003906
 20
51.630977630615234
 30
55.0
 11
28.041725158691406
 21
51.881011962890625
 31
55.0
  0
LINE
  8
0
 10
28.041725158691406
 20
51.881011962890625
 30
55.0
 11
27.791690826416016
 21
52.086212158203125
 31
55.0
  0
LINE
  8
0
 10
27.791690826416016
 20
52.086212158203125
 30
55.0
 11
27.506427764892578
 21
52.23868942260742
 31
55.0
  0
LINE
  8
0
 10
27.506427764892578
 20
52.23868942260742
 30
55.0
 11
27.1968994140625
 21
52.33258056640625
 31
55.0
  0
LINE
  8
0
 10
26.875
 20
52.364288330078125
 30
55.0
 11
27.1968994140625
 21
52.33258056640625
 31
55.0
  0
LINE
  8
0
 10
263.125
 20
52.36429977416992
 30
55.0
 11
262.8031005859375
 21
52.33259582519531
 31
55.0
  0
LINE
  8
0
 10
262.8031005859375
 20
52.33259582519531
 30
55.0
 11
262.4935607910156
 21
52.23870086669922
 31
55.0
  0
LINE
  8
0
 10
262.4935607910156
 20
52.23870086669922
 30
55.0
 11
262.20831298828125
 21
52.08622360229492
 31
55.0
  0
LINE
  8
0
 10
262.20831298828125
 20
52.08622360229492
 30
55.0
 11
261.9582824707031
 21
51.88102340698242
 31
55.0
  0
LINE
  8
0
 10
261.9582824707031
 20
51.88102340698242
 30
55.0
 11
261.7530822753906
 21
51.63098907470703
 31
55.0
  0
LINE
  8
0
 10
261.7530822753906
 20
51.63098907470703
 30
55.0
 11
261.6005859375
 21
51.345726013183594
 31
55.0
  0
LINE
  8
0
 10
261.6005859375
 20
51.345726013183594
 30
55.0
 11
261.5067138671875
 21
51.036197662353516
 31
55.0
  0
LINE
  8
0
 10
261.5067138671875
 20
51.036197662353516
 30
55.0
 11
261.4750061035156
 21
50.714298248291016
 31
55.0
  0
LINE
  8
0
 10
261.4750061035156
 20
50.714298248291016
 30
55.0
 11
261.5067138671875
 21
50.392398834228516
 31
55.0
  0
LINE
  8
0
 10
261.5067138671875
 20
50.392398834228516
 30
55.0
 11
261.6005859375
 21
50.08287048339844
 31
55.0
  0
LINE
  8
0
 10
261.6005859375
 20
50.08287048339844
 30
55.0
 11
261.7530822753906
 21
49.797607421875
 31
55.0
  0
LINE
  8
0
 10
261.7530822753906
 20
49.797607421875
 30
55.0
 11
261.9582824707031
 21
49.54757308959961
 31
55.0
  0
LINE
  8
0
 10
261.9582824707031
 20
49.54757308959961
 30
55.0
 11
262.20831298828125
 21
49.34237289428711
 31
55.0
  0
LINE
  8
0
 10
262.20831298828125
 20
49.34237289428711
 30
55.0
 11
262.4935607910156
 21
49.18989562988281
 31
55.0
  0
LINE
  8
0
 10
262.4935607910156
 20
49.18989562988281
 30
55.0
 11
262.8031005859375
 21
49.09600067138672
 31
55.0
  0
LINE
  8
0
 10
262.8031005859375
 20
49.09600067138672
 30
55.0
 11
263.125
 21
49.06429672241211
 31
55.0
  0
LINE
  8
0
 10
263.125
 20
49.06429672241211
 30
55.0
 11
263.4468994140625
 21
49.09600067138672
 31
55.0
  0
LINE
  8
0
 10
263.4468994140625
 20
49.09600067138672
 30
55.0
 11
263.7564392089844
 21
49.18989562988281
 31
55.0
  0
LINE
  8
0
 10
263.7564392089844
 20
49.18989562988281
 30
55.0
 11
264.04168701171875
 21
49.34237289428711
 31
55.0
  0
LINE
  8
0
 10
264.04168701171875
 20
49.34237289428711
 30
55.0
 11
264.2917175292969
 21
49.54757308959961
 31
55.0
  0
LINE
  8
0
 10
264.2917175292969
 20
49.54757308959961
 30
55.0
 11
264.4969177246094
 21
49.797607421875
 31
55.0
  0
LINE
  8
0
 10
264.4969177246094
 20
49.797607421875
 30
55.0
 11
264.6494140625
 21
50.08287048339844
 31
55.0
  0
LINE
  8
0
 10
264.6494140625
 20
50.08287048339844
 30
55.0
 11
264.7432861328125
 21
50.392398834228516
 31
55.0
  0
LINE
  8
0
 10
264.7432861328125
 20
50.392398834228516
 30
55.0
 11
264.7749938964844
 21
50.714298248291016
 31
55.0
  0
LINE
  8
0
 10
264.7749938964844
 20
50.714298248291016
 30
55.0
 11
264.7432861328125
 21
51.036197662353516
 31
55.0
  0
LINE
  8
0
 10
264.7432861328125
 20
51.036197662353516
 30
55.0
 11
264.6494140625
 21
51.345726013183594
 31
55.0
  0
LINE
  8
0
 10
264.6494140625
 20
51.345726013183594
 30
55.0
 11
264.4969177246094
 21
51.63098907470703
 31
55.0
  0
LINE
  8
0
 10
264.4969177246094
 20
51.63098907470703
 30
55.0
 11
264.2917175292969
 21
51.88102340698242
 31
55.0
  0
LINE
  8
0
 10
264.2917175292969
 20
51.88102340698242
 30
55.0
 11
264.04168701171875
 21
52.08622360229492
 31
55.0
  0
LINE
  8
0
 10
264.04168701171875
 20
52.08622360229492
 30
55.0
 11
263.7564392089844
 21
52.23870086669922
 31
55.0
  0
LINE
  8
0
 10
263.7564392089844
 20
52.23870086669922
 30
55.0
 11
263.4468994140625
 21
52.33259582519531
 31
55.0
  0
LINE
  8
0
 10
263.125
 20
52.36429977416992
 30
55.0
 11
263.4468994140625
 21
52.33259582519531
 31
55.0
  0
LINE
  8
0
 10
10.0
 20
200.00001525878906
 30
55.0
 11
280.0
 21
200.0
 31
55.0
  0
LINE
  8
0
 10
280.0
 20
200.0
 30
55.0
 11
280.0
 21
30.142871856689453
 31
55.0
  0
LINE
  8
0
 10
10.0
 20
30.142860412597656
 30
55.0
 11
280.0
 21
30.142871856689453
 31
55.0
  0
LINE
  8
0
 10
133.0
 20
115.25
 30
55.0
 11
130.02487182617188
 21
114.95697784423828
 31
55.0
  0
LINE
  8
0
 10
130.02487182617188
 20
114.95697784423828
 30
55.0
 11
127.16407775878906
 21
114.08916473388672
 31
55.0
  0
LINE
  8
0
 10
127.16407775878906
 20
114.08916473388672
 30
55.0
 11
124.52755737304688
 21
112.6799087524414
 31
55.0
  0
LINE
  8
0
 10
124.52755737304688
 20
112.6799087524414
 30
55.0
 11
122.21662902832031
 21
110.78337860107422
 31
55.0
  0
LINE
  8
0
 10
122.21662902832031
 20
110.78337860107422
 30
55.0
 11
120.3200912475586
 21
108.47244262695312
 31
55.0
  0
LINE
  8
0
 10
120.3200912475586
 20
108.47244262695312
 30
55.0
 11
118.91084289550781
 21
105.83592224121094
 31
55.0
  0
LINE
  8
0
 10
118.91084289550781
 20
105.83592224121094
 30
55.0
 11
118.04302978515625
 21
102.97512817382812
 31
55.0
  0
LINE
  8
0
 10
118.04302978515625
 20
102.97512817382812
 30
55.0
 11
117.75
 21
100.0
 31
55.0
  0
LINE
  8
0
 10
117.75
 20
100.0
 30
55.0
 11
118.04302978515625
 21
97.02487182617188
 31
55.0
  0
LINE
  8
0
 10
118.04302978515625
 20
97.02487182617188
 30
55.0
 11
118.91084289550781
 21
94.16407775878906
 31
55.0
  0
LINE
  8
0
 10
118.91084289550781
 20
94.16407775878906
 30
55.0
 11
120.3200912475586
 21
91.52755737304688
 31
55.0
  0
LINE
  8
0
 10
120.3200912475586
 20
91.52755737304688
 30
55.0
 11
122.21662902832031
 21
89.21662139892578
 31
55.0
  0
LINE
  8
0
 10
122.21662902832031
 20
89.21662139892578
 30
55.0
 11
124.52755737304688
 21
87.32008361816406
 31
55.0
  0
LINE
  8
0
 10
124.52755737304688
 20
87.32008361816406
 30
55.0
 11
127.16407775878906
 21
85.91083526611328
 31
55.0
  0
LINE
  8
0
 10
127.16407775878906
 20
85.91083526611328
 30
55.0
 11
130.02487182617188
 21
85.04302215576172
 31
55.0
  0
LINE
  8
0
 10
130.02487182617188
 20
85.04302215576172
 30
55.0
 11
133.0
 21
84.75
 31
55.0
  0
LINE
  8
0
 10
133.0
 20
84.75
 30
55.0
 11
135.97512817382812
 21
85.04302978515625
 31
55.0
  0
LINE
  8
0
 10
135.97512817382812
 20
85.04302978515625
 30
55.0
 11
138.8359375
 21
85.91084289550781
 31
55.0
  0
LINE
  8
0
 10
138.8359375
 20
85.91084289550781
 30
55.0
 11
141.47244262695312
 21
87.3200912475586
 31
55.0
  0
LINE
  8
0
 10
141.47244262695312
 20
87.3200912475586
 30
55.0
 11
143.78338623046875
 21
89.21662139892578
 31
55.0
  0
LINE
  8
0
 10
143.78338623046875
 20
89.21662139892578
 30
55.0
 11
145.67991638183594
 21
91.52755737304688
 31
55.0
  0
LINE
  8
0
 10
145.67991638183594
 20
91.52755737304688
 30
55.0
 11
147.08917236328125
 21
94.16407775878906
 31
55.0
  0
LINE
  8
0
 10
147.08917236328125
 20
94.16407775878906
 30
55.0
 11
147.95697021484375
 21
97.02487182617188
 31
55.0
  0
LINE
  8
0
 10
147.95697021484375
 20
97.02487182617188
 30
55.0
 11
148.25
 21
100.0
 31
55.0
  0
LINE
  8
0
 10
148.25
 20
100.0
 30
55.0
 11
147.95697021484375
 21
102.97512817382812
 31
55.0
  0
LINE
  8
0
 10
147.95697021484375
 20
102.97512817382812
 30
55.0
 11
147.08917236328125
 21
105.83592224121094
 31
55.0
  0
LINE
  8
0
 10
147.08917236328125
 20
105.83592224121094
 30
55.0
 11
145.67991638183594
 21
108.47245025634766
 31
55.0
  0
LINE
  8
0
 10
145.67991638183594
 20
108.47245025634766
 30
55.0
 11
143.78338623046875
 21
110.78337860107422
 31
55.0
  0
LINE
  8
0
 10
143.78338623046875
 20
110.78337860107422
 30
55.0
 11
141.47244262695312
 21
112.67991638183594
 31
55.0
  0
LINE
  8
0
 10
141.47244262695312
 20
112.67991638183594
 30
55.0
 11
138.83592224121094
 21
114.08916473388672
 31
55.0
  0
LINE
  8
0
 10
138.83592224121094
 20
114.08916473388672
 30
55.0
 11
135.97512817382812
 21
114.95697784423828
 31
55.0
  0
LINE
  8
0
 10
133.0
 20
115.25
 30
55.0
 11
135.97512817382812
 21
114.95697784423828
 31
55.0
  0
LINE
  8
0
 10
165.72610473632812
 20
130.25
 30
55.0
 11
162.7509765625
 21
129.95697021484375
 31
55.0
  0
LINE
  8
0
 10
162.7509765625
 20
129.95697021484375
 30
55.0
 11
159.89019775390625
 21
129.08917236328125
 31
55.0
  0
LINE
  8
0
 10
159.89019775390625
 20
129.08917236328125
 30
55.0
 11
157.253662109375
 21
127.67991638183594
 31
55.0
  0
LINE
  8
0
 10
157.253662109375
 20
127.67991638183594
 30
55.0
 11
154.94273376464844
 21
125.78337860107422
 31
55.0
  0
LINE
  8
0
 10
154.94273376464844
 20
125.78337860107422
 30
55.0
 11
153.04620361328125
 21
123.47245025634766
 31
55.0
  0
LINE
  8
0
 10
153.04620361328125
 20
123.47245025634766
 30
55.0
 11
151.63694763183594
 21
120.83592224121094
 31
55.0
  0
LINE
  8
0
 10
151.63694763183594
 20
120.83592224121094
 30
55.0
 11
150.76913452148438
 21
117.97512817382812
 31
55.0
  0
LINE
  8
0
 10
150.76913452148438
 20
117.97512817382812
 30
55.0
 11
150.47610473632812
 21
115.0
 31
55.0
  0
LINE
  8
0
 10
150.47610473632812
 20
115.0
 30
55.0
 11
150.76913452148438
 21
112.02487182617188
 31
55.0
  0
LINE
  8
0
 10
150.76913452148438
 20
112.02487182617188
 30
55.0
 11
151.63694763183594
 21
109.16407775878906
 31
55.0
  0
LINE
  8
0
 10
151.63694763183594
 20
109.16407775878906
 30
55.0
 11
153.04620361328125
 21
106.52755737304688
 31
55.0
  0
LINE
  8
0
 10
153.04620361328125
 20
106.52755737304688
 30
55.0
 11
154.94273376464844
 21
104.21662139892578
 31
55.0
  0
LINE
  8
0
 10
154.94273376464844
 20
104.21662139892578
 30
55.0
 11
157.253662109375
 21
102.3200912475586
 31
55.0
  0
LINE
  8
0
 10
157.253662109375
 20
102.3200912475586
 30
55.0
 11
159.89019775390625
 21
100.91083526611328
 31
55.0
  0
LINE
  8
0
 10
159.89019775390625
 20
100.91083526611328
 30
55.0
 11
162.7509765625
 21
100.04302978515625
 31
55.0
  0
LINE
  8
0
 10
162.7509765625
 20
100.04302978515625
 30
55.0
 11
165.72610473632812
 21
99.75
 31
55.0
  0
LINE
  8
0
 10
165.72610473632812
 20
99.75
 30
55.0
 11
168.70123291015625
 21
100.04302215576172
 31
55.0
  0
LINE
  8
0
 10
168.70123291015625
 20
100.04302215576172
 30
55.0
 11
171.56204223632812
 21
100.91083526611328
 31
55.0
  0
LINE
  8
0
 10
171.56204223632812
 20
100.91083526611328
 30
55.0
 11
174.19854736328125
 21
102.32008361816406
 31
55.0
  0
LINE
  8
0
 10
174.19854736328125
 20
102.32008361816406
 30
55.0
 11
176.50949096679688
 21
104.21662139892578
 31
55.0
  0
LINE
  8
0
 10
176.50949096679688
 20
104.21662139892578
 30
55.0
 11
178.40602111816406
 21
106.52755737304688
 31
55.0
  0
LINE
  8
0
 10
178.40602111816406
 20
106.52755737304688
 30
55.0
 11
179.81527709960938
 21
109.16407775878906
 31
55.0
  0
LINE
  8
0
 10
179.81527709960938
 20
109.16407775878906
 30
55.0
 11
180.68309020996094
 21
112.02487182617188
 31
55.0
  0
LINE
  8
0
 10
180.68309020996094
 20
112.02487182617188
 30
55.0
 11
180.97610473632812
 21
115.0
 31
55.0
  0
LINE
  8
0
 10
180.97610473632812
 20
115.0
 30
55.0
 11
180.68309020996094
 21
117.97512817382812
 31
55.0
  0
LINE
  8
0
 10
180.68309020996094
 20
117.97512817382812
 30
55.0
 11
179.81527709960938
 21
120.83592224121094
 31
55.0
  0
LINE
  8
0
 10
179.81527709960938
 20
120.83592224121094
 30
55.0
 11
178.40602111816406
 21
123.47244262695312
 31
55.0
  0
LINE
  8
0
 10
178.40602111816406
 20
123.47244262695312
 30
55.0
 11
176.50949096679688
 21
125.78337860107422
 31
55.0
  0
LINE
  8
0
 10
176.50949096679688
 20
125.78337860107422
 30
55.0
 11
174.1985626220703
 21
127.6799087524414
 31
55.0
  0
LINE
  8
0
 10
174.1985626220703
 20
127.6799087524414
 30
55.0
 11
171.56204223632812
 21
129.0891571044922
 31
55.0
  0
LINE
  8
0
 10
171.56204223632812
 20
129.0891571044922
 30
55.0
 11
168.70123291015625
 21
129.95697021484375
 31
55.0
  0
LINE
  8
0
 10
165.72610473632812
 20
130.25
 30
55.0
 11
168.70123291015625
 21
129.95697021484375
 31
55.0
  0
LINE
  8
0
 10
201.7261199951172
 20
130.25
 30
55.0
 11
198.75099182128906
 21
129.95697021484375
 31
55.0
  0
LINE
  8
0
 10
198.75099182128906
 20
129.95697021484375
 30
55.0
 11
195.89019775390625
 21
129.08917236328125
 31
55.0
  0
LINE
  8
0
 10
195.89019775390625
 20
129.08917236328125
 30
55.0
 11
193.25367736816406
 21
127.67991638183594
 31
55.0
  0
LINE
  8
0
 10
193.25367736816406
 20
127.67991638183594
 30
55.0
 11
190.9427490234375
 21
125.78337860107422
 31
55.0
  0
LINE
  8
0
 10
190.9427490234375
 20
125.78337860107422
 30
55.0
 11
189.04620361328125
 21
123.47245025634766
 31
55.0
  0
LINE
  8
0
 10
189.04620361328125
 20
123.47245025634766
 30
55.0
 11
187.636962890625
 21
120.83592224121094
 31
55.0
  0
LINE
  8
0
 10
187.636962890625
 20
120.83592224121094
 30
55.0
 11
186.76913452148438
 21
117.97512817382812
 31
55.0
  0
LINE
  8
0
 10
186.76913452148438
 20
117.97512817382812
 30
55.0
 11
186.4761199951172
 21
115.0
 31
55.0
  0
LINE
  8
0
 10
186.4761199951172
 20
115.0
 30
55.0
 11
186.76913452148438
 21
112.02487182617188
 31
55.0
  0
LINE
  8
0
 10
186.76913452148438
 20
112.02487182617188
 30
55.0
 11
187.636962890625
 21
109.16407775878906
 31
55.0
  0
LINE
  8
0
 10
187.636962890625
 20
109.16407775878906
 30
55.0
 11
189.04620361328125
 21
106.52755737304688
 31
55.0
  0
LINE
  8
0
 10
189.04620361328125
 20
106.52755737304688
 30
55.0
 11
190.9427490234375
 21
104.21662139892578
 31
55.0
  0
LINE
  8
0
 10
190.9427490234375
 20
104.21662139892578
 30
55.0
 11
193.253662109375
 21
102.3200912475586
 31
55.0
  0
LINE
  8
0
 10
193.253662109375
 20
102.3200912475586
 30
55.0
 11
195.89019775390625
 21
100.91083526611328
 31
55.0
  0
LINE
  8
0
 10
195.89019775390625
 20
100.91083526611328
 30
55.0
 11
198.75099182128906
 21
100.04302978515625
 31
55.0
  0
LINE
  8
0
 10
198.75099182128906
 20
100.04302978515625
 30
55.0
 11
201.7261199951172
 21
99.75
 31
55.0
  0
LINE
  8
0
 10
201.7261199951172
 20
99.75
 30
55.0
 11
204.7012481689453
 21
100.04302215576172
 31
55.0
  0
LINE
  8
0
 10
204.7012481689453
 20
100.04302215576172
 30
55.0
 11
207.56204223632812
 21
100.91083526611328
 31
55.0
  0
LINE
  8
0
 10
207.56204223632812
 20
100.91083526611328
 30
55.0
 11
210.1985626220703
 21
102.32008361816406
 31
55.0
  0
LINE
  8
0
 10
210.1985626220703
 20
102.32008361816406
 30
55.0
 11
212.50949096679688
 21
104.21662139892578
 31
55.0
  0
LINE
  8
0
 10
212.50949096679688
 20
104.21662139892578
 30
55.0
 11
214.40603637695312
 21
106.52755737304688
 31
55.0
  0
LINE
  8
0
 10
214.40603637695312
 20
106.52755737304688
 30
55.0
 11
215.81527709960938
 21
109.16407775878906
 31
55.0
  0
LINE
  8
0
 10
215.81527709960938
 20
109.16407775878906
 30
55.0
 11
216.68309020996094
 21
112.02487182617188
 31
55.0
  0
LINE
  8
0
 10
216.68309020996094
 20
112.02487182617188
 30
55.0
 11
216.9761199951172
 21
115.0
 31
55.0
  0
LINE
  8
0
 10
216.9761199951172
 20
115.0
 30
55.0
 11
216.68309020996094
 21
117.97512817382812
 31
55.0
  0
LINE
  8
0
 10
216.68309020996094
 20
117.97512817382812
 30
55.0
 11
215.81527709960938
 21
120.83592224121094
 31
55.0
  0
LINE
  8
0
 10
215.81527709960938
 20
120.83592224121094
 30
55.0
 11
214.40603637695312
 21
123.47244262695312
 31
55.0
  0
LINE
  8
0
 10
214.40603637695312
 20
123.47244262695312
 30
55.0
 11
212.50950622558594
 21
125.78337860107422
 31
55.0
  0
LINE
  8
0
 10
212.50950622558594
 20
125.78337860107422
 30
55.0
 11
210.1985626220703
 21
127.6799087524414
 31
55.0
  0
LINE
  8
0
 10
210.1985626220703
 20
127.6799087524414
 30
55.0
 11
207.56204223632812
 21
129.0891571044922
 31
55.0
  0
LINE
  8
0
 10
207.56204223632812
 20
129.0891571044922
 30
55.0
 11
204.7012481689453
 21
129.95697021484375
 31
55.0
  0
LINE
  8
0
 10
201.7261199951172
 20
130.25
 30
55.0
 11
204.7012481689453
 21
129.95697021484375
 31
55.0
  0
LINE
  8
0
 10
236.93621826171875
 20
122.75
 30
55.0
 11
233.96109008789062
 21
122.45697784423828
 31
55.0
  0
LINE
  8
0
 10
233.96109008789062
 20
122.45697784423828
 30
55.0
 11
231.1002960205078
 21
121.58916473388672
 31
55.0
  0
LINE
  8
0
 10
231.1002960205078
 20
121.58916473388672
 30
55.0
 11
228.46377563476562
 21
120.1799087524414
 31
55.0
  0
LINE
  8
0
 10
228.46377563476562
 20
120.1799087524414
 30
55.0
 11
226.15283203125
 21
118.28337860107422
 31
55.0
  0
LINE
  8
0
 10
226.15283203125
 20
118.28337860107422
 30
55.0
 11
224.2563018798828
 21
115.97244262695312
 31
55.0
  0
LINE
  8
0
 10
224.2563018798828
 20
115.97244262695312
 30
55.0
 11
222.84706115722656
 21
113.33592224121094
 31
55.0
  0
LINE
  8
0
 10
222.84706115722656
 20
113.33592224121094
 30
55.0
 11
221.979248046875
 21
110.47512817382812
 31
55.0
  0
LINE
  8
0
 10
221.979248046875
 20
110.47512817382812
 30
55.0
 11
221.68621826171875
 21
107.5
 31
55.0
  0
LINE
  8
0
 10
221.68621826171875
 20
107.5
 30
55.0
 11
221.979248046875
 21
104.52487182617188
 31
55.0
  0
LINE
  8
0
 10
221.979248046875
 20
104.52487182617188
 30
55.0
 11
222.84706115722656
 21
101.66407775878906
 31
55.0
  0
LINE
  8
0
 10
222.84706115722656
 20
101.66407775878906
 30
55.0
 11
224.2563018798828
 21
99.02755737304688
 31
55.0
  0
LINE
  8
0
 10
224.2563018798828
 20
99.02755737304688
 30
55.0
 11
226.15284729003906
 21
96.71662139892578
 31
55.0
  0
LINE
  8
0
 10
226.15284729003906
 20
96.71662139892578
 30
55.0
 11
228.46377563476562
 21
94.82008361816406
 31
55.0
  0
LINE
  8
0
 10
228.46377563476562
 20
94.82008361816406
 30
55.0
 11
231.1002960205078
 21
93.41083526611328
 31
55.0
  0
LINE
  8
0
 10
231.1002960205078
 20
93.41083526611328
 30
55.0
 11
233.96109008789062
 21
92.54302215576172
 31
55.0
  0
LINE
  8
0
 10
233.96109008789062
 20
92.54302215576172
 30
55.0
 11
236.93621826171875
 21
92.25
 31
55.0
  0
LINE
  8
0
 10
236.93621826171875
 20
92.25
 30
55.0
 11
239.91134643554688
 21
92.54302978515625
 31
55.0
  0
LINE
  8
0
 10
239.91134643554688
 20
92.54302978515625
 30
55.0
 11
242.7721405029297
 21
93.41084289550781
 31
55.0
  0
LINE
  8
0
 10
242.7721405029297
 20
93.41084289550781
 30
55.0
 11
245.40866088867188
 21
94.8200912475586
 31
55.0
  0
LINE
  8
0
 10
245.40866088867188
 20
94.8200912475586
 30
55.0
 11
247.7196044921875
 21
96.71662139892578
 31
55.0
  0
LINE
  8
0
 10
247.7196044921875
 20
96.71662139892578
 30
55.0
 11
249.6161346435547
 21
99.02755737304688
 31
55.0
  0
LINE
  8
0
 10
249.6161346435547
 20
99.02755737304688
 30
55.0
 11
251.02537536621094
 21
101.66407775878906
 31
55.0
  0
LINE
  8
0
 10
251.02537536621094
 20
101.66407775878906
 30
55.0
 11
251.8931884765625
 21
104.52487182617188
 31
55.0
  0
LINE
  8
0
 10
251.8931884765625
 20
104.52487182617188
 30
55.0
 11
252.18621826171875
 21
107.5
 31
55.0
  0
LINE
  8
0
 10
252.18621826171875
 20
107.5
 30
55.0
 11
251.8931884765625
 21
110.47512817382812
 31
55.0
  0
LINE
  8
0
 10
251.8931884765625
 20
110.47512817382812
 30
55.0
 11
251.02537536621094
 21
113.33592224121094
 31
55.0
  0
LINE
  8
0
 10
251.02537536621094
 20
113.33592224121094
 30
55.0
 11
249.6161346435547
 21
115.97245025634766
 31
55.0
  0
LINE
  8
0
 10
249.6161346435547
 20
115.97245025634766
 30
55.0
 11
247.71958923339844
 21
118.28337860107422
 31
55.0
  0
LINE
  8
0
 10
247.71958923339844
 20
118.28337860107422
 30
55.0
 11
245.40866088867188
 21
120.17991638183594
 31
55.0
  0
LINE
  8
0
 10
245.40866088867188
 20
120.17991638183594
 30
55.0
 11
242.7721405029297
 21
121.58916473388672
 31
55.0
  0
LINE
  8
0
 10
242.7721405029297
 20
121.58916473388672
 30
55.0
 11
239.91134643554688
 21
122.45697784423828
 31
55.0
  0
LINE
  8
0
 10
236.93621826171875
 20
122.75
 30
55.0
 11
239.91134643554688
 21
122.45697784423828
 31
55.0
  0
LINE
  8
0
 10
133.0
 20
151.25
 30
55.0
 11
130.02487182617188
 21
150.95697021484375
 31
55.0
  0
LINE
  8
0
 10
130.02487182617188
 20
150.95697021484375
 30
55.0
 11
127.16407775878906
 21
150.08917236328125
 31
55.0
  0
LINE
  8
0
 10
127.16407775878906
 20
150.08917236328125
 30
55.0
 11
124.52755737304688
 21
148.67991638183594
 31
55.0
  0
LINE
  8
0
 10
124.52755737304688
 20
148.67991638183594
 30
55.0
 11
122.21662902832031
 21
146.78338623046875
 31
55.0
  0
LINE
  8
0
 10
122.21662902832031
 20
146.78338623046875
 30
55.0
 11
120.3200912475586
 21
144.47244262695312
 31
55.0
  0
LINE
  8
0
 10
120.3200912475586
 20
144.47244262695312
 30
55.0
 11
118.91084289550781
 21
141.83592224121094
 31
55.0
  0
LINE
  8
0
 10
118.91084289550781
 20
141.83592224121094
 30
55.0
 11
118.04302978515625
 21
138.97512817382812
 31
55.0
  0
LINE
  8
0
 10
118.04302978515625
 20
138.97512817382812
 30
55.0
 11
117.75
 21
136.0
 31
55.0
  0
LINE
  8
0
 10
117.75
 20
136.0
 30
55.0
 11
118.04302978515625
 21
133.02487182617188
 31
55.0
  0
LINE
  8
0
 10
118.04302978515625
 20
133.02487182617188
 30
55.0
 11
118.91084289550781
 21
130.16407775878906
 31
55.0
  0
LINE
  8
0
 10
118.91084289550781
 20
130.16407775878906
 30
55.0
 11
120.3200912475586
 21
127.52755737304688
 31
55.0
  0
LINE
  8
0
 10
120.3200912475586
 20
127.52755737304688
 30
55.0
 11
122.21662902832031
 21
125.21662139892578
 31
55.0
  0
LINE
  8
0
 10
122.21662902832031
 20
125.21662139892578
 30
55.0
 11
124.52755737304688
 21
123.3200912475586
 31
55.0
  0
LINE
  8
0
 10
124.52755737304688
 20
123.3200912475586
 30
55.0
 11
127.16407775878906
 21
121.91083526611328
 31
55.0
  0
LINE
  8
0
 10
127.16407775878906
 20
121.91083526611328
 30
55.0
 11
130.02487182617188
 21
121.04302978515625
 31
55.0
  0
LINE
  8
0
 10
130.02487182617188
 20
121.04302978515625
 30
55.0
 11
133.0
 21
120.75
 31
55.0
  0
LINE
  8
0
 10
133.0
 20
120.75
 30
55.0
 11
135.97512817382812
 21
121.04302978515625
 31
55.0
  0
LINE
  8
0
 10
135.97512817382812
 20
121.04302978515625
 30
55.0
 11
138.8359375
 21
121.91084289550781
 31
55.0
  0
LINE
  8
0
 10
138.8359375
 20
121.91084289550781
 30
55.0
 11
141.47244262695312
 21
123.3200912475586
 31
55.0
  0
LINE
  8
0
 10
141.47244262695312
 20
123.3200912475586
 30
55.0
 11
143.78338623046875
 21
125.21662902832031
 31
55.0
  0
LINE
  8
0
 10
143.78338623046875
 20
125.21662902832031
 30
55.0
 11
145.67991638183594
 21
127.52755737304688
 31
55.0
  0
LINE
  8
0
 10
145.67991638183594
 20
127.52755737304688
 30
55.0
 11
147.08917236328125
 21
130.16407775878906
 31
55.0
  0
LINE
  8
0
 10
147.08917236328125
 20
130.16407775878906
 30
55.0
 11
147.95697021484375
 21
133.02487182617188
 31
55.0
  0
LINE
  8
0
 10
147.95697021484375
 20
133.02487182617188
 30
55.0
 11
148.25
 21
136.0
 31
55.0
  0
LINE
  8
0
 10
148.25
 20
136.0
 30
55.0
 11
147.95697021484375
 21
138.97512817382812
 31
55.0
  0
LINE
  8
0
 10
147.95697021484375
 20
138.97512817382812
 30
55.0
 11
147.08917236328125
 21
141.83592224121094
 31
55.0
  0
LINE
  8
0
 10
147.08917236328125
 20
141.83592224121094
 30
55.0
 11
145.67991638183594
 21
144.47244262695312
 31
55.0
  0
LINE
  8
0
 10
145.67991638183594
 20
144.47244262695312
 30
55.0
 11
143.78338623046875
 21
146.78338623046875
 31
55.0
  0
LINE
  8
0
 10
143.78338623046875
 20
146.78338623046875
 30
55.0
 11
141.47244262695312
 21
148.67991638183594
 31
55.0
  0
LINE
  8
0
 10
141.47244262695312
 20
148.67991638183594
 30
55.0
 11
138.83592224121094
 21
150.08917236328125
 31
55.0
  0
LINE
  8
0
 10
138.83592224121094
 20
150.08917236328125
 30
55.0
 11
135.97512817382812
 21
150.95697021484375
 31
55.0
  0
LINE
  8
0
 10
133.0
 20
151.25
 30
55.0
 11
135.97512817382812
 21
150.95697021484375
 31
55.0
  0
LINE
  8
0
 10
165.72610473632812
 20
166.25
 30
55.0
 11
162.7509765625
 21
165.95697021484375
 31
55.0
  0
LINE
  8
0
 10
162.7509765625
 20
165.95697021484375
 30
55.0
 11
159.89019775390625
 21
165.08917236328125
 31
55.0
  0
LINE
  8
0
 10
159.89019775390625
 20
165.08917236328125
 30
55.0
 11
157.253662109375
 21
163.67991638183594
 31
55.0
  0
LINE
  8
0
 10
157.253662109375
 20
163.67991638183594
 30
55.0
 11
154.94273376464844
 21
161.78338623046875
 31
55.0
  0
LINE
  8
0
 10
154.94273376464844
 20
161.78338623046875
 30
55.0
 11
153.04620361328125
 21
159.47244262695312
 31
55.0
  0
LINE
  8
0
 10
153.04620361328125
 20
159.47244262695312
 30
55.0
 11
151.63694763183594
 21
156.83592224121094
 31
55.0
  0
LINE
  8
0
 10
151.63694763183594
 20
156.83592224121094
 30
55.0
 11
150.76913452148438
 21
153.97512817382812
 31
55.0
  0
LINE
  8
0
 10
150.76913452148438
 20
153.97512817382812
 30
55.0
 11
150.47610473632812
 21
151.0
 31
55.0
  0
LINE
  8
0
 10
150.47610473632812
 20
151.0
 30
55.0
 11
150.76913452148438
 21
148.02487182617188
 31
55.0
  0
LINE
  8
0
 10
150.76913452148438
 20
148.02487182617188
 30
55.0
 11
151.63694763183594
 21
145.16407775878906
 31
55.0
  0
LINE
  8
0
 10
151.63694763183594
 20
145.16407775878906
 30
55.0
 11
153.04620361328125
 21
142.52755737304688
 31
55.0
  0
LINE
  8
0
 10
153.04620361328125
 20
142.52755737304688
 30
55.0
 11
154.94273376464844
 21
140.21661376953125
 31
55.0
  0
LINE
  8
0
 10
154.94273376464844
 20
140.21661376953125
 30
55.0
 11
157.253662109375
 21
138.32008361816406
 31
55.0
  0
LINE
  8
0
 10
157.253662109375
 20
138.32008361816406
 30
55.0
 11
159.89019775390625
 21
136.9108428955078
 31
55.0
  0
LINE
  8
0
 10
159.89019775390625
 20
136.9108428955078
 30
55.0
 11
162.7509765625
 21
136.04302978515625
 31
55.0
  0
LINE
  8
0
 10
162.7509765625
 20
136.04302978515625
 30
55.0
 11
165.72610473632812
 21
135.75
 31
55.0
  0
LINE
  8
0
 10
165.72610473632812
 20
135.75
 30
55.0
 11
168.70123291015625
 21
136.04302978515625
 31
55.0
  0
LINE
  8
0
 10
168.70123291015625
 20
136.04302978515625
 30
55.0
 11
171.56204223632812
 21
136.91082763671875
 31
55.0
  0
LINE
  8
0
 10
171.56204223632812
 20
136.91082763671875
 30
55.0
 11
174.19854736328125
 21
138.32008361816406
 31
55.0
  0
LINE
  8
0
 10
174.19854736328125
 20
138.32008361816406
 30
55.0
 11
176.50949096679688
 21
140.21661376953125
 31
55.0
  0
LINE
  8
0
 10
176.50949096679688
 20
140.21661376953125
 30
55.0
 11
178.40602111816406
 21
142.52755737304688
 31
55.0
  0
LINE
  8
0
 10
178.40602111816406
 20
142.52755737304688
 30
55.0
 11
179.81527709960938
 21
145.16407775878906
 31
55.0
  0
LINE
  8
0
 10
179.81527709960938
 20
145.16407775878906
 30
55.0
 11
180.68309020996094
 21
148.02487182617188
 31
55.0
  0
LINE
  8
0
 10
180.68309020996094
 20
148.02487182617188
 30
55.0
 11
180.97610473632812
 21
151.0
 31
55.0
  0
LINE
  8
0
 10
180.97610473632812
 20
151.0
 30
55.0
 11
180.68309020996094
 21
153.97512817382812
 31
55.0
  0
LINE
  8
0
 10
180.68309020996094
 20
153.97512817382812
 30
55.0
 11
179.81527709960938
 21
156.83592224121094
 31
55.0
  0
LINE
  8
0
 10
179.81527709960938
 20
156.83592224121094
 30
55.0
 11
178.40602111816406
 21
159.47244262695312
 31
55.0
  0
LINE
  8
0
 10
178.40602111816406
 20
159.47244262695312
 30
55.0
 11
176.50949096679688
 21
161.78338623046875
 31
55.0
  0
LINE
  8
0
 10
176.50949096679688
 20
161.78338623046875
 30
55.0
 11
174.1985626220703
 21
163.67990112304688
 31
55.0
  0
LINE
  8
0
 10
174.1985626220703
 20
163.67990112304688
 30
55.0
 11
171.56204223632812
 21
165.08917236328125
 31
55.0
  0
LINE
  8
0
 10
171.56204223632812
 20
165.08917236328125
 30
55.0
 11
168.70123291015625
 21
165.95697021484375
 31
55.0
  0
LINE
  8
0
 10
165.72610473632812
 20
166.25
 30
55.0
 11
168.70123291015625
 21
165.95697021484375
 31
55.0
  0
LINE
  8
0
 10
201.7261199951172
 20
166.25
 30
55.0
 11
198.75099182128906
 21
165.95697021484375
 31
55.0
  0
LINE
  8
0
 10
198.75099182128906
 20
165.95697021484375
 30
55.0
 11
195.89019775390625
 21
165.08917236328125
 31
55.0
  0
LINE
  8
0
 10
195.89019775390625
 20
165.08917236328125
 30
55.0
 11
193.25367736816406
 21
163.67991638183594
 31
55.0
  0
LINE
  8
0
 10
193.25367736816406
 20
163.67991638183594
 30
55.0
 11
190.9427490234375
 21
161.78338623046875
 31
55.0
  0
LINE
  8
0
 10
190.9427490234375
 20
161.78338623046875
 30
55.0
 11
189.04620361328125
 21
159.47244262695312
 31
55.0
  0
LINE
  8
0
 10
189.04620361328125
 20
159.47244262695312
 30
55.0
 11
187.636962890625
 21
156.83592224121094
 31
55.0
  0
LINE
  8
0
 10
187.636962890625
 20
156.83592224121094
 30
55.0
 11
186.76913452148438
 21
153.97512817382812
 31
55.0
  0
LINE
  8
0
 10
186.76913452148438
 20
153.97512817382812
 30
55.0
 11
186.4761199951172
 21
151.0
 31
55.0
  0
LINE
  8
0
 10
186.4761199951172
 20
151.0
 30
55.0
 11
186.76913452148438
 21
148.02487182617188
 31
55.0
  0
LINE
  8
0
 10
186.76913452148438
 20
148.02487182617188
 30
55.0
 11
187.636962890625
 21
145.16407775878906
 31
55.0
  0
LINE
  8
0
 10
187.636962890625
 20
145.16407775878906
 30
55.0
 11
189.04620361328125
 21
142.52755737304688
 31
55.0
  0
LINE
  8
0
 10
189.04620361328125
 20
142.52755737304688
 30
55.0
 11
190.9427490234375
 21
140.21661376953125
 31
55.0
  0
LINE
  8
0
 10
190.9427490234375
 20
140.21661376953125
 30
55.0
 11
193.253662109375
 21
138.32008361816406
 31
55.0
  0
LINE
  8
0
 10
193.253662109375
 20
138.32008361816406
 30
55.0
 11
195.89019775390625
 21
136.9108428955078
 31
55.0
  0
LINE
  8
0
 10
195.89019775390625
 20
136.9108428955078
 30
55.0
 11
198.75099182128906
 21
136.04302978515625
 31
55.0
  0
LINE
  8
0
 10
198.75099182128906
 20
136.04302978515625
 30
55.0
 11
201.7261199951172
 21
135.75
 31
55.0
  0
LINE
  8
0
 10
201.7261199951172
 20
135.75
 30
55.0
 11
204.7012481689453
 21
136.04302978515625
 31
55.0
  0
LINE
  8
0
 10
204.7012481689453
 20
136.04302978515625
 30
55.0
 11
207.56204223632812
 21
136.91082763671875
 31
55.0
  0
LINE
  8
0
 10
207.56204223632812
 20
136.91082763671875
 30
55.0
 11
210.1985626220703
 21
138.32008361816406
 31
55.0
  0
LINE
  8
0
 10
210.1985626220703
 20
138.32008361816406
 30
55.0
 11
212.50949096679688
 21
140.21661376953125
 31
55.0
  0
LINE
  8
0
 10
212.50949096679688
 20
140.21661376953125
 30
55.0
 11
214.40603637695312
 21
142.52755737304688
 31
55.0
  0
LINE
  8
0
 10
214.40603637695312
 20
142.52755737304688
 30
55.0
 11
215.81527709960938
 21
145.16407775878906
 31
55.0
  0
LINE
  8
0
 10
215.81527709960938
 20
145.16407775878906
 30
55.0
 11
216.68309020996094
 21
148.02487182617188
 31
55.0
  0
LINE
  8
0
 10
216.68309020996094
 20
148.02487182617188
 30
55.0
 11
216.9761199951172
 21
151.0
 31
55.0
  0
LINE
  8
0
 10
216.9761199951172
 20
151.0
 30
55.0
 11
216.68309020996094
 21
153.97512817382812
 31
55.0
  0
LINE
  8
0
 10
216.68309020996094
 20
153.97512817382812
 30
55.0
 11
215.81527709960938
 21
156.83592224121094
 31
55.0
  0
LINE
  8
0
 10
215.81527709960938
 20
156.83592224121094
 30
55.0
 11
214.40603637695312
 21
159.47244262695312
 31
55.0
  0
LINE
  8
0
 10
214.40603637695312
 20
159.47244262695312
 30
55.0
 11
212.50950622558594
 21
161.78338623046875
 31
55.0
  0
LINE
  8
0
 10
212.50950622558594
 20
161.78338623046875
 30
55.0
 11
210.1985626220703
 21
163.67990112304688
 31
55.0
  0
LINE
  8
0
 10
210.1985626220703
 20
163.67990112304688
 30
55.0
 11
207.56204223632812
 21
165.08917236328125
 31
55.0
  0
LINE
  8
0
 10
207.56204223632812
 20
165.08917236328125
 30
55.0
 11
204.7012481689453
 21
165.95697021484375
 31
55.0
  0
LINE
  8
0
 10
201.7261199951172
 20
166.25
 30
55.0
 11
204.7012481689453
 21
165.95697021484375
 31
55.0
  0
LINE
  8
0
 10
236.93621826171875
 20
158.75
 30
55.0
 11
233.96109008789062
 21
158.45697021484375
 31
55.0
  0
LINE
  8
0
 10
233.96109008789062
 20
158.45697021484375
 30
55.0
 11
231.1002960205078
 21
157.5891571044922
 31
55.0
  0
LINE
  8
0
 10
231.1002960205078
 20
157.5891571044922
 30
55.0
 11
228.46377563476562
 21
156.17990112304688
 31
55.0
  0
LINE
  8
0
 10
228.46377563476562
 20
156.17990112304688
 30
55.0
 11
226.15283203125
 21
154.28338623046875
 31
55.0
  0
LINE
  8
0
 10
226.15283203125
 20
154.28338623046875
 30
55.0
 11
224.2563018798828
 21
151.97244262695312
 31
55.0
  0
LINE
  8
0
 10
224.2563018798828
 20
151.97244262695312
 30
55.0
 11
222.84706115722656
 21
149.33592224121094
 31
55.0
  0
LINE
  8
0
 10
222.84706115722656
 20
149.33592224121094
 30
55.0
 11
221.979248046875
 21
146.47512817382812
 31
55.0
  0
LINE
  8
0
 10
221.979248046875
 20
146.47512817382812
 30
55.0
 11
221.68621826171875
 21
143.5
 31
55.0
  0
LINE
  8
0
 10
221.68621826171875
 20
143.5
 30
55.0
 11
221.979248046875
 21
140.52487182617188
 31
55.0
  0
LINE
  8
0
 10
221.979248046875
 20
140.52487182617188
 30
55.0
 11
222.84706115722656
 21
137.66407775878906
 31
55.0
  0
LINE
  8
0
 10
222.84706115722656
 20
137.66407775878906
 30
55.0
 11
224.2563018798828
 21
135.02755737304688
 31
55.0
  0
LINE
  8
0
 10
224.2563018798828
 20
135.02755737304688
 30
55.0
 11
226.15284729003906
 21
132.71661376953125
 31
55.0
  0
LINE
  8
0
 10
226.15284729003906
 20
132.71661376953125
 30
55.0
 11
228.46377563476562
 21
130.82008361816406
 31
55.0
  0
LINE
  8
0
 10
228.46377563476562
 20
130.82008361816406
 30
55.0
 11
231.1002960205078
 21
129.4108428955078
 31
55.0
  0
LINE
  8
0
 10
231.1002960205078
 20
129.4108428955078
 30
55.0
 11
233.96109008789062
 21
128.54302978515625
 31
55.0
  0
LINE
  8
0
 10
233.96109008789062
 20
128.54302978515625
 30
55.0
 11
236.93621826171875
 21
128.25
 31
55.0
  0
LINE
  8
0
 10
236.93621826171875
 20
128.25
 30
55.0
 11
239.91134643554688
 21
128.54302978515625
 31
55.0
  0
LINE
  8
0
 10
239.91134643554688
 20
128.54302978515625
 30
55.0
 11
242.7721405029297
 21
129.4108428955078
 31
55.0
  0
LINE
  8
0
 10
242.7721405029297
 20
129.4108428955078
 30
55.0
 11
245.40866088867188
 21
130.82008361816406
 31
55.0
  0
LINE
  8
0
 10
245.40866088867188
 20
130.82008361816406
 30
55.0
 11
247.7196044921875
 21
132.7166290283203
 31
55.0
  0
LINE
  8
0
 10
247.7196044921875
 20
132.7166290283203
 30
55.0
 11
249.6161346435547
 21
135.02755737304688
 31
55.0
  0
LINE
  8
0
 10
249.6161346435547
 20
135.02755737304688
 30
55.0
 11
251.02537536621094
 21
137.66407775878906
 31
55.0
  0
LINE
  8
0
 10
251.02537536621094
 20
137.66407775878906
 30
55.0
 11
251.8931884765625
 21
140.52487182617188
 31
55.0
  0
LINE
  8
0
 10
251.8931884765625
 20
140.52487182617188
 30
55.0
 11
252.18621826171875
 21
143.5
 31
55.0
  0
LINE
  8
0
 10
252.18621826171875
 20
143.5
 30
55.0
 11
251.8931884765625
 21
146.47512817382812
 31
55.0
  0
LINE
  8
0
 10
251.8931884765625
 20
146.47512817382812
 30
55.0
 11
251.02537536621094
 21
149.33592224121094
 31
55.0
  0
LINE
  8
0
 10
251.02537536621094
 20
149.33592224121094
 30
55.0
 11
249.6161346435547
 21
151.97244262695312
 31
55.0
  0
LINE
  8
0
 10
249.6161346435547
 20
151.97244262695312
 30
55.0
 11
247.71958923339844
 21
154.28338623046875
 31
55.0
  0
LINE
  8
0
 10
247.71958923339844
 20
154.28338623046875
 30
55.0
 11
245.40866088867188
 21
156.17991638183594
 31
55.0
  0
LINE
  8
0
 10
245.40866088867188
 20
156.17991638183594
 30
55.0
 11
242.7721405029297
 21
157.58917236328125
 31
55.0
  0
LINE
  8
0
 10
242.7721405029297
 20
157.58917236328125
 30
55.0
 11
239.91134643554688
 21
158.45697021484375
 31
55.0
  0
LINE
  8
0
 10
236.93621826171875
 20
158.75
 30
55.0
 11
239.91134643554688
 21
158.45697021484375
 31
55.0
  0
LINE
  8
0
 10
70.0
 20
129.25
 30
55.0
 11
67.80523681640625
 21
129.03382873535156
 31
55.0
  0
LINE
  8
0
 10
67.80523681640625
 20
129.03382873535156
 30
55.0
 11
65.69480895996094
 21
128.39364624023438
 31
55.0
  0
LINE
  8
0
 10
65.69480895996094
 20
128.39364624023438
 30
55.0
 11
63.74983596801758
 21
127.35403442382812
 31
55.0
  0
LINE
  8
0
 10
63.74983596801758
 20
127.35403442382812
 30
55.0
 11
62.045047760009766
 21
125.95494842529297
 31
55.0
  0
LINE
  8
0
 10
62.045047760009766
 20
125.95494842529297
 30
55.0
 11
60.645965576171875
 21
124.25016784667969
 31
55.0
  0
LINE
  8
0
 10
60.645965576171875
 20
124.25016784667969
 30
55.0
 11
59.606353759765625
 21
122.30519104003906
 31
55.0
  0
LINE
  8
0
 10
59.606353759765625
 20
122.30519104003906
 30
55.0
 11
58.966163635253906
 21
120.19476318359375
 31
55.0
  0
LINE
  8
0
 10
58.966163635253906
 20
120.19476318359375
 30
55.0
 11
58.75
 21
118.0
 31
55.0
  0
LINE
  8
0
 10
58.75
 20
118.0
 30
55.0
 11
58.966163635253906
 21
115.80523681640625
 31
55.0
  0
LINE
  8
0
 10
58.966163635253906
 20
115.80523681640625
 30
55.0
 11
59.606353759765625
 21
113.69480895996094
 31
55.0
  0
LINE
  8
0
 10
59.606353759765625
 20
113.69480895996094
 30
55.0
 11
60.645965576171875
 21
111.74983215332031
 31
55.0
  0
LINE
  8
0
 10
60.645965576171875
 20
111.74983215332031
 30
55.0
 11
62.04505157470703
 21
110.04505157470703
 31
55.0
  0
LINE
  8
0
 10
62.04505157470703
 20
110.04505157470703
 30
55.0
 11
63.74983596801758
 21
108.64596557617188
 31
55.0
  0
LINE
  8
0
 10
63.74983596801758
 20
108.64596557617188
 30
55.0
 11
65.69480895996094
 21
107.60635375976562
 31
55.0
  0
LINE
  8
0
 10
65.69480895996094
 20
107.60635375976562
 30
55.0
 11
67.80523681640625
 21
106.9661636352539
 31
55.0
  0
LINE
  8
0
 10
67.80523681640625
 20
106.9661636352539
 30
55.0
 11
70.0
 21
106.75
 31
55.0
  0
LINE
  8
0
 10
70.0
 20
106.75
 30
55.0
 11
72.19477081298828
 21
106.9661636352539
 31
55.0
  0
LINE
  8
0
 10
72.19477081298828
 20
106.9661636352539
 30
55.0
 11
74.30519104003906
 21
107.60635375976562
 31
55.0
  0
LINE
  8
0
 10
74.30519104003906
 20
107.60635375976562
 30
55.0
 11
76.25016784667969
 21
108.64596557617188
 31
55.0
  0
LINE
  8
0
 10
76.25016784667969
 20
108.64596557617188
 30
55.0
 11
77.9549560546875
 21
110.04505157470703
 31
55.0
  0
LINE
  8
0
 10
77.9549560546875
 20
110.04505157470703
 30
55.0
 11
79.35403442382812
 21
111.74983215332031
 31
55.0
  0
LINE
  8
0
 10
79.35403442382812
 20
111.74983215332031
 30
55.0
 11
80.39364624023438
 21
113.69480895996094
 31
55.0
  0
LINE
  8
0
 10
80.39364624023438
 20
113.69480895996094
 30
55.0
 11
81.0338363647461
 21
115.80523681640625
 31
55.0
  0
LINE
  8
0
 10
81.0338363647461
 20
115.80523681640625
 30
55.0
 11
81.25
 21
118.0
 31
55.0
  0
LINE
  8
0
 10
81.25
 20
118.0
 30
55.0
 11
81.0338363647461
 21
120.19476318359375
 31
55.0
  0
LINE
  8
0
 10
81.0338363647461
 20
120.19476318359375
 30
55.0
 11
80.39364624023438
 21
122.30519104003906
 31
55.0
  0
LINE
  8
0
 10
80.39364624023438
 20
122.30519104003906
 30
55.0
 11
79.35403442382812
 21
124.25016784667969
 31
55.0
  0
LINE
  8
0
 10
79.35403442382812
 20
124.25016784667969
 30
55.0
 11
77.95494842529297
 21
125.95494842529297
 31
55.0
  0
LINE
  8
0
 10
77.95494842529297
 20
125.95494842529297
 30
55.0
 11
76.25016784667969
 21
127.35403442382812
 31
55.0
  0
LINE
  8
0
 10
76.25016784667969
 20
127.35403442382812
 30
55.0
 11
74.30519104003906
 21
128.39364624023438
 31
55.0
  0
LINE
  8
0
 10
74.30519104003906
 20
128.39364624023438
 30
55.0
 11
72.19476318359375
 21
129.03382873535156
 31
55.0
  0
LINE
  8
0
 10
70.0
 20
129.25
 30
55.0
 11
72.19476318359375
 21
129.03382873535156
 31
55.0
  0
ENDSEC
  0
EOF
