  0
SECTION
  2
HEADER
  9
$ACADVER
  1
AC1009
  9
$INSBASE
 10
0.0
 20
0.0
 30
0.0
  9
$EXTMIN
 10
0.0
 20
0.0
 30
0.0
  9
$EXTMAX
 10
0.0
 20
0.0
 30
0.0
  0
ENDSEC
  0
SECTION
  2
TABLES
  0
TABLE
  2
VPORT
 70
1
  0
VPORT
  2
*ACTIVE
 70
0
 10
0.0
 20
0.0
 11
1.0
 21
1.0
 12
-5.0
 22
1.0
 13
0.0
 23
0.0
 14
0.1
 24
0.1
 15
0.1
 25
0.1
 16
0.0
 26
0.0
 36
1.0
 17
0.0
 27
0.0
 37
0.0
 40
10.0
 41
1.0
 42
50.0
 43
0.0
 44
0.0
 50
0.0
 51
0.0
 71
0
 72
100
 73
1
 74
1
 75
0
 76
0
 77
0
 78
0
  0
ENDTAB
  0
TABLE
  2
LTYPE
 70
8
  0
LTYPE
  2
CONTINUOUS
 70
0
  3
Solid line
 72
65
 73
0
 40
0.0
  0
LTYPE
  2
DOT
 70
0
  3
. . . . . . .
 72
65
 73
2
 40
0.25
 49
0.0
 49
-0.25
  0
LTYPE
  2
DASHED
 70
0
  3
__ __ __ __ __
 72
65
 73
2
 40
0.8
 49
0.5
 49
-0.3
  0
LTYPE
  2
DASHDOT
 70
0
  3
__ . __ . __ .
 72
65
 73
4
 40
1.0
 49
0.5
 49
-0.25
 49
0.0
 49
-0.25
  0
LTYPE
  2
DIVIDE
 70
0
  3
____ . . ____ . . 
 72
65
 73
6
 40
1.25
 49
0.5
 49
-0.25
 49
0.0
 49
-0.25
 49
0.0
 49
-0.25
  0
LTYPE
  2
BORDER
 70
0
  3
__ __ . __ __ . 
 72
65
 73
6
 40
1.75
 49
0.5
 49
-0.25
 49
0.5
 49
-0.25
 49
0.0
 49
-0.25
  0
LTYPE
  2
HIDDEN
 70
0
  3
__ __ __ __ __
 72
65
 73
2
 40
0.4
 49
0.25
 49
-0.25
  0
LTYPE
  2
CENTER
 70
0
  3
____ _ ____ _ __
 72
65
 73
4
 40
2.0
 49
1.25
 49
-0.25
 49
0.25
 49
-0.25
  0
ENDTAB
  0
TABLE
  2
LAYER
 70
1
  0
LAYER
  2
PYDXF
 70
64
 62
7
  6
continuous
  0
ENDTAB
  0
TABLE
  2
STYLE
 70
1
  0
STYLE
  2
STANDARD
 70
0
 40
0
 41
1.0
 50
0.0
 71
0
 42
1
 3
ARIAL.TTF
 4

  0
ENDTAB
  0
TABLE
  2
VIEW
 70
1
  0
VIEW
  2
BF_TOPVIEW
 70
0
 40
120.0
 10
0.0
 20
0.0
 41
200.0
 11
0.0
 21
0.0
 31
1.0
 12
0.0
 22
0.0
 32
0.0
 42
50.0
 43
0.0
 44
0.0
 50
0.0
 71
0
  0
ENDTAB
  0
ENDSEC
  0
SECTION
  2
BLOCKS
  0
ENDSEC
  0
SECTION
  2
ENTITIES
  0
LINE
  8
0
 10
10.0
 20
30.142860412597656
 30
55.0
 11
10.0
 21
200.00001525878906
 31
55.0
  0
LINE
  8
0
 10
26.875
 20
188.07858276367188
 30
55.0
 11
26.5531005859375
 21
188.04689025878906
 31
55.0
  0
LINE
  8
0
 10
26.5531005859375
 20
188.04689025878906
 30
55.0
 11
26.243572235107422
 21
187.95298767089844
 31
55.0
  0
LINE
  8
0
 10
26.243572235107422
 20
187.95298767089844
 30
55.0
 11
25.958309173583984
 21
187.80050659179688
 31
55.0
  0
LINE
  8
0
 10
25.958309173583984
 20
187.80050659179688
 30
55.0
 11
25.708274841308594
 21
187.59532165527344
 31
55.0
  0
LINE
  8
0
 10
25.708274841308594
 20
187.59532165527344
 30
55.0
 11
25.503074645996094
 21
187.34527587890625
 31
55.0
  0
LINE
  8
0
 10
25.503074645996094
 20
187.34527587890625
 30
55.0
 11
25.35059928894043
 21
187.0600128173828
 31
55.0
  0
LINE
  8
0
 10
25.35059928894043
 20
187.0600128173828
 30
55.0
 11
25.256704330444336
 21
186.75048828125
 31
55.0
  0
LINE
  8
0
 10
25.256704330444336
 20
186.75048828125
 30
55.0
 11
25.225000381469727
 21
186.4285888671875
 31
55.0
  0
LINE
  8
0
 10
25.225000381469727
 20
186.4285888671875
 30
55.0
 11
25.256704330444336
 21
186.106689453125
 31
55.0
  0
LINE
  8
0
 10
25.256704330444336
 20
186.106689453125
 30
55.0
 11
25.35059928894043
 21
185.7971649169922
 31
55.0
  0
LINE
  8
0
 10
25.35059928894043
 20
185.7971649169922
 30
55.0
 11
25.503074645996094
 21
185.51190185546875
 31
55.0
  0
LINE
  8
0
 10
25.503074645996094
 20
185.51190185546875
 30
55.0
 11
25.708274841308594
 21
185.26185607910156
 31
55.0
  0
LINE
  8
0
 10
25.708274841308594
 20
185.26185607910156
 30
55.0
 11
25.958309173583984
 21
185.05667114257812
 31
55.0
  0
LINE
  8
0
 10
25.958309173583984
 20
185.05667114257812
 30
55.0
 11
26.243572235107422
 21
184.90419006347656
 31
55.0
  0
LINE
  8
0
 10
26.243572235107422
 20
184.90419006347656
 30
55.0
 11
26.5531005859375
 21
184.81028747558594
 31
55.0
  0
LINE
  8
0
 10
26.5531005859375
 20
184.81028747558594
 30
55.0
 11
26.875
 21
184.77859497070312
 31
55.0
  0
LINE
  8
0
 10
26.875
 20
184.77859497070312
 30
55.0
 11
27.1968994140625
 21
184.81028747558594
 31
55.0
  0
LINE
  8
0
 10
27.1968994140625
 20
184.81028747558594
 30
55.0
 11
27.506427764892578
 21
184.90419006347656
 31
55.0
  0
LINE
  8
0
 10
27.506427764892578
 20
184.90419006347656
 30
55.0
 11
27.791690826416016
 21
185.05667114257812
 31
55.0
  0
LINE
  8
0
 10
27.791690826416016
 20
185.05667114257812
 30
55.0
 11
28.041725158691406
 21
185.26185607910156
 31
55.0
  0
LINE
  8
0
 10
28.041725158691406
 20
185.26185607910156
 30
55.0
 11
28.246925354003906
 21
185.51190185546875
 31
55.0
  0
LINE
  8
0
 10
28.246925354003906
 20
185.51190185546875
 30
55.0
 11
28.39940071105957
 21
185.7971649169922
 31
55.0
  0
LINE
  8
0
 10
28.39940071105957
 20
185.7971649169922
 30
55.0
 11
28.493295669555664
 21
186.106689453125
 31
55.0
  0
LINE
  8
0
 10
28.493295669555664
 20
186.106689453125
 30
55.0
 11
28.524999618530273
 21
186.4285888671875
 31
55.0
  0
LINE
  8
0
 10
28.524999618530273
 20
186.4285888671875
 30
55.0
 11
28.493295669555664
 21
186.75048828125
 31
55.0
  0
LINE
  8
0
 10
28.493295669555664
 20
186.75048828125
 30
55.0
 11
28.39940071105957
 21
187.0600128173828
 31
55.0
  0
LINE
  8
0
 10
28.39940071105957
 20
187.0600128173828
 30
55.0
 11
28.246925354003906
 21
187.34527587890625
 31
55.0
  0
LINE
  8
0
 10
28.246925354003906
 20
187.34527587890625
 30
55.0
 11
28.041725158691406
 21
187.59532165527344
 31
55.0
  0
LINE
  8
0
 10
28.041725158691406
 20
187.59532165527344
 30
55.0
 11
27.791690826416016
 21
187.80050659179688
 31
55.0
  0
LINE
  8
0
 10
27.791690826416016
 20
187.80050659179688
 30
55.0
 11
27.506427764892578
 21
187.95298767089844
 31
55.0
  0
LINE
  8
0
 10
27.506427764892578
 20
187.95298767089844
 30
55.0
 11
27.1968994140625
 21
188.04689025878906
 31
55.0
  0
LINE
  8
0
 10
26.875
 20
188.07858276367188
 30
55.0
 11
27.1968994140625
 21
188.04689025878906
 31
55.0
  0
LINE
  8
0
 10
263.125
 20
188.0785675048828
 30
55.0
 11
262.8031005859375
 21
188.046875
 31
55.0
  0
LINE
  8
0
 10
262.8031005859375
 20
188.046875
 30
55.0
 11
262.4935607910156
 21
187.95297241210938
 31
55.0
  0
LINE
  8
0
 10
262.4935607910156
 20
187.95297241210938
 30
55.0
 11
262.20831298828125
 21
187.8004913330078
 31
55.0
  0
LINE
  8
0
 10
262.20831298828125
 20
187.8004913330078
 30
55.0
 11
261.9582824707031
 21
187.59530639648438
 31
55.0
  0
LINE
  8
0
 10
261.9582824707031
 20
187.59530639648438
 30
55.0
 11
261.7530822753906
 21
187.3452606201172
 31
55.0
  0
LINE
  8
0
 10
261.7530822753906
 20
187.3452606201172
 30
55.0
 11
261.6005859375
 21
187.05999755859375
 31
55.0
  0
LINE
  8
0
 10
261.6005859375
 20
187.05999755859375
 30
55.0
 11
261.5067138671875
 21
186.75047302246094
 31
55.0
  0
LINE
  8
0
 10
261.5067138671875
 20
186.75047302246094
 30
55.0
 11
261.4750061035156
 21
186.42857360839844
 31
55.0
  0
LINE
  8
0
 10
261.4750061035156
 20
186.42857360839844
 30
55.0
 11
261.5067138671875
 21
186.10667419433594
 31
55.0
  0
LINE
  8
0
 10
261.5067138671875
 20
186.10667419433594
 30
55.0
 11
261.6005859375
 21
185.79714965820312
 31
55.0
  0
LINE
  8
0
 10
261.6005859375
 20
185.79714965820312
 30
55.0
 11
261.7530822753906
 21
185.5118865966797
 31
55.0
  0
LINE
  8
0
 10
261.7530822753906
 20
185.5118865966797
 30
55.0
 11
261.9582824707031
 21
185.2618408203125
 31
55.0
  0
LINE
  8
0
 10
261.9582824707031
 20
185.2618408203125
 30
55.0
 11
262.20831298828125
 21
185.05665588378906
 31
55.0
  0
LINE
  8
0
 10
262.20831298828125
 20
185.05665588378906
 30
55.0
 11
262.4935607910156
 21
184.9041748046875
 31
55.0
  0
LINE
  8
0
 10
262.4935607910156
 20
184.9041748046875
 30
55.0
 11
262.8031005859375
 21
184.81027221679688
 31
55.0
  0
LINE
  8
0
 10
262.8031005859375
 20
184.81027221679688
 30
55.0
 11
263.125
 21
184.77857971191406
 31
55.0
  0
LINE
  8
0
 10
263.125
 20
184.77857971191406
 30
55.0
 11
263.4468994140625
 21
184.81027221679688
 31
55.0
  0
LINE
  8
0
 10
263.4468994140625
 20
184.81027221679688
 30
55.0
 11
263.7564392089844
 21
184.9041748046875
 31
55.0
  0
LINE
  8
0
 10
263.7564392089844
 20
184.9041748046875
 30
55.0
 11
264.04168701171875
 21
185.05665588378906
 31
55.0
  0
LINE
  8
0
 10
264.04168701171875
 20
185.05665588378906
 30
55.0
 11
264.2917175292969
 21
185.2618408203125
 31
55.0
  0
LINE
  8
0
 10
264.2917175292969
 20
185.2618408203125
 30
55.0
 11
264.4969177246094
 21
185.5118865966797
 31
55.0
  0
LINE
  8
0
 10
264.4969177246094
 20
185.5118865966797
 30
55.0
 11
264.6494140625
 21
185.79714965820312
 31
55.0
  0
LINE
  8
0
 10
264.6494140625
 20
185.79714965820312
 30
55.0
 11
264.7432861328125
 21
186.10667419433594
 31
55.0
  0
LINE
  8
0
 10
264.7432861328125
 20
186.10667419433594
 30
55.0
 11
264.7749938964844
 21
186.42857360839844
 31
55.0
  0
LINE
  8
0
 10
264.7749938964844
 20
186.42857360839844
 30
55.0
 11
264.7432861328125
 21
186.75047302246094
 31
55.0
  0
LINE
  8
0
 10
264.7432861328125
 20
186.75047302246094
 30
55.0
 11
264.6494140625
 21
187.05999755859375
 31
55.0
  0
LINE
  8
0
 10
264.6494140625
 20
187.05999755859375
 30
55.0
 11
264.4969177246094
 21
187.3452606201172
 31
55.0
  0
LINE
  8
0
 10
264.4969177246094
 20
187.3452606201172
 30
55.0
 11
264.2917175292969
 21
187.59530639648438
 31
55.0
  0
LINE
  8
0
 10
264.2917175292969
 20
187.59530639648438
 30
55.0
 11
264.04168701171875
 21
187.8004913330078
 31
55.0
  0
LINE
  8
0
 10
264.04168701171875
 20
187.8004913330078
 30
55.0
 11
263.7564392089844
 21
187.95297241210938
 31
55.0
  0
LINE
  8
0
 10
263.7564392089844
 20
187.95297241210938
 30
55.0
 11
263.4468994140625
 21
188.046875
 31
55.0
  0
LINE
  8
0
 10
263.125
 20
188.0785675048828
 30
55.0
 11
263.4468994140625
 21
188.046875
 31
55.0
  0
LINE
  8
0
 10
26.875
 20
52.364288330078125
 30
55.0
 11
26.5531005859375
 21
52.33258056640625
 31
55.0
  0
LINE
  8
0
 10
26.5531005859375
 20
52.33258056640625
 30
55.0
 11
26.243572235107422
 21
52.23868942260742
 31
55.0
  0
LINE
  8
0
 10
26.243572235107422
 20
52.23868942260742
 30
55.0
 11
25.958309173583984
 21
52.086212158203125
 31
55.0
  0
LINE
  8
0
 10
25.958309173583984
 20
52.086212158203125
 30
55.0
 11
25.708274841308594
 21
51.881011962890625
 31
55.0
  0
LINE
  8
0
 10
25.708274841308594
 20
51.881011962890625
 30
55.0
 11
25.503074645996094
 21
51.630977630615234
 31
55.0
  0
LINE
  8
0
 10
25.503074645996094
 20
51.630977630615234
 30
55.0
 11
25.35059928894043
 21
51.3457145690918
 31
55.0
  0
LINE
  8
0
 10
25.35059928894043
 20
51.3457145690918
 30
55.0
 11
25.256704330444336
 21
51.03618621826172
 31
55.0
  0
LINE
  8
0
 10
25.256704330444336
 20
51.03618621826172
 30
55.0
 11
25.225000381469727
 21
50.71428680419922
 31
55.0
  0
LINE
  8
0
 10
25.225000381469727
 20
50.71428680419922
 30
55.0
 11
25.256704330444336
 21
50.39238739013672
 31
55.0
  0
LINE
  8
0
 10
25.256704330444336
 20
50.39238739013672
 30
55.0
 11
25.35059928894043
 21
50.08285903930664
 31
55.0
  0
LINE
  8
0
 10
25.35059928894043
 20
50.08285903930664
 30
55.0
 11
25.503074645996094
 21
49.7975959777832
 31
55.0
  0
LINE
  8
0
 10
25.503074645996094
 20
49.7975959777832
 30
55.0
 11
25.708274841308594
 21
49.54756164550781
 31
55.0
  0
LINE
  8
0
 10
25.708274841308594
 20
49.54756164550781
 30
55.0
 11
25.958309173583984
 21
49.34236145019531
 31
55.0
  0
LINE
  8
0
 10
25.958309173583984
 20
49.34236145019531
 30
55.0
 11
26.243572235107422
 21
49.189884185791016
 31
55.0
  0
LINE
  8
0
 10
26.243572235107422
 20
49.189884185791016
 30
55.0
 11
26.5531005859375
 21
49.09599304199219
 31
55.0
  0
LINE
  8
0
 10
26.5531005859375
 20
49.09599304199219
 30
55.0
 11
26.875
 21
49.06428527832031
 31
55.0
  0
LINE
  8
0
 10
26.875
 20
49.06428527832031
 30
55.0
 11
27.1968994140625
 21
49.09599304199219
 31
55.0
  0
LINE
  8
0
 10
27.1968994140625
 20
49.09599304199219
 30
55.0
 11
27.506427764892578
 21
49.189884185791016
 31
55.0
  0
LINE
  8
0
 10
27.506427764892578
 20
49.189884185791016
 30
55.0
 11
27.791690826416016
 21
49.34236145019531
 31
55.0
  0
LINE
  8
0
 10
27.791690826416016
 20
49.34236145019531
 30
55.0
 11
28.041725158691406
 21
49.54756164550781
 31
55.0
  0
LINE
  8
0
 10
28.041725158691406
 20
49.54756164550781
 30
55.0
 11
28.246925354003906
 21
49.7975959777832
 31
55.0
  0
LINE
  8
0
 10
28.246925354003906
 20
49.7975959777832
 30
55.0
 11
28.39940071105957
 21
50.08285903930664
 31
55.0
  0
LINE
  8
0
 10
28.39940071105957
 20
50.08285903930664
 30
55.0
 11
28.493295669555664
 21
50.39238739013672
 31
55.0
  0
LINE
  8
0
 10
28.493295669555664
 20
50.39238739013672
 30
55.0
 11
28.524999618530273
 21
50.71428680419922
 31
55.0
  0
LINE
  8
0
 10
28.524999618530273
 20
50.71428680419922
 30
55.0
 11
28.493295669555664
 21
51.03618621826172
 31
55.0
  0
LINE
  8
0
 10
28.493295669555664
 20
51.03618621826172
 30
55.0
 11
28.39940071105957
 21
51.3457145690918
 31
55.0
  0
LINE
  8
0
 10
28.39940071105957
 20
51.3457145690918
 30
55.0
 11
28.246925354003906
 21
51.630977630615234
 31
55.0
  0
LINE
  8
0
 10
28.246925354003906
 20
51.630977630615234
 30
55.0
 11
28.041725158691406
 21
51.881011962890625
 31
55.0
  0
LINE
  8
0
 10
28.041725158691406
 20
51.881011962890625
 30
55.0
 11
27.791690826416016
 21
52.086212158203125
 31
55.0
  0
LINE
  8
0
 10
27.791690826416016
 20
52.086212158203125
 30
55.0
 11
27.506427764892578
 21
52.23868942260742
 31
55.0
  0
LINE
  8
0
 10
27.506427764892578
 20
52.23868942260742
 30
55.0
 11
27.1968994140625
 21
52.33258056640625
 31
55.0
  0
LINE
  8
0
 10
26.875
 20
52.364288330078125
 30
55.0
 11
27.1968994140625
 21
52.33258056640625
 31
55.0
  0
LINE
  8
0
 10
263.125
 20
52.36429977416992
 30
55.0
 11
262.8031005859375
 21
52.33259582519531
 31
55.0
  0
LINE
  8
0
 10
262.8031005859375
 20
52.33259582519531
 30
55.0
 11
262.4935607910156
 21
52.23870086669922
 31
55.0
  0
LINE
  8
0
 10
262.4935607910156
 20
52.23870086669922
 30
55.0
 11
262.20831298828125
 21
52.08622360229492
 31
55.0
  0
LINE
  8
0
 10
262.20831298828125
 20
52.08622360229492
 30
55.0
 11
261.9582824707031
 21
51.88102340698242
 31
55.0
  0
LINE
  8
0
 10
261.9582824707031
 20
51.88102340698242
 30
55.0
 11
261.7530822753906
 21
51.63098907470703
 31
55.0
  0
LINE
  8
0
 10
261.7530822753906
 20
51.63098907470703
 30
55.0
 11
261.6005859375
 21
51.345726013183594
 31
55.0
  0
LINE
  8
0
 10
261.6005859375
 20
51.345726013183594
 30
55.0
 11
261.5067138671875
 21
51.036197662353516
 31
55.0
  0
LINE
  8
0
 10
261.5067138671875
 20
51.036197662353516
 30
55.0
 11
261.4750061035156
 21
50.714298248291016
 31
55.0
  0
LINE
  8
0
 10
261.4750061035156
 20
50.714298248291016
 30
55.0
 11
261.5067138671875
 21
50.392398834228516
 31
55.0
  0
LINE
  8
0
 10
261.5067138671875
 20
50.392398834228516
 30
55.0
 11
261.6005859375
 21
50.08287048339844
 31
55.0
  0
LINE
  8
0
 10
261.6005859375
 20
50.08287048339844
 30
55.0
 11
261.7530822753906
 21
49.797607421875
 31
55.0
  0
LINE
  8
0
 10
261.7530822753906
 20
49.797607421875
 30
55.0
 11
261.9582824707031
 21
49.54757308959961
 31
55.0
  0
LINE
  8
0
 10
261.9582824707031
 20
49.54757308959961
 30
55.0
 11
262.20831298828125
 21
49.34237289428711
 31
55.0
  0
LINE
  8
0
 10
262.20831298828125
 20
49.34237289428711
 30
55.0
 11
262.4935607910156
 21
49.18989562988281
 31
55.0
  0
LINE
  8
0
 10
262.4935607910156
 20
49.18989562988281
 30
55.0
 11
262.8031005859375
 21
49.09600067138672
 31
55.0
  0
LINE
  8
0
 10
262.8031005859375
 20
49.09600067138672
 30
55.0
 11
263.125
 21
49.06429672241211
 31
55.0
  0
LINE
  8
0
 10
263.125
 20
49.06429672241211
 30
55.0
 11
263.4468994140625
 21
49.09600067138672
 31
55.0
  0
LINE
  8
0
 10
263.4468994140625
 20
49.09600067138672
 30
55.0
 11
263.7564392089844
 21
49.18989562988281
 31
55.0
  0
LINE
  8
0
 10
263.7564392089844
 20
49.18989562988281
 30
55.0
 11
264.04168701171875
 21
49.34237289428711
 31
55.0
  0
LINE
  8
0
 10
264.04168701171875
 20
49.34237289428711
 30
55.0
 11
264.2917175292969
 21
49.54757308959961
 31
55.0
  0
LINE
  8
0
 10
264.2917175292969
 20
49.54757308959961
 30
55.0
 11
264.4969177246094
 21
49.797607421875
 31
55.0
  0
LINE
  8
0
 10
264.4969177246094
 20
49.797607421875
 30
55.0
 11
264.6494140625
 21
50.08287048339844
 31
55.0
  0
LINE
  8
0
 10
264.6494140625
 20
50.08287048339844
 30
55.0
 11
264.7432861328125
 21
50.392398834228516
 31
55.0
  0
LINE
  8
0
 10
264.7432861328125
 20
50.392398834228516
 30
55.0
 11
264.7749938964844
 21
50.714298248291016
 31
55.0
  0
LINE
  8
0
 10
264.7749938964844
 20
50.714298248291016
 30
55.0
 11
264.7432861328125
 21
51.036197662353516
 31
55.0
  0
LINE
  8
0
 10
264.7432861328125
 20
51.036197662353516
 30
55.0
 11
264.6494140625
 21
51.345726013183594
 31
55.0
  0
LINE
  8
0
 10
264.6494140625
 20
51.345726013183594
 30
55.0
 11
264.4969177246094
 21
51.63098907470703
 31
55.0
  0
LINE
  8
0
 10
264.4969177246094
 20
51.63098907470703
 30
55.0
 11
264.2917175292969
 21
51.88102340698242
 31
55.0
  0
LINE
  8
0
 10
264.2917175292969
 20
51.88102340698242
 30
55.0
 11
264.04168701171875
 21
52.08622360229492
 31
55.0
  0
LINE
  8
0
 10
264.04168701171875
 20
52.08622360229492
 30
55.0
 11
263.7564392089844
 21
52.23870086669922
 31
55.0
  0
LINE
  8
0
 10
263.7564392089844
 20
52.23870086669922
 30
55.0
 11
263.4468994140625
 21
52.33259582519531
 31
55.0
  0
LINE
  8
0
 10
263.125
 20
52.36429977416992
 30
55.0
 11
263.4468994140625
 21
52.33259582519531
 31
55.0
  0
LINE
  8
0
 10
10.0
 20
30.142860412597656
 30
55.0
 11
280.0
 21
30.142871856689453
 31
55.0
  0
LINE
  8
0
 10
10.0
 20
200.00001525878906
 30
55.0
 11
280.0
 21
200.00001525878906
 31
55.0
  0
LINE
  8
0
 10
164.16000366210938
 20
105.49999237060547
 30
55.0
 11
164.05520629882812
 21
103.90104675292969
 31
55.0
  0
LINE
  8
0
 10
164.05520629882812
 20
103.90104675292969
 30
55.0
 11
163.74258422851562
 21
102.32946014404297
 31
55.0
  0
LINE
  8
0
 10
163.74258422851562
 20
102.32946014404297
 30
55.0
 11
163.22752380371094
 21
100.81211853027344
 31
55.0
  0
LINE
  8
0
 10
163.22752380371094
 20
100.81211853027344
 30
55.0
 11
162.51881408691406
 21
99.375
 31
55.0
  0
LINE
  8
0
 10
162.51881408691406
 20
99.375
 30
55.0
 11
161.62857055664062
 21
98.04266357421875
 31
55.0
  0
LINE
  8
0
 10
161.62857055664062
 20
98.04266357421875
 30
55.0
 11
160.57205200195312
 21
96.83793640136719
 31
55.0
  0
LINE
  8
0
 10
160.57205200195312
 20
96.83793640136719
 30
55.0
 11
159.36732482910156
 21
95.78141784667969
 31
55.0
  0
LINE
  8
0
 10
159.36732482910156
 20
95.78141784667969
 30
55.0
 11
158.03500366210938
 21
94.89118957519531
 31
55.0
  0
LINE
  8
0
 10
158.03500366210938
 20
94.89118957519531
 30
55.0
 11
156.59786987304688
 21
94.1824722290039
 31
55.0
  0
LINE
  8
0
 10
156.59786987304688
 20
94.1824722290039
 30
55.0
 11
155.08053588867188
 21
93.66740417480469
 31
55.0
  0
LINE
  8
0
 10
155.08053588867188
 20
93.66740417480469
 30
55.0
 11
153.50894165039062
 21
93.35479736328125
 31
55.0
  0
LINE
  8
0
 10
153.50894165039062
 20
93.35479736328125
 30
55.0
 11
151.91000366210938
 21
93.25
 31
55.0
  0
LINE
  8
0
 10
151.91000366210938
 20
93.25
 30
55.0
 11
150.31105041503906
 21
93.35479736328125
 31
55.0
  0
LINE
  8
0
 10
150.31105041503906
 20
93.35479736328125
 30
55.0
 11
148.73947143554688
 21
93.66741180419922
 31
55.0
  0
LINE
  8
0
 10
148.73947143554688
 20
93.66741180419922
 30
55.0
 11
147.22213745117188
 21
94.18247985839844
 31
55.0
  0
LINE
  8
0
 10
147.22213745117188
 20
94.18247985839844
 30
55.0
 11
145.78500366210938
 21
94.89118957519531
 31
55.0
  0
LINE
  8
0
 10
145.78500366210938
 20
94.89118957519531
 30
55.0
 11
144.45266723632812
 21
95.78142547607422
 31
55.0
  0
LINE
  8
0
 10
144.45266723632812
 20
95.78142547607422
 30
55.0
 11
143.24794006347656
 21
96.83794403076172
 31
55.0
  0
LINE
  8
0
 10
143.24794006347656
 20
96.83794403076172
 30
55.0
 11
142.19142150878906
 21
98.04267883300781
 31
55.0
  0
LINE
  8
0
 10
142.19142150878906
 20
98.04267883300781
 30
55.0
 11
141.3011932373047
 21
99.375
 31
55.0
  0
LINE
  8
0
 10
141.3011932373047
 20
99.375
 30
55.0
 11
140.59246826171875
 21
100.8121337890625
 31
55.0
  0
LINE
  8
0
 10
140.59246826171875
 20
100.8121337890625
 30
55.0
 11
140.07740783691406
 21
102.32947540283203
 31
55.0
  0
LINE
  8
0
 10
140.07740783691406
 20
102.32947540283203
 30
55.0
 11
139.76480102539062
 21
103.90106201171875
 31
55.0
  0
LINE
  8
0
 10
139.76480102539062
 20
103.90106201171875
 30
55.0
 11
139.66000366210938
 21
105.50000762939453
 31
55.0
  0
LINE
  8
0
 10
139.66000366210938
 20
105.50000762939453
 30
55.0
 11
139.76480102539062
 21
107.09895324707031
 31
55.0
  0
LINE
  8
0
 10
139.76480102539062
 20
107.09895324707031
 30
55.0
 11
140.07742309570312
 21
108.67053985595703
 31
55.0
  0
LINE
  8
0
 10
140.07742309570312
 20
108.67053985595703
 30
55.0
 11
140.5924835205078
 21
110.18787384033203
 31
55.0
  0
LINE
  8
0
 10
140.5924835205078
 20
110.18787384033203
 30
55.0
 11
141.3011932373047
 21
111.62500762939453
 31
55.0
  0
LINE
  8
0
 10
141.3011932373047
 20
111.62500762939453
 30
55.0
 11
142.19143676757812
 21
112.95732879638672
 31
55.0
  0
LINE
  8
0
 10
142.19143676757812
 20
112.95732879638672
 30
55.0
 11
143.24795532226562
 21
114.16206359863281
 31
55.0
  0
LINE
  8
0
 10
143.24795532226562
 20
114.16206359863281
 30
55.0
 11
144.4526824951172
 21
115.21858215332031
 31
55.0
  0
LINE
  8
0
 10
144.4526824951172
 20
115.21858215332031
 30
55.0
 11
145.78500366210938
 21
116.10881042480469
 31
55.0
  0
LINE
  8
0
 10
145.78500366210938
 20
116.10881042480469
 30
55.0
 11
147.22213745117188
 21
116.8175277709961
 31
55.0
  0
LINE
  8
0
 10
147.22213745117188
 20
116.8175277709961
 30
55.0
 11
148.73947143554688
 21
117.33259582519531
 31
55.0
  0
LINE
  8
0
 10
148.73947143554688
 20
117.33259582519531
 30
55.0
 11
150.31106567382812
 21
117.64520263671875
 31
55.0
  0
LINE
  8
0
 10
150.31106567382812
 20
117.64520263671875
 30
55.0
 11
151.91000366210938
 21
117.75
 31
55.0
  0
LINE
  8
0
 10
151.91000366210938
 20
117.75
 30
55.0
 11
153.5089569091797
 21
117.64520263671875
 31
55.0
  0
LINE
  8
0
 10
153.5089569091797
 20
117.64520263671875
 30
55.0
 11
155.08053588867188
 21
117.33258819580078
 31
55.0
  0
LINE
  8
0
 10
155.08053588867188
 20
117.33258819580078
 30
55.0
 11
156.59786987304688
 21
116.81752014160156
 31
55.0
  0
LINE
  8
0
 10
156.59786987304688
 20
116.81752014160156
 30
55.0
 11
158.03500366210938
 21
116.10881042480469
 31
55.0
  0
LINE
  8
0
 10
158.03500366210938
 20
116.10881042480469
 30
55.0
 11
159.36734008789062
 21
115.21857452392578
 31
55.0
  0
LINE
  8
0
 10
159.36734008789062
 20
115.21857452392578
 30
55.0
 11
160.5720672607422
 21
114.16205596923828
 31
55.0
  0
LINE
  8
0
 10
160.5720672607422
 20
114.16205596923828
 30
55.0
 11
161.6285858154297
 21
112.95732116699219
 31
55.0
  0
LINE
  8
0
 10
161.6285858154297
 20
112.95732116699219
 30
55.0
 11
162.51881408691406
 21
111.62499237060547
 31
55.0
  0
LINE
  8
0
 10
162.51881408691406
 20
111.62499237060547
 30
55.0
 11
163.2275390625
 21
110.1878662109375
 31
55.0
  0
LINE
  8
0
 10
163.2275390625
 20
110.1878662109375
 30
55.0
 11
163.7425994873047
 21
108.67052459716797
 31
55.0
  0
LINE
  8
0
 10
163.7425994873047
 20
108.67052459716797
 30
55.0
 11
164.05520629882812
 21
107.09893798828125
 31
55.0
  0
LINE
  8
0
 10
164.16000366210938
 20
105.49999237060547
 30
55.0
 11
164.05520629882812
 21
107.09893798828125
 31
55.0
  0
LINE
  8
0
 10
190.34091186523438
 20
117.5
 30
55.0
 11
190.23611450195312
 21
115.90105438232422
 31
55.0
  0
LINE
  8
0
 10
190.23611450195312
 20
115.90105438232422
 30
55.0
 11
189.92349243164062
 21
114.3294677734375
 31
55.0
  0
LINE
  8
0
 10
189.92349243164062
 20
114.3294677734375
 30
55.0
 11
189.40843200683594
 21
112.81212615966797
 31
55.0
  0
LINE
  8
0
 10
189.40843200683594
 20
112.81212615966797
 30
55.0
 11
188.69970703125
 21
111.375
 31
55.0
  0
LINE
  8
0
 10
188.69970703125
 20
111.375
 30
55.0
 11
187.80947875976562
 21
110.04267120361328
 31
55.0
  0
LINE
  8
0
 10
187.80947875976562
 20
110.04267120361328
 30
55.0
 11
186.75296020507812
 21
108.83794403076172
 31
55.0
  0
LINE
  8
0
 10
186.75296020507812
 20
108.83794403076172
 30
55.0
 11
185.54823303222656
 21
107.78141784667969
 31
55.0
  0
LINE
  8
0
 10
185.54823303222656
 20
107.78141784667969
 30
55.0
 11
184.21591186523438
 21
106.89118957519531
 31
55.0
  0
LINE
  8
0
 10
184.21591186523438
 20
106.89118957519531
 30
55.0
 11
182.77877807617188
 21
106.18247985839844
 31
55.0
  0
LINE
  8
0
 10
182.77877807617188
 20
106.18247985839844
 30
55.0
 11
181.26144409179688
 21
105.66741180419922
 31
55.0
  0
LINE
  8
0
 10
181.26144409179688
 20
105.66741180419922
 30
55.0
 11
179.68984985351562
 21
105.35479736328125
 31
55.0
  0
LINE
  8
0
 10
179.68984985351562
 20
105.35479736328125
 30
55.0
 11
178.09091186523438
 21
105.25
 31
55.0
  0
LINE
  8
0
 10
178.09091186523438
 20
105.25
 30
55.0
 11
176.49195861816406
 21
105.35479736328125
 31
55.0
  0
LINE
  8
0
 10
176.49195861816406
 20
105.35479736328125
 30
55.0
 11
174.92037963867188
 21
105.66741180419922
 31
55.0
  0
LINE
  8
0
 10
174.92037963867188
 20
105.66741180419922
 30
55.0
 11
173.4030303955078
 21
106.18247985839844
 31
55.0
  0
LINE
  8
0
 10
173.4030303955078
 20
106.18247985839844
 30
55.0
 11
171.96591186523438
 21
106.89118957519531
 31
55.0
  0
LINE
  8
0
 10
171.96591186523438
 20
106.89118957519531
 30
55.0
 11
170.63357543945312
 21
107.78141784667969
 31
55.0
  0
LINE
  8
0
 10
170.63357543945312
 20
107.78141784667969
 30
55.0
 11
169.42884826660156
 21
108.83794403076172
 31
55.0
  0
LINE
  8
0
 10
169.42884826660156
 20
108.83794403076172
 30
55.0
 11
168.37232971191406
 21
110.04267120361328
 31
55.0
  0
LINE
  8
0
 10
168.37232971191406
 20
110.04267120361328
 30
55.0
 11
167.48208618164062
 21
111.375
 31
55.0
  0
LINE
  8
0
 10
167.48208618164062
 20
111.375
 30
55.0
 11
166.77337646484375
 21
112.81212615966797
 31
55.0
  0
LINE
  8
0
 10
166.77337646484375
 20
112.81212615966797
 30
55.0
 11
166.25831604003906
 21
114.3294677734375
 31
55.0
  0
LINE
  8
0
 10
166.25831604003906
 20
114.3294677734375
 30
55.0
 11
165.94570922851562
 21
115.90105438232422
 31
55.0
  0
LINE
  8
0
 10
165.94570922851562
 20
115.90105438232422
 30
55.0
 11
165.84091186523438
 21
117.5
 31
55.0
  0
LINE
  8
0
 10
165.84091186523438
 20
117.5
 30
55.0
 11
165.94570922851562
 21
119.09894561767578
 31
55.0
  0
LINE
  8
0
 10
165.94570922851562
 20
119.09894561767578
 30
55.0
 11
166.25831604003906
 21
120.6705322265625
 31
55.0
  0
LINE
  8
0
 10
166.25831604003906
 20
120.6705322265625
 30
55.0
 11
166.77337646484375
 21
122.18787384033203
 31
55.0
  0
LINE
  8
0
 10
166.77337646484375
 20
122.18787384033203
 30
55.0
 11
167.48208618164062
 21
123.625
 31
55.0
  0
LINE
  8
0
 10
167.48208618164062
 20
123.625
 30
55.0
 11
168.37232971191406
 21
124.95732879638672
 31
55.0
  0
LINE
  8
0
 10
168.37232971191406
 20
124.95732879638672
 30
55.0
 11
169.42884826660156
 21
126.16205596923828
 31
55.0
  0
LINE
  8
0
 10
169.42884826660156
 20
126.16205596923828
 30
55.0
 11
170.63357543945312
 21
127.21858215332031
 31
55.0
  0
LINE
  8
0
 10
170.63357543945312
 20
127.21858215332031
 30
55.0
 11
171.96591186523438
 21
128.1088104248047
 31
55.0
  0
LINE
  8
0
 10
171.96591186523438
 20
128.1088104248047
 30
55.0
 11
173.4030303955078
 21
128.81752014160156
 31
55.0
  0
LINE
  8
0
 10
173.4030303955078
 20
128.81752014160156
 30
55.0
 11
174.92037963867188
 21
129.3325958251953
 31
55.0
  0
LINE
  8
0
 10
174.92037963867188
 20
129.3325958251953
 30
55.0
 11
176.49195861816406
 21
129.64520263671875
 31
55.0
  0
LINE
  8
0
 10
176.49195861816406
 20
129.64520263671875
 30
55.0
 11
178.09091186523438
 21
129.75
 31
55.0
  0
LINE
  8
0
 10
178.09091186523438
 20
129.75
 30
55.0
 11
179.68984985351562
 21
129.64520263671875
 31
55.0
  0
LINE
  8
0
 10
179.68984985351562
 20
129.64520263671875
 30
55.0
 11
181.26144409179688
 21
129.3325958251953
 31
55.0
  0
LINE
  8
0
 10
181.26144409179688
 20
129.3325958251953
 30
55.0
 11
182.77877807617188
 21
128.81752014160156
 31
55.0
  0
LINE
  8
0
 10
182.77877807617188
 20
128.81752014160156
 30
55.0
 11
184.21591186523438
 21
128.1088104248047
 31
55.0
  0
LINE
  8
0
 10
184.21591186523438
 20
128.1088104248047
 30
55.0
 11
185.54823303222656
 21
127.21858215332031
 31
55.0
  0
LINE
  8
0
 10
185.54823303222656
 20
127.21858215332031
 30
55.0
 11
186.75296020507812
 21
126.16205596923828
 31
55.0
  0
LINE
  8
0
 10
186.75296020507812
 20
126.16205596923828
 30
55.0
 11
187.80947875976562
 21
124.95732879638672
 31
55.0
  0
LINE
  8
0
 10
187.80947875976562
 20
124.95732879638672
 30
55.0
 11
188.69970703125
 21
123.625
 31
55.0
  0
LINE
  8
0
 10
188.69970703125
 20
123.625
 30
55.0
 11
189.40843200683594
 21
122.18787384033203
 31
55.0
  0
LINE
  8
0
 10
189.40843200683594
 20
122.18787384033203
 30
55.0
 11
189.92349243164062
 21
120.6705322265625
 31
55.0
  0
LINE
  8
0
 10
189.92349243164062
 20
120.6705322265625
 30
55.0
 11
190.23611450195312
 21
119.09894561767578
 31
55.0
  0
LINE
  8
0
 10
190.34091186523438
 20
117.5
 30
55.0
 11
190.23611450195312
 21
119.09894561767578
 31
55.0
  0
LINE
  8
0
 10
219.14093017578125
 20
117.5
 30
55.0
 11
219.03611755371094
 21
115.90105438232422
 31
55.0
  0
LINE
  8
0
 10
219.03611755371094
 20
115.90105438232422
 30
55.0
 11
218.7235107421875
 21
114.3294677734375
 31
55.0
  0
LINE
  8
0
 10
218.7235107421875
 20
114.3294677734375
 30
55.0
 11
218.2084503173828
 21
112.81212615966797
 31
55.0
  0
LINE
  8
0
 10
218.2084503173828
 20
112.81212615966797
 30
55.0
 11
217.49974060058594
 21
111.375
 31
55.0
  0
LINE
  8
0
 10
217.49974060058594
 20
111.375
 30
55.0
 11
216.6094970703125
 21
110.04267120361328
 31
55.0
  0
LINE
  8
0
 10
216.6094970703125
 20
110.04267120361328
 30
55.0
 11
215.552978515625
 21
108.83794403076172
 31
55.0
  0
LINE
  8
0
 10
215.552978515625
 20
108.83794403076172
 30
55.0
 11
214.34825134277344
 21
107.78141784667969
 31
55.0
  0
LINE
  8
0
 10
214.34825134277344
 20
107.78141784667969
 30
55.0
 11
213.01593017578125
 21
106.89118957519531
 31
55.0
  0
LINE
  8
0
 10
213.01593017578125
 20
106.89118957519531
 30
55.0
 11
211.57879638671875
 21
106.18247985839844
 31
55.0
  0
LINE
  8
0
 10
211.57879638671875
 20
106.18247985839844
 30
55.0
 11
210.06146240234375
 21
105.66741180419922
 31
55.0
  0
LINE
  8
0
 10
210.06146240234375
 20
105.66741180419922
 30
55.0
 11
208.4898681640625
 21
105.35479736328125
 31
55.0
  0
LINE
  8
0
 10
208.4898681640625
 20
105.35479736328125
 30
55.0
 11
206.89093017578125
 21
105.25
 31
55.0
  0
LINE
  8
0
 10
206.89093017578125
 20
105.25
 30
55.0
 11
205.29197692871094
 21
105.35479736328125
 31
55.0
  0
LINE
  8
0
 10
205.29197692871094
 20
105.35479736328125
 30
55.0
 11
203.72039794921875
 21
105.66741180419922
 31
55.0
  0
LINE
  8
0
 10
203.72039794921875
 20
105.66741180419922
 30
55.0
 11
202.2030487060547
 21
106.18247985839844
 31
55.0
  0
LINE
  8
0
 10
202.2030487060547
 20
106.18247985839844
 30
55.0
 11
200.76593017578125
 21
106.89118957519531
 31
55.0
  0
LINE
  8
0
 10
200.76593017578125
 20
106.89118957519531
 30
55.0
 11
199.43359375
 21
107.78141784667969
 31
55.0
  0
LINE
  8
0
 10
199.43359375
 20
107.78141784667969
 30
55.0
 11
198.22886657714844
 21
108.83794403076172
 31
55.0
  0
LINE
  8
0
 10
198.22886657714844
 20
108.83794403076172
 30
55.0
 11
197.17234802246094
 21
110.04267120361328
 31
55.0
  0
LINE
  8
0
 10
197.17234802246094
 20
110.04267120361328
 30
55.0
 11
196.2821044921875
 21
111.375
 31
55.0
  0
LINE
  8
0
 10
196.2821044921875
 20
111.375
 30
55.0
 11
195.57339477539062
 21
112.81212615966797
 31
55.0
  0
LINE
  8
0
 10
195.57339477539062
 20
112.81212615966797
 30
55.0
 11
195.05833435058594
 21
114.3294677734375
 31
55.0
  0
LINE
  8
0
 10
195.05833435058594
 20
114.3294677734375
 30
55.0
 11
194.7457275390625
 21
115.90105438232422
 31
55.0
  0
LINE
  8
0
 10
194.7457275390625
 20
115.90105438232422
 30
55.0
 11
194.64093017578125
 21
117.5
 31
55.0
  0
LINE
  8
0
 10
194.64093017578125
 20
117.5
 30
55.0
 11
194.7457275390625
 21
119.09894561767578
 31
55.0
  0
LINE
  8
0
 10
194.7457275390625
 20
119.09894561767578
 30
55.0
 11
195.05833435058594
 21
120.6705322265625
 31
55.0
  0
LINE
  8
0
 10
195.05833435058594
 20
120.6705322265625
 30
55.0
 11
195.57339477539062
 21
122.18787384033203
 31
55.0
  0
LINE
  8
0
 10
195.57339477539062
 20
122.18787384033203
 30
55.0
 11
196.2821044921875
 21
123.625
 31
55.0
  0
LINE
  8
0
 10
196.2821044921875
 20
123.625
 30
55.0
 11
197.17234802246094
 21
124.95732879638672
 31
55.0
  0
LINE
  8
0
 10
197.17234802246094
 20
124.95732879638672
 30
55.0
 11
198.22886657714844
 21
126.16205596923828
 31
55.0
  0
LINE
  8
0
 10
198.22886657714844
 20
126.16205596923828
 30
55.0
 11
199.43359375
 21
127.21858215332031
 31
55.0
  0
LINE
  8
0
 10
199.43359375
 20
127.21858215332031
 30
55.0
 11
200.76593017578125
 21
128.1088104248047
 31
55.0
  0
LINE
  8
0
 10
200.76593017578125
 20
128.1088104248047
 30
55.0
 11
202.2030487060547
 21
128.81752014160156
 31
55.0
  0
LINE
  8
0
 10
202.2030487060547
 20
128.81752014160156
 30
55.0
 11
203.72039794921875
 21
129.3325958251953
 31
55.0
  0
LINE
  8
0
 10
203.72039794921875
 20
129.3325958251953
 30
55.0
 11
205.29197692871094
 21
129.64520263671875
 31
55.0
  0
LINE
  8
0
 10
205.29197692871094
 20
129.64520263671875
 30
55.0
 11
206.89093017578125
 21
129.75
 31
55.0
  0
LINE
  8
0
 10
206.89093017578125
 20
129.75
 30
55.0
 11
208.4898681640625
 21
129.64520263671875
 31
55.0
  0
LINE
  8
0
 10
208.4898681640625
 20
129.64520263671875
 30
55.0
 11
210.06146240234375
 21
129.3325958251953
 31
55.0
  0
LINE
  8
0
 10
210.06146240234375
 20
129.3325958251953
 30
55.0
 11
211.57879638671875
 21
128.81752014160156
 31
55.0
  0
LINE
  8
0
 10
211.57879638671875
 20
128.81752014160156
 30
55.0
 11
213.01593017578125
 21
128.1088104248047
 31
55.0
  0
LINE
  8
0
 10
213.01593017578125
 20
128.1088104248047
 30
55.0
 11
214.34825134277344
 21
127.21858215332031
 31
55.0
  0
LINE
  8
0
 10
214.34825134277344
 20
127.21858215332031
 30
55.0
 11
215.552978515625
 21
126.16205596923828
 31
55.0
  0
LINE
  8
0
 10
215.552978515625
 20
126.16205596923828
 30
55.0
 11
216.6094970703125
 21
124.95732879638672
 31
55.0
  0
LINE
  8
0
 10
216.6094970703125
 20
124.95732879638672
 30
55.0
 11
217.49974060058594
 21
123.625
 31
55.0
  0
LINE
  8
0
 10
217.49974060058594
 20
123.625
 30
55.0
 11
218.2084503173828
 21
122.18787384033203
 31
55.0
  0
LINE
  8
0
 10
218.2084503173828
 20
122.18787384033203
 30
55.0
 11
218.7235107421875
 21
120.6705322265625
 31
55.0
  0
LINE
  8
0
 10
218.7235107421875
 20
120.6705322265625
 30
55.0
 11
219.03611755371094
 21
119.09894561767578
 31
55.0
  0
LINE
  8
0
 10
219.14093017578125
 20
117.5
 30
55.0
 11
219.03611755371094
 21
119.09894561767578
 31
55.0
  0
LINE
  8
0
 10
247.30899047851562
 20
111.49999237060547
 30
55.0
 11
247.20419311523438
 21
109.90104675292969
 31
55.0
  0
LINE
  8
0
 10
247.20419311523438
 20
109.90104675292969
 30
55.0
 11
246.89158630371094
 21
108.32946014404297
 31
55.0
  0
LINE
  8
0
 10
246.89158630371094
 20
108.32946014404297
 30
55.0
 11
246.3765106201172
 21
106.81211853027344
 31
55.0
  0
LINE
  8
0
 10
246.3765106201172
 20
106.81211853027344
 30
55.0
 11
245.6678009033203
 21
105.37499237060547
 31
55.0
  0
LINE
  8
0
 10
245.6678009033203
 20
105.37499237060547
 30
55.0
 11
244.77755737304688
 21
104.04266357421875
 31
55.0
  0
LINE
  8
0
 10
244.77755737304688
 20
104.04266357421875
 30
55.0
 11
243.72103881835938
 21
102.83793640136719
 31
55.0
  0
LINE
  8
0
 10
243.72103881835938
 20
102.83793640136719
 30
55.0
 11
242.5163116455078
 21
101.78141784667969
 31
55.0
  0
LINE
  8
0
 10
242.5163116455078
 20
101.78141784667969
 30
55.0
 11
241.18399047851562
 21
100.89118957519531
 31
55.0
  0
LINE
  8
0
 10
241.18399047851562
 20
100.89118957519531
 30
55.0
 11
239.74685668945312
 21
100.1824722290039
 31
55.0
  0
LINE
  8
0
 10
239.74685668945312
 20
100.1824722290039
 30
55.0
 11
238.22952270507812
 21
99.66740417480469
 31
55.0
  0
LINE
  8
0
 10
238.22952270507812
 20
99.66740417480469
 30
55.0
 11
236.65792846679688
 21
99.35479736328125
 31
55.0
  0
LINE
  8
0
 10
236.65792846679688
 20
99.35479736328125
 30
55.0
 11
235.05899047851562
 21
99.25
 31
55.0
  0
LINE
  8
0
 10
235.05899047851562
 20
99.25
 30
55.0
 11
233.4600372314453
 21
99.35479736328125
 31
55.0
  0
LINE
  8
0
 10
233.4600372314453
 20
99.35479736328125
 30
55.0
 11
231.88844299316406
 21
99.66741180419922
 31
55.0
  0
LINE
  8
0
 10
231.88844299316406
 20
99.66741180419922
 30
55.0
 11
230.37110900878906
 21
100.18247985839844
 31
55.0
  0
LINE
  8
0
 10
230.37110900878906
 20
100.18247985839844
 30
55.0
 11
228.93399047851562
 21
100.89118957519531
 31
55.0
  0
LINE
  8
0
 10
228.93399047851562
 20
100.89118957519531
 30
55.0
 11
227.60165405273438
 21
101.78142547607422
 31
55.0
  0
LINE
  8
0
 10
227.60165405273438
 20
101.78142547607422
 30
55.0
 11
226.3969268798828
 21
102.83794403076172
 31
55.0
  0
LINE
  8
0
 10
226.3969268798828
 20
102.83794403076172
 30
55.0
 11
225.3404083251953
 21
104.04267883300781
 31
55.0
  0
LINE
  8
0
 10
225.3404083251953
 20
104.04267883300781
 30
55.0
 11
224.45018005371094
 21
105.37500762939453
 31
55.0
  0
LINE
  8
0
 10
224.45018005371094
 20
105.37500762939453
 30
55.0
 11
223.74147033691406
 21
106.8121337890625
 31
55.0
  0
LINE
  8
0
 10
223.74147033691406
 20
106.8121337890625
 30
55.0
 11
223.2263946533203
 21
108.32947540283203
 31
55.0
  0
LINE
  8
0
 10
223.2263946533203
 20
108.32947540283203
 30
55.0
 11
222.91378784179688
 21
109.90106201171875
 31
55.0
  0
LINE
  8
0
 10
222.91378784179688
 20
109.90106201171875
 30
55.0
 11
222.80899047851562
 21
111.50000762939453
 31
55.0
  0
LINE
  8
0
 10
222.80899047851562
 20
111.50000762939453
 30
55.0
 11
222.91378784179688
 21
113.09895324707031
 31
55.0
  0
LINE
  8
0
 10
222.91378784179688
 20
113.09895324707031
 30
55.0
 11
223.2263946533203
 21
114.67053985595703
 31
55.0
  0
LINE
  8
0
 10
223.2263946533203
 20
114.67053985595703
 30
55.0
 11
223.74147033691406
 21
116.18788146972656
 31
55.0
  0
LINE
  8
0
 10
223.74147033691406
 20
116.18788146972656
 30
55.0
 11
224.45018005371094
 21
117.62500762939453
 31
55.0
  0
LINE
  8
0
 10
224.45018005371094
 20
117.62500762939453
 30
55.0
 11
225.34042358398438
 21
118.95733642578125
 31
55.0
  0
LINE
  8
0
 10
225.34042358398438
 20
118.95733642578125
 30
55.0
 11
226.39694213867188
 21
120.16206359863281
 31
55.0
  0
LINE
  8
0
 10
226.39694213867188
 20
120.16206359863281
 30
55.0
 11
227.60166931152344
 21
121.21858215332031
 31
55.0
  0
LINE
  8
0
 10
227.60166931152344
 20
121.21858215332031
 30
55.0
 11
228.93399047851562
 21
122.10881042480469
 31
55.0
  0
LINE
  8
0
 10
228.93399047851562
 20
122.10881042480469
 30
55.0
 11
230.37112426757812
 21
122.8175277709961
 31
55.0
  0
LINE
  8
0
 10
230.37112426757812
 20
122.8175277709961
 30
55.0
 11
231.88845825195312
 21
123.33259582519531
 31
55.0
  0
LINE
  8
0
 10
231.88845825195312
 20
123.33259582519531
 30
55.0
 11
233.46005249023438
 21
123.64520263671875
 31
55.0
  0
LINE
  8
0
 10
233.46005249023438
 20
123.64520263671875
 30
55.0
 11
235.05899047851562
 21
123.75
 31
55.0
  0
LINE
  8
0
 10
235.05899047851562
 20
123.75
 30
55.0
 11
236.65794372558594
 21
123.64520263671875
 31
55.0
  0
LINE
  8
0
 10
236.65794372558594
 20
123.64520263671875
 30
55.0
 11
238.2295379638672
 21
123.33258819580078
 31
55.0
  0
LINE
  8
0
 10
238.2295379638672
 20
123.33258819580078
 30
55.0
 11
239.7468719482422
 21
122.81752014160156
 31
55.0
  0
LINE
  8
0
 10
239.7468719482422
 20
122.81752014160156
 30
55.0
 11
241.18399047851562
 21
122.10881042480469
 31
55.0
  0
LINE
  8
0
 10
241.18399047851562
 20
122.10881042480469
 30
55.0
 11
242.51632690429688
 21
121.21857452392578
 31
55.0
  0
LINE
  8
0
 10
242.51632690429688
 20
121.21857452392578
 30
55.0
 11
243.72105407714844
 21
120.16205596923828
 31
55.0
  0
LINE
  8
0
 10
243.72105407714844
 20
120.16205596923828
 30
55.0
 11
244.77757263183594
 21
118.95732116699219
 31
55.0
  0
LINE
  8
0
 10
244.77757263183594
 20
118.95732116699219
 30
55.0
 11
245.6678009033203
 21
117.62499237060547
 31
55.0
  0
LINE
  8
0
 10
245.6678009033203
 20
117.62499237060547
 30
55.0
 11
246.3765106201172
 21
116.1878662109375
 31
55.0
  0
LINE
  8
0
 10
246.3765106201172
 20
116.1878662109375
 30
55.0
 11
246.89158630371094
 21
114.67052459716797
 31
55.0
  0
LINE
  8
0
 10
246.89158630371094
 20
114.67052459716797
 30
55.0
 11
247.20419311523438
 21
113.09893798828125
 31
55.0
  0
LINE
  8
0
 10
247.30899047851562
 20
111.49999237060547
 30
55.0
 11
247.20419311523438
 21
113.09893798828125
 31
55.0
  0
LINE
  8
0
 10
164.16000366210938
 20
134.29998779296875
 30
55.0
 11
164.05520629882812
 21
132.7010498046875
 31
55.0
  0
LINE
  8
0
 10
164.05520629882812
 20
132.7010498046875
 30
55.0
 11
163.74258422851562
 21
131.12945556640625
 31
55.0
  0
LINE
  8
0
 10
163.74258422851562
 20
131.12945556640625
 30
55.0
 11
163.22752380371094
 21
129.61212158203125
 31
55.0
  0
LINE
  8
0
 10
163.22752380371094
 20
129.61212158203125
 30
55.0
 11
162.51881408691406
 21
128.17498779296875
 31
55.0
  0
LINE
  8
0
 10
162.51881408691406
 20
128.17498779296875
 30
55.0
 11
161.62857055664062
 21
126.84266662597656
 31
55.0
  0
LINE
  8
0
 10
161.62857055664062
 20
126.84266662597656
 30
55.0
 11
160.57205200195312
 21
125.637939453125
 31
55.0
  0
LINE
  8
0
 10
160.57205200195312
 20
125.637939453125
 30
55.0
 11
159.36732482910156
 21
124.5814208984375
 31
55.0
  0
LINE
  8
0
 10
159.36732482910156
 20
124.5814208984375
 30
55.0
 11
158.03500366210938
 21
123.6911849975586
 31
55.0
  0
LINE
  8
0
 10
158.03500366210938
 20
123.6911849975586
 30
55.0
 11
156.59786987304688
 21
122.98247528076172
 31
55.0
  0
LINE
  8
0
 10
156.59786987304688
 20
122.98247528076172
 30
55.0
 11
155.08053588867188
 21
122.4674072265625
 31
55.0
  0
LINE
  8
0
 10
155.08053588867188
 20
122.4674072265625
 30
55.0
 11
153.50894165039062
 21
122.15480041503906
 31
55.0
  0
LINE
  8
0
 10
153.50894165039062
 20
122.15480041503906
 30
55.0
 11
151.91000366210938
 21
122.05000305175781
 31
55.0
  0
LINE
  8
0
 10
151.91000366210938
 20
122.05000305175781
 30
55.0
 11
150.31105041503906
 21
122.15480041503906
 31
55.0
  0
LINE
  8
0
 10
150.31105041503906
 20
122.15480041503906
 30
55.0
 11
148.73947143554688
 21
122.4674072265625
 31
55.0
  0
LINE
  8
0
 10
148.73947143554688
 20
122.4674072265625
 30
55.0
 11
147.22213745117188
 21
122.98247528076172
 31
55.0
  0
LINE
  8
0
 10
147.22213745117188
 20
122.98247528076172
 30
55.0
 11
145.78500366210938
 21
123.69119262695312
 31
55.0
  0
LINE
  8
0
 10
145.78500366210938
 20
123.69119262695312
 30
55.0
 11
144.45266723632812
 21
124.5814208984375
 31
55.0
  0
LINE
  8
0
 10
144.45266723632812
 20
124.5814208984375
 30
55.0
 11
143.24794006347656
 21
125.63794708251953
 31
55.0
  0
LINE
  8
0
 10
143.24794006347656
 20
125.63794708251953
 30
55.0
 11
142.19142150878906
 21
126.8426742553711
 31
55.0
  0
LINE
  8
0
 10
142.19142150878906
 20
126.8426742553711
 30
55.0
 11
141.3011932373047
 21
128.1750030517578
 31
55.0
  0
LINE
  8
0
 10
141.3011932373047
 20
128.1750030517578
 30
55.0
 11
140.59246826171875
 21
129.6121368408203
 31
55.0
  0
LINE
  8
0
 10
140.59246826171875
 20
129.6121368408203
 30
55.0
 11
140.07740783691406
 21
131.1294708251953
 31
55.0
  0
LINE
  8
0
 10
140.07740783691406
 20
131.1294708251953
 30
55.0
 11
139.76480102539062
 21
132.70106506347656
 31
55.0
  0
LINE
  8
0
 10
139.76480102539062
 20
132.70106506347656
 30
55.0
 11
139.66000366210938
 21
134.3000030517578
 31
55.0
  0
LINE
  8
0
 10
139.66000366210938
 20
134.3000030517578
 30
55.0
 11
139.76480102539062
 21
135.89895629882812
 31
55.0
  0
LINE
  8
0
 10
139.76480102539062
 20
135.89895629882812
 30
55.0
 11
140.07742309570312
 21
137.4705352783203
 31
55.0
  0
LINE
  8
0
 10
140.07742309570312
 20
137.4705352783203
 30
55.0
 11
140.5924835205078
 21
138.9878692626953
 31
55.0
  0
LINE
  8
0
 10
140.5924835205078
 20
138.9878692626953
 30
55.0
 11
141.3011932373047
 21
140.4250030517578
 31
55.0
  0
LINE
  8
0
 10
141.3011932373047
 20
140.4250030517578
 30
55.0
 11
142.19143676757812
 21
141.75732421875
 31
55.0
  0
LINE
  8
0
 10
142.19143676757812
 20
141.75732421875
 30
55.0
 11
143.24795532226562
 21
142.96206665039062
 31
55.0
  0
LINE
  8
0
 10
143.24795532226562
 20
142.96206665039062
 30
55.0
 11
144.4526824951172
 21
144.01858520507812
 31
55.0
  0
LINE
  8
0
 10
144.4526824951172
 20
144.01858520507812
 30
55.0
 11
145.78500366210938
 21
144.9088134765625
 31
55.0
  0
LINE
  8
0
 10
145.78500366210938
 20
144.9088134765625
 30
55.0
 11
147.22213745117188
 21
145.61752319335938
 31
55.0
  0
LINE
  8
0
 10
147.22213745117188
 20
145.61752319335938
 30
55.0
 11
148.73947143554688
 21
146.13259887695312
 31
55.0
  0
LINE
  8
0
 10
148.73947143554688
 20
146.13259887695312
 30
55.0
 11
150.31106567382812
 21
146.4451904296875
 31
55.0
  0
LINE
  8
0
 10
150.31106567382812
 20
146.4451904296875
 30
55.0
 11
151.91000366210938
 21
146.5500030517578
 31
55.0
  0
LINE
  8
0
 10
151.91000366210938
 20
146.5500030517578
 30
55.0
 11
153.5089569091797
 21
146.4451904296875
 31
55.0
  0
LINE
  8
0
 10
153.5089569091797
 20
146.4451904296875
 30
55.0
 11
155.08053588867188
 21
146.13258361816406
 31
55.0
  0
LINE
  8
0
 10
155.08053588867188
 20
146.13258361816406
 30
55.0
 11
156.59786987304688
 21
145.61752319335938
 31
55.0
  0
LINE
  8
0
 10
156.59786987304688
 20
145.61752319335938
 30
55.0
 11
158.03500366210938
 21
144.9088134765625
 31
55.0
  0
LINE
  8
0
 10
158.03500366210938
 20
144.9088134765625
 30
55.0
 11
159.36734008789062
 21
144.01856994628906
 31
55.0
  0
LINE
  8
0
 10
159.36734008789062
 20
144.01856994628906
 30
55.0
 11
160.5720672607422
 21
142.96205139160156
 31
55.0
  0
LINE
  8
0
 10
160.5720672607422
 20
142.96205139160156
 30
55.0
 11
161.6285858154297
 21
141.75732421875
 31
55.0
  0
LINE
  8
0
 10
161.6285858154297
 20
141.75732421875
 30
55.0
 11
162.51881408691406
 21
140.42498779296875
 31
55.0
  0
LINE
  8
0
 10
162.51881408691406
 20
140.42498779296875
 30
55.0
 11
163.2275390625
 21
138.9878692626953
 31
55.0
  0
LINE
  8
0
 10
163.2275390625
 20
138.9878692626953
 30
55.0
 11
163.7425994873047
 21
137.47052001953125
 31
55.0
  0
LINE
  8
0
 10
163.7425994873047
 20
137.47052001953125
 30
55.0
 11
164.05520629882812
 21
135.89894104003906
 31
55.0
  0
LINE
  8
0
 10
164.16000366210938
 20
134.29998779296875
 30
55.0
 11
164.05520629882812
 21
135.89894104003906
 31
55.0
  0
LINE
  8
0
 10
190.34091186523438
 20
146.3000030517578
 30
55.0
 11
190.23609924316406
 21
144.7010498046875
 31
55.0
  0
LINE
  8
0
 10
190.23609924316406
 20
144.7010498046875
 30
55.0
 11
189.92349243164062
 21
143.1294708251953
 31
55.0
  0
LINE
  8
0
 10
189.92349243164062
 20
143.1294708251953
 30
55.0
 11
189.40841674804688
 21
141.61212158203125
 31
55.0
  0
LINE
  8
0
 10
189.40841674804688
 20
141.61212158203125
 30
55.0
 11
188.69970703125
 21
140.1750030517578
 31
55.0
  0
LINE
  8
0
 10
188.69970703125
 20
140.1750030517578
 30
55.0
 11
187.80947875976562
 21
138.84266662597656
 31
55.0
  0
LINE
  8
0
 10
187.80947875976562
 20
138.84266662597656
 30
55.0
 11
186.75296020507812
 21
137.637939453125
 31
55.0
  0
LINE
  8
0
 10
186.75296020507812
 20
137.637939453125
 30
55.0
 11
185.54823303222656
 21
136.5814208984375
 31
55.0
  0
LINE
  8
0
 10
185.54823303222656
 20
136.5814208984375
 30
55.0
 11
184.21591186523438
 21
135.69119262695312
 31
55.0
  0
LINE
  8
0
 10
184.21591186523438
 20
135.69119262695312
 30
55.0
 11
182.77877807617188
 21
134.98248291015625
 31
55.0
  0
LINE
  8
0
 10
182.77877807617188
 20
134.98248291015625
 30
55.0
 11
181.26144409179688
 21
134.4674072265625
 31
55.0
  0
LINE
  8
0
 10
181.26144409179688
 20
134.4674072265625
 30
55.0
 11
179.68984985351562
 21
134.15480041503906
 31
55.0
  0
LINE
  8
0
 10
179.68984985351562
 20
134.15480041503906
 30
55.0
 11
178.09091186523438
 21
134.0500030517578
 31
55.0
  0
LINE
  8
0
 10
178.09091186523438
 20
134.0500030517578
 30
55.0
 11
176.49195861816406
 21
134.15480041503906
 31
55.0
  0
LINE
  8
0
 10
176.49195861816406
 20
134.15480041503906
 30
55.0
 11
174.9203643798828
 21
134.4674072265625
 31
55.0
  0
LINE
  8
0
 10
174.9203643798828
 20
134.4674072265625
 30
55.0
 11
173.4030303955078
 21
134.98248291015625
 31
55.0
  0
LINE
  8
0
 10
173.4030303955078
 20
134.98248291015625
 30
55.0
 11
171.96591186523438
 21
135.69119262695312
 31
55.0
  0
LINE
  8
0
 10
171.96591186523438
 20
135.69119262695312
 30
55.0
 11
170.63357543945312
 21
136.5814208984375
 31
55.0
  0
LINE
  8
0
 10
170.63357543945312
 20
136.5814208984375
 30
55.0
 11
169.42884826660156
 21
137.637939453125
 31
55.0
  0
LINE
  8
0
 10
169.42884826660156
 20
137.637939453125
 30
55.0
 11
168.372314453125
 21
138.84268188476562
 31
55.0
  0
LINE
  8
0
 10
168.372314453125
 20
138.84268188476562
 30
55.0
 11
167.48208618164062
 21
140.1750030517578
 31
55.0
  0
LINE
  8
0
 10
167.48208618164062
 20
140.1750030517578
 30
55.0
 11
166.77337646484375
 21
141.6121368408203
 31
55.0
  0
LINE
  8
0
 10
166.77337646484375
 20
141.6121368408203
 30
55.0
 11
166.25831604003906
 21
143.1294708251953
 31
55.0
  0
LINE
  8
0
 10
166.25831604003906
 20
143.1294708251953
 30
55.0
 11
165.94570922851562
 21
144.7010498046875
 31
55.0
  0
LINE
  8
0
 10
165.94570922851562
 20
144.7010498046875
 30
55.0
 11
165.84091186523438
 21
146.3000030517578
 31
55.0
  0
LINE
  8
0
 10
165.84091186523438
 20
146.3000030517578
 30
55.0
 11
165.94570922851562
 21
147.89895629882812
 31
55.0
  0
LINE
  8
0
 10
165.94570922851562
 20
147.89895629882812
 30
55.0
 11
166.25831604003906
 21
149.4705352783203
 31
55.0
  0
LINE
  8
0
 10
166.25831604003906
 20
149.4705352783203
 30
55.0
 11
166.77337646484375
 21
150.98788452148438
 31
55.0
  0
LINE
  8
0
 10
166.77337646484375
 20
150.98788452148438
 30
55.0
 11
167.48208618164062
 21
152.4250030517578
 31
55.0
  0
LINE
  8
0
 10
167.48208618164062
 20
152.4250030517578
 30
55.0
 11
168.37232971191406
 21
153.75732421875
 31
55.0
  0
LINE
  8
0
 10
168.37232971191406
 20
153.75732421875
 30
55.0
 11
169.42884826660156
 21
154.96206665039062
 31
55.0
  0
LINE
  8
0
 10
169.42884826660156
 20
154.96206665039062
 30
55.0
 11
170.63357543945312
 21
156.01858520507812
 31
55.0
  0
LINE
  8
0
 10
170.63357543945312
 20
156.01858520507812
 30
55.0
 11
171.96591186523438
 21
156.9088134765625
 31
55.0
  0
LINE
  8
0
 10
171.96591186523438
 20
156.9088134765625
 30
55.0
 11
173.40304565429688
 21
157.61752319335938
 31
55.0
  0
LINE
  8
0
 10
173.40304565429688
 20
157.61752319335938
 30
55.0
 11
174.92037963867188
 21
158.13259887695312
 31
55.0
  0
LINE
  8
0
 10
174.92037963867188
 20
158.13259887695312
 30
55.0
 11
176.49195861816406
 21
158.44520568847656
 31
55.0
  0
LINE
  8
0
 10
176.49195861816406
 20
158.44520568847656
 30
55.0
 11
178.09091186523438
 21
158.5500030517578
 31
55.0
  0
LINE
  8
0
 10
178.09091186523438
 20
158.5500030517578
 30
55.0
 11
179.68984985351562
 21
158.4451904296875
 31
55.0
  0
LINE
  8
0
 10
179.68984985351562
 20
158.4451904296875
 30
55.0
 11
181.26144409179688
 21
158.13259887695312
 31
55.0
  0
LINE
  8
0
 10
181.26144409179688
 20
158.13259887695312
 30
55.0
 11
182.77877807617188
 21
157.61752319335938
 31
55.0
  0
LINE
  8
0
 10
182.77877807617188
 20
157.61752319335938
 30
55.0
 11
184.21591186523438
 21
156.9088134765625
 31
55.0
  0
LINE
  8
0
 10
184.21591186523438
 20
156.9088134765625
 30
55.0
 11
185.54823303222656
 21
156.01858520507812
 31
55.0
  0
LINE
  8
0
 10
185.54823303222656
 20
156.01858520507812
 30
55.0
 11
186.75296020507812
 21
154.96206665039062
 31
55.0
  0
LINE
  8
0
 10
186.75296020507812
 20
154.96206665039062
 30
55.0
 11
187.80947875976562
 21
153.75732421875
 31
55.0
  0
LINE
  8
0
 10
187.80947875976562
 20
153.75732421875
 30
55.0
 11
188.69970703125
 21
152.4250030517578
 31
55.0
  0
LINE
  8
0
 10
188.69970703125
 20
152.4250030517578
 30
55.0
 11
189.40843200683594
 21
150.9878692626953
 31
55.0
  0
LINE
  8
0
 10
189.40843200683594
 20
150.9878692626953
 30
55.0
 11
189.92349243164062
 21
149.4705352783203
 31
55.0
  0
LINE
  8
0
 10
189.92349243164062
 20
149.4705352783203
 30
55.0
 11
190.23611450195312
 21
147.89894104003906
 31
55.0
  0
LINE
  8
0
 10
190.34091186523438
 20
146.3000030517578
 30
55.0
 11
190.23611450195312
 21
147.89894104003906
 31
55.0
  0
LINE
  8
0
 10
219.14093017578125
 20
146.3000030517578
 30
55.0
 11
219.03611755371094
 21
144.7010498046875
 31
55.0
  0
LINE
  8
0
 10
219.03611755371094
 20
144.7010498046875
 30
55.0
 11
218.7235107421875
 21
143.1294708251953
 31
55.0
  0
LINE
  8
0
 10
218.7235107421875
 20
143.1294708251953
 30
55.0
 11
218.2084503173828
 21
141.61212158203125
 31
55.0
  0
LINE
  8
0
 10
218.2084503173828
 20
141.61212158203125
 30
55.0
 11
217.49974060058594
 21
140.1750030517578
 31
55.0
  0
LINE
  8
0
 10
217.49974060058594
 20
140.1750030517578
 30
55.0
 11
216.6094970703125
 21
138.84268188476562
 31
55.0
  0
LINE
  8
0
 10
216.6094970703125
 20
138.84268188476562
 30
55.0
 11
215.552978515625
 21
137.637939453125
 31
55.0
  0
LINE
  8
0
 10
215.552978515625
 20
137.637939453125
 30
55.0
 11
214.34825134277344
 21
136.5814208984375
 31
55.0
  0
LINE
  8
0
 10
214.34825134277344
 20
136.5814208984375
 30
55.0
 11
213.01593017578125
 21
135.69119262695312
 31
55.0
  0
LINE
  8
0
 10
213.01593017578125
 20
135.69119262695312
 30
55.0
 11
211.57879638671875
 21
134.98248291015625
 31
55.0
  0
LINE
  8
0
 10
211.57879638671875
 20
134.98248291015625
 30
55.0
 11
210.06146240234375
 21
134.4674072265625
 31
55.0
  0
LINE
  8
0
 10
210.06146240234375
 20
134.4674072265625
 30
55.0
 11
208.4898681640625
 21
134.15480041503906
 31
55.0
  0
LINE
  8
0
 10
208.4898681640625
 20
134.15480041503906
 30
55.0
 11
206.89093017578125
 21
134.0500030517578
 31
55.0
  0
LINE
  8
0
 10
206.89093017578125
 20
134.0500030517578
 30
55.0
 11
205.29197692871094
 21
134.15480041503906
 31
55.0
  0
LINE
  8
0
 10
205.29197692871094
 20
134.15480041503906
 30
55.0
 11
203.72039794921875
 21
134.4674072265625
 31
55.0
  0
LINE
  8
0
 10
203.72039794921875
 20
134.4674072265625
 30
55.0
 11
202.2030487060547
 21
134.98248291015625
 31
55.0
  0
LINE
  8
0
 10
202.2030487060547
 20
134.98248291015625
 30
55.0
 11
200.76593017578125
 21
135.69119262695312
 31
55.0
  0
LINE
  8
0
 10
200.76593017578125
 20
135.69119262695312
 30
55.0
 11
199.43359375
 21
136.5814208984375
 31
55.0
  0
LINE
  8
0
 10
199.43359375
 20
136.5814208984375
 30
55.0
 11
198.22886657714844
 21
137.637939453125
 31
55.0
  0
LINE
  8
0
 10
198.22886657714844
 20
137.637939453125
 30
55.0
 11
197.17234802246094
 21
138.84266662597656
 31
55.0
  0
LINE
  8
0
 10
197.17234802246094
 20
138.84266662597656
 30
55.0
 11
196.2821044921875
 21
140.1750030517578
 31
55.0
  0
LINE
  8
0
 10
196.2821044921875
 20
140.1750030517578
 30
55.0
 11
195.57339477539062
 21
141.61212158203125
 31
55.0
  0
LINE
  8
0
 10
195.57339477539062
 20
141.61212158203125
 30
55.0
 11
195.05833435058594
 21
143.1294708251953
 31
55.0
  0
LINE
  8
0
 10
195.05833435058594
 20
143.1294708251953
 30
55.0
 11
194.7457275390625
 21
144.7010498046875
 31
55.0
  0
LINE
  8
0
 10
194.7457275390625
 20
144.7010498046875
 30
55.0
 11
194.64093017578125
 21
146.3000030517578
 31
55.0
  0
LINE
  8
0
 10
194.64093017578125
 20
146.3000030517578
 30
55.0
 11
194.7457275390625
 21
147.89894104003906
 31
55.0
  0
LINE
  8
0
 10
194.7457275390625
 20
147.89894104003906
 30
55.0
 11
195.05833435058594
 21
149.4705352783203
 31
55.0
  0
LINE
  8
0
 10
195.05833435058594
 20
149.4705352783203
 30
55.0
 11
195.57339477539062
 21
150.9878692626953
 31
55.0
  0
LINE
  8
0
 10
195.57339477539062
 20
150.9878692626953
 30
55.0
 11
196.2821044921875
 21
152.4250030517578
 31
55.0
  0
LINE
  8
0
 10
196.2821044921875
 20
152.4250030517578
 30
55.0
 11
197.17233276367188
 21
153.75732421875
 31
55.0
  0
LINE
  8
0
 10
197.17233276367188
 20
153.75732421875
 30
55.0
 11
198.22886657714844
 21
154.96206665039062
 31
55.0
  0
LINE
  8
0
 10
198.22886657714844
 20
154.96206665039062
 30
55.0
 11
199.43359375
 21
156.01858520507812
 31
55.0
  0
LINE
  8
0
 10
199.43359375
 20
156.01858520507812
 30
55.0
 11
200.76593017578125
 21
156.9088134765625
 31
55.0
  0
LINE
  8
0
 10
200.76593017578125
 20
156.9088134765625
 30
55.0
 11
202.2030487060547
 21
157.61752319335938
 31
55.0
  0
LINE
  8
0
 10
202.2030487060547
 20
157.61752319335938
 30
55.0
 11
203.72039794921875
 21
158.13259887695312
 31
55.0
  0
LINE
  8
0
 10
203.72039794921875
 20
158.13259887695312
 30
55.0
 11
205.29197692871094
 21
158.44520568847656
 31
55.0
  0
LINE
  8
0
 10
205.29197692871094
 20
158.44520568847656
 30
55.0
 11
206.89093017578125
 21
158.5500030517578
 31
55.0
  0
LINE
  8
0
 10
206.89093017578125
 20
158.5500030517578
 30
55.0
 11
208.4898681640625
 21
158.44520568847656
 31
55.0
  0
LINE
  8
0
 10
208.4898681640625
 20
158.44520568847656
 30
55.0
 11
210.06146240234375
 21
158.13259887695312
 31
55.0
  0
LINE
  8
0
 10
210.06146240234375
 20
158.13259887695312
 30
55.0
 11
211.57879638671875
 21
157.61752319335938
 31
55.0
  0
LINE
  8
0
 10
211.57879638671875
 20
157.61752319335938
 30
55.0
 11
213.0159149169922
 21
156.9088134765625
 31
55.0
  0
LINE
  8
0
 10
213.0159149169922
 20
156.9088134765625
 30
55.0
 11
214.34825134277344
 21
156.01858520507812
 31
55.0
  0
LINE
  8
0
 10
214.34825134277344
 20
156.01858520507812
 30
55.0
 11
215.552978515625
 21
154.96206665039062
 31
55.0
  0
LINE
  8
0
 10
215.552978515625
 20
154.96206665039062
 30
55.0
 11
216.6094970703125
 21
153.75732421875
 31
55.0
  0
LINE
  8
0
 10
216.6094970703125
 20
153.75732421875
 30
55.0
 11
217.49972534179688
 21
152.4250030517578
 31
55.0
  0
LINE
  8
0
 10
217.49972534179688
 20
152.4250030517578
 30
55.0
 11
218.2084503173828
 21
150.9878692626953
 31
55.0
  0
LINE
  8
0
 10
218.2084503173828
 20
150.9878692626953
 30
55.0
 11
218.7235107421875
 21
149.4705352783203
 31
55.0
  0
LINE
  8
0
 10
218.7235107421875
 20
149.4705352783203
 30
55.0
 11
219.03611755371094
 21
147.89895629882812
 31
55.0
  0
LINE
  8
0
 10
219.14093017578125
 20
146.3000030517578
 30
55.0
 11
219.03611755371094
 21
147.89895629882812
 31
55.0
  0
LINE
  8
0
 10
247.30899047851562
 20
140.30001831054688
 30
55.0
 11
247.20419311523438
 21
138.70106506347656
 31
55.0
  0
LINE
  8
0
 10
247.20419311523438
 20
138.70106506347656
 30
55.0
 11
246.89158630371094
 21
137.1294708251953
 31
55.0
  0
LINE
  8
0
 10
246.89158630371094
 20
137.1294708251953
 30
55.0
 11
246.37652587890625
 21
135.6121368408203
 31
55.0
  0
LINE
  8
0
 10
246.37652587890625
 20
135.6121368408203
 30
55.0
 11
245.6678009033203
 21
134.1750030517578
 31
55.0
  0
LINE
  8
0
 10
245.6678009033203
 20
134.1750030517578
 30
55.0
 11
244.77757263183594
 21
132.84268188476562
 31
55.0
  0
LINE
  8
0
 10
244.77757263183594
 20
132.84268188476562
 30
55.0
 11
243.72105407714844
 21
131.63795471191406
 31
55.0
  0
LINE
  8
0
 10
243.72105407714844
 20
131.63795471191406
 30
55.0
 11
242.51632690429688
 21
130.5814208984375
 31
55.0
  0
LINE
  8
0
 10
242.51632690429688
 20
130.5814208984375
 30
55.0
 11
241.1840057373047
 21
129.69119262695312
 31
55.0
  0
LINE
  8
0
 10
241.1840057373047
 20
129.69119262695312
 30
55.0
 11
239.7468719482422
 21
128.98248291015625
 31
55.0
  0
LINE
  8
0
 10
239.7468719482422
 20
128.98248291015625
 30
55.0
 11
238.2295379638672
 21
128.4674072265625
 31
55.0
  0
LINE
  8
0
 10
238.2295379638672
 20
128.4674072265625
 30
55.0
 11
236.65794372558594
 21
128.15480041503906
 31
55.0
  0
LINE
  8
0
 10
236.65794372558594
 20
128.15480041503906
 30
55.0
 11
235.0590057373047
 21
128.0500030517578
 31
55.0
  0
LINE
  8
0
 10
235.0590057373047
 20
128.0500030517578
 30
55.0
 11
233.46005249023438
 21
128.15480041503906
 31
55.0
  0
LINE
  8
0
 10
233.46005249023438
 20
128.15480041503906
 30
55.0
 11
231.8884735107422
 21
128.4674072265625
 31
55.0
  0
LINE
  8
0
 10
231.8884735107422
 20
128.4674072265625
 30
55.0
 11
230.37112426757812
 21
128.9824676513672
 31
55.0
  0
LINE
  8
0
 10
230.37112426757812
 20
128.9824676513672
 30
55.0
 11
228.9340057373047
 21
129.69119262695312
 31
55.0
  0
LINE
  8
0
 10
228.9340057373047
 20
129.69119262695312
 30
55.0
 11
227.60166931152344
 21
130.5814208984375
 31
55.0
  0
LINE
  8
0
 10
227.60166931152344
 20
130.5814208984375
 30
55.0
 11
226.39694213867188
 21
131.637939453125
 31
55.0
  0
LINE
  8
0
 10
226.39694213867188
 20
131.637939453125
 30
55.0
 11
225.34042358398438
 21
132.84266662597656
 31
55.0
  0
LINE
  8
0
 10
225.34042358398438
 20
132.84266662597656
 30
55.0
 11
224.45018005371094
 21
134.17498779296875
 31
55.0
  0
LINE
  8
0
 10
224.45018005371094
 20
134.17498779296875
 30
55.0
 11
223.74147033691406
 21
135.61212158203125
 31
55.0
  0
LINE
  8
0
 10
223.74147033691406
 20
135.61212158203125
 30
55.0
 11
223.2263946533203
 21
137.12945556640625
 31
55.0
  0
LINE
  8
0
 10
223.2263946533203
 20
137.12945556640625
 30
55.0
 11
222.91378784179688
 21
138.7010498046875
 31
55.0
  0
LINE
  8
0
 10
222.91378784179688
 20
138.7010498046875
 30
55.0
 11
222.80899047851562
 21
140.29998779296875
 31
55.0
  0
LINE
  8
0
 10
222.80899047851562
 20
140.29998779296875
 30
55.0
 11
222.91378784179688
 21
141.89894104003906
 31
55.0
  0
LINE
  8
0
 10
222.91378784179688
 20
141.89894104003906
 30
55.0
 11
223.2263946533203
 21
143.47052001953125
 31
55.0
  0
LINE
  8
0
 10
223.2263946533203
 20
143.47052001953125
 30
55.0
 11
223.741455078125
 21
144.9878692626953
 31
55.0
  0
LINE
  8
0
 10
223.741455078125
 20
144.9878692626953
 30
55.0
 11
224.45018005371094
 21
146.42498779296875
 31
55.0
  0
LINE
  8
0
 10
224.45018005371094
 20
146.42498779296875
 30
55.0
 11
225.3404083251953
 21
147.75732421875
 31
55.0
  0
LINE
  8
0
 10
225.3404083251953
 20
147.75732421875
 30
55.0
 11
226.3969268798828
 21
148.96205139160156
 31
55.0
  0
LINE
  8
0
 10
226.3969268798828
 20
148.96205139160156
 30
55.0
 11
227.60165405273438
 21
150.01856994628906
 31
55.0
  0
LINE
  8
0
 10
227.60165405273438
 20
150.01856994628906
 30
55.0
 11
228.93397521972656
 21
150.9088134765625
 31
55.0
  0
LINE
  8
0
 10
228.93397521972656
 20
150.9088134765625
 30
55.0
 11
230.37110900878906
 21
151.61752319335938
 31
55.0
  0
LINE
  8
0
 10
230.37110900878906
 20
151.61752319335938
 30
55.0
 11
231.88844299316406
 21
152.13259887695312
 31
55.0
  0
LINE
  8
0
 10
231.88844299316406
 20
152.13259887695312
 30
55.0
 11
233.4600372314453
 21
152.4451904296875
 31
55.0
  0
LINE
  8
0
 10
233.4600372314453
 20
152.4451904296875
 30
55.0
 11
235.05897521972656
 21
152.5500030517578
 31
55.0
  0
LINE
  8
0
 10
235.05897521972656
 20
152.5500030517578
 30
55.0
 11
236.65792846679688
 21
152.44520568847656
 31
55.0
  0
LINE
  8
0
 10
236.65792846679688
 20
152.44520568847656
 30
55.0
 11
238.22950744628906
 21
152.13259887695312
 31
55.0
  0
LINE
  8
0
 10
238.22950744628906
 20
152.13259887695312
 30
55.0
 11
239.74685668945312
 21
151.61752319335938
 31
55.0
  0
LINE
  8
0
 10
239.74685668945312
 20
151.61752319335938
 30
55.0
 11
241.18397521972656
 21
150.9088134765625
 31
55.0
  0
LINE
  8
0
 10
241.18397521972656
 20
150.9088134765625
 30
55.0
 11
242.5163116455078
 21
150.01858520507812
 31
55.0
  0
LINE
  8
0
 10
242.5163116455078
 20
150.01858520507812
 30
55.0
 11
243.72103881835938
 21
148.96206665039062
 31
55.0
  0
LINE
  8
0
 10
243.72103881835938
 20
148.96206665039062
 30
55.0
 11
244.77755737304688
 21
147.75733947753906
 31
55.0
  0
LINE
  8
0
 10
244.77755737304688
 20
147.75733947753906
 30
55.0
 11
245.6678009033203
 21
146.4250030517578
 31
55.0
  0
LINE
  8
0
 10
245.6678009033203
 20
146.4250030517578
 30
55.0
 11
246.3765106201172
 21
144.98788452148438
 31
55.0
  0
LINE
  8
0
 10
246.3765106201172
 20
144.98788452148438
 30
55.0
 11
246.89158630371094
 21
143.47055053710938
 31
55.0
  0
LINE
  8
0
 10
246.89158630371094
 20
143.47055053710938
 30
55.0
 11
247.20419311523438
 21
141.89895629882812
 31
55.0
  0
LINE
  8
0
 10
247.30899047851562
 20
140.30001831054688
 30
55.0
 11
247.20419311523438
 21
141.89895629882812
 31
55.0
  0
LINE
  8
0
 10
119.43000030517578
 20
105.5
 30
55.0
 11
119.3251953125
 21
103.90105438232422
 31
55.0
  0
LINE
  8
0
 10
119.3251953125
 20
103.90105438232422
 30
55.0
 11
119.01258850097656
 21
102.3294677734375
 31
55.0
  0
LINE
  8
0
 10
119.01258850097656
 20
102.3294677734375
 30
55.0
 11
118.49752807617188
 21
100.81212615966797
 31
55.0
  0
LINE
  8
0
 10
118.49752807617188
 20
100.81212615966797
 30
55.0
 11
117.78881072998047
 21
99.375
 31
55.0
  0
LINE
  8
0
 10
117.78881072998047
 20
99.375
 30
55.0
 11
116.89857482910156
 21
98.04267120361328
 31
55.0
  0
LINE
  8
0
 10
116.89857482910156
 20
98.04267120361328
 30
55.0
 11
115.84205627441406
 21
96.83793640136719
 31
55.0
  0
LINE
  8
0
 10
115.84205627441406
 20
96.83793640136719
 30
55.0
 11
114.6373291015625
 21
95.78141784667969
 31
55.0
  0
LINE
  8
0
 10
114.6373291015625
 20
95.78141784667969
 30
55.0
 11
113.30499267578125
 21
94.89118957519531
 31
55.0
  0
LINE
  8
0
 10
113.30499267578125
 20
94.89118957519531
 30
55.0
 11
111.86787414550781
 21
94.18247985839844
 31
55.0
  0
LINE
  8
0
 10
111.86787414550781
 20
94.18247985839844
 30
55.0
 11
110.35053253173828
 21
93.66740417480469
 31
55.0
  0
LINE
  8
0
 10
110.35053253173828
 20
93.66740417480469
 30
55.0
 11
108.77894592285156
 21
93.35479736328125
 31
55.0
  0
LINE
  8
0
 10
108.77894592285156
 20
93.35479736328125
 30
55.0
 11
107.18000030517578
 21
93.25
 31
55.0
  0
LINE
  8
0
 10
107.18000030517578
 20
93.25
 30
55.0
 11
105.5810546875
 21
93.35479736328125
 31
55.0
  0
LINE
  8
0
 10
105.5810546875
 20
93.35479736328125
 30
55.0
 11
104.00946044921875
 21
93.66740417480469
 31
55.0
  0
LINE
  8
0
 10
104.00946044921875
 20
93.66740417480469
 30
55.0
 11
102.49212646484375
 21
94.18247985839844
 31
55.0
  0
LINE
  8
0
 10
102.49212646484375
 20
94.18247985839844
 30
55.0
 11
101.05500030517578
 21
94.89118957519531
 31
55.0
  0
LINE
  8
0
 10
101.05500030517578
 20
94.89118957519531
 30
55.0
 11
99.72267150878906
 21
95.78142547607422
 31
55.0
  0
LINE
  8
0
 10
99.72267150878906
 20
95.78142547607422
 30
55.0
 11
98.5179443359375
 21
96.83794403076172
 31
55.0
  0
LINE
  8
0
 10
98.5179443359375
 20
96.83794403076172
 30
55.0
 11
97.46141815185547
 21
98.04267883300781
 31
55.0
  0
LINE
  8
0
 10
97.46141815185547
 20
98.04267883300781
 30
55.0
 11
96.5711898803711
 21
99.375
 31
55.0
  0
LINE
  8
0
 10
96.5711898803711
 20
99.375
 30
55.0
 11
95.86247253417969
 21
100.8121337890625
 31
55.0
  0
LINE
  8
0
 10
95.86247253417969
 20
100.8121337890625
 30
55.0
 11
95.347412109375
 21
102.3294677734375
 31
55.0
  0
LINE
  8
0
 10
95.347412109375
 20
102.3294677734375
 30
55.0
 11
95.03479766845703
 21
103.90105438232422
 31
55.0
  0
LINE
  8
0
 10
95.03479766845703
 20
103.90105438232422
 30
55.0
 11
94.93000030517578
 21
105.5
 31
55.0
  0
LINE
  8
0
 10
94.93000030517578
 20
105.5
 30
55.0
 11
95.03480529785156
 21
107.09894561767578
 31
55.0
  0
LINE
  8
0
 10
95.03480529785156
 20
107.09894561767578
 30
55.0
 11
95.347412109375
 21
108.6705322265625
 31
55.0
  0
LINE
  8
0
 10
95.347412109375
 20
108.6705322265625
 30
55.0
 11
95.86248016357422
 21
110.18787384033203
 31
55.0
  0
LINE
  8
0
 10
95.86248016357422
 20
110.18787384033203
 30
55.0
 11
96.5711898803711
 21
111.625
 31
55.0
  0
LINE
  8
0
 10
96.5711898803711
 20
111.625
 30
55.0
 11
97.46142578125
 21
112.95732879638672
 31
55.0
  0
LINE
  8
0
 10
97.46142578125
 20
112.95732879638672
 30
55.0
 11
98.5179443359375
 21
114.16206359863281
 31
55.0
  0
LINE
  8
0
 10
98.5179443359375
 20
114.16206359863281
 30
55.0
 11
99.72267150878906
 21
115.21858215332031
 31
55.0
  0
LINE
  8
0
 10
99.72267150878906
 20
115.21858215332031
 30
55.0
 11
101.05500030517578
 21
116.10881042480469
 31
55.0
  0
LINE
  8
0
 10
101.05500030517578
 20
116.10881042480469
 30
55.0
 11
102.49212646484375
 21
116.8175277709961
 31
55.0
  0
LINE
  8
0
 10
102.49212646484375
 20
116.8175277709961
 30
55.0
 11
104.00946807861328
 21
117.33259582519531
 31
55.0
  0
LINE
  8
0
 10
104.00946807861328
 20
117.33259582519531
 30
55.0
 11
105.5810546875
 21
117.64520263671875
 31
55.0
  0
LINE
  8
0
 10
105.5810546875
 20
117.64520263671875
 30
55.0
 11
107.18000030517578
 21
117.75
 31
55.0
  0
LINE
  8
0
 10
107.18000030517578
 20
117.75
 30
55.0
 11
108.77894592285156
 21
117.64520263671875
 31
55.0
  0
LINE
  8
0
 10
108.77894592285156
 20
117.64520263671875
 30
55.0
 11
110.35054016113281
 21
117.33258819580078
 31
55.0
  0
LINE
  8
0
 10
110.35054016113281
 20
117.33258819580078
 30
55.0
 11
111.86787414550781
 21
116.81752014160156
 31
55.0
  0
LINE
  8
0
 10
111.86787414550781
 20
116.81752014160156
 30
55.0
 11
113.30500793457031
 21
116.10881042480469
 31
55.0
  0
LINE
  8
0
 10
113.30500793457031
 20
116.10881042480469
 30
55.0
 11
114.6373291015625
 21
115.21857452392578
 31
55.0
  0
LINE
  8
0
 10
114.6373291015625
 20
115.21857452392578
 30
55.0
 11
115.84205627441406
 21
114.16205596923828
 31
55.0
  0
LINE
  8
0
 10
115.84205627441406
 20
114.16205596923828
 30
55.0
 11
116.8985824584961
 21
112.95732879638672
 31
55.0
  0
LINE
  8
0
 10
116.8985824584961
 20
112.95732879638672
 30
55.0
 11
117.78881072998047
 21
111.625
 31
55.0
  0
LINE
  8
0
 10
117.78881072998047
 20
111.625
 30
55.0
 11
118.49752807617188
 21
110.1878662109375
 31
55.0
  0
LINE
  8
0
 10
118.49752807617188
 20
110.1878662109375
 30
55.0
 11
119.01258850097656
 21
108.6705322265625
 31
55.0
  0
LINE
  8
0
 10
119.01258850097656
 20
108.6705322265625
 30
55.0
 11
119.3251953125
 21
107.09894561767578
 31
55.0
  0
LINE
  8
0
 10
119.43000030517578
 20
105.5
 30
55.0
 11
119.3251953125
 21
107.09894561767578
 31
55.0
  0
LINE
  8
0
 10
93.25
 20
117.5
 30
55.0
 11
93.14520263671875
 21
115.90105438232422
 31
55.0
  0
LINE
  8
0
 10
93.14520263671875
 20
115.90105438232422
 30
55.0
 11
92.83258819580078
 21
114.32946014404297
 31
55.0
  0
LINE
  8
0
 10
92.83258819580078
 20
114.32946014404297
 30
55.0
 11
92.31752014160156
 21
112.81212615966797
 31
55.0
  0
LINE
  8
0
 10
92.31752014160156
 20
112.81212615966797
 30
55.0
 11
91.60881042480469
 21
111.375
 31
55.0
  0
LINE
  8
0
 10
91.60881042480469
 20
111.375
 30
55.0
 11
90.71857452392578
 21
110.04267120361328
 31
55.0
  0
LINE
  8
0
 10
90.71857452392578
 20
110.04267120361328
 30
55.0
 11
89.66205596923828
 21
108.83793640136719
 31
55.0
  0
LINE
  8
0
 10
89.66205596923828
 20
108.83793640136719
 30
55.0
 11
88.45732116699219
 21
107.78141784667969
 31
55.0
  0
LINE
  8
0
 10
88.45732116699219
 20
107.78141784667969
 30
55.0
 11
87.125
 21
106.89118957519531
 31
55.0
  0
LINE
  8
0
 10
87.125
 20
106.89118957519531
 30
55.0
 11
85.6878662109375
 21
106.1824722290039
 31
55.0
  0
LINE
  8
0
 10
85.6878662109375
 20
106.1824722290039
 30
55.0
 11
84.1705322265625
 21
105.66740417480469
 31
55.0
  0
LINE
  8
0
 10
84.1705322265625
 20
105.66740417480469
 30
55.0
 11
82.59894561767578
 21
105.35479736328125
 31
55.0
  0
LINE
  8
0
 10
82.59894561767578
 20
105.35479736328125
 30
55.0
 11
81.0
 21
105.25
 31
55.0
  0
LINE
  8
0
 10
81.0
 20
105.25
 30
55.0
 11
79.40105438232422
 21
105.35479736328125
 31
55.0
  0
LINE
  8
0
 10
79.40105438232422
 20
105.35479736328125
 30
55.0
 11
77.82946014404297
 21
105.66741180419922
 31
55.0
  0
LINE
  8
0
 10
77.82946014404297
 20
105.66741180419922
 30
55.0
 11
76.31212615966797
 21
106.18247985839844
 31
55.0
  0
LINE
  8
0
 10
76.31212615966797
 20
106.18247985839844
 30
55.0
 11
74.875
 21
106.89118957519531
 31
55.0
  0
LINE
  8
0
 10
74.875
 20
106.89118957519531
 30
55.0
 11
73.54267120361328
 21
107.78142547607422
 31
55.0
  0
LINE
  8
0
 10
73.54267120361328
 20
107.78142547607422
 30
55.0
 11
72.33793640136719
 21
108.83794403076172
 31
55.0
  0
LINE
  8
0
 10
72.33793640136719
 20
108.83794403076172
 30
55.0
 11
71.28141784667969
 21
110.04267883300781
 31
55.0
  0
LINE
  8
0
 10
71.28141784667969
 20
110.04267883300781
 30
55.0
 11
70.39118957519531
 21
111.375
 31
55.0
  0
LINE
  8
0
 10
70.39118957519531
 20
111.375
 30
55.0
 11
69.6824722290039
 21
112.8121337890625
 31
55.0
  0
LINE
  8
0
 10
69.6824722290039
 20
112.8121337890625
 30
55.0
 11
69.16740417480469
 21
114.3294677734375
 31
55.0
  0
LINE
  8
0
 10
69.16740417480469
 20
114.3294677734375
 30
55.0
 11
68.85479736328125
 21
115.90105438232422
 31
55.0
  0
LINE
  8
0
 10
68.85479736328125
 20
115.90105438232422
 30
55.0
 11
68.75
 21
117.5
 31
55.0
  0
LINE
  8
0
 10
68.75
 20
117.5
 30
55.0
 11
68.85479736328125
 21
119.09894561767578
 31
55.0
  0
LINE
  8
0
 10
68.85479736328125
 20
119.09894561767578
 30
55.0
 11
69.16741180419922
 21
120.6705322265625
 31
55.0
  0
LINE
  8
0
 10
69.16741180419922
 20
120.6705322265625
 30
55.0
 11
69.68247985839844
 21
122.18787384033203
 31
55.0
  0
LINE
  8
0
 10
69.68247985839844
 20
122.18787384033203
 30
55.0
 11
70.39118957519531
 21
123.625
 31
55.0
  0
LINE
  8
0
 10
70.39118957519531
 20
123.625
 30
55.0
 11
71.28142547607422
 21
124.95732879638672
 31
55.0
  0
LINE
  8
0
 10
71.28142547607422
 20
124.95732879638672
 30
55.0
 11
72.33794403076172
 21
126.16206359863281
 31
55.0
  0
LINE
  8
0
 10
72.33794403076172
 20
126.16206359863281
 30
55.0
 11
73.54267883300781
 21
127.21858215332031
 31
55.0
  0
LINE
  8
0
 10
73.54267883300781
 20
127.21858215332031
 30
55.0
 11
74.875
 21
128.1088104248047
 31
55.0
  0
LINE
  8
0
 10
74.875
 20
128.1088104248047
 30
55.0
 11
76.3121337890625
 21
128.81752014160156
 31
55.0
  0
LINE
  8
0
 10
76.3121337890625
 20
128.81752014160156
 30
55.0
 11
77.8294677734375
 21
129.3325958251953
 31
55.0
  0
LINE
  8
0
 10
77.8294677734375
 20
129.3325958251953
 30
55.0
 11
79.40105438232422
 21
129.64520263671875
 31
55.0
  0
LINE
  8
0
 10
79.40105438232422
 20
129.64520263671875
 30
55.0
 11
81.0
 21
129.75
 31
55.0
  0
LINE
  8
0
 10
81.0
 20
129.75
 30
55.0
 11
82.59894561767578
 21
129.64520263671875
 31
55.0
  0
LINE
  8
0
 10
82.59894561767578
 20
129.64520263671875
 30
55.0
 11
84.17053985595703
 21
129.3325958251953
 31
55.0
  0
LINE
  8
0
 10
84.17053985595703
 20
129.3325958251953
 30
55.0
 11
85.68787384033203
 21
128.81752014160156
 31
55.0
  0
LINE
  8
0
 10
85.68787384033203
 20
128.81752014160156
 30
55.0
 11
87.125
 21
128.1088104248047
 31
55.0
  0
LINE
  8
0
 10
87.125
 20
128.1088104248047
 30
55.0
 11
88.45732879638672
 21
127.21857452392578
 31
55.0
  0
LINE
  8
0
 10
88.45732879638672
 20
127.21857452392578
 30
55.0
 11
89.66206359863281
 21
126.16205596923828
 31
55.0
  0
LINE
  8
0
 10
89.66206359863281
 20
126.16205596923828
 30
55.0
 11
90.71858215332031
 21
124.95732116699219
 31
55.0
  0
LINE
  8
0
 10
90.71858215332031
 20
124.95732116699219
 30
55.0
 11
91.60881042480469
 21
123.625
 31
55.0
  0
LINE
  8
0
 10
91.60881042480469
 20
123.625
 30
55.0
 11
92.3175277709961
 21
122.1878662109375
 31
55.0
  0
LINE
  8
0
 10
92.3175277709961
 20
122.1878662109375
 30
55.0
 11
92.83259582519531
 21
120.6705322265625
 31
55.0
  0
LINE
  8
0
 10
92.83259582519531
 20
120.6705322265625
 30
55.0
 11
93.14520263671875
 21
119.09894561767578
 31
55.0
  0
LINE
  8
0
 10
93.25
 20
117.5
 30
55.0
 11
93.14520263671875
 21
119.09894561767578
 31
55.0
  0
LINE
  8
0
 10
64.45000457763672
 20
117.5
 30
55.0
 11
64.34519958496094
 21
115.90105438232422
 31
55.0
  0
LINE
  8
0
 10
64.34519958496094
 20
115.90105438232422
 30
55.0
 11
64.0325927734375
 21
114.3294677734375
 31
55.0
  0
LINE
  8
0
 10
64.0325927734375
 20
114.3294677734375
 30
55.0
 11
63.51753234863281
 21
112.8121337890625
 31
55.0
  0
LINE
  8
0
 10
63.51753234863281
 20
112.8121337890625
 30
55.0
 11
62.808815002441406
 21
111.375
 31
55.0
  0
LINE
  8
0
 10
62.808815002441406
 20
111.375
 30
55.0
 11
61.91858673095703
 21
110.04267883300781
 31
55.0
  0
LINE
  8
0
 10
61.91858673095703
 20
110.04267883300781
 30
55.0
 11
60.862064361572266
 21
108.83794403076172
 31
55.0
  0
LINE
  8
0
 10
60.862064361572266
 20
108.83794403076172
 30
55.0
 11
59.65733337402344
 21
107.78142547607422
 31
55.0
  0
LINE
  8
0
 10
59.65733337402344
 20
107.78142547607422
 30
55.0
 11
58.32500457763672
 21
106.89118957519531
 31
55.0
  0
LINE
  8
0
 10
58.32500457763672
 20
106.89118957519531
 30
55.0
 11
56.88787841796875
 21
106.18247985839844
 31
55.0
  0
LINE
  8
0
 10
56.88787841796875
 20
106.18247985839844
 30
55.0
 11
55.370540618896484
 21
105.66741180419922
 31
55.0
  0
LINE
  8
0
 10
55.370540618896484
 20
105.66741180419922
 30
55.0
 11
53.798954010009766
 21
105.35479736328125
 31
55.0
  0
LINE
  8
0
 10
53.798954010009766
 20
105.35479736328125
 30
55.0
 11
52.200008392333984
 21
105.25
 31
55.0
  0
LINE
  8
0
 10
52.200008392333984
 20
105.25
 30
55.0
 11
50.60105895996094
 21
105.35479736328125
 31
55.0
  0
LINE
  8
0
 10
50.60105895996094
 20
105.35479736328125
 30
55.0
 11
49.02947235107422
 21
105.66740417480469
 31
55.0
  0
LINE
  8
0
 10
49.02947235107422
 20
105.66740417480469
 30
55.0
 11
47.51213455200195
 21
106.1824722290039
 31
55.0
  0
LINE
  8
0
 10
47.51213455200195
 20
106.1824722290039
 30
55.0
 11
46.075008392333984
 21
106.89118957519531
 31
55.0
  0
LINE
  8
0
 10
46.075008392333984
 20
106.89118957519531
 30
55.0
 11
44.742679595947266
 21
107.78141784667969
 31
55.0
  0
LINE
  8
0
 10
44.742679595947266
 20
107.78141784667969
 30
55.0
 11
43.53794860839844
 21
108.83793640136719
 31
55.0
  0
LINE
  8
0
 10
43.53794860839844
 20
108.83793640136719
 30
55.0
 11
42.48143005371094
 21
110.04267120361328
 31
55.0
  0
LINE
  8
0
 10
42.48143005371094
 20
110.04267120361328
 30
55.0
 11
41.59119415283203
 21
111.375
 31
55.0
  0
LINE
  8
0
 10
41.59119415283203
 20
111.375
 30
55.0
 11
40.88248062133789
 21
112.81212615966797
 31
55.0
  0
LINE
  8
0
 10
40.88248062133789
 20
112.81212615966797
 30
55.0
 11
40.36741256713867
 21
114.32946014404297
 31
55.0
  0
LINE
  8
0
 10
40.36741256713867
 20
114.32946014404297
 30
55.0
 11
40.054805755615234
 21
115.90105438232422
 31
55.0
  0
LINE
  8
0
 10
40.054805755615234
 20
115.90105438232422
 30
55.0
 11
39.95000457763672
 21
117.5
 31
55.0
  0
LINE
  8
0
 10
39.95000457763672
 20
117.5
 30
55.0
 11
40.054805755615234
 21
119.09894561767578
 31
55.0
  0
LINE
  8
0
 10
40.054805755615234
 20
119.09894561767578
 30
55.0
 11
40.36741256713867
 21
120.6705322265625
 31
55.0
  0
LINE
  8
0
 10
40.36741256713867
 20
120.6705322265625
 30
55.0
 11
40.882476806640625
 21
122.1878662109375
 31
55.0
  0
LINE
  8
0
 10
40.882476806640625
 20
122.1878662109375
 30
55.0
 11
41.59119415283203
 21
123.625
 31
55.0
  0
LINE
  8
0
 10
41.59119415283203
 20
123.625
 30
55.0
 11
42.481422424316406
 21
124.95732116699219
 31
55.0
  0
LINE
  8
0
 10
42.481422424316406
 20
124.95732116699219
 30
55.0
 11
43.53794479370117
 21
126.16205596923828
 31
55.0
  0
LINE
  8
0
 10
43.53794479370117
 20
126.16205596923828
 30
55.0
 11
44.74267578125
 21
127.21857452392578
 31
55.0
  0
LINE
  8
0
 10
44.74267578125
 20
127.21857452392578
 30
55.0
 11
46.07500076293945
 21
128.1088104248047
 31
55.0
  0
LINE
  8
0
 10
46.07500076293945
 20
128.1088104248047
 30
55.0
 11
47.51213073730469
 21
128.81752014160156
 31
55.0
  0
LINE
  8
0
 10
47.51213073730469
 20
128.81752014160156
 30
55.0
 11
49.02946853637695
 21
129.3325958251953
 31
55.0
  0
LINE
  8
0
 10
49.02946853637695
 20
129.3325958251953
 30
55.0
 11
50.60105514526367
 21
129.64520263671875
 31
55.0
  0
LINE
  8
0
 10
50.60105514526367
 20
129.64520263671875
 30
55.0
 11
52.20000076293945
 21
129.75
 31
55.0
  0
LINE
  8
0
 10
52.20000076293945
 20
129.75
 30
55.0
 11
53.7989501953125
 21
129.64520263671875
 31
55.0
  0
LINE
  8
0
 10
53.7989501953125
 20
129.64520263671875
 30
55.0
 11
55.37053680419922
 21
129.3325958251953
 31
55.0
  0
LINE
  8
0
 10
55.37053680419922
 20
129.3325958251953
 30
55.0
 11
56.887874603271484
 21
128.81752014160156
 31
55.0
  0
LINE
  8
0
 10
56.887874603271484
 20
128.81752014160156
 30
55.0
 11
58.32500457763672
 21
128.1088104248047
 31
55.0
  0
LINE
  8
0
 10
58.32500457763672
 20
128.1088104248047
 30
55.0
 11
59.65732955932617
 21
127.21858215332031
 31
55.0
  0
LINE
  8
0
 10
59.65732955932617
 20
127.21858215332031
 30
55.0
 11
60.862060546875
 21
126.16206359863281
 31
55.0
  0
LINE
  8
0
 10
60.862060546875
 20
126.16206359863281
 30
55.0
 11
61.9185791015625
 21
124.95732879638672
 31
55.0
  0
LINE
  8
0
 10
61.9185791015625
 20
124.95732879638672
 30
55.0
 11
62.808815002441406
 21
123.625
 31
55.0
  0
LINE
  8
0
 10
62.808815002441406
 20
123.625
 30
55.0
 11
63.51752853393555
 21
122.18787384033203
 31
55.0
  0
LINE
  8
0
 10
63.51752853393555
 20
122.18787384033203
 30
55.0
 11
64.0325927734375
 21
120.67053985595703
 31
55.0
  0
LINE
  8
0
 10
64.0325927734375
 20
120.67053985595703
 30
55.0
 11
64.34519958496094
 21
119.09894561767578
 31
55.0
  0
LINE
  8
0
 10
64.45000457763672
 20
117.5
 30
55.0
 11
64.34519958496094
 21
119.09894561767578
 31
55.0
  0
LINE
  8
0
 10
105.25
 20
143.6800079345703
 30
55.0
 11
105.14520263671875
 21
142.0810546875
 31
55.0
  0
LINE
  8
0
 10
105.14520263671875
 20
142.0810546875
 30
55.0
 11
104.83259582519531
 21
140.5094757080078
 31
55.0
  0
LINE
  8
0
 10
104.83259582519531
 20
140.5094757080078
 30
55.0
 11
104.31752014160156
 21
138.99212646484375
 31
55.0
  0
LINE
  8
0
 10
104.31752014160156
 20
138.99212646484375
 30
55.0
 11
103.60881042480469
 21
137.5550079345703
 31
55.0
  0
LINE
  8
0
 10
103.60881042480469
 20
137.5550079345703
 30
55.0
 11
102.71858215332031
 21
136.22267150878906
 31
55.0
  0
LINE
  8
0
 10
102.71858215332031
 20
136.22267150878906
 30
55.0
 11
101.66205596923828
 21
135.0179443359375
 31
55.0
  0
LINE
  8
0
 10
101.66205596923828
 20
135.0179443359375
 30
55.0
 11
100.45732879638672
 21
133.96142578125
 31
55.0
  0
LINE
  8
0
 10
100.45732879638672
 20
133.96142578125
 30
55.0
 11
99.125
 21
133.07119750976562
 31
55.0
  0
LINE
  8
0
 10
99.125
 20
133.07119750976562
 30
55.0
 11
97.6878662109375
 21
132.3624725341797
 31
55.0
  0
LINE
  8
0
 10
97.6878662109375
 20
132.3624725341797
 30
55.0
 11
96.1705322265625
 21
131.847412109375
 31
55.0
  0
LINE
  8
0
 10
96.1705322265625
 20
131.847412109375
 30
55.0
 11
94.59894561767578
 21
131.53480529785156
 31
55.0
  0
LINE
  8
0
 10
94.59894561767578
 20
131.53480529785156
 30
55.0
 11
93.0
 21
131.4300079345703
 31
55.0
  0
LINE
  8
0
 10
93.0
 20
131.4300079345703
 30
55.0
 11
91.40105438232422
 21
131.53480529785156
 31
55.0
  0
LINE
  8
0
 10
91.40105438232422
 20
131.53480529785156
 30
55.0
 11
89.8294677734375
 21
131.847412109375
 31
55.0
  0
LINE
  8
0
 10
89.8294677734375
 20
131.847412109375
 30
55.0
 11
88.31212615966797
 21
132.36248779296875
 31
55.0
  0
LINE
  8
0
 10
88.31212615966797
 20
132.36248779296875
 30
55.0
 11
86.875
 21
133.07119750976562
 31
55.0
  0
LINE
  8
0
 10
86.875
 20
133.07119750976562
 30
55.0
 11
85.54267120361328
 21
133.96142578125
 31
55.0
  0
LINE
  8
0
 10
85.54267120361328
 20
133.96142578125
 30
55.0
 11
84.33794403076172
 21
135.0179443359375
 31
55.0
  0
LINE
  8
0
 10
84.33794403076172
 20
135.0179443359375
 30
55.0
 11
83.28141784667969
 21
136.22267150878906
 31
55.0
  0
LINE
  8
0
 10
83.28141784667969
 20
136.22267150878906
 30
55.0
 11
82.39118957519531
 21
137.5550079345703
 31
55.0
  0
LINE
  8
0
 10
82.39118957519531
 20
137.5550079345703
 30
55.0
 11
81.6824722290039
 21
138.99212646484375
 31
55.0
  0
LINE
  8
0
 10
81.6824722290039
 20
138.99212646484375
 30
55.0
 11
81.16740417480469
 21
140.5094757080078
 31
55.0
  0
LINE
  8
0
 10
81.16740417480469
 20
140.5094757080078
 30
55.0
 11
80.85479736328125
 21
142.0810546875
 31
55.0
  0
LINE
  8
0
 10
80.85479736328125
 20
142.0810546875
 30
55.0
 11
80.75
 21
143.6800079345703
 31
55.0
  0
LINE
  8
0
 10
80.75
 20
143.6800079345703
 30
55.0
 11
80.85479736328125
 21
145.27894592285156
 31
55.0
  0
LINE
  8
0
 10
80.85479736328125
 20
145.27894592285156
 30
55.0
 11
81.16741180419922
 21
146.8505401611328
 31
55.0
  0
LINE
  8
0
 10
81.16741180419922
 20
146.8505401611328
 30
55.0
 11
81.68247985839844
 21
148.3678741455078
 31
55.0
  0
LINE
  8
0
 10
81.68247985839844
 20
148.3678741455078
 30
55.0
 11
82.39118957519531
 21
149.8050079345703
 31
55.0
  0
LINE
  8
0
 10
82.39118957519531
 20
149.8050079345703
 30
55.0
 11
83.28142547607422
 21
151.1373291015625
 31
55.0
  0
LINE
  8
0
 10
83.28142547607422
 20
151.1373291015625
 30
55.0
 11
84.33794403076172
 21
152.34207153320312
 31
55.0
  0
LINE
  8
0
 10
84.33794403076172
 20
152.34207153320312
 30
55.0
 11
85.54267120361328
 21
153.39859008789062
 31
55.0
  0
LINE
  8
0
 10
85.54267120361328
 20
153.39859008789062
 30
55.0
 11
86.875
 21
154.288818359375
 31
55.0
  0
LINE
  8
0
 10
86.875
 20
154.288818359375
 30
55.0
 11
88.31212615966797
 21
154.99752807617188
 31
55.0
  0
LINE
  8
0
 10
88.31212615966797
 20
154.99752807617188
 30
55.0
 11
89.8294677734375
 21
155.51260375976562
 31
55.0
  0
LINE
  8
0
 10
89.8294677734375
 20
155.51260375976562
 30
55.0
 11
91.40105438232422
 21
155.8251953125
 31
55.0
  0
LINE
  8
0
 10
91.40105438232422
 20
155.8251953125
 30
55.0
 11
93.0
 21
155.9300079345703
 31
55.0
  0
LINE
  8
0
 10
93.0
 20
155.9300079345703
 30
55.0
 11
94.59894561767578
 21
155.8251953125
 31
55.0
  0
LINE
  8
0
 10
94.59894561767578
 20
155.8251953125
 30
55.0
 11
96.1705322265625
 21
155.51260375976562
 31
55.0
  0
LINE
  8
0
 10
96.1705322265625
 20
155.51260375976562
 30
55.0
 11
97.68787384033203
 21
154.99752807617188
 31
55.0
  0
LINE
  8
0
 10
97.68787384033203
 20
154.99752807617188
 30
55.0
 11
99.125
 21
154.288818359375
 31
55.0
  0
LINE
  8
0
 10
99.125
 20
154.288818359375
 30
55.0
 11
100.45732879638672
 21
153.39859008789062
 31
55.0
  0
LINE
  8
0
 10
100.45732879638672
 20
153.39859008789062
 30
55.0
 11
101.66206359863281
 21
152.34205627441406
 31
55.0
  0
LINE
  8
0
 10
101.66206359863281
 20
152.34205627441406
 30
55.0
 11
102.71858215332031
 21
151.1373291015625
 31
55.0
  0
LINE
  8
0
 10
102.71858215332031
 20
151.1373291015625
 30
55.0
 11
103.60881042480469
 21
149.8050079345703
 31
55.0
  0
LINE
  8
0
 10
103.60881042480469
 20
149.8050079345703
 30
55.0
 11
104.31752014160156
 21
148.3678741455078
 31
55.0
  0
LINE
  8
0
 10
104.31752014160156
 20
148.3678741455078
 30
55.0
 11
104.83259582519531
 21
146.8505401611328
 31
55.0
  0
LINE
  8
0
 10
104.83259582519531
 20
146.8505401611328
 30
55.0
 11
105.14520263671875
 21
145.27894592285156
 31
55.0
  0
LINE
  8
0
 10
105.25
 20
143.6800079345703
 30
55.0
 11
105.14520263671875
 21
145.27894592285156
 31
55.0
  0
LINE
  8
0
 10
280.0
 20
30.142871856689453
 30
55.0
 11
280.0
 21
200.00001525878906
 31
55.0
  0
ENDSEC
  0
EOF
