999
dxfrw 0.6.3
  0
SECTION
  2
HEADER
  9
$ACADVER
  1
AC1021
  9
$DWGCODEPAGE
  3
ANSI_1252
  9
$INSBASE
 10
0
 20
0
 30
0
  9
$EXTMIN
 10
200
 20
15
 30
0
  9
$EXTMAX
 10
385
 20
195
 30
0
  9
$LIMMIN
 10
0
 20
0
  9
$LIMMAX
 10
420
 20
297
  9
$ORTHOMODE
 70
    0
  9
$REGENMODE
 70
    1
  9
$FILLMODE
 70
    1
  9
$QTEXTMODE
 70
    0
  9
$MIRRTEXT
 70
    0
  9
$LTSCALE
 40
1
  9
$ATTMODE
 70
    0
  9
$TEXTSIZE
 40
2.5
  9
$TRACEWID
 40
15.68
  9
$TEXTSTYLE
  7
STANDARD
  9
$CLAYER
  8
0
  9
$CELTYPE
  6
BYLAYER
  9
$CECOLOR
 62
  256
  9
$CELTSCALE
 40
1
  9
$DISPSILH
 70
    0
  9
$DIMSCALE
 40
2.5
  9
$DIMASZ
 40
2.5
  9
$DIMEXO
 40
0.625
  9
$DIMDLI
 40
3.75
  9
$DIMRND
 40
0
  9
$DIMDLE
 40
0
  9
$DIMEXE
 40
1.25
  9
$DIMTP
 40
0
  9
$DIMTM
 40
0
  9
$DIMTXT
 40
2.5
  9
$DIMCEN
 40
2.5
  9
$DIMTSZ
 40
0
  9
$DIMTOL
 70
    0
  9
$DIMLIM
 70
    0
  9
$DIMTIH
 70
    0
  9
$DIMTOH
 70
    0
  9
$DIMSE1
 70
    0
  9
$DIMSE2
 70
    0
  9
$DIMTAD
 70
    1
  9
$DIMZIN
 70
    8
  9
$DIMBLK
  1

  9
$DIMASO
 70
    1
  9
$DIMSHO
 70
    1
  9
$DIMPOST
  1

  9
$DIMAPOST
  1

  9
$DIMALT
 70
    0
  9
$DIMALTD
 70
    3
  9
$DIMALTF
 40
0.03937
  9
$DIMLFAC
 40
1
  9
$DIMTOFL
 70
    1
  9
$DIMTVP
 40
0
  9
$DIMTIX
 70
    0
  9
$DIMSOXD
 70
    0
  9
$DIMSAH
 70
    0
  9
$DIMBLK1
  1

  9
$DIMBLK2
  1

  9
$DIMSTYLE
  2
Standard
  9
$DIMCLRD
 70
    0
  9
$DIMCLRE
 70
    0
  9
$DIMCLRT
 70
    0
  9
$DIMTFAC
 40
1
  9
$DIMGAP
 40
0.625
  9
$DIMJUST
 70
    0
  9
$DIMSD1
 70
    0
  9
$DIMSD2
 70
    0
  9
$DIMTOLJ
 70
    0
  9
$DIMTZIN
 70
    8
  9
$DIMALTZ
 70
    0
  9
$DIMALTTZ
 70
    0
  9
$DIMUPT
 70
    0
  9
$DIMDEC
 70
    2
  9
$DIMTDEC
 70
    2
  9
$DIMALTU
 70
    2
  9
$DIMALTTD
 70
    3
  9
$DIMTXSTY
  7
STANDARD
  9
$DIMAUNIT
 70
    0
  9
$DIMADEC
 70
    0
  9
$DIMALTRND
 40
0
  9
$DIMAZIN
 70
    0
  9
$DIMDSEP
 70
   44
  9
$DIMATFIT
 70
    3
  9
$DIMFRAC
 70
    0
  9
$DIMLDRBLK
  1
STANDARD
  9
$DIMLUNIT
 70
    2
  9
$DIMLWD
 70
   -2
  9
$DIMLWE
 70
   -2
  9
$DIMTMOVE
 70
    0
  9
$DIMFXL
 40
1
  9
$DIMFXLON
 70
    0
  9
$DIMJOGANG
 40
0.7854
  9
$DIMTFILL
 70
    0
  9
$DIMTFILLCLR
 70
    0
  9
$DIMARCSYM
 70
    0
  9
$DIMLTYPE
  6

  9
$DIMLTEX1
  6

  9
$DIMLTEX2
  6

  9
$LUNITS
 70
    2
  9
$LUPREC
 70
    4
  9
$SKETCHINC
 40
1
  9
$FILLETRAD
 40
0
  9
$AUNITS
 70
    0
  9
$AUPREC
 70
    2
  9
$MENU
  1
.
  9
$ELEVATION
 40
0
  9
$PELEVATION
 40
0
  9
$THICKNESS
 40
0
  9
$LIMCHECK
 70
    0
  9
$CHAMFERA
 40
0
  9
$CHAMFERB
 40
0
  9
$CHAMFERC
 40
0
  9
$CHAMFERD
 40
0
  9
$SKPOLY
 70
    0
  9
$USRTIMER
 70
    1
  9
$ANGBASE
 50
0
  9
$ANGDIR
 70
    0
  9
$PDMODE
 70
   34
  9
$PDSIZE
 40
0
  9
$PLINEWID
 40
0
  9
$SPLFRAME
 70
    0
  9
$SPLINETYPE
 70
    2
  9
$SPLINESEGS
 70
    8
  9
$HANDSEED
  5
20000
  9
$SURFTAB1
 70
    6
  9
$SURFTAB2
 70
    6
  9
$SURFTYPE
 70
    6
  9
$SURFU
 70
    6
  9
$SURFV
 70
    6
  9
$UCSBASE
  2

  9
$UCSNAME
  2

  9
$UCSORG
 10
0
 20
0
 30
0
  9
$UCSXDIR
 10
1
 20
0
 30
0
  9
$UCSYDIR
 10
0
 20
1
 30
0
  9
$UCSORTHOREF
  2

  9
$UCSORTHOVIEW
 70
    0
  9
$UCSORGTOP
 10
0
 20
0
 30
0
  9
$UCSORGBOTTOM
 10
0
 20
0
 30
0
  9
$UCSORGLEFT
 10
0
 20
0
 30
0
  9
$UCSORGRIGHT
 10
0
 20
0
 30
0
  9
$UCSORGFRONT
 10
0
 20
0
 30
0
  9
$UCSORGBACK
 10
0
 20
0
 30
0
  9
$PUCSBASE
  2

  9
$PUCSNAME
  2

  9
$PUCSORG
 10
0
 20
0
 30
0
  9
$PUCSXDIR
 10
1
 20
0
 30
0
  9
$PUCSYDIR
 10
0
 20
1
 30
0
  9
$PUCSORTHOREF
  2

  9
$PUCSORTHOVIEW
 70
    0
  9
$PUCSORGTOP
 10
0
 20
0
 30
0
  9
$PUCSORGBOTTOM
 10
0
 20
0
 30
0
  9
$PUCSORGLEFT
 10
0
 20
0
 30
0
  9
$PUCSORGRIGHT
 10
0
 20
0
 30
0
  9
$PUCSORGFRONT
 10
0
 20
0
 30
0
  9
$PUCSORGBACK
 10
0
 20
0
 30
0
  9
$USERI1
 70
    0
  9
$USERI2
 70
    0
  9
$USERI3
 70
    0
  9
$USERI4
 70
    0
  9
$USERI5
 70
    0
  9
$USERR1
 40
0
  9
$USERR2
 40
0
  9
$USERR3
 40
0
  9
$USERR4
 40
0
  9
$USERR5
 40
0
  9
$WORLDVIEW
 70
    1
  9
$SHADEDGE
 70
    3
  9
$SHADEDIF
 70
   70
  9
$TILEMODE
 70
    1
  9
$MAXACTVP
 70
   64
  9
$PINSBASE
 10
0
 20
0
 30
0
  9
$PLIMCHECK
 70
    0
  9
$PEXTMIN
 10
0
 20
0
 30
0
  9
$PEXTMAX
 10
0
 20
0
 30
0
  9
$GRIDMODE
 70
    1
  9
$SNAPSTYLE
 70
    0
  9
$PLIMMIN
 10
0
 20
0
  9
$PLIMMAX
 10
594
 20
420
  9
$UNITMODE
 70
    0
  9
$VISRETAIN
 70
    1
  9
$PLINEGEN
 70
    0
  9
$PSLTSCALE
 70
    1
  9
$TREEDEPTH
 70
 3020
  9
$CMLSTYLE
  2
Standard
  9
$CMLJUST
 70
    0
  9
$CMLSCALE
 40
20
  9
$PROXYGRAPHICS
 70
    1
  9
$MEASUREMENT
 70
    1
  9
$CELWEIGHT
370
   -1
  9
$ENDCAPS
280
    0
  9
$JOINSTYLE
280
    0
  9
$LWDISPLAY
290
    0
  9
$INSUNITS
 70
    4
  9
$HYPERLINKBASE
  1

  9
$STYLESHEET
  1

  9
$XEDIT
290
    1
  9
$CEPSNTYPE
380
    0
  9
$PSTYLEMODE
290
    1
  9
$EXTNAMES
290
    1
  9
$PSVPSCALE
 40
1
  9
$OLESTARTUP
290
    0
  9
$SORTENTS
280
  127
  9
$INDEXCTL
280
    0
  9
$HIDETEXT
280
    1
  9
$XCLIPFRAME
290
    0
  9
$HALOGAP
280
    0
  9
$OBSCOLOR
 70
  257
  9
$OBSLTYPE
280
    0
  9
$INTERSECTIONDISPLAY
280
    0
  9
$INTERSECTIONCOLOR
 70
  257
  9
$DIMASSOC
280
    1
  9
$PROJECTNAME
  1

  9
$CAMERADISPLAY
290
    0
  9
$LENSLENGTH
 40
50
  9
$CAMERAHEIGHT
 40
0
  9
$STEPSPERSEC
 40
2
  9
$STEPSIZE
 40
50
  9
$3DDWFPREC
 40
2
  9
$PSOLWIDTH
 40
5
  9
$PSOLHEIGHT
 40
80
  9
$LOFTANG1
 40
1.570796326794897
  9
$LOFTANG2
 40
1.570796326794897
  9
$LOFTMAG1
 40
0
  9
$LOFTMAG2
 40
0
  9
$LOFTPARAM
 70
    7
  9
$LOFTNORMALS
280
    1
  9
$LATITUDE
 40
1
  9
$LONGITUDE
 40
1
  9
$NORTHDIRECTION
 40
0
  9
$TIMEZONE
 70
-8000
  9
$LIGHTGLYPHDISPLAY
280
    1
  9
$TILEMODELIGHTSYNCH
280
    1
  9
$SOLIDHIST
280
    1
  9
$SHOWHIST
280
    1
  9
$DWFFRAME
280
    2
  9
$DGNFRAME
280
    0
  9
$REALWORLDSCALE
290
    1
  9
$INTERFERECOLOR
 62
    1
  9
$CSHADOW
280
    0
  9
$SHADOWPLANELOCATION
 40
0
  0
ENDSEC
  0
SECTION
  2
CLASSES
  0
ENDSEC
  0
SECTION
  2
TABLES
  0
TABLE
  2
VPORT
  5
8
330
0
100
AcDbSymbolTable
 70
    1
  0
VPORT
  5
31
330
2
100
AcDbSymbolTableRecord
100
AcDbViewportTableRecord
  2
*ACTIVE
 70
    0
 10
0
 20
0
 11
1
 21
1
 12
233.1317999609975
 22
124.2438933923879
 13
0
 23
0
 14
10
 24
10
 15
10
 25
10
 16
0
 26
0
 36
1
 17
0
 27
0
 37
0
 40
320.2820108959469
 41
1.975093399750934
 42
50
 43
0
 44
0
 50
0
 51
0
 71
    0
 72
  100
 73
    1
 74
    3
 75
    0
 76
    1
 77
    0
 78
    0
281
    0
 65
    1
110
0
120
0
130
0
111
1
121
0
131
0
112
0
122
1
132
0
 79
    0
146
0
348
10020
 60
    7
 61
    5
292
1
282
    1
141
0
142
0
 63
  250
421
3358443
  0
ENDTAB
  0
TABLE
  2
LTYPE
  5
5
330
0
100
AcDbSymbolTable
 70
    4
  0
LTYPE
  5
14
330
5
100
AcDbSymbolTableRecord
100
AcDbLinetypeTableRecord
  2
ByBlock
 70
    0
  3

 72
   65
 73
    0
 40
0
  0
LTYPE
  5
15
330
5
100
AcDbSymbolTableRecord
100
AcDbLinetypeTableRecord
  2
ByLayer
 70
    0
  3

 72
   65
 73
    0
 40
0
  0
LTYPE
  5
16
330
5
100
AcDbSymbolTableRecord
100
AcDbLinetypeTableRecord
  2
Continuous
 70
    0
  3
Solid line
 72
   65
 73
    0
 40
0
  0
LTYPE
  5
32
330
5
100
AcDbSymbolTableRecord
100
AcDbLinetypeTableRecord
  2
DOT
 70
    0
  3
Dot . . . . . . . . . . . . . . . . . . . . . .
 72
   65
 73
    2
 40
6.35
 49
0
 74
    0
 49
-6.35
 74
    0
  0
LTYPE
  5
33
330
5
100
AcDbSymbolTableRecord
100
AcDbLinetypeTableRecord
  2
DOTTINY
 70
    0
  3
Dot (.15x) .....................................
 72
   65
 73
    2
 40
0.9525
 49
0
 74
    0
 49
-0.9525
 74
    0
  0
LTYPE
  5
34
330
5
100
AcDbSymbolTableRecord
100
AcDbLinetypeTableRecord
  2
DOT2
 70
    0
  3
Dot (.5x) .....................................
 72
   65
 73
    2
 40
3.175
 49
0
 74
    0
 49
-3.175
 74
    0
  0
LTYPE
  5
35
330
5
100
AcDbSymbolTableRecord
100
AcDbLinetypeTableRecord
  2
DOTX2
 70
    0
  3
Dot (2x) .  .  .  .  .  .  .  .  .  .  .  .  .
 72
   65
 73
    2
 40
12.7
 49
0
 74
    0
 49
-12.7
 74
    0
  0
LTYPE
  5
36
330
5
100
AcDbSymbolTableRecord
100
AcDbLinetypeTableRecord
  2
DASHED
 70
    0
  3
Dashed _ _ _ _ _ _ _ _ _ _ _ _ _ _ _ _ _
 72
   65
 73
    2
 40
19.05
 49
12.7
 74
    0
 49
-6.35
 74
    0
  0
LTYPE
  5
37
330
5
100
AcDbSymbolTableRecord
100
AcDbLinetypeTableRecord
  2
DASHEDTINY
 70
    0
  3
Dashed (.15x) _ _ _ _ _ _ _ _ _ _ _ _ _ _ _ _ _
 72
   65
 73
    2
 40
2.8575
 49
1.905
 74
    0
 49
-0.9525
 74
    0
  0
LTYPE
  5
38
330
5
100
AcDbSymbolTableRecord
100
AcDbLinetypeTableRecord
  2
DASHED2
 70
    0
  3
Dashed (.5x) _ _ _ _ _ _ _ _ _ _ _ _ _ _ _ _ _
 72
   65
 73
    2
 40
9.524999999999999
 49
6.35
 74
    0
 49
-3.175
 74
    0
  0
LTYPE
  5
39
330
5
100
AcDbSymbolTableRecord
100
AcDbLinetypeTableRecord
  2
DASHEDX2
 70
    0
  3
Dashed (2x) ____  ____  ____  ____  ____  ___
 72
   65
 73
    2
 40
38.09999999999999
 49
25.4
 74
    0
 49
-12.7
 74
    0
  0
LTYPE
  5
3A
330
5
100
AcDbSymbolTableRecord
100
AcDbLinetypeTableRecord
  2
DASHDOT
 70
    0
  3
Dash dot __ . __ . __ . __ . __ . __ . __ . __
 72
   65
 73
    4
 40
25.4
 49
12.7
 74
    0
 49
-6.35
 74
    0
 49
0
 74
    0
 49
-6.35
 74
    0
  0
LTYPE
  5
3B
330
5
100
AcDbSymbolTableRecord
100
AcDbLinetypeTableRecord
  2
DASHDOTTINY
 70
    0
  3
Dash dot (.15x) _._._._._._._._._._._._._._._.
 72
   65
 73
    4
 40
3.81
 49
1.905
 74
    0
 49
-0.9525
 74
    0
 49
0
 74
    0
 49
-0.9525
 74
    0
  0
LTYPE
  5
3C
330
5
100
AcDbSymbolTableRecord
100
AcDbLinetypeTableRecord
  2
DASHDOT2
 70
    0
  3
Dash dot (.5x) _._._._._._._._._._._._._._._.
 72
   65
 73
    4
 40
12.7
 49
6.35
 74
    0
 49
-3.175
 74
    0
 49
0
 74
    0
 49
-3.175
 74
    0
  0
LTYPE
  5
3D
330
5
100
AcDbSymbolTableRecord
100
AcDbLinetypeTableRecord
  2
DASHDOTX2
 70
    0
  3
Dash dot (2x) ____  .  ____  .  ____  .  ___
 72
   65
 73
    4
 40
50.8
 49
25.4
 74
    0
 49
-12.7
 74
    0
 49
0
 74
    0
 49
-12.7
 74
    0
  0
LTYPE
  5
3E
330
5
100
AcDbSymbolTableRecord
100
AcDbLinetypeTableRecord
  2
DIVIDE
 70
    0
  3
Divide ____ . . ____ . . ____ . . ____ . . ____
 72
   65
 73
    6
 40
31.75
 49
12.7
 74
    0
 49
-6.35
 74
    0
 49
0
 74
    0
 49
-6.35
 74
    0
 49
0
 74
    0
 49
-6.35
 74
    0
  0
LTYPE
  5
3F
330
5
100
AcDbSymbolTableRecord
100
AcDbLinetypeTableRecord
  2
DIVIDETINY
 70
    0
  3
Divide (.15x) __..__..__..__..__..__..__..__.._
 72
   65
 73
    6
 40
4.7625
 49
1.905
 74
    0
 49
-0.9525
 74
    0
 49
0
 74
    0
 49
-0.9525
 74
    0
 49
0
 74
    0
 49
-0.9525
 74
    0
  0
LTYPE
  5
40
330
5
100
AcDbSymbolTableRecord
100
AcDbLinetypeTableRecord
  2
DIVIDE2
 70
    0
  3
Divide (.5x) __..__..__..__..__..__..__..__.._
 72
   65
 73
    6
 40
15.875
 49
6.35
 74
    0
 49
-3.175
 74
    0
 49
0
 74
    0
 49
-3.175
 74
    0
 49
0
 74
    0
 49
-3.175
 74
    0
  0
LTYPE
  5
41
330
5
100
AcDbSymbolTableRecord
100
AcDbLinetypeTableRecord
  2
DIVIDEX2
 70
    0
  3
Divide (2x) ________  .  .  ________  .  .  _
 72
   65
 73
    6
 40
63.5
 49
25.4
 74
    0
 49
-12.7
 74
    0
 49
0
 74
    0
 49
-12.7
 74
    0
 49
0
 74
    0
 49
-12.7
 74
    0
  0
LTYPE
  5
42
330
5
100
AcDbSymbolTableRecord
100
AcDbLinetypeTableRecord
  2
BORDER
 70
    0
  3
Border __ __ . __ __ . __ __ . __ __ . __ __ .
 72
   65
 73
    6
 40
44.45
 49
12.7
 74
    0
 49
-6.35
 74
    0
 49
12.7
 74
    0
 49
-6.35
 74
    0
 49
0
 74
    0
 49
-6.35
 74
    0
  0
LTYPE
  5
43
330
5
100
AcDbSymbolTableRecord
100
AcDbLinetypeTableRecord
  2
BORDERTINY
 70
    0
  3
Border (.15x) __.__.__.__.__.__.__.__.__.__.__.
 72
   65
 73
    6
 40
6.6675
 49
1.905
 74
    0
 49
-0.9525
 74
    0
 49
1.905
 74
    0
 49
-0.9525
 74
    0
 49
0
 74
    0
 49
-0.9525
 74
    0
  0
LTYPE
  5
44
330
5
100
AcDbSymbolTableRecord
100
AcDbLinetypeTableRecord
  2
BORDER2
 70
    0
  3
Border (.5x) __.__.__.__.__.__.__.__.__.__.__.
 72
   65
 73
    6
 40
22.225
 49
6.35
 74
    0
 49
-3.175
 74
    0
 49
6.35
 74
    0
 49
-3.175
 74
    0
 49
0
 74
    0
 49
-3.175
 74
    0
  0
LTYPE
  5
45
330
5
100
AcDbSymbolTableRecord
100
AcDbLinetypeTableRecord
  2
BORDERX2
 70
    0
  3
Border (2x) ____  ____  .  ____  ____  .  ___
 72
   65
 73
    6
 40
88.89999999999999
 49
25.4
 74
    0
 49
-12.7
 74
    0
 49
25.4
 74
    0
 49
-12.7
 74
    0
 49
0
 74
    0
 49
-12.7
 74
    0
  0
LTYPE
  5
46
330
5
100
AcDbSymbolTableRecord
100
AcDbLinetypeTableRecord
  2
CENTER
 70
    0
  3
Center ____ _ ____ _ ____ _ ____ _ ____ _ ____
 72
   65
 73
    4
 40
50.8
 49
31.75
 74
    0
 49
-6.35
 74
    0
 49
6.35
 74
    0
 49
-6.35
 74
    0
  0
LTYPE
  5
47
330
5
100
AcDbSymbolTableRecord
100
AcDbLinetypeTableRecord
  2
CENTERTINY
 70
    0
  3
Center (.15x) ___ _ ___ _ ___ _ ___ _ ___ _ ___
 72
   65
 73
    4
 40
7.62
 49
4.7625
 74
    0
 49
-0.9525
 74
    0
 49
0.9525
 74
    0
 49
-0.9525
 74
    0
  0
LTYPE
  5
48
330
5
100
AcDbSymbolTableRecord
100
AcDbLinetypeTableRecord
  2
CENTER2
 70
    0
  3
Center (.5x) ___ _ ___ _ ___ _ ___ _ ___ _ ___
 72
   65
 73
    4
 40
28.575
 49
19.05
 74
    0
 49
-3.175
 74
    0
 49
3.175
 74
    0
 49
-3.175
 74
    0
  0
LTYPE
  5
49
330
5
100
AcDbSymbolTableRecord
100
AcDbLinetypeTableRecord
  2
CENTERX2
 70
    0
  3
Center (2x) ________  __  ________  __  _____
 72
   65
 73
    4
 40
101.6
 49
63.5
 74
    0
 49
-12.7
 74
    0
 49
12.7
 74
    0
 49
-12.7
 74
    0
  0
ENDTAB
  0
TABLE
  2
LAYER
  5
2
330
0
100
AcDbSymbolTable
 70
    1
  0
LAYER
  5
10
330
2
100
AcDbSymbolTableRecord
100
AcDbLayerTableRecord
  2
0
 70
    0
 62
    7
  6
CONTINUOUS
370
    0
390
F
  0
LAYER
  5
4A
330
2
100
AcDbSymbolTableRecord
100
AcDbLayerTableRecord
  2
PYDXF
 70
    0
 62
    7
  6
CONTINUOUS
370
   -3
390
F
  0
ENDTAB
  0
TABLE
  2
STYLE
  5
3
330
0
100
AcDbSymbolTable
 70
    3
  0
STYLE
  5
4B
330
2
100
AcDbSymbolTableRecord
100
AcDbTextStyleTableRecord
  2
Standard
 70
    0
 40
0
 41
1
 50
0
 71
    0
 42
1
  3
txt
  4

  0
ENDTAB
  0
TABLE
  2
VIEW
  5
6
330
0
100
AcDbSymbolTable
 70
    0
  0
ENDTAB
  0
TABLE
  2
UCS
  5
7
330
0
100
AcDbSymbolTable
 70
    0
  0
ENDTAB
  0
TABLE
  2
APPID
  5
9
330
0
100
AcDbSymbolTable
 70
    1
  0
APPID
  5
12
330
9
100
AcDbSymbolTableRecord
100
AcDbRegAppTableRecord
  2
ACAD
 70
    0
  0
APPID
  5
4C
330
9
100
AcDbSymbolTableRecord
100
AcDbRegAppTableRecord
  2
LibreCad
 70
    0
  0
ENDTAB
  0
TABLE
  2
DIMSTYLE
  5
A
330
0
100
AcDbSymbolTable
 70
    1
100
AcDbDimStyleTable
 71
    1
  0
DIMSTYLE
105
4D
330
A
100
AcDbSymbolTableRecord
100
AcDbDimStyleTableRecord
  2
Standard
 70
    0
 40
1
 41
2.5
 42
0.625
 43
0.38
 44
1.25
 45
0
 46
0
 47
0
 48
0
 49
1
140
2.5
141
0.09
142
2.5
143
25.4
144
1
145
0
146
1
147
0.625
148
0
 71
    0
 72
    0
 73
    0
 74
    1
 75
    0
 76
    0
 77
    0
 78
    1
 79
    0
170
    0
171
    2
172
    0
173
    0
174
    0
175
    0
176
    0
177
    0
178
    0
179
    0
271
    2
272
    4
273
    2
274
    2
275
    0
276
    0
277
    2
278
    0
279
    0
280
    0
281
    0
282
    0
283
    1
284
    0
285
    0
286
    0
288
    0
289
    3
340
standard
341

371
   -2
372
   -2
  0
ENDTAB
  0
TABLE
  2
BLOCK_RECORD
  5
1
330
0
100
AcDbSymbolTable
 70
    2
  0
BLOCK_RECORD
  5
1F
330
1
100
AcDbSymbolTableRecord
100
AcDbBlockTableRecord
  2
*Model_Space
 70
    0
280
    1
281
    0
  0
BLOCK_RECORD
  5
1E
330
1
100
AcDbSymbolTableRecord
100
AcDbBlockTableRecord
  2
*Paper_Space
 70
    0
280
    1
281
    0
  0
ENDTAB
  0
ENDSEC
  0
SECTION
  2
BLOCKS
  0
BLOCK
  5
20
330
1F
100
AcDbEntity
  8
0
100
AcDbBlockBegin
  2
*Model_Space
 70
    0
 10
0
 20
0
 30
0
  3
*Model_Space
  1

  0
ENDBLK
  5
21
330
1F
100
AcDbEntity
  8
0
100
AcDbBlockEnd
  0
BLOCK
  5
1C
330
1B
100
AcDbEntity
  8
0
100
AcDbBlockBegin
  2
*Paper_Space
 70
    0
 10
0
 20
0
 30
0
  3
*Paper_Space
  1

  0
ENDBLK
  5
1D
330
1F
100
AcDbEntity
  8
0
100
AcDbBlockEnd
  0
ENDSEC
  0
SECTION
  2
ENTITIES
  0
LINE
  5
4E
100
AcDbEntity
  8
0
  6
ByLayer
 62
  256
370
   -1
100
AcDbLine
 10
275.4699096679688
 20
116.3642425537109
 11
274.9788818359375
 21
117.3599624633789
  0
LINE
  5
4F
100
AcDbEntity
  8
0
  6
ByLayer
 62
  256
370
   -1
100
AcDbLine
 10
274.4690551757812
 20
118.8618240356445
 11
274.9788818359375
 21
117.3599624633789
  0
LINE
  5
50
100
AcDbEntity
  8
0
  6
ByLayer
 62
  256
370
   -1
100
AcDbLine
 10
274.4690551757812
 20
118.8618240356445
 11
274.1596374511719
 21
120.4173736572266
  0
LINE
  5
51
100
AcDbEntity
  8
0
  6
ByLayer
 62
  256
370
   -1
100
AcDbLine
 10
274.055908203125
 20
122
 11
274.1596374511719
 21
120.4173736572266
  0
LINE
  5
52
100
AcDbEntity
  8
0
  6
ByLayer
 62
  256
370
   -1
100
AcDbLine
 10
274.055908203125
 20
122
 11
274.1596374511719
 21
123.582633972168
  0
LINE
  5
53
100
AcDbEntity
  8
0
  6
ByLayer
 62
  256
370
   -1
100
AcDbLine
 10
274.4690551757812
 20
125.13818359375
 11
274.1596374511719
 21
123.582633972168
  0
LINE
  5
54
100
AcDbEntity
  8
0
  6
ByLayer
 62
  256
370
   -1
100
AcDbLine
 10
274.4690551757812
 20
125.13818359375
 11
274.9788818359375
 21
126.6400375366211
  0
LINE
  5
55
100
AcDbEntity
  8
0
  6
ByLayer
 62
  256
370
   -1
100
AcDbLine
 10
275.6803588867188
 20
128.0625
 11
274.9788818359375
 21
126.6400375366211
  0
LINE
  5
56
100
AcDbEntity
  8
0
  6
ByLayer
 62
  256
370
   -1
100
AcDbLine
 10
275.6803588867188
 20
128.0625
 11
276.5614929199219
 21
129.3812408447266
  0
LINE
  5
57
100
AcDbEntity
  8
0
  6
ByLayer
 62
  256
370
   -1
100
AcDbLine
 10
277.6072387695312
 20
130.5736694335938
 11
276.5614929199219
 21
129.3812408447266
  0
LINE
  5
58
100
AcDbEntity
  8
0
  6
ByLayer
 62
  256
370
   -1
100
AcDbLine
 10
278.7996826171875
 20
131.6194152832031
 11
277.6072387695312
 21
130.5736694335938
  0
LINE
  5
59
100
AcDbEntity
  8
0
  6
ByLayer
 62
  256
370
   -1
100
AcDbLine
 10
278.7996826171875
 20
131.6194152832031
 11
280.118408203125
 21
132.5005645751953
  0
LINE
  5
5A
100
AcDbEntity
  8
0
  6
ByLayer
 62
  256
370
   -1
100
AcDbLine
 10
280.118408203125
 20
132.5005645751953
 11
281.5408630371094
 21
133.2020416259766
  0
LINE
  5
5B
100
AcDbEntity
  8
0
  6
ByLayer
 62
  256
370
   -1
100
AcDbLine
 10
283.042724609375
 20
133.7118530273438
 11
281.5408630371094
 21
133.2020416259766
  0
LINE
  5
5C
100
AcDbEntity
  8
0
  6
ByLayer
 62
  256
370
   -1
100
AcDbLine
 10
284.5982666015625
 20
134.0212707519531
 11
283.042724609375
 21
133.7118530273438
  0
LINE
  5
5D
100
AcDbEntity
  8
0
  6
ByLayer
 62
  256
370
   -1
100
AcDbLine
 10
286.180908203125
 20
134.125
 11
284.5982666015625
 21
134.0212707519531
  0
LINE
  5
5E
100
AcDbEntity
  8
0
  6
ByLayer
 62
  256
370
   -1
100
AcDbLine
 10
286.180908203125
 20
134.125
 11
287.7635498046875
 21
134.0212707519531
  0
LINE
  5
5F
100
AcDbEntity
  8
0
  6
ByLayer
 62
  256
370
   -1
100
AcDbLine
 10
289.319091796875
 20
133.7118530273438
 11
287.7635498046875
 21
134.0212707519531
  0
LINE
  5
60
100
AcDbEntity
  8
0
  6
ByLayer
 62
  256
370
   -1
100
AcDbLine
 10
290.8209533691406
 20
133.2020416259766
 11
289.319091796875
 21
133.7118530273438
  0
LINE
  5
61
100
AcDbEntity
  8
0
  6
ByLayer
 62
  256
370
   -1
100
AcDbLine
 10
290.8209533691406
 20
133.2020416259766
 11
292.243408203125
 21
132.5005645751953
  0
LINE
  5
62
100
AcDbEntity
  8
0
  6
ByLayer
 62
  256
370
   -1
100
AcDbLine
 10
293.5621337890625
 20
131.6194152832031
 11
292.243408203125
 21
132.5005645751953
  0
LINE
  5
63
100
AcDbEntity
  8
0
  6
ByLayer
 62
  256
370
   -1
100
AcDbLine
 10
294.7545776367188
 20
130.5736694335938
 11
293.5621337890625
 21
131.6194152832031
  0
LINE
  5
64
100
AcDbEntity
  8
0
  6
ByLayer
 62
  256
370
   -1
100
AcDbLine
 10
294.7545776367188
 20
130.5736694335938
 11
295.8003234863281
 21
129.3812255859375
  0
LINE
  5
65
100
AcDbEntity
  8
0
  6
ByLayer
 62
  256
370
   -1
100
AcDbLine
 10
295.8003234863281
 20
129.3812255859375
 11
296.6814575195312
 21
128.0625
  0
LINE
  5
66
100
AcDbEntity
  8
0
  6
ByLayer
 62
  256
370
   -1
100
AcDbLine
 10
297.3829345703125
 20
126.6400299072266
 11
296.6814575195312
 21
128.0625
  0
LINE
  5
67
100
AcDbEntity
  8
0
  6
ByLayer
 62
  256
370
   -1
100
AcDbLine
 10
297.3829345703125
 20
126.6400299072266
 11
297.8927612304688
 21
125.1381759643555
  0
LINE
  5
68
100
AcDbEntity
  8
0
  6
ByLayer
 62
  256
370
   -1
100
AcDbLine
 10
298.2021789550781
 20
123.5826263427734
 11
297.8927612304688
 21
125.1381759643555
  0
LINE
  5
69
100
AcDbEntity
  8
0
  6
ByLayer
 62
  256
370
   -1
100
AcDbLine
 10
298.305908203125
 20
122
 11
298.2021789550781
 21
123.5826263427734
  0
LINE
  5
6A
100
AcDbEntity
  8
0
  6
ByLayer
 62
  256
370
   -1
100
AcDbLine
 10
302.8558959960938
 20
122
 11
302.9596557617188
 21
123.5826263427734
  0
LINE
  5
6B
100
AcDbEntity
  8
0
  6
ByLayer
 62
  256
370
   -1
100
AcDbLine
 10
303.26904296875
 20
125.13818359375
 11
302.9596557617188
 21
123.5826263427734
  0
LINE
  5
6C
100
AcDbEntity
  8
0
  6
ByLayer
 62
  256
370
   -1
100
AcDbLine
 10
303.26904296875
 20
125.13818359375
 11
303.7788696289062
 21
126.6400375366211
  0
LINE
  5
6D
100
AcDbEntity
  8
0
  6
ByLayer
 62
  256
370
   -1
100
AcDbLine
 10
304.4803466796875
 20
128.0625
 11
303.7788696289062
 21
126.6400375366211
  0
LINE
  5
6E
100
AcDbEntity
  8
0
  6
ByLayer
 62
  256
370
   -1
100
AcDbLine
 10
304.4803466796875
 20
128.0625
 11
305.3615112304688
 21
129.3812408447266
  0
LINE
  5
6F
100
AcDbEntity
  8
0
  6
ByLayer
 62
  256
370
   -1
100
AcDbLine
 10
306.4072265625
 20
130.5736694335938
 11
305.3615112304688
 21
129.3812408447266
  0
LINE
  5
70
100
AcDbEntity
  8
0
  6
ByLayer
 62
  256
370
   -1
100
AcDbLine
 10
307.5996704101562
 20
131.6194152832031
 11
306.4072265625
 21
130.5736694335938
  0
LINE
  5
71
100
AcDbEntity
  8
0
  6
ByLayer
 62
  256
370
   -1
100
AcDbLine
 10
308.9183959960938
 20
132.5005645751953
 11
307.5996704101562
 21
131.6194152832031
  0
LINE
  5
72
100
AcDbEntity
  8
0
  6
ByLayer
 62
  256
370
   -1
100
AcDbLine
 10
310.3408813476562
 20
133.2020416259766
 11
308.9183959960938
 21
132.5005645751953
  0
LINE
  5
73
100
AcDbEntity
  8
0
  6
ByLayer
 62
  256
370
   -1
100
AcDbLine
 10
311.8427124023438
 20
133.7118530273438
 11
310.3408813476562
 21
133.2020416259766
  0
LINE
  5
74
100
AcDbEntity
  8
0
  6
ByLayer
 62
  256
370
   -1
100
AcDbLine
 10
313.3982849121094
 20
134.0212707519531
 11
311.8427124023438
 21
133.7118530273438
  0
LINE
  5
75
100
AcDbEntity
  8
0
  6
ByLayer
 62
  256
370
   -1
100
AcDbLine
 10
313.3982849121094
 20
134.0212707519531
 11
314.9808959960938
 21
134.125
  0
LINE
  5
76
100
AcDbEntity
  8
0
  6
ByLayer
 62
  256
370
   -1
100
AcDbLine
 10
314.9808959960938
 20
134.125
 11
316.5635375976562
 21
134.0212707519531
  0
LINE
  5
77
100
AcDbEntity
  8
0
  6
ByLayer
 62
  256
370
   -1
100
AcDbLine
 10
318.1190795898438
 20
133.7118530273438
 11
316.5635375976562
 21
134.0212707519531
  0
LINE
  5
78
100
AcDbEntity
  8
0
  6
ByLayer
 62
  256
370
   -1
100
AcDbLine
 10
318.1190795898438
 20
133.7118530273438
 11
319.6209411621094
 21
133.2020416259766
  0
LINE
  5
79
100
AcDbEntity
  8
0
  6
ByLayer
 62
  256
370
   -1
100
AcDbLine
 10
321.0433959960938
 20
132.5005645751953
 11
319.6209411621094
 21
133.2020416259766
  0
LINE
  5
7A
100
AcDbEntity
  8
0
  6
ByLayer
 62
  256
370
   -1
100
AcDbLine
 10
322.3621520996094
 20
131.6194152832031
 11
321.0433959960938
 21
132.5005645751953
  0
LINE
  5
7B
100
AcDbEntity
  8
0
  6
ByLayer
 62
  256
370
   -1
100
AcDbLine
 10
323.5545654296875
 20
130.5736694335938
 11
322.3621520996094
 21
131.6194152832031
  0
LINE
  5
7C
100
AcDbEntity
  8
0
  6
ByLayer
 62
  256
370
   -1
100
AcDbLine
 10
323.5545654296875
 20
130.5736694335938
 11
324.6003112792969
 21
129.3812408447266
  0
LINE
  5
7D
100
AcDbEntity
  8
0
  6
ByLayer
 62
  256
370
   -1
100
AcDbLine
 10
325.4814758300781
 20
128.0625
 11
324.6003112792969
 21
129.3812408447266
  0
LINE
  5
7E
100
AcDbEntity
  8
0
  6
ByLayer
 62
  256
370
   -1
100
AcDbLine
 10
325.4814758300781
 20
128.0625
 11
326.1829528808594
 21
126.6400375366211
  0
LINE
  5
7F
100
AcDbEntity
  8
0
  6
ByLayer
 62
  256
370
   -1
100
AcDbLine
 10
326.6927490234375
 20
125.13818359375
 11
326.1829528808594
 21
126.6400375366211
  0
LINE
  5
80
100
AcDbEntity
  8
0
  6
ByLayer
 62
  256
370
   -1
100
AcDbLine
 10
326.6927490234375
 20
125.13818359375
 11
327.002197265625
 21
123.5826263427734
  0
LINE
  5
81
100
AcDbEntity
  8
0
  6
ByLayer
 62
  256
370
   -1
100
AcDbLine
 10
327.1058959960938
 20
122
 11
327.002197265625
 21
123.5826263427734
  0
LINE
  5
82
100
AcDbEntity
  8
0
  6
ByLayer
 62
  256
370
   -1
100
AcDbLine
 10
327.1058959960938
 20
122
 11
327.002197265625
 21
120.417366027832
  0
LINE
  5
83
100
AcDbEntity
  8
0
  6
ByLayer
 62
  256
370
   -1
100
AcDbLine
 10
326.9093627929688
 20
119.9506988525391
 11
327.002197265625
 21
120.417366027832
  0
LINE
  5
84
100
AcDbEntity
  8
0
  6
ByLayer
 62
  256
370
   -1
100
AcDbLine
 10
331.9469299316406
 20
120.6400375366211
 11
331.4371032714844
 21
119.13818359375
  0
LINE
  5
85
100
AcDbEntity
  8
0
  6
ByLayer
 62
  256
370
   -1
100
AcDbLine
 10
331.9469299316406
 20
120.6400375366211
 11
332.6484069824219
 21
122.0625
  0
LINE
  5
86
100
AcDbEntity
  8
0
  6
ByLayer
 62
  256
370
   -1
100
AcDbLine
 10
333.529541015625
 20
123.381233215332
 11
332.6484069824219
 21
122.0625
  0
LINE
  5
87
100
AcDbEntity
  8
0
  6
ByLayer
 62
  256
370
   -1
100
AcDbLine
 10
333.529541015625
 20
123.381233215332
 11
334.5752868652344
 21
124.5736694335938
  0
LINE
  5
88
100
AcDbEntity
  8
0
  6
ByLayer
 62
  256
370
   -1
100
AcDbLine
 10
335.7677307128906
 20
125.6194152832031
 11
334.5752868652344
 21
124.5736694335938
  0
LINE
  5
89
100
AcDbEntity
  8
0
  6
ByLayer
 62
  256
370
   -1
100
AcDbLine
 10
337.0864562988281
 20
126.5005569458008
 11
335.7677307128906
 21
125.6194152832031
  0
LINE
  5
8A
100
AcDbEntity
  8
0
  6
ByLayer
 62
  256
370
   -1
100
AcDbLine
 10
338.5089111328125
 20
127.2020416259766
 11
337.0864562988281
 21
126.5005569458008
  0
LINE
  5
8B
100
AcDbEntity
  8
0
  6
ByLayer
 62
  256
370
   -1
100
AcDbLine
 10
340.0108032226562
 20
127.7118530273438
 11
338.5089111328125
 21
127.2020416259766
  0
LINE
  5
8C
100
AcDbEntity
  8
0
  6
ByLayer
 62
  256
370
   -1
100
AcDbLine
 10
340.0108032226562
 20
127.7118530273438
 11
341.5663452148438
 21
128.0212707519531
  0
LINE
  5
8D
100
AcDbEntity
  8
0
  6
ByLayer
 62
  256
370
   -1
100
AcDbLine
 10
343.1489562988281
 20
128.125
 11
341.5663452148438
 21
128.0212707519531
  0
LINE
  5
8E
100
AcDbEntity
  8
0
  6
ByLayer
 62
  256
370
   -1
100
AcDbLine
 10
343.1489562988281
 20
132.6750030517578
 11
341.5663452148438
 21
132.7787322998047
  0
LINE
  5
8F
100
AcDbEntity
  8
0
  6
ByLayer
 62
  256
370
   -1
100
AcDbLine
 10
340.0107727050781
 20
133.0881500244141
 11
341.5663452148438
 21
132.7787322998047
  0
LINE
  5
90
100
AcDbEntity
  8
0
  6
ByLayer
 62
  256
370
   -1
100
AcDbLine
 10
340.0107727050781
 20
133.0881500244141
 11
338.5089111328125
 21
133.5979614257812
  0
LINE
  5
91
100
AcDbEntity
  8
0
  6
ByLayer
 62
  256
370
   -1
100
AcDbLine
 10
338.5089111328125
 20
133.5979614257812
 11
337.0864562988281
 21
134.2994537353516
  0
LINE
  5
92
100
AcDbEntity
  8
0
  6
ByLayer
 62
  256
370
   -1
100
AcDbLine
 10
337.0864562988281
 20
134.2994537353516
 11
335.7677307128906
 21
135.1806030273438
  0
LINE
  5
93
100
AcDbEntity
  8
0
  6
ByLayer
 62
  256
370
   -1
100
AcDbLine
 10
335.7677307128906
 20
135.1806030273438
 11
334.5752868652344
 21
136.2263336181641
  0
LINE
  5
94
100
AcDbEntity
  8
0
  6
ByLayer
 62
  256
370
   -1
100
AcDbLine
 10
333.529541015625
 20
137.4187774658203
 11
334.5752868652344
 21
136.2263336181641
  0
LINE
  5
95
100
AcDbEntity
  8
0
  6
ByLayer
 62
  256
370
   -1
100
AcDbLine
 10
332.6484069824219
 20
138.7375030517578
 11
333.529541015625
 21
137.4187774658203
  0
LINE
  5
96
100
AcDbEntity
  8
0
  6
ByLayer
 62
  256
370
   -1
100
AcDbLine
 10
332.6484069824219
 20
138.7375030517578
 11
331.9469299316406
 21
140.1599731445312
  0
LINE
  5
97
100
AcDbEntity
  8
0
  6
ByLayer
 62
  256
370
   -1
100
AcDbLine
 10
331.4371032714844
 20
141.6618194580078
 11
331.9469299316406
 21
140.1599731445312
  0
LINE
  5
98
100
AcDbEntity
  8
0
  6
ByLayer
 62
  256
370
   -1
100
AcDbLine
 10
331.4371032714844
 20
141.6618194580078
 11
331.127685546875
 21
143.2173767089844
  0
LINE
  5
99
100
AcDbEntity
  8
0
  6
ByLayer
 62
  256
370
   -1
100
AcDbLine
 10
331.0239562988281
 20
144.8000030517578
 11
331.127685546875
 21
143.2173767089844
  0
LINE
  5
9A
100
AcDbEntity
  8
0
  6
ByLayer
 62
  256
370
   -1
100
AcDbLine
 10
331.0239562988281
 20
144.8000030517578
 11
331.127685546875
 21
146.3826293945312
  0
LINE
  5
9B
100
AcDbEntity
  8
0
  6
ByLayer
 62
  256
370
   -1
100
AcDbLine
 10
331.127685546875
 20
146.3826293945312
 11
331.4371032714844
 21
147.9381866455078
  0
LINE
  5
9C
100
AcDbEntity
  8
0
  6
ByLayer
 62
  256
370
   -1
100
AcDbLine
 10
326.6927490234375
 20
147.6618194580078
 11
326.9093627929688
 21
148.7507019042969
  0
LINE
  5
9D
100
AcDbEntity
  8
0
  6
ByLayer
 62
  256
370
   -1
100
AcDbLine
 10
326.6927490234375
 20
147.6618194580078
 11
326.1829528808594
 21
146.1599731445312
  0
LINE
  5
9E
100
AcDbEntity
  8
0
  6
ByLayer
 62
  256
370
   -1
100
AcDbLine
 10
325.4814758300781
 20
144.7375030517578
 11
326.1829528808594
 21
146.1599731445312
  0
LINE
  5
9F
100
AcDbEntity
  8
0
  6
ByLayer
 62
  256
370
   -1
100
AcDbLine
 10
325.4814758300781
 20
144.7375030517578
 11
324.6003112792969
 21
143.4187622070312
  0
LINE
  5
A0
100
AcDbEntity
  8
0
  6
ByLayer
 62
  256
370
   -1
100
AcDbLine
 10
323.5545654296875
 20
142.2263336181641
 11
324.6003112792969
 21
143.4187622070312
  0
LINE
  5
A1
100
AcDbEntity
  8
0
  6
ByLayer
 62
  256
370
   -1
100
AcDbLine
 10
323.5545654296875
 20
142.2263336181641
 11
322.3621520996094
 21
141.1806030273438
  0
LINE
  5
A2
100
AcDbEntity
  8
0
  6
ByLayer
 62
  256
370
   -1
100
AcDbLine
 10
322.3621520996094
 20
141.1806030273438
 11
321.0433959960938
 21
140.2994537353516
  0
LINE
  5
A3
100
AcDbEntity
  8
0
  6
ByLayer
 62
  256
370
   -1
100
AcDbLine
 10
321.0433959960938
 20
140.2994537353516
 11
319.6209411621094
 21
139.5979614257812
  0
LINE
  5
A4
100
AcDbEntity
  8
0
  6
ByLayer
 62
  256
370
   -1
100
AcDbLine
 10
318.1190795898438
 20
139.0881500244141
 11
319.6209411621094
 21
139.5979614257812
  0
LINE
  5
A5
100
AcDbEntity
  8
0
  6
ByLayer
 62
  256
370
   -1
100
AcDbLine
 10
318.1190795898438
 20
139.0881500244141
 11
316.5635375976562
 21
138.7787322998047
  0
LINE
  5
A6
100
AcDbEntity
  8
0
  6
ByLayer
 62
  256
370
   -1
100
AcDbLine
 10
314.9808959960938
 20
138.6750030517578
 11
316.5635375976562
 21
138.7787322998047
  0
LINE
  5
A7
100
AcDbEntity
  8
0
  6
ByLayer
 62
  256
370
   -1
100
AcDbLine
 10
313.3982849121094
 20
138.7787322998047
 11
314.9808959960938
 21
138.6750030517578
  0
LINE
  5
A8
100
AcDbEntity
  8
0
  6
ByLayer
 62
  256
370
   -1
100
AcDbLine
 10
313.3982849121094
 20
138.7787322998047
 11
311.8427124023438
 21
139.0881500244141
  0
LINE
  5
A9
100
AcDbEntity
  8
0
  6
ByLayer
 62
  256
370
   -1
100
AcDbLine
 10
311.8427124023438
 20
139.0881500244141
 11
310.3408813476562
 21
139.5979614257812
  0
LINE
  5
AA
100
AcDbEntity
  8
0
  6
ByLayer
 62
  256
370
   -1
100
AcDbLine
 10
310.3408813476562
 20
139.5979614257812
 11
308.9183959960938
 21
140.2994537353516
  0
LINE
  5
AB
100
AcDbEntity
  8
0
  6
ByLayer
 62
  256
370
   -1
100
AcDbLine
 10
308.9183959960938
 20
140.2994537353516
 11
307.5996704101562
 21
141.1806030273438
  0
LINE
  5
AC
100
AcDbEntity
  8
0
  6
ByLayer
 62
  256
370
   -1
100
AcDbLine
 10
307.5996704101562
 20
141.1806030273438
 11
306.4072265625
 21
142.2263336181641
  0
LINE
  5
AD
100
AcDbEntity
  8
0
  6
ByLayer
 62
  256
370
   -1
100
AcDbLine
 10
306.4072265625
 20
142.2263336181641
 11
305.3615112304688
 21
143.4187622070312
  0
LINE
  5
AE
100
AcDbEntity
  8
0
  6
ByLayer
 62
  256
370
   -1
100
AcDbLine
 10
304.4803466796875
 20
144.7375030517578
 11
305.3615112304688
 21
143.4187622070312
  0
LINE
  5
AF
100
AcDbEntity
  8
0
  6
ByLayer
 62
  256
370
   -1
100
AcDbLine
 10
304.4803466796875
 20
144.7375030517578
 11
303.7788696289062
 21
146.1599731445312
  0
LINE
  5
B0
100
AcDbEntity
  8
0
  6
ByLayer
 62
  256
370
   -1
100
AcDbLine
 10
303.26904296875
 20
147.6618194580078
 11
303.7788696289062
 21
146.1599731445312
  0
LINE
  5
B1
100
AcDbEntity
  8
0
  6
ByLayer
 62
  256
370
   -1
100
AcDbLine
 10
302.9596557617188
 20
149.2173767089844
 11
303.26904296875
 21
147.6618194580078
  0
LINE
  5
B2
100
AcDbEntity
  8
0
  6
ByLayer
 62
  256
370
   -1
100
AcDbLine
 10
302.9596557617188
 20
149.2173767089844
 11
302.8558959960938
 21
150.8000030517578
  0
LINE
  5
B3
100
AcDbEntity
  8
0
  6
ByLayer
 62
  256
370
   -1
100
AcDbLine
 10
298.305908203125
 20
150.8000030517578
 11
298.2021789550781
 21
149.2173767089844
  0
LINE
  5
B4
100
AcDbEntity
  8
0
  6
ByLayer
 62
  256
370
   -1
100
AcDbLine
 10
298.2021789550781
 20
149.2173767089844
 11
297.8927612304688
 21
147.6618194580078
  0
LINE
  5
B5
100
AcDbEntity
  8
0
  6
ByLayer
 62
  256
370
   -1
100
AcDbLine
 10
297.3829345703125
 20
146.1599731445312
 11
297.8927612304688
 21
147.6618194580078
  0
LINE
  5
B6
100
AcDbEntity
  8
0
  6
ByLayer
 62
  256
370
   -1
100
AcDbLine
 10
297.3829345703125
 20
146.1599731445312
 11
296.6814575195312
 21
144.7375030517578
  0
LINE
  5
B7
100
AcDbEntity
  8
0
  6
ByLayer
 62
  256
370
   -1
100
AcDbLine
 10
295.8003234863281
 20
143.4187622070312
 11
296.6814575195312
 21
144.7375030517578
  0
LINE
  5
B8
100
AcDbEntity
  8
0
  6
ByLayer
 62
  256
370
   -1
100
AcDbLine
 10
294.7545776367188
 20
142.2263336181641
 11
295.8003234863281
 21
143.4187622070312
  0
LINE
  5
B9
100
AcDbEntity
  8
0
  6
ByLayer
 62
  256
370
   -1
100
AcDbLine
 10
294.7545776367188
 20
142.2263336181641
 11
293.5621337890625
 21
141.1806030273438
  0
LINE
  5
BA
100
AcDbEntity
  8
0
  6
ByLayer
 62
  256
370
   -1
100
AcDbLine
 10
293.5621337890625
 20
141.1806030273438
 11
292.243408203125
 21
140.2994537353516
  0
LINE
  5
BB
100
AcDbEntity
  8
0
  6
ByLayer
 62
  256
370
   -1
100
AcDbLine
 10
290.8209228515625
 20
139.5979614257812
 11
292.243408203125
 21
140.2994537353516
  0
LINE
  5
BC
100
AcDbEntity
  8
0
  6
ByLayer
 62
  256
370
   -1
100
AcDbLine
 10
290.8209228515625
 20
139.5979614257812
 11
289.319091796875
 21
139.0881500244141
  0
LINE
  5
BD
100
AcDbEntity
  8
0
  6
ByLayer
 62
  256
370
   -1
100
AcDbLine
 10
289.319091796875
 20
139.0881500244141
 11
287.7635498046875
 21
138.7787322998047
  0
LINE
  5
BE
100
AcDbEntity
  8
0
  6
ByLayer
 62
  256
370
   -1
100
AcDbLine
 10
286.180908203125
 20
138.6750030517578
 11
287.7635498046875
 21
138.7787322998047
  0
LINE
  5
BF
100
AcDbEntity
  8
0
  6
ByLayer
 62
  256
370
   -1
100
AcDbLine
 10
286.180908203125
 20
138.6750030517578
 11
284.5982666015625
 21
138.7787322998047
  0
LINE
  5
C0
100
AcDbEntity
  8
0
  6
ByLayer
 62
  256
370
   -1
100
AcDbLine
 10
284.5982666015625
 20
138.7787322998047
 11
283.042724609375
 21
139.0881500244141
  0
LINE
  5
C1
100
AcDbEntity
  8
0
  6
ByLayer
 62
  256
370
   -1
100
AcDbLine
 10
283.042724609375
 20
139.0881500244141
 11
281.5408630371094
 21
139.5979614257812
  0
LINE
  5
C2
100
AcDbEntity
  8
0
  6
ByLayer
 62
  256
370
   -1
100
AcDbLine
 10
281.5408630371094
 20
139.5979614257812
 11
280.118408203125
 21
140.2994537353516
  0
LINE
  5
C3
100
AcDbEntity
  8
0
  6
ByLayer
 62
  256
370
   -1
100
AcDbLine
 10
280.118408203125
 20
140.2994537353516
 11
278.7996826171875
 21
141.1806030273438
  0
LINE
  5
C4
100
AcDbEntity
  8
0
  6
ByLayer
 62
  256
370
   -1
100
AcDbLine
 10
277.6072387695312
 20
142.2263336181641
 11
278.7996826171875
 21
141.1806030273438
  0
LINE
  5
C5
100
AcDbEntity
  8
0
  6
ByLayer
 62
  256
370
   -1
100
AcDbLine
 10
277.6072387695312
 20
142.2263336181641
 11
276.5614929199219
 21
143.4187622070312
  0
LINE
  5
C6
100
AcDbEntity
  8
0
  6
ByLayer
 62
  256
370
   -1
100
AcDbLine
 10
275.6803588867188
 20
144.7375030517578
 11
276.5614929199219
 21
143.4187622070312
  0
LINE
  5
C7
100
AcDbEntity
  8
0
  6
ByLayer
 62
  256
370
   -1
100
AcDbLine
 10
275.6803588867188
 20
144.7375030517578
 11
274.9788818359375
 21
146.1599731445312
  0
LINE
  5
C8
100
AcDbEntity
  8
0
  6
ByLayer
 62
  256
370
   -1
100
AcDbLine
 10
270.8537902832031
 20
144.1462097167969
 11
271.2020263671875
 21
143.4400329589844
  0
LINE
  5
C9
100
AcDbEntity
  8
0
  6
ByLayer
 62
  256
370
   -1
100
AcDbLine
 10
271.7118530273438
 20
141.9381866455078
 11
271.2020263671875
 21
143.4400329589844
  0
LINE
  5
CA
100
AcDbEntity
  8
0
  6
ByLayer
 62
  256
370
   -1
100
AcDbLine
 10
272.0212707519531
 20
140.3826293945312
 11
271.7118530273438
 21
141.9381866455078
  0
LINE
  5
CB
100
AcDbEntity
  8
0
  6
ByLayer
 62
  256
370
   -1
100
AcDbLine
 10
272.125
 20
138.8000030517578
 11
272.0212707519531
 21
140.3826293945312
  0
LINE
  5
CC
100
AcDbEntity
  8
0
  6
ByLayer
 62
  256
370
   -1
100
AcDbLine
 10
272.125
 20
138.8000030517578
 11
272.0212707519531
 21
137.2173767089844
  0
LINE
  5
CD
100
AcDbEntity
  8
0
  6
ByLayer
 62
  256
370
   -1
100
AcDbLine
 10
272.0212707519531
 20
137.2173767089844
 11
271.7118530273438
 21
135.6618194580078
  0
LINE
  5
CE
100
AcDbEntity
  8
0
  6
ByLayer
 62
  256
370
   -1
100
AcDbLine
 10
271.2020263671875
 20
134.1599578857422
 11
271.7118530273438
 21
135.6618194580078
  0
LINE
  5
CF
100
AcDbEntity
  8
0
  6
ByLayer
 62
  256
370
   -1
100
AcDbLine
 10
271.2020263671875
 20
134.1599578857422
 11
270.5005493164062
 21
132.7375030517578
  0
LINE
  5
D0
100
AcDbEntity
  8
0
  6
ByLayer
 62
  256
370
   -1
100
AcDbLine
 10
269.6194152832031
 20
131.4187622070312
 11
270.5005493164062
 21
132.7375030517578
  0
LINE
  5
D1
100
AcDbEntity
  8
0
  6
ByLayer
 62
  256
370
   -1
100
AcDbLine
 10
269.6194152832031
 20
131.4187622070312
 11
268.5736694335938
 21
130.2263336181641
  0
LINE
  5
D2
100
AcDbEntity
  8
0
  6
ByLayer
 62
  256
370
   -1
100
AcDbLine
 10
267.3812255859375
 20
129.1805877685547
 11
268.5736694335938
 21
130.2263336181641
  0
LINE
  5
D3
100
AcDbEntity
  8
0
  6
ByLayer
 62
  256
370
   -1
100
AcDbLine
 10
267.3812255859375
 20
129.1805877685547
 11
266.0625
 21
128.2994384765625
  0
LINE
  5
D4
100
AcDbEntity
  8
0
  6
ByLayer
 62
  256
370
   -1
100
AcDbLine
 10
266.0625
 20
128.2994384765625
 11
264.6400451660156
 21
127.5979614257812
  0
LINE
  5
D5
100
AcDbEntity
  8
0
  6
ByLayer
 62
  256
370
   -1
100
AcDbLine
 10
264.6400451660156
 20
127.5979614257812
 11
263.13818359375
 21
127.0881500244141
  0
LINE
  5
D6
100
AcDbEntity
  8
0
  6
ByLayer
 62
  256
370
   -1
100
AcDbLine
 10
263.13818359375
 20
127.0881500244141
 11
261.5826416015625
 21
126.7787322998047
  0
LINE
  5
D7
100
AcDbEntity
  8
0
  6
ByLayer
 62
  256
370
   -1
100
AcDbLine
 10
261.5826416015625
 20
126.7787322998047
 11
260
 21
126.6750030517578
  0
LINE
  5
D8
100
AcDbEntity
  8
0
  6
ByLayer
 62
  256
370
   -1
100
AcDbLine
 10
261.5826416015625
 20
122.0212707519531
 11
260
 21
122.125
  0
LINE
  5
D9
100
AcDbEntity
  8
0
  6
ByLayer
 62
  256
370
   -1
100
AcDbLine
 10
263.13818359375
 20
121.7118530273438
 11
261.5826416015625
 21
122.0212707519531
  0
LINE
  5
DA
100
AcDbEntity
  8
0
  6
ByLayer
 62
  256
370
   -1
100
AcDbLine
 10
264.6400451660156
 20
121.2020416259766
 11
263.13818359375
 21
121.7118530273438
  0
LINE
  5
DB
100
AcDbEntity
  8
0
  6
ByLayer
 62
  256
370
   -1
100
AcDbLine
 10
266.0625
 20
120.5005569458008
 11
264.6400451660156
 21
121.2020416259766
  0
LINE
  5
DC
100
AcDbEntity
  8
0
  6
ByLayer
 62
  256
370
   -1
100
AcDbLine
 10
267.3812255859375
 20
119.6194076538086
 11
266.0625
 21
120.5005569458008
  0
LINE
  5
DD
100
AcDbEntity
  8
0
  6
ByLayer
 62
  256
370
   -1
100
AcDbLine
 10
267.3812255859375
 20
119.6194076538086
 11
268.5736694335938
 21
118.5736694335938
  0
LINE
  5
DE
100
AcDbEntity
  8
0
  6
ByLayer
 62
  256
370
   -1
100
AcDbLine
 10
268.5736694335938
 20
118.5736694335938
 11
269.6194152832031
 21
117.381233215332
  0
LINE
  5
DF
100
AcDbEntity
  8
0
  6
ByLayer
 62
  256
370
   -1
100
AcDbLine
 10
270.5005493164062
 20
116.0625
 11
269.6194152832031
 21
117.381233215332
  0
LINE
  5
E0
100
AcDbEntity
  8
0
  6
ByLayer
 62
  256
370
   -1
100
AcDbLine
 10
270.5005493164062
 20
116.0625
 11
271.2020263671875
 21
114.6400375366211
  0
LINE
  5
E1
100
AcDbEntity
  8
0
  6
ByLayer
 62
  256
370
   -1
100
AcDbLine
 10
219.0613250732422
 20
41.06132507324219
 11
218.5177154541016
 21
41.68120193481445
  0
LINE
  5
E2
100
AcDbEntity
  8
0
  6
ByLayer
 62
  256
370
   -1
100
AcDbLine
 10
220
 20
15
 11
210
 21
15
  0
LINE
  5
E3
100
AcDbEntity
  8
0
  6
ByLayer
 62
  256
370
   -1
100
AcDbLine
 10
222.9949645996094
 20
38.43295288085938
 11
224.496826171875
 21
37.92314147949219
  0
LINE
  5
E4
100
AcDbEntity
  8
0
  6
ByLayer
 62
  256
370
   -1
100
AcDbLine
 10
221.5724945068359
 20
39.13443756103516
 11
222.9949645996094
 21
38.43295288085938
  0
LINE
  5
E5
100
AcDbEntity
  8
0
  6
ByLayer
 62
  256
370
   -1
100
AcDbLine
 10
221.5724945068359
 20
39.13443756103516
 11
220.2537689208984
 21
40.01558685302734
  0
LINE
  5
E6
100
AcDbEntity
  8
0
  6
ByLayer
 62
  256
370
   -1
100
AcDbLine
 10
219.0613250732422
 20
41.06132507324219
 11
220.2537689208984
 21
40.01558685302734
  0
LINE
  5
E7
100
AcDbEntity
  8
0
  6
ByLayer
 62
  256
370
   -1
100
AcDbLine
 10
270.8537902832031
 20
144.1462097167969
 11
270.5005493164062
 21
144.8625030517578
  0
LINE
  5
E8
100
AcDbEntity
  8
0
  6
ByLayer
 62
  256
370
   -1
100
AcDbLine
 10
274.4690551757812
 20
147.6618194580078
 11
274.9788818359375
 21
146.1599731445312
  0
LINE
  5
E9
100
AcDbEntity
  8
0
  6
ByLayer
 62
  256
370
   -1
100
AcDbLine
 10
274.4690551757812
 20
147.6618194580078
 11
274.1596374511719
 21
149.2173767089844
  0
LINE
  5
EA
100
AcDbEntity
  8
0
  6
ByLayer
 62
  256
370
   -1
100
AcDbLine
 10
274.055908203125
 20
150.8000030517578
 11
274.1596374511719
 21
149.2173767089844
  0
LINE
  5
EB
100
AcDbEntity
  8
0
  6
ByLayer
 62
  256
370
   -1
100
AcDbLine
 10
274.055908203125
 20
150.8000030517578
 11
274.1596374511719
 21
152.3826293945312
  0
LINE
  5
EC
100
AcDbEntity
  8
0
  6
ByLayer
 62
  256
370
   -1
100
AcDbLine
 10
274.4690551757812
 20
153.9381866455078
 11
274.1596374511719
 21
152.3826293945312
  0
LINE
  5
ED
100
AcDbEntity
  8
0
  6
ByLayer
 62
  256
370
   -1
100
AcDbLine
 10
274.4690551757812
 20
153.9381866455078
 11
274.9788818359375
 21
155.4400329589844
  0
LINE
  5
EE
100
AcDbEntity
  8
0
  6
ByLayer
 62
  256
370
   -1
100
AcDbLine
 10
275.6803588867188
 20
156.8625030517578
 11
274.9788818359375
 21
155.4400329589844
  0
LINE
  5
EF
100
AcDbEntity
  8
0
  6
ByLayer
 62
  256
370
   -1
100
AcDbLine
 10
275.6803588867188
 20
156.8625030517578
 11
276.5614929199219
 21
158.1812438964844
  0
LINE
  5
F0
100
AcDbEntity
  8
0
  6
ByLayer
 62
  256
370
   -1
100
AcDbLine
 10
277.6072387695312
 20
159.3736724853516
 11
276.5614929199219
 21
158.1812438964844
  0
LINE
  5
F1
100
AcDbEntity
  8
0
  6
ByLayer
 62
  256
370
   -1
100
AcDbLine
 10
277.6072387695312
 20
159.3736724853516
 11
278.7996826171875
 21
160.4194030761719
  0
LINE
  5
F2
100
AcDbEntity
  8
0
  6
ByLayer
 62
  256
370
   -1
100
AcDbLine
 10
278.7996826171875
 20
160.4194030761719
 11
280.118408203125
 21
161.3005676269531
  0
LINE
  5
F3
100
AcDbEntity
  8
0
  6
ByLayer
 62
  256
370
   -1
100
AcDbLine
 10
280.118408203125
 20
161.3005676269531
 11
281.5408630371094
 21
162.0020446777344
  0
LINE
  5
F4
100
AcDbEntity
  8
0
  6
ByLayer
 62
  256
370
   -1
100
AcDbLine
 10
283.042724609375
 20
162.5118560791016
 11
281.5408630371094
 21
162.0020446777344
  0
LINE
  5
F5
100
AcDbEntity
  8
0
  6
ByLayer
 62
  256
370
   -1
100
AcDbLine
 10
283.042724609375
 20
162.5118560791016
 11
284.5982666015625
 21
162.8212738037109
  0
LINE
  5
F6
100
AcDbEntity
  8
0
  6
ByLayer
 62
  256
370
   -1
100
AcDbLine
 10
284.5982666015625
 20
162.8212738037109
 11
286.180908203125
 21
162.9250030517578
  0
LINE
  5
F7
100
AcDbEntity
  8
0
  6
ByLayer
 62
  256
370
   -1
100
AcDbLine
 10
287.7635498046875
 20
162.8212738037109
 11
286.180908203125
 21
162.9250030517578
  0
LINE
  5
F8
100
AcDbEntity
  8
0
  6
ByLayer
 62
  256
370
   -1
100
AcDbLine
 10
287.7635498046875
 20
162.8212738037109
 11
289.319091796875
 21
162.5118560791016
  0
LINE
  5
F9
100
AcDbEntity
  8
0
  6
ByLayer
 62
  256
370
   -1
100
AcDbLine
 10
289.319091796875
 20
162.5118560791016
 11
290.8209228515625
 21
162.0020446777344
  0
LINE
  5
FA
100
AcDbEntity
  8
0
  6
ByLayer
 62
  256
370
   -1
100
AcDbLine
 10
292.243408203125
 20
161.3005676269531
 11
290.8209228515625
 21
162.0020446777344
  0
LINE
  5
FB
100
AcDbEntity
  8
0
  6
ByLayer
 62
  256
370
   -1
100
AcDbLine
 10
293.5621337890625
 20
160.4194030761719
 11
292.243408203125
 21
161.3005676269531
  0
LINE
  5
FC
100
AcDbEntity
  8
0
  6
ByLayer
 62
  256
370
   -1
100
AcDbLine
 10
293.5621337890625
 20
160.4194030761719
 11
294.7545776367188
 21
159.3736724853516
  0
LINE
  5
FD
100
AcDbEntity
  8
0
  6
ByLayer
 62
  256
370
   -1
100
AcDbLine
 10
295.8003234863281
 20
158.1812438964844
 11
294.7545776367188
 21
159.3736724853516
  0
LINE
  5
FE
100
AcDbEntity
  8
0
  6
ByLayer
 62
  256
370
   -1
100
AcDbLine
 10
295.8003234863281
 20
158.1812438964844
 11
296.6814575195312
 21
156.8625030517578
  0
LINE
  5
FF
100
AcDbEntity
  8
0
  6
ByLayer
 62
  256
370
   -1
100
AcDbLine
 10
297.3829345703125
 20
155.4400329589844
 11
296.6814575195312
 21
156.8625030517578
  0
LINE
  5
100
100
AcDbEntity
  8
0
  6
ByLayer
 62
  256
370
   -1
100
AcDbLine
 10
297.3829345703125
 20
155.4400329589844
 11
297.8927612304688
 21
153.9381866455078
  0
LINE
  5
101
100
AcDbEntity
  8
0
  6
ByLayer
 62
  256
370
   -1
100
AcDbLine
 10
298.2021789550781
 20
152.3826293945312
 11
297.8927612304688
 21
153.9381866455078
  0
LINE
  5
102
100
AcDbEntity
  8
0
  6
ByLayer
 62
  256
370
   -1
100
AcDbLine
 10
298.305908203125
 20
150.8000030517578
 11
298.2021789550781
 21
152.3826293945312
  0
LINE
  5
103
100
AcDbEntity
  8
0
  6
ByLayer
 62
  256
370
   -1
100
AcDbLine
 10
302.8558959960938
 20
150.8000030517578
 11
302.9596557617188
 21
152.3826293945312
  0
LINE
  5
104
100
AcDbEntity
  8
0
  6
ByLayer
 62
  256
370
   -1
100
AcDbLine
 10
303.26904296875
 20
153.9381866455078
 11
302.9596557617188
 21
152.3826293945312
  0
LINE
  5
105
100
AcDbEntity
  8
0
  6
ByLayer
 62
  256
370
   -1
100
AcDbLine
 10
303.26904296875
 20
153.9381866455078
 11
303.7788696289062
 21
155.4400329589844
  0
LINE
  5
106
100
AcDbEntity
  8
0
  6
ByLayer
 62
  256
370
   -1
100
AcDbLine
 10
304.4803466796875
 20
156.8625030517578
 11
303.7788696289062
 21
155.4400329589844
  0
LINE
  5
107
100
AcDbEntity
  8
0
  6
ByLayer
 62
  256
370
   -1
100
AcDbLine
 10
304.4803466796875
 20
156.8625030517578
 11
305.3615112304688
 21
158.1812438964844
  0
LINE
  5
108
100
AcDbEntity
  8
0
  6
ByLayer
 62
  256
370
   -1
100
AcDbLine
 10
306.4072265625
 20
159.3736724853516
 11
305.3615112304688
 21
158.1812438964844
  0
LINE
  5
109
100
AcDbEntity
  8
0
  6
ByLayer
 62
  256
370
   -1
100
AcDbLine
 10
306.4072265625
 20
159.3736724853516
 11
307.5996704101562
 21
160.4194030761719
  0
LINE
  5
10A
100
AcDbEntity
  8
0
  6
ByLayer
 62
  256
370
   -1
100
AcDbLine
 10
308.9183959960938
 20
161.3005676269531
 11
307.5996704101562
 21
160.4194030761719
  0
LINE
  5
10B
100
AcDbEntity
  8
0
  6
ByLayer
 62
  256
370
   -1
100
AcDbLine
 10
308.9183959960938
 20
161.3005676269531
 11
310.3408813476562
 21
162.0020446777344
  0
LINE
  5
10C
100
AcDbEntity
  8
0
  6
ByLayer
 62
  256
370
   -1
100
AcDbLine
 10
311.8427124023438
 20
162.5118560791016
 11
310.3408813476562
 21
162.0020446777344
  0
LINE
  5
10D
100
AcDbEntity
  8
0
  6
ByLayer
 62
  256
370
   -1
100
AcDbLine
 10
311.8427124023438
 20
162.5118560791016
 11
313.3982849121094
 21
162.8212738037109
  0
LINE
  5
10E
100
AcDbEntity
  8
0
  6
ByLayer
 62
  256
370
   -1
100
AcDbLine
 10
314.9808959960938
 20
162.9250030517578
 11
313.3982849121094
 21
162.8212738037109
  0
LINE
  5
10F
100
AcDbEntity
  8
0
  6
ByLayer
 62
  256
370
   -1
100
AcDbLine
 10
314.9808959960938
 20
162.9250030517578
 11
316.5635375976562
 21
162.8212738037109
  0
LINE
  5
110
100
AcDbEntity
  8
0
  6
ByLayer
 62
  256
370
   -1
100
AcDbLine
 10
318.1190795898438
 20
162.5118560791016
 11
316.5635375976562
 21
162.8212738037109
  0
LINE
  5
111
100
AcDbEntity
  8
0
  6
ByLayer
 62
  256
370
   -1
100
AcDbLine
 10
318.1190795898438
 20
162.5118560791016
 11
319.6209411621094
 21
162.0020446777344
  0
LINE
  5
112
100
AcDbEntity
  8
0
  6
ByLayer
 62
  256
370
   -1
100
AcDbLine
 10
321.0433959960938
 20
161.3005676269531
 11
319.6209411621094
 21
162.0020446777344
  0
LINE
  5
113
100
AcDbEntity
  8
0
  6
ByLayer
 62
  256
370
   -1
100
AcDbLine
 10
321.0433959960938
 20
161.3005676269531
 11
322.3621520996094
 21
160.4194030761719
  0
LINE
  5
114
100
AcDbEntity
  8
0
  6
ByLayer
 62
  256
370
   -1
100
AcDbLine
 10
323.5545654296875
 20
159.3736724853516
 11
322.3621520996094
 21
160.4194030761719
  0
LINE
  5
115
100
AcDbEntity
  8
0
  6
ByLayer
 62
  256
370
   -1
100
AcDbLine
 10
323.5545654296875
 20
159.3736724853516
 11
324.6003112792969
 21
158.1812438964844
  0
LINE
  5
116
100
AcDbEntity
  8
0
  6
ByLayer
 62
  256
370
   -1
100
AcDbLine
 10
325.4814758300781
 20
156.8625030517578
 11
324.6003112792969
 21
158.1812438964844
  0
LINE
  5
117
100
AcDbEntity
  8
0
  6
ByLayer
 62
  256
370
   -1
100
AcDbLine
 10
325.4814758300781
 20
156.8625030517578
 11
326.1829528808594
 21
155.4400329589844
  0
LINE
  5
118
100
AcDbEntity
  8
0
  6
ByLayer
 62
  256
370
   -1
100
AcDbLine
 10
326.1829528808594
 20
155.4400329589844
 11
326.6927490234375
 21
153.9381866455078
  0
LINE
  5
119
100
AcDbEntity
  8
0
  6
ByLayer
 62
  256
370
   -1
100
AcDbLine
 10
327.002197265625
 20
152.3826293945312
 11
326.6927490234375
 21
153.9381866455078
  0
LINE
  5
11A
100
AcDbEntity
  8
0
  6
ByLayer
 62
  256
370
   -1
100
AcDbLine
 10
327.1058959960938
 20
150.8000030517578
 11
327.002197265625
 21
152.3826293945312
  0
LINE
  5
11B
100
AcDbEntity
  8
0
  6
ByLayer
 62
  256
370
   -1
100
AcDbLine
 10
327.1058959960938
 20
150.8000030517578
 11
327.002197265625
 21
149.2173767089844
  0
LINE
  5
11C
100
AcDbEntity
  8
0
  6
ByLayer
 62
  256
370
   -1
100
AcDbLine
 10
326.9093627929688
 20
148.7507019042969
 11
327.002197265625
 21
149.2173767089844
  0
LINE
  5
11D
100
AcDbEntity
  8
0
  6
ByLayer
 62
  256
370
   -1
100
AcDbLine
 10
331.9469299316406
 20
149.4400329589844
 11
331.4371032714844
 21
147.9381866455078
  0
LINE
  5
11E
100
AcDbEntity
  8
0
  6
ByLayer
 62
  256
370
   -1
100
AcDbLine
 10
331.9469299316406
 20
149.4400329589844
 11
332.6484069824219
 21
150.8625030517578
  0
LINE
  5
11F
100
AcDbEntity
  8
0
  6
ByLayer
 62
  256
370
   -1
100
AcDbLine
 10
333.529541015625
 20
152.1812438964844
 11
332.6484069824219
 21
150.8625030517578
  0
LINE
  5
120
100
AcDbEntity
  8
0
  6
ByLayer
 62
  256
370
   -1
100
AcDbLine
 10
333.529541015625
 20
152.1812438964844
 11
334.5752868652344
 21
153.3736724853516
  0
LINE
  5
121
100
AcDbEntity
  8
0
  6
ByLayer
 62
  256
370
   -1
100
AcDbLine
 10
335.7677307128906
 20
154.4194030761719
 11
334.5752868652344
 21
153.3736724853516
  0
LINE
  5
122
100
AcDbEntity
  8
0
  6
ByLayer
 62
  256
370
   -1
100
AcDbLine
 10
335.7677307128906
 20
154.4194030761719
 11
337.0864562988281
 21
155.3005676269531
  0
LINE
  5
123
100
AcDbEntity
  8
0
  6
ByLayer
 62
  256
370
   -1
100
AcDbLine
 10
338.5089111328125
 20
156.0020446777344
 11
337.0864562988281
 21
155.3005676269531
  0
LINE
  5
124
100
AcDbEntity
  8
0
  6
ByLayer
 62
  256
370
   -1
100
AcDbLine
 10
338.5089111328125
 20
156.0020446777344
 11
340.0107727050781
 21
156.5118560791016
  0
LINE
  5
125
100
AcDbEntity
  8
0
  6
ByLayer
 62
  256
370
   -1
100
AcDbLine
 10
341.5663452148438
 20
156.8212738037109
 11
340.0107727050781
 21
156.5118560791016
  0
LINE
  5
126
100
AcDbEntity
  8
0
  6
ByLayer
 62
  256
370
   -1
100
AcDbLine
 10
341.5663452148438
 20
156.8212738037109
 11
343.1489562988281
 21
156.9250030517578
  0
LINE
  5
127
100
AcDbEntity
  8
0
  6
ByLayer
 62
  256
370
   -1
100
AcDbLine
 10
344.7315979003906
 20
156.8212738037109
 11
343.1489562988281
 21
156.9250030517578
  0
LINE
  5
128
100
AcDbEntity
  8
0
  6
ByLayer
 62
  256
370
   -1
100
AcDbLine
 10
344.7315979003906
 20
156.8212738037109
 11
346.2871398925781
 21
156.5118560791016
  0
LINE
  5
129
100
AcDbEntity
  8
0
  6
ByLayer
 62
  256
370
   -1
100
AcDbLine
 10
347.7890014648438
 20
156.0020446777344
 11
346.2871398925781
 21
156.5118560791016
  0
LINE
  5
12A
100
AcDbEntity
  8
0
  6
ByLayer
 62
  256
370
   -1
100
AcDbLine
 10
347.7890014648438
 20
156.0020446777344
 11
349.2114562988281
 21
155.3005676269531
  0
LINE
  5
12B
100
AcDbEntity
  8
0
  6
ByLayer
 62
  256
370
   -1
100
AcDbLine
 10
350.5302124023438
 20
154.4194030761719
 11
349.2114562988281
 21
155.3005676269531
  0
LINE
  5
12C
100
AcDbEntity
  8
0
  6
ByLayer
 62
  256
370
   -1
100
AcDbLine
 10
350.5302124023438
 20
154.4194030761719
 11
351.7226257324219
 21
153.3736724853516
  0
LINE
  5
12D
100
AcDbEntity
  8
0
  6
ByLayer
 62
  256
370
   -1
100
AcDbLine
 10
352.7683715820312
 20
152.1812438964844
 11
351.7226257324219
 21
153.3736724853516
  0
LINE
  5
12E
100
AcDbEntity
  8
0
  6
ByLayer
 62
  256
370
   -1
100
AcDbLine
 10
352.7683715820312
 20
152.1812438964844
 11
353.6495361328125
 21
150.8625030517578
  0
LINE
  5
12F
100
AcDbEntity
  8
0
  6
ByLayer
 62
  256
370
   -1
100
AcDbLine
 10
354.3510131835938
 20
149.4400329589844
 11
353.6495361328125
 21
150.8625030517578
  0
LINE
  5
130
100
AcDbEntity
  8
0
  6
ByLayer
 62
  256
370
   -1
100
AcDbLine
 10
354.3510131835938
 20
149.4400329589844
 11
354.8608093261719
 21
147.9381866455078
  0
LINE
  5
131
100
AcDbEntity
  8
0
  6
ByLayer
 62
  256
370
   -1
100
AcDbLine
 10
355.1702270507812
 20
146.3826293945312
 11
354.8608093261719
 21
147.9381866455078
  0
LINE
  5
132
100
AcDbEntity
  8
0
  6
ByLayer
 62
  256
370
   -1
100
AcDbLine
 10
355.2739562988281
 20
144.8000030517578
 11
355.1702270507812
 21
146.3826293945312
  0
LINE
  5
133
100
AcDbEntity
  8
0
  6
ByLayer
 62
  256
370
   -1
100
AcDbLine
 10
355.2739562988281
 20
144.8000030517578
 11
355.1702270507812
 21
143.2173767089844
  0
LINE
  5
134
100
AcDbEntity
  8
0
  6
ByLayer
 62
  256
370
   -1
100
AcDbLine
 10
355.1702270507812
 20
143.2173767089844
 11
354.8608093261719
 21
141.6618194580078
  0
LINE
  5
135
100
AcDbEntity
  8
0
  6
ByLayer
 62
  256
370
   -1
100
AcDbLine
 10
354.8608093261719
 20
141.6618194580078
 11
354.3510131835938
 21
140.1599731445312
  0
LINE
  5
136
100
AcDbEntity
  8
0
  6
ByLayer
 62
  256
370
   -1
100
AcDbLine
 10
354.3510131835938
 20
140.1599731445312
 11
353.6495361328125
 21
138.7375030517578
  0
LINE
  5
137
100
AcDbEntity
  8
0
  6
ByLayer
 62
  256
370
   -1
100
AcDbLine
 10
353.6495361328125
 20
138.7375030517578
 11
352.7683715820312
 21
137.4187774658203
  0
LINE
  5
138
100
AcDbEntity
  8
0
  6
ByLayer
 62
  256
370
   -1
100
AcDbLine
 10
352.7683715820312
 20
137.4187774658203
 11
351.7226257324219
 21
136.2263336181641
  0
LINE
  5
139
100
AcDbEntity
  8
0
  6
ByLayer
 62
  256
370
   -1
100
AcDbLine
 10
351.7226257324219
 20
136.2263336181641
 11
350.5302124023438
 21
135.1806030273438
  0
LINE
  5
13A
100
AcDbEntity
  8
0
  6
ByLayer
 62
  256
370
   -1
100
AcDbLine
 10
350.5302124023438
 20
135.1806030273438
 11
349.2114562988281
 21
134.2994537353516
  0
LINE
  5
13B
100
AcDbEntity
  8
0
  6
ByLayer
 62
  256
370
   -1
100
AcDbLine
 10
347.7890014648438
 20
133.5979614257812
 11
349.2114562988281
 21
134.2994537353516
  0
LINE
  5
13C
100
AcDbEntity
  8
0
  6
ByLayer
 62
  256
370
   -1
100
AcDbLine
 10
346.2871398925781
 20
133.0881500244141
 11
347.7890014648438
 21
133.5979614257812
  0
LINE
  5
13D
100
AcDbEntity
  8
0
  6
ByLayer
 62
  256
370
   -1
100
AcDbLine
 10
346.2871398925781
 20
133.0881500244141
 11
344.7315979003906
 21
132.7787322998047
  0
LINE
  5
13E
100
AcDbEntity
  8
0
  6
ByLayer
 62
  256
370
   -1
100
AcDbLine
 10
343.1489562988281
 20
132.6750030517578
 11
344.7315979003906
 21
132.7787322998047
  0
LINE
  5
13F
100
AcDbEntity
  8
0
  6
ByLayer
 62
  256
370
   -1
100
AcDbLine
 10
343.1489562988281
 20
128.125
 11
344.7315979003906
 21
128.0212707519531
  0
LINE
  5
140
100
AcDbEntity
  8
0
  6
ByLayer
 62
  256
370
   -1
100
AcDbLine
 10
346.2871398925781
 20
127.7118530273438
 11
344.7315979003906
 21
128.0212707519531
  0
LINE
  5
141
100
AcDbEntity
  8
0
  6
ByLayer
 62
  256
370
   -1
100
AcDbLine
 10
346.2871398925781
 20
127.7118530273438
 11
347.7890014648438
 21
127.2020416259766
  0
LINE
  5
142
100
AcDbEntity
  8
0
  6
ByLayer
 62
  256
370
   -1
100
AcDbLine
 10
347.7890014648438
 20
127.2020416259766
 11
349.2114562988281
 21
126.5005569458008
  0
LINE
  5
143
100
AcDbEntity
  8
0
  6
ByLayer
 62
  256
370
   -1
100
AcDbLine
 10
350.5302124023438
 20
125.6194076538086
 11
349.2114562988281
 21
126.5005569458008
  0
LINE
  5
144
100
AcDbEntity
  8
0
  6
ByLayer
 62
  256
370
   -1
100
AcDbLine
 10
351.7226257324219
 20
124.5736694335938
 11
350.5302124023438
 21
125.6194076538086
  0
LINE
  5
145
100
AcDbEntity
  8
0
  6
ByLayer
 62
  256
370
   -1
100
AcDbLine
 10
352.7683715820312
 20
123.3812255859375
 11
351.7226257324219
 21
124.5736694335938
  0
LINE
  5
146
100
AcDbEntity
  8
0
  6
ByLayer
 62
  256
370
   -1
100
AcDbLine
 10
353.6495361328125
 20
122.0625
 11
352.7683715820312
 21
123.3812255859375
  0
LINE
  5
147
100
AcDbEntity
  8
0
  6
ByLayer
 62
  256
370
   -1
100
AcDbLine
 10
354.3510131835938
 20
120.6400299072266
 11
353.6495361328125
 21
122.0625
  0
LINE
  5
148
100
AcDbEntity
  8
0
  6
ByLayer
 62
  256
370
   -1
100
AcDbLine
 10
354.8608093261719
 20
119.1381759643555
 11
354.3510131835938
 21
120.6400299072266
  0
LINE
  5
149
100
AcDbEntity
  8
0
  6
ByLayer
 62
  256
370
   -1
100
AcDbLine
 10
355.1702270507812
 20
117.5826263427734
 11
354.8608093261719
 21
119.1381759643555
  0
LINE
  5
14A
100
AcDbEntity
  8
0
  6
ByLayer
 62
  256
370
   -1
100
AcDbLine
 10
355.2739562988281
 20
116
 11
355.1702270507812
 21
117.5826263427734
  0
LINE
  5
14B
100
AcDbEntity
  8
0
  6
ByLayer
 62
  256
370
   -1
100
AcDbLine
 10
355.2739562988281
 20
116
 11
355.1702270507812
 21
114.417366027832
  0
LINE
  5
14C
100
AcDbEntity
  8
0
  6
ByLayer
 62
  256
370
   -1
100
AcDbLine
 10
355.1702270507812
 20
114.417366027832
 11
354.8608093261719
 21
112.86181640625
  0
LINE
  5
14D
100
AcDbEntity
  8
0
  6
ByLayer
 62
  256
370
   -1
100
AcDbLine
 10
354.3510131835938
 20
111.3599624633789
 11
354.8608093261719
 21
112.86181640625
  0
LINE
  5
14E
100
AcDbEntity
  8
0
  6
ByLayer
 62
  256
370
   -1
100
AcDbLine
 10
354.3510131835938
 20
111.3599624633789
 11
353.6495361328125
 21
109.9375
  0
LINE
  5
14F
100
AcDbEntity
  8
0
  6
ByLayer
 62
  256
370
   -1
100
AcDbLine
 10
353.6495361328125
 20
109.9375
 11
352.7683715820312
 21
108.618766784668
  0
LINE
  5
150
100
AcDbEntity
  8
0
  6
ByLayer
 62
  256
370
   -1
100
AcDbLine
 10
352.7683715820312
 20
108.618766784668
 11
351.7226257324219
 21
107.4263305664062
  0
LINE
  5
151
100
AcDbEntity
  8
0
  6
ByLayer
 62
  256
370
   -1
100
AcDbLine
 10
350.5302124023438
 20
106.3805847167969
 11
351.7226257324219
 21
107.4263305664062
  0
LINE
  5
152
100
AcDbEntity
  8
0
  6
ByLayer
 62
  256
370
   -1
100
AcDbLine
 10
350.5302124023438
 20
106.3805847167969
 11
349.2114562988281
 21
105.4994430541992
  0
LINE
  5
153
100
AcDbEntity
  8
0
  6
ByLayer
 62
  256
370
   -1
100
AcDbLine
 10
349.2114562988281
 20
105.4994430541992
 11
347.7890014648438
 21
104.7979583740234
  0
LINE
  5
154
100
AcDbEntity
  8
0
  6
ByLayer
 62
  256
370
   -1
100
AcDbLine
 10
347.7890014648438
 20
104.7979583740234
 11
346.2871398925781
 21
104.2881469726562
  0
LINE
  5
155
100
AcDbEntity
  8
0
  6
ByLayer
 62
  256
370
   -1
100
AcDbLine
 10
344.7315979003906
 20
103.9787292480469
 11
346.2871398925781
 21
104.2881469726562
  0
LINE
  5
156
100
AcDbEntity
  8
0
  6
ByLayer
 62
  256
370
   -1
100
AcDbLine
 10
344.7315979003906
 20
103.9787292480469
 11
343.1489562988281
 21
103.875
  0
LINE
  5
157
100
AcDbEntity
  8
0
  6
ByLayer
 62
  256
370
   -1
100
AcDbLine
 10
341.5663452148438
 20
103.9787292480469
 11
343.1489562988281
 21
103.875
  0
LINE
  5
158
100
AcDbEntity
  8
0
  6
ByLayer
 62
  256
370
   -1
100
AcDbLine
 10
341.5663452148438
 20
103.9787292480469
 11
340.0107727050781
 21
104.2881469726562
  0
LINE
  5
159
100
AcDbEntity
  8
0
  6
ByLayer
 62
  256
370
   -1
100
AcDbLine
 10
338.5089111328125
 20
104.7979583740234
 11
340.0107727050781
 21
104.2881469726562
  0
LINE
  5
15A
100
AcDbEntity
  8
0
  6
ByLayer
 62
  256
370
   -1
100
AcDbLine
 10
337.0864562988281
 20
105.4994430541992
 11
338.5089111328125
 21
104.7979583740234
  0
LINE
  5
15B
100
AcDbEntity
  8
0
  6
ByLayer
 62
  256
370
   -1
100
AcDbLine
 10
337.0864562988281
 20
105.4994430541992
 11
335.7677307128906
 21
106.3805923461914
  0
LINE
  5
15C
100
AcDbEntity
  8
0
  6
ByLayer
 62
  256
370
   -1
100
AcDbLine
 10
334.5752868652344
 20
107.4263305664062
 11
335.7677307128906
 21
106.3805923461914
  0
LINE
  5
15D
100
AcDbEntity
  8
0
  6
ByLayer
 62
  256
370
   -1
100
AcDbLine
 10
334.5752868652344
 20
107.4263305664062
 11
333.529541015625
 21
108.618766784668
  0
LINE
  5
15E
100
AcDbEntity
  8
0
  6
ByLayer
 62
  256
370
   -1
100
AcDbLine
 10
332.6484069824219
 20
109.9375
 11
333.529541015625
 21
108.618766784668
  0
LINE
  5
15F
100
AcDbEntity
  8
0
  6
ByLayer
 62
  256
370
   -1
100
AcDbLine
 10
332.6484069824219
 20
109.9375
 11
331.9469299316406
 21
111.3599624633789
  0
LINE
  5
160
100
AcDbEntity
  8
0
  6
ByLayer
 62
  256
370
   -1
100
AcDbLine
 10
331.4371032714844
 20
112.8618240356445
 11
331.9469299316406
 21
111.3599624633789
  0
LINE
  5
161
100
AcDbEntity
  8
0
  6
ByLayer
 62
  256
370
   -1
100
AcDbLine
 10
331.4371032714844
 20
112.8618240356445
 11
331.127685546875
 21
114.4173736572266
  0
LINE
  5
162
100
AcDbEntity
  8
0
  6
ByLayer
 62
  256
370
   -1
100
AcDbLine
 10
331.0239562988281
 20
116
 11
331.127685546875
 21
114.4173736572266
  0
LINE
  5
163
100
AcDbEntity
  8
0
  6
ByLayer
 62
  256
370
   -1
100
AcDbLine
 10
331.0239562988281
 20
116
 11
331.127685546875
 21
117.582633972168
  0
LINE
  5
164
100
AcDbEntity
  8
0
  6
ByLayer
 62
  256
370
   -1
100
AcDbLine
 10
331.127685546875
 20
117.582633972168
 11
331.4371032714844
 21
119.13818359375
  0
LINE
  5
165
100
AcDbEntity
  8
0
  6
ByLayer
 62
  256
370
   -1
100
AcDbLine
 10
326.6927490234375
 20
118.86181640625
 11
326.9093627929688
 21
119.9506988525391
  0
LINE
  5
166
100
AcDbEntity
  8
0
  6
ByLayer
 62
  256
370
   -1
100
AcDbLine
 10
326.6927490234375
 20
118.86181640625
 11
326.1829528808594
 21
117.3599624633789
  0
LINE
  5
167
100
AcDbEntity
  8
0
  6
ByLayer
 62
  256
370
   -1
100
AcDbLine
 10
325.4814758300781
 20
115.9375
 11
326.1829528808594
 21
117.3599624633789
  0
LINE
  5
168
100
AcDbEntity
  8
0
  6
ByLayer
 62
  256
370
   -1
100
AcDbLine
 10
325.4814758300781
 20
115.9375
 11
324.6003112792969
 21
114.618766784668
  0
LINE
  5
169
100
AcDbEntity
  8
0
  6
ByLayer
 62
  256
370
   -1
100
AcDbLine
 10
323.5545654296875
 20
113.4263305664062
 11
324.6003112792969
 21
114.618766784668
  0
LINE
  5
16A
100
AcDbEntity
  8
0
  6
ByLayer
 62
  256
370
   -1
100
AcDbLine
 10
323.5545654296875
 20
113.4263305664062
 11
322.3621520996094
 21
112.3805923461914
  0
LINE
  5
16B
100
AcDbEntity
  8
0
  6
ByLayer
 62
  256
370
   -1
100
AcDbLine
 10
321.0433959960938
 20
111.4994430541992
 11
322.3621520996094
 21
112.3805923461914
  0
LINE
  5
16C
100
AcDbEntity
  8
0
  6
ByLayer
 62
  256
370
   -1
100
AcDbLine
 10
321.0433959960938
 20
111.4994430541992
 11
319.6209411621094
 21
110.7979583740234
  0
LINE
  5
16D
100
AcDbEntity
  8
0
  6
ByLayer
 62
  256
370
   -1
100
AcDbLine
 10
319.6209411621094
 20
110.7979583740234
 11
318.1190795898438
 21
110.2881469726562
  0
LINE
  5
16E
100
AcDbEntity
  8
0
  6
ByLayer
 62
  256
370
   -1
100
AcDbLine
 10
318.1190795898438
 20
110.2881469726562
 11
316.5635375976562
 21
109.9787292480469
  0
LINE
  5
16F
100
AcDbEntity
  8
0
  6
ByLayer
 62
  256
370
   -1
100
AcDbLine
 10
314.9808959960938
 20
109.875
 11
316.5635375976562
 21
109.9787292480469
  0
LINE
  5
170
100
AcDbEntity
  8
0
  6
ByLayer
 62
  256
370
   -1
100
AcDbLine
 10
314.9808959960938
 20
109.875
 11
313.3982849121094
 21
109.9787292480469
  0
LINE
  5
171
100
AcDbEntity
  8
0
  6
ByLayer
 62
  256
370
   -1
100
AcDbLine
 10
311.8427124023438
 20
110.2881469726562
 11
313.3982849121094
 21
109.9787292480469
  0
LINE
  5
172
100
AcDbEntity
  8
0
  6
ByLayer
 62
  256
370
   -1
100
AcDbLine
 10
311.8427124023438
 20
110.2881469726562
 11
310.3408813476562
 21
110.7979583740234
  0
LINE
  5
173
100
AcDbEntity
  8
0
  6
ByLayer
 62
  256
370
   -1
100
AcDbLine
 10
308.9183959960938
 20
111.4994430541992
 11
310.3408813476562
 21
110.7979583740234
  0
LINE
  5
174
100
AcDbEntity
  8
0
  6
ByLayer
 62
  256
370
   -1
100
AcDbLine
 10
308.9183959960938
 20
111.4994430541992
 11
307.5996704101562
 21
112.3805923461914
  0
LINE
  5
175
100
AcDbEntity
  8
0
  6
ByLayer
 62
  256
370
   -1
100
AcDbLine
 10
306.4072265625
 20
113.4263305664062
 11
307.5996704101562
 21
112.3805923461914
  0
LINE
  5
176
100
AcDbEntity
  8
0
  6
ByLayer
 62
  256
370
   -1
100
AcDbLine
 10
306.4072265625
 20
113.4263305664062
 11
305.3615112304688
 21
114.618766784668
  0
LINE
  5
177
100
AcDbEntity
  8
0
  6
ByLayer
 62
  256
370
   -1
100
AcDbLine
 10
304.4803466796875
 20
115.9375
 11
305.3615112304688
 21
114.618766784668
  0
LINE
  5
178
100
AcDbEntity
  8
0
  6
ByLayer
 62
  256
370
   -1
100
AcDbLine
 10
303.7788696289062
 20
117.3599624633789
 11
304.4803466796875
 21
115.9375
  0
LINE
  5
179
100
AcDbEntity
  8
0
  6
ByLayer
 62
  256
370
   -1
100
AcDbLine
 10
303.7788696289062
 20
117.3599624633789
 11
303.26904296875
 21
118.86181640625
  0
LINE
  5
17A
100
AcDbEntity
  8
0
  6
ByLayer
 62
  256
370
   -1
100
AcDbLine
 10
302.9596557617188
 20
120.417366027832
 11
303.26904296875
 21
118.86181640625
  0
LINE
  5
17B
100
AcDbEntity
  8
0
  6
ByLayer
 62
  256
370
   -1
100
AcDbLine
 10
302.9596557617188
 20
120.417366027832
 11
302.8558959960938
 21
122
  0
LINE
  5
17C
100
AcDbEntity
  8
0
  6
ByLayer
 62
  256
370
   -1
100
AcDbLine
 10
298.305908203125
 20
122
 11
298.2021789550781
 21
120.417366027832
  0
LINE
  5
17D
100
AcDbEntity
  8
0
  6
ByLayer
 62
  256
370
   -1
100
AcDbLine
 10
298.2021789550781
 20
120.417366027832
 11
297.8927612304688
 21
118.86181640625
  0
LINE
  5
17E
100
AcDbEntity
  8
0
  6
ByLayer
 62
  256
370
   -1
100
AcDbLine
 10
297.8927612304688
 20
118.86181640625
 11
297.3829345703125
 21
117.3599624633789
  0
LINE
  5
17F
100
AcDbEntity
  8
0
  6
ByLayer
 62
  256
370
   -1
100
AcDbLine
 10
296.6814575195312
 20
115.9375
 11
297.3829345703125
 21
117.3599624633789
  0
LINE
  5
180
100
AcDbEntity
  8
0
  6
ByLayer
 62
  256
370
   -1
100
AcDbLine
 10
296.6814575195312
 20
115.9375
 11
295.80029296875
 21
114.618766784668
  0
LINE
  5
181
100
AcDbEntity
  8
0
  6
ByLayer
 62
  256
370
   -1
100
AcDbLine
 10
295.80029296875
 20
114.618766784668
 11
294.7545776367188
 21
113.4263305664062
  0
LINE
  5
182
100
AcDbEntity
  8
0
  6
ByLayer
 62
  256
370
   -1
100
AcDbLine
 10
293.5621337890625
 20
112.3805847167969
 11
294.7545776367188
 21
113.4263305664062
  0
LINE
  5
183
100
AcDbEntity
  8
0
  6
ByLayer
 62
  256
370
   -1
100
AcDbLine
 10
293.5621337890625
 20
112.3805847167969
 11
292.243408203125
 21
111.4994354248047
  0
LINE
  5
184
100
AcDbEntity
  8
0
  6
ByLayer
 62
  256
370
   -1
100
AcDbLine
 10
292.243408203125
 20
111.4994354248047
 11
290.8209228515625
 21
110.7979583740234
  0
LINE
  5
185
100
AcDbEntity
  8
0
  6
ByLayer
 62
  256
370
   -1
100
AcDbLine
 10
290.8209228515625
 20
110.7979583740234
 11
289.319091796875
 21
110.2881469726562
  0
LINE
  5
186
100
AcDbEntity
  8
0
  6
ByLayer
 62
  256
370
   -1
100
AcDbLine
 10
287.7635498046875
 20
109.9787292480469
 11
289.319091796875
 21
110.2881469726562
  0
LINE
  5
187
100
AcDbEntity
  8
0
  6
ByLayer
 62
  256
370
   -1
100
AcDbLine
 10
287.7635498046875
 20
109.9787292480469
 11
286.180908203125
 21
109.875
  0
LINE
  5
188
100
AcDbEntity
  8
0
  6
ByLayer
 62
  256
370
   -1
100
AcDbLine
 10
286.180908203125
 20
109.875
 11
284.5982666015625
 21
109.9787292480469
  0
LINE
  5
189
100
AcDbEntity
  8
0
  6
ByLayer
 62
  256
370
   -1
100
AcDbLine
 10
283.042724609375
 20
110.2881469726562
 11
284.5982666015625
 21
109.9787292480469
  0
LINE
  5
18A
100
AcDbEntity
  8
0
  6
ByLayer
 62
  256
370
   -1
100
AcDbLine
 10
283.042724609375
 20
110.2881469726562
 11
281.5408630371094
 21
110.7979583740234
  0
LINE
  5
18B
100
AcDbEntity
  8
0
  6
ByLayer
 62
  256
370
   -1
100
AcDbLine
 10
281.5408630371094
 20
110.7979583740234
 11
280.118408203125
 21
111.4994430541992
  0
LINE
  5
18C
100
AcDbEntity
  8
0
  6
ByLayer
 62
  256
370
   -1
100
AcDbLine
 10
278.7996826171875
 20
112.3805923461914
 11
280.118408203125
 21
111.4994430541992
  0
LINE
  5
18D
100
AcDbEntity
  8
0
  6
ByLayer
 62
  256
370
   -1
100
AcDbLine
 10
278.7996826171875
 20
112.3805923461914
 11
277.6072387695312
 21
113.4263305664062
  0
LINE
  5
18E
100
AcDbEntity
  8
0
  6
ByLayer
 62
  256
370
   -1
100
AcDbLine
 10
276.5614929199219
 20
114.618766784668
 11
277.6072387695312
 21
113.4263305664062
  0
LINE
  5
18F
100
AcDbEntity
  8
0
  6
ByLayer
 62
  256
370
   -1
100
AcDbLine
 10
276.5614929199219
 20
114.618766784668
 11
275.6803588867188
 21
115.9375
  0
LINE
  5
190
100
AcDbEntity
  8
0
  6
ByLayer
 62
  256
370
   -1
100
AcDbLine
 10
275.4699096679688
 20
116.3642425537109
 11
275.6803588867188
 21
115.9375
  0
LINE
  5
191
100
AcDbEntity
  8
0
  6
ByLayer
 62
  256
370
   -1
100
AcDbLine
 10
271.7118530273438
 20
113.1381759643555
 11
271.2020263671875
 21
114.6400375366211
  0
LINE
  5
192
100
AcDbEntity
  8
0
  6
ByLayer
 62
  256
370
   -1
100
AcDbLine
 10
271.7118530273438
 20
113.1381759643555
 11
272.0212707519531
 21
111.5826263427734
  0
LINE
  5
193
100
AcDbEntity
  8
0
  6
ByLayer
 62
  256
370
   -1
100
AcDbLine
 10
272.125
 20
110
 11
272.0212707519531
 21
111.5826263427734
  0
LINE
  5
194
100
AcDbEntity
  8
0
  6
ByLayer
 62
  256
370
   -1
100
AcDbLine
 10
272.0212707519531
 20
108.417366027832
 11
272.125
 21
110
  0
LINE
  5
195
100
AcDbEntity
  8
0
  6
ByLayer
 62
  256
370
   -1
100
AcDbLine
 10
272.0212707519531
 20
108.417366027832
 11
271.7118530273438
 21
106.86181640625
  0
LINE
  5
196
100
AcDbEntity
  8
0
  6
ByLayer
 62
  256
370
   -1
100
AcDbLine
 10
271.2020263671875
 20
105.3599624633789
 11
271.7118530273438
 21
106.86181640625
  0
LINE
  5
197
100
AcDbEntity
  8
0
  6
ByLayer
 62
  256
370
   -1
100
AcDbLine
 10
271.2020263671875
 20
105.3599624633789
 11
270.5005493164062
 21
103.9375
  0
LINE
  5
198
100
AcDbEntity
  8
0
  6
ByLayer
 62
  256
370
   -1
100
AcDbLine
 10
269.6194152832031
 20
102.618766784668
 11
270.5005493164062
 21
103.9375
  0
LINE
  5
199
100
AcDbEntity
  8
0
  6
ByLayer
 62
  256
370
   -1
100
AcDbLine
 10
269.6194152832031
 20
102.618766784668
 11
268.5736694335938
 21
101.4263305664062
  0
LINE
  5
19A
100
AcDbEntity
  8
0
  6
ByLayer
 62
  256
370
   -1
100
AcDbLine
 10
267.3812255859375
 20
100.3805923461914
 11
268.5736694335938
 21
101.4263305664062
  0
LINE
  5
19B
100
AcDbEntity
  8
0
  6
ByLayer
 62
  256
370
   -1
100
AcDbLine
 10
267.3812255859375
 20
100.3805923461914
 11
266.0625
 21
99.49944305419922
  0
LINE
  5
19C
100
AcDbEntity
  8
0
  6
ByLayer
 62
  256
370
   -1
100
AcDbLine
 10
264.6400451660156
 20
98.79795837402344
 11
266.0625
 21
99.49944305419922
  0
LINE
  5
19D
100
AcDbEntity
  8
0
  6
ByLayer
 62
  256
370
   -1
100
AcDbLine
 10
264.6400451660156
 20
98.79795837402344
 11
263.13818359375
 21
98.28814697265625
  0
LINE
  5
19E
100
AcDbEntity
  8
0
  6
ByLayer
 62
  256
370
   -1
100
AcDbLine
 10
261.5826416015625
 20
97.97872924804688
 11
263.13818359375
 21
98.28814697265625
  0
LINE
  5
19F
100
AcDbEntity
  8
0
  6
ByLayer
 62
  256
370
   -1
100
AcDbLine
 10
261.5826416015625
 20
97.97872924804688
 11
260
 21
97.875
  0
LINE
  5
1A0
100
AcDbEntity
  8
0
  6
ByLayer
 62
  256
370
   -1
100
AcDbLine
 10
260
 20
97.875
 11
258.4173583984375
 21
97.97872924804688
  0
LINE
  5
1A1
100
AcDbEntity
  8
0
  6
ByLayer
 62
  256
370
   -1
100
AcDbLine
 10
256.86181640625
 20
98.28814697265625
 11
258.4173583984375
 21
97.97872924804688
  0
LINE
  5
1A2
100
AcDbEntity
  8
0
  6
ByLayer
 62
  256
370
   -1
100
AcDbLine
 10
252.6400451660156
 20
81.20204162597656
 11
251.5887451171875
 21
81.55890655517578
  0
LINE
  5
1A3
100
AcDbEntity
  8
0
  6
ByLayer
 62
  256
370
   -1
100
AcDbLine
 10
254.0625
 20
80.50055694580078
 11
252.6400451660156
 21
81.20204162597656
  0
LINE
  5
1A4
100
AcDbEntity
  8
0
  6
ByLayer
 62
  256
370
   -1
100
AcDbLine
 10
254.0625
 20
80.50055694580078
 11
255.3812255859375
 21
79.61940765380859
  0
LINE
  5
1A5
100
AcDbEntity
  8
0
  6
ByLayer
 62
  256
370
   -1
100
AcDbLine
 10
256.5736694335938
 20
78.57366943359375
 11
255.3812255859375
 21
79.61940765380859
  0
LINE
  5
1A6
100
AcDbEntity
  8
0
  6
ByLayer
 62
  256
370
   -1
100
AcDbLine
 10
257.6194152832031
 20
77.38123321533203
 11
256.5736694335938
 21
78.57366943359375
  0
LINE
  5
1A7
100
AcDbEntity
  8
0
  6
ByLayer
 62
  256
370
   -1
100
AcDbLine
 10
258.5005493164062
 20
76.0625
 11
257.6194152832031
 21
77.38123321533203
  0
LINE
  5
1A8
100
AcDbEntity
  8
0
  6
ByLayer
 62
  256
370
   -1
100
AcDbLine
 10
259.2020263671875
 20
74.64003753662109
 11
258.5005493164062
 21
76.0625
  0
LINE
  5
1A9
100
AcDbEntity
  8
0
  6
ByLayer
 62
  256
370
   -1
100
AcDbLine
 10
259.2020263671875
 20
74.64003753662109
 11
259.7118530273438
 21
73.13818359375
  0
LINE
  5
1AA
100
AcDbEntity
  8
0
  6
ByLayer
 62
  256
370
   -1
100
AcDbLine
 10
260.0212707519531
 20
71.58263397216797
 11
259.7118530273438
 21
73.13818359375
  0
LINE
  5
1AB
100
AcDbEntity
  8
0
  6
ByLayer
 62
  256
370
   -1
100
AcDbLine
 10
260.125
 20
70
 11
260.0212707519531
 21
71.58263397216797
  0
LINE
  5
1AC
100
AcDbEntity
  8
0
  6
ByLayer
 62
  256
370
   -1
100
AcDbLine
 10
260.125
 20
70
 11
260.0212707519531
 21
68.41737365722656
  0
LINE
  5
1AD
100
AcDbEntity
  8
0
  6
ByLayer
 62
  256
370
   -1
100
AcDbLine
 10
260.0212707519531
 20
68.41737365722656
 11
259.7118530273438
 21
66.86182403564453
  0
LINE
  5
1AE
100
AcDbEntity
  8
0
  6
ByLayer
 62
  256
370
   -1
100
AcDbLine
 10
259.2020263671875
 20
65.35996246337891
 11
259.7118530273438
 21
66.86182403564453
  0
LINE
  5
1AF
100
AcDbEntity
  8
0
  6
ByLayer
 62
  256
370
   -1
100
AcDbLine
 10
259.2020263671875
 20
65.35996246337891
 11
258.5005493164062
 21
63.9375
  0
LINE
  5
1B0
100
AcDbEntity
  8
0
  6
ByLayer
 62
  256
370
   -1
100
AcDbLine
 10
257.6194152832031
 20
62.61876678466797
 11
258.5005493164062
 21
63.9375
  0
LINE
  5
1B1
100
AcDbEntity
  8
0
  6
ByLayer
 62
  256
370
   -1
100
AcDbLine
 10
257.6194152832031
 20
62.61876678466797
 11
256.5736694335938
 21
61.42633056640625
  0
LINE
  5
1B2
100
AcDbEntity
  8
0
  6
ByLayer
 62
  256
370
   -1
100
AcDbLine
 10
256.5736694335938
 20
61.42633056640625
 11
255.3812408447266
 21
60.38059234619141
  0
LINE
  5
1B3
100
AcDbEntity
  8
0
  6
ByLayer
 62
  256
370
   -1
100
AcDbLine
 10
254.0625
 20
59.49944305419922
 11
255.3812408447266
 21
60.38059234619141
  0
LINE
  5
1B4
100
AcDbEntity
  8
0
  6
ByLayer
 62
  256
370
   -1
100
AcDbLine
 10
254.0625
 20
59.49944305419922
 11
252.6400451660156
 21
58.7979621887207
  0
LINE
  5
1B5
100
AcDbEntity
  8
0
  6
ByLayer
 62
  256
370
   -1
100
AcDbLine
 10
251.13818359375
 20
58.28815078735352
 11
252.6400451660156
 21
58.7979621887207
  0
LINE
  5
1B6
100
AcDbEntity
  8
0
  6
ByLayer
 62
  256
370
   -1
100
AcDbLine
 10
251.13818359375
 20
58.28815078735352
 11
249.5826263427734
 21
57.97872924804688
  0
LINE
  5
1B7
100
AcDbEntity
  8
0
  6
ByLayer
 62
  256
370
   -1
100
AcDbLine
 10
249.5826263427734
 20
57.97872924804688
 11
248
 21
57.875
  0
LINE
  5
1B8
100
AcDbEntity
  8
0
  6
ByLayer
 62
  256
370
   -1
100
AcDbLine
 10
248
 20
57.875
 11
246.4173736572266
 21
57.97872924804688
  0
LINE
  5
1B9
100
AcDbEntity
  8
0
  6
ByLayer
 62
  256
370
   -1
100
AcDbLine
 10
244.86181640625
 20
58.28814697265625
 11
246.4173736572266
 21
57.97872924804688
  0
LINE
  5
1BA
100
AcDbEntity
  8
0
  6
ByLayer
 62
  256
370
   -1
100
AcDbLine
 10
244.86181640625
 20
58.28814697265625
 11
243.3599700927734
 21
58.79795837402344
  0
LINE
  5
1BB
100
AcDbEntity
  8
0
  6
ByLayer
 62
  256
370
   -1
100
AcDbLine
 10
243.3599700927734
 20
58.79795837402344
 11
241.9375
 21
59.49944305419922
  0
LINE
  5
1BC
100
AcDbEntity
  8
0
  6
ByLayer
 62
  256
370
   -1
100
AcDbLine
 10
240.6187744140625
 20
60.38059234619141
 11
241.9375
 21
59.49944305419922
  0
LINE
  5
1BD
100
AcDbEntity
  8
0
  6
ByLayer
 62
  256
370
   -1
100
AcDbLine
 10
240.6187744140625
 20
60.38059234619141
 11
239.4263305664062
 21
61.42633056640625
  0
LINE
  5
1BE
100
AcDbEntity
  8
0
  6
ByLayer
 62
  256
370
   -1
100
AcDbLine
 10
236.5223846435547
 20
57.85093307495117
 11
237.2544097900391
 21
57.01622772216797
  0
LINE
  5
1BF
100
AcDbEntity
  8
0
  6
ByLayer
 62
  256
370
   -1
100
AcDbLine
 10
238.1355590820312
 20
55.69749450683594
 11
237.2544097900391
 21
57.01622772216797
  0
LINE
  5
1C0
100
AcDbEntity
  8
0
  6
ByLayer
 62
  256
370
   -1
100
AcDbLine
 10
238.1355590820312
 20
55.69749450683594
 11
238.8370361328125
 21
54.27503204345703
  0
LINE
  5
1C1
100
AcDbEntity
  8
0
  6
ByLayer
 62
  256
370
   -1
100
AcDbLine
 10
239.3468475341797
 20
52.77317428588867
 11
238.8370361328125
 21
54.27503204345703
  0
LINE
  5
1C2
100
AcDbEntity
  8
0
  6
ByLayer
 62
  256
370
   -1
100
AcDbLine
 10
239.6562652587891
 20
51.21762466430664
 11
239.3468475341797
 21
52.77317428588867
  0
LINE
  5
1C3
100
AcDbEntity
  8
0
  6
ByLayer
 62
  256
370
   -1
100
AcDbLine
 10
239.7599945068359
 20
49.63499450683594
 11
239.6562652587891
 21
51.21762466430664
  0
LINE
  5
1C4
100
AcDbEntity
  8
0
  6
ByLayer
 62
  256
370
   -1
100
AcDbLine
 10
239.6562652587891
 20
48.05236434936523
 11
239.7599945068359
 21
49.63499450683594
  0
LINE
  5
1C5
100
AcDbEntity
  8
0
  6
ByLayer
 62
  256
370
   -1
100
AcDbLine
 10
239.6562652587891
 20
48.05236434936523
 11
239.3468475341797
 21
46.4968147277832
  0
LINE
  5
1C6
100
AcDbEntity
  8
0
  6
ByLayer
 62
  256
370
   -1
100
AcDbLine
 10
238.8370361328125
 20
44.99495697021484
 11
239.3468475341797
 21
46.4968147277832
  0
LINE
  5
1C7
100
AcDbEntity
  8
0
  6
ByLayer
 62
  256
370
   -1
100
AcDbLine
 10
238.8370361328125
 20
44.99495697021484
 11
238.1355590820312
 21
43.57249450683594
  0
LINE
  5
1C8
100
AcDbEntity
  8
0
  6
ByLayer
 62
  256
370
   -1
100
AcDbLine
 10
238.1355590820312
 20
43.57249450683594
 11
237.2544097900391
 21
42.25376129150391
  0
LINE
  5
1C9
100
AcDbEntity
  8
0
  6
ByLayer
 62
  256
370
   -1
100
AcDbLine
 10
236.2086639404297
 20
41.06132507324219
 11
237.2544097900391
 21
42.25376129150391
  0
LINE
  5
1CA
100
AcDbEntity
  8
0
  6
ByLayer
 62
  256
370
   -1
100
AcDbLine
 10
235.0162353515625
 20
40.01558685302734
 11
236.2086639404297
 21
41.06132507324219
  0
LINE
  5
1CB
100
AcDbEntity
  8
0
  6
ByLayer
 62
  256
370
   -1
100
AcDbLine
 10
235.0162353515625
 20
40.01558685302734
 11
233.6974945068359
 21
39.13443756103516
  0
LINE
  5
1CC
100
AcDbEntity
  8
0
  6
ByLayer
 62
  256
370
   -1
100
AcDbLine
 10
232.2750396728516
 20
38.43295288085938
 11
233.6974945068359
 21
39.13443756103516
  0
LINE
  5
1CD
100
AcDbEntity
  8
0
  6
ByLayer
 62
  256
370
   -1
100
AcDbLine
 10
230.7731781005859
 20
37.92314147949219
 11
232.2750396728516
 21
38.43295288085938
  0
LINE
  5
1CE
100
AcDbEntity
  8
0
  6
ByLayer
 62
  256
370
   -1
100
AcDbLine
 10
230.7731781005859
 20
37.92314147949219
 11
229.2176208496094
 21
37.61372375488281
  0
LINE
  5
1CF
100
AcDbEntity
  8
0
  6
ByLayer
 62
  256
370
   -1
100
AcDbLine
 10
227.6349945068359
 20
37.50999450683594
 11
229.2176208496094
 21
37.61372375488281
  0
LINE
  5
1D0
100
AcDbEntity
  8
0
  6
ByLayer
 62
  256
370
   -1
100
AcDbLine
 10
226.0523681640625
 20
37.61372375488281
 11
227.6349945068359
 21
37.50999450683594
  0
LINE
  5
1D1
100
AcDbEntity
  8
0
  6
ByLayer
 62
  256
370
   -1
100
AcDbLine
 10
226.0523681640625
 20
37.61372375488281
 11
224.496826171875
 21
37.92314147949219
  0
LINE
  5
1D2
100
AcDbEntity
  8
0
  6
ByLayer
 62
  256
370
   -1
100
AcDbLine
 10
370
 20
15
 11
220
 21
15
  0
LINE
  5
1D3
100
AcDbEntity
  8
0
  6
ByLayer
 62
  256
370
   -1
100
AcDbLine
 10
370
 20
15
 11
375
 21
15
  0
LINE
  5
1D4
100
AcDbEntity
  8
0
  6
ByLayer
 62
  256
370
   -1
100
AcDbLine
 10
385
 20
25
 11
375
 21
15
  0
LINE
  5
1D5
100
AcDbEntity
  8
0
  6
ByLayer
 62
  256
370
   -1
100
AcDbLine
 10
385
 20
25
 11
385
 21
30
  0
LINE
  5
1D6
100
AcDbEntity
  8
0
  6
ByLayer
 62
  256
370
   -1
100
AcDbLine
 10
385
 20
30
 11
385
 21
180
  0
LINE
  5
1D7
100
AcDbEntity
  8
0
  6
ByLayer
 62
  256
370
   -1
100
AcDbLine
 10
385
 20
180
 11
385
 21
185
  0
LINE
  5
1D8
100
AcDbEntity
  8
0
  6
ByLayer
 62
  256
370
   -1
100
AcDbLine
 10
375
 20
195
 11
385
 21
185
  0
LINE
  5
1D9
100
AcDbEntity
  8
0
  6
ByLayer
 62
  256
370
   -1
100
AcDbLine
 10
370
 20
195
 11
375
 21
195
  0
LINE
  5
1DA
100
AcDbEntity
  8
0
  6
ByLayer
 62
  256
370
   -1
100
AcDbLine
 10
370
 20
195
 11
220
 21
195
  0
LINE
  5
1DB
100
AcDbEntity
  8
0
  6
ByLayer
 62
  256
370
   -1
100
AcDbLine
 10
220
 20
195
 11
210
 21
195
  0
LINE
  5
1DC
100
AcDbEntity
  8
0
  6
ByLayer
 62
  256
370
   -1
100
AcDbLine
 10
210
 20
195
 11
200
 21
195
  0
LINE
  5
1DD
100
AcDbEntity
  8
0
  6
ByLayer
 62
  256
370
   -1
100
AcDbLine
 10
200
 20
195
 11
200
 21
190
  0
LINE
  5
1DE
100
AcDbEntity
  8
0
  6
ByLayer
 62
  256
370
   -1
100
AcDbLine
 10
200
 20
180
 11
200
 21
190
  0
LINE
  5
1DF
100
AcDbEntity
  8
0
  6
ByLayer
 62
  256
370
   -1
100
AcDbLine
 10
200
 20
30
 11
200
 21
180
  0
LINE
  5
1E0
100
AcDbEntity
  8
0
  6
ByLayer
 62
  256
370
   -1
100
AcDbLine
 10
200
 20
20
 11
200
 21
30
  0
LINE
  5
1E1
100
AcDbEntity
  8
0
  6
ByLayer
 62
  256
370
   -1
100
AcDbLine
 10
200
 20
15
 11
200
 21
20
  0
LINE
  5
1E2
100
AcDbEntity
  8
0
  6
ByLayer
 62
  256
370
   -1
100
AcDbLine
 10
210
 20
15
 11
200
 21
15
  0
LINE
  5
1E3
100
AcDbEntity
  8
0
  6
ByLayer
 62
  256
370
   -1
100
AcDbLine
 10
218.5177154541016
 20
41.68120193481445
 11
218.0155944824219
 21
42.25376129150391
  0
LINE
  5
1E4
100
AcDbEntity
  8
0
  6
ByLayer
 62
  256
370
   -1
100
AcDbLine
 10
218.0155944824219
 20
42.25376129150391
 11
217.1344451904297
 21
43.57249450683594
  0
LINE
  5
1E5
100
AcDbEntity
  8
0
  6
ByLayer
 62
  256
370
   -1
100
AcDbLine
 10
217.1344451904297
 20
43.57249450683594
 11
216.4329528808594
 21
44.99495697021484
  0
LINE
  5
1E6
100
AcDbEntity
  8
0
  6
ByLayer
 62
  256
370
   -1
100
AcDbLine
 10
215.9231567382812
 20
46.4968147277832
 11
216.4329528808594
 21
44.99495697021484
  0
LINE
  5
1E7
100
AcDbEntity
  8
0
  6
ByLayer
 62
  256
370
   -1
100
AcDbLine
 10
215.9231567382812
 20
46.4968147277832
 11
215.6137390136719
 21
48.05236434936523
  0
LINE
  5
1E8
100
AcDbEntity
  8
0
  6
ByLayer
 62
  256
370
   -1
100
AcDbLine
 10
215.5099945068359
 20
49.63499450683594
 11
215.6137390136719
 21
48.05236434936523
  0
LINE
  5
1E9
100
AcDbEntity
  8
0
  6
ByLayer
 62
  256
370
   -1
100
AcDbLine
 10
215.5099945068359
 20
49.63499450683594
 11
215.6137390136719
 21
51.21762466430664
  0
LINE
  5
1EA
100
AcDbEntity
  8
0
  6
ByLayer
 62
  256
370
   -1
100
AcDbLine
 10
215.9231567382812
 20
52.77317428588867
 11
215.6137390136719
 21
51.21762466430664
  0
LINE
  5
1EB
100
AcDbEntity
  8
0
  6
ByLayer
 62
  256
370
   -1
100
AcDbLine
 10
215.9231567382812
 20
52.77317428588867
 11
216.4329528808594
 21
54.27503204345703
  0
LINE
  5
1EC
100
AcDbEntity
  8
0
  6
ByLayer
 62
  256
370
   -1
100
AcDbLine
 10
217.1344451904297
 20
55.69749450683594
 11
216.4329528808594
 21
54.27503204345703
  0
LINE
  5
1ED
100
AcDbEntity
  8
0
  6
ByLayer
 62
  256
370
   -1
100
AcDbLine
 10
218.0155944824219
 20
57.01622772216797
 11
217.1344451904297
 21
55.69749450683594
  0
LINE
  5
1EE
100
AcDbEntity
  8
0
  6
ByLayer
 62
  256
370
   -1
100
AcDbLine
 10
218.0155944824219
 20
57.01622772216797
 11
219.0613250732422
 21
58.20866394042969
  0
LINE
  5
1EF
100
AcDbEntity
  8
0
  6
ByLayer
 62
  256
370
   -1
100
AcDbLine
 10
219.0613250732422
 20
58.20866394042969
 11
220.2537689208984
 21
59.25440216064453
  0
LINE
  5
1F0
100
AcDbEntity
  8
0
  6
ByLayer
 62
  256
370
   -1
100
AcDbLine
 10
221.5724945068359
 20
60.13555145263672
 11
220.2537689208984
 21
59.25440216064453
  0
LINE
  5
1F1
100
AcDbEntity
  8
0
  6
ByLayer
 62
  256
370
   -1
100
AcDbLine
 10
221.5724945068359
 20
60.13555145263672
 11
222.9949645996094
 21
60.8370361328125
  0
LINE
  5
1F2
100
AcDbEntity
  8
0
  6
ByLayer
 62
  256
370
   -1
100
AcDbLine
 10
222.9949645996094
 20
60.8370361328125
 11
224.496826171875
 21
61.34684753417969
  0
LINE
  5
1F3
100
AcDbEntity
  8
0
  6
ByLayer
 62
  256
370
   -1
100
AcDbLine
 10
226.0523681640625
 20
61.65626525878906
 11
224.496826171875
 21
61.34684753417969
  0
LINE
  5
1F4
100
AcDbEntity
  8
0
  6
ByLayer
 62
  256
370
   -1
100
AcDbLine
 10
226.0523681640625
 20
61.65626525878906
 11
227.6349945068359
 21
61.75999450683594
  0
LINE
  5
1F5
100
AcDbEntity
  8
0
  6
ByLayer
 62
  256
370
   -1
100
AcDbLine
 10
229.2176208496094
 20
61.65626525878906
 11
227.6349945068359
 21
61.75999450683594
  0
LINE
  5
1F6
100
AcDbEntity
  8
0
  6
ByLayer
 62
  256
370
   -1
100
AcDbLine
 10
229.2176208496094
 20
61.65626525878906
 11
230.7731781005859
 21
61.34684371948242
  0
LINE
  5
1F7
100
AcDbEntity
  8
0
  6
ByLayer
 62
  256
370
   -1
100
AcDbLine
 10
232.2750396728516
 20
60.83703231811523
 11
230.7731781005859
 21
61.34684371948242
  0
LINE
  5
1F8
100
AcDbEntity
  8
0
  6
ByLayer
 62
  256
370
   -1
100
AcDbLine
 10
233.6974945068359
 20
60.13555145263672
 11
232.2750396728516
 21
60.83703231811523
  0
LINE
  5
1F9
100
AcDbEntity
  8
0
  6
ByLayer
 62
  256
370
   -1
100
AcDbLine
 10
235.0162353515625
 20
59.25440216064453
 11
233.6974945068359
 21
60.13555145263672
  0
LINE
  5
1FA
100
AcDbEntity
  8
0
  6
ByLayer
 62
  256
370
   -1
100
AcDbLine
 10
236.2086639404297
 20
58.20866394042969
 11
235.0162353515625
 21
59.25440216064453
  0
LINE
  5
1FB
100
AcDbEntity
  8
0
  6
ByLayer
 62
  256
370
   -1
100
AcDbLine
 10
238.3805847167969
 20
62.61876678466797
 11
239.1126098632812
 21
61.78406143188477
  0
LINE
  5
1FC
100
AcDbEntity
  8
0
  6
ByLayer
 62
  256
370
   -1
100
AcDbLine
 10
237.4994506835938
 20
63.9375
 11
238.3805847167969
 21
62.61876678466797
  0
LINE
  5
1FD
100
AcDbEntity
  8
0
  6
ByLayer
 62
  256
370
   -1
100
AcDbLine
 10
237.4994506835938
 20
63.9375
 11
236.7979583740234
 21
65.35996246337891
  0
LINE
  5
1FE
100
AcDbEntity
  8
0
  6
ByLayer
 62
  256
370
   -1
100
AcDbLine
 10
236.2881469726562
 20
66.86182403564453
 11
236.7979583740234
 21
65.35996246337891
  0
LINE
  5
1FF
100
AcDbEntity
  8
0
  6
ByLayer
 62
  256
370
   -1
100
AcDbLine
 10
235.9787292480469
 20
68.41737365722656
 11
236.2881469726562
 21
66.86182403564453
  0
LINE
  5
200
100
AcDbEntity
  8
0
  6
ByLayer
 62
  256
370
   -1
100
AcDbLine
 10
235.9787292480469
 20
68.41737365722656
 11
235.875
 21
70
  0
LINE
  5
201
100
AcDbEntity
  8
0
  6
ByLayer
 62
  256
370
   -1
100
AcDbLine
 10
235.875
 20
70
 11
235.9787292480469
 21
71.58263397216797
  0
LINE
  5
202
100
AcDbEntity
  8
0
  6
ByLayer
 62
  256
370
   -1
100
AcDbLine
 10
235.9787292480469
 20
71.58263397216797
 11
236.2881469726562
 21
73.13818359375
  0
LINE
  5
203
100
AcDbEntity
  8
0
  6
ByLayer
 62
  256
370
   -1
100
AcDbLine
 10
236.7979583740234
 20
74.64003753662109
 11
236.2881469726562
 21
73.13818359375
  0
LINE
  5
204
100
AcDbEntity
  8
0
  6
ByLayer
 62
  256
370
   -1
100
AcDbLine
 10
236.7979583740234
 20
74.64003753662109
 11
237.4994506835938
 21
76.0625
  0
LINE
  5
205
100
AcDbEntity
  8
0
  6
ByLayer
 62
  256
370
   -1
100
AcDbLine
 10
238.3805847167969
 20
77.38123321533203
 11
237.4994506835938
 21
76.0625
  0
LINE
  5
206
100
AcDbEntity
  8
0
  6
ByLayer
 62
  256
370
   -1
100
AcDbLine
 10
238.3805847167969
 20
77.38123321533203
 11
239.4263305664062
 21
78.57366943359375
  0
LINE
  5
207
100
AcDbEntity
  8
0
  6
ByLayer
 62
  256
370
   -1
100
AcDbLine
 10
240.6187744140625
 20
79.61940765380859
 11
239.4263305664062
 21
78.57366943359375
  0
LINE
  5
208
100
AcDbEntity
  8
0
  6
ByLayer
 62
  256
370
   -1
100
AcDbLine
 10
240.6187744140625
 20
79.61940765380859
 11
241.9375
 21
80.50055694580078
  0
LINE
  5
209
100
AcDbEntity
  8
0
  6
ByLayer
 62
  256
370
   -1
100
AcDbLine
 10
243.3599700927734
 20
81.20204162597656
 11
241.9375
 21
80.50055694580078
  0
LINE
  5
20A
100
AcDbEntity
  8
0
  6
ByLayer
 62
  256
370
   -1
100
AcDbLine
 10
243.3599700927734
 20
81.20204162597656
 11
244.86181640625
 21
81.71185302734375
  0
LINE
  5
20B
100
AcDbEntity
  8
0
  6
ByLayer
 62
  256
370
   -1
100
AcDbLine
 10
244.86181640625
 20
81.71185302734375
 11
246.4173736572266
 21
82.02127075195312
  0
LINE
  5
20C
100
AcDbEntity
  8
0
  6
ByLayer
 62
  256
370
   -1
100
AcDbLine
 10
246.4173736572266
 20
82.02127075195312
 11
248
 21
82.125
  0
LINE
  5
20D
100
AcDbEntity
  8
0
  6
ByLayer
 62
  256
370
   -1
100
AcDbLine
 10
249.5826263427734
 20
82.02127075195312
 11
248
 21
82.125
  0
LINE
  5
20E
100
AcDbEntity
  8
0
  6
ByLayer
 62
  256
370
   -1
100
AcDbLine
 10
249.5826263427734
 20
82.02127075195312
 11
251.13818359375
 21
81.71185302734375
  0
LINE
  5
20F
100
AcDbEntity
  8
0
  6
ByLayer
 62
  256
370
   -1
100
AcDbLine
 10
256.4112548828125
 20
98.44109344482422
 11
255.3599548339844
 21
98.79795837402344
  0
LINE
  5
210
100
AcDbEntity
  8
0
  6
ByLayer
 62
  256
370
   -1
100
AcDbLine
 10
253.9375
 20
99.49944305419922
 11
255.3599548339844
 21
98.79795837402344
  0
LINE
  5
211
100
AcDbEntity
  8
0
  6
ByLayer
 62
  256
370
   -1
100
AcDbLine
 10
253.9375
 20
99.49944305419922
 11
252.6187591552734
 21
100.3805923461914
  0
LINE
  5
212
100
AcDbEntity
  8
0
  6
ByLayer
 62
  256
370
   -1
100
AcDbLine
 10
251.4263305664062
 20
101.4263305664062
 11
252.6187591552734
 21
100.3805923461914
  0
LINE
  5
213
100
AcDbEntity
  8
0
  6
ByLayer
 62
  256
370
   -1
100
AcDbLine
 10
251.4263305664062
 20
101.4263305664062
 11
250.3805847167969
 21
102.618766784668
  0
LINE
  5
214
100
AcDbEntity
  8
0
  6
ByLayer
 62
  256
370
   -1
100
AcDbLine
 10
249.4994354248047
 20
103.9375
 11
250.3805847167969
 21
102.618766784668
  0
LINE
  5
215
100
AcDbEntity
  8
0
  6
ByLayer
 62
  256
370
   -1
100
AcDbLine
 10
248.7979583740234
 20
105.3599624633789
 11
249.4994354248047
 21
103.9375
  0
LINE
  5
216
100
AcDbEntity
  8
0
  6
ByLayer
 62
  256
370
   -1
100
AcDbLine
 10
248.7979583740234
 20
105.3599624633789
 11
248.2881469726562
 21
106.8618240356445
  0
LINE
  5
217
100
AcDbEntity
  8
0
  6
ByLayer
 62
  256
370
   -1
100
AcDbLine
 10
247.9787292480469
 20
108.4173736572266
 11
248.2881469726562
 21
106.8618240356445
  0
LINE
  5
218
100
AcDbEntity
  8
0
  6
ByLayer
 62
  256
370
   -1
100
AcDbLine
 10
247.875
 20
110
 11
247.9787292480469
 21
108.4173736572266
  0
LINE
  5
219
100
AcDbEntity
  8
0
  6
ByLayer
 62
  256
370
   -1
100
AcDbLine
 10
247.875
 20
110
 11
247.9787292480469
 21
111.582633972168
  0
LINE
  5
21A
100
AcDbEntity
  8
0
  6
ByLayer
 62
  256
370
   -1
100
AcDbLine
 10
248.2881469726562
 20
113.13818359375
 11
247.9787292480469
 21
111.582633972168
  0
LINE
  5
21B
100
AcDbEntity
  8
0
  6
ByLayer
 62
  256
370
   -1
100
AcDbLine
 10
248.7979583740234
 20
114.6400375366211
 11
248.2881469726562
 21
113.13818359375
  0
LINE
  5
21C
100
AcDbEntity
  8
0
  6
ByLayer
 62
  256
370
   -1
100
AcDbLine
 10
249.4994506835938
 20
116.0625
 11
248.7979583740234
 21
114.6400375366211
  0
LINE
  5
21D
100
AcDbEntity
  8
0
  6
ByLayer
 62
  256
370
   -1
100
AcDbLine
 10
250.3805847167969
 20
117.381233215332
 11
249.4994506835938
 21
116.0625
  0
LINE
  5
21E
100
AcDbEntity
  8
0
  6
ByLayer
 62
  256
370
   -1
100
AcDbLine
 10
250.3805847167969
 20
117.381233215332
 11
251.4263305664062
 21
118.5736694335938
  0
LINE
  5
21F
100
AcDbEntity
  8
0
  6
ByLayer
 62
  256
370
   -1
100
AcDbLine
 10
252.6187744140625
 20
119.6194076538086
 11
251.4263305664062
 21
118.5736694335938
  0
LINE
  5
220
100
AcDbEntity
  8
0
  6
ByLayer
 62
  256
370
   -1
100
AcDbLine
 10
253.9375
 20
120.5005569458008
 11
252.6187744140625
 21
119.6194076538086
  0
LINE
  5
221
100
AcDbEntity
  8
0
  6
ByLayer
 62
  256
370
   -1
100
AcDbLine
 10
255.3599700927734
 20
121.2020416259766
 11
253.9375
 21
120.5005569458008
  0
LINE
  5
222
100
AcDbEntity
  8
0
  6
ByLayer
 62
  256
370
   -1
100
AcDbLine
 10
256.86181640625
 20
121.7118530273438
 11
255.3599700927734
 21
121.2020416259766
  0
LINE
  5
223
100
AcDbEntity
  8
0
  6
ByLayer
 62
  256
370
   -1
100
AcDbLine
 10
256.86181640625
 20
121.7118530273438
 11
258.4173583984375
 21
122.0212707519531
  0
LINE
  5
224
100
AcDbEntity
  8
0
  6
ByLayer
 62
  256
370
   -1
100
AcDbLine
 10
260
 20
122.125
 11
258.4173583984375
 21
122.0212707519531
  0
LINE
  5
225
100
AcDbEntity
  8
0
  6
ByLayer
 62
  256
370
   -1
100
AcDbLine
 10
260
 20
126.6750030517578
 11
258.4173583984375
 21
126.7787322998047
  0
LINE
  5
226
100
AcDbEntity
  8
0
  6
ByLayer
 62
  256
370
   -1
100
AcDbLine
 10
256.86181640625
 20
127.0881500244141
 11
258.4173583984375
 21
126.7787322998047
  0
LINE
  5
227
100
AcDbEntity
  8
0
  6
ByLayer
 62
  256
370
   -1
100
AcDbLine
 10
256.86181640625
 20
127.0881500244141
 11
255.3599548339844
 21
127.5979614257812
  0
LINE
  5
228
100
AcDbEntity
  8
0
  6
ByLayer
 62
  256
370
   -1
100
AcDbLine
 10
255.3599548339844
 20
127.5979614257812
 11
253.9375
 21
128.2994537353516
  0
LINE
  5
229
100
AcDbEntity
  8
0
  6
ByLayer
 62
  256
370
   -1
100
AcDbLine
 10
253.9375
 20
128.2994537353516
 11
252.6187591552734
 21
129.1806030273438
  0
LINE
  5
22A
100
AcDbEntity
  8
0
  6
ByLayer
 62
  256
370
   -1
100
AcDbLine
 10
252.6187591552734
 20
129.1806030273438
 11
251.4263305664062
 21
130.2263336181641
  0
LINE
  5
22B
100
AcDbEntity
  8
0
  6
ByLayer
 62
  256
370
   -1
100
AcDbLine
 10
250.3805847167969
 20
131.4187774658203
 11
251.4263305664062
 21
130.2263336181641
  0
LINE
  5
22C
100
AcDbEntity
  8
0
  6
ByLayer
 62
  256
370
   -1
100
AcDbLine
 10
250.3805847167969
 20
131.4187774658203
 11
249.4994354248047
 21
132.7375030517578
  0
LINE
  5
22D
100
AcDbEntity
  8
0
  6
ByLayer
 62
  256
370
   -1
100
AcDbLine
 10
249.4994354248047
 20
132.7375030517578
 11
248.7979583740234
 21
134.1599731445312
  0
LINE
  5
22E
100
AcDbEntity
  8
0
  6
ByLayer
 62
  256
370
   -1
100
AcDbLine
 10
248.7979583740234
 20
134.1599731445312
 11
248.2881469726562
 21
135.6618194580078
  0
LINE
  5
22F
100
AcDbEntity
  8
0
  6
ByLayer
 62
  256
370
   -1
100
AcDbLine
 10
248.2881469726562
 20
135.6618194580078
 11
247.9787292480469
 21
137.2173767089844
  0
LINE
  5
230
100
AcDbEntity
  8
0
  6
ByLayer
 62
  256
370
   -1
100
AcDbLine
 10
247.875
 20
138.8000030517578
 11
247.9787292480469
 21
137.2173767089844
  0
LINE
  5
231
100
AcDbEntity
  8
0
  6
ByLayer
 62
  256
370
   -1
100
AcDbLine
 10
247.875
 20
138.8000030517578
 11
247.9787292480469
 21
140.3826293945312
  0
LINE
  5
232
100
AcDbEntity
  8
0
  6
ByLayer
 62
  256
370
   -1
100
AcDbLine
 10
248.2881469726562
 20
141.9381866455078
 11
247.9787292480469
 21
140.3826293945312
  0
LINE
  5
233
100
AcDbEntity
  8
0
  6
ByLayer
 62
  256
370
   -1
100
AcDbLine
 10
248.2881469726562
 20
141.9381866455078
 11
248.7979583740234
 21
143.4400329589844
  0
LINE
  5
234
100
AcDbEntity
  8
0
  6
ByLayer
 62
  256
370
   -1
100
AcDbLine
 10
249.4994506835938
 20
144.8625030517578
 11
248.7979583740234
 21
143.4400329589844
  0
LINE
  5
235
100
AcDbEntity
  8
0
  6
ByLayer
 62
  256
370
   -1
100
AcDbLine
 10
249.4994506835938
 20
144.8625030517578
 11
250.3805847167969
 21
146.1812438964844
  0
LINE
  5
236
100
AcDbEntity
  8
0
  6
ByLayer
 62
  256
370
   -1
100
AcDbLine
 10
251.4263305664062
 20
147.3736724853516
 11
250.3805847167969
 21
146.1812438964844
  0
LINE
  5
237
100
AcDbEntity
  8
0
  6
ByLayer
 62
  256
370
   -1
100
AcDbLine
 10
251.4263305664062
 20
147.3736724853516
 11
252.6187744140625
 21
148.4194030761719
  0
LINE
  5
238
100
AcDbEntity
  8
0
  6
ByLayer
 62
  256
370
   -1
100
AcDbLine
 10
253.9375
 20
149.3005676269531
 11
252.6187744140625
 21
148.4194030761719
  0
LINE
  5
239
100
AcDbEntity
  8
0
  6
ByLayer
 62
  256
370
   -1
100
AcDbLine
 10
253.9375
 20
149.3005676269531
 11
255.3599700927734
 21
150.0020446777344
  0
LINE
  5
23A
100
AcDbEntity
  8
0
  6
ByLayer
 62
  256
370
   -1
100
AcDbLine
 10
256.86181640625
 20
150.5118560791016
 11
255.3599700927734
 21
150.0020446777344
  0
LINE
  5
23B
100
AcDbEntity
  8
0
  6
ByLayer
 62
  256
370
   -1
100
AcDbLine
 10
258.4173583984375
 20
150.8212738037109
 11
256.86181640625
 21
150.5118560791016
  0
LINE
  5
23C
100
AcDbEntity
  8
0
  6
ByLayer
 62
  256
370
   -1
100
AcDbLine
 10
258.4173583984375
 20
150.8212738037109
 11
260
 21
150.9250030517578
  0
LINE
  5
23D
100
AcDbEntity
  8
0
  6
ByLayer
 62
  256
370
   -1
100
AcDbLine
 10
261.5826416015625
 20
150.8212738037109
 11
260
 21
150.9250030517578
  0
LINE
  5
23E
100
AcDbEntity
  8
0
  6
ByLayer
 62
  256
370
   -1
100
AcDbLine
 10
261.5826416015625
 20
150.8212738037109
 11
263.13818359375
 21
150.5118560791016
  0
LINE
  5
23F
100
AcDbEntity
  8
0
  6
ByLayer
 62
  256
370
   -1
100
AcDbLine
 10
264.6400451660156
 20
150.0020446777344
 11
263.13818359375
 21
150.5118560791016
  0
LINE
  5
240
100
AcDbEntity
  8
0
  6
ByLayer
 62
  256
370
   -1
100
AcDbLine
 10
266.0625
 20
149.3005676269531
 11
264.6400451660156
 21
150.0020446777344
  0
LINE
  5
241
100
AcDbEntity
  8
0
  6
ByLayer
 62
  256
370
   -1
100
AcDbLine
 10
266.0625
 20
149.3005676269531
 11
267.3812255859375
 21
148.4194030761719
  0
LINE
  5
242
100
AcDbEntity
  8
0
  6
ByLayer
 62
  256
370
   -1
100
AcDbLine
 10
268.5736694335938
 20
147.3736724853516
 11
267.3812255859375
 21
148.4194030761719
  0
LINE
  5
243
100
AcDbEntity
  8
0
  6
ByLayer
 62
  256
370
   -1
100
AcDbLine
 10
268.5736694335938
 20
147.3736724853516
 11
269.6194152832031
 21
146.1812286376953
  0
LINE
  5
244
100
AcDbEntity
  8
0
  6
ByLayer
 62
  256
370
   -1
100
AcDbLine
 10
270.5005493164062
 20
144.8625030517578
 11
269.6194152832031
 21
146.1812286376953
  0
LINE
  5
245
100
AcDbEntity
  8
0
  6
ByLayer
 62
  256
370
   -1
100
AcDbLine
 10
239.1126098632812
 20
61.78406143188477
 11
239.4263305664062
 21
61.42633056640625
  0
LINE
  5
246
100
AcDbEntity
  8
0
  6
ByLayer
 62
  256
370
   -1
100
AcDbLine
 10
236.2086639404297
 20
58.20866394042969
 11
236.5223846435547
 21
57.85093307495117
  0
LINE
  5
247
100
AcDbEntity
  8
0
  6
ByLayer
 62
  256
370
   -1
100
AcDbLine
 10
251.13818359375
 20
81.71185302734375
 11
251.5887451171875
 21
81.55890655517578
  0
LINE
  5
248
100
AcDbEntity
  8
0
  6
ByLayer
 62
  256
370
   -1
100
AcDbLine
 10
256.86181640625
 20
98.28814697265625
 11
256.4112548828125
 21
98.44109344482422
  0
LINE
  5
249
100
AcDbEntity
  8
0
  6
ByLayer
 62
  256
370
   -1
100
AcDbLine
 10
373.9999694824219
 20
26.49664497375488
 11
374.3111572265625
 21
26.66298294067383
  0
LINE
  5
24A
100
AcDbEntity
  8
0
  6
ByLayer
 62
  256
370
   -1
100
AcDbLine
 10
374.3111572265625
 20
26.66298294067383
 11
374.6488342285156
 21
26.76541328430176
  0
LINE
  5
24B
100
AcDbEntity
  8
0
  6
ByLayer
 62
  256
370
   -1
100
AcDbLine
 10
375
 20
26.80000114440918
 11
374.6488342285156
 21
26.76541328430176
  0
LINE
  5
24C
100
AcDbEntity
  8
0
  6
ByLayer
 62
  256
370
   -1
100
AcDbLine
 10
375
 20
26.80000114440918
 11
375.3511657714844
 21
26.76541328430176
  0
LINE
  5
24D
100
AcDbEntity
  8
0
  6
ByLayer
 62
  256
370
   -1
100
AcDbLine
 10
375.3511657714844
 20
26.76541328430176
 11
375.6888427734375
 21
26.66298294067383
  0
LINE
  5
24E
100
AcDbEntity
  8
0
  6
ByLayer
 62
  256
370
   -1
100
AcDbLine
 10
375.6888427734375
 20
26.66298294067383
 11
376.0000305175781
 21
26.49664497375488
  0
LINE
  5
24F
100
AcDbEntity
  8
0
  6
ByLayer
 62
  256
370
   -1
100
AcDbLine
 10
376.0000305175781
 20
26.49664497375488
 11
376.2727966308594
 21
26.27279281616211
  0
LINE
  5
250
100
AcDbEntity
  8
0
  6
ByLayer
 62
  256
370
   -1
100
AcDbLine
 10
376.2727966308594
 20
26.27279281616211
 11
376.4966430664062
 21
26.00002670288086
  0
LINE
  5
251
100
AcDbEntity
  8
0
  6
ByLayer
 62
  256
370
   -1
100
AcDbLine
 10
376.4966430664062
 20
26.00002670288086
 11
376.6629943847656
 21
25.6888313293457
  0
LINE
  5
252
100
AcDbEntity
  8
0
  6
ByLayer
 62
  256
370
   -1
100
AcDbLine
 10
376.6629943847656
 20
25.6888313293457
 11
376.7654113769531
 21
25.35116386413574
  0
LINE
  5
253
100
AcDbEntity
  8
0
  6
ByLayer
 62
  256
370
   -1
100
AcDbLine
 10
376.7654113769531
 20
25.35116386413574
 11
376.7999877929688
 21
25
  0
LINE
  5
254
100
AcDbEntity
  8
0
  6
ByLayer
 62
  256
370
   -1
100
AcDbLine
 10
376.7999877929688
 20
25
 11
376.7654113769531
 21
24.64883804321289
  0
LINE
  5
255
100
AcDbEntity
  8
0
  6
ByLayer
 62
  256
370
   -1
100
AcDbLine
 10
376.7654113769531
 20
24.64883804321289
 11
376.6629943847656
 21
24.31117057800293
  0
LINE
  5
256
100
AcDbEntity
  8
0
  6
ByLayer
 62
  256
370
   -1
100
AcDbLine
 10
376.6629943847656
 20
24.31117057800293
 11
376.4966430664062
 21
23.99997329711914
  0
LINE
  5
257
100
AcDbEntity
  8
0
  6
ByLayer
 62
  256
370
   -1
100
AcDbLine
 10
376.4966430664062
 20
23.99997329711914
 11
376.2727966308594
 21
23.72720909118652
  0
LINE
  5
258
100
AcDbEntity
  8
0
  6
ByLayer
 62
  256
370
   -1
100
AcDbLine
 10
376.2727966308594
 20
23.72720909118652
 11
376.0000305175781
 21
23.50335502624512
  0
LINE
  5
259
100
AcDbEntity
  8
0
  6
ByLayer
 62
  256
370
   -1
100
AcDbLine
 10
376.0000305175781
 20
23.50335502624512
 11
375.6888427734375
 21
23.33701705932617
  0
LINE
  5
25A
100
AcDbEntity
  8
0
  6
ByLayer
 62
  256
370
   -1
100
AcDbLine
 10
375.6888427734375
 20
23.33701705932617
 11
375.3511657714844
 21
23.23458671569824
  0
LINE
  5
25B
100
AcDbEntity
  8
0
  6
ByLayer
 62
  256
370
   -1
100
AcDbLine
 10
375.3511657714844
 20
23.23458671569824
 11
375
 21
23.20000076293945
  0
LINE
  5
25C
100
AcDbEntity
  8
0
  6
ByLayer
 62
  256
370
   -1
100
AcDbLine
 10
375
 20
23.20000076293945
 11
374.6488342285156
 21
23.23458671569824
  0
LINE
  5
25D
100
AcDbEntity
  8
0
  6
ByLayer
 62
  256
370
   -1
100
AcDbLine
 10
374.6488342285156
 20
23.23458671569824
 11
374.3111572265625
 21
23.33701705932617
  0
LINE
  5
25E
100
AcDbEntity
  8
0
  6
ByLayer
 62
  256
370
   -1
100
AcDbLine
 10
374.3111572265625
 20
23.33701705932617
 11
373.9999694824219
 21
23.50335502624512
  0
LINE
  5
25F
100
AcDbEntity
  8
0
  6
ByLayer
 62
  256
370
   -1
100
AcDbLine
 10
373.9999694824219
 20
23.50335502624512
 11
373.7272033691406
 21
23.72720909118652
  0
LINE
  5
260
100
AcDbEntity
  8
0
  6
ByLayer
 62
  256
370
   -1
100
AcDbLine
 10
373.7272033691406
 20
23.72720909118652
 11
373.5033569335938
 21
23.99997329711914
  0
LINE
  5
261
100
AcDbEntity
  8
0
  6
ByLayer
 62
  256
370
   -1
100
AcDbLine
 10
373.5033569335938
 20
23.99997329711914
 11
373.3370056152344
 21
24.31117057800293
  0
LINE
  5
262
100
AcDbEntity
  8
0
  6
ByLayer
 62
  256
370
   -1
100
AcDbLine
 10
373.3370056152344
 20
24.31117057800293
 11
373.2345886230469
 21
24.64883804321289
  0
LINE
  5
263
100
AcDbEntity
  8
0
  6
ByLayer
 62
  256
370
   -1
100
AcDbLine
 10
373.2345886230469
 20
24.64883804321289
 11
373.2000122070312
 21
25
  0
LINE
  5
264
100
AcDbEntity
  8
0
  6
ByLayer
 62
  256
370
   -1
100
AcDbLine
 10
373.2000122070312
 20
25
 11
373.2345886230469
 21
25.35116386413574
  0
LINE
  5
265
100
AcDbEntity
  8
0
  6
ByLayer
 62
  256
370
   -1
100
AcDbLine
 10
373.2345886230469
 20
25.35116386413574
 11
373.3370056152344
 21
25.6888313293457
  0
LINE
  5
266
100
AcDbEntity
  8
0
  6
ByLayer
 62
  256
370
   -1
100
AcDbLine
 10
373.3370056152344
 20
25.6888313293457
 11
373.5033569335938
 21
26.00002670288086
  0
LINE
  5
267
100
AcDbEntity
  8
0
  6
ByLayer
 62
  256
370
   -1
100
AcDbLine
 10
373.5033569335938
 20
26.00002670288086
 11
373.7272033691406
 21
26.27279281616211
  0
LINE
  5
268
100
AcDbEntity
  8
0
  6
ByLayer
 62
  256
370
   -1
100
AcDbLine
 10
373.7272033691406
 20
26.27279281616211
 11
373.9999694824219
 21
26.49664497375488
  0
LINE
  5
269
100
AcDbEntity
  8
0
  6
ByLayer
 62
  256
370
   -1
100
AcDbLine
 10
374.3111572265625
 20
186.6629791259766
 11
374.6488342285156
 21
186.7654113769531
  0
LINE
  5
26A
100
AcDbEntity
  8
0
  6
ByLayer
 62
  256
370
   -1
100
AcDbLine
 10
373.9999694824219
 20
186.4966430664062
 11
374.3111572265625
 21
186.6629791259766
  0
LINE
  5
26B
100
AcDbEntity
  8
0
  6
ByLayer
 62
  256
370
   -1
100
AcDbLine
 10
373.7272033691406
 20
186.2727966308594
 11
373.9999694824219
 21
186.4966430664062
  0
LINE
  5
26C
100
AcDbEntity
  8
0
  6
ByLayer
 62
  256
370
   -1
100
AcDbLine
 10
373.5033569335938
 20
186.0000305175781
 11
373.7272033691406
 21
186.2727966308594
  0
LINE
  5
26D
100
AcDbEntity
  8
0
  6
ByLayer
 62
  256
370
   -1
100
AcDbLine
 10
373.3370056152344
 20
185.6888275146484
 11
373.5033569335938
 21
186.0000305175781
  0
LINE
  5
26E
100
AcDbEntity
  8
0
  6
ByLayer
 62
  256
370
   -1
100
AcDbLine
 10
373.2345886230469
 20
185.3511657714844
 11
373.3370056152344
 21
185.6888275146484
  0
LINE
  5
26F
100
AcDbEntity
  8
0
  6
ByLayer
 62
  256
370
   -1
100
AcDbLine
 10
373.2000122070312
 20
185
 11
373.2345886230469
 21
185.3511657714844
  0
LINE
  5
270
100
AcDbEntity
  8
0
  6
ByLayer
 62
  256
370
   -1
100
AcDbLine
 10
373.2345886230469
 20
184.6488342285156
 11
373.2000122070312
 21
185
  0
LINE
  5
271
100
AcDbEntity
  8
0
  6
ByLayer
 62
  256
370
   -1
100
AcDbLine
 10
373.3370056152344
 20
184.3111724853516
 11
373.2345886230469
 21
184.6488342285156
  0
LINE
  5
272
100
AcDbEntity
  8
0
  6
ByLayer
 62
  256
370
   -1
100
AcDbLine
 10
373.5033569335938
 20
183.9999694824219
 11
373.3370056152344
 21
184.3111724853516
  0
LINE
  5
273
100
AcDbEntity
  8
0
  6
ByLayer
 62
  256
370
   -1
100
AcDbLine
 10
373.7272033691406
 20
183.7272033691406
 11
373.5033569335938
 21
183.9999694824219
  0
LINE
  5
274
100
AcDbEntity
  8
0
  6
ByLayer
 62
  256
370
   -1
100
AcDbLine
 10
373.9999694824219
 20
183.5033569335938
 11
373.7272033691406
 21
183.7272033691406
  0
LINE
  5
275
100
AcDbEntity
  8
0
  6
ByLayer
 62
  256
370
   -1
100
AcDbLine
 10
374.3111572265625
 20
183.3370208740234
 11
373.9999694824219
 21
183.5033569335938
  0
LINE
  5
276
100
AcDbEntity
  8
0
  6
ByLayer
 62
  256
370
   -1
100
AcDbLine
 10
374.6488342285156
 20
183.2345886230469
 11
374.3111572265625
 21
183.3370208740234
  0
LINE
  5
277
100
AcDbEntity
  8
0
  6
ByLayer
 62
  256
370
   -1
100
AcDbLine
 10
375
 20
183.1999969482422
 11
374.6488342285156
 21
183.2345886230469
  0
LINE
  5
278
100
AcDbEntity
  8
0
  6
ByLayer
 62
  256
370
   -1
100
AcDbLine
 10
375.3511657714844
 20
183.2345886230469
 11
375
 21
183.1999969482422
  0
LINE
  5
279
100
AcDbEntity
  8
0
  6
ByLayer
 62
  256
370
   -1
100
AcDbLine
 10
375.6888427734375
 20
183.3370208740234
 11
375.3511657714844
 21
183.2345886230469
  0
LINE
  5
27A
100
AcDbEntity
  8
0
  6
ByLayer
 62
  256
370
   -1
100
AcDbLine
 10
376.0000305175781
 20
183.5033569335938
 11
375.6888427734375
 21
183.3370208740234
  0
LINE
  5
27B
100
AcDbEntity
  8
0
  6
ByLayer
 62
  256
370
   -1
100
AcDbLine
 10
376.2727966308594
 20
183.7272033691406
 11
376.0000305175781
 21
183.5033569335938
  0
LINE
  5
27C
100
AcDbEntity
  8
0
  6
ByLayer
 62
  256
370
   -1
100
AcDbLine
 10
376.4966430664062
 20
183.9999694824219
 11
376.2727966308594
 21
183.7272033691406
  0
LINE
  5
27D
100
AcDbEntity
  8
0
  6
ByLayer
 62
  256
370
   -1
100
AcDbLine
 10
376.6629943847656
 20
184.3111724853516
 11
376.4966430664062
 21
183.9999694824219
  0
LINE
  5
27E
100
AcDbEntity
  8
0
  6
ByLayer
 62
  256
370
   -1
100
AcDbLine
 10
376.7654113769531
 20
184.6488342285156
 11
376.6629943847656
 21
184.3111724853516
  0
LINE
  5
27F
100
AcDbEntity
  8
0
  6
ByLayer
 62
  256
370
   -1
100
AcDbLine
 10
376.7999877929688
 20
185
 11
376.7654113769531
 21
184.6488342285156
  0
LINE
  5
280
100
AcDbEntity
  8
0
  6
ByLayer
 62
  256
370
   -1
100
AcDbLine
 10
376.7654113769531
 20
185.3511657714844
 11
376.7999877929688
 21
185
  0
LINE
  5
281
100
AcDbEntity
  8
0
  6
ByLayer
 62
  256
370
   -1
100
AcDbLine
 10
376.6629943847656
 20
185.6888275146484
 11
376.7654113769531
 21
185.3511657714844
  0
LINE
  5
282
100
AcDbEntity
  8
0
  6
ByLayer
 62
  256
370
   -1
100
AcDbLine
 10
376.4966430664062
 20
186.0000305175781
 11
376.6629943847656
 21
185.6888275146484
  0
LINE
  5
283
100
AcDbEntity
  8
0
  6
ByLayer
 62
  256
370
   -1
100
AcDbLine
 10
376.2727966308594
 20
186.2727966308594
 11
376.4966430664062
 21
186.0000305175781
  0
LINE
  5
284
100
AcDbEntity
  8
0
  6
ByLayer
 62
  256
370
   -1
100
AcDbLine
 10
376.0000305175781
 20
186.4966430664062
 11
376.2727966308594
 21
186.2727966308594
  0
LINE
  5
285
100
AcDbEntity
  8
0
  6
ByLayer
 62
  256
370
   -1
100
AcDbLine
 10
375.6888427734375
 20
186.6629791259766
 11
376.0000305175781
 21
186.4966430664062
  0
LINE
  5
286
100
AcDbEntity
  8
0
  6
ByLayer
 62
  256
370
   -1
100
AcDbLine
 10
375.3511657714844
 20
186.7654113769531
 11
375.6888427734375
 21
186.6629791259766
  0
LINE
  5
287
100
AcDbEntity
  8
0
  6
ByLayer
 62
  256
370
   -1
100
AcDbLine
 10
375
 20
186.8000030517578
 11
375.3511657714844
 21
186.7654113769531
  0
LINE
  5
288
100
AcDbEntity
  8
0
  6
ByLayer
 62
  256
370
   -1
100
AcDbLine
 10
375
 20
186.8000030517578
 11
374.6488342285156
 21
186.7654113769531
  0
LINE
  5
289
100
AcDbEntity
  8
0
  6
ByLayer
 62
  256
370
   -1
100
AcDbLine
 10
216.8500061035156
 20
185
 11
216.814453125
 21
185.3609161376953
  0
LINE
  5
28A
100
AcDbEntity
  8
0
  6
ByLayer
 62
  256
370
   -1
100
AcDbLine
 10
216.814453125
 20
184.6390838623047
 11
216.8500061035156
 21
185
  0
LINE
  5
28B
100
AcDbEntity
  8
0
  6
ByLayer
 62
  256
370
   -1
100
AcDbLine
 10
216.7091827392578
 20
184.2920379638672
 11
216.814453125
 21
184.6390838623047
  0
LINE
  5
28C
100
AcDbEntity
  8
0
  6
ByLayer
 62
  256
370
   -1
100
AcDbLine
 10
216.5382232666016
 20
183.9721984863281
 11
216.7091827392578
 21
184.2920379638672
  0
LINE
  5
28D
100
AcDbEntity
  8
0
  6
ByLayer
 62
  256
370
   -1
100
AcDbLine
 10
216.3081512451172
 20
183.6918487548828
 11
216.5382232666016
 21
183.9721984863281
  0
LINE
  5
28E
100
AcDbEntity
  8
0
  6
ByLayer
 62
  256
370
   -1
100
AcDbLine
 10
216.0278015136719
 20
183.4617767333984
 11
216.3081512451172
 21
183.6918487548828
  0
LINE
  5
28F
100
AcDbEntity
  8
0
  6
ByLayer
 62
  256
370
   -1
100
AcDbLine
 10
215.7079620361328
 20
183.2908172607422
 11
216.0278015136719
 21
183.4617767333984
  0
LINE
  5
290
100
AcDbEntity
  8
0
  6
ByLayer
 62
  256
370
   -1
100
AcDbLine
 10
215.3609161376953
 20
183.185546875
 11
215.7079620361328
 21
183.2908172607422
  0
LINE
  5
291
100
AcDbEntity
  8
0
  6
ByLayer
 62
  256
370
   -1
100
AcDbLine
 10
215
 20
183.1499938964844
 11
215.3609161376953
 21
183.185546875
  0
LINE
  5
292
100
AcDbEntity
  8
0
  6
ByLayer
 62
  256
370
   -1
100
AcDbLine
 10
214.6390838623047
 20
183.185546875
 11
215
 21
183.1499938964844
  0
LINE
  5
293
100
AcDbEntity
  8
0
  6
ByLayer
 62
  256
370
   -1
100
AcDbLine
 10
214.2920379638672
 20
183.2908172607422
 11
214.6390838623047
 21
183.185546875
  0
LINE
  5
294
100
AcDbEntity
  8
0
  6
ByLayer
 62
  256
370
   -1
100
AcDbLine
 10
213.9721984863281
 20
183.4617767333984
 11
214.2920379638672
 21
183.2908172607422
  0
LINE
  5
295
100
AcDbEntity
  8
0
  6
ByLayer
 62
  256
370
   -1
100
AcDbLine
 10
213.6918487548828
 20
183.6918487548828
 11
213.9721984863281
 21
183.4617767333984
  0
LINE
  5
296
100
AcDbEntity
  8
0
  6
ByLayer
 62
  256
370
   -1
100
AcDbLine
 10
213.4617767333984
 20
183.9721984863281
 11
213.6918487548828
 21
183.6918487548828
  0
LINE
  5
297
100
AcDbEntity
  8
0
  6
ByLayer
 62
  256
370
   -1
100
AcDbLine
 10
213.2908172607422
 20
184.2920379638672
 11
213.4617767333984
 21
183.9721984863281
  0
LINE
  5
298
100
AcDbEntity
  8
0
  6
ByLayer
 62
  256
370
   -1
100
AcDbLine
 10
213.185546875
 20
184.6390838623047
 11
213.2908172607422
 21
184.2920379638672
  0
LINE
  5
299
100
AcDbEntity
  8
0
  6
ByLayer
 62
  256
370
   -1
100
AcDbLine
 10
213.1499938964844
 20
185
 11
213.185546875
 21
184.6390838623047
  0
LINE
  5
29A
100
AcDbEntity
  8
0
  6
ByLayer
 62
  256
370
   -1
100
AcDbLine
 10
213.185546875
 20
185.3609161376953
 11
213.1499938964844
 21
185
  0
LINE
  5
29B
100
AcDbEntity
  8
0
  6
ByLayer
 62
  256
370
   -1
100
AcDbLine
 10
213.2908172607422
 20
185.7079620361328
 11
213.185546875
 21
185.3609161376953
  0
LINE
  5
29C
100
AcDbEntity
  8
0
  6
ByLayer
 62
  256
370
   -1
100
AcDbLine
 10
213.4617767333984
 20
186.0278015136719
 11
213.2908172607422
 21
185.7079620361328
  0
LINE
  5
29D
100
AcDbEntity
  8
0
  6
ByLayer
 62
  256
370
   -1
100
AcDbLine
 10
213.6918487548828
 20
186.3081512451172
 11
213.4617767333984
 21
186.0278015136719
  0
LINE
  5
29E
100
AcDbEntity
  8
0
  6
ByLayer
 62
  256
370
   -1
100
AcDbLine
 10
213.9721984863281
 20
186.5382232666016
 11
213.6918487548828
 21
186.3081512451172
  0
LINE
  5
29F
100
AcDbEntity
  8
0
  6
ByLayer
 62
  256
370
   -1
100
AcDbLine
 10
214.2920379638672
 20
186.7091827392578
 11
213.9721984863281
 21
186.5382232666016
  0
LINE
  5
2A0
100
AcDbEntity
  8
0
  6
ByLayer
 62
  256
370
   -1
100
AcDbLine
 10
214.6390838623047
 20
186.814453125
 11
214.2920379638672
 21
186.7091827392578
  0
LINE
  5
2A1
100
AcDbEntity
  8
0
  6
ByLayer
 62
  256
370
   -1
100
AcDbLine
 10
215
 20
186.8500061035156
 11
214.6390838623047
 21
186.814453125
  0
LINE
  5
2A2
100
AcDbEntity
  8
0
  6
ByLayer
 62
  256
370
   -1
100
AcDbLine
 10
215
 20
186.8500061035156
 11
215.3609161376953
 21
186.814453125
  0
LINE
  5
2A3
100
AcDbEntity
  8
0
  6
ByLayer
 62
  256
370
   -1
100
AcDbLine
 10
215.7079620361328
 20
186.7091827392578
 11
215.3609161376953
 21
186.814453125
  0
LINE
  5
2A4
100
AcDbEntity
  8
0
  6
ByLayer
 62
  256
370
   -1
100
AcDbLine
 10
216.0278015136719
 20
186.5382232666016
 11
215.7079620361328
 21
186.7091827392578
  0
LINE
  5
2A5
100
AcDbEntity
  8
0
  6
ByLayer
 62
  256
370
   -1
100
AcDbLine
 10
216.3081512451172
 20
186.3081512451172
 11
216.0278015136719
 21
186.5382232666016
  0
LINE
  5
2A6
100
AcDbEntity
  8
0
  6
ByLayer
 62
  256
370
   -1
100
AcDbLine
 10
216.5382232666016
 20
186.0278015136719
 11
216.3081512451172
 21
186.3081512451172
  0
LINE
  5
2A7
100
AcDbEntity
  8
0
  6
ByLayer
 62
  256
370
   -1
100
AcDbLine
 10
216.7091827392578
 20
185.7079620361328
 11
216.5382232666016
 21
186.0278015136719
  0
LINE
  5
2A8
100
AcDbEntity
  8
0
  6
ByLayer
 62
  256
370
   -1
100
AcDbLine
 10
216.814453125
 20
185.3609161376953
 11
216.7091827392578
 21
185.7079620361328
  0
LINE
  5
2A9
100
AcDbEntity
  8
0
  6
ByLayer
 62
  256
370
   -1
100
AcDbLine
 10
216.0278015136719
 20
26.5382194519043
 11
215.7079620361328
 21
26.70917701721191
  0
LINE
  5
2AA
100
AcDbEntity
  8
0
  6
ByLayer
 62
  256
370
   -1
100
AcDbLine
 10
215.7079620361328
 20
26.70917701721191
 11
215.3609161376953
 21
26.814453125
  0
LINE
  5
2AB
100
AcDbEntity
  8
0
  6
ByLayer
 62
  256
370
   -1
100
AcDbLine
 10
215
 20
26.85000038146973
 11
215.3609161376953
 21
26.814453125
  0
LINE
  5
2AC
100
AcDbEntity
  8
0
  6
ByLayer
 62
  256
370
   -1
100
AcDbLine
 10
215
 20
26.85000038146973
 11
214.6390838623047
 21
26.814453125
  0
LINE
  5
2AD
100
AcDbEntity
  8
0
  6
ByLayer
 62
  256
370
   -1
100
AcDbLine
 10
214.6390838623047
 20
26.814453125
 11
214.2920379638672
 21
26.70917701721191
  0
LINE
  5
2AE
100
AcDbEntity
  8
0
  6
ByLayer
 62
  256
370
   -1
100
AcDbLine
 10
214.2920379638672
 20
26.70917701721191
 11
213.9721984863281
 21
26.5382194519043
  0
LINE
  5
2AF
100
AcDbEntity
  8
0
  6
ByLayer
 62
  256
370
   -1
100
AcDbLine
 10
213.9721984863281
 20
26.5382194519043
 11
213.6918487548828
 21
26.30814743041992
  0
LINE
  5
2B0
100
AcDbEntity
  8
0
  6
ByLayer
 62
  256
370
   -1
100
AcDbLine
 10
213.6918487548828
 20
26.30814743041992
 11
213.4617767333984
 21
26.02780532836914
  0
LINE
  5
2B1
100
AcDbEntity
  8
0
  6
ByLayer
 62
  256
370
   -1
100
AcDbLine
 10
213.4617767333984
 20
26.02780532836914
 11
213.2908172607422
 21
25.70796394348145
  0
LINE
  5
2B2
100
AcDbEntity
  8
0
  6
ByLayer
 62
  256
370
   -1
100
AcDbLine
 10
213.2908172607422
 20
25.70796394348145
 11
213.185546875
 21
25.36091804504395
  0
LINE
  5
2B3
100
AcDbEntity
  8
0
  6
ByLayer
 62
  256
370
   -1
100
AcDbLine
 10
213.185546875
 20
25.36091804504395
 11
213.1499938964844
 21
25
  0
LINE
  5
2B4
100
AcDbEntity
  8
0
  6
ByLayer
 62
  256
370
   -1
100
AcDbLine
 10
213.1499938964844
 20
25
 11
213.185546875
 21
24.63908386230469
  0
LINE
  5
2B5
100
AcDbEntity
  8
0
  6
ByLayer
 62
  256
370
   -1
100
AcDbLine
 10
213.185546875
 20
24.63908386230469
 11
213.2908172607422
 21
24.29203605651855
  0
LINE
  5
2B6
100
AcDbEntity
  8
0
  6
ByLayer
 62
  256
370
   -1
100
AcDbLine
 10
213.2908172607422
 20
24.29203605651855
 11
213.4617767333984
 21
23.97219467163086
  0
LINE
  5
2B7
100
AcDbEntity
  8
0
  6
ByLayer
 62
  256
370
   -1
100
AcDbLine
 10
213.4617767333984
 20
23.97219467163086
 11
213.6918487548828
 21
23.69185256958008
  0
LINE
  5
2B8
100
AcDbEntity
  8
0
  6
ByLayer
 62
  256
370
   -1
100
AcDbLine
 10
213.6918487548828
 20
23.69185256958008
 11
213.9721984863281
 21
23.46178245544434
  0
LINE
  5
2B9
100
AcDbEntity
  8
0
  6
ByLayer
 62
  256
370
   -1
100
AcDbLine
 10
213.9721984863281
 20
23.46178245544434
 11
214.2920379638672
 21
23.29082298278809
  0
LINE
  5
2BA
100
AcDbEntity
  8
0
  6
ByLayer
 62
  256
370
   -1
100
AcDbLine
 10
214.2920379638672
 20
23.29082298278809
 11
214.6390838623047
 21
23.185546875
  0
LINE
  5
2BB
100
AcDbEntity
  8
0
  6
ByLayer
 62
  256
370
   -1
100
AcDbLine
 10
214.6390838623047
 20
23.185546875
 11
215
 21
23.14999961853027
  0
LINE
  5
2BC
100
AcDbEntity
  8
0
  6
ByLayer
 62
  256
370
   -1
100
AcDbLine
 10
215
 20
23.14999961853027
 11
215.3609161376953
 21
23.185546875
  0
LINE
  5
2BD
100
AcDbEntity
  8
0
  6
ByLayer
 62
  256
370
   -1
100
AcDbLine
 10
215.3609161376953
 20
23.185546875
 11
215.7079620361328
 21
23.29082298278809
  0
LINE
  5
2BE
100
AcDbEntity
  8
0
  6
ByLayer
 62
  256
370
   -1
100
AcDbLine
 10
215.7079620361328
 20
23.29082298278809
 11
216.0278015136719
 21
23.46178245544434
  0
LINE
  5
2BF
100
AcDbEntity
  8
0
  6
ByLayer
 62
  256
370
   -1
100
AcDbLine
 10
216.0278015136719
 20
23.46178245544434
 11
216.3081512451172
 21
23.69185256958008
  0
LINE
  5
2C0
100
AcDbEntity
  8
0
  6
ByLayer
 62
  256
370
   -1
100
AcDbLine
 10
216.3081512451172
 20
23.69185256958008
 11
216.5382232666016
 21
23.97219467163086
  0
LINE
  5
2C1
100
AcDbEntity
  8
0
  6
ByLayer
 62
  256
370
   -1
100
AcDbLine
 10
216.5382232666016
 20
23.97219467163086
 11
216.7091827392578
 21
24.29203605651855
  0
LINE
  5
2C2
100
AcDbEntity
  8
0
  6
ByLayer
 62
  256
370
   -1
100
AcDbLine
 10
216.7091827392578
 20
24.29203605651855
 11
216.814453125
 21
24.63908386230469
  0
LINE
  5
2C3
100
AcDbEntity
  8
0
  6
ByLayer
 62
  256
370
   -1
100
AcDbLine
 10
216.814453125
 20
24.63908386230469
 11
216.8500061035156
 21
25
  0
LINE
  5
2C4
100
AcDbEntity
  8
0
  6
ByLayer
 62
  256
370
   -1
100
AcDbLine
 10
216.8500061035156
 20
25
 11
216.814453125
 21
25.36091804504395
  0
LINE
  5
2C5
100
AcDbEntity
  8
0
  6
ByLayer
 62
  256
370
   -1
100
AcDbLine
 10
216.814453125
 20
25.36091804504395
 11
216.7091827392578
 21
25.70796394348145
  0
LINE
  5
2C6
100
AcDbEntity
  8
0
  6
ByLayer
 62
  256
370
   -1
100
AcDbLine
 10
216.7091827392578
 20
25.70796394348145
 11
216.5382232666016
 21
26.02780532836914
  0
LINE
  5
2C7
100
AcDbEntity
  8
0
  6
ByLayer
 62
  256
370
   -1
100
AcDbLine
 10
216.5382232666016
 20
26.02780532836914
 11
216.3081512451172
 21
26.30814743041992
  0
LINE
  5
2C8
100
AcDbEntity
  8
0
  6
ByLayer
 62
  256
370
   -1
100
AcDbLine
 10
216.3081512451172
 20
26.30814743041992
 11
216.0278015136719
 21
26.5382194519043
  0
ENDSEC
  0
SECTION
  2
OBJECTS
  0
DICTIONARY
  5
C
330
0
100
AcDbDictionary
281
    1
  3
ACAD_GROUP
350
D
  0
DICTIONARY
  5
D
330
C
100
AcDbDictionary
281
    1
  0
PLOTSETTINGS
  5
2C9
100
AcDbPlotSettings
  6
1x1
 40
0
 41
0
 42
0
 43
0
  0
ENDSEC
  0
EOF
